<svg xmlns="http://www.w3.org/2000/svg" xmlns:xlink="http://www.w3.org/1999/xlink" width="295" height="253" viewBox="0 0 295 253">
  <defs>
    <clipPath id="clip-path">
      <rect id="Rectángulo_420147" data-name="Rectángulo 420147" width="295" height="253" transform="translate(1051 742.771)" fill="#fff" stroke="#707070" stroke-width="1"/>
    </clipPath>
    <clipPath id="clip-path-2">
      <rect id="Rectángulo_420145" data-name="Rectángulo 420145" width="262.273" height="262.273"/>
    </clipPath>
  </defs>
  <g id="Enmascarar_grupo_1153297" data-name="Enmascarar grupo 1153297" transform="translate(-1051 -742.771)" clip-path="url(#clip-path)">
    <g id="Grupo_1215356" data-name="Grupo 1215356" transform="translate(1067.265 733.498)">
      <rect id="Rectángulo_420146" data-name="Rectángulo 420146" width="172.912" height="220.78" rx="31" transform="translate(33.411 41.493)" fill="#248abf"/>
      <g id="Grupo_1215355" data-name="Grupo 1215355" transform="translate(0 0)">
        <g id="Grupo_1215296" data-name="Grupo 1215296" transform="translate(0 81.145)">
          <g id="Grupo_1215294" data-name="Grupo 1215294" transform="translate(46.096)">
            <g id="Grupo_1215256" data-name="Grupo 1215256" transform="translate(2.539)">
              <g id="Grupo_1215255" data-name="Grupo 1215255">
                <rect id="Rectángulo_420113" data-name="Rectángulo 420113" width="165.199" height="5.902" transform="translate(0 44.441)" fill="#95afb5"/>
                <path id="Trazado_1087727" data-name="Trazado 1087727" d="M92.649,199.394h165.2l-82.6-44.44Z" transform="translate(-92.649 -154.954)" fill="#b6cdd3"/>
                <path id="Trazado_1087728" data-name="Trazado 1087728" d="M116.218,205.415H256.673l-70.227-37.786Z" transform="translate(-103.846 -160.975)" fill="#95afb5"/>
                <path id="Trazado_1087729" data-name="Trazado 1087729" d="M182.134,169.949l59.232,32.372h-119.4l-5.75,3.094H256.673l-70.227-37.786Z" transform="translate(-103.846 -160.975)" fill="#799599"/>
              </g>
              <circle id="Elipse_14287" data-name="Elipse 14287" cx="6.701" cy="6.701" r="6.701" transform="translate(75.899 20.135)" fill="#799599"/>
              <circle id="Elipse_14288" data-name="Elipse 14288" cx="5.394" cy="5.394" r="5.394" transform="translate(76.681 20.917)" fill="#b6cdd3"/>
            </g>
            <g id="Grupo_1215293" data-name="Grupo 1215293" transform="translate(11.176 57.762)">
              <g id="Grupo_1215262" data-name="Grupo 1215262" transform="translate(133.776)">
                <g id="Grupo_1215260" data-name="Grupo 1215260" transform="translate(2.103 10.667)">
                  <g id="Grupo_1215257" data-name="Grupo 1215257">
                    <rect id="Rectángulo_420114" data-name="Rectángulo 420114" width="9.943" height="38.23" fill="#95afb5"/>
                  </g>
                  <g id="Grupo_1215258" data-name="Grupo 1215258" transform="translate(6.636)">
                    <rect id="Rectángulo_420115" data-name="Rectángulo 420115" width="0.751" height="38.46" fill="#b6cdd3"/>
                  </g>
                  <g id="Grupo_1215259" data-name="Grupo 1215259" transform="translate(2.761)">
                    <rect id="Rectángulo_420116" data-name="Rectángulo 420116" width="0.751" height="38.46" fill="#b6cdd3"/>
                  </g>
                </g>
                <path id="Trazado_1087730" data-name="Trazado 1087730" d="M111.072,281.58h10.212a1.968,1.968,0,0,0,1.968-1.968v-.186a1.968,1.968,0,0,0-1.968-1.968H111.072a1.968,1.968,0,0,0-1.968,1.968v.186A1.968,1.968,0,0,0,111.072,281.58Z" transform="translate(-109.104 -270.913)" fill="#b6cdd3"/>
                <path id="Trazado_1087731" data-name="Trazado 1087731" d="M113.9,271.534h5.123a4.2,4.2,0,0,0,4.2-4.2V264.99H109.7v2.345A4.2,4.2,0,0,0,113.9,271.534Z" transform="translate(-109.387 -264.99)" fill="#95afb5"/>
                <g id="Grupo_1215261" data-name="Grupo 1215261" transform="translate(0 48.897)">
                  <path id="Trazado_1087732" data-name="Trazado 1087732" d="M121.284,358.138H111.072a1.968,1.968,0,0,0-1.968,1.968v.186a1.968,1.968,0,0,0,1.968,1.968h10.212a1.968,1.968,0,0,0,1.968-1.968v-.186A1.968,1.968,0,0,0,121.284,358.138Z" transform="translate(-109.104 -358.138)" fill="#b6cdd3"/>
                  <path id="Trazado_1087733" data-name="Trazado 1087733" d="M119.023,365.992H113.9a4.2,4.2,0,0,0-4.2,4.2v2.345h13.522v-2.345A4.2,4.2,0,0,0,119.023,365.992Z" transform="translate(-109.387 -361.869)" fill="#95afb5"/>
                </g>
              </g>
              <g id="Grupo_1215268" data-name="Grupo 1215268" transform="translate(107.02)">
                <g id="Grupo_1215266" data-name="Grupo 1215266" transform="translate(2.103 10.667)">
                  <g id="Grupo_1215263" data-name="Grupo 1215263">
                    <rect id="Rectángulo_420117" data-name="Rectángulo 420117" width="9.943" height="38.23" fill="#95afb5"/>
                  </g>
                  <g id="Grupo_1215264" data-name="Grupo 1215264" transform="translate(6.636)">
                    <rect id="Rectángulo_420118" data-name="Rectángulo 420118" width="0.751" height="38.46" fill="#b6cdd3"/>
                  </g>
                  <g id="Grupo_1215265" data-name="Grupo 1215265" transform="translate(2.761)">
                    <rect id="Rectángulo_420119" data-name="Rectángulo 420119" width="0.751" height="38.46" fill="#b6cdd3"/>
                  </g>
                </g>
                <path id="Trazado_1087734" data-name="Trazado 1087734" d="M162.04,281.58h10.212a1.968,1.968,0,0,0,1.968-1.968v-.186a1.968,1.968,0,0,0-1.968-1.968H162.04a1.968,1.968,0,0,0-1.968,1.968v.186A1.968,1.968,0,0,0,162.04,281.58Z" transform="translate(-160.072 -270.913)" fill="#b6cdd3"/>
                <path id="Trazado_1087735" data-name="Trazado 1087735" d="M164.867,271.534h5.123a4.2,4.2,0,0,0,4.2-4.2V264.99H160.668v2.345A4.2,4.2,0,0,0,164.867,271.534Z" transform="translate(-160.355 -264.99)" fill="#95afb5"/>
                <g id="Grupo_1215267" data-name="Grupo 1215267" transform="translate(0 48.897)">
                  <path id="Trazado_1087736" data-name="Trazado 1087736" d="M172.252,358.138H162.04a1.968,1.968,0,0,0-1.968,1.968v.186a1.968,1.968,0,0,0,1.968,1.968h10.212a1.968,1.968,0,0,0,1.968-1.968v-.186A1.968,1.968,0,0,0,172.252,358.138Z" transform="translate(-160.072 -358.138)" fill="#b6cdd3"/>
                  <path id="Trazado_1087737" data-name="Trazado 1087737" d="M169.991,365.992h-5.123a4.2,4.2,0,0,0-4.2,4.2v2.345H174.19v-2.345A4.2,4.2,0,0,0,169.991,365.992Z" transform="translate(-160.355 -361.869)" fill="#95afb5"/>
                </g>
              </g>
              <g id="Grupo_1215274" data-name="Grupo 1215274" transform="translate(80.265)">
                <g id="Grupo_1215272" data-name="Grupo 1215272" transform="translate(2.103 10.667)">
                  <g id="Grupo_1215269" data-name="Grupo 1215269">
                    <rect id="Rectángulo_420120" data-name="Rectángulo 420120" width="9.943" height="38.23" fill="#95afb5"/>
                  </g>
                  <g id="Grupo_1215270" data-name="Grupo 1215270" transform="translate(6.636)">
                    <rect id="Rectángulo_420121" data-name="Rectángulo 420121" width="0.751" height="38.46" fill="#b6cdd3"/>
                  </g>
                  <g id="Grupo_1215271" data-name="Grupo 1215271" transform="translate(2.761)">
                    <rect id="Rectángulo_420122" data-name="Rectángulo 420122" width="0.751" height="38.46" fill="#b6cdd3"/>
                  </g>
                </g>
                <path id="Trazado_1087738" data-name="Trazado 1087738" d="M213.008,281.58H223.22a1.968,1.968,0,0,0,1.968-1.968v-.186a1.968,1.968,0,0,0-1.968-1.968H213.008a1.968,1.968,0,0,0-1.968,1.968v.186A1.968,1.968,0,0,0,213.008,281.58Z" transform="translate(-211.04 -270.913)" fill="#b6cdd3"/>
                <path id="Trazado_1087739" data-name="Trazado 1087739" d="M215.836,271.534h5.123a4.2,4.2,0,0,0,4.2-4.2V264.99H211.636v2.345A4.2,4.2,0,0,0,215.836,271.534Z" transform="translate(-211.323 -264.99)" fill="#95afb5"/>
                <g id="Grupo_1215273" data-name="Grupo 1215273" transform="translate(0 48.897)">
                  <path id="Trazado_1087740" data-name="Trazado 1087740" d="M223.22,358.138H213.008a1.968,1.968,0,0,0-1.968,1.968v.186a1.968,1.968,0,0,0,1.968,1.968H223.22a1.968,1.968,0,0,0,1.968-1.968v-.186A1.968,1.968,0,0,0,223.22,358.138Z" transform="translate(-211.04 -358.138)" fill="#b6cdd3"/>
                  <path id="Trazado_1087741" data-name="Trazado 1087741" d="M220.959,365.992h-5.123a4.2,4.2,0,0,0-4.2,4.2v2.345h13.522v-2.345A4.2,4.2,0,0,0,220.959,365.992Z" transform="translate(-211.323 -361.869)" fill="#95afb5"/>
                </g>
              </g>
              <g id="Grupo_1215280" data-name="Grupo 1215280" transform="translate(53.51)">
                <g id="Grupo_1215278" data-name="Grupo 1215278" transform="translate(2.103 10.667)">
                  <g id="Grupo_1215275" data-name="Grupo 1215275">
                    <rect id="Rectángulo_420123" data-name="Rectángulo 420123" width="9.943" height="38.23" fill="#95afb5"/>
                  </g>
                  <g id="Grupo_1215276" data-name="Grupo 1215276" transform="translate(6.636)">
                    <rect id="Rectángulo_420124" data-name="Rectángulo 420124" width="0.751" height="38.46" fill="#b6cdd3"/>
                  </g>
                  <g id="Grupo_1215277" data-name="Grupo 1215277" transform="translate(2.761)">
                    <rect id="Rectángulo_420125" data-name="Rectángulo 420125" width="0.751" height="38.46" fill="#b6cdd3"/>
                  </g>
                </g>
                <path id="Trazado_1087742" data-name="Trazado 1087742" d="M263.976,281.58h10.212a1.968,1.968,0,0,0,1.968-1.968v-.186a1.968,1.968,0,0,0-1.968-1.968H263.976a1.968,1.968,0,0,0-1.968,1.968v.186A1.968,1.968,0,0,0,263.976,281.58Z" transform="translate(-262.008 -270.913)" fill="#b6cdd3"/>
                <path id="Trazado_1087743" data-name="Trazado 1087743" d="M266.8,271.534h5.123a4.2,4.2,0,0,0,4.2-4.2V264.99H262.6v2.345A4.2,4.2,0,0,0,266.8,271.534Z" transform="translate(-262.291 -264.99)" fill="#95afb5"/>
                <g id="Grupo_1215279" data-name="Grupo 1215279" transform="translate(0 48.897)">
                  <path id="Trazado_1087744" data-name="Trazado 1087744" d="M274.188,358.138H263.976a1.968,1.968,0,0,0-1.968,1.968v.186a1.968,1.968,0,0,0,1.968,1.968h10.212a1.968,1.968,0,0,0,1.968-1.968v-.186A1.968,1.968,0,0,0,274.188,358.138Z" transform="translate(-262.008 -358.138)" fill="#b6cdd3"/>
                  <path id="Trazado_1087745" data-name="Trazado 1087745" d="M271.927,365.992H266.8a4.2,4.2,0,0,0-4.2,4.2v2.345h13.522v-2.345A4.2,4.2,0,0,0,271.927,365.992Z" transform="translate(-262.291 -361.869)" fill="#95afb5"/>
                </g>
              </g>
              <g id="Grupo_1215286" data-name="Grupo 1215286" transform="translate(26.755)">
                <g id="Grupo_1215284" data-name="Grupo 1215284" transform="translate(2.103 10.667)">
                  <g id="Grupo_1215281" data-name="Grupo 1215281">
                    <rect id="Rectángulo_420126" data-name="Rectángulo 420126" width="9.943" height="38.23" fill="#95afb5"/>
                  </g>
                  <g id="Grupo_1215282" data-name="Grupo 1215282" transform="translate(6.636)">
                    <rect id="Rectángulo_420127" data-name="Rectángulo 420127" width="0.751" height="38.46" fill="#b6cdd3"/>
                  </g>
                  <g id="Grupo_1215283" data-name="Grupo 1215283" transform="translate(2.761)">
                    <rect id="Rectángulo_420128" data-name="Rectángulo 420128" width="0.751" height="38.46" fill="#b6cdd3"/>
                  </g>
                </g>
                <path id="Trazado_1087746" data-name="Trazado 1087746" d="M314.944,281.58h10.212a1.968,1.968,0,0,0,1.968-1.968v-.186a1.968,1.968,0,0,0-1.968-1.968H314.944a1.968,1.968,0,0,0-1.968,1.968v.186A1.968,1.968,0,0,0,314.944,281.58Z" transform="translate(-312.976 -270.913)" fill="#b6cdd3"/>
                <path id="Trazado_1087747" data-name="Trazado 1087747" d="M317.772,271.534h5.123a4.2,4.2,0,0,0,4.2-4.2V264.99H313.572v2.345A4.2,4.2,0,0,0,317.772,271.534Z" transform="translate(-313.259 -264.99)" fill="#95afb5"/>
                <g id="Grupo_1215285" data-name="Grupo 1215285" transform="translate(0 48.897)">
                  <path id="Trazado_1087748" data-name="Trazado 1087748" d="M325.156,358.138H314.944a1.968,1.968,0,0,0-1.968,1.968v.186a1.968,1.968,0,0,0,1.968,1.968h10.212a1.968,1.968,0,0,0,1.968-1.968v-.186A1.968,1.968,0,0,0,325.156,358.138Z" transform="translate(-312.976 -358.138)" fill="#b6cdd3"/>
                  <path id="Trazado_1087749" data-name="Trazado 1087749" d="M322.895,365.992h-5.123a4.2,4.2,0,0,0-4.2,4.2v2.345h13.522v-2.345A4.2,4.2,0,0,0,322.895,365.992Z" transform="translate(-313.259 -361.869)" fill="#95afb5"/>
                </g>
              </g>
              <g id="Grupo_1215292" data-name="Grupo 1215292">
                <g id="Grupo_1215290" data-name="Grupo 1215290" transform="translate(2.102 10.667)">
                  <g id="Grupo_1215287" data-name="Grupo 1215287">
                    <rect id="Rectángulo_420129" data-name="Rectángulo 420129" width="9.943" height="38.23" fill="#95afb5"/>
                  </g>
                  <g id="Grupo_1215288" data-name="Grupo 1215288" transform="translate(6.636)">
                    <rect id="Rectángulo_420130" data-name="Rectángulo 420130" width="0.751" height="38.46" fill="#b6cdd3"/>
                  </g>
                  <g id="Grupo_1215289" data-name="Grupo 1215289" transform="translate(2.761)">
                    <rect id="Rectángulo_420131" data-name="Rectángulo 420131" width="0.751" height="38.46" fill="#b6cdd3"/>
                  </g>
                </g>
                <path id="Trazado_1087750" data-name="Trazado 1087750" d="M365.912,281.58h10.212a1.968,1.968,0,0,0,1.968-1.968v-.186a1.968,1.968,0,0,0-1.968-1.968H365.912a1.968,1.968,0,0,0-1.968,1.968v.186A1.968,1.968,0,0,0,365.912,281.58Z" transform="translate(-363.944 -270.913)" fill="#b6cdd3"/>
                <path id="Trazado_1087751" data-name="Trazado 1087751" d="M368.74,271.534h5.123a4.2,4.2,0,0,0,4.2-4.2V264.99H364.54v2.345A4.2,4.2,0,0,0,368.74,271.534Z" transform="translate(-364.227 -264.99)" fill="#95afb5"/>
                <g id="Grupo_1215291" data-name="Grupo 1215291" transform="translate(0 48.897)">
                  <path id="Trazado_1087752" data-name="Trazado 1087752" d="M376.124,358.138H365.912a1.968,1.968,0,0,0-1.968,1.968v.186a1.968,1.968,0,0,0,1.968,1.968h10.212a1.968,1.968,0,0,0,1.968-1.968v-.186A1.968,1.968,0,0,0,376.124,358.138Z" transform="translate(-363.944 -358.138)" fill="#b6cdd3"/>
                  <path id="Trazado_1087753" data-name="Trazado 1087753" d="M373.863,365.992H368.74a4.2,4.2,0,0,0-4.2,4.2v2.345h13.522v-2.345A4.2,4.2,0,0,0,373.863,365.992Z" transform="translate(-364.227 -361.869)" fill="#95afb5"/>
                </g>
              </g>
            </g>
            <rect id="Rectángulo_420132" data-name="Rectángulo 420132" width="170.276" height="8.932" transform="translate(0 49.111)" fill="#b6cdd3"/>
          </g>
          <g id="Grupo_1215295" data-name="Grupo 1215295" transform="translate(0 115.931)">
            <rect id="Rectángulo_420133" data-name="Rectángulo 420133" width="165.199" height="11.147" transform="translate(48.635)" fill="#b6cdd3"/>
            <rect id="Rectángulo_420134" data-name="Rectángulo 420134" width="165.199" height="3.863" transform="translate(48.635 7.283)" fill="#abc1c6"/>
            <rect id="Rectángulo_420135" data-name="Rectángulo 420135" width="180.929" height="11.147" transform="translate(40.77 10.81)" fill="#95afb5"/>
            <rect id="Rectángulo_420136" data-name="Rectángulo 420136" width="180.929" height="4.225" transform="translate(40.77 17.732)" fill="#86a0a5"/>
            <rect id="Rectángulo_420137" data-name="Rectángulo 420137" width="196.094" height="11.147" transform="translate(33.188 21.62)" fill="#b6cdd3"/>
            <rect id="Rectángulo_420138" data-name="Rectángulo 420138" width="196.094" height="2.944" transform="translate(33.188 29.823)" fill="#abc1c6"/>
            <rect id="Rectángulo_420139" data-name="Rectángulo 420139" width="217.674" height="11.147" transform="translate(22.398 32.43)" fill="#95afb5"/>
            <rect id="Rectángulo_420140" data-name="Rectángulo 420140" width="217.674" height="2.905" transform="translate(22.398 40.672)" fill="#86a0a5"/>
            <rect id="Rectángulo_420141" data-name="Rectángulo 420141" width="240.796" height="11.147" transform="translate(10.837 43.24)" fill="#b6cdd3"/>
            <rect id="Rectángulo_420142" data-name="Rectángulo 420142" width="240.796" height="2.788" transform="translate(10.837 51.599)" fill="#abc1c6"/>
            <rect id="Rectángulo_420143" data-name="Rectángulo 420143" width="262.47" height="11.147" transform="translate(0 54.05)" fill="#95afb5"/>
          </g>
        </g>
        <g id="Grupo_1215354" data-name="Grupo 1215354" transform="translate(0.07)">
          <g id="Grupo_1215353" data-name="Grupo 1215353" clip-path="url(#clip-path-2)">
            <g id="Grupo_1215310" data-name="Grupo 1215310" transform="translate(57.202 159.592)">
              <g id="Grupo_1215308" data-name="Grupo 1215308" transform="translate(0)">
                <g id="Grupo_1215307" data-name="Grupo 1215307">
                  <g id="Grupo_1215301" data-name="Grupo 1215301" transform="translate(49.472)">
                    <g id="Grupo_1215300" data-name="Grupo 1215300" transform="translate(15.308 4.805)">
                      <g id="Grupo_1215299" data-name="Grupo 1215299">
                        <g id="Grupo_1215297" data-name="Grupo 1215297" transform="translate(1.409)">
                          <path id="Trazado_1087754" data-name="Trazado 1087754" d="M211.73,353.84l13.566-38.7,13.565,38.7.5-.173L225.3,313.549l-14.062,40.118Z" transform="translate(-211.234 -313.549)" fill="#ffb36e"/>
                        </g>
                        <g id="Grupo_1215298" data-name="Grupo 1215298" transform="translate(0 40.205)">
                          <path id="Trazado_1087755" data-name="Trazado 1087755" d="M208.549,390.138a15.471,15.471,0,1,0,30.941,0H208.549Z" transform="translate(-208.549 -390.138)" fill="#2a5c70"/>
                          <path id="Trazado_1087756" data-name="Trazado 1087756" d="M208.549,403.346a15.47,15.47,0,0,0,23.525-13.208h-8.021a23.828,23.828,0,0,1-4.549,6.546A25.717,25.717,0,0,1,208.549,403.346Z" transform="translate(-201.133 -390.138)" fill="#204c59"/>
                          <path id="Trazado_1087757" data-name="Trazado 1087757" d="M240.154,394.857H218.609" transform="translate(-214.493 -392.38)" fill="#5f9ab2"/>
                        </g>
                      </g>
                    </g>
                    <path id="Trazado_1087758" data-name="Trazado 1087758" d="M237.47,310.066s11.692-12.765,31.067.008l-.544,2.233s-19.19-8.272-30.523,6.2Z" transform="translate(-237.47 -304.395)" fill="#c46c31"/>
                    <path id="Trazado_1087759" data-name="Trazado 1087759" d="M231.037,313.6a3.666,3.666,0,1,0,3.666-3.666A3.666,3.666,0,0,0,231.037,313.6Z" transform="translate(-203.924 -307.026)" fill="#ec8a47"/>
                    <path id="Trazado_1087760" data-name="Trazado 1087760" d="M235.276,315.611a1.44,1.44,0,1,0,1.44-1.44A1.44,1.44,0,0,0,235.276,315.611Z" transform="translate(-205.938 -309.039)" fill="#9e3b52"/>
                  </g>
                  <g id="Grupo_1215306" data-name="Grupo 1215306">
                    <g id="Grupo_1215305" data-name="Grupo 1215305" transform="translate(0 4.805)">
                      <g id="Grupo_1215304" data-name="Grupo 1215304">
                        <g id="Grupo_1215302" data-name="Grupo 1215302" transform="translate(1.41)">
                          <path id="Trazado_1087761" data-name="Trazado 1087761" d="M335.135,353.84l13.565-38.7,13.566,38.7.495-.173L348.7,313.549l-14.06,40.118Z" transform="translate(-334.64 -313.549)" fill="#ffb36e"/>
                        </g>
                        <g id="Grupo_1215303" data-name="Grupo 1215303" transform="translate(0 40.205)">
                          <path id="Trazado_1087762" data-name="Trazado 1087762" d="M362.9,390.138a15.47,15.47,0,1,1-30.941,0H362.9Z" transform="translate(-331.955 -390.138)" fill="#2a5c70"/>
                          <path id="Trazado_1087763" data-name="Trazado 1087763" d="M369.607,403.346a15.47,15.47,0,0,1-23.525-13.208H354.1a23.829,23.829,0,0,0,4.549,6.546A25.713,25.713,0,0,0,369.607,403.346Z" transform="translate(-346.081 -390.138)" fill="#204c59"/>
                          <path id="Trazado_1087764" data-name="Trazado 1087764" d="M339.794,394.857h21.545" transform="translate(-334.513 -392.38)" fill="#5f9ab2"/>
                        </g>
                      </g>
                    </g>
                    <path id="Trazado_1087765" data-name="Trazado 1087765" d="M333.858,310.066s-11.692-12.765-31.067.008l.545,2.233s19.19-8.272,30.523,6.2v-8.444Z" transform="translate(-287.609 -304.395)" fill="#c46c31"/>
                    <path id="Trazado_1087766" data-name="Trazado 1087766" d="M361.773,313.6a3.666,3.666,0,1,1-3.666-3.666A3.666,3.666,0,0,1,361.773,313.6Z" transform="translate(-342.637 -307.026)" fill="#ec8a47"/>
                    <circle id="Elipse_14289" data-name="Elipse 14289" cx="1.44" cy="1.44" r="1.44" transform="translate(14.03 5.132)" fill="#9e3b52"/>
                  </g>
                </g>
                <path id="Trazado_1087767" data-name="Trazado 1087767" d="M290.621,400.446h9.556l-2.283-80.9H292.9Z" transform="translate(-247.538 -311.592)" fill="#c46c31"/>
                <ellipse id="Elipse_14290" data-name="Elipse 14290" cx="8.088" cy="8.088" rx="8.088" ry="8.088" transform="translate(41.857 19.935) rotate(-103.373)" fill="#ec8a47"/>
                <ellipse id="Elipse_14291" data-name="Elipse 14291" cx="3.921" cy="3.921" rx="3.921" ry="3.921" transform="matrix(-0.23, -0.973, 0.973, -0.23, 44.943, 14.91)" fill="#9e3b52"/>
              </g>
              <path id="Trazado_1087768" data-name="Trazado 1087768" d="M267.491,473.905H301.33a16.92,16.92,0,1,0-33.839,0Z" transform="translate(-236.55 -376.885)" fill="#ec8a47"/>
              <path id="Trazado_1087769" data-name="Trazado 1087769" d="M267.491,479.763H301.33a16.874,16.874,0,0,0-3.607-10.446,22.289,22.289,0,0,1-5.6,3.3c-7.447,3.177-16.246,4.316-23.75,1.754A16.825,16.825,0,0,0,267.491,479.763Z" transform="translate(-236.55 -382.743)" fill="#d37b40"/>
              <g id="Grupo_1215309" data-name="Grupo 1215309" transform="translate(33.527 94.807)">
                <path id="Trazado_1087770" data-name="Trazado 1087770" d="M301.291,485.526H273.637a.263.263,0,0,1,0-.525h27.654a.263.263,0,0,1,0,.525Z" transform="translate(-273.383 -485.001)" fill="#ffb36e"/>
              </g>
              <path id="Trazado_1087771" data-name="Trazado 1087771" d="M254.232,494.877h47.76v-.37a5.291,5.291,0,0,0-5.291-5.291H259.523a5.291,5.291,0,0,0-5.291,5.291v.37Z" transform="translate(-230.252 -392.197)" fill="#2a5c70"/>
            </g>
            <g id="Grupo_1215315" data-name="Grupo 1215315" transform="translate(17.094 148.592)">
              <g id="Grupo_1215312" data-name="Grupo 1215312" transform="translate(162.18)">
                <g id="Grupo_1215311" data-name="Grupo 1215311" transform="translate(0 9.295)">
                  <path id="Trazado_1087772" data-name="Trazado 1087772" d="M105.836,301.386c-.141,17.369-4.626,34.4-11.553,50.25-7.186,16.443-17,31.578-27.584,46.01-5.986,8.159-12.236,16.118-18.485,24.075-.2.251-.548-.1-.352-.352,11.067-14.09,22.159-28.219,31.72-43.4,9.322-14.8,17.164-30.664,21.7-47.612a115.9,115.9,0,0,0,4.06-28.976.249.249,0,0,1,.5,0Z" transform="translate(-47.805 -301.146)" fill="#d37739"/>
                </g>
                <path id="Trazado_1087773" data-name="Trazado 1087773" d="M92.014,478.417s-16.754-5.142-10.327-23.27c0,0,11.041,6.766,10.327,23.27,0,0,15.817-12.134,28.126-.311C120.14,478.106,109.69,488.39,92.014,478.417Z" transform="translate(-79.124 -365.011)" fill="#d37739"/>
                <path id="Trazado_1087774" data-name="Trazado 1087774" d="M59.4,428.208s-4.838,15.347,10.887,22.3c8.277,3.658,20.732,3.943,27.988-2.059,0,0-13.614-11.812-27.988,2.059C70.282,450.5,71.744,432.178,59.4,428.208Z" transform="translate(-45.955 -352.213)" fill="#d37739"/>
                <path id="Trazado_1087775" data-name="Trazado 1087775" d="M43.815,396.983S39.593,413.3,54.1,418.584c16,5.826,23.944-.992,25.274-5.211,0,0-8.437-8.016-25.274,5.211C54.1,418.584,57.561,401.319,43.815,396.983Z" transform="translate(-18.945 -337.379)" fill="#d37739"/>
                <path id="Trazado_1087776" data-name="Trazado 1087776" d="M31.576,368.859s-3.754,14.763,8.183,19.367c0,0,16.231,5.366,22.65-5.726,0,0-9.928-9.9-22.65,5.726C39.759,388.226,44.438,374.472,31.576,368.859Z" transform="translate(4.436 -324.019)" fill="#d37739"/>
                <path id="Trazado_1087777" data-name="Trazado 1087777" d="M25.64,338.818s-2.583,13.977,11.119,16.952c0,0,13.113,4.051,18.279-6.94,0,0-6.8-6.775-18.279,6.94C36.759,355.77,36.76,338.818,25.64,338.818Z" transform="translate(14.731 -309.747)" fill="#d37739"/>
                <path id="Trazado_1087778" data-name="Trazado 1087778" d="M25.446,316.065s1.039,11.556,10.56,11.887c0,0,9.682,3.075,13.9-6.676,0,0-5.786-5.715-13.9,6.676C36.006,327.951,35.463,314.536,25.446,316.065Z" transform="translate(19.866 -298.881)" fill="#d37739"/>
                <path id="Trazado_1087779" data-name="Trazado 1087779" d="M44.985,299.044s-7.484-5.242.42-15.6C45.406,283.439,52.954,292.834,44.985,299.044Z" transform="translate(12.555 -283.439)" fill="#d37739"/>
              </g>
              <g id="Grupo_1215314" data-name="Grupo 1215314" transform="translate(0)">
                <g id="Grupo_1215313" data-name="Grupo 1215313" transform="translate(11.738 9.295)">
                  <path id="Trazado_1087780" data-name="Trazado 1087780" d="M334.891,301.386c.142,17.5,4.711,34.67,11.756,50.614,7.129,16.137,16.772,31.013,27.177,45.208,6,8.19,12.273,16.177,18.544,24.161.2.249-.154.6-.352.352-11.14-14.184-22.309-28.405-31.921-43.691-9.33-14.839-17.164-30.758-21.681-47.752a116.275,116.275,0,0,1-4.021-28.893.249.249,0,0,1,.5,0Z" transform="translate(-334.393 -301.146)" fill="#d37739"/>
                </g>
                <path id="Trazado_1087781" data-name="Trazado 1087781" d="M364.607,478.417s16.754-5.142,10.327-23.27c0,0-11.04,6.766-10.327,23.27,0,0-15.817-12.134-28.126-.311C336.48,478.106,346.931,488.39,364.607,478.417Z" transform="translate(-307.728 -365.011)" fill="#d37739"/>
                <path id="Trazado_1087782" data-name="Trazado 1087782" d="M397.537,428.208s4.838,15.347-10.887,22.3c-8.277,3.658-20.733,3.943-27.988-2.059,0,0,13.614-11.812,27.988,2.059C386.65,450.5,385.188,432.178,397.537,428.208Z" transform="translate(-341.209 -352.213)" fill="#d37739"/>
                <path id="Trazado_1087783" data-name="Trazado 1087783" d="M416.239,396.983s4.222,16.318-10.282,21.6c-16,5.826-23.944-.992-25.274-5.211,0,0,8.437-8.016,25.274,5.211C405.956,418.584,402.492,401.319,416.239,396.983Z" transform="translate(-371.339 -337.379)" fill="#d37739"/>
                <path id="Trazado_1087784" data-name="Trazado 1087784" d="M432.764,368.859s3.754,14.763-8.183,19.367c0,0-16.231,5.366-22.65-5.726,0,0,9.927-9.9,22.65,5.726C424.58,388.226,419.9,374.472,432.764,368.859Z" transform="translate(-399.007 -324.019)" fill="#d37739"/>
                <path id="Trazado_1087785" data-name="Trazado 1087785" d="M440.329,338.818s2.583,13.977-11.119,16.952c0,0-13.113,4.051-18.279-6.94,0,0,6.8-6.775,18.279,6.94C429.21,355.77,429.209,338.818,440.329,338.818Z" transform="translate(-410.931 -309.747)" fill="#d37739"/>
                <path id="Trazado_1087786" data-name="Trazado 1087786" d="M445.17,316.065s-1.039,11.556-10.56,11.887c0,0-9.682,3.075-13.9-6.676,0,0,5.786-5.715,13.9,6.676C434.61,327.951,435.153,314.536,445.17,316.065Z" transform="translate(-420.713 -298.881)" fill="#d37739"/>
                <path id="Trazado_1087787" data-name="Trazado 1087787" d="M441.556,299.044s7.484-5.242-.42-15.6C441.136,283.439,433.588,292.834,441.556,299.044Z" transform="translate(-429.328 -283.439)" fill="#d37739"/>
              </g>
            </g>
            <g id="Grupo_1215352" data-name="Grupo 1215352" transform="translate(121.709 22.884)">
              <path id="Trazado_1087788" data-name="Trazado 1087788" d="M172.881,229.32c3.244,3.85,11.507,2.97,14.524-1.062,6.737-9,7.651-20.337,9.588-31.413,5.021-28.718-9.832-31.629-9.832-31.629-3.122.619-6.378,9.8-10.259,25.861C173.747,204.127,166.708,221.993,172.881,229.32Z" transform="translate(-146.803 -101.568)" fill="#9e3b52"/>
              <path id="Trazado_1087789" data-name="Trazado 1087789" d="M210.63,260.413c-8.739-3.972-16.8-25.619-17.338-31.157a108.893,108.893,0,0,0,11.914-.18c3.323,4.31,8.338,10.137,11.95,14.209,2.539,2.861,5.186,5.721,6.8,9.188s2.051,7.729.122,11.032C222.235,266.664,212.4,261.217,210.63,260.413Z" transform="translate(-186.132 -131.906)" fill="#9e3b52"/>
              <path id="Trazado_1087790" data-name="Trazado 1087790" d="M61.284,412.75c1.963.236,11.927,1.491,19.071,2.031,5.837.441,10.84.41,10.84-1.039,0-27.349-.751-80.006-.751-80.006.053.331.1.661.152.992,4.441,29.349,9.591,79.513,12.037,79.791,5.1.577,25.339.919,31.764.042.714-13.081-2.462-62.148-7.37-96.011-2.184-15.092-4.719-27.166-7.4-31.685C112.282,274.5,74.2,274.607,68.56,288.953a123.521,123.521,0,0,0-7.47,30.357C58.009,343.935,60.082,372.823,61.284,412.75Z" transform="translate(-25.031 -155.088)" fill="#2a5c70"/>
              <path id="Trazado_1087791" data-name="Trazado 1087791" d="M73.71,319.311c30.767,7.916,37.454-.94,37.454-.94,4.866,5.344,21.223,2,28.483.178-2.184-15.092-4.719-27.166-7.4-31.685C124.9,274.5,86.818,274.607,81.18,288.953A123.521,123.521,0,0,0,73.71,319.311Z" transform="translate(-37.651 -155.088)" fill="#204c59"/>
              <path id="Trazado_1087792" data-name="Trazado 1087792" d="M141.888,465.463c5.836.443,5.006-.034,5.006-1.48,0-27.354-.8-80.339-.751-80.009l-4.216-.347Z" transform="translate(-80.728 -205.326)" fill="#204c59"/>
              <g id="Grupo_1215320" data-name="Grupo 1215320" transform="translate(37.58 151.455)">
                <g id="Grupo_1215316" data-name="Grupo 1215316" transform="translate(57.968 3.149)">
                  <path id="Trazado_1087793" data-name="Trazado 1087793" d="M67.007,338.627a780.334,780.334,0,0,1,8.929,81.76q.635,11.474.857,22.966a.2.2,0,0,1-.394,0,727.674,727.674,0,0,0-6.437-81.93q-1.5-11.369-3.335-22.691c-.04-.248.339-.354.38-.1Z" transform="translate(-66.625 -338.484)" fill="#204651"/>
                </g>
                <g id="Grupo_1215317" data-name="Grupo 1215317" transform="translate(0 5.718)">
                  <path id="Trazado_1087794" data-name="Trazado 1087794" d="M193.985,343.627c-1.966,12.478-2.238,25.232-2.276,37.841-.041,13.906.424,27.81,1.022,41.7.294,6.824.628,13.647.941,20.471.012.254-.382.253-.394,0-.59-12.851-1.232-25.7-1.611-38.558-.411-13.94-.6-27.914.076-41.848a184.05,184.05,0,0,1,1.861-19.71c.04-.249.419-.144.38.1Z" transform="translate(-191.298 -343.38)" fill="#204651"/>
                </g>
                <g id="Grupo_1215318" data-name="Grupo 1215318" transform="translate(25.162)">
                  <path id="Trazado_1087795" data-name="Trazado 1087795" d="M145.344,350.54a3.864,3.864,0,0,1-2.269-.871c-.847-.871-.686-3.057-.745-4.168-.227-4.277.174-8.554.356-12.825.01-.252.4-.254.394,0-.143,3.369-.416,6.733-.42,10.107a41.49,41.49,0,0,0,.245,4.9c.132,1.124.294,1.856,1.453,2.245a4.966,4.966,0,0,0,.987.22c.249.028.252.422,0,.393Z" transform="translate(-142.262 -332.486)" fill="#204651"/>
                </g>
                <g id="Grupo_1215319" data-name="Grupo 1215319" transform="translate(16.085 25.331)">
                  <path id="Trazado_1087796" data-name="Trazado 1087796" d="M154.786,382.8a63.637,63.637,0,0,1-11.611-1.675c-.246-.059-.142-.439.1-.38a63.092,63.092,0,0,0,11.506,1.66c.252.013.254.407,0,.394Z" transform="translate(-143.035 -380.742)" fill="#204651"/>
                </g>
              </g>
              <path id="Trazado_1087797" data-name="Trazado 1087797" d="M86.393,91.264c4.25,4.945,14.723,4.878,21.161,4.771,13.676-.23,26.332-1.912,27.714-5.281,0,0-4.941-2.2-3.751-20.043.049-.729-.033-4.457-.093-5.141a37.155,37.155,0,0,0-.856-5.579c-1.245-5.27-3.581-8.78-6.893-11.229a7.742,7.742,0,0,0-4.2-1.239,11.92,11.92,0,0,0-2.035-1.856c-6.191-3.274-10.3-.875-16.478-.51-7.82.465-11.6,6.671-12.854,10.989-.115.393-.208.768-.28,1.121-.767,3.74-.077,10.916.98,15.137C89.956,76.984,90.21,88.152,86.393,91.264Z" transform="translate(-39.929 -43.968)" fill="#17333a"/>
              <path id="Trazado_1087798" data-name="Trazado 1087798" d="M119.363,151.824c1.128,1.72,10.242,3.967,11.766,5.348,8.6,7.8-.742,14.956-2.868,19.614-11.332,24.826-12.023,25.85-3.768,51.861-22.581,2.381-28.92,5.552-50.937,0,3.123-10.626,4.084-21.921,2.978-40.791-.472-8.064-.543-28.028,0-29,.531-.952,9.2-5.97,10.084-6.469Z" transform="translate(-32.627 -95.206)" fill="#fff"/>
              <path id="Trazado_1087799" data-name="Trazado 1087799" d="M184.431,254.3c-8.022,3.93-14.895.364-18.59-5.584,5.393-8.162,9.083-15.057,9.083-24.137,0-14.7-2.306-23.467,0-36.677.654-3.749,2.3-6.09,3.034-9.25,1.2-5.14.26-9.761.434-19.295,5.418-2.343,7.858-4.126,13.276-6.469-2.649,12.42-2.305,25.423-3.444,38.1C186.972,204.912,189.278,251.5,184.431,254.3Z" transform="translate(-138.033 -95.713)" fill="#9e3b52"/>
              <g id="Grupo_1215321" data-name="Grupo 1215321" transform="translate(59.242 75.227)">
                <path id="Trazado_1087800" data-name="Trazado 1087800" d="M151.612,187.521c-2.549,13.112-2.971,26.727-3.33,40.047q-.144,5.342-.185,10.686a.2.2,0,0,1-.394,0,390.667,390.667,0,0,1,2.078-41.051c.372-3.277.822-6.548,1.451-9.785.048-.249.428-.144.38.1Z" transform="translate(-147.703 -187.274)" fill="#8eb2b1"/>
              </g>
              <g id="Grupo_1215322" data-name="Grupo 1215322" transform="translate(55.015 31.99)">
                <path id="Trazado_1087801" data-name="Trazado 1087801" d="M109.081,130.1c1.4,2.77,6.033,17.369,8.012,17.369,2.534,0,20.519-16.942,20.4-17.828-.134-.97-2.433-1.5-2.433-1.5s-.291-4.984-.14-12.945c.062-3.033.191-6.5.42-10.282-5.55,2.966-14.274,4.368-20.463,5.9a32.974,32.974,0,0,1-.661,14.453,23.155,23.155,0,0,1-.712,2.293Z" transform="translate(-109.081 -104.91)" fill="#f0aca1"/>
                <path id="Trazado_1087802" data-name="Trazado 1087802" d="M113.184,126.527c5.068,2.786,10.885-.624,15.885-4.47,2.136-1.643,3.842-4.674,5.182-6.866.062-3.033.191-6.5.42-10.282-5.55,2.966-14.274,4.367-20.463,5.9C115.381,116.693,113.98,123.533,113.184,126.527Z" transform="translate(-108.412 -104.909)" fill="#e09890"/>
              </g>
              <path id="Trazado_1087803" data-name="Trazado 1087803" d="M130.221,137.569c1.1-1.883,5.8,7.363,5.8,7.363L121.589,165.6,118.335,160l-6.092,3.737L108.982,160l-4.091,5.606s-3.33-14.789-1.619-20.111c.745-2.317,6.826-7.5,6.826-7.5s-1.2,18.119,2.213,24.876C112.311,162.865,125.231,146.122,130.221,137.569Z" transform="translate(-49.282 -88.314)" fill="#e8e8e8"/>
              <g id="Grupo_1215327" data-name="Grupo 1215327" transform="translate(53.448 48.958)">
                <g id="Grupo_1215323" data-name="Grupo 1215323" transform="translate(27.299)">
                  <path id="Trazado_1087804" data-name="Trazado 1087804" d="M108.222,144.725c-.564-1.733-1.843-3.029-2.95-4.427-.372-.47-1.8-3.058-2.532-2.6-.215.135-.413-.205-.2-.34.932-.585,1.843,1.006,2.261,1.625,1.27,1.878,3.08,3.428,3.8,5.635.079.241-.3.345-.379.1Z" transform="translate(-102.449 -137.232)" fill="#8eb2b1"/>
                </g>
                <g id="Grupo_1215324" data-name="Grupo 1215324" transform="translate(0.333 0.652)">
                  <path id="Trazado_1087805" data-name="Trazado 1087805" d="M159.172,138.814a89.174,89.174,0,0,0-6.563,7.329c-.152.2-.494,0-.34-.2a90.067,90.067,0,0,1,6.624-7.408c.176-.183.454.1.279.279Z" transform="translate(-152.23 -138.475)" fill="#8eb2b1"/>
                </g>
                <g id="Grupo_1215325" data-name="Grupo 1215325" transform="translate(9.318 7.246)">
                  <path id="Trazado_1087806" data-name="Trazado 1087806" d="M126.566,151.329c-4.31,7.268-9.509,14.015-14.6,20.748a.2.2,0,0,1-.34,0c-.563-.96-1.095-1.938-1.63-2.913q-.34-.619-.683-1.236c-.449-.8-.461-1.058-1.335-.714a17.9,17.9,0,0,0-2.568,1.6q-1.324.822-2.668,1.609a.2.2,0,0,1-.2-.34c2.059-1.2,4.063-2.489,6.092-3.737a.2.2,0,0,1,.269.071c1.043,1.808,2.006,3.661,3.061,5.463h-.34c5.087-6.733,10.285-13.48,14.6-20.748a.2.2,0,0,1,.341.2Z" transform="translate(-102.452 -151.036)" fill="#8eb2b1"/>
                </g>
                <g id="Grupo_1215326" data-name="Grupo 1215326" transform="translate(0 8.033)">
                  <path id="Trazado_1087807" data-name="Trazado 1087807" d="M157.1,171.1c-.416-.536-2.761-3.573-3.177-3.448-.275.083-.756,1.017-.932,1.258l-.912,1.25-1.719,2.355a.2.2,0,0,1-.36-.047,45.12,45.12,0,0,1-1.928-19.751c.03-.248.425-.251.394,0a44.85,44.85,0,0,0,1.914,19.646l-.36-.047,3.79-5.193c.066-.09.224-.15.309-.04,1.016,1.307,2.245,2.43,3.26,3.737.153.2-.123.479-.279.279Z" transform="translate(-147.722 -152.534)" fill="#8eb2b1"/>
                </g>
              </g>
              <path id="Trazado_1087808" data-name="Trazado 1087808" d="M171.866,146.694a21.977,21.977,0,0,0-5.6,4.6l-5.6,20.652,4.2,2.5-4.2,6.963,4.437,25.141s2.808-24.412,3.057-29.983S169.547,151.52,171.866,146.694Z" transform="translate(-115.517 -92.769)" fill="#84304a"/>
              <g id="Grupo_1215328" data-name="Grupo 1215328" transform="translate(44.956 58.99)">
                <path id="Trazado_1087809" data-name="Trazado 1087809" d="M173.06,193.3a55.494,55.494,0,0,1-1.5-5.892,2.45,2.45,0,0,1,.289-2.422c.5-.87,1-1.741,1.512-2.6q.474-.8.963-1.585c.215-.346,1-1.2.94-1.608-.08-.545-1.871-1.291-2.4-1.608l-1.472-.878a.2.2,0,0,1-.09-.223c1.4-6.749,3.615-13.349,5.421-20a.2.2,0,0,1,.38.1c-1.264,4.65-2.617,9.275-3.887,13.923-.488,1.785-.79,3.711-1.4,5.454-.109.312-.148.364-.066.491.131.2.68.405.889.53l3.152,1.88a.2.2,0,0,1,.07.269c-.943,1.427-1.835,2.885-2.7,4.363a10.616,10.616,0,0,0-1.461,2.571,9.158,9.158,0,0,0,.546,2.668c.336,1.5.72,2.993,1.191,4.459.079.241-.3.345-.378.1Z" transform="translate(-171.296 -156.343)" fill="#722a3d"/>
              </g>
              <g id="Grupo_1215329" data-name="Grupo 1215329" transform="translate(35.891 67.788)">
                <path id="Trazado_1087810" data-name="Trazado 1087810" d="M195.154,173.293c-.193,5.3.744,10.874-.771,16.04-.6,2.042-1.614,3.949-2.329,5.952a21.3,21.3,0,0,0-1.2,8.183c.014.253-.38.252-.394,0a22.083,22.083,0,0,1,.927-7.418c.625-2.085,1.661-4.007,2.371-6.056,1.842-5.316.8-11.195,1-16.7.009-.253.4-.254.394,0Z" transform="translate(-190.433 -173.103)" fill="#722a3d"/>
              </g>
              <path id="Trazado_1087811" data-name="Trazado 1087811" d="M67.914,252.831c.084.264.163.51.247.751,1.867,5.477,16.315,4.345,30.555.4-6.117-16.528-6.364-20.48-9.027-37.9-.768-5.023,4.984-11.8,7.7-27.8,1.25-7.339,3.436-15.5,2.483-27.437,0-1.155-17.816-8.617-19.891-9.021-3.364,7.9-10.5,26.322-11.673,32.023C61.825,215.268,64.78,242.728,67.914,252.831Z" transform="translate(6.752 -95.207)" fill="#9e3b52"/>
              <path id="Trazado_1087812" data-name="Trazado 1087812" d="M67.1,283.724c.084.264.163.51.247.751,1.867,5.477,16.315,4.345,30.555.4-1.261-15.234-6.364-20.48-9.027-37.9-.768-5.023,4.984-11.8,7.7-27.8l-1.816-2.321-6.374,9.48s-8.123,16.9-6.834,24.3,10.686,29.063,6.055,33.2C83.9,287.155,72.256,286.269,67.1,283.724Z" transform="translate(7.568 -126.1)" fill="#84304a"/>
              <g id="Grupo_1215331" data-name="Grupo 1215331" transform="translate(2.941 48.26)">
                <g id="Grupo_1215330" data-name="Grupo 1215330">
                  <rect id="Rectángulo_420144" data-name="Rectángulo 420144" width="2.429" height="14.267" transform="translate(11.365 19.158)" fill="#d37739"/>
                  <circle id="Elipse_14292" data-name="Elipse 14292" cx="12.58" cy="12.58" r="12.58" fill="#ec8a47"/>
                  <circle id="Elipse_14293" data-name="Elipse 14293" cx="10.991" cy="10.991" r="10.991" transform="translate(1.588 1.588)" fill="#b2d1d8"/>
                  <path id="Trazado_1087813" data-name="Trazado 1087813" d="M234.358,192.394h3.777a.541.541,0,0,1,.541.541V209.4a2.429,2.429,0,0,1-2.429,2.429h0a2.429,2.429,0,0,1-2.429-2.429V192.935A.54.54,0,0,1,234.358,192.394Z" transform="translate(-223.666 -162.739)" fill="#366d89"/>
                </g>
                <path id="Trazado_1087814" data-name="Trazado 1087814" d="M238.445,150.529a2.483,2.483,0,1,0,2.483-2.483A2.483,2.483,0,0,0,238.445,150.529Z" transform="translate(-230.831 -141.671)" fill="#fff"/>
                <path id="Trazado_1087815" data-name="Trazado 1087815" d="M247.346,162.73a1.308,1.308,0,1,0,1.308-1.308A1.308,1.308,0,0,0,247.346,162.73Z" transform="translate(-242.055 -148.026)" fill="#fff"/>
              </g>
              <g id="Grupo_1215335" data-name="Grupo 1215335" transform="translate(7.159 81.682)">
                <path id="Trazado_1087816" data-name="Trazado 1087816" d="M229.846,203.1c.624-1.079,2.022-3.609,3.265-3.529a21.161,21.161,0,0,1,.016,3.676,12.8,12.8,0,0,0,4.3-.834c.839-.244,2.7-.3,2.909.893a2.129,2.129,0,0,1-1.679,2.213s1.668-.593,2.175.556a1.724,1.724,0,0,1-1.281,2.557c1.4-.006,2.088.727,1.9,1.686a2.4,2.4,0,0,1-1.6,1.608c-.423.676,2,.413.42,2.733-.692,1.016-13.063,2.207-13.035.578C227.311,210.639,227.414,207.308,229.846,203.1Z" transform="translate(-227.232 -199.571)" fill="#f0aca1"/>
                <g id="Grupo_1215334" data-name="Grupo 1215334" transform="translate(6.959 5.745)">
                  <g id="Grupo_1215332" data-name="Grupo 1215332" transform="translate(0)">
                    <path id="Trazado_1087817" data-name="Trazado 1087817" d="M236.778,210.911a18.345,18.345,0,0,1-4.272,1.013c-.248.038-.355-.341-.1-.38a18.366,18.366,0,0,0,4.272-1.013c.234-.1.336.285.1.38Z" transform="translate(-232.259 -210.516)" fill="#bc6561"/>
                  </g>
                  <g id="Grupo_1215333" data-name="Grupo 1215333" transform="translate(0.771 3.132)">
                    <path id="Trazado_1087818" data-name="Trazado 1087818" d="M234.9,216.871a22.2,22.2,0,0,1-4.767,1.185c-.252.023-.251-.372,0-.394a21.8,21.8,0,0,0,4.663-1.171c.242-.078.345.3.1.38Z" transform="translate(-229.945 -216.481)" fill="#bc6561"/>
                  </g>
                </g>
              </g>
              <path id="Trazado_1087819" data-name="Trazado 1087819" d="M197.406,283.247c5.809-16.883-9.71-48.262-19.6-57.36-7.936-7.3-36.936-6.6-49.83-1.93,0,0,36.953,40.742,22.425,59.429,0,0,17.947,6.809,31.209,6.909C191.588,290.369,194.98,290.3,197.406,283.247Z" transform="translate(-125.16 -127.793)" fill="#e8e8e8"/>
              <path id="Trazado_1087820" data-name="Trazado 1087820" d="M123.19,292.862c-3.74.028-13.842-2.557-13.842-3.724,0-2.02,5.208-.141,6.943-.405a30.029,30.029,0,0,1-4.87-1.962c-2.325-1.222-4.4-3.016-4.279-3.39.386-1.237,1.516-.994,3.875-.456,0,0-5.079-3.063-4.882-3.654,1.156-2.1,5.891,1.1,5.562.489,0,0-2.8-3.442-2.523-3.623,1.471-1.491,3.744,1.353,6.868,2.524,1.44.54,3.019.089,5.186.117l-1.778-4.132c1.543-.012,2.34,1.469,6.32,1.75,3.285.232,4.3,2.46,7.372,3.644.625.241,2.267-1.57,2.635-1.01a3.578,3.578,0,0,1,.441,1.553q.51,4.09,1.02,8.18C134.033,291.18,127.128,292.832,123.19,292.862Z" transform="translate(-52.258 -153.554)" fill="#f0aca1"/>
              <path id="Trazado_1087821" data-name="Trazado 1087821" d="M113.043,280.738h-4.672s-1.308,10.465,0,14.2l5.139-.544Z" transform="translate(-29.404 -156.448)" fill="#fff"/>
              <path id="Trazado_1087822" data-name="Trazado 1087822" d="M69.046,227.566c-4.683,13.489-41.638,15.885-50.8,14.576a97.262,97.262,0,0,1,.2-15.286c3.578-.727,16.183-5.383,24.279-7.14-6.355-9.768-6.939-9.134-9.291-19.776-2.471-11.176,6.187-30.933,11.066-30.933C50.1,169.009,70.257,224.077,69.046,227.566Z" transform="translate(62.119 -103.37)" fill="#9e3b52"/>
              <path id="Trazado_1087823" data-name="Trazado 1087823" d="M220.369,225.907s-4.534-3.741-9-.534c-1.929,1.385-4.458,4.245-2.718,8.652,0,0,4.265,3.972,7.183,0s-1.981-7.117-4.582-3.558c0,0,1.846-4.525,5.761-1.255,3.355,2.8,1.015,8.78-5.761,8.228-9.319-.759-14.364-2.9-34.828,0,0,0-6.793-.258-8.195-4.584s.345-8.229,2.308-8.879S205.165,215.314,220.369,225.907Z" transform="translate(-167.724 -127.814)" fill="#fff"/>
              <path id="Trazado_1087824" data-name="Trazado 1087824" d="M173.925,325.534s-5.232,4.758,0,6.548,6.3-4.955,3.083-7.755c-3.859-3.364-27.969-2.62-39.167-6.87,0,0-7.46-1.072-7.459,8.085,0,4.111,4.031,6.914,6.128,6.558,0,0,31.413,7.309,40.106,4.35,5.141-1.751,5.817-7.122,5.817-7.122s-2.256,8.085-9.444,6.306-7.406-11.346-1.509-11.966,8.444,4.137,5.9,6.547S171.124,330.961,173.925,325.534Z" transform="translate(-110.189 -173.874)" fill="#fff"/>
              <g id="Grupo_1215336" data-name="Grupo 1215336" transform="translate(56.745 122.558)">
                <path id="Trazado_1087825" data-name="Trazado 1087825" d="M150.911,284.086c-3.942-.391-7.887-2.685-9.533-6.346-.1-.229.236-.429.34-.2,1.582,3.519,5.39,5.774,9.194,6.151.249.026.252.419,0,.394Z" transform="translate(-141.358 -277.438)" fill="#bc6561"/>
              </g>
              <g id="Grupo_1215337" data-name="Grupo 1215337" transform="translate(53.831 125.681)">
                <path id="Trazado_1087826" data-name="Trazado 1087826" d="M153.762,290.55a24.939,24.939,0,0,1-7.044-2.989,19.951,19.951,0,0,1-5.319-3.83c-.165-.191.112-.47.278-.278a19.621,19.621,0,0,0,5.239,3.769,24.6,24.6,0,0,0,6.95,2.949c.248.054.143.434-.1.38Z" transform="translate(-141.348 -283.388)" fill="#bc6561"/>
              </g>
              <g id="Grupo_1215338" data-name="Grupo 1215338" transform="translate(54.837 129.886)">
                <path id="Trazado_1087827" data-name="Trazado 1087827" d="M153.42,297.286a21.888,21.888,0,0,1-10.62-5.551.2.2,0,0,1,.278-.278,21.519,21.519,0,0,0,10.446,5.45.2.2,0,0,1-.1.38Z" transform="translate(-142.743 -291.398)" fill="#bc6561"/>
              </g>
              <g id="Grupo_1215344" data-name="Grupo 1215344" transform="translate(48.18 0.001)">
                <path id="Trazado_1087828" data-name="Trazado 1087828" d="M131.9,96.414c-3.552,1.818-8.815,4.563-12.29,2.6-2.9-1.64-6.816-7.313-8.023-10.466-1.195-3.121-.092-7.152-.508-10.476-.251-2.009-.864-3.81-.819-5.835.088-4.021.974-7.936,3.675-10.861,1.728-1.872,2.577-2.832,4.952-3.687,4-1.439,8.8-2.054,12.18.557C143.355,67.733,145.9,89.243,131.9,96.414Z" transform="translate(-106.749 -49.896)" fill="#f0aca1"/>
                <path id="Trazado_1087829" data-name="Trazado 1087829" d="M135.952,72.973c-5.528-7.555-5.926-14.614-5.727-15.913-2.764,1.557-4.293,6.8-15.965,5.948-3.791-.278-2.611,5.671-9.61,5.487-1.279-8.027,1.32-16.079,7.221-19.426,1.818-1.031,7.792-1.9,9.87-1.869,3.548.049,10.218,1.335,12.813,3.809,3.08,2.936,6.084,3.749,7.109,15.834C141.662,66.843,142.062,72.874,135.952,72.973Z" transform="translate(-103.924 -45.504)" fill="#17333a"/>
                <path id="Trazado_1087830" data-name="Trazado 1087830" d="M105.276,49.132l-.888,2.035a26.665,26.665,0,0,1,8.565-2.943,20.99,20.99,0,0,1-3.674,4.3c3.729.661,7.266-3.588,10.852-2.377-.115.813-.23,1.626-.345,2.433a9.085,9.085,0,0,1,3.833-1.149,3.149,3.149,0,0,1,3.1,2.147,1.148,1.148,0,0,1,1.491.163,3.485,3.485,0,0,1,.767,1.469,7.752,7.752,0,0,1-.164-3.33,28.191,28.191,0,0,1,4.941,8.976,20.349,20.349,0,0,0-1.141-7.227c.39,1.1,2.676,2.59,3.438,3.633.636.864,1.141,1.839,1.755,2.73-1.245-5.27-3.581-8.78-6.893-11.229a7.742,7.742,0,0,0-4.2-1.239,11.919,11.919,0,0,0-2.035-1.856c-6.191-3.274-10.3-.875-16.478-.51-7.819.465-11.6,6.671-12.854,10.989C98.137,52.984,101.306,50.22,105.276,49.132Z" transform="translate(-95.345 -43.969)" fill="#2b5660"/>
                <path id="Trazado_1087831" data-name="Trazado 1087831" d="M98.767,98.518c.393-2.568,3.687-7.143,6.128-4.039,2.99,3.8.475,7.37-.532,9.182s-2.96,2.955-4.608,2.15C97.824,104.867,98.767,98.518,98.767,98.518Z" transform="translate(-65.527 -67.469)" fill="#f0aca1"/>
                <g id="Grupo_1215339" data-name="Grupo 1215339" transform="translate(12.585 40.319)">
                  <path id="Trazado_1087832" data-name="Trazado 1087832" d="M145.648,121.5a8.571,8.571,0,0,1-6.794-.245c-.307-.141-.04-.594.265-.453a8.055,8.055,0,0,0,6.389.192c.316-.121.452.386.14.506Z" transform="translate(-138.719 -120.777)" fill="#bc6561"/>
                </g>
                <g id="Grupo_1215340" data-name="Grupo 1215340" transform="translate(14.698 42.964)">
                  <path id="Trazado_1087833" data-name="Trazado 1087833" d="M145.629,126.209h-2.285a.2.2,0,0,1,0-.394h2.285a.2.2,0,0,1,0,.394Z" transform="translate(-143.154 -125.815)" fill="#c6817b"/>
                </g>
                <ellipse id="Elipse_14294" data-name="Elipse 14294" cx="1.656" cy="1.693" rx="1.656" ry="1.693" transform="translate(22.108 26.742)" fill="#17333a"/>
                <path id="Trazado_1087834" data-name="Trazado 1087834" d="M152.92,96.6a1.656,1.656,0,1,0,1.656-1.693A1.675,1.675,0,0,0,152.92,96.6Z" transform="translate(-143.994 -68.17)" fill="#17333a"/>
                <path id="Trazado_1087835" data-name="Trazado 1087835" d="M106.15,84.093s1.745,9.621,0,12.995c0,0,4.859,0,5.425-13.757C111.575,83.33,108.462,79.664,106.15,84.093Z" transform="translate(-74.786 -61.991)" fill="#17333a"/>
                <g id="Grupo_1215341" data-name="Grupo 1215341" transform="translate(36.595 28)">
                  <path id="Trazado_1087836" data-name="Trazado 1087836" d="M101.174,97.37c4-.832,3.239,7.09.161,7.446-.251.029-.249-.365,0-.394,2.5-.289,3.282-7.367-.056-6.673-.247.051-.353-.328-.1-.38Z" transform="translate(-101.032 -97.309)" fill="#c6817b"/>
                </g>
                <path id="Trazado_1087837" data-name="Trazado 1087837" d="M121,107.914a2.482,2.482,0,1,0,2.481-2.537A2.51,2.51,0,0,0,121,107.914Z" transform="translate(-96.962 -73.142)" fill="#e5948c"/>
                <path id="Trazado_1087838" data-name="Trazado 1087838" d="M158.535,106.143a2.482,2.482,0,1,0,2.481-2.537A2.51,2.51,0,0,0,158.535,106.143Z" transform="translate(-154.208 -72.3)" fill="#e5948c"/>
                <g id="Grupo_1215342" data-name="Grupo 1215342" transform="translate(13.645 27.094)">
                  <path id="Trazado_1087839" data-name="Trazado 1087839" d="M147.409,95.771a10.815,10.815,0,0,1-1.214,7.413c-.1.2-1.1,1.545-1.022,1.772.02.061,1.1.467,1.281.553a5.635,5.635,0,0,1,1.1.628c.266.208-.108.577-.371.371-.923-.723-3.052-.823-2.2-2.258,1.5-2.535,2.613-5.356,1.915-8.34-.076-.329.43-.469.507-.14Z" transform="translate(-144.789 -95.583)" fill="#bc6561"/>
                </g>
                <path id="Trazado_1087840" data-name="Trazado 1087840" d="M106.7,112.8a.933.933,0,1,0,.932-.953A.943.943,0,0,0,106.7,112.8Z" transform="translate(-72.068 -76.216)" fill="#fff"/>
                <path id="Trazado_1087841" data-name="Trazado 1087841" d="M132,90.2s-4.112-1.328-7.175-.559a.876.876,0,0,1-.7-1.188C124.476,87.472,132.526,88.381,132,90.2Z" transform="translate(-104.637 -64.911)" fill="#17333a"/>
                <path id="Trazado_1087842" data-name="Trazado 1087842" d="M150.019,90.2s4.112-1.328,7.175-.559a.876.876,0,0,0,.7-1.188C157.544,87.472,149.494,88.381,150.019,90.2Z" transform="translate(-144.193 -64.911)" fill="#17333a"/>
                <g id="Grupo_1215343" data-name="Grupo 1215343" transform="translate(12.662 37.128)">
                  <path id="Trazado_1087843" data-name="Trazado 1087843" d="M133.12,114.994c-1,1.854-1.839,3.971-3.292,5.531a23.9,23.9,0,0,1-6.214,4.335,26.074,26.074,0,0,1-6.6,2.419,6.2,6.2,0,0,1-4.731-.426.2.2,0,0,1,.2-.34c1.7.986,3.508.651,5.341.162a26.332,26.332,0,0,0,6.406-2.608,21.533,21.533,0,0,0,5.491-4.011,28.038,28.038,0,0,0,3.058-5.259c.121-.223.461-.025.34.2Z" transform="translate(-112.189 -114.698)" fill="#c6817b"/>
                </g>
              </g>
              <g id="Grupo_1215345" data-name="Grupo 1215345" transform="translate(94.998 78.769)">
                <path id="Trazado_1087844" data-name="Trazado 1087844" d="M80.057,194.324a35.954,35.954,0,0,0-2.3,13.854,30.351,30.351,0,0,0,4.655,15.729c.14.212-.2.409-.34.2a26.694,26.694,0,0,1-3.354-7.728,32,32,0,0,1-1.354-8.2,36.5,36.5,0,0,1,2.357-14.053c.1-.233.438-.032.34.2Z" transform="translate(-77.358 -194.022)" fill="#722a3d"/>
              </g>
              <g id="Grupo_1215346" data-name="Grupo 1215346" transform="translate(79.866 116.38)">
                <path id="Trazado_1087845" data-name="Trazado 1087845" d="M50.042,269.285a8.351,8.351,0,0,0-6.134-3.209c-2.55-.124-5.326.754-7.762,1.443-4.292,1.214-8.422,2.924-12.7,4.2-1.174.35-2.359.667-3.552.944-.6.139-1.142.138-1.4.77a8.236,8.236,0,0,0-.277,2.248,56.6,56.6,0,0,0,0,6.883c.047,1.063.1,2.126.145,3.189.018.46.034.921.043,1.382.016.782.075.79.826.882a37.206,37.206,0,0,0,4.478.237,122.484,122.484,0,0,0,20.223-2.075,57.953,57.953,0,0,0,10.356-2.392,46.661,46.661,0,0,0,8.975-4.244c2.364-1.488,5.517-3.739,5.582-6.845a.2.2,0,0,1,.394,0c-.071,3.362-3.447,5.752-6.021,7.337a48.789,48.789,0,0,1-10.722,4.78,47.132,47.132,0,0,1-6.153,1.346c-4.243.753-8.507,1.4-12.791,1.87-5.054.552-10.333,1.044-15.385.227a.2.2,0,0,1-.144-.19c-.025-5.105-.8-10.279.21-15.338a.192.192,0,0,1,.138-.138c5.848-1.217,11.312-3.582,17.023-5.261,2.777-.816,5.98-1.876,8.907-1.618a8.7,8.7,0,0,1,6.018,3.3c.155.194-.122.474-.279.276Z" transform="translate(-17.718 -265.67)" fill="#722a3d"/>
              </g>
              <g id="Grupo_1215347" data-name="Grupo 1215347" transform="translate(102.22 66.106)">
                <path id="Trazado_1087846" data-name="Trazado 1087846" d="M69.654,170.245a42.323,42.323,0,0,0-3.548,5.243.2.2,0,0,1-.34-.2,42.966,42.966,0,0,1,3.61-5.322c.157-.2.434.082.278.279Z" transform="translate(-65.738 -169.898)" fill="#722a3d"/>
              </g>
              <g id="Grupo_1215348" data-name="Grupo 1215348" transform="translate(12.961 104.427)">
                <path id="Trazado_1087847" data-name="Trazado 1087847" d="M208.723,243.064a6.381,6.381,0,0,1-4.917,4.917c-3.383.9-7.05-.166-10.436-.531a91.578,91.578,0,0,0-22.71.515c-.165.024-.237-.229-.07-.253a94.357,94.357,0,0,1,20.009-.771c3.334.236,6.656,1.013,9.992,1.1s7.3-1.307,7.879-5.046c.026-.166.279-.1.253.07Z" transform="translate(-170.496 -242.899)" fill="#c5c8c9"/>
              </g>
              <g id="Grupo_1215349" data-name="Grupo 1215349" transform="translate(28.077 143.655)">
                <path id="Trazado_1087848" data-name="Trazado 1087848" d="M173.493,332.3a3.577,3.577,0,0,0,3.749-3.046,5.319,5.319,0,0,0-1.029-4.137c-1.275-1.511-3.5-2.125-5.355-2.526a42.532,42.532,0,0,0-6.3-.649,184.047,184.047,0,0,1-27.737-4.054c-.165-.036-.095-.289.07-.253a183.1,183.1,0,0,0,26.2,3.944c4.591.331,13.935-.075,14.458,6.363a3.986,3.986,0,0,1-4.053,4.621.131.131,0,0,1,0-.262Z" transform="translate(-136.726 -317.628)" fill="#c5c8c9"/>
              </g>
              <g id="Grupo_1215350" data-name="Grupo 1215350" transform="translate(51.671 97.259)">
                <path id="Trazado_1087849" data-name="Trazado 1087849" d="M153.538,257.245a114.366,114.366,0,0,0-7.5-15.541c-2.618-4.291-5.538-9.151-9.619-12.207-.134-.1,0-.328.132-.227,4.048,3.031,6.968,7.828,9.575,12.076a114.314,114.314,0,0,1,7.662,15.829c.066.156-.188.224-.253.07Z" transform="translate(-136.366 -229.245)" fill="#c5c8c9"/>
              </g>
              <path id="Trazado_1087850" data-name="Trazado 1087850" d="M106.3,146.5s2.888.75,6.772,4.9l-3.386,23.839-7.73,1.244,2.49,8.842L92.649,206.461s.632-22.623,7.244-40.368C102.709,158.536,106.507,152.275,106.3,146.5Z" transform="translate(-21.014 -92.675)" fill="#84304a"/>
              <g id="Grupo_1215351" data-name="Grupo 1215351" transform="translate(71.438 59.072)">
                <path id="Trazado_1087851" data-name="Trazado 1087851" d="M113.09,156.746c-1.1,7.762-1.955,15.587-3.386,23.3a.19.19,0,0,1-.138.138c-1.938.309-3.86.718-5.8,1q-.38.056-.762.1t-.788.1q-.3-.159-.124.124c-.084.408.452,1.423.572,1.833.413,1.411.795,2.83,1.17,4.251a9.84,9.84,0,0,1,.627,2.418c-.026.589-.688,1.367-.977,1.884l-1.68,3.012-3.486,6.248L92.65,211.312c-.123.222-.464.023-.34-.2l9.753-17.479,1.442-2.584a2.553,2.553,0,0,0,.52-1.157,9.74,9.74,0,0,0-.605-2.328c-.555-2.1-1.072-4.239-1.825-6.279-.049-.132.075-.237.19-.249q1.9-.207,3.779-.553c.858-.157,3.388-.227,3.828-.91a4.829,4.829,0,0,0,.234-1.343q.128-.763.248-1.528.291-1.843.556-3.69c.794-5.453,1.508-10.916,2.281-16.371.036-.248.415-.142.38.106Z" transform="translate(-92.284 -156.499)" fill="#722a3d"/>
              </g>
            </g>
          </g>
        </g>
      </g>
    </g>
  </g>
</svg>
