<svg xmlns="http://www.w3.org/2000/svg" width="98.032" height="98.032" viewBox="0 0 98.032 98.032">
  <g id="Grupo_1215723" data-name="Grupo 1215723" transform="translate(-170.138 -2481.056)">
    <g id="XMLID_1020_" transform="translate(170.138 2481.056)">
      <g id="XMLID_1910_" transform="translate(1.351 1.351)">
        <circle id="XMLID_1515_" cx="47.3" cy="47.3" r="47.3" fill="#80b6ff"/>
        <g id="Grupo_1215722" data-name="Grupo 1215722" transform="translate(0.564 11.06)">
          <path id="XMLID_1106_" d="M28.258,103.621H20.123A46.9,46.9,0,0,0,10,132.8a47.5,47.5,0,0,0,.452,6.527h.153a16.968,16.968,0,0,0,16.2-11.916,16.968,16.968,0,0,1,6.1-8.583l.3-.222a8.307,8.307,0,0,0-4.944-14.982Z" transform="translate(-10 -96.192)" fill="#89df8f"/>
          <path id="XMLID_1674_" d="M326.255,79.188a14.366,14.366,0,0,0,6.584,12.075l4.981,3.21a9.237,9.237,0,0,1,.494,15.188,9.322,9.322,0,0,0-3.774,7.491,6.872,6.872,0,0,0,6.872,6.872h12.726a47.119,47.119,0,0,0-11.7-59.2H340.62A14.365,14.365,0,0,0,326.255,79.188Z" transform="translate(-265.702 -64.823)" fill="#89df8f"/>
        </g>
      </g>
      <path id="XMLID_1821_" d="M107.7,345.586h0a15.7,15.7,0,0,0-15.7,15.7v9.657h31.4v-9.657A15.7,15.7,0,0,0,107.7,345.586Z" transform="translate(-74.386 -279.417)" fill="#c5d3de"/>
      <path id="XMLID_1820_" d="M145.76,266.579h0a6.687,6.687,0,0,0-6.687,6.687v1.6a6.687,6.687,0,0,0,6.687,6.687h0a6.687,6.687,0,0,0,6.687-6.687v-1.6A6.688,6.688,0,0,0,145.76,266.579Z" transform="translate(-112.444 -215.537)" fill="#f2b394"/>
      <path id="XMLID_1824_" d="M271.7,345.586h0a15.7,15.7,0,0,1,15.7,15.7v9.657H256v-9.657A15.7,15.7,0,0,1,271.7,345.586Z" transform="translate(-206.986 -279.417)" fill="#ffcd69"/>
      <path id="XMLID_1823_" d="M309.762,266.579h0a6.687,6.687,0,0,1,6.687,6.687v1.6a6.687,6.687,0,0,1-6.687,6.687h0a6.687,6.687,0,0,1-6.687-6.687v-1.6A6.687,6.687,0,0,1,309.762,266.579Z" transform="translate(-245.046 -215.537)" fill="#f2b394"/>
      <path id="XMLID_1807_" d="M25.7,420h0A15.7,15.7,0,0,0,10,435.7H41.4A15.7,15.7,0,0,0,25.7,420Z" transform="translate(-8.085 -339.583)" fill="#ffcd69"/>
      <path id="XMLID_1806_" d="M63.76,340.993h0a6.687,6.687,0,0,0-6.687,6.687v1.6a6.687,6.687,0,0,0,6.687,6.687h0a6.688,6.688,0,0,0,6.687-6.687v-1.6A6.688,6.688,0,0,0,63.76,340.993Z" transform="translate(-46.144 -275.703)" fill="#f5c6af"/>
      <path id="XMLID_1812_" d="M189.7,420h0A15.7,15.7,0,0,0,174,435.7h31.4A15.7,15.7,0,0,0,189.7,420Z" transform="translate(-140.684 -339.583)" fill="#ff7d97"/>
      <path id="XMLID_1811_" d="M227.76,340.993h0a6.687,6.687,0,0,0-6.687,6.687v1.6a6.687,6.687,0,0,0,6.687,6.687h0a6.687,6.687,0,0,0,6.687-6.687v-1.6A6.688,6.688,0,0,0,227.76,340.993Z" transform="translate(-178.744 -275.703)" fill="#f2b394"/>
      <path id="XMLID_1816_" d="M353.7,420h0A15.7,15.7,0,0,0,338,435.7h31.4A15.7,15.7,0,0,0,353.7,420Z" transform="translate(-273.283 -339.583)" fill="#c5d3de"/>
      <path id="XMLID_1815_" d="M391.76,340.993h0a6.687,6.687,0,0,0-6.687,6.687v1.6a6.687,6.687,0,0,0,6.687,6.687h0a6.687,6.687,0,0,0,6.687-6.687v-1.6A6.688,6.688,0,0,0,391.76,340.993Z" transform="translate(-311.343 -275.703)" fill="#f5c6af"/>
      <path id="XMLID_1906_" d="M199.43,144.713a7.5,7.5,0,0,0,7.693,1.633,8.557,8.557,0,0,0,5.679-8.059v-3.654a6.632,6.632,0,0,0-12.447-3.19l-2.325,4.238A7.5,7.5,0,0,0,199.43,144.713Z" transform="translate(-159.365 -103.492)" fill="#89df8f"/>
      <g id="XMLID_4_" transform="translate(0 0)">
        <path id="XMLID_768_" d="M87.132,79.833a49.1,49.1,0,0,0,9-44.371,1.915,1.915,0,1,0-3.681,1.057A45.314,45.314,0,0,1,88.86,70.335a8.615,8.615,0,0,0-8.443-6.96h0a8.59,8.59,0,0,0-6.772,3.307c-.243-.143-.487-.282-.736-.413a4.943,4.943,0,0,1-.241-1.529,7.437,7.437,0,0,1,3-5.952,11.152,11.152,0,0,0-.6-18.335l-4.981-3.21a12.451,12.451,0,0,1,6.744-22.916H78a45.879,45.879,0,0,1,7.052,7.422A1.915,1.915,0,1,0,88.1,19.435,49.462,49.462,0,0,0,71.19,5.291,49.026,49.026,0,0,0,0,49.016,48.891,48.891,0,0,0,10.9,79.833,17.642,17.642,0,0,0,0,96.117a1.915,1.915,0,0,0,1.915,1.915h94.2a1.915,1.915,0,0,0,1.915-1.915,17.641,17.641,0,0,0-10.9-16.283ZM22.388,71.977v1.6a4.773,4.773,0,0,1-9.546,0v-1.6A4.778,4.778,0,0,1,17.615,67.2h0A4.778,4.778,0,0,1,22.388,71.977Zm3.829,1.6v-1.6a8.6,8.6,0,0,0-.193-1.809,13.792,13.792,0,0,1,14.582,0,8.6,8.6,0,0,0-.193,1.809v1.6A8.573,8.573,0,0,0,42.888,79.6a17.715,17.715,0,0,0-9.572,8.533A17.715,17.715,0,0,0,23.743,79.6a8.573,8.573,0,0,0,2.474-6.029ZM38.089,59.325a4.773,4.773,0,0,1-9.546,0v-1.6a4.778,4.778,0,0,1,4.773-4.773h0a4.778,4.778,0,0,1,4.773,4.773Zm15.7,12.652v1.6a4.773,4.773,0,0,1-9.546,0v-1.6A4.778,4.778,0,0,1,49.016,67.2h0A4.778,4.778,0,0,1,53.789,71.977Zm3.829,1.6v-1.6a8.606,8.606,0,0,0-.193-1.808,13.8,13.8,0,0,1,14.582,0,8.6,8.6,0,0,0-.193,1.81v1.6A8.573,8.573,0,0,0,74.289,79.6a17.715,17.715,0,0,0-9.572,8.533A17.715,17.715,0,0,0,55.144,79.6a8.573,8.573,0,0,0,2.474-6.029ZM69.49,59.325a4.773,4.773,0,0,1-9.546,0v-1.6a4.778,4.778,0,0,1,4.773-4.773h0a4.778,4.778,0,0,1,4.773,4.773v1.6ZM80.417,67.2h0a4.778,4.778,0,0,1,4.773,4.773v1.6a4.773,4.773,0,0,1-9.546,0v-1.6A4.778,4.778,0,0,1,80.417,67.2ZM49.016,3.829a44.921,44.921,0,0,1,24.3,7.054,16.278,16.278,0,0,0-5.3,29.578L73,43.672a7.322,7.322,0,0,1,.392,12.039c-.089.066-.174.137-.261.206a8.616,8.616,0,0,0-8.408-6.79h0a8.612,8.612,0,0,0-8.6,8.6v1.6a8.573,8.573,0,0,0,2.47,6.024,17.382,17.382,0,0,0-2.8,1.332,8.589,8.589,0,0,0-6.771-3.306h0a8.589,8.589,0,0,0-6.771,3.306,17.408,17.408,0,0,0-2.8-1.331,8.572,8.572,0,0,0,2.47-6.024v-1.6a8.612,8.612,0,0,0-8.6-8.6h0a8.612,8.612,0,0,0-8.6,8.6v1.6a8.572,8.572,0,0,0,2.47,6.024,17.392,17.392,0,0,0-2.8,1.331,8.589,8.589,0,0,0-6.771-3.306h0a8.615,8.615,0,0,0-8.444,6.963,45.015,45.015,0,0,1-4.573-13,18.736,18.736,0,0,0,9.11-3.557A18.757,18.757,0,0,0,20.546,44.2a14.958,14.958,0,0,1,5.411-7.615l.3-.222a10.222,10.222,0,0,0-6.084-18.435H16.256a45.064,45.064,0,0,1,32.76-14.1ZM13,21.755h7.169a6.392,6.392,0,0,1,3.8,11.529l-.3.222a18.761,18.761,0,0,0-6.788,9.552A14.977,14.977,0,0,1,4.058,53.548q-.225-2.249-.229-4.532A44.952,44.952,0,0,1,13,21.755ZM3.962,94.2A13.807,13.807,0,0,1,17.614,82.332h0A13.806,13.806,0,0,1,31.268,94.2Zm31.4,0A13.807,13.807,0,0,1,49.015,82.332h0A13.806,13.806,0,0,1,62.669,94.2Zm31.4,0A13.807,13.807,0,0,1,80.416,82.332h0A13.806,13.806,0,0,1,94.07,94.2Z" transform="translate(0 0)"/>
        <path id="XMLID_1169_" d="M190.033,138.013a9.369,9.369,0,0,0,9.658,2.05,10.494,10.494,0,0,0,6.95-9.862v-3.654a8.547,8.547,0,0,0-16.041-4.111l-2.325,4.238A9.42,9.42,0,0,0,190.033,138.013Zm1.6-9.5,2.325-4.238a4.718,4.718,0,0,1,8.854,2.269V130.2a6.657,6.657,0,0,1-4.408,6.255,5.582,5.582,0,0,1-6.771-7.941Z" transform="translate(-151.289 -95.407)"/>
        <path id="XMLID_1178_" d="M468.035,139.879a1.915,1.915,0,1,0-1.354-.561A1.929,1.929,0,0,0,468.035,139.879Z" transform="translate(-376.872 -110.001)"/>
      </g>
    </g>
  </g>
</svg>
