<svg xmlns="http://www.w3.org/2000/svg" xmlns:xlink="http://www.w3.org/1999/xlink" width="93.934" height="93.934" viewBox="0 0 93.934 93.934">
  <defs>
    <filter id="Trazado_978624" x="0" y="0" width="93.934" height="93.934" filterUnits="userSpaceOnUse">
      <feOffset dy="3" input="SourceAlpha"/>
      <feGaussianBlur stdDeviation="3" result="blur"/>
      <feFlood flood-opacity="0.161"/>
      <feComposite operator="in" in2="blur"/>
      <feComposite in="SourceGraphic"/>
    </filter>
  </defs>
  <g id="Grupo_1215737" data-name="Grupo 1215737" transform="translate(-820 -3144.072)">
    <g id="Grupo_1214678" data-name="Grupo 1214678" transform="translate(629 2419.039)">
      <g id="Grupo_1212847" data-name="Grupo 1212847" transform="translate(-418 -798.5)">
        <g id="Grupo_1210963" data-name="Grupo 1210963" transform="translate(0 -377.186)">
          <g id="Grupo_1208068" data-name="Grupo 1208068" transform="translate(412 470.719)">
            <g id="Grupo_1144123" data-name="Grupo 1144123" transform="translate(206 1436)">
              <g transform="matrix(1, 0, 0, 1, -9, -6)" filter="url(#Trazado_978624)">
                <g id="Trazado_978624-2" data-name="Trazado 978624" transform="translate(9 6)" fill="#f2f4f0">
                  <path d="M 37.966796875 74.43359375 C 33.04315185546875 74.43359375 28.26757431030273 73.46962738037109 23.77274131774902 71.56847381591797 C 19.43047523498535 69.73184967041016 15.53040790557861 67.10224914550781 12.18087482452393 63.75271987915039 C 8.831341743469238 60.4031867980957 6.201741218566895 56.50312042236328 4.365118980407715 52.16086196899414 C 2.463963508605957 47.66601943969727 1.499996900558472 42.89044189453125 1.499996900558472 37.966796875 C 1.499996900558472 33.04315185546875 2.463963508605957 28.26757431030273 4.365118980407715 23.77274131774902 C 6.201741218566895 19.43047523498535 8.831341743469238 15.53040790557861 12.18087482452393 12.18087482452393 C 15.53040790557861 8.831341743469238 19.43047523498535 6.201741218566895 23.77274131774902 4.365118980407715 C 28.26757431030273 2.463963508605957 33.04315185546875 1.499996900558472 37.966796875 1.499996900558472 C 42.89044189453125 1.499996900558472 47.66601943969727 2.463963508605957 52.16086196899414 4.365118980407715 C 56.50312042236328 6.201741218566895 60.4031867980957 8.831341743469238 63.75271987915039 12.18087482452393 C 67.10224914550781 15.53040790557861 69.73184967041016 19.43047523498535 71.56847381591797 23.77274131774902 C 73.46962738037109 28.26757431030273 74.43359375 33.04315185546875 74.43359375 37.966796875 C 74.43359375 42.89044189453125 73.46962738037109 47.66601943969727 71.56847381591797 52.16086196899414 C 69.73184967041016 56.50313186645508 67.10224914550781 60.4031867980957 63.75271987915039 63.75271987915039 C 60.4031867980957 67.10224914550781 56.50313186645508 69.73184967041016 52.16086196899414 71.56847381591797 C 47.66601943969727 73.46962738037109 42.89044189453125 74.43359375 37.966796875 74.43359375 Z" stroke="none"/>
                  <path d="M 37.966796875 3 C 33.2449836730957 3 28.66600799560547 3.924095153808594 24.35705947875977 5.746635437011719 C 20.19359588623047 7.507621765136719 16.45379638671875 10.02927398681641 13.24153518676758 13.24153518676758 C 10.02927398681641 16.45379638671875 7.507621765136719 20.19359588623047 5.746635437011719 24.35705947875977 C 3.924095153808594 28.66600799560547 3 33.2449836730957 3 37.966796875 C 3 42.6886100769043 3.924095153808594 47.26758575439453 5.746635437011719 51.57653427124023 C 7.507621765136719 55.73999786376953 10.02927398681641 59.47979736328125 13.24153518676758 62.69205856323242 C 16.45379638671875 65.90431976318359 20.19359588623047 68.42597198486328 24.35705947875977 70.18695831298828 C 28.66600799560547 72.00949859619141 33.2449836730957 72.93359375 37.966796875 72.93359375 C 42.6886100769043 72.93359375 47.26758575439453 72.00949859619141 51.57653427124023 70.18695831298828 C 55.73999786376953 68.42597198486328 59.47979736328125 65.90431976318359 62.69205856323242 62.69205856323242 C 65.90431976318359 59.47979736328125 68.42597198486328 55.73999786376953 70.18695831298828 51.57653427124023 C 72.00949859619141 47.26758575439453 72.93359375 42.6886100769043 72.93359375 37.966796875 C 72.93359375 33.2449836730957 72.00949859619141 28.66600799560547 70.18695831298828 24.35705947875977 C 68.42597198486328 20.19359588623047 65.90431976318359 16.45379638671875 62.69205856323242 13.24153518676758 C 59.47979736328125 10.02927398681641 55.73999786376953 7.507621765136719 51.57653427124023 5.746635437011719 C 47.26758575439453 3.924095153808594 42.6886100769043 3 37.966796875 3 M 37.966796875 0 C 58.93528366088867 0 75.93359375 16.99831008911133 75.93359375 37.966796875 C 75.93359375 58.93528366088867 58.93528366088867 75.93359375 37.966796875 75.93359375 C 16.99831008911133 75.93359375 0 58.93528366088867 0 37.966796875 C 0 16.99831008911133 16.99831008911133 0 37.966796875 0 Z" stroke="none" fill="#899e78"/>
                </g>
              </g>
            </g>
          </g>
        </g>
      </g>
    </g>
    <g id="ley_5_" data-name="ley (5)" transform="translate(790.982 3163.117)">
      <g id="Grupo_1215734" data-name="Grupo 1215734" transform="translate(57.3 0.73)">
        <path id="Trazado_1160395" data-name="Trazado 1160395" d="M101.438,51.458H64.069V11.925A4.425,4.425,0,0,1,68.494,7.5h32.944Z" transform="translate(-64.069 -7.5)" fill="#e19974"/>
        <path id="Trazado_1160396" data-name="Trazado 1160396" d="M415.606,7.5h3.147V51.458h-3.147Z" transform="translate(-381.384 -7.5)" fill="#dc8758"/>
        <path id="Trazado_1160397" data-name="Trazado 1160397" d="M64.069,11.925V51.458h4.425V7.5A4.425,4.425,0,0,0,64.069,11.925Z" transform="translate(-64.069 -7.5)" fill="#c86d36"/>
        <path id="Trazado_1160398" data-name="Trazado 1160398" d="M101.438,422.436H68.494a4.425,4.425,0,1,1,0-8.85h32.944Z" transform="translate(-64.069 -374.053)" fill="#eaf6ff"/>
        <path id="Trazado_1160399" data-name="Trazado 1160399" d="M415.606,413.585h3.147v8.851h-3.147Z" transform="translate(-381.384 -374.053)" fill="#d8ecfe"/>
      </g>
      <g id="Grupo_1215735" data-name="Grupo 1215735" transform="translate(65.659 3.68)">
        <circle id="Elipse_14320" data-name="Elipse 14320" cx="2.655" cy="2.655" r="2.655" transform="translate(9.883)" fill="#ffe177"/>
        <path id="Trazado_1160400" data-name="Trazado 1160400" d="M221,224.212H208.8a.787.787,0,0,1-.787-.787v-.983a.787.787,0,0,1,.787-.787H221a.787.787,0,0,1,.787.787v.983A.787.787,0,0,1,221,224.212Z" transform="translate(-202.363 -203.757)" fill="#ffe177"/>
        <path id="Trazado_1160401" data-name="Trazado 1160401" d="M314,221.654h-2.95a.787.787,0,0,1,.787.787v.983a.787.787,0,0,1-.787.787H314a.787.787,0,0,0,.787-.787v-.983A.787.787,0,0,0,314,221.654Z" transform="translate(-295.369 -203.756)" fill="#ffd15b"/>
        <path id="Trazado_1160402" data-name="Trazado 1160402" d="M321.087,164h-5.176a1.967,1.967,0,0,1-1.967-1.967v-.983h9.11v.983A1.967,1.967,0,0,1,321.087,164Z" transform="translate(-297.977 -149.048)" fill="#ffe177"/>
        <path id="Trazado_1160403" data-name="Trazado 1160403" d="M358.984,161.045v.983A1.967,1.967,0,0,1,357.017,164h2.95a1.967,1.967,0,0,0,1.967-1.967v-.983Z" transform="translate(-336.857 -149.048)" fill="#ffd15b"/>
        <circle id="Elipse_14321" data-name="Elipse 14321" cx="1.573" cy="1.573" r="1.573" transform="translate(18.948 1.082)" fill="#ffd15b"/>
        <path id="Trazado_1160404" data-name="Trazado 1160404" d="M151.9,164h5.176a1.967,1.967,0,0,0,1.967-1.967v-.983h-9.11v.983A1.967,1.967,0,0,0,151.9,164Z" transform="translate(-149.933 -149.048)" fill="#ffe177"/>
        <path id="Trazado_1160405" data-name="Trazado 1160405" d="M194.973,161.045v.983A1.967,1.967,0,0,1,193.006,164h2.95a1.967,1.967,0,0,0,1.967-1.967v-.983Z" transform="translate(-188.813 -149.048)" fill="#ffd15b"/>
        <circle id="Elipse_14322" data-name="Elipse 14322" cx="1.573" cy="1.573" r="1.573" transform="translate(2.982 1.082)" fill="#ffe177"/>
      </g>
      <g id="Grupo_1215736" data-name="Grupo 1215736" transform="translate(56.57)">
        <path id="Trazado_1160406" data-name="Trazado 1160406" d="M94.669,8.329a.73.73,0,0,0,.73-.73V.73a.73.73,0,0,0-.73-.73H61.726A5.162,5.162,0,0,0,56.57,5.156V31.348a.73.73,0,1,0,1.46,0V5.156A3.7,3.7,0,0,1,61,1.533V39.585a5.122,5.122,0,0,0-2.916,1.458l-.049.051V34.755a.73.73,0,1,0-1.46,0v9.933a5.162,5.162,0,0,0,5.156,5.156H94.669a.73.73,0,0,0,.73-.73V11.006a.73.73,0,0,0-1.46,0V39.533H84.433a.73.73,0,1,0,0,1.46h9.506v7.39H61.726a3.695,3.695,0,1,1,0-7.39h19.3a.73.73,0,1,0,0-1.46H62.455V1.46H93.939V7.6a.73.73,0,0,0,.73.73Z" transform="translate(-56.57)"/>
        <path id="Trazado_1160407" data-name="Trazado 1160407" d="M112.858,468.155H130.9a.73.73,0,1,0,0-1.46H112.858a.73.73,0,0,0,0,1.46Z" transform="translate(-106.719 -421.262)"/>
        <path id="Trazado_1160408" data-name="Trazado 1160408" d="M338.366,466.695h-7.818a.73.73,0,0,0,0,1.46h7.818a.73.73,0,0,0,0-1.46Z" transform="translate(-303.217 -421.262)"/>
        <path id="Trazado_1160409" data-name="Trazado 1160409" d="M203.872,436.39H181.549a.73.73,0,0,0,0,1.46h22.323a.73.73,0,1,0,0-1.46Z" transform="translate(-168.723 -393.907)"/>
        <path id="Trazado_1160410" data-name="Trazado 1160410" d="M112.858,437.85h3.54a.73.73,0,0,0,0-1.46h-3.54a.73.73,0,0,0,0,1.46Z" transform="translate(-106.719 -393.907)"/>
        <path id="Trazado_1160411" data-name="Trazado 1160411" d="M237.469,303.092l.3-.785h2.077l.3.783a.73.73,0,1,0,1.366-.516l-1.9-5.042-.008-.02a.843.843,0,0,0-.782-.524h0a.843.843,0,0,0-.782.526l-.006.016-1.92,5.042a.73.73,0,0,0,1.365.52Zm1.825-2.246h-.97l.487-1.279Z" transform="translate(-218.583 -268.076)"/>
        <path id="Trazado_1160412" data-name="Trazado 1160412" d="M192.657,296.988a.73.73,0,0,0-.73.73v5.114a.73.73,0,0,0,.73.73h1.792a.73.73,0,0,0,0-1.46h-1.062v-4.384A.73.73,0,0,0,192.657,296.988Z" transform="translate(-178.75 -268.076)"/>
        <path id="Trazado_1160413" data-name="Trazado 1160413" d="M294.659,303a.846.846,0,0,0,.8.562h.006a.846.846,0,0,0,.795-.573l.006-.019.858-2.773.858,2.773.006.019a.846.846,0,0,0,.795.573h.006a.846.846,0,0,0,.8-.562.725.725,0,0,0,.028-.1l1-5.037a.73.73,0,1,0-1.432-.283l-.521,2.634-.835-2.7a.73.73,0,0,0-1.4,0l-.835,2.7-.521-2.634a.73.73,0,0,0-1.432.283l1,5.037A.736.736,0,0,0,294.659,303Z" transform="translate(-270.543 -268.073)"/>
        <path id="Trazado_1160414" data-name="Trazado 1160414" d="M150.009,376.51a.73.73,0,0,0,.73.73h23.6a.73.73,0,0,0,0-1.46h-23.6A.73.73,0,0,0,150.009,376.51Z" transform="translate(-140.913 -339.198)"/>
        <path id="Trazado_1160415" data-name="Trazado 1160415" d="M174.341,270.724h-23.6a.73.73,0,0,0,0,1.46h23.6a.73.73,0,1,0,0-1.46Z" transform="translate(-140.913 -244.369)"/>
        <path id="Trazado_1160416" data-name="Trazado 1160416" d="M168.97,43.033a.73.73,0,0,0-.73-.73h-.871l-2.293-6.778A2.3,2.3,0,1,0,161.5,32.96h-2.494a3.385,3.385,0,0,0-6.61,0H149.9a2.3,2.3,0,1,0-3.576,2.564L144.034,42.3h-.871a.73.73,0,0,0-.73.73v.983a2.7,2.7,0,0,0,2.7,2.7h5.176a2.7,2.7,0,0,0,2.7-2.7v-.983a.73.73,0,0,0-.73-.73H151.4l-2.293-6.778a2.313,2.313,0,0,0,.793-1.1H152.4A3.4,3.4,0,0,0,154.971,37V48.2H149.6a1.519,1.519,0,0,0-1.517,1.517V50.7A1.519,1.519,0,0,0,149.6,52.22H161.8a1.519,1.519,0,0,0,1.517-1.517V49.72A1.519,1.519,0,0,0,161.8,48.2h-5.367V37a3.4,3.4,0,0,0,2.575-2.575H161.5a2.312,2.312,0,0,0,.792,1.1L160,42.3h-.871a.73.73,0,0,0-.73.73v.983a2.7,2.7,0,0,0,2.7,2.7h5.177a2.7,2.7,0,0,0,2.7-2.7v-.983ZM147.718,32.847a.843.843,0,1,1-.843.843A.844.844,0,0,1,147.718,32.847Zm3.825,11.169a1.238,1.238,0,0,1-1.237,1.237H145.13a1.238,1.238,0,0,1-1.237-1.237v-.253h7.65ZM149.861,42.3h-4.286l2.134-6.309h.017Zm11.994,7.417V50.7a.057.057,0,0,1-.057.057H149.6a.057.057,0,0,1-.057-.057V49.72a.057.057,0,0,1,.057-.057H161.8A.057.057,0,0,1,161.855,49.72Zm-6.154-14.1a1.925,1.925,0,1,1,1.925-1.925A1.927,1.927,0,0,1,155.7,35.615Zm7.983-2.768a.843.843,0,1,1-.843.843A.844.844,0,0,1,163.685,32.847Zm-.009,3.147h.017l2.135,6.309h-4.286Zm3.834,8.022a1.238,1.238,0,0,1-1.237,1.237H161.1a1.238,1.238,0,0,1-1.237-1.237v-.253h7.65v.253Z" transform="translate(-134.074 -27.355)"/>
        <circle id="Elipse_14323" data-name="Elipse 14323" cx="0.73" cy="0.73" r="0.73" transform="translate(20.897 5.605)"/>
      </g>
    </g>
  </g>
</svg>
