<svg xmlns="http://www.w3.org/2000/svg" xmlns:xlink="http://www.w3.org/1999/xlink" width="93.934" height="93.934" viewBox="0 0 93.934 93.934">
  <defs>
    <filter id="Trazado_978624" x="0" y="0" width="93.934" height="93.934" filterUnits="userSpaceOnUse">
      <feOffset dy="3" input="SourceAlpha"/>
      <feGaussianBlur stdDeviation="3" result="blur"/>
      <feFlood flood-opacity="0.161"/>
      <feComposite operator="in" in2="blur"/>
      <feComposite in="SourceGraphic"/>
    </filter>
  </defs>
  <g id="Grupo_1215739" data-name="Grupo 1215739" transform="translate(-190 -3307.381)">
    <g id="Grupo_1214681" data-name="Grupo 1214681" transform="translate(-631 2582.347)">
      <g id="Grupo_1212848" data-name="Grupo 1212848" transform="translate(212 -798.5)">
        <g id="Grupo_1210963" data-name="Grupo 1210963" transform="translate(0 -377.186)">
          <g id="Grupo_1208068" data-name="Grupo 1208068" transform="translate(412 470.719)">
            <g id="Grupo_1144123" data-name="Grupo 1144123" transform="translate(206 1436)">
              <g transform="matrix(1, 0, 0, 1, -9, -6)" filter="url(#Trazado_978624)">
                <g id="Trazado_978624-2" data-name="Trazado 978624" transform="translate(9 6)" fill="#f2f4f0">
                  <path d="M 37.966796875 74.43359375 C 33.04315185546875 74.43359375 28.26757431030273 73.46962738037109 23.77274131774902 71.56847381591797 C 19.43047523498535 69.73184967041016 15.53040790557861 67.10224914550781 12.18087482452393 63.75271987915039 C 8.831341743469238 60.4031867980957 6.201741218566895 56.50312042236328 4.365118980407715 52.16086196899414 C 2.463963508605957 47.66601943969727 1.499996900558472 42.89044189453125 1.499996900558472 37.966796875 C 1.499996900558472 33.04315185546875 2.463963508605957 28.26757431030273 4.365118980407715 23.77274131774902 C 6.201741218566895 19.43047523498535 8.831341743469238 15.53040790557861 12.18087482452393 12.18087482452393 C 15.53040790557861 8.831341743469238 19.43047523498535 6.201741218566895 23.77274131774902 4.365118980407715 C 28.26757431030273 2.463963508605957 33.04315185546875 1.499996900558472 37.966796875 1.499996900558472 C 42.89044189453125 1.499996900558472 47.66601943969727 2.463963508605957 52.16086196899414 4.365118980407715 C 56.50312042236328 6.201741218566895 60.4031867980957 8.831341743469238 63.75271987915039 12.18087482452393 C 67.10224914550781 15.53040790557861 69.73184967041016 19.43047523498535 71.56847381591797 23.77274131774902 C 73.46962738037109 28.26757431030273 74.43359375 33.04315185546875 74.43359375 37.966796875 C 74.43359375 42.89044189453125 73.46962738037109 47.66601943969727 71.56847381591797 52.16086196899414 C 69.73184967041016 56.50313186645508 67.10224914550781 60.4031867980957 63.75271987915039 63.75271987915039 C 60.4031867980957 67.10224914550781 56.50313186645508 69.73184967041016 52.16086196899414 71.56847381591797 C 47.66601943969727 73.46962738037109 42.89044189453125 74.43359375 37.966796875 74.43359375 Z" stroke="none"/>
                  <path d="M 37.966796875 3 C 33.2449836730957 3 28.66600799560547 3.924095153808594 24.35705947875977 5.746635437011719 C 20.19359588623047 7.507621765136719 16.45379638671875 10.02927398681641 13.24153518676758 13.24153518676758 C 10.02927398681641 16.45379638671875 7.507621765136719 20.19359588623047 5.746635437011719 24.35705947875977 C 3.924095153808594 28.66600799560547 3 33.2449836730957 3 37.966796875 C 3 42.6886100769043 3.924095153808594 47.26758575439453 5.746635437011719 51.57653427124023 C 7.507621765136719 55.73999786376953 10.02927398681641 59.47979736328125 13.24153518676758 62.69205856323242 C 16.45379638671875 65.90431976318359 20.19359588623047 68.42597198486328 24.35705947875977 70.18695831298828 C 28.66600799560547 72.00949859619141 33.2449836730957 72.93359375 37.966796875 72.93359375 C 42.6886100769043 72.93359375 47.26758575439453 72.00949859619141 51.57653427124023 70.18695831298828 C 55.73999786376953 68.42597198486328 59.47979736328125 65.90431976318359 62.69205856323242 62.69205856323242 C 65.90431976318359 59.47979736328125 68.42597198486328 55.73999786376953 70.18695831298828 51.57653427124023 C 72.00949859619141 47.26758575439453 72.93359375 42.6886100769043 72.93359375 37.966796875 C 72.93359375 33.2449836730957 72.00949859619141 28.66600799560547 70.18695831298828 24.35705947875977 C 68.42597198486328 20.19359588623047 65.90431976318359 16.45379638671875 62.69205856323242 13.24153518676758 C 59.47979736328125 10.02927398681641 55.73999786376953 7.507621765136719 51.57653427124023 5.746635437011719 C 47.26758575439453 3.924095153808594 42.6886100769043 3 37.966796875 3 M 37.966796875 0 C 58.93528366088867 0 75.93359375 16.99831008911133 75.93359375 37.966796875 C 75.93359375 58.93528366088867 58.93528366088867 75.93359375 37.966796875 75.93359375 C 16.99831008911133 75.93359375 0 58.93528366088867 0 37.966796875 C 0 16.99831008911133 16.99831008911133 0 37.966796875 0 Z" stroke="none" fill="#899e78"/>
                </g>
              </g>
            </g>
          </g>
        </g>
      </g>
    </g>
    <g id="grupo_2_" data-name="grupo (2)" transform="translate(211.343 3326.416)">
      <path id="Trazado_1160417" data-name="Trazado 1160417" d="M30.74,306.961a5.952,5.952,0,0,0-2.905-1.663l-4.118-.987,0,0,0,0V301.8H18.688v2.522h0l-4.107.981A5.967,5.967,0,0,0,10,311.1v6.728h9.1Z" transform="translate(-8.999 -271.59)" fill="#78d2fa"/>
      <path id="Trazado_1160418" data-name="Trazado 1160418" d="M101.217,301.8v2.582l-2.61,6.251L96,304.388V301.8Z" transform="translate(-86.391 -271.59)" fill="#ffb487"/>
      <path id="Trazado_1160419" data-name="Trazado 1160419" d="M77.162,215.261v3.482a5.605,5.605,0,0,1-5.605,5.605h0a5.605,5.605,0,0,1-5.605-5.605v-3.482Z" transform="translate(-59.35 -193.715)" fill="#ffcdac"/>
      <path id="Trazado_1160420" data-name="Trazado 1160420" d="M77.162,163.739V162.39a5.605,5.605,0,0,0-5.605-5.605h0a5.605,5.605,0,0,0-5.605,5.605v1.349h3.864a13.365,13.365,0,0,0,6.869-1.9h0" transform="translate(-59.35 -141.092)" fill="#878791"/>
      <path id="Trazado_1160421" data-name="Trazado 1160421" d="M294.79,306.961A5.952,5.952,0,0,1,297.7,305.3l4.118-.987,0,0,0,0V301.8h5.029v2.522h0l4.107.981a5.967,5.967,0,0,1,4.58,5.8v6.728h-9.1Z" transform="translate(-265.284 -271.59)" fill="#a5dc69"/>
      <path id="Trazado_1160422" data-name="Trazado 1160422" d="M112.072,352.4l-5.736,1.374a8.311,8.311,0,0,0-6.374,8.082v5.517h31.215v-5.512a8.311,8.311,0,0,0-6.38-8.083l-5.721-1.367Z" transform="translate(-89.957 -317.131)" fill="#ff5a5a"/>
      <g id="Grupo_1215738" data-name="Grupo 1215738" transform="translate(21.887 30.207)">
        <path id="Trazado_1160423" data-name="Trazado 1160423" d="M369.1,301.8v2.591l-2.607,6.242-2.61-6.251V301.8Z" transform="translate(-349.346 -301.797)" fill="#ffb487"/>
        <path id="Trazado_1160424" data-name="Trazado 1160424" d="M222.411,334.97l3.734-8.479a3.083,3.083,0,0,1-.435-1.581V324.1h-6.6v.815a3.082,3.082,0,0,1-.434,1.578Z" transform="translate(-218.674 -321.864)" fill="#ffb487"/>
      </g>
      <path id="Trazado_1160425" data-name="Trazado 1160425" d="M193.615,191.525v5.387a7.807,7.807,0,0,1-7.807,7.807h0A7.807,7.807,0,0,1,178,196.912v-5.387Z" transform="translate(-160.185 -172.355)" fill="#ffcdac"/>
      <path id="Trazado_1160426" data-name="Trazado 1160426" d="M185.806,115.437h0A7.807,7.807,0,0,0,178,123.244v1.879h3.817a8.577,8.577,0,0,0,6.574-3.068h0l5.223,3.068v-1.879A7.807,7.807,0,0,0,185.806,115.437Z" transform="translate(-160.183 -103.883)" fill="#f5b955"/>
      <path id="Trazado_1160427" data-name="Trazado 1160427" d="M334.045,215.261v3.482a5.605,5.605,0,0,0,5.605,5.605h0a5.605,5.605,0,0,0,5.605-5.605v-3.482Z" transform="translate(-300.61 -193.715)" fill="#ffcdac"/>
      <path id="Trazado_1160428" data-name="Trazado 1160428" d="M334.045,163.739V162.39a5.605,5.605,0,0,1,5.605-5.605h0a5.605,5.605,0,0,1,5.605,5.605v1.349h-3.864a13.365,13.365,0,0,1-6.869-1.9h0" transform="translate(-300.61 -141.092)" fill="#878791"/>
      <path id="Trazado_1160429" data-name="Trazado 1160429" d="M246.741,492a1,1,0,1,0,.708.293A1.008,1.008,0,0,0,246.741,492Z" transform="translate(-221.144 -442.755)"/>
      <path id="Trazado_1160430" data-name="Trazado 1160430" d="M45.9,127.621l-3.339-.8V125.5a6.606,6.606,0,0,0,3.088-5.587v-3.73A6.6,6.6,0,0,0,34.1,111.805a8.824,8.824,0,0,0-8.464-6.368h0a8.824,8.824,0,0,0-8.469,6.386A6.6,6.6,0,0,0,5.6,116.182v3.73A6.606,6.606,0,0,0,8.688,125.5v1.324l-3.339.8A6.945,6.945,0,0,0,0,134.4v6.728a1,1,0,0,0,1,1H9v3a1,1,0,0,0,1,1h10.98a1,1,0,1,0,0-2H16.517v-4.405a1,1,0,1,0-2,0v4.405H11.006v-4.516a7.287,7.287,0,0,1,5.607-7.109l4.923-1.18L24.7,138.53a1,1,0,0,0,.916.6h0a1,1,0,0,0,.916-.6l3.164-7.2,4.908,1.173a7.286,7.286,0,0,1,5.612,7.11v1.117a1,1,0,0,0,0,.783v2.611H36.731v-4.405a1,1,0,1,0-2,0v4.405h-4.9a1,1,0,1,0,0,2H41.221a1,1,0,0,0,1-1v-3h8.024a1,1,0,0,0,1-1V134.4A6.945,6.945,0,0,0,45.9,127.621Zm-5.338.046-1.528,3.659-1.508-3.611a1,1,0,0,0,.007-.109c0-.009,0-.019,0-.028v-1.236a6.561,6.561,0,0,0,3.027,0v1.273C40.557,127.631,40.558,127.649,40.559,127.667Zm-19.445.8a6.949,6.949,0,0,0-2.046-.853l-3.35-.8V125.5a6.653,6.653,0,0,0,2.069-2.063A8.871,8.871,0,0,0,21.114,127Zm-2.287-9.031v-2.315h2.816a9.553,9.553,0,0,0,6.765-2.8l4.026,2.365v2.982a6.806,6.806,0,0,1-13.607-.235Zm11.294,7.576a8.871,8.871,0,0,0,3.35-3.559,6.657,6.657,0,0,0,2.057,2.045v1.313l-3.35.8a6.952,6.952,0,0,0-2.057.86v-1.461Zm8.919-2.5a4.61,4.61,0,0,1-4.6-4.6v-.163c0-.1.006-2.691.006-2.691a14.369,14.369,0,0,0,6.34,1.475h2.863v1.38A4.61,4.61,0,0,1,39.04,124.516Zm0-12.938a4.61,4.61,0,0,1,4.6,4.6v.348H40.782a12.367,12.367,0,0,1-6.16-1.644A4.613,4.613,0,0,1,39.04,111.577Zm-20.213,2.668a6.806,6.806,0,0,1,13.613,0v.131l-3.715-2.182a1,1,0,0,0-1.274.22,7.559,7.559,0,0,1-5.807,2.71H18.827ZM7.6,116.182a4.6,4.6,0,0,1,9.023-1.3,12.368,12.368,0,0,1-6.16,1.644H7.6v-.349Zm0,2.35h2.863a14.369,14.369,0,0,0,6.346-1.478v2.857a4.6,4.6,0,0,1-9.209,0S7.6,118.532,7.6,118.532Zm4.6,7.986a6.6,6.6,0,0,0,1.51-.176v1.208c0,.019,0,.038,0,.056s0,.063.006.094l-1.514,3.626-1.52-3.641c0-.024,0-.048,0-.072V126.34A6.6,6.6,0,0,0,12.206,126.518ZM9,139.613v.512h-3v-4.447a1,1,0,1,0-2,0v4.447H2V134.4a4.95,4.95,0,0,1,3.812-4.83l3.173-.758,2.071,4.96A9.292,9.292,0,0,0,9,139.613Zm7.142-9.055a9.407,9.407,0,0,0-1.692.582l.975-2.334,3.173.76a4.964,4.964,0,0,1,.718.232Zm9.473,5.083-2.5-5.695v-2.064a8.815,8.815,0,0,0,5,.009v2.066Zm6.288-5.836a4.967,4.967,0,0,1,.736-.239l3.165-.758.979,2.345a9.409,9.409,0,0,0-1.715-.591Zm17.337,10.321h-2v-4.447a1,1,0,1,0-2,0v4.447H42.222v-.507a9.291,9.291,0,0,0-2.047-5.836l2.077-4.974,3.18.76a4.95,4.95,0,0,1,3.812,4.83Z" transform="translate(0 -94.884)"/>
      <path id="Trazado_1160431" data-name="Trazado 1160431" d="M213.461,231.25a1,1,0,1,0,.708.293A1.008,1.008,0,0,0,213.461,231.25Z" transform="translate(-191.195 -208.104)"/>
      <path id="Trazado_1160432" data-name="Trazado 1160432" d="M280.331,233.252a1,1,0,1,0-.708-.293A1.008,1.008,0,0,0,280.331,233.252Z" transform="translate(-251.372 -208.104)"/>
      <path id="Trazado_1160433" data-name="Trazado 1160433" d="M237.505,265.206a1,1,0,0,0-1.416,0,.76.76,0,0,1-1.073,0,1,1,0,1,0-1.416,1.416,2.764,2.764,0,0,0,3.9,0A1,1,0,0,0,237.505,265.206Z" transform="translate(-209.955 -238.398)"/>
      <path id="Trazado_1160434" data-name="Trazado 1160434" d="M397.621,56h.687a1,1,0,1,0,0-2h-.687a1,1,0,1,0,0,2Z" transform="translate(-356.922 -48.595)"/>
      <path id="Trazado_1160435" data-name="Trazado 1160435" d="M446.142,56h.687a1,1,0,1,0,0-2h-.687a1,1,0,1,0,0,2Z" transform="translate(-400.586 -48.595)"/>
      <path id="Trazado_1160436" data-name="Trazado 1160436" d="M425.312,77.519a1,1,0,0,0,1-1v-.687a1,1,0,1,0-2,0v.687A1,1,0,0,0,425.312,77.519Z" transform="translate(-381.841 -67.341)"/>
      <path id="Trazado_1160437" data-name="Trazado 1160437" d="M425.312,29a1,1,0,0,0,1-1v-.687a1,1,0,1,0-2,0V28A1,1,0,0,0,425.312,29Z" transform="translate(-381.841 -23.677)"/>
      <path id="Trazado_1160438" data-name="Trazado 1160438" d="M40.445,56h.686a1,1,0,1,0,0-2h-.686a1,1,0,0,0,0,2Z" transform="translate(-35.496 -48.595)"/>
      <path id="Trazado_1160439" data-name="Trazado 1160439" d="M88.966,56h.686a1,1,0,1,0,0-2h-.686a1,1,0,1,0,0,2Z" transform="translate(-79.16 -48.595)"/>
      <path id="Trazado_1160440" data-name="Trazado 1160440" d="M68.135,77.519a1,1,0,0,0,1-1v-.687a1,1,0,0,0-2,0v.687A1,1,0,0,0,68.135,77.519Z" transform="translate(-60.414 -67.341)"/>
      <path id="Trazado_1160441" data-name="Trazado 1160441" d="M68.135,29a1,1,0,0,0,1-1v-.687a1,1,0,1,0-2,0V28A1,1,0,0,0,68.135,29Z" transform="translate(-60.414 -23.677)"/>
      <path id="Trazado_1160442" data-name="Trazado 1160442" d="M247,42.722a1,1,0,0,0,1-1V39.088a1,1,0,1,0-2,0v2.633A1,1,0,0,0,247,42.722Z" transform="translate(-221.378 -34.275)"/>
      <path id="Trazado_1160443" data-name="Trazado 1160443" d="M247,2a1,1,0,0,0,1-1,1,1,0,1,0-1.709.708A1.009,1.009,0,0,0,247,2Z" transform="translate(-221.378)"/>
      <path id="Trazado_1160444" data-name="Trazado 1160444" d="M191.007,25.73a1,1,0,0,0,1.415-1.416l-1.465-1.465a1,1,0,0,0-1.416,1.416Z" transform="translate(-170.307 -20.299)"/>
      <path id="Trazado_1160445" data-name="Trazado 1160445" d="M288.626,25.522a1,1,0,0,0,.708-.293l1.514-1.514a1,1,0,0,0-1.416-1.416l-1.514,1.514a1,1,0,0,0,.708,1.709Z" transform="translate(-258.837 -19.804)"/>
    </g>
  </g>
</svg>
