<svg xmlns="http://www.w3.org/2000/svg" xmlns:xlink="http://www.w3.org/1999/xlink" width="93.934" height="93.934" viewBox="0 0 93.934 93.934">
  <defs>
    <filter id="Trazado_978624" x="0" y="0" width="93.934" height="93.934" filterUnits="userSpaceOnUse">
      <feOffset dy="3" input="SourceAlpha"/>
      <feGaussianBlur stdDeviation="3" result="blur"/>
      <feFlood flood-opacity="0.161"/>
      <feComposite operator="in" in2="blur"/>
      <feComposite in="SourceGraphic"/>
    </filter>
  </defs>
  <g id="Grupo_1215741" data-name="Grupo 1215741" transform="translate(-820 -3308.072)">
    <g id="Grupo_1214680" data-name="Grupo 1214680" transform="translate(629 2583.039)">
      <g id="Grupo_1212847" data-name="Grupo 1212847" transform="translate(-418 -798.5)">
        <g id="Grupo_1210963" data-name="Grupo 1210963" transform="translate(0 -377.186)">
          <g id="Grupo_1208068" data-name="Grupo 1208068" transform="translate(412 470.719)">
            <g id="Grupo_1144123" data-name="Grupo 1144123" transform="translate(206 1436)">
              <g transform="matrix(1, 0, 0, 1, -9, -6)" filter="url(#Trazado_978624)">
                <g id="Trazado_978624-2" data-name="Trazado 978624" transform="translate(9 6)" fill="#f2f4f0">
                  <path d="M 37.966796875 74.43359375 C 33.04315185546875 74.43359375 28.26757431030273 73.46962738037109 23.77274131774902 71.56847381591797 C 19.43047523498535 69.73184967041016 15.53040790557861 67.10224914550781 12.18087482452393 63.75271987915039 C 8.831341743469238 60.4031867980957 6.201741218566895 56.50312042236328 4.365118980407715 52.16086196899414 C 2.463963508605957 47.66601943969727 1.499996900558472 42.89044189453125 1.499996900558472 37.966796875 C 1.499996900558472 33.04315185546875 2.463963508605957 28.26757431030273 4.365118980407715 23.77274131774902 C 6.201741218566895 19.43047523498535 8.831341743469238 15.53040790557861 12.18087482452393 12.18087482452393 C 15.53040790557861 8.831341743469238 19.43047523498535 6.201741218566895 23.77274131774902 4.365118980407715 C 28.26757431030273 2.463963508605957 33.04315185546875 1.499996900558472 37.966796875 1.499996900558472 C 42.89044189453125 1.499996900558472 47.66601943969727 2.463963508605957 52.16086196899414 4.365118980407715 C 56.50312042236328 6.201741218566895 60.4031867980957 8.831341743469238 63.75271987915039 12.18087482452393 C 67.10224914550781 15.53040790557861 69.73184967041016 19.43047523498535 71.56847381591797 23.77274131774902 C 73.46962738037109 28.26757431030273 74.43359375 33.04315185546875 74.43359375 37.966796875 C 74.43359375 42.89044189453125 73.46962738037109 47.66601943969727 71.56847381591797 52.16086196899414 C 69.73184967041016 56.50313186645508 67.10224914550781 60.4031867980957 63.75271987915039 63.75271987915039 C 60.4031867980957 67.10224914550781 56.50313186645508 69.73184967041016 52.16086196899414 71.56847381591797 C 47.66601943969727 73.46962738037109 42.89044189453125 74.43359375 37.966796875 74.43359375 Z" stroke="none"/>
                  <path d="M 37.966796875 3 C 33.2449836730957 3 28.66600799560547 3.924095153808594 24.35705947875977 5.746635437011719 C 20.19359588623047 7.507621765136719 16.45379638671875 10.02927398681641 13.24153518676758 13.24153518676758 C 10.02927398681641 16.45379638671875 7.507621765136719 20.19359588623047 5.746635437011719 24.35705947875977 C 3.924095153808594 28.66600799560547 3 33.2449836730957 3 37.966796875 C 3 42.6886100769043 3.924095153808594 47.26758575439453 5.746635437011719 51.57653427124023 C 7.507621765136719 55.73999786376953 10.02927398681641 59.47979736328125 13.24153518676758 62.69205856323242 C 16.45379638671875 65.90431976318359 20.19359588623047 68.42597198486328 24.35705947875977 70.18695831298828 C 28.66600799560547 72.00949859619141 33.2449836730957 72.93359375 37.966796875 72.93359375 C 42.6886100769043 72.93359375 47.26758575439453 72.00949859619141 51.57653427124023 70.18695831298828 C 55.73999786376953 68.42597198486328 59.47979736328125 65.90431976318359 62.69205856323242 62.69205856323242 C 65.90431976318359 59.47979736328125 68.42597198486328 55.73999786376953 70.18695831298828 51.57653427124023 C 72.00949859619141 47.26758575439453 72.93359375 42.6886100769043 72.93359375 37.966796875 C 72.93359375 33.2449836730957 72.00949859619141 28.66600799560547 70.18695831298828 24.35705947875977 C 68.42597198486328 20.19359588623047 65.90431976318359 16.45379638671875 62.69205856323242 13.24153518676758 C 59.47979736328125 10.02927398681641 55.73999786376953 7.507621765136719 51.57653427124023 5.746635437011719 C 47.26758575439453 3.924095153808594 42.6886100769043 3 37.966796875 3 M 37.966796875 0 C 58.93528366088867 0 75.93359375 16.99831008911133 75.93359375 37.966796875 C 75.93359375 58.93528366088867 58.93528366088867 75.93359375 37.966796875 75.93359375 C 16.99831008911133 75.93359375 0 58.93528366088867 0 37.966796875 C 0 16.99831008911133 16.99831008911133 0 37.966796875 0 Z" stroke="none" fill="#899e78"/>
                </g>
              </g>
            </g>
          </g>
        </g>
      </g>
    </g>
    <g id="los-ciudadanos" transform="translate(802.711 3321.039)">
      <g id="Grupo_1215740" data-name="Grupo 1215740" transform="translate(39.976 2.333)">
        <path id="Trazado_1160446" data-name="Trazado 1160446" d="M255.11,20.283h11.626a.115.115,0,0,1,.08.193l-2.89,3.206a.119.119,0,0,0,0,.158l2.89,3.209a.114.114,0,0,1-.08.19H255.11a.11.11,0,0,1-.111-.113V20.4A.112.112,0,0,1,255.11,20.283Z" transform="translate(-230.836 -20.283)" fill="#f54756" fill-rule="evenodd"/>
        <path id="Trazado_1160447" data-name="Trazado 1160447" d="M69.532,161.359a3.722,3.722,0,1,0-3.724-3.721A3.722,3.722,0,0,0,69.532,161.359Z" transform="translate(-63.408 -138.543)" fill="#fbbd80" fill-rule="evenodd"/>
        <path id="Trazado_1160448" data-name="Trazado 1160448" d="M45.187,232.76H56.458a.237.237,0,0,0,.242-.231v-4.643a4.255,4.255,0,0,0-4.473-3.962H49.419a4.255,4.255,0,0,0-4.473,3.962v4.643a.239.239,0,0,0,.242.231Z" transform="translate(-44.946 -200.497)" fill="#9b4d11" fill-rule="evenodd"/>
        <path id="Trazado_1160449" data-name="Trazado 1160449" d="M161.5,136.856a4.414,4.414,0,1,0-4.415-4.412,4.414,4.414,0,0,0,4.415,4.412Z" transform="translate(-144.185 -115.634)" fill="#fbbd80" fill-rule="evenodd"/>
        <path id="Trazado_1160450" data-name="Trazado 1160450" d="M135.186,220.49H148.55a.282.282,0,0,0,.283-.276v-5.461c0-2.582-2.386-4.695-5.3-4.695H140.2c-2.913,0-5.3,2.113-5.3,4.695v5.46a.28.28,0,0,0,.283.276Z" transform="translate(-124.555 -188.227)" fill="#fedb41" fill-rule="evenodd"/>
        <path id="Trazado_1160451" data-name="Trazado 1160451" d="M385.253,161.359a3.722,3.722,0,1,0-3.724-3.721A3.722,3.722,0,0,0,385.253,161.359Z" transform="translate(-342.81 -138.543)" fill="#fbbd80" fill-rule="evenodd"/>
        <path id="Trazado_1160452" data-name="Trazado 1160452" d="M372.141,232.76H360.87a.239.239,0,0,1-.242-.231v-4.643a4.255,4.255,0,0,1,4.473-3.962h2.807a4.255,4.255,0,0,1,4.473,3.962v4.643a.239.239,0,0,1-.242.231Z" transform="translate(-324.314 -200.497)" fill="#f54756" fill-rule="evenodd"/>
        <path id="Trazado_1160453" data-name="Trazado 1160453" d="M283.451,136.856a4.414,4.414,0,1,0-4.412-4.412A4.414,4.414,0,0,0,283.451,136.856Z" transform="translate(-252.11 -115.634)" fill="#fbbd80" fill-rule="evenodd"/>
        <path id="Trazado_1160454" data-name="Trazado 1160454" d="M46.48,232.528v-4.643a4.254,4.254,0,0,1,4.47-3.962H49.419a4.255,4.255,0,0,0-4.473,3.962v4.643Z" transform="translate(-44.946 -200.497)" fill="#8c450f" fill-rule="evenodd"/>
        <path id="Trazado_1160455" data-name="Trazado 1160455" d="M136.43,214.753a4.14,4.14,0,0,1,.045-.6,5.144,5.144,0,0,1,5.258-4.09H140.2a5.4,5.4,0,0,0-4.791,2.695,4.191,4.191,0,0,0-.508,2v5.46a.214.214,0,0,0,0,.045h1.531a.214.214,0,0,1,0-.045Z" transform="translate(-124.551 -188.227)" fill="#e5c53b" fill-rule="evenodd"/>
        <path id="Trazado_1160456" data-name="Trazado 1160456" d="M362.166,232.528v-4.643a4.252,4.252,0,0,1,4.47-3.962H365.1a4.255,4.255,0,0,0-4.473,3.962v4.643Z" transform="translate(-324.317 -200.497)" fill="#dd404d" fill-rule="evenodd"/>
        <path id="Trazado_1160457" data-name="Trazado 1160457" d="M269.647,220.49H256.286a.283.283,0,0,1-.286-.276v-5.461c0-2.582,2.386-4.695,5.3-4.695h3.328c2.917,0,5.3,2.113,5.3,4.695v5.46a.283.283,0,0,1-.286.276Z" transform="translate(-231.721 -188.227)" fill="#b35fd7" fill-rule="evenodd"/>
        <path id="Trazado_1160458" data-name="Trazado 1160458" d="M257.531,214.753a4.158,4.158,0,0,1,.045-.6,5.145,5.145,0,0,1,5.257-4.09H261.3a5.406,5.406,0,0,0-4.795,2.695,4.227,4.227,0,0,0-.509,2v5.46c0,.016,0,.029,0,.045h1.531c0-.016,0-.029,0-.045Z" transform="translate(-231.722 -188.227)" fill="#a156c2" fill-rule="evenodd"/>
        <path id="Trazado_1160459" data-name="Trazado 1160459" d="M53.245,311.932a23.7,23.7,0,0,1-4.045-13.2H96.778a23.789,23.789,0,0,1-43.533,13.2Z" transform="translate(-48.711 -266.697)" fill="#3d9ae2" fill-rule="evenodd"/>
        <path id="Trazado_1160460" data-name="Trazado 1160460" d="M95.094,392.375a23.69,23.69,0,0,1-6.2-5.907,8.1,8.1,0,0,0,2.643-4.354h0a23.487,23.487,0,0,0,1.428,2.421,23.74,23.74,0,0,0,3.589,4.2v0c-.537,1.209-1,2.515-1.46,3.64Z" transform="translate(-83.836 -340.491)" fill="#378bcb" fill-rule="evenodd"/>
        <path id="Trazado_1160461" data-name="Trazado 1160461" d="M149.483,311.3c.9.463,5.306,3.675,5.528,3.614,1,.952,1.3-2.19.9-3.087-1.73-3.859,3.669-4.476,2.3-7.821-1.167-2.855-6.029-2.164-1.633-5.283h19.181c-.058.44-.1.756-.119.823-.434,1.913-5.724,4.11-6.856,7.557-2.45,7.46-5.1,4.457-8.232,10.75-.666,1.338-.534,2.952-.669,4.251l-.225.039c-.113.016-.225.035-.338.052-.077.013-.151.022-.225.032-.113.016-.228.032-.341.045-.077.01-.151.019-.228.026l-.341.039-.222.019-.344.029c-.074.006-.148.01-.222.016l-.347.019-.219.01c-.116.006-.232.01-.351.013-.071,0-.145,0-.215.006-.119,0-.238,0-.354,0-.077,0-.151,0-.228,0-.113,0-.228,0-.344,0-.081,0-.164,0-.244-.006-.106,0-.215-.006-.325-.013-.084,0-.167-.006-.254-.013l-.318-.019-.251-.019c-.109-.01-.215-.016-.322-.029-.084-.006-.164-.013-.248-.023l-.325-.035c-.081-.01-.161-.019-.242-.032-.113-.013-.225-.029-.334-.045-.077-.01-.151-.019-.225-.032-.119-.016-.235-.035-.354-.055-.068-.013-.138-.026-.206-.035-.125-.022-.251-.045-.373-.071-.061-.01-.122-.022-.183-.035-.132-.026-.264-.055-.4-.084-.055-.01-.106-.022-.158-.035-.135-.029-.267-.061-.4-.093-.048-.01-.1-.023-.151-.035-.132-.035-.267-.068-.4-.106l-.148-.039c-.132-.039-.267-.074-.4-.116-.048-.013-.1-.026-.142-.042q-.2-.057-.405-.125c-.045-.013-.09-.029-.135-.042-.135-.045-.27-.09-.405-.138-.042-.013-.087-.029-.129-.045-.135-.048-.27-.1-.405-.148l-.129-.048c-.135-.051-.27-.1-.405-.157l-.119-.048-.415-.174-.106-.048c-.141-.058-.28-.122-.418-.187-.032-.013-.068-.029-.1-.045-.141-.064-.28-.132-.421-.2a.829.829,0,0,0-.093-.045c-.141-.071-.283-.145-.424-.219l-.081-.039c-.145-.077-.289-.154-.434-.235a.7.7,0,0,0-.068-.035c-.148-.084-.3-.167-.444-.254l-.048-.029c-.154-.09-.306-.183-.457-.273l-.045-.029c-.154-.1-.306-.193-.457-.289l0,0c1.463-3.627,3.065-9.126,6.679-7.277Z" transform="translate(-131.546 -266.697)" fill="#91dc5a" fill-rule="evenodd"/>
        <path id="Trazado_1160462" data-name="Trazado 1160462" d="M58.187,302.407c1.026-1.695,1.109-2.772.727-3.679H49.2a23.7,23.7,0,0,0,4.045,13.2c.17.254.344.5.521.743C57.165,309.957,56.464,305.253,58.187,302.407Z" transform="translate(-48.711 -266.697)" fill="#91dc5a" fill-rule="evenodd"/>
        <path id="Trazado_1160463" data-name="Trazado 1160463" d="M144.274,439.672c-.537,1.209-1,2.515-1.46,3.64l0,0A23.932,23.932,0,0,0,159.9,446.84c.029-.27.045-.556.061-.849a23.811,23.811,0,0,1-15.683-6.319Z" transform="translate(-131.556 -391.428)" fill="#83c651" fill-rule="evenodd"/>
        <path id="Trazado_1160464" data-name="Trazado 1160464" d="M53.766,312.674a8.1,8.1,0,0,0,2.643-4.354,23.619,23.619,0,0,1-2.569-9.361c0-.077-.01-.154-.013-.232H49.2v0a23.685,23.685,0,0,0,4.045,13.2C53.415,312.186,53.589,312.43,53.766,312.674Z" transform="translate(-48.711 -266.697)" fill="#83c651" fill-rule="evenodd"/>
      </g>
      <path id="Trazado_1160465" data-name="Trazado 1160465" d="M162,128.075a4.611,4.611,0,0,0-.637-.045,4.414,4.414,0,1,0-.039,8.827h.077a4.086,4.086,0,0,0,.6-.045,4.415,4.415,0,0,1,0-8.737Z" transform="translate(-104.072 -113.302)" fill="#e2aa73"/>
      <path id="Trazado_1160466" data-name="Trazado 1160466" d="M382.694,157.634a3.722,3.722,0,0,1,3.084-3.67,3.775,3.775,0,0,0-.637-.055,3.722,3.722,0,1,0-.032,7.444h.061a3.423,3.423,0,0,0,.608-.055A3.722,3.722,0,0,1,382.694,157.634Z" transform="translate(-302.723 -136.205)" fill="#e2aa73"/>
      <path id="Trazado_1160467" data-name="Trazado 1160467" d="M70.056,153.969a3.776,3.776,0,0,0-.637-.055,3.722,3.722,0,1,0-.032,7.444h.061a3.423,3.423,0,0,0,.608-.055,3.723,3.723,0,0,1,0-7.335Z" transform="translate(-23.32 -136.209)" fill="#e2aa73"/>
      <path id="Trazado_1160468" data-name="Trazado 1160468" d="M283.943,128.075a4.659,4.659,0,0,0-.64-.045,4.414,4.414,0,1,0-.035,8.827h.074a4.1,4.1,0,0,0,.6-.045,4.415,4.415,0,0,1,0-8.737Z" transform="translate(-211.986 -113.302)" fill="#e2aa73"/>
      <path id="Trazado_1160469" data-name="Trazado 1160469" d="M89.179,29.321a4.888,4.888,0,0,0-3.54-4.54,4.581,4.581,0,1,0-6.444,0,5.585,5.585,0,0,0-1.111.5,6.2,6.2,0,0,0-3.237-2.147,5.281,5.281,0,1,0-7.061,0A6.31,6.31,0,0,0,65.062,24.7V10.068h11.1a.805.805,0,0,0,.587-1.357l-2.8-2.976,2.8-2.972a.805.805,0,0,0-.586-1.357h-11.1v-.6a.805.805,0,1,0-1.61,0V24.7a6.311,6.311,0,0,0-2.729-1.57,5.28,5.28,0,1,0-7.061,0,6.2,6.2,0,0,0-3.237,2.147,5.576,5.576,0,0,0-1.111-.5,4.581,4.581,0,1,0-6.444,0,4.887,4.887,0,0,0-3.54,4.54v4.47a.811.811,0,0,0,.01.118.793.793,0,0,0-.01.118,24.922,24.922,0,0,0,20.125,24.4A24.888,24.888,0,0,0,89.179,34.029a.8.8,0,0,0-.01-.12.812.812,0,0,0,.01-.118Zm-6.762-10.76a2.969,2.969,0,1,1-2.97,2.967A2.969,2.969,0,0,1,82.417,18.562ZM80.992,26.11h2.85a3.5,3.5,0,0,1,3.727,3.212v3.9H79.186V28.448a5.038,5.038,0,0,0-.318-1.758,4.109,4.109,0,0,1,2.124-.58ZM71.318,15.543a3.67,3.67,0,1,1-3.671,3.668,3.67,3.67,0,0,1,3.671-3.668Zm-1.689,8.95H73a4.677,4.677,0,0,1,4.123,2.247.805.805,0,0,0,.049.094,3.488,3.488,0,0,1,.4,1.614v4.773H65.062V28.337a4.322,4.322,0,0,1,4.568-3.844ZM74.294,3.015,72.252,5.183a.805.805,0,0,0,0,1.1L74.3,8.457H65.062V3.016Zm-17.1,12.527a3.67,3.67,0,1,1-3.668,3.669,3.67,3.67,0,0,1,3.668-3.669Zm-1.686,8.95H58.88c2.5,0,4.534,1.744,4.57,3.9,0,.019,0,.038,0,.057s0,.043,0,.065v4.709H50.934V28.448a3.488,3.488,0,0,1,.4-1.614.8.8,0,0,0,.048-.092,4.676,4.676,0,0,1,4.124-2.249Zm-9.413-5.93a2.969,2.969,0,1,1-2.97,2.967A2.969,2.969,0,0,1,46.092,18.562ZM44.667,26.11h2.85a4.108,4.108,0,0,1,2.124.58,5.04,5.04,0,0,0-.318,1.758v4.773H40.941v-3.9A3.5,3.5,0,0,1,44.667,26.11Zm-3.712,8.722h8.421a4,4,0,0,1-.816,2.51,13.679,13.679,0,0,0-1.4,4.19c-.431,1.94-.876,3.937-2.264,5.424A23.188,23.188,0,0,1,40.956,34.832Zm4.9,13.448c1.862-1.829,2.4-4.245,2.878-6.4a12.566,12.566,0,0,1,1.207-3.7,5.772,5.772,0,0,0,1.055-3.345h11.88a1.843,1.843,0,0,0-.487,1.27c.041.9.844,1.369,1.62,1.82a4.065,4.065,0,0,1,1.927,1.77c.449,1.1-.044,1.71-1.028,2.783-1.025,1.117-2.429,2.648-1.3,5.173a4.326,4.326,0,0,1-.022,2c-.4-.227-1.613-1.06-2.517-1.682-1.5-1.03-2.436-1.671-2.874-1.9a3.456,3.456,0,0,0-2.9-.255c-2.2.84-3.425,4.017-4.507,6.82l-.111.288a23.155,23.155,0,0,1-4.825-4.638Zm6.2,5.548c.079-.2.158-.407.24-.619.913-2.366,2.05-5.311,3.579-5.895a1.9,1.9,0,0,1,1.59.184c.376.192,1.608,1.04,2.694,1.788.668.46,1.359.936,1.885,1.283a7.374,7.374,0,0,0,1,.6,1.155,1.155,0,0,0,1.4.049c1.014-.718,1.048-3.312.635-4.231-.665-1.485-.078-2.232,1.016-3.425.975-1.063,2.188-2.385,1.332-4.481a5.475,5.475,0,0,0-2.609-2.553,5.152,5.152,0,0,1-.8-.524,4.409,4.409,0,0,1,1.267-1.173H83.511a9.713,9.713,0,0,1-2.322,2.21c-1.711,1.357-3.841,3.045-4.56,5.234-1.261,3.846-2.511,4.72-3.958,5.731a11.652,11.652,0,0,0-4.344,5.061,8.7,8.7,0,0,0-.689,3.541c-.007.145-.014.287-.022.426a23.469,23.469,0,0,1-15.565-3.206Zm25.2-.51a23.189,23.189,0,0,1-8.011,3.421c0-.018,0-.035,0-.053a7.377,7.377,0,0,1,.522-2.9A10.034,10.034,0,0,1,73.6,49.327c1.542-1.078,3.137-2.193,4.566-6.549.568-1.729,2.407-3.187,4.03-4.474,1.5-1.191,2.689-2.132,2.945-3.261.009-.041.019-.1.036-.211h2.38A23.309,23.309,0,0,1,77.257,53.318Z" transform="translate(0 0)"/>
    </g>
  </g>
</svg>
