<svg xmlns="http://www.w3.org/2000/svg" xmlns:xlink="http://www.w3.org/1999/xlink" width="93.934" height="93.934" viewBox="0 0 93.934 93.934">
  <defs>
    <filter id="Trazado_982547" x="0" y="0" width="93.934" height="93.934" filterUnits="userSpaceOnUse">
      <feOffset dy="3" input="SourceAlpha"/>
      <feGaussianBlur stdDeviation="3" result="blur"/>
      <feFlood flood-opacity="0.161"/>
      <feComposite operator="in" in2="blur"/>
      <feComposite in="SourceGraphic"/>
    </filter>
  </defs>
  <g id="Grupo_1215786" data-name="Grupo 1215786" transform="translate(-1031.066 -8449.729)">
    <g id="Grupo_1214713" data-name="Grupo 1214713" transform="translate(-0.229 3321.729)">
      <g id="Grupo_1214434" data-name="Grupo 1214434" transform="translate(-0.771 -2738.522)">
        <g id="Grupo_1183184" data-name="Grupo 1183184" transform="translate(1 1016.523)">
          <g id="Grupo_1179612" data-name="Grupo 1179612" transform="translate(848 4723.467)">
            <g id="Grupo_1175227" data-name="Grupo 1175227" transform="translate(-5.967 140.533)">
              <g id="Grupo_1167337" data-name="Grupo 1167337" transform="translate(198.033 1992)">
                <g id="Grupo_1166720" data-name="Grupo 1166720">
                  <g id="Grupo_1164305" data-name="Grupo 1164305">
                    <g id="Grupo_1163948" data-name="Grupo 1163948">
                      <g id="Grupo_1158168" data-name="Grupo 1158168">
                        <g id="Grupo_1152576" data-name="Grupo 1152576">
                          <g id="Grupo_1148633" data-name="Grupo 1148633">
                            <g id="Grupo_1148525" data-name="Grupo 1148525">
                              <g transform="matrix(1, 0, 0, 1, -9, -6)" filter="url(#Trazado_982547)">
                                <g id="Trazado_982547-2" data-name="Trazado 982547" transform="translate(9 6)" fill="#eae4dc">
                                  <path d="M 37.966796875 74.43359375 C 33.04315185546875 74.43359375 28.26757431030273 73.46962738037109 23.77274131774902 71.56847381591797 C 19.43047523498535 69.73184967041016 15.53040790557861 67.10224914550781 12.18087482452393 63.75271987915039 C 8.831341743469238 60.4031867980957 6.201741218566895 56.50312042236328 4.365118980407715 52.16086196899414 C 2.463963508605957 47.66601943969727 1.499996900558472 42.89044189453125 1.499996900558472 37.966796875 C 1.499996900558472 33.04315185546875 2.463963508605957 28.26757431030273 4.365118980407715 23.77274131774902 C 6.201741218566895 19.43047523498535 8.831341743469238 15.53040790557861 12.18087482452393 12.18087482452393 C 15.53040790557861 8.831341743469238 19.43047523498535 6.201741218566895 23.77274131774902 4.365118980407715 C 28.26757431030273 2.463963508605957 33.04315185546875 1.499996900558472 37.966796875 1.499996900558472 C 42.89044189453125 1.499996900558472 47.66601943969727 2.463963508605957 52.16086196899414 4.365118980407715 C 56.50312042236328 6.201741218566895 60.4031867980957 8.831341743469238 63.75271987915039 12.18087482452393 C 67.10224914550781 15.53040790557861 69.73184967041016 19.43047523498535 71.56847381591797 23.77274131774902 C 73.46962738037109 28.26757431030273 74.43359375 33.04315185546875 74.43359375 37.966796875 C 74.43359375 42.89044189453125 73.46962738037109 47.66601943969727 71.56847381591797 52.16086196899414 C 69.73184967041016 56.50313186645508 67.10224914550781 60.4031867980957 63.75271987915039 63.75271987915039 C 60.4031867980957 67.10224914550781 56.50313186645508 69.73184967041016 52.16086196899414 71.56847381591797 C 47.66601943969727 73.46962738037109 42.89044189453125 74.43359375 37.966796875 74.43359375 Z" stroke="none"/>
                                  <path d="M 37.966796875 3 C 33.2449836730957 3 28.66600799560547 3.924095153808594 24.35705947875977 5.746635437011719 C 20.19359588623047 7.507637023925781 16.45379638671875 10.02928161621094 13.24153518676758 13.24153518676758 C 10.02927398681641 16.45379638671875 7.507621765136719 20.19359588623047 5.746635437011719 24.35705947875977 C 3.924095153808594 28.66600799560547 3 33.2449836730957 3 37.966796875 C 3 42.6886100769043 3.924095153808594 47.26758575439453 5.746635437011719 51.57653427124023 C 7.507621765136719 55.73999786376953 10.02927398681641 59.47979736328125 13.24153518676758 62.69205856323242 C 16.45379638671875 65.90431976318359 20.19359588623047 68.42597198486328 24.35705947875977 70.18695831298828 C 28.66600799560547 72.00949859619141 33.2449836730957 72.93359375 37.966796875 72.93359375 C 42.6886100769043 72.93359375 47.26758575439453 72.00949859619141 51.57653427124023 70.18695831298828 C 55.73999786376953 68.42597198486328 59.47979736328125 65.90431976318359 62.69205856323242 62.69205856323242 C 65.90431976318359 59.47979736328125 68.42597198486328 55.73999786376953 70.18695831298828 51.57653427124023 C 72.00949859619141 47.26758575439453 72.93359375 42.6886100769043 72.93359375 37.966796875 C 72.93359375 33.2449836730957 72.00949859619141 28.66600799560547 70.18695831298828 24.35705947875977 C 68.42597198486328 20.19359588623047 65.90431976318359 16.45379638671875 62.69205856323242 13.24153518676758 C 59.47979736328125 10.02928161621094 55.73999786376953 7.507637023925781 51.57653427124023 5.746635437011719 C 47.26758575439453 3.924095153808594 42.6886100769043 3 37.966796875 3 M 37.966796875 0 C 58.93528366088867 0 75.93359375 16.99832153320312 75.93359375 37.966796875 C 75.93359375 58.93528366088867 58.93528366088867 75.93359375 37.966796875 75.93359375 C 16.99831008911133 75.93359375 0 58.93528366088867 0 37.966796875 C 0 16.99832153320312 16.99831008911133 0 37.966796875 0 Z" stroke="none" fill="#665b4e"/>
                                </g>
                              </g>
                            </g>
                          </g>
                        </g>
                      </g>
                    </g>
                  </g>
                </g>
              </g>
            </g>
          </g>
        </g>
      </g>
    </g>
    <g id="seguro" transform="translate(1047.942 8468.785)">
      <path id="Trazado_1160540" data-name="Trazado 1160540" d="M17,49.624H50.723a.785.785,0,0,0,.784-.784V1.784A.785.785,0,0,0,50.723,1H17.784A.785.785,0,0,0,17,1.784Z" transform="translate(-3.236 -0.216)" fill="#ff593f"/>
      <path id="Trazado_1160541" data-name="Trazado 1160541" d="M21,47.781H40.606l8.627-7.843V7H21Z" transform="translate(-4.099 -1.51)" fill="#fffefe"/>
      <path id="Trazado_1160542" data-name="Trazado 1160542" d="M27.784,8.843H45.038a.785.785,0,0,0,.784-.784V1H27V8.058A.785.785,0,0,0,27.784,8.843Z" transform="translate(-5.393 -0.216)" fill="#ffde66"/>
      <path id="Trazado_1160543" data-name="Trazado 1160543" d="M46,49h8.627L46,56.843Z" transform="translate(-9.493 -10.571)" fill="#ebebeb"/>
      <path id="Trazado_1160544" data-name="Trazado 1160544" d="M28,17H46.038V29.548H28Z" transform="translate(-5.609 -3.668)" fill="#ff9c8c"/>
      <path id="Trazado_1160545" data-name="Trazado 1160545" d="M26.528,25.274l-1.06,6.008a18.822,18.822,0,0,1-7.243,11.787l-3.461,2.6L11.2,42.957A18.824,18.824,0,0,1,4.052,31.239L3,25.274,14.764,19Z" transform="translate(-0.216 -4.099)" fill="#bde660"/>
      <path id="Trazado_1160546" data-name="Trazado 1160546" d="M14.058,41.438A15.643,15.643,0,0,1,8.1,31.673l-.656-3.724,8.279-4.415L24,27.948l-.664,3.766A15.632,15.632,0,0,1,17.3,41.536l-1.567,1.176Z" transform="translate(-1.174 -5.077)" fill="#fdfefc"/>
      <path id="Trazado_1160547" data-name="Trazado 1160547" d="M50.507,0H17.569A1.57,1.57,0,0,0,16,1.569v10.98h1.569V1.569h6.274V4.706H19.921a.785.785,0,0,0-.784.784v7.058h1.569V6.274h3.137V7.843a1.57,1.57,0,0,0,1.569,1.569H42.665a1.57,1.57,0,0,0,1.569-1.569V6.274H47.37V25.1h1.569V5.49a.785.785,0,0,0-.784-.784H44.233V1.569h6.274V48.624H17.569V43.918H16v5.49a.785.785,0,0,0,.784.784H50.507a1.57,1.57,0,0,0,1.569-1.569V1.569A1.57,1.57,0,0,0,50.507,0ZM42.665,7.843H25.411V1.569H42.665Z" transform="translate(-3.02)"/>
      <path id="Trazado_1160548" data-name="Trazado 1160548" d="M49.8,34H48.233V44.98H40.391a.785.785,0,0,0-.784.784v7.058H21.569V51.254H20v2.353a.785.785,0,0,0,.784.784H40.391a.815.815,0,0,0,.107-.007l.024,0,.013,0,.015,0,.02,0,.006,0c.021-.005.042-.011.064-.018h0a.655.655,0,0,0,.065-.025h0a.669.669,0,0,0,.063-.031h0l.029-.017.012-.008.019-.013.009-.007.02-.014.018-.014.011-.009.028-.024,8.627-7.843c.013-.012.026-.024.038-.037l.01-.011.03-.035.005-.006c.011-.013.021-.027.031-.041l.009-.013c.008-.011.015-.023.022-.035a.079.079,0,0,0,.006-.011.485.485,0,0,0,.024-.045l.006-.013.016-.037.005-.013c.006-.016.012-.032.017-.049l0-.007c0-.015.009-.03.013-.045a.065.065,0,0,1,0-.012.781.781,0,0,0,.016-.1s0-.009,0-.013l0-.044V34ZM41.175,46.548h5.814L43.18,50.011l-2.005,1.823Z" transform="translate(-3.883 -7.335)"/>
      <path id="Trazado_1160549" data-name="Trazado 1160549" d="M30,5h1.569V6.569H30Z" transform="translate(-6.041 -1.079)"/>
      <path id="Trazado_1160550" data-name="Trazado 1160550" d="M46,5h1.569V6.569H46Z" transform="translate(-9.493 -1.079)"/>
      <path id="Trazado_1160551" data-name="Trazado 1160551" d="M45.822,16H27.784a.785.785,0,0,0-.784.784v3.137h1.569V17.569H45.038v10.98H33.274v1.569H45.822a.785.785,0,0,0,.784-.784V16.784A.785.785,0,0,0,45.822,16Z" transform="translate(-5.393 -3.452)"/>
      <path id="Trazado_1160552" data-name="Trazado 1160552" d="M34,38h8.627v1.569H34Z" transform="translate(-6.904 -8.198)"/>
      <path id="Trazado_1160553" data-name="Trazado 1160553" d="M47,38h4.706v1.569H47Z" transform="translate(-9.708 -8.198)"/>
      <path id="Trazado_1160554" data-name="Trazado 1160554" d="M31,44h8.627v1.569H31Z" transform="translate(-6.256 -9.493)"/>
      <path id="Trazado_1160555" data-name="Trazado 1160555" d="M44,44h7.058v1.569H44Z" transform="translate(-9.061 -9.493)"/>
      <path id="Trazado_1160556" data-name="Trazado 1160556" d="M26,50H39.332v1.569H26Z" transform="translate(-5.178 -10.787)"/>
      <path id="Trazado_1160557" data-name="Trazado 1160557" d="M34,5h7.843V6.569H34Z" transform="translate(-6.904 -1.079)"/>
      <path id="Trazado_1160558" data-name="Trazado 1160558" d="M14.548,46.233a.78.78,0,0,0,.471-.157l3.461-2.6A19.537,19.537,0,0,0,26.024,31.2l1.06-6.008a.784.784,0,0,0-.4-.828L14.918,18.093a.783.783,0,0,0-.738,0L2.416,24.367a.784.784,0,0,0-.4.828l1.052,5.966a19.551,19.551,0,0,0,7.447,12.206l3.563,2.707a.783.783,0,0,0,.474.159ZM4.609,30.888l-.953-5.405,10.893-5.81,10.893,5.81-.961,5.447a17.975,17.975,0,0,1-6.941,11.3l-2.987,2.241L11.46,42.117A17.987,17.987,0,0,1,4.609,30.888Z" transform="translate(0 -3.883)"/>
      <path id="Trazado_1160559" data-name="Trazado 1160559" d="M18.419,42.216a14.538,14.538,0,0,0,5.613-9.134l.778-4.406a.784.784,0,0,0-.4-.828l-3.923-2.092-.738,1.384,3.421,1.825-.679,3.845a12.976,12.976,0,0,1-5.009,8.153l-2.064,1.548-2.141-1.627a12.98,12.98,0,0,1-4.945-8.1l-.674-3.815,3.42-1.824-.738-1.384L6.415,27.847a.784.784,0,0,0-.4.828l.771,4.375a14.55,14.55,0,0,0,5.541,9.082l2.613,1.985a.784.784,0,0,0,.945,0Z" transform="translate(-0.863 -5.556)"/>
      <path id="Trazado_1160560" data-name="Trazado 1160560" d="M17.035,24.112,19.8,25.588l.738-1.384L17.4,22.531a.783.783,0,0,0-.738,0L13.529,24.2l.738,1.384Z" transform="translate(-2.487 -4.841)"/>
      <path id="Trazado_1160561" data-name="Trazado 1160561" d="M16.15,37.916h.03a.784.784,0,0,0,.59-.267l5.49-6.274-1.18-1.033-4.853,5.546-1.772-2.364-1.255.941L15.553,37.6a.787.787,0,0,0,.6.314Z" transform="translate(-2.416 -6.546)"/>
      <path id="Trazado_1160562" data-name="Trazado 1160562" d="M17,28h1.569v1.569H17Z" transform="translate(-3.236 -6.041)"/>
      <path id="Trazado_1160563" data-name="Trazado 1160563" d="M17,42h1.569v1.569H17Z" transform="translate(-3.236 -9.061)"/>
    </g>
  </g>
</svg>
