<svg xmlns="http://www.w3.org/2000/svg" xmlns:xlink="http://www.w3.org/1999/xlink" width="93.934" height="93.934" viewBox="0 0 93.934 93.934">
  <defs>
    <filter id="Trazado_982547" x="0" y="0" width="93.934" height="93.934" filterUnits="userSpaceOnUse">
      <feOffset dy="3" input="SourceAlpha"/>
      <feGaussianBlur stdDeviation="3" result="blur"/>
      <feFlood flood-opacity="0.161"/>
      <feComposite operator="in" in2="blur"/>
      <feComposite in="SourceGraphic"/>
    </filter>
  </defs>
  <g id="Grupo_1215788" data-name="Grupo 1215788" transform="translate(-191.066 -8601.578)">
    <g id="Grupo_1214714" data-name="Grupo 1214714" transform="translate(-0.229 3473.578)">
      <g id="Grupo_1214432" data-name="Grupo 1214432" transform="translate(-0.771 -2738.674)">
        <g id="Grupo_1183196" data-name="Grupo 1183196" transform="translate(1 1016.674)">
          <g id="Grupo_1179610" data-name="Grupo 1179610" transform="translate(8 4723.467)">
            <g id="Grupo_1175227" data-name="Grupo 1175227" transform="translate(-5.967 140.533)">
              <g id="Grupo_1167337" data-name="Grupo 1167337" transform="translate(198.033 1992)">
                <g id="Grupo_1166720" data-name="Grupo 1166720">
                  <g id="Grupo_1164305" data-name="Grupo 1164305">
                    <g id="Grupo_1163948" data-name="Grupo 1163948">
                      <g id="Grupo_1158168" data-name="Grupo 1158168">
                        <g id="Grupo_1152576" data-name="Grupo 1152576">
                          <g id="Grupo_1148633" data-name="Grupo 1148633">
                            <g id="Grupo_1148525" data-name="Grupo 1148525">
                              <g transform="matrix(1, 0, 0, 1, -9, -6)" filter="url(#Trazado_982547)">
                                <g id="Trazado_982547-2" data-name="Trazado 982547" transform="translate(9 6)" fill="#eae4dc">
                                  <path d="M 37.966796875 74.43359375 C 33.04315185546875 74.43359375 28.26757431030273 73.46962738037109 23.77274131774902 71.56847381591797 C 19.43047523498535 69.73184967041016 15.53040790557861 67.10224914550781 12.18087482452393 63.75271987915039 C 8.831341743469238 60.4031867980957 6.201741218566895 56.50312042236328 4.365118980407715 52.16086196899414 C 2.463963508605957 47.66601943969727 1.499996900558472 42.89044189453125 1.499996900558472 37.966796875 C 1.499996900558472 33.04315185546875 2.463963508605957 28.26757431030273 4.365118980407715 23.77274131774902 C 6.201741218566895 19.43047523498535 8.831341743469238 15.53040790557861 12.18087482452393 12.18087482452393 C 15.53040790557861 8.831341743469238 19.43047523498535 6.201741218566895 23.77274131774902 4.365118980407715 C 28.26757431030273 2.463963508605957 33.04315185546875 1.499996900558472 37.966796875 1.499996900558472 C 42.89044189453125 1.499996900558472 47.66601943969727 2.463963508605957 52.16086196899414 4.365118980407715 C 56.50312042236328 6.201741218566895 60.4031867980957 8.831341743469238 63.75271987915039 12.18087482452393 C 67.10224914550781 15.53040790557861 69.73184967041016 19.43047523498535 71.56847381591797 23.77274131774902 C 73.46962738037109 28.26757431030273 74.43359375 33.04315185546875 74.43359375 37.966796875 C 74.43359375 42.89044189453125 73.46962738037109 47.66601943969727 71.56847381591797 52.16086196899414 C 69.73184967041016 56.50313186645508 67.10224914550781 60.4031867980957 63.75271987915039 63.75271987915039 C 60.4031867980957 67.10224914550781 56.50313186645508 69.73184967041016 52.16086196899414 71.56847381591797 C 47.66601943969727 73.46962738037109 42.89044189453125 74.43359375 37.966796875 74.43359375 Z" stroke="none"/>
                                  <path d="M 37.966796875 3 C 33.2449836730957 3 28.66600799560547 3.924095153808594 24.35705947875977 5.746635437011719 C 20.19359588623047 7.507637023925781 16.45379638671875 10.02928161621094 13.24153518676758 13.24153518676758 C 10.02927398681641 16.45379638671875 7.507621765136719 20.19359588623047 5.746635437011719 24.35705947875977 C 3.924095153808594 28.66600799560547 3 33.2449836730957 3 37.966796875 C 3 42.6886100769043 3.924095153808594 47.26758575439453 5.746635437011719 51.57653427124023 C 7.507621765136719 55.73999786376953 10.02927398681641 59.47979736328125 13.24153518676758 62.69205856323242 C 16.45379638671875 65.90431976318359 20.19359588623047 68.42597198486328 24.35705947875977 70.18695831298828 C 28.66600799560547 72.00949859619141 33.2449836730957 72.93359375 37.966796875 72.93359375 C 42.6886100769043 72.93359375 47.26758575439453 72.00949859619141 51.57653427124023 70.18695831298828 C 55.73999786376953 68.42597198486328 59.47979736328125 65.90431976318359 62.69205856323242 62.69205856323242 C 65.90431976318359 59.47979736328125 68.42597198486328 55.73999786376953 70.18695831298828 51.57653427124023 C 72.00949859619141 47.26758575439453 72.93359375 42.6886100769043 72.93359375 37.966796875 C 72.93359375 33.2449836730957 72.00949859619141 28.66600799560547 70.18695831298828 24.35705947875977 C 68.42597198486328 20.19359588623047 65.90431976318359 16.45379638671875 62.69205856323242 13.24153518676758 C 59.47979736328125 10.02928161621094 55.73999786376953 7.507637023925781 51.57653427124023 5.746635437011719 C 47.26758575439453 3.924095153808594 42.6886100769043 3 37.966796875 3 M 37.966796875 0 C 58.93528366088867 0 75.93359375 16.99832153320312 75.93359375 37.966796875 C 75.93359375 58.93528366088867 58.93528366088867 75.93359375 37.966796875 75.93359375 C 16.99831008911133 75.93359375 0 58.93528366088867 0 37.966796875 C 0 16.99832153320312 16.99831008911133 0 37.966796875 0 Z" stroke="none" fill="#665b4e"/>
                                </g>
                              </g>
                            </g>
                          </g>
                        </g>
                      </g>
                    </g>
                  </g>
                </g>
              </g>
            </g>
          </g>
        </g>
      </g>
    </g>
    <g id="Page-1" transform="translate(215.999 8624)">
      <g id="_046---Legal-Policy" data-name="046---Legal-Policy">
        <path id="Path" d="M39,26.59A1,1,0,0,0,39,28l-6,6h-.01a.984.984,0,0,0-1.4,0l-3.3,3.29a1.008,1.008,0,0,0,0,1.42L32.59,43H22a1,1,0,0,0-1,1v4.79a5.147,5.147,0,0,1-4.51,5.19,3.854,3.854,0,0,1-.48.02H16a5,5,0,0,1-5-5V6.21A5.147,5.147,0,0,0,6.49,1.02,3.854,3.854,0,0,0,6.01,1H34a5,5,0,0,1,5,5Z" fill="#ffdb00" fill-rule="evenodd"/>
        <path id="Path-2" data-name="Path" d="M39,6a5,5,0,0,0-5-5H31a5,5,0,0,1,5,5V26.59A1,1,0,0,0,36,28l-6,6h-.01a.984.984,0,0,0-1.4,0l-3.3,3.29a1.008,1.008,0,0,0,0,1.42L29.59,43h3l-4.3-4.29a1.008,1.008,0,0,1,0-1.42L31.59,34a.984.984,0,0,1,1.4,0H33l6-6a1,1,0,0,1,0-1.41Z" fill="#fdc008" fill-rule="evenodd"/>
        <path id="Path-3" data-name="Path" d="M11,6.21V28H2a1,1,0,0,1-1-1V6A5,5,0,0,1,6,1h.01a3.854,3.854,0,0,1,.48.02A5.147,5.147,0,0,1,11,6.21Z" fill="#ff9701" fill-rule="evenodd"/>
        <path id="Path-4" data-name="Path" d="M6.49,1.02A3.854,3.854,0,0,0,6.01,1H6a4.975,4.975,0,0,0-1.472.249A5.224,5.224,0,0,1,8,6.21V28h3V6.21A5.147,5.147,0,0,0,6.49,1.02Z" fill="#f47c00" fill-rule="evenodd"/>
        <path id="Path-5" data-name="Path" d="M49,46.85V49a5,5,0,0,1-5,5H41a2.006,2.006,0,0,0-2-2H27a2.006,2.006,0,0,0-2,2H16.01a3.854,3.854,0,0,0,.48-.02A5.147,5.147,0,0,0,21,48.79V44a1,1,0,0,1,1-1H32.59l4.1,4.1a1,1,0,0,0,1.41,0l3.29-3.29a1,1,0,0,0,0-1.41h.01l1.58-1.57Z" fill="#ffea3a" fill-rule="evenodd"/>
        <path id="Path-6" data-name="Path" d="M42.98,40.83l-1.5,1.5L46,46.85V49a5,5,0,0,1-5,5h3a5,5,0,0,0,5-5V46.85Z" fill="#fcd734" fill-rule="evenodd"/>
        <path id="Path-7" data-name="Path" d="M52.1,33.1l-3.29,3.3a1,1,0,0,1-1.41,0L39,28a1,1,0,0,1,0-1.41l3.29-3.3a1.008,1.008,0,0,1,1.42,0l8.39,8.4A1,1,0,0,1,52.1,33.1Z" fill="#9f522d" fill-rule="evenodd"/>
        <path id="Path-8" data-name="Path" d="M52.1,31.69l-8.39-8.4a1.008,1.008,0,0,0-1.42,0l-.789.792,7.6,7.608a1,1,0,0,1,0,1.41l-2.5,2.5.8.8a1,1,0,0,0,1.41,0l3.29-3.3a1,1,0,0,0,0-1.41Z" fill="#783e22" fill-rule="evenodd"/>
        <path id="Path-9" data-name="Path" d="M41.39,43.81,38.1,47.1a1,1,0,0,1-1.41,0L32.59,43l-4.3-4.29a1.008,1.008,0,0,1,0-1.42L31.59,34a.984.984,0,0,1,1.4,0H33l8.39,8.4A1,1,0,0,1,41.39,43.81Z" fill="#9f522d" fill-rule="evenodd"/>
        <path id="Path-10" data-name="Path" d="M47.4,36.4l-1.58,1.58-2.84,2.85L41.4,42.4h-.01L33,34l6-6Z" fill="#783e22" fill-rule="evenodd"/>
        <path id="Path-11" data-name="Path" d="M58.4,53.4a1.98,1.98,0,0,1-1.41.6,2.013,2.013,0,0,1-1.44-.6L42.98,40.83l2.84-2.85L58.4,50.55a1.992,1.992,0,0,1,0,2.85Z" fill="#9f522d" fill-rule="evenodd"/>
        <path id="Path-12" data-name="Path" d="M41,54v4a1,1,0,0,1-1,1H26a1,1,0,0,1-1-1V54a2.006,2.006,0,0,1,2-2H39A2.006,2.006,0,0,1,41,54Z" fill="#9f522d" fill-rule="evenodd"/>
        <path id="Path-13" data-name="Path" d="M39,52H36a2.006,2.006,0,0,1,2,2v4a1,1,0,0,1-1,1h3a1,1,0,0,0,1-1V54A2.006,2.006,0,0,0,39,52Z" fill="#783e22" fill-rule="evenodd"/>
        <g id="Grupo_1215787" data-name="Grupo 1215787">
          <path id="Path-14" data-name="Path" d="M16,8H34a1,1,0,0,0,0-2H16a1,1,0,0,0,0,2Z" fill-rule="evenodd"/>
          <path id="Path-15" data-name="Path" d="M16,14H34a1,1,0,0,0,0-2H16a1,1,0,0,0,0,2Z" fill-rule="evenodd"/>
          <path id="Path-16" data-name="Path" d="M16,20H34a1,1,0,0,0,0-2H16a1,1,0,0,0,0,2Z" fill-rule="evenodd"/>
          <path id="Path-17" data-name="Path" d="M16,26H34a1,1,0,0,0,0-2H16a1,1,0,0,0,0,2Z" fill-rule="evenodd"/>
          <path id="Path-18" data-name="Path" d="M16,32H28a1,1,0,0,0,0-2H16a1,1,0,0,0,0,2Z" fill-rule="evenodd"/>
          <path id="Path-19" data-name="Path" d="M24,37a1,1,0,0,0-1-1H16a1,1,0,0,0,0,2h7A1,1,0,0,0,24,37Z" fill-rule="evenodd"/>
          <path id="Shape" d="M47.235,37.981l.365-.365a2.035,2.035,0,0,0,.5.072,2,2,0,0,0,1.414-.585l3.3-3.293a2,2,0,0,0,0-2.829l-8.4-8.393a2,2,0,0,0-2.828,0L40,24.173V6a6.006,6.006,0,0,0-6-6H6.023A6,6,0,0,0,0,6V27a2,2,0,0,0,2,2h8V49a6.023,6.023,0,0,0,6.01,6H24v3a2,2,0,0,0,2,2H40a2,2,0,0,0,2-2V55h2a6,6,0,0,0,5.987-5.748L54.835,54.1a3.015,3.015,0,1,0,4.272-4.256ZM33.3,42.3l-.017-.017L29,38l3.292-3.291H32.3L40.687,43.1,37.4,46.4Zm8.1-1.317L34.414,34,39,29.416,45.986,36.4ZM43,24l8.4,8.4-3.3,3.289L39.723,27.31a.113.113,0,0,0-.012-.017l.007-.01ZM10,27H2V6A4.014,4.014,0,0,1,3.31,3.044,3.969,3.969,0,0,1,5.988,2h.1a2.16,2.16,0,0,1,.309.015A4.151,4.151,0,0,1,10,6.213Zm2,22V6.213A6.342,6.342,0,0,0,10.4,2H34a4,4,0,0,1,4,4V26.264a2,2,0,0,0-.218,1.541L32.8,32.784a1.993,1.993,0,0,0-1.924.51l-3.293,3.292a2,2,0,0,0,0,2.828L30.173,42H22a2,2,0,0,0-2,2v4.79a4.157,4.157,0,0,1-3.631,4.2A2.909,2.909,0,0,1,16,53a4.016,4.016,0,0,1-4-4Zm14,9V54a1,1,0,0,1,1-1H39a1,1,0,0,1,1,1v4Zm22-9a4,4,0,0,1-4,4H41.816A3,3,0,0,0,39,51H27a3,3,0,0,0-2.816,2H20.4A6.342,6.342,0,0,0,22,48.79V44H32.173l3.807,3.808a2,2,0,0,0,2.828,0L42.1,44.517a1.956,1.956,0,0,0,.514-1.918l.359-.359L48,47.265Zm9.686,3.7a1.024,1.024,0,0,1-1.429-.008l-6.549-6.548-5.317-5.316L45.82,39.4,57.7,51.263a.992.992,0,0,1-.011,1.438Z"/>
        </g>
      </g>
    </g>
  </g>
</svg>
