<svg xmlns="http://www.w3.org/2000/svg" xmlns:xlink="http://www.w3.org/1999/xlink" width="93.934" height="93.934" viewBox="0 0 93.934 93.934">
  <defs>
    <filter id="Trazado_982547" x="0" y="0" width="93.934" height="93.934" filterUnits="userSpaceOnUse">
      <feOffset dy="3" input="SourceAlpha"/>
      <feGaussianBlur stdDeviation="3" result="blur"/>
      <feFlood flood-opacity="0.161"/>
      <feComposite operator="in" in2="blur"/>
      <feComposite in="SourceGraphic"/>
    </filter>
  </defs>
  <g id="Grupo_1215760" data-name="Grupo 1215760" transform="translate(-611.066 -8601.578)">
    <g id="Grupo_1214715" data-name="Grupo 1214715" transform="translate(-0.229 3473.578)">
      <g id="Grupo_1214433" data-name="Grupo 1214433" transform="translate(-0.771 -2738.674)">
        <g id="Grupo_1183190" data-name="Grupo 1183190" transform="translate(1 1016.674)">
          <g id="Grupo_1179611" data-name="Grupo 1179611" transform="translate(428 4723.467)">
            <g id="Grupo_1175227" data-name="Grupo 1175227" transform="translate(-5.967 140.533)">
              <g id="Grupo_1167337" data-name="Grupo 1167337" transform="translate(198.033 1992)">
                <g id="Grupo_1166720" data-name="Grupo 1166720">
                  <g id="Grupo_1164305" data-name="Grupo 1164305">
                    <g id="Grupo_1163948" data-name="Grupo 1163948">
                      <g id="Grupo_1158168" data-name="Grupo 1158168">
                        <g id="Grupo_1152576" data-name="Grupo 1152576">
                          <g id="Grupo_1148633" data-name="Grupo 1148633">
                            <g id="Grupo_1148525" data-name="Grupo 1148525">
                              <g transform="matrix(1, 0, 0, 1, -9, -6)" filter="url(#Trazado_982547)">
                                <g id="Trazado_982547-2" data-name="Trazado 982547" transform="translate(9 6)" fill="#eae4dc">
                                  <path d="M 37.966796875 74.43359375 C 33.04315185546875 74.43359375 28.26757431030273 73.46962738037109 23.77274131774902 71.56847381591797 C 19.43047523498535 69.73184967041016 15.53040790557861 67.10224914550781 12.18087482452393 63.75271987915039 C 8.831341743469238 60.4031867980957 6.201741218566895 56.50312042236328 4.365118980407715 52.16086196899414 C 2.463963508605957 47.66601943969727 1.499996900558472 42.89044189453125 1.499996900558472 37.966796875 C 1.499996900558472 33.04315185546875 2.463963508605957 28.26757431030273 4.365118980407715 23.77274131774902 C 6.201741218566895 19.43047523498535 8.831341743469238 15.53040790557861 12.18087482452393 12.18087482452393 C 15.53040790557861 8.831341743469238 19.43047523498535 6.201741218566895 23.77274131774902 4.365118980407715 C 28.26757431030273 2.463963508605957 33.04315185546875 1.499996900558472 37.966796875 1.499996900558472 C 42.89044189453125 1.499996900558472 47.66601943969727 2.463963508605957 52.16086196899414 4.365118980407715 C 56.50312042236328 6.201741218566895 60.4031867980957 8.831341743469238 63.75271987915039 12.18087482452393 C 67.10224914550781 15.53040790557861 69.73184967041016 19.43047523498535 71.56847381591797 23.77274131774902 C 73.46962738037109 28.26757431030273 74.43359375 33.04315185546875 74.43359375 37.966796875 C 74.43359375 42.89044189453125 73.46962738037109 47.66601943969727 71.56847381591797 52.16086196899414 C 69.73184967041016 56.50313186645508 67.10224914550781 60.4031867980957 63.75271987915039 63.75271987915039 C 60.4031867980957 67.10224914550781 56.50313186645508 69.73184967041016 52.16086196899414 71.56847381591797 C 47.66601943969727 73.46962738037109 42.89044189453125 74.43359375 37.966796875 74.43359375 Z" stroke="none"/>
                                  <path d="M 37.966796875 3 C 33.2449836730957 3 28.66600799560547 3.924095153808594 24.35705947875977 5.746635437011719 C 20.19359588623047 7.507637023925781 16.45379638671875 10.02928161621094 13.24153518676758 13.24153518676758 C 10.02927398681641 16.45379638671875 7.507621765136719 20.19359588623047 5.746635437011719 24.35705947875977 C 3.924095153808594 28.66600799560547 3 33.2449836730957 3 37.966796875 C 3 42.6886100769043 3.924095153808594 47.26758575439453 5.746635437011719 51.57653427124023 C 7.507621765136719 55.73999786376953 10.02927398681641 59.47979736328125 13.24153518676758 62.69205856323242 C 16.45379638671875 65.90431976318359 20.19359588623047 68.42597198486328 24.35705947875977 70.18695831298828 C 28.66600799560547 72.00949859619141 33.2449836730957 72.93359375 37.966796875 72.93359375 C 42.6886100769043 72.93359375 47.26758575439453 72.00949859619141 51.57653427124023 70.18695831298828 C 55.73999786376953 68.42597198486328 59.47979736328125 65.90431976318359 62.69205856323242 62.69205856323242 C 65.90431976318359 59.47979736328125 68.42597198486328 55.73999786376953 70.18695831298828 51.57653427124023 C 72.00949859619141 47.26758575439453 72.93359375 42.6886100769043 72.93359375 37.966796875 C 72.93359375 33.2449836730957 72.00949859619141 28.66600799560547 70.18695831298828 24.35705947875977 C 68.42597198486328 20.19359588623047 65.90431976318359 16.45379638671875 62.69205856323242 13.24153518676758 C 59.47979736328125 10.02928161621094 55.73999786376953 7.507637023925781 51.57653427124023 5.746635437011719 C 47.26758575439453 3.924095153808594 42.6886100769043 3 37.966796875 3 M 37.966796875 0 C 58.93528366088867 0 75.93359375 16.99832153320312 75.93359375 37.966796875 C 75.93359375 58.93528366088867 58.93528366088867 75.93359375 37.966796875 75.93359375 C 16.99831008911133 75.93359375 0 58.93528366088867 0 37.966796875 C 0 16.99832153320312 16.99831008911133 0 37.966796875 0 Z" stroke="none" fill="#665b4e"/>
                                </g>
                              </g>
                            </g>
                          </g>
                        </g>
                      </g>
                    </g>
                  </g>
                </g>
              </g>
            </g>
          </g>
        </g>
      </g>
    </g>
    <g id="color" transform="translate(627.584 8615.844)">
      <path id="Trazado_1160497" data-name="Trazado 1160497" d="M31.084,3A12.084,12.084,0,0,1,43.167,15.084V38.321H19V15.084A12.084,12.084,0,0,1,31.084,3Z" transform="translate(-0.634 -0.07)" fill="#ffa31d"/>
      <path id="Trazado_1160498" data-name="Trazado 1160498" d="M36.577,31H25.065a7.436,7.436,0,0,0-7.316,6.106L17,41.225h5.577V49.59H39.308V44.013h5.577l-.947-6.628A7.436,7.436,0,0,0,36.577,31Z" transform="translate(-0.493 -2.044)" fill="#f2a7b1"/>
      <path id="Trazado_1160499" data-name="Trazado 1160499" d="M29,27h5.577v4.648a2.789,2.789,0,0,1-5.577,0Z" transform="translate(-1.339 -1.762)" fill="#ffd3b6"/>
      <path id="Trazado_1160500" data-name="Trazado 1160500" d="M26.718,11l-3.173,3.173A1.859,1.859,0,0,0,23,15.488v5.451a8.556,8.556,0,0,0,7.808,8.634,8.366,8.366,0,0,0,8.923-8.348V16.577a1.859,1.859,0,0,0-1.859-1.859H35.694A12.7,12.7,0,0,1,26.718,11Z" transform="translate(-0.916 -0.634)" fill="#ffd3b6"/>
      <path id="Trazado_1160501" data-name="Trazado 1160501" d="M11,57H50.039v3.718H11Z" transform="translate(-0.07 -3.877)" fill="#ffa31d"/>
      <path id="Trazado_1160502" data-name="Trazado 1160502" d="M41,45h5.577v5.577H41Z" transform="translate(-2.185 -3.031)" fill="#ffd3b6"/>
      <path id="Trazado_1160503" data-name="Trazado 1160503" d="M11,56.577,15.109,51H45.93l4.109,5.577Z" transform="translate(-0.07 -3.454)" fill="#ffa31d"/>
      <path id="Trazado_1160504" data-name="Trazado 1160504" d="M0,0H9.2V6.573H0Z" transform="translate(24.864 45.685) rotate(-45)" fill="#f97878"/>
      <path id="Trazado_1160505" data-name="Trazado 1160505" d="M29.084,42.732l-8.376-3.346A2.7,2.7,0,0,0,17,41.895v.442A2.7,2.7,0,0,0,19.221,45l8,1.453,1.433.956a2.444,2.444,0,0,0,3.726-2.629l-.049-.2a2.444,2.444,0,0,0-2.371-1.848Z" transform="translate(-0.493 -2.622)" fill="#ffd3b6"/>
      <path id="Trazado_1160506" data-name="Trazado 1160506" d="M27.577,29.647v.8a3.718,3.718,0,0,0,7.436,0V29.67a9.285,9.285,0,0,0,5.577-8.516V16.507A2.789,2.789,0,0,0,37.8,13.718H35.624A11.687,11.687,0,0,1,27.3,10.272a.93.93,0,0,0-1.314,0l-3.173,3.173A2.768,2.768,0,0,0,22,15.418v5.45a9.61,9.61,0,0,0,5.577,8.779Zm5.577.8a1.859,1.859,0,0,1-3.718,0v-.2a8.959,8.959,0,0,0,1.242.179q.315.02.626.02a9.341,9.341,0,0,0,1.851-.186Zm-9.3-15.031a.93.93,0,0,1,.272-.658l2.538-2.538a13.528,13.528,0,0,0,8.955,3.355H37.8a.93.93,0,0,1,.93.93v4.648A7.436,7.436,0,0,1,30.8,28.573a7.6,7.6,0,0,1-6.939-7.706Z" transform="translate(-0.846 -0.564)"/>
      <path id="Trazado_1160507" data-name="Trazado 1160507" d="M27.93,20.789a.93.93,0,0,0,.93-.93v-.93a.93.93,0,0,0-1.859,0v.93A.93.93,0,0,0,27.93,20.789Z" transform="translate(-1.198 -1.128)"/>
      <path id="Trazado_1160508" data-name="Trazado 1160508" d="M35.93,20.789a.93.93,0,0,0,.93-.93v-.93a.93.93,0,0,0-1.859,0v.93A.93.93,0,0,0,35.93,20.789Z" transform="translate(-1.762 -1.128)"/>
      <path id="Trazado_1160509" data-name="Trazado 1160509" d="M29.265,26.577a3.617,3.617,0,0,0,5.04,0,.93.93,0,0,0-1.322-1.3,1.826,1.826,0,0,1-2.4,0,.93.93,0,1,0-1.322,1.3Z" transform="translate(-1.336 -1.618)"/>
      <path id="Trazado_1160510" data-name="Trazado 1160510" d="M50.717,52.572l-4.109-5.577a.929.929,0,0,0-.744-.378h-.543s-.007-4.758-.009-4.78l-.947-6.628a8.357,8.357,0,0,0-.9-2.728V15.013a13.013,13.013,0,1,0-26.026,0V32.057a8.347,8.347,0,0,0-1.094,2.832l-.691,3.655a6.519,6.519,0,0,0-.074.73v.442a3.632,3.632,0,0,0,2.984,3.575l2.593.471v2.855H15.039a.93.93,0,0,0-.744.378l-4.109,5.577a.929.929,0,0,0-.186.551v3.718a.93.93,0,0,0,.93.93H49.969a.93.93,0,0,0,.93-.93V53.123a.93.93,0,0,0-.181-.551Zm-7.255-5.955H39.744V42.9h3.718ZM30.449,3.859A11.166,11.166,0,0,1,41.6,15.013v15.1a8.341,8.341,0,0,0-3.493-1.841.93.93,0,1,0-.45,1.8,6.479,6.479,0,0,1,4.865,5.391l.795,5.57H39.485L37.838,36.1a.931.931,0,1,0-1.766.587l1.813,5.435v4.5H34.552l2.131-2.131a.93.93,0,0,0,0-1.314l-4.648-4.648a.93.93,0,0,0-1.314,0l-.7.7a3.33,3.33,0,0,0-.547-.046h-.7l-4.4-1.759.343-.514a.93.93,0,1,0-1.547-1.032l-.558.837-2.05-.82a3.646,3.646,0,0,0-2.5-.073l.113-.6a6.481,6.481,0,0,1,5.037-5.2.93.93,0,0,0-.389-1.818,8.338,8.338,0,0,0-3.53,1.7v-14.9A11.166,11.166,0,0,1,30.449,3.859Zm-3.6,41.165.8.533a3.373,3.373,0,0,0,5.144-3.625l1.919,1.9L29.52,49.02l-3.333-3.333Zm-9.413-5.312v-.439a1.775,1.775,0,0,1,2.433-1.648l8.375,3.351a.941.941,0,0,0,.346.063h.88a1.513,1.513,0,0,1,1.47,1.147l.049.2a1.515,1.515,0,0,1-2.306,1.631l-1.432-.956a.94.94,0,0,0-.349-.141l-8.009-1.459a1.774,1.774,0,0,1-1.457-1.746ZM23.013,44.1l1.807.328-.605.605a.93.93,0,0,0,0,1.314l.272.272H23.013Zm-7.5,4.379H26.346l.93.93H23.943a.93.93,0,0,0,0,1.859H36.956a.93.93,0,0,0,0-1.859H31.764l.93-.93h12.7l2.739,3.718H12.769Zm-3.649,7.436V54.052h37.18v1.859Z"/>
    </g>
  </g>
</svg>
