<svg xmlns="http://www.w3.org/2000/svg" xmlns:xlink="http://www.w3.org/1999/xlink" width="113" height="113" viewBox="0 0 113 113">
  <defs>
    <filter id="Trazado_982547" x="0" y="0" width="113" height="113" filterUnits="userSpaceOnUse">
      <feOffset dy="3" input="SourceAlpha"/>
      <feGaussianBlur stdDeviation="3" result="blur"/>
      <feFlood flood-opacity="0.161"/>
      <feComposite operator="in" in2="blur"/>
      <feComposite in="SourceGraphic"/>
    </filter>
  </defs>
  <g id="Grupo_1215864" data-name="Grupo 1215864" transform="translate(-585 -9474.914)">
    <g id="Grupo_1214720" data-name="Grupo 1214720" transform="translate(594 9480.914)">
      <g id="Grupo_1209935" data-name="Grupo 1209935">
        <g id="Grupo_1208705" data-name="Grupo 1208705">
          <g id="Grupo_1148633" data-name="Grupo 1148633">
            <g id="Grupo_1148525" data-name="Grupo 1148525">
              <g transform="matrix(1, 0, 0, 1, -9, -6)" filter="url(#Trazado_982547)">
                <g id="Trazado_982547-2" data-name="Trazado 982547" transform="translate(9 6)" fill="#f9e3d4">
                  <path d="M 47.5 93.5 C 41.28937149047852 93.5 35.26533508300781 92.28397369384766 29.59518623352051 89.88570404052734 C 24.11771965026855 87.56893157958984 19.19813346862793 84.25196075439453 14.97309303283691 80.02691650390625 C 10.74804019927979 75.80186462402344 7.431066513061523 70.88229370117188 5.114293098449707 65.40481567382812 C 2.716026782989502 59.73468017578125 1.5 53.71062850952148 1.5 47.5 C 1.5 41.28937149047852 2.716026782989502 35.26533508300781 5.114293098449707 29.59518623352051 C 7.431066513061523 24.11771965026855 10.74804019927979 19.19813346862793 14.97309303283691 14.97309303283691 C 19.19813346862793 10.74804019927979 24.11771965026855 7.431066513061523 29.59518623352051 5.114293098449707 C 35.26533508300781 2.716026782989502 41.28937149047852 1.5 47.5 1.5 C 53.71062850952148 1.5 59.73468017578125 2.716026782989502 65.40481567382812 5.114293098449707 C 70.88229370117188 7.431066513061523 75.80186462402344 10.74804019927979 80.02691650390625 14.97309303283691 C 84.25196075439453 19.19813346862793 87.56893157958984 24.11771965026855 89.88570404052734 29.59518623352051 C 92.28397369384766 35.26533508300781 93.5 41.28937149047852 93.5 47.5 C 93.5 53.71062850952148 92.28397369384766 59.73468017578125 89.88570404052734 65.40481567382812 C 87.56893157958984 70.88229370117188 84.25196075439453 75.80186462402344 80.02691650390625 80.02691650390625 C 75.80186462402344 84.25196075439453 70.88229370117188 87.56893157958984 65.40481567382812 89.88570404052734 C 59.73468017578125 92.28397369384766 53.71062850952148 93.5 47.5 93.5 Z" stroke="none"/>
                  <path d="M 47.5 3 C 41.49121475219727 3 35.66376876831055 4.176155090332031 30.17950439453125 6.495796203613281 C 24.88084411621094 8.736953735351562 20.12152099609375 11.94598388671875 16.03375244140625 16.03375244140625 C 11.94598388671875 20.12152099609375 8.736953735351562 24.88084411621094 6.495796203613281 30.17950439453125 C 4.176155090332031 35.66376876831055 3 41.49121475219727 3 47.5 C 3 53.50878524780273 4.176155090332031 59.33623123168945 6.495796203613281 64.82049560546875 C 8.736953735351562 70.11915588378906 11.94598388671875 74.87847900390625 16.03375244140625 78.96624755859375 C 20.12152099609375 83.05401611328125 24.88084411621094 86.26304626464844 30.17950439453125 88.50419616699219 C 35.66376876831055 90.82384490966797 41.49121475219727 92 47.5 92 C 53.50878524780273 92 59.33623123168945 90.82384490966797 64.82049560546875 88.50419616699219 C 70.11915588378906 86.26304626464844 74.87847900390625 83.05401611328125 78.96624755859375 78.96624755859375 C 83.05401611328125 74.87847900390625 86.26304626464844 70.11915588378906 88.50419616699219 64.82049560546875 C 90.82384490966797 59.33623123168945 92 53.50878524780273 92 47.5 C 92 41.49121475219727 90.82384490966797 35.66376876831055 88.50419616699219 30.17950439453125 C 86.26304626464844 24.88084411621094 83.05401611328125 20.12152099609375 78.96624755859375 16.03375244140625 C 74.87847900390625 11.94598388671875 70.11915588378906 8.736953735351562 64.82049560546875 6.495796203613281 C 59.33623123168945 4.176155090332031 53.50878524780273 3 47.5 3 M 47.5 0 C 73.7335205078125 0 95 21.2664794921875 95 47.5 C 95 73.7335205078125 73.7335205078125 95 47.5 95 C 21.2664794921875 95 0 73.7335205078125 0 47.5 C 0 21.2664794921875 21.2664794921875 0 47.5 0 Z" stroke="none" fill="#eca675"/>
                </g>
              </g>
            </g>
          </g>
        </g>
      </g>
    </g>
    <g id="fiscal" transform="translate(602.745 9490.617)">
      <g id="Grupo_1215862" data-name="Grupo 1215862" transform="translate(8.568 0.955)">
        <g id="Grupo_1215858" data-name="Grupo 1215858" transform="translate(2.982)">
          <g id="Grupo_1215857" data-name="Grupo 1215857">
            <g id="Grupo_1215812" data-name="Grupo 1215812" transform="translate(0 35.422)">
              <path id="Trazado_1161437" data-name="Trazado 1161437" d="M84.412,301.4a4.078,4.078,0,0,1-3.437-4.044v-2.675a1.886,1.886,0,0,1,.989-1.659l.067-.036v-3.434L71.381,285.56a8.617,8.617,0,0,1-2.307.315H62.586a8.622,8.622,0,0,1-2.307-.315l-17.62,6.6a6.369,6.369,0,0,0-4.136,5.965v5.329H62.164a.51.51,0,0,1,.51.51v8.853a.51.51,0,0,1-.51.51v.127H84.519V301.412Z" transform="translate(-38.522 -285.56)" fill="#0055a3"/>
            </g>
            <g id="Grupo_1215813" data-name="Grupo 1215813" transform="translate(7.562 37.302)">
              <path id="Trazado_1161438" data-name="Trazado 1161438" d="M107.059,316.33V300.32l-9.172,3.434V316.33Z" transform="translate(-97.887 -300.32)" fill="#e9b665"/>
            </g>
            <g id="Grupo_1215814" data-name="Grupo 1215814" transform="translate(12.8 37.302)">
              <path id="Trazado_1161439" data-name="Trazado 1161439" d="M142.935,316.33V300.32L139,301.793V316.33Z" transform="translate(-139 -300.32)" fill="#d8aa5e"/>
            </g>
            <g id="Grupo_1215816" data-name="Grupo 1215816" transform="translate(37.881 37.302)">
              <g id="Grupo_1215815" data-name="Grupo 1215815">
                <path id="Trazado_1161440" data-name="Trazado 1161440" d="M344,314.291l-.107-.017a4.078,4.078,0,0,1-3.437-4.044v-2.675a1.886,1.886,0,0,1,.989-1.659l.067-.036v-3.434l-5.627-2.107v26.01H344Z" transform="translate(-335.887 -300.319)" fill="#e9b665"/>
              </g>
            </g>
            <g id="Grupo_1215818" data-name="Grupo 1215818" transform="translate(41.972 38.833)">
              <g id="Grupo_1215817" data-name="Grupo 1215817">
                <path id="Trazado_1161441" data-name="Trazado 1161441" d="M371.918,324.765a4.078,4.078,0,0,1-3.437-4.044v-2.675a1.886,1.886,0,0,1,.989-1.659l.067-.036v-3.434L368,312.341V336.82h4.025V324.782Z" transform="translate(-368 -312.341)" fill="#d8aa5e"/>
              </g>
            </g>
            <g id="Grupo_1215823" data-name="Grupo 1215823" transform="translate(43.381 29.745)">
              <g id="Grupo_1215819" data-name="Grupo 1215819">
                <path id="Trazado_1161442" data-name="Trazado 1161442" d="M380.019,253.907h2.923v-6.142h-.127v-4.889a1.876,1.876,0,0,0-3.752,0v11.295A1.87,1.87,0,0,1,380.019,253.907Z" transform="translate(-379.062 -241)" fill="#ffcebf"/>
              </g>
              <g id="Grupo_1215820" data-name="Grupo 1215820" transform="translate(2.963 11.445)">
                <path id="Trazado_1161443" data-name="Trazado 1161443" d="M414.244,330.847v.127a1.749,1.749,0,1,1-3.5,0h-.255a1.749,1.749,0,0,1-3.5,0h-.255a1.749,1.749,0,0,1-.765,1.446l-.154.1.154.105a1.738,1.738,0,0,1-.983,3.175h-1.9a.765.765,0,0,0-.764.764v4.189l.127.335h7.694a4.225,4.225,0,0,0,4.225-4.225v-6.022h-.127Z" transform="translate(-402.325 -330.847)" fill="#ffcebf"/>
              </g>
              <g id="Grupo_1215822" data-name="Grupo 1215822" transform="translate(8.124 11.446)">
                <g id="Grupo_1215821" data-name="Grupo 1215821">
                  <path id="Trazado_1161444" data-name="Trazado 1161444" d="M449.594,330.848v.127a1.745,1.745,0,0,1-2.533,1.561v4.334a4.225,4.225,0,0,1-4.225,4.225H445.5a4.225,4.225,0,0,0,4.225-4.225v-6.022h-.127Z" transform="translate(-442.836 -330.848)" fill="#ffa78f"/>
                </g>
              </g>
            </g>
            <g id="Grupo_1215842" data-name="Grupo 1215842" transform="translate(9.44)">
              <g id="Grupo_1215825" data-name="Grupo 1215825" transform="translate(23.454 2.521)">
                <g id="Grupo_1215824" data-name="Grupo 1215824">
                  <path id="Trazado_1161445" data-name="Trazado 1161445" d="M298.761,32.411v4.528h.42a3.862,3.862,0,0,1,3.858,3.858v2.458h1.822a4.007,4.007,0,0,1,1.7.375V36.843A9.554,9.554,0,0,0,297,27.289h-.264A7.487,7.487,0,0,1,298.761,32.411Z" transform="translate(-296.738 -27.289)" fill="#d8aa5e"/>
                </g>
              </g>
              <g id="Grupo_1215826" data-name="Grupo 1215826" transform="translate(2.463)">
                <path id="Trazado_1161446" data-name="Trazado 1161446" d="M133.658,25.987h1.822V23.528a3.862,3.862,0,0,1,3.858-3.858H155.1V15.143A7.643,7.643,0,0,0,147.461,7.5h-7.854a7.643,7.643,0,0,0-7.643,7.643V26.362a4.006,4.006,0,0,1,1.7-.375Z" transform="translate(-131.963 -7.5)" fill="#e9b665"/>
              </g>
              <g id="Grupo_1215841" data-name="Grupo 1215841" transform="translate(0 12.043)">
                <g id="Grupo_1215840" data-name="Grupo 1215840">
                  <g id="Grupo_1215827" data-name="Grupo 1215827" transform="translate(9.231 21.797)">
                    <path id="Trazado_1161447" data-name="Trazado 1161447" d="M196.966,275.045h-6.488a8.6,8.6,0,0,1-5.393-1.9v2.736l8.3,15.834a.382.382,0,0,0,.677,0l8.3-15.834v-2.736A8.6,8.6,0,0,1,196.966,275.045Z" transform="translate(-185.085 -273.149)" fill="#fff"/>
                  </g>
                  <g id="Grupo_1215828" data-name="Grupo 1215828" transform="translate(14.873 30.275)">
                    <path id="Trazado_1161448" data-name="Trazado 1161448" d="M229.376,344.722l2.657,5.069a.382.382,0,0,0,.677,0l2.657-5.069-1.721-5.024H231.1Z" transform="translate(-229.376 -339.698)" fill="#fd6930"/>
                  </g>
                  <g id="Grupo_1215830" data-name="Grupo 1215830" transform="translate(16.567 30.275)">
                    <g id="Grupo_1215829" data-name="Grupo 1215829">
                      <path id="Trazado_1161449" data-name="Trazado 1161449" d="M245.273,347.97l1.7-3.248-1.721-5.024h-2.548l-.026.077Z" transform="translate(-242.68 -339.698)" fill="#fd5426"/>
                    </g>
                  </g>
                  <g id="Grupo_1215832" data-name="Grupo 1215832" transform="translate(13.97 24.677)">
                    <g id="Grupo_1215831" data-name="Grupo 1215831">
                      <path id="Trazado_1161450" data-name="Trazado 1161450" d="M226.626,295.9a.764.764,0,0,0-.883,0l-3.457,2.444,2.624,3.014h2.548l2.624-3.014Z" transform="translate(-222.287 -295.755)" fill="#fe7d43"/>
                    </g>
                  </g>
                  <g id="Grupo_1215833" data-name="Grupo 1215833" transform="translate(16.106 24.677)">
                    <path id="Trazado_1161451" data-name="Trazado 1161451" d="M241.259,295.9a.764.764,0,0,0-.563-.131.813.813,0,0,0-.341.146l-1.3.919,1.39.983a1.274,1.274,0,0,1,.225,1.877l-1.288,1.479.161.185h2.548l2.624-3.013Z" transform="translate(-239.056 -295.755)" fill="#fd6930"/>
                  </g>
                  <g id="Grupo_1215834" data-name="Grupo 1215834" transform="translate(9.231 21.797)">
                    <path id="Trazado_1161452" data-name="Trazado 1161452" d="M196.966,275.045h-6.488a8.6,8.6,0,0,1-5.393-1.9v2.736l2.384,4.549,5.885-4.161a.637.637,0,0,1,.735,0l5.885,4.161,2.384-4.549v-2.736A8.6,8.6,0,0,1,196.966,275.045Z" transform="translate(-185.085 -273.149)" fill="#f9f3f1"/>
                  </g>
                  <g id="Grupo_1215837" data-name="Grupo 1215837" transform="translate(0 6.316)">
                    <g id="Grupo_1215835" data-name="Grupo 1215835">
                      <path id="Trazado_1161453" data-name="Trazado 1161453" d="M118.618,151.622h-1.834a4.159,4.159,0,0,0,0,8.318h1.834Z" transform="translate(-112.625 -151.622)" fill="#ffb09e"/>
                    </g>
                    <g id="Grupo_1215836" data-name="Grupo 1215836" transform="translate(29.742)">
                      <path id="Trazado_1161454" data-name="Trazado 1161454" d="M347.937,151.622H346.1v8.318h1.834a4.159,4.159,0,0,0,0-8.318Z" transform="translate(-346.103 -151.622)" fill="#f89580"/>
                    </g>
                  </g>
                  <g id="Grupo_1215838" data-name="Grupo 1215838" transform="translate(5.853 0)">
                    <path id="Trazado_1161455" data-name="Trazado 1161455" d="M158.572,106.026v11.065a8.771,8.771,0,0,0,8.771,8.771h6.488a8.771,8.771,0,0,0,8.771-8.771V106.026a3.985,3.985,0,0,0-3.985-3.985H162.557A3.985,3.985,0,0,0,158.572,106.026Z" transform="translate(-158.572 -102.041)" fill="#ffcebf"/>
                  </g>
                  <g id="Grupo_1215839" data-name="Grupo 1215839" transform="translate(18.386)">
                    <path id="Trazado_1161456" data-name="Trazado 1161456" d="M264.465,102.041H261.38a4.015,4.015,0,0,1,3.184,3.928v11.145a8.835,8.835,0,0,1-7.609,8.748h2.726a8.771,8.771,0,0,0,8.771-8.771V106.026a3.985,3.985,0,0,0-3.985-3.985Z" transform="translate(-256.954 -102.041)" fill="#ffb09e"/>
                  </g>
                </g>
              </g>
            </g>
            <g id="Grupo_1215856" data-name="Grupo 1215856" transform="translate(42.325 34.634)">
              <g id="Grupo_1215843" data-name="Grupo 1215843" transform="translate(3.544 16.545)">
                <path id="Trazado_1161457" data-name="Trazado 1161457" d="M406.894,409.384h-7.616a4.105,4.105,0,0,1-.681-.058v12.059h7.418a1.911,1.911,0,0,0,1.911-1.911V409.252A4.091,4.091,0,0,1,406.894,409.384Z" transform="translate(-398.598 -409.252)" fill="#0573ce"/>
              </g>
              <g id="Grupo_1215845" data-name="Grupo 1215845" transform="translate(6.937 16.545)">
                <g id="Grupo_1215844" data-name="Grupo 1215844">
                  <path id="Trazado_1161458" data-name="Trazado 1161458" d="M430.134,409.384h-2.993v10.091a1.911,1.911,0,0,1-1.911,1.911h4.025a1.911,1.911,0,0,0,1.911-1.911V409.252A4.09,4.09,0,0,1,430.134,409.384Z" transform="translate(-425.23 -409.252)" fill="#0067c5"/>
                </g>
              </g>
              <g id="Grupo_1215855" data-name="Grupo 1215855">
                <g id="Grupo_1215846" data-name="Grupo 1215846" transform="translate(12.313 2.117)">
                  <path id="Trazado_1161459" data-name="Trazado 1161459" d="M469.307,296a1.876,1.876,0,0,0-1.876,1.876v2.691a1.876,1.876,0,1,0,3.752,0v-2.691A1.876,1.876,0,0,0,469.307,296Z" transform="translate(-467.431 -295.998)" fill="#ffb09e"/>
                </g>
                <g id="Grupo_1215847" data-name="Grupo 1215847" transform="translate(13.241 2.117)">
                  <path id="Trazado_1161460" data-name="Trazado 1161460" d="M475.663,296a1.865,1.865,0,0,0-.948.259,1.874,1.874,0,0,1,.928,1.617v2.691a1.873,1.873,0,0,1-.928,1.617,1.873,1.873,0,0,0,2.824-1.617v-2.691A1.876,1.876,0,0,0,475.663,296Z" transform="translate(-474.715 -295.998)" fill="#f89580"/>
                </g>
                <g id="Grupo_1215848" data-name="Grupo 1215848" transform="translate(8.56)">
                  <path id="Trazado_1161461" data-name="Trazado 1161461" d="M437.974,281.253v4.808a1.876,1.876,0,1,0,3.752,0v-4.808a1.876,1.876,0,0,0-3.752,0Z" transform="translate(-437.974 -279.377)" fill="#ffb09e"/>
                </g>
                <g id="Grupo_1215849" data-name="Grupo 1215849" transform="translate(8.56)">
                  <path id="Trazado_1161462" data-name="Trazado 1161462" d="M437.974,281.253v4.808a1.876,1.876,0,1,0,3.752,0v-4.808a1.876,1.876,0,0,0-3.752,0Z" transform="translate(-437.974 -279.377)" fill="#ffb09e"/>
                </g>
                <g id="Grupo_1215850" data-name="Grupo 1215850" transform="translate(9.488)">
                  <path id="Trazado_1161463" data-name="Trazado 1161463" d="M446.206,279.377a1.865,1.865,0,0,0-.948.259,1.874,1.874,0,0,1,.928,1.617v4.808a1.873,1.873,0,0,1-.928,1.617,1.873,1.873,0,0,0,2.824-1.617v-4.808A1.876,1.876,0,0,0,446.206,279.377Z" transform="translate(-445.258 -279.377)" fill="#f89580"/>
                </g>
                <g id="Grupo_1215851" data-name="Grupo 1215851" transform="translate(4.808)">
                  <path id="Trazado_1161464" data-name="Trazado 1161464" d="M410.394,279.377a1.876,1.876,0,0,0-1.876,1.876V287.4h1.824a1.838,1.838,0,0,1,.992.288,1.874,1.874,0,0,0,.936-1.622v-4.808A1.876,1.876,0,0,0,410.394,279.377Z" transform="translate(-408.518 -279.377)" fill="#ffb09e"/>
                </g>
                <g id="Grupo_1215852" data-name="Grupo 1215852" transform="translate(5.736)">
                  <path id="Trazado_1161465" data-name="Trazado 1161465" d="M416.751,279.377a1.864,1.864,0,0,0-.948.259,1.874,1.874,0,0,1,.928,1.617v4.808a1.866,1.866,0,0,1-.559,1.334h.527a1.838,1.838,0,0,1,.992.288,1.874,1.874,0,0,0,.936-1.622v-4.808A1.877,1.877,0,0,0,416.751,279.377Z" transform="translate(-415.803 -279.377)" fill="#f89580"/>
                </g>
                <g id="Grupo_1215854" data-name="Grupo 1215854" transform="translate(0 7.891)">
                  <g id="Grupo_1215853" data-name="Grupo 1215853">
                    <path id="Trazado_1161466" data-name="Trazado 1161466" d="M377.406,341.319h-4.619a2.013,2.013,0,0,0-2.013,2.013v2.675a4.224,4.224,0,0,0,4.146,4.223v-4.522a.637.637,0,0,1,.637-.637h1.9a1.876,1.876,0,0,0,1.874-1.967A1.91,1.91,0,0,0,377.406,341.319Z" transform="translate(-370.774 -341.319)" fill="#ffdfcf"/>
                  </g>
                </g>
              </g>
            </g>
          </g>
        </g>
        <g id="Grupo_1215861" data-name="Grupo 1215861" transform="translate(0 53.185)">
          <g id="Grupo_1215859" data-name="Grupo 1215859">
            <path id="Trazado_1161467" data-name="Trazado 1161467" d="M41.737,435.127H15.75a.637.637,0,0,1-.637-.637v-8.853A.637.637,0,0,1,15.75,425H41.737a.637.637,0,0,1,.637.637v8.853A.637.637,0,0,1,41.737,435.127Z" transform="translate(-15.113 -425)" fill="#f3eae6"/>
          </g>
          <g id="Grupo_1215860" data-name="Grupo 1215860" transform="translate(22.151)">
            <path id="Trazado_1161468" data-name="Trazado 1161468" d="M193.473,425H189a.637.637,0,0,1,.637.637v8.853a.637.637,0,0,1-.637.637h4.473a.637.637,0,0,0,.637-.637v-8.853A.637.637,0,0,0,193.473,425Z" transform="translate(-189 -425)" fill="#efe2dd"/>
          </g>
        </g>
      </g>
      <g id="Grupo_1215863" data-name="Grupo 1215863" transform="translate(7.613 0)">
        <path id="Trazado_1161469" data-name="Trazado 1161469" d="M229.079,165.89a3.036,3.036,0,0,0,3.033,3.033.955.955,0,1,0,0-1.911,1.122,1.122,0,0,1-.241-2.218,1.506,1.506,0,0,0,1.2-1.478v-1.046a.955.955,0,1,0-1.911,0v.742A3.053,3.053,0,0,0,229.079,165.89Z" transform="translate(-200.867 -140.764)"/>
        <path id="Trazado_1161470" data-name="Trazado 1161470" d="M204.966,151.867a.955.955,0,0,0-.955.955V154.7a.955.955,0,1,0,1.911,0v-1.878A.955.955,0,0,0,204.966,151.867Z" transform="translate(-178.992 -132.521)"/>
        <path id="Trazado_1161471" data-name="Trazado 1161471" d="M287.718,151.867a.955.955,0,0,0-.955.955V154.7a.955.955,0,0,0,1.911,0v-1.878A.955.955,0,0,0,287.718,151.867Z" transform="translate(-251.203 -132.521)"/>
        <path id="Trazado_1161472" data-name="Trazado 1161472" d="M184.966,122.685h5.1a.955.955,0,0,0,.955-.955v-1.274a.955.955,0,0,0-1.911,0v.318h-4.14a.955.955,0,0,0,0,1.911Z" transform="translate(-161.54 -104.277)"/>
        <path id="Trazado_1161473" data-name="Trazado 1161473" d="M267.718,122.685h5.1a.955.955,0,1,0,0-1.911h-4.14v-.318a.955.955,0,0,0-1.911,0v1.274A.955.955,0,0,0,267.718,122.685Z" transform="translate(-233.75 -104.277)"/>
        <path id="Trazado_1161474" data-name="Trazado 1161474" d="M229.575,241.995h-5.732a.955.955,0,0,0,0,1.911h5.732a.955.955,0,1,0,0-1.911Z" transform="translate(-195.464 -211.168)"/>
        <path id="Trazado_1161475" data-name="Trazado 1161475" d="M68.065,36.751a2.817,2.817,0,0,0-.973.172,2.829,2.829,0,0,0-4.655-1.576,2.823,2.823,0,0,0-2.8-.559V32.577a2.832,2.832,0,0,0-5.663,0v6.362L48.451,36.87V35.408a9.708,9.708,0,0,0,3.362-6.82h.755A5.113,5.113,0,0,0,55.218,19.1V13.03a10.52,10.52,0,0,0-10.182-10.5A8.571,8.571,0,0,0,38.951,0H31.1a8.608,8.608,0,0,0-8.6,8.6v2.357a.955.955,0,1,0,1.911,0V8.6A6.7,6.7,0,0,1,31.1,1.911h7.854A6.7,6.7,0,0,1,45.639,8.6v3.445H30.829a4.946,4.946,0,0,0-4.941,4.941v1.376h-.739a5.119,5.119,0,0,0-.74.054v-3a.955.955,0,0,0-1.911,0V19.1a5.113,5.113,0,0,0,2.651,9.487H25.9a9.707,9.707,0,0,0,3.362,6.82V36.87L15.352,42.079a7.358,7.358,0,0,0-4.757,6.86v4.246H9.205a1.594,1.594,0,0,0-1.592,1.592V63.63a1.594,1.594,0,0,0,1.592,1.592H64.838A2.869,2.869,0,0,0,67.7,62.357V52.952A5.188,5.188,0,0,0,70.9,48.169V39.583A2.835,2.835,0,0,0,68.065,36.751ZM21.946,23.474a3.207,3.207,0,0,1,3.2-3.2h.739v6.407h-.739A3.207,3.207,0,0,1,21.946,23.474ZM63.391,37.466a.921.921,0,0,1,1.842,0v4.808a.921.921,0,0,1-1.842,0Zm-3.752,0a.921.921,0,0,1,1.842,0v4.808a.916.916,0,0,1-.088.388,2.942,2.942,0,0,0-.885-.137h-.869Zm-3.752-4.889a.921.921,0,1,1,1.842,0v9.948H55.887ZM39.7,42.318H38.019l-1.56-1.792,2.4-1.7,2.4,1.7Zm1.119,5.9-1.958,3.736L36.9,48.219l1.367-3.99h1.183ZM36.5,43.485l-.823,2.4-1.839-3.509,1.051-.743Zm6.324-1.85,1.051.743-1.839,3.509-.823-2.4Zm.4-2.059,0,0-2.545-1.8H42.1A9.662,9.662,0,0,0,46.54,36.7v.6l-1.768,3.374Zm9.343-12.9h-.739V20.27h.739a3.2,3.2,0,0,1,0,6.407Zm.74-13.647v5.383a5.135,5.135,0,0,0-.74-.054h-.739V16.984a4.947,4.947,0,0,0-4.278-4.895V8.6a8.543,8.543,0,0,0-.97-3.959,8.612,8.612,0,0,1,6.726,8.391ZM27.8,28.049V16.984a3.033,3.033,0,0,1,3.03-3.03H46.887a3.033,3.033,0,0,1,3.03,3.03V28.049A7.824,7.824,0,0,1,42.1,35.864H35.614A7.824,7.824,0,0,1,27.8,28.049Zm7.815,9.726H37.04l-2.546,1.8h0l-1.548,1.095L31.176,37.3v-.6A9.662,9.662,0,0,0,35.614,37.775ZM12.506,48.939a5.438,5.438,0,0,1,3.516-5.07l2.136-.8v2.919a.955.955,0,1,0,1.911,0V42.353l7.261-2.718v13.55H20.068V50.446a.955.955,0,1,0-1.911,0v2.739H12.506ZM9.524,61.751H24.565a.955.955,0,1,0,0-1.911H9.524V58.567h6.93a.955.955,0,1,0,0-1.911H9.524V55.1h25.35v8.217H9.524Zm40.863,1.561v-5.1a.955.955,0,1,0-1.911,0v5.1H36.785V54.777a1.594,1.594,0,0,0-1.592-1.592H29.24V38.92l.526-.2,1.992,3.8h0L37.673,53.81a1.337,1.337,0,0,0,2.369,0l5.915-11.285h0l1.992-3.8.526.2V53.758a.955.955,0,1,0,1.911,0V39.635l3.589,1.344v2.247a2.963,2.963,0,0,0-1.056,2.268v2.675a5.211,5.211,0,0,0,3.544,4.911V63.312Zm15.406-.955a.956.956,0,0,1-.955.955H58.375V53.349h7.341l.077,0Zm3.192-14.188a3.273,3.273,0,0,1-3.269,3.269H58.04a3.284,3.284,0,0,1-3.208-3.268V45.493a1.059,1.059,0,0,1,1.057-1.058h4.619a.959.959,0,0,1,.972.875.921.921,0,0,1-.92.966h-1.9a1.594,1.594,0,0,0-1.592,1.592v1.048a.955.955,0,1,0,1.911,0v-.729H60.56a2.845,2.845,0,0,0,2.049-.877,2.833,2.833,0,0,0,.752-2.373,2.814,2.814,0,0,0,2.828-.546,2.823,2.823,0,0,0,2.8.559Zm0-5.9h0a.921.921,0,0,1-1.842,0V39.583a.921.921,0,0,1,1.842,0v2.689Z" transform="translate(-7.613 0)"/>
      </g>
    </g>
  </g>
</svg>
