<svg xmlns="http://www.w3.org/2000/svg" xmlns:xlink="http://www.w3.org/1999/xlink" width="113" height="113" viewBox="0 0 113 113">
  <defs>
    <filter id="Trazado_982547" x="0" y="0" width="113" height="113" filterUnits="userSpaceOnUse">
      <feOffset dy="3" input="SourceAlpha"/>
      <feGaussianBlur stdDeviation="3" result="blur"/>
      <feFlood flood-opacity="0.161"/>
      <feComposite operator="in" in2="blur"/>
      <feComposite in="SourceGraphic"/>
    </filter>
  </defs>
  <g id="Grupo_1215867" data-name="Grupo 1215867" transform="translate(-900 -9474.914)">
    <g id="Grupo_1214721" data-name="Grupo 1214721" transform="translate(909 9480.914)">
      <g id="Grupo_1209935" data-name="Grupo 1209935">
        <g id="Grupo_1208705" data-name="Grupo 1208705">
          <g id="Grupo_1148633" data-name="Grupo 1148633">
            <g id="Grupo_1148525" data-name="Grupo 1148525">
              <g transform="matrix(1, 0, 0, 1, -9, -6)" filter="url(#Trazado_982547)">
                <g id="Trazado_982547-2" data-name="Trazado 982547" transform="translate(9 6)" fill="#f9e3d4">
                  <path d="M 47.5 93.5 C 41.28937149047852 93.5 35.26533508300781 92.28397369384766 29.59518623352051 89.88570404052734 C 24.11771965026855 87.56893157958984 19.19813346862793 84.25196075439453 14.97309303283691 80.02691650390625 C 10.74804019927979 75.80186462402344 7.431066513061523 70.88229370117188 5.114293098449707 65.40481567382812 C 2.716026782989502 59.73468017578125 1.5 53.71062850952148 1.5 47.5 C 1.5 41.28937149047852 2.716026782989502 35.26533508300781 5.114293098449707 29.59518623352051 C 7.431066513061523 24.11771965026855 10.74804019927979 19.19813346862793 14.97309303283691 14.97309303283691 C 19.19813346862793 10.74804019927979 24.11771965026855 7.431066513061523 29.59518623352051 5.114293098449707 C 35.26533508300781 2.716026782989502 41.28937149047852 1.5 47.5 1.5 C 53.71062850952148 1.5 59.73468017578125 2.716026782989502 65.40481567382812 5.114293098449707 C 70.88229370117188 7.431066513061523 75.80186462402344 10.74804019927979 80.02691650390625 14.97309303283691 C 84.25196075439453 19.19813346862793 87.56893157958984 24.11771965026855 89.88570404052734 29.59518623352051 C 92.28397369384766 35.26533508300781 93.5 41.28937149047852 93.5 47.5 C 93.5 53.71062850952148 92.28397369384766 59.73468017578125 89.88570404052734 65.40481567382812 C 87.56893157958984 70.88229370117188 84.25196075439453 75.80186462402344 80.02691650390625 80.02691650390625 C 75.80186462402344 84.25196075439453 70.88229370117188 87.56893157958984 65.40481567382812 89.88570404052734 C 59.73468017578125 92.28397369384766 53.71062850952148 93.5 47.5 93.5 Z" stroke="none"/>
                  <path d="M 47.5 3 C 41.49121475219727 3 35.66376876831055 4.176155090332031 30.17950439453125 6.495796203613281 C 24.88084411621094 8.736953735351562 20.12152099609375 11.94598388671875 16.03375244140625 16.03375244140625 C 11.94598388671875 20.12152099609375 8.736953735351562 24.88084411621094 6.495796203613281 30.17950439453125 C 4.176155090332031 35.66376876831055 3 41.49121475219727 3 47.5 C 3 53.50878524780273 4.176155090332031 59.33623123168945 6.495796203613281 64.82049560546875 C 8.736953735351562 70.11915588378906 11.94598388671875 74.87847900390625 16.03375244140625 78.96624755859375 C 20.12152099609375 83.05401611328125 24.88084411621094 86.26304626464844 30.17950439453125 88.50419616699219 C 35.66376876831055 90.82384490966797 41.49121475219727 92 47.5 92 C 53.50878524780273 92 59.33623123168945 90.82384490966797 64.82049560546875 88.50419616699219 C 70.11915588378906 86.26304626464844 74.87847900390625 83.05401611328125 78.96624755859375 78.96624755859375 C 83.05401611328125 74.87847900390625 86.26304626464844 70.11915588378906 88.50419616699219 64.82049560546875 C 90.82384490966797 59.33623123168945 92 53.50878524780273 92 47.5 C 92 41.49121475219727 90.82384490966797 35.66376876831055 88.50419616699219 30.17950439453125 C 86.26304626464844 24.88084411621094 83.05401611328125 20.12152099609375 78.96624755859375 16.03375244140625 C 74.87847900390625 11.94598388671875 70.11915588378906 8.736953735351562 64.82049560546875 6.495796203613281 C 59.33623123168945 4.176155090332031 53.50878524780273 3 47.5 3 M 47.5 0 C 73.7335205078125 0 95 21.2664794921875 95 47.5 C 95 73.7335205078125 73.7335205078125 95 47.5 95 C 21.2664794921875 95 0 73.7335205078125 0 47.5 C 0 21.2664794921875 21.2664794921875 0 47.5 0 Z" stroke="none" fill="#eca675"/>
                </g>
              </g>
            </g>
          </g>
        </g>
      </g>
    </g>
    <g id="juez_1_" data-name="juez (1)" transform="translate(896.81 9495.942)">
      <g id="Grupo_1215866" data-name="Grupo 1215866" transform="translate(29.14 0.944)">
        <path id="Trazado_1161476" data-name="Trazado 1161476" d="M224.96,28.378a1.3,1.3,0,0,1-.443-1.5,4.4,4.4,0,0,0-.661-4.238,1.3,1.3,0,0,1,0-1.608,4.4,4.4,0,0,0-.872-6.262,9.536,9.536,0,0,1-2.447-2.723c-1.768-2.955-5.174-6.133-11.209-3.805a2.509,2.509,0,0,1-1.8,0l-.045-.017h-.8l-3.621,2.892-2.442,3.2-2.22,2.7,1.887,5.625v4.746L196.9,29.671l-.666,3.837.571,2.474,2.038,1.088a5.933,5.933,0,0,0,1.683-2.381l15.731-.17a5.869,5.869,0,0,0,5.114,3.939,5.6,5.6,0,0,0,3.586-10.079Z" transform="translate(-175.87 -7.439)" fill="#ccc6ce"/>
        <path id="Trazado_1161477" data-name="Trazado 1161477" d="M199.69,293.718l-7.626-2.953-1.657.541-5.4,3.533h-7.8l-5.124-4.1h-1.662l-1.189.465-1.529.829-2.135,3.022-.211,1.038v8.648l-.176.01.5,3.756,5.932,9.343h25.192l.856-1.268V301.55l4.316-4.9v-1.417a7.456,7.456,0,0,0-2.29-1.515Z" transform="translate(-148.755 -254.803)" fill="#7b6c79"/>
        <path id="Trazado_1161478" data-name="Trazado 1161478" d="M137.169,294.4l-6.431,2.512a7.618,7.618,0,0,0-2.279,1.528v1.134l4.222,5.106.355,2.655.47-.139v-7.056C133.5,297.676,135.542,295.638,137.169,294.4Z" transform="translate(-116.69 -258)" fill="#665e68"/>
        <g id="Grupo_1215865" data-name="Grupo 1215865" transform="translate(14.105 0)">
          <path id="Trazado_1161479" data-name="Trazado 1161479" d="M153.837,32.861a5.593,5.593,0,0,1,2.239-4.48,1.3,1.3,0,0,0,.443-1.5,4.4,4.4,0,0,1,.661-4.238,1.3,1.3,0,0,0,0-1.608,4.4,4.4,0,0,1,.872-6.262,9.536,9.536,0,0,0,2.447-2.723,9.784,9.784,0,0,1,3.879-3.822c-6.007-2.294-9.4.874-11.164,3.822a9.541,9.541,0,0,1-2.447,2.723,4.4,4.4,0,0,0-.872,6.262,1.3,1.3,0,0,1,0,1.608,4.4,4.4,0,0,0-.66,4.241,1.3,1.3,0,0,1-.444,1.5,5.614,5.614,0,0,0-1.916,2.609l.522.555h2.759v5.867l.8.923a5.639,5.639,0,0,0,1.416.124,5.55,5.55,0,0,0,3.369-1.387A5.589,5.589,0,0,1,153.837,32.861Z" transform="translate(-146.874 -7.443)" fill="#b7aeb8"/>
        </g>
        <path id="Trazado_1161480" data-name="Trazado 1161480" d="M295,243.457a.916.916,0,0,1-.585-.852l0-3.752a8.975,8.975,0,0,1-4.93,1.47c-.165,0-.328-.005-.489-.013v7.39h3.732L295,245l.107-1.494Z" transform="translate(-256.855 -209.497)" fill="#ffcebe"/>
        <path id="Trazado_1161481" data-name="Trazado 1161481" d="M252.017,240.229a9.45,9.45,0,0,1-5.06-1.481v3.76a.843.843,0,0,1-.39.741l-.322.126v.831l2.071,3.4h3.7v-7.38Z" transform="translate(-219.534 -209.405)" fill="#ffb1a0"/>
        <path id="Trazado_1161482" data-name="Trazado 1161482" d="M113.307,329.553l-3.247-3.319c-.177.168-.35.347-.518.536l-.44.434v5.969l-1.715,1.794v4.53l.785.633h5.645l1.4-.633v-5.251a6.712,6.712,0,0,0-1.914-4.693Z" transform="translate(-98.292 -285.792)" fill="#544e55"/>
        <path id="Trazado_1161483" data-name="Trazado 1161483" d="M420.672,348.761a1.65,1.65,0,0,0,1.65-1.65v-14.8a8.615,8.615,0,0,0-2.662-6.167l-3.258,3.331a6.711,6.711,0,0,0-1.914,4.693v14.594Z" transform="translate(-366.434 -285.713)" fill="#665e68"/>
        <path id="Trazado_1161484" data-name="Trazado 1161484" d="M94.709,270.123V254.437H90.4v15.686a2.155,2.155,0,1,0,4.31,0Z" transform="translate(-83.459 -223.103)" fill="#bd7b62"/>
        <path id="Trazado_1161485" data-name="Trazado 1161485" d="M125.632,430.784h-7.157l-.541.125-1.032.814-.5,1.3v3.522h11.857v-3.132a2.629,2.629,0,0,0-2.629-2.629Z" transform="translate(-106.166 -377.079)" fill="#bd7b62"/>
        <path id="Trazado_1161486" data-name="Trazado 1161486" d="M65.9,430.784H58a2.629,2.629,0,0,0-2.629,2.629v3.132h7.906v-3.132A2.629,2.629,0,0,1,65.9,430.784Z" transform="translate(-52.872 -377.079)" fill="#ad6a50"/>
        <path id="Trazado_1161487" data-name="Trazado 1161487" d="M283.5,352.917l-4.62-15.155-2.843-.286L273.841,355a21.944,21.944,0,0,0,2.528.148,18.588,18.588,0,0,0,6.646-1.217A.816.816,0,0,0,283.5,352.917Z" transform="translate(-243.63 -295.608)" fill="#dbedff"/>
        <path id="Trazado_1161488" data-name="Trazado 1161488" d="M238.071,337.764,233.457,352.9a.821.821,0,0,0,.5,1.023,19.92,19.92,0,0,0,3.432.915l1.88-1.632,1.643-14.894-.56-.83Z" transform="translate(-208.334 -295.614)" fill="#b5dcff"/>
        <path id="Trazado_1161489" data-name="Trazado 1161489" d="M295.824,302.878l-1.5-.832a8.846,8.846,0,0,1-3.618.767c-.043,0-.084,0-.127,0l-.17.226v4.186l.17.147.1,0a6.893,6.893,0,0,0,5.781-3.178Z" transform="translate(-258.093 -264.673)" fill="#b5dcff"/>
        <path id="Trazado_1161490" data-name="Trazado 1161490" d="M251.272,302.828a9.715,9.715,0,0,1-3.711-.761l-1.4.618-.773,1.548a6.954,6.954,0,0,0,5.88,3.155Z" transform="translate(-218.79 -264.691)" fill="#8bcaff"/>
        <path id="Trazado_1161491" data-name="Trazado 1161491" d="M206.5,277.188l3.412,3.412a1.252,1.252,0,0,0,1.77,0l1.736-1.736a1.252,1.252,0,0,0,0-1.77l-1.875-1.875Z" transform="translate(-184.83 -241.249)" fill="#938493"/>
        <path id="Trazado_1161492" data-name="Trazado 1161492" d="M321.953,280.84a1.252,1.252,0,0,0,1.77,0l3.389-3.389-5.054-1.957-1.841,1.841a1.252,1.252,0,0,0,0,1.77Z" transform="translate(-283.802 -241.489)" fill="#938493"/>
        <path id="Trazado_1161493" data-name="Trazado 1161493" d="M58.98,470.46H36.99a1.3,1.3,0,0,0-1.3,1.3v1.708a1.3,1.3,0,0,0,1.3,1.3H58.98a1.3,1.3,0,0,0,1.3-1.3v-1.708A1.3,1.3,0,0,0,58.98,470.46Z" transform="translate(-35.689 -411.722)" fill="#ffe559"/>
        <path id="Trazado_1161494" data-name="Trazado 1161494" d="M35.965,197.42l.571.365h4.012v-4.139l-.739-.587H36.981a1.292,1.292,0,0,0-1.292,1.292v2.455Z" transform="translate(-35.689 -169.512)" fill="#fbc700"/>
        <path id="Trazado_1161495" data-name="Trazado 1161495" d="M36.981,220.386a1.292,1.292,0,0,1-1.292-1.292v4.6a1.292,1.292,0,0,0,1.292,1.292h2.827l.739-.357v-4.6l-.739.357Z" transform="translate(-35.689 -192.244)" fill="#eab900"/>
        <path id="Trazado_1161496" data-name="Trazado 1161496" d="M144.78,197.784h3.483l.6-.418.266-.516v-2.5a1.292,1.292,0,0,0-1.292-1.292h-2.827l-.232.217v4.509Z" transform="translate(-130.941 -169.511)" fill="#fbc700"/>
        <path id="Trazado_1161497" data-name="Trazado 1161497" d="M147.84,220.386h-2.827l-.232-.326v4.6l.232.326h2.827a1.292,1.292,0,0,0,1.292-1.292v-4.6A1.292,1.292,0,0,1,147.84,220.386Z" transform="translate(-130.942 -192.244)" fill="#eab900"/>
        <path id="Trazado_1161498" data-name="Trazado 1161498" d="M68.163,193.058h9.952v4.726H68.163Z" transform="translate(-64.043 -169.511)" fill="#ffe559"/>
        <path id="Trazado_1161499" data-name="Trazado 1161499" d="M68.163,229.281h9.952v4.6H68.163Z" transform="translate(-64.043 -201.139)" fill="#ffd500"/>
        <path id="Trazado_1161500" data-name="Trazado 1161500" d="M277.358,102.822a13.35,13.35,0,0,1-6.719-1.78,4.018,4.018,0,0,0-3.924,0c-.338.189-.715.382-1.123.567l-.354.687v11.988l2.188,3.52,3.29,1.8.476.14.509.036a9.155,9.155,0,0,0,6.069-8.586V103.22A.4.4,0,0,0,277.358,102.822Z" transform="translate(-236.118 -88.719)" fill="#ffdecf"/>
        <path id="Trazado_1161501" data-name="Trazado 1161501" d="M225.742,118.672v-9.653a12.869,12.869,0,0,1-5.727,1.213.4.4,0,0,0-.417.4v8.042a9.04,9.04,0,0,0,9.279,9.03,8.846,8.846,0,0,0,2.974-.512A8.97,8.97,0,0,1,225.742,118.672Z" transform="translate(-196.268 -96.133)" fill="#ffcebe"/>
        <path id="Trazado_1161502" data-name="Trazado 1161502" d="M112.416,470.46H97.954l-.315.068-.523.492-.227.492v2.283l.393.658.448.242.338.075h14.348a1.3,1.3,0,0,0,1.3-1.3v-1.708A1.3,1.3,0,0,0,112.416,470.46Z" transform="translate(-89.125 -411.722)" fill="#ffe559"/>
        <path id="Trazado_1161503" data-name="Trazado 1161503" d="M43.595,473.469v-1.708a1.3,1.3,0,0,1,1.3-1.3H36.99a1.3,1.3,0,0,0-1.3,1.3v1.708a1.3,1.3,0,0,0,1.3,1.3H44.9A1.3,1.3,0,0,1,43.595,473.469Z" transform="translate(-35.689 -411.722)" fill="#ffd500"/>
      </g>
      <path id="Trazado_1161504" data-name="Trazado 1161504" d="M30.441,64.943h29.2a.951.951,0,0,0,0-1.9h-4.98c0-.026.006-.054.009-.08s.005-.04.007-.061c.006-.069.011-.138.011-.208V60.983a2.244,2.244,0,0,0-.1-.669c-.014-.045-.032-.089-.049-.133a21.672,21.672,0,0,0,7.345,1.255H61.9a19.507,19.507,0,0,0,6.962-1.279,1.765,1.765,0,0,0,1.051-2.188L65.533,43.6a7.915,7.915,0,0,0,2.335-2.006,2.184,2.184,0,0,0,1.866-.621l2.951-2.951,7.038,2.726a6.066,6.066,0,0,1,1.241.7L78.428,44.04A7.621,7.621,0,0,0,76.242,49.4v3.031a.951.951,0,0,0,1.9,0V49.4a5.728,5.728,0,0,1,1.643-4.028l2.555-2.611a7.568,7.568,0,0,1,1.734,4.782v14.8a.7.7,0,0,1-.7.7H78.145V56.869a.951.951,0,1,0-1.9,0V63.04H64.077a.951.951,0,0,0,0,1.9h19.3a2.6,2.6,0,0,0,2.6-2.6v-14.8a9.384,9.384,0,0,0-5.542-8.561l-.019-.007L67.647,34.026l0-2.511a10.194,10.194,0,0,0,1.746-1.65,6.794,6.794,0,0,0,5.217,3.047A6.554,6.554,0,0,0,78.8,21.122h0a.349.349,0,0,1-.123-.407,5.356,5.356,0,0,0-.8-5.155.347.347,0,0,1,0-.435,5.3,5.3,0,0,0,1.136-3.3,5.37,5.37,0,0,0-2.2-4.321,8.565,8.565,0,0,1-2.191-2.443c-2.813-4.7-7.206-6.2-12.368-4.2a1.551,1.551,0,0,1-1.119,0c-5.162-1.991-9.555-.5-12.368,4.2a8.568,8.568,0,0,1-2.192,2.444,5.369,5.369,0,0,0-2.2,4.321,5.3,5.3,0,0,0,1.136,3.3.347.347,0,0,1,0,.435,5.355,5.355,0,0,0-.8,5.159.347.347,0,0,1-.124.4,6.541,6.541,0,0,0-1.978,2.418H30.433a2.246,2.246,0,0,0-2.244,2.244v6.606a2.246,2.246,0,0,0,2.244,2.244h4.7V47.964a3.111,3.111,0,0,0,2.155,2.957V53.7H34.266a3.585,3.585,0,0,0-3.581,3.581V58.73h-.244a2.255,2.255,0,0,0-2.252,2.252v1.708a2.255,2.255,0,0,0,2.252,2.252Zm22.914-7a1.761,1.761,0,0,0-.029.97,2.236,2.236,0,0,0-.895-.187h-.244V57.278A3.585,3.585,0,0,0,48.607,53.7H47.021V49.4a7.62,7.62,0,0,0-2.185-5.358l-2.528-2.584a6,6,0,0,1,1.234-.713L50.576,38l2.972,2.972a2.19,2.19,0,0,0,1.818.627A7.667,7.667,0,0,0,57.728,43.6ZM45.119,49.4v4.3H39.187V50.921a3.116,3.116,0,0,0,2.155-2.957h0V43.189l2.134,2.181A5.727,5.727,0,0,1,45.119,49.4ZM52.511,37.24l3.107-1.213,1.436,1.436a.3.3,0,0,1,0,.425l-1.736,1.736a.3.3,0,0,1-.424,0ZM68.065,58.425a17.614,17.614,0,0,1-3.1.842l-.508-4.1a.951.951,0,1,0-1.888.234l.507,4.1q-.582.038-1.169.038h-.02q-.848,0-1.677-.068l.5-4.066a.951.951,0,0,0-1.888-.234l-.5,4.058a18.972,18.972,0,0,1-3.11-.822l4.3-14.094a8.737,8.737,0,0,0,2.219.286h.015a7.749,7.749,0,0,0,2.029-.273ZM61.73,42.691h-.007a6.105,6.105,0,0,1-4.7-2.08l1.166-1.166a10.812,10.812,0,0,0,3.563.59h.012a9.742,9.742,0,0,0,3.34-.586l1.133,1.132a5.911,5.911,0,0,1-4.5,2.109Zm-4.465-7.709a1.83,1.83,0,0,0,.249-.936V32.61a10.5,10.5,0,0,0,8.228.024v1.421A1.869,1.869,0,0,0,66,35l-1.118,1.118a2.2,2.2,0,0,0-.641,1.618,7.756,7.756,0,0,1-2.49.4,8.982,8.982,0,0,1-2.71-.41,2.2,2.2,0,0,0-.642-1.607Zm13.479,2.283-2.356,2.356a.3.3,0,0,1-.424,0h0l-1.735-1.735h0a.3.3,0,0,1,0-.424l1.4-1.4Zm-.9-13.85a8.21,8.21,0,0,1-16.42.067V16A14.433,14.433,0,0,0,60.2,14.093a3.043,3.043,0,0,1,2.869-.061A14.831,14.831,0,0,0,69.842,16Zm-24.109-.773a2.241,2.241,0,0,0,.764-2.587,3.453,3.453,0,0,1,.517-3.323,2.251,2.251,0,0,0,0-2.782,3.411,3.411,0,0,1-.731-2.123A3.46,3.46,0,0,1,47.7,9.044a10.541,10.541,0,0,0,2.7-3C52.75,2.115,56.132.97,60.451,2.635a3.451,3.451,0,0,0,2.488,0c4.32-1.666,7.7-.52,10.05,3.406a10.537,10.537,0,0,0,2.7,3,3.46,3.46,0,0,1,1.416,2.784,3.41,3.41,0,0,1-.731,2.123,2.251,2.251,0,0,0,0,2.782,3.452,3.452,0,0,1,.518,3.32,2.244,2.244,0,0,0,.764,2.589,4.651,4.651,0,0,1-2.977,8.368,4.881,4.881,0,0,1-4.1-2.907,10.033,10.033,0,0,0,1.163-4.687c0-8.8,0-7.912,0-8.015a1.345,1.345,0,0,0-1.376-1.3,12.423,12.423,0,0,1-6.242-1.66,4.936,4.936,0,0,0-4.852,0c-.153.085-.317.172-.487.26a12.159,12.159,0,0,1-5.874,1.4,1.35,1.35,0,0,0-1.392,1.355v8.036a9.984,9.984,0,0,0,1.216,4.778,4.914,4.914,0,0,1-4.025,2.75q-.214.008-.428,0V25.783a2.246,2.246,0,0,0-2.244-2.244h-1.21a4.673,4.673,0,0,1,.9-.9Zm-1.57,2.8h1.876a.341.341,0,0,1,.341.341v6.606a.341.341,0,0,1-.341.341H44.163Zm1.876,9.19a2.246,2.246,0,0,0,2.181-1.726c.188.009.376.013.564.005a6.732,6.732,0,0,0,5.142-2.933,9.556,9.556,0,0,0,1.686,1.55v2.457l-12.77,4.987-.016.006a7.738,7.738,0,0,0-1.484.824V34.633Zm-13.73-1.9H30.433a.341.341,0,0,1-.341-.341V25.783a.341.341,0,0,1,.341-.341h1.876Zm1.9,0V25.443H42.26V32.73Zm2.821,15.234V34.633h2.407v7.289h0v6.041a1.2,1.2,0,1,1-2.407,0Zm-4.444,9.314A1.68,1.68,0,0,1,34.266,55.6H48.607a1.68,1.68,0,0,1,1.678,1.678V58.73h-17.7Zm-2.5,3.7a.35.35,0,0,1,.349-.349h21.99a.35.35,0,0,1,.349.349v1.708a.35.35,0,0,1-.349.349H30.441a.35.35,0,0,1-.349-.349V60.982Z" transform="translate(0 0)"/>
    </g>
  </g>
</svg>
