<svg xmlns="http://www.w3.org/2000/svg" xmlns:xlink="http://www.w3.org/1999/xlink" width="113" height="113" viewBox="0 0 113 113">
  <defs>
    <filter id="Trazado_982547" x="0" y="0" width="113" height="113" filterUnits="userSpaceOnUse">
      <feOffset dy="3" input="SourceAlpha"/>
      <feGaussianBlur stdDeviation="3" result="blur"/>
      <feFlood flood-opacity="0.161"/>
      <feComposite operator="in" in2="blur"/>
      <feComposite in="SourceGraphic"/>
    </filter>
  </defs>
  <g id="Grupo_1215875" data-name="Grupo 1215875" transform="translate(-1215.499 -9474.914)">
    <g id="Grupo_1214722" data-name="Grupo 1214722" transform="translate(1224.499 9480.914)">
      <g id="Grupo_1209935" data-name="Grupo 1209935">
        <g id="Grupo_1208705" data-name="Grupo 1208705">
          <g id="Grupo_1148633" data-name="Grupo 1148633">
            <g id="Grupo_1148525" data-name="Grupo 1148525">
              <g transform="matrix(1, 0, 0, 1, -9, -6)" filter="url(#Trazado_982547)">
                <g id="Trazado_982547-2" data-name="Trazado 982547" transform="translate(9 6)" fill="#f9e3d4">
                  <path d="M 47.5 93.5 C 41.28937149047852 93.5 35.26533508300781 92.28397369384766 29.59518623352051 89.88570404052734 C 24.11771965026855 87.56893157958984 19.19813346862793 84.25196075439453 14.97309303283691 80.02691650390625 C 10.74804019927979 75.80186462402344 7.431066513061523 70.88229370117188 5.114293098449707 65.40481567382812 C 2.716026782989502 59.73468017578125 1.5 53.71062850952148 1.5 47.5 C 1.5 41.28937149047852 2.716026782989502 35.26533508300781 5.114293098449707 29.59518623352051 C 7.431066513061523 24.11771965026855 10.74804019927979 19.19813346862793 14.97309303283691 14.97309303283691 C 19.19813346862793 10.74804019927979 24.11771965026855 7.431066513061523 29.59518623352051 5.114293098449707 C 35.26533508300781 2.716026782989502 41.28937149047852 1.5 47.5 1.5 C 53.71062850952148 1.5 59.73468017578125 2.716026782989502 65.40481567382812 5.114293098449707 C 70.88229370117188 7.431066513061523 75.80186462402344 10.74804019927979 80.02691650390625 14.97309303283691 C 84.25196075439453 19.19813346862793 87.56893157958984 24.11771965026855 89.88570404052734 29.59518623352051 C 92.28397369384766 35.26533508300781 93.5 41.28937149047852 93.5 47.5 C 93.5 53.71062850952148 92.28397369384766 59.73468017578125 89.88570404052734 65.40481567382812 C 87.56893157958984 70.88229370117188 84.25196075439453 75.80186462402344 80.02691650390625 80.02691650390625 C 75.80186462402344 84.25196075439453 70.88229370117188 87.56893157958984 65.40481567382812 89.88570404052734 C 59.73468017578125 92.28397369384766 53.71062850952148 93.5 47.5 93.5 Z" stroke="none"/>
                  <path d="M 47.5 3 C 41.49121475219727 3 35.66376876831055 4.176155090332031 30.17950439453125 6.495796203613281 C 24.88084411621094 8.736953735351562 20.12152099609375 11.94598388671875 16.03375244140625 16.03375244140625 C 11.94598388671875 20.12152099609375 8.736953735351562 24.88084411621094 6.495796203613281 30.17950439453125 C 4.176155090332031 35.66376876831055 3 41.49121475219727 3 47.5 C 3 53.50878524780273 4.176155090332031 59.33623123168945 6.495796203613281 64.82049560546875 C 8.736953735351562 70.11915588378906 11.94598388671875 74.87847900390625 16.03375244140625 78.96624755859375 C 20.12152099609375 83.05401611328125 24.88084411621094 86.26304626464844 30.17950439453125 88.50419616699219 C 35.66376876831055 90.82384490966797 41.49121475219727 92 47.5 92 C 53.50878524780273 92 59.33623123168945 90.82384490966797 64.82049560546875 88.50419616699219 C 70.11915588378906 86.26304626464844 74.87847900390625 83.05401611328125 78.96624755859375 78.96624755859375 C 83.05401611328125 74.87847900390625 86.26304626464844 70.11915588378906 88.50419616699219 64.82049560546875 C 90.82384490966797 59.33623123168945 92 53.50878524780273 92 47.5 C 92 41.49121475219727 90.82384490966797 35.66376876831055 88.50419616699219 30.17950439453125 C 86.26304626464844 24.88084411621094 83.05401611328125 20.12152099609375 78.96624755859375 16.03375244140625 C 74.87847900390625 11.94598388671875 70.11915588378906 8.736953735351562 64.82049560546875 6.495796203613281 C 59.33623123168945 4.176155090332031 53.50878524780273 3 47.5 3 M 47.5 0 C 73.7335205078125 0 95 21.2664794921875 95 47.5 C 95 73.7335205078125 73.7335205078125 95 47.5 95 C 21.2664794921875 95 0 73.7335205078125 0 47.5 C 0 21.2664794921875 21.2664794921875 0 47.5 0 Z" stroke="none" fill="#eca675"/>
                </g>
              </g>
            </g>
          </g>
        </g>
      </g>
    </g>
    <g id="libertad" transform="translate(1229.285 9494.496)">
      <g id="Grupo_1215873" data-name="Grupo 1215873" transform="translate(13.22 0.963)">
        <g id="Grupo_1215870" data-name="Grupo 1215870" transform="translate(7.869)">
          <path id="Trazado_1161505" data-name="Trazado 1161505" d="M120.793,25.328a4.052,4.052,0,0,1,4.058-4.045q.119,0,.236.007c2.058.7,3.469,1.982,3.469,4.137l.061,6.739a3.833,3.833,0,0,1-3.71,4.119,4.926,4.926,0,0,1-3.852-2.2,4.025,4.025,0,0,1-.262-1.431l1.14-4.758-1.14-2.071v-.5Z" transform="translate(-115.786 -19.512)" fill="#d5877a"/>
          <path id="Trazado_1161506" data-name="Trazado 1161506" d="M128.9,25.369l1.529,2.1L128.9,32.7a4.055,4.055,0,0,1-6.919,2.861A4.127,4.127,0,0,1,120.8,32.7V25.866l3.443-.84a1.114,1.114,0,0,0,.85-1.083V21.33a4.047,4.047,0,0,1,3.814,4.039Z" transform="translate(-115.789 -19.553)" fill="#c86f5c"/>
          <path id="Trazado_1161507" data-name="Trazado 1161507" d="M161.381,75.246l.055,9.193c-.129,3.7-2.438,10.775-2.484,10.893a13.793,13.793,0,0,0-.735,5.118v23.372a.965.965,0,0,1-.965.965l-6.2.819H141.036l-4.346-.765a.965.965,0,0,1-.965-.965V100.762a7.547,7.547,0,0,0-1.826-4.979,5.783,5.783,0,0,0-1.855-1.452L131.337,75.8l15.122-6.036Z" transform="translate(-124.976 -61.764)" fill="#d5877a"/>
          <path id="Trazado_1161508" data-name="Trazado 1161508" d="M323.435,127.972c.045-.117.09-.23.135-.335a30.129,30.129,0,0,0,2.4-10.76l-.055-9.193-3.529-1.336.043,7.31a30.126,30.126,0,0,1-2.4,10.76c-.045.1-.09.217-.135.335a14.3,14.3,0,0,0-.953,5.185v24.121h3.54v-20.9a14.3,14.3,0,0,1,.953-5.185Z" transform="translate(-288.482 -93.651)" fill="#c86f5c"/>
          <g id="Grupo_1215868" data-name="Grupo 1215868" transform="translate(27.947 3.949)">
            <path id="Trazado_1161509" data-name="Trazado 1161509" d="M300.76,42.288a4.052,4.052,0,0,1,4.059-4.045q.119,0,.236.007c2.058.7,3.469,1.982,3.469,4.137l.061,6.739a3.833,3.833,0,0,1-3.71,4.119,4.926,4.926,0,0,1-3.852-2.2,4.025,4.025,0,0,1-.261-1.431l-1.383-3.661Z" transform="translate(-299.378 -38.243)" fill="#d5877a"/>
            <path id="Trazado_1161510" data-name="Trazado 1161510" d="M320.023,42.328v7.326a4.056,4.056,0,0,1-7.846,1.432,4.043,4.043,0,0,0,4.032-4.045V38.289a4.047,4.047,0,0,1,3.814,4.039Z" transform="translate(-310.533 -38.283)" fill="#c86f5c"/>
          </g>
          <g id="Grupo_1215869" data-name="Grupo 1215869" transform="translate(20.108 1.656)">
            <path id="Trazado_1161511" data-name="Trazado 1161511" d="M239.467,24.439a4.052,4.052,0,0,1,4.058-4.045q.119,0,.236.007c2.058.7,3.469,1.982,3.469,4.137l.061,9.288a3.833,3.833,0,0,1-3.71,4.119,4.926,4.926,0,0,1-3.851-2.2,4.024,4.024,0,0,1-.262-1.431l-1.114-4.5Z" transform="translate(-238.353 -20.394)" fill="#d5877a"/>
            <path id="Trazado_1161512" data-name="Trazado 1161512" d="M256.907,24.479v9.875a4.056,4.056,0,0,1-7.846,1.432,4.044,4.044,0,0,0,4.032-4.045V20.44a4.047,4.047,0,0,1,3.814,4.039Z" transform="translate(-247.685 -20.434)" fill="#c86f5c"/>
          </g>
          <path id="Trazado_1161513" data-name="Trazado 1161513" d="M183.909,11.545A4.052,4.052,0,0,1,187.967,7.5q.119,0,.236.007c2.058.7,3.469,1.982,3.469,4.137l.061,10.307a3.833,3.833,0,0,1-3.71,4.119c-1.965-.145-4.088-1.38-4.113-3.631l.892-6.847-.892-2.546v-1.5Z" transform="translate(-170.794 -7.5)" fill="#d5877a"/>
          <path id="Trazado_1161514" data-name="Trazado 1161514" d="M192.014,11.588V22.482a4.054,4.054,0,0,1-8.108,0V13.089a7.076,7.076,0,0,1,3.291,1.02.658.658,0,0,0,1-.558v-6a4.047,4.047,0,0,1,3.814,4.039Z" transform="translate(-170.792 -7.543)" fill="#c86f5c"/>
          <path id="Trazado_1161515" data-name="Trazado 1161515" d="M90.739,91.088a5.782,5.782,0,0,0-1.855-1.452,12.209,12.209,0,0,1-7.062-11.051l-.007-8.137h0a4.049,4.049,0,0,1,3.2-3.864l8.674-2.116a4.046,4.046,0,1,1,1.719,7.907l-4.7,1.227Z" transform="translate(-81.815 -57.069)" fill="#d5877a"/>
        </g>
        <g id="Grupo_1215872" data-name="Grupo 1215872" transform="translate(0 43.047)">
          <path id="Trazado_1161516" data-name="Trazado 1161516" d="M293.723,342.83l-1.574-.216h-6.73a.258.258,0,0,0-.2.1l-1.965,2.456a.257.257,0,0,0,0,.322l1.964,2.456a.257.257,0,0,0,.2.1h8.3a5.507,5.507,0,0,1,1.031.1,4.537,4.537,0,0,1,4.73,4.747c.058,2.446-2.043,5.047-4.679,4.991a4.731,4.731,0,0,1-.989.1h-10.61a.257.257,0,0,0-.2.417l1.635,2.059a.257.257,0,0,1,0,.321l-1.78,2.211a.257.257,0,0,0,.2.419h8.8l2.107-.207c3.7,0,6.335-1.979,8.179-4.893a9.435,9.435,0,0,0,1.486-5.4,10.221,10.221,0,0,0-1.626-5.443A9.348,9.348,0,0,0,293.723,342.83Z" transform="translate(-249.114 -342.614)" fill="#dae6ed"/>
          <path id="Trazado_1161517" data-name="Trazado 1161517" d="M357.97,352.912a10.405,10.405,0,0,1-10.4,10.5h-2.96a10.383,10.383,0,0,0,8.071-3.85.614.614,0,0,0-.474-1h-.977a5.668,5.668,0,0,1-2.672-.673,4.962,4.962,0,0,0-.052-9.738,5.5,5.5,0,0,1,2.647-.678h1.022a.614.614,0,0,0,.471-1.006,10.588,10.588,0,0,0-8.17-3.847h2.96a10.586,10.586,0,0,1,8.9,4.853A10.22,10.22,0,0,1,357.97,352.912Z" transform="translate(-302.871 -342.616)" fill="#c7dae5"/>
          <path id="Trazado_1161518" data-name="Trazado 1161518" d="M90.033,342.613H79.66a10.583,10.583,0,0,0-8.9,4.853c-1.011,1.575-.468,3.438-.488,5.442-.02,2.076-.567,4.014.466,5.647a10.4,10.4,0,0,0,8.793,4.853h8.144a.258.258,0,0,0,.2-.1l2.039-2.533a.258.258,0,0,0,0-.321l-1.889-2.379a.257.257,0,0,0-.2-.1h-8.2a5.5,5.5,0,0,1-1.03-.1c-2.811.254-4.9-2.371-4.955-4.744a5.039,5.039,0,0,1,4.9-4.994,4.724,4.724,0,0,1,.989-.1h10.5a.257.257,0,0,0,.2-.418l-1.706-2.135a.257.257,0,0,1,0-.321l1.707-2.135a.257.257,0,0,0-.2-.418Z" transform="translate(-63.742 -342.613)" fill="#dae6ed"/>
          <path id="Trazado_1161519" data-name="Trazado 1161519" d="M71.964,390.806a5.509,5.509,0,0,1-2.648.678H64.108a10.343,10.343,0,0,1-1.6-5.647,10.2,10.2,0,0,1,1.627-5.442h5.11a5.667,5.667,0,0,1,2.672.673,4.961,4.961,0,0,0,.053,9.738Z" transform="translate(-57.114 -375.542)" fill="#c7dae5"/>
          <g id="Grupo_1215871" data-name="Grupo 1215871" transform="translate(0 7.684)">
            <path id="Trazado_1161520" data-name="Trazado 1161520" d="M32.758,407.861H23.346a2.761,2.761,0,0,1-2.782-2.915,2.714,2.714,0,0,1,2.706-2.512h9.412a2.761,2.761,0,0,1,2.782,2.915A2.714,2.714,0,0,1,32.758,407.861Z" transform="translate(-20.557 -402.434)" fill="#dae6ed"/>
            <path id="Trazado_1161521" data-name="Trazado 1161521" d="M387.535,407.861h-9.412a2.761,2.761,0,0,1-2.782-2.915,2.714,2.714,0,0,1,2.706-2.512h9.412a2.761,2.761,0,0,1,2.782,2.915A2.714,2.714,0,0,1,387.535,407.861Z" transform="translate(-329.76 -402.434)" fill="#dae6ed"/>
          </g>
        </g>
      </g>
      <g id="Grupo_1215874" data-name="Grupo 1215874" transform="translate(12.139 0)">
        <path id="Trazado_1161522" data-name="Trazado 1161522" d="M92.627,21.085a5.036,5.036,0,0,0,3.85-1.789,5.042,5.042,0,0,0,8.491.215,5.034,5.034,0,0,0,7.107.876v3.1c0,.43-.009.854-.027,1.262a.963.963,0,0,0,.92,1.005h.043a.964.964,0,0,0,.962-.921c.019-.436.029-.89.029-1.348V16.425s0,0,0-.005V9.031a5.042,5.042,0,0,0-8.383-3.78A5.041,5.041,0,0,0,97.281,3.1a5.044,5.044,0,0,0-9.268-.09,5.088,5.088,0,0,0-8.661,3.581V9.606l-.677.166a5.038,5.038,0,0,0-3.965,4.84l0,2.122a.963.963,0,0,0,.963.962h0a.963.963,0,0,0,.962-.965l0-2.051a3.114,3.114,0,0,1,2.46-3.028l8.736-2.137a3.119,3.119,0,1,1,1.27,6.107l-4.73,1.238a.963.963,0,0,0-.694,1.153l1.029,4.377a.97.97,0,0,0,.944.743,9.494,9.494,0,0,1,5.655,1.6,9.934,9.934,0,0,1,3.592,5.2.963.963,0,0,0,1.83-.6,11.808,11.808,0,0,0-4.313-6.173,11.125,11.125,0,0,0-6-1.937l-.643-2.734,2.174-.569a5.067,5.067,0,0,0,4.684,3.167ZM108.956,5.912a3.122,3.122,0,0,1,3.119,3.119v7.394a3.119,3.119,0,0,1-6.238,0V9.031A3.122,3.122,0,0,1,108.956,5.912ZM100.792,3.6a3.122,3.122,0,0,1,3.119,3.119v9.965a3.119,3.119,0,1,1-6.238,0V6.717A3.122,3.122,0,0,1,100.792,3.6ZM81.279,9.135V6.589a3.151,3.151,0,0,1,6.3,0V7.6ZM93.413,11.5a5.08,5.08,0,0,0-3.9-3.87V5.046a3.119,3.119,0,1,1,6.238,0V16.039a3.119,3.119,0,0,1-5.913,1.387A5.053,5.053,0,0,0,93.413,11.5Z" transform="translate(-66.672 0)"/>
        <path id="Trazado_1161523" data-name="Trazado 1161523" d="M41.2,181.6a.963.963,0,0,0-.868-.546H33.134v-3.382a7.316,7.316,0,0,0-4.2-6.6l-.028-.013a11.406,11.406,0,0,1-6.521-10.27v-1.522a.963.963,0,0,0-.963-.963h0a.963.963,0,0,0-.963.964v1.522a13.34,13.34,0,0,0,7.658,12.026l.027.012a5.383,5.383,0,0,1,3.064,4.845v3.382H29.175a11.241,11.241,0,0,0-4.565.959.963.963,0,0,0,.778,1.763,9.323,9.323,0,0,1,3.787-.8h9.148l-.914,1.143a.963.963,0,0,0,0,1.2l.914,1.144H29.175a5.954,5.954,0,0,0-4.643,2.253H20.507a9.329,9.329,0,0,1,1.562-2.5.963.963,0,0,0-1.453-1.265,11.225,11.225,0,0,0-2.169,3.76H16.127a3.685,3.685,0,0,0-3.662,3.4,3.6,3.6,0,0,0,.97,2.738,3.79,3.79,0,0,0,2.768,1.206h2.243a11.46,11.46,0,0,0,3.9,5.374,11.23,11.23,0,0,0,6.835,2.3H37.56a.964.964,0,0,0,.751-.359l2.242-2.785a.964.964,0,0,0,0-1.2l-2.09-2.632a.963.963,0,0,0-.755-.364H33.134v-8h7.192a.963.963,0,0,0,.753-1.565L39.4,184.723l1.685-2.106A.963.963,0,0,0,41.2,181.6Zm-26.35,11.95a1.691,1.691,0,0,1-.46-1.285,1.751,1.751,0,0,1,1.74-1.615h9.4a1.857,1.857,0,0,1,1.356.591,1.691,1.691,0,0,1,.46,1.285,1.751,1.751,0,0,1-1.741,1.615H16.2a1.858,1.858,0,0,1-1.356-.591Zm23.721,6.435L37.1,201.808H29.175a9.483,9.483,0,0,1-8.666-5.743h4.023a5.954,5.954,0,0,0,4.643,2.253h8.071Zm-7.36-3.591H29.175a3.963,3.963,0,0,1-2.141-.622,3.684,3.684,0,0,0,2.226-3.1,3.6,3.6,0,0,0-.97-2.738,3.779,3.779,0,0,0-1.276-.9,3.963,3.963,0,0,1,2.162-.635h2.032Z" transform="translate(-12.414 -137.965)"/>
        <path id="Trazado_1161524" data-name="Trazado 1161524" d="M298.425,244.106h-2.243a11.456,11.456,0,0,0-3.895-5.374,11.232,11.232,0,0,0-6.835-2.3H283.42v-2.6a11.859,11.859,0,0,1,.951-4.663l.016-.039A31.538,31.538,0,0,0,286.282,223a.963.963,0,0,0-1.889-.378,29.627,29.627,0,0,1-1.782,5.764l-.016.04a13.767,13.767,0,0,0-1.1,5.409v2.6h-4.678a.963.963,0,0,0-.752.361l-2.167,2.708a.963.963,0,0,0,0,1.2l2.166,2.709a.964.964,0,0,0,.753.362h4.68v8h-7.3a.963.963,0,0,0-.755,1.563l1.611,2.029-1.759,2.185a.963.963,0,0,0,.751,1.567h11.407a11.231,11.231,0,0,0,6.835-2.3,11.461,11.461,0,0,0,3.9-5.374H298.5a3.685,3.685,0,0,0,3.662-3.4,3.6,3.6,0,0,0-.97-2.738,3.791,3.791,0,0,0-2.768-1.206Zm-22.543-4,1.4-1.745h8.174a9.481,9.481,0,0,1,8.666,5.743H290.1a5.954,5.954,0,0,0-4.643-2.253h-8.175Zm7.539,3.672h2.032a3.963,3.963,0,0,1,2.142.622,3.684,3.684,0,0,0-2.226,3.1,3.6,3.6,0,0,0,.97,2.738,3.779,3.779,0,0,0,1.276.9,3.962,3.962,0,0,1-2.162.634H283.42Zm2.032,13.413h-9.395l.98-1.218a.963.963,0,0,0,0-1.2l-.849-1.07h9.26a5.954,5.954,0,0,0,4.643-2.253h4.023A9.483,9.483,0,0,1,285.452,257.194Zm14.789-9.285a1.751,1.751,0,0,1-1.74,1.615h-9.4a1.857,1.857,0,0,1-1.356-.591,1.691,1.691,0,0,1-.46-1.285,1.751,1.751,0,0,1,1.741-1.615h9.4a1.857,1.857,0,0,1,1.356.591,1.691,1.691,0,0,1,.46,1.285Z" transform="translate(-239.562 -193.351)"/>
        <path id="Trazado_1161525" data-name="Trazado 1161525" d="M434.11,294.969a.96.96,0,0,0,.681-.282l3.558-3.558a.963.963,0,0,0-1.362-1.362l-3.558,3.558a.963.963,0,0,0,.681,1.645Z" transform="translate(-379.065 -252.298)"/>
        <path id="Trazado_1161526" data-name="Trazado 1161526" d="M407.5,270.62a.963.963,0,0,0,1.18-.681l.873-3.257a.963.963,0,1,0-1.861-.5l-.873,3.257A.963.963,0,0,0,407.5,270.62Z" transform="translate(-356.094 -231.367)"/>
        <path id="Trazado_1161527" data-name="Trazado 1161527" d="M459.534,338.829a.963.963,0,0,0,1.18.681l3.257-.873a.963.963,0,1,0-.5-1.861l-3.257.873A.963.963,0,0,0,459.534,338.829Z" transform="translate(-402.034 -293.486)"/>
        <path id="Trazado_1161528" data-name="Trazado 1161528" d="M39.995,294.687a.963.963,0,0,0,1.362-1.362L37.8,289.766a.963.963,0,0,0-1.362,1.362Z" transform="translate(-33.069 -252.298)"/>
        <path id="Trazado_1161529" data-name="Trazado 1161529" d="M85.25,270.653a.964.964,0,0,0,.931-1.213l-.873-3.257a.963.963,0,1,0-1.861.5l.873,3.257A.964.964,0,0,0,85.25,270.653Z" transform="translate(-74.259 -231.367)"/>
        <path id="Trazado_1161530" data-name="Trazado 1161530" d="M12.853,338.638l3.257.873a.963.963,0,0,0,.5-1.861l-3.257-.873a.963.963,0,1,0-.5,1.861Z" transform="translate(-12.139 -293.487)"/>
      </g>
    </g>
  </g>
</svg>
