<svg xmlns="http://www.w3.org/2000/svg" xmlns:xlink="http://www.w3.org/1999/xlink" width="110" height="110" viewBox="0 0 110 110">
  <defs>
    <filter id="Trazado_982547" x="0" y="0" width="110" height="110" filterUnits="userSpaceOnUse">
      <feOffset dy="3" input="SourceAlpha"/>
      <feGaussianBlur stdDeviation="3" result="blur"/>
      <feFlood flood-opacity="0.161"/>
      <feComposite operator="in" in2="blur"/>
      <feComposite in="SourceGraphic"/>
    </filter>
  </defs>
  <g id="Grupo_1215976" data-name="Grupo 1215976" transform="translate(-377 -11329.972)">
    <g id="Grupo_1214724" data-name="Grupo 1214724" transform="translate(386 11335.972)">
      <g id="Grupo_1200150" data-name="Grupo 1200150" transform="translate(0 0)">
        <g id="Grupo_1185951" data-name="Grupo 1185951" transform="translate(0 0)">
          <g id="Grupo_1184083" data-name="Grupo 1184083" transform="translate(0 0)">
            <g id="Grupo_1183743" data-name="Grupo 1183743">
              <g id="Grupo_1181545" data-name="Grupo 1181545">
                <g id="Grupo_1177562" data-name="Grupo 1177562">
                  <g id="Grupo_1173147" data-name="Grupo 1173147">
                    <g id="Grupo_1163801" data-name="Grupo 1163801">
                      <g id="Grupo_1163014" data-name="Grupo 1163014">
                        <g id="Grupo_1157015" data-name="Grupo 1157015">
                          <g id="Grupo_1155792" data-name="Grupo 1155792">
                            <g id="Grupo_1154703" data-name="Grupo 1154703">
                              <g id="Grupo_1150789" data-name="Grupo 1150789">
                                <g id="Grupo_1154212" data-name="Grupo 1154212">
                                  <g id="Grupo_1152583" data-name="Grupo 1152583">
                                    <g id="Grupo_1146973" data-name="Grupo 1146973">
                                      <g id="Grupo_1146954" data-name="Grupo 1146954">
                                        <g transform="matrix(1, 0, 0, 1, -9, -6)" filter="url(#Trazado_982547)">
                                          <g id="Trazado_982547-2" data-name="Trazado 982547" transform="translate(9 6)" fill="#f9e3d4">
                                            <path d="M 46 90.49986267089844 C 39.99187850952148 90.49986267089844 34.16426849365234 89.32350158691406 28.67905426025391 87.00344848632812 C 23.38021278381348 84.76223754882812 18.62104034423828 81.55340576171875 14.53376007080078 77.46612548828125 C 10.44646644592285 73.37884521484375 7.237653255462646 68.61968994140625 4.996426582336426 63.32084655761719 C 2.676373243331909 57.83563232421875 1.50001335144043 52.00803375244141 1.50001335144043 45.99992752075195 C 1.50001335144043 39.9918212890625 2.676373243331909 34.16422271728516 4.996426582336426 28.67900657653809 C 7.237653255462646 23.38016700744629 10.44646644592285 18.62100791931152 14.53376007080078 14.53372764587402 C 18.62104034423828 10.44644737243652 23.38021278381348 7.237634181976318 28.67905426025391 4.996420860290527 C 34.16426849365234 2.676367521286011 39.99187850952148 1.500007510185242 46 1.500007510185242 C 52.00812149047852 1.500007510185242 57.83572006225586 2.676367521286011 63.32094573974609 4.996420860290527 C 68.61978912353516 7.237634181976318 73.37895965576172 10.44646072387695 77.46623992919922 14.53372764587402 C 81.55353546142578 18.62100791931152 84.76235961914062 23.38016700744629 87.00358581542969 28.67900657653809 C 89.32363891601562 34.16422271728516 90.5 39.9918212890625 90.5 45.99992752075195 C 90.5 52.00803375244141 89.32363891601562 57.83563232421875 87.00358581542969 63.32084655761719 C 84.76235961914062 68.61968994140625 81.55353546142578 73.37884521484375 77.46623992919922 77.46612548828125 C 73.37895965576172 81.55340576171875 68.61978912353516 84.76223754882812 63.32094573974609 87.00344848632812 C 57.83572006225586 89.32350158691406 52.00812149047852 90.49986267089844 46 90.49986267089844 Z" stroke="none"/>
                                            <path d="M 46 3 C 40.1937141418457 3 34.56269836425781 4.136497497558594 29.26338577270508 6.377914428710938 C 24.14332580566406 8.543510437011719 19.54442596435547 11.64438629150391 15.59441375732422 15.59438323974609 C 11.64440155029297 19.54439544677734 8.543525695800781 24.14329528808594 6.3779296875 29.26333999633789 C 4.136497497558594 34.56265640258789 3 40.19365692138672 3 45.99992752075195 C 3 51.80619812011719 4.136497497558594 57.43719863891602 6.3779296875 62.73651123046875 C 8.543525695800781 67.85655212402344 11.64440155029297 72.45545959472656 15.59441375732422 76.40547180175781 C 19.54442596435547 80.35546875 24.14332580566406 83.45634460449219 29.26338577270508 85.62194061279297 C 34.56269836425781 87.86335754394531 40.1937141418457 88.99985504150391 46 88.99985504150391 C 51.8062858581543 88.99985504150391 57.43728637695312 87.86335754394531 62.73661422729492 85.62194061279297 C 67.85665893554688 83.45634460449219 72.45557403564453 80.35546875 76.40558624267578 76.40547180175781 C 80.35559844970703 72.45545959472656 83.45647430419922 67.85655212402344 85.6220703125 62.73651123046875 C 87.86348724365234 57.43719863891602 88.99998474121094 51.80619812011719 88.99998474121094 45.99992752075195 C 88.99998474121094 40.19365692138672 87.86348724365234 34.56265640258789 85.6220703125 29.26333999633789 C 83.45647430419922 24.14329528808594 80.35559844970703 19.54439544677734 76.40558624267578 15.59438323974609 C 72.45557403564453 11.64438629150391 67.85665893554688 8.543510437011719 62.73661422729492 6.377914428710938 C 57.43728637695312 4.136497497558594 51.8062858581543 3 46 3 M 46 0 C 71.40509033203125 0 91.99998474121094 20.59487152099609 91.99998474121094 45.99992752075195 C 91.99998474121094 71.40498352050781 71.40509033203125 91.99985504150391 46 91.99985504150391 C 20.59491729736328 91.99985504150391 0 71.40498352050781 0 45.99992752075195 C 0 20.59487152099609 20.59491729736328 0 46 0 Z" stroke="none" fill="#eca675"/>
                                          </g>
                                        </g>
                                      </g>
                                    </g>
                                  </g>
                                </g>
                              </g>
                            </g>
                          </g>
                        </g>
                      </g>
                    </g>
                  </g>
                </g>
              </g>
            </g>
          </g>
        </g>
      </g>
    </g>
    <g id="amor" transform="translate(399.999 11350.002)">
      <g id="Grupo_1215973" data-name="Grupo 1215973" transform="translate(0.938 0.936)">
        <g id="Grupo_1215962" data-name="Grupo 1215962" transform="translate(0 5.376)">
          <g id="Grupo_1215961" data-name="Grupo 1215961">
            <g id="Grupo_1215956" data-name="Grupo 1215956">
              <g id="Grupo_1215955" data-name="Grupo 1215955">
                <g id="Grupo_1215953" data-name="Grupo 1215953">
                  <path id="Trazado_1162057" data-name="Trazado 1162057" d="M23.377,85.462a3.118,3.118,0,0,0,1.253-4.228l-2.647-4.877a24.451,24.451,0,0,0,3.133-6.538,28.083,28.083,0,0,0,.934-4.645,4.892,4.892,0,0,0-1.4-4.028L14.014,50.512,7.5,57.026,19.954,67.8l-2.9,8.7,4.961,8.586a1.014,1.014,0,0,0,1.362.384Z" transform="translate(-7.5 -50.512)" fill="#a34f41"/>
                  <path id="Trazado_1162058" data-name="Trazado 1162058" d="M70.75,236.649l-.823,2.775,2.647,4.877a3.118,3.118,0,0,1-1.253,4.228,1.014,1.014,0,0,1-1.362-.384L65,239.559l1.42-4.791Z" transform="translate(-57.811 -211.736)" fill="#a34f41"/>
                  <path id="Trazado_1162059" data-name="Trazado 1162059" d="M52.15,176.766l-4.494-1.332-4.22,14.237,4.961,8.586a1.015,1.015,0,0,0,1.362.384,3.118,3.118,0,0,0,1.253-4.228l-2.647-4.877Z" transform="translate(-38.944 -159.819)" fill="#a34f41"/>
                </g>
                <g id="Grupo_1215954" data-name="Grupo 1215954" transform="translate(7.06 12.364)">
                  <path id="Trazado_1162060" data-name="Trazado 1162060" d="M68.2,166.4,64.2,159.975l-.214-4.725a3.6,3.6,0,0,1,.91-2.559l2.076-2.325,1.078-.585a2.932,2.932,0,0,1,3.975,1.178c.885,1.708-.169,5.893-2.1,7.073-.184.113-.759.412-.759.412l1.966,3.623a3.49,3.49,0,0,1-1.4,4.732A1.152,1.152,0,0,1,68.2,166.4Z" transform="translate(-63.98 -149.425)" fill="#ba5d4f"/>
                </g>
              </g>
            </g>
            <g id="Grupo_1215960" data-name="Grupo 1215960" transform="translate(43.77 12.656)">
              <g id="Grupo_1215959" data-name="Grupo 1215959">
                <g id="Grupo_1215957" data-name="Grupo 1215957">
                  <path id="Trazado_1162061" data-name="Trazado 1162061" d="M360.37,182.865a3.118,3.118,0,0,0-1.253,4.228l2.647,4.877a24.451,24.451,0,0,0-3.133,6.538,28.081,28.081,0,0,0-.934,4.645,4.892,4.892,0,0,0,1.4,4.028L369.5,217.585l6.514-6.514-12.225-10.54,2.9-8.7-4.961-8.586A1.015,1.015,0,0,0,360.37,182.865Z" transform="translate(-357.664 -178.869)" fill="#6c3328"/>
                  <path id="Trazado_1162062" data-name="Trazado 1162062" d="M387.408,180l.822-2.775-2.647-4.877a3.118,3.118,0,0,1,1.253-4.228,1.014,1.014,0,0,1,1.362.384l4.961,8.586-1.42,4.791Z" transform="translate(-381.763 -165.971)" fill="#6c3328"/>
                  <path id="Trazado_1162063" data-name="Trazado 1162063" d="M400.687,173.761l4.494,1.332,4.22-14.237-4.961-8.586a1.015,1.015,0,0,0-1.362-.384,3.118,3.118,0,0,0-1.253,4.228l2.647,4.877Z" transform="translate(-395.309 -151.763)" fill="#6c3328"/>
                </g>
                <g id="Grupo_1215958" data-name="Grupo 1215958" transform="translate(3.165 9.068)">
                  <path id="Trazado_1162064" data-name="Trazado 1162064" d="M387.115,224.847l4.008,6.421.214,4.725a3.6,3.6,0,0,1-.91,2.559l-2.076,2.325-1.078.585a2.932,2.932,0,0,1-3.975-1.178c-.885-1.708.169-5.893,2.1-7.073.184-.113.759-.412.759-.412l-1.966-3.623a3.49,3.49,0,0,1,1.4-4.732,1.152,1.152,0,0,1,1.526.4Z" transform="translate(-382.981 -224.305)" fill="#873f30"/>
                </g>
              </g>
            </g>
          </g>
        </g>
        <g id="Grupo_1215972" data-name="Grupo 1215972" transform="translate(5.376)">
          <g id="Grupo_1215971" data-name="Grupo 1215971">
            <g id="Grupo_1215966" data-name="Grupo 1215966" transform="translate(0 43.541)">
              <g id="Grupo_1215965" data-name="Grupo 1215965">
                <g id="Grupo_1215963" data-name="Grupo 1215963">
                  <path id="Trazado_1162065" data-name="Trazado 1162065" d="M85.462,358.534a3.118,3.118,0,0,0-4.228-1.253l-4.877,2.647A24.451,24.451,0,0,0,69.82,356.8a28.081,28.081,0,0,0-4.645-.934,4.892,4.892,0,0,0-4.028,1.4L50.512,367.9l6.514,6.514L67.8,361.957l8.7,2.9,8.586-4.961a1.015,1.015,0,0,0,.384-1.362Z" transform="translate(-50.512 -355.828)" fill="#ffcec0"/>
                  <path id="Trazado_1162066" data-name="Trazado 1162066" d="M236.649,385.572l2.775.823,4.877-2.647A3.118,3.118,0,0,1,248.528,385a1.014,1.014,0,0,1-.384,1.362l-8.586,4.961-4.791-1.42Z" transform="translate(-211.736 -379.927)" fill="#ffcec0"/>
                  <path id="Trazado_1162067" data-name="Trazado 1162067" d="M176.766,398.851l-1.332,4.494,14.237,4.22,8.586-4.961a1.015,1.015,0,0,0,.384-1.362,3.118,3.118,0,0,0-4.228-1.253l-4.877,2.647Z" transform="translate(-159.819 -393.473)" fill="#ffcec0"/>
                </g>
                <g id="Grupo_1215964" data-name="Grupo 1215964" transform="translate(12.364 3.165)">
                  <path id="Trazado_1162068" data-name="Trazado 1162068" d="M166.4,385.279l-6.421,4.008-4.725.214a3.6,3.6,0,0,1-2.559-.91l-2.325-2.076-.585-1.078a2.932,2.932,0,0,1,1.178-3.975c1.708-.885,5.893.169,7.073,2.1.113.184.412.759.412.759l3.623-1.966a3.49,3.49,0,0,1,4.732,1.4,1.152,1.152,0,0,1-.4,1.526Z" transform="translate(-149.425 -381.145)" fill="#ffdfd0"/>
                </g>
              </g>
            </g>
            <g id="Grupo_1215970" data-name="Grupo 1215970" transform="translate(12.656)">
              <g id="Grupo_1215969" data-name="Grupo 1215969">
                <g id="Grupo_1215967" data-name="Grupo 1215967">
                  <path id="Trazado_1162069" data-name="Trazado 1162069" d="M182.865,23.148a3.118,3.118,0,0,0,4.228,1.253l4.877-2.647a24.451,24.451,0,0,0,6.538,3.133,28.083,28.083,0,0,0,4.645.934,4.892,4.892,0,0,0,4.028-1.4l10.406-10.405L211.072,7.5l-10.54,12.225-8.7-2.9-8.586,4.961A1.015,1.015,0,0,0,182.865,23.148Z" transform="translate(-178.87 -7.5)" fill="#f9a08f"/>
                  <path id="Trazado_1162070" data-name="Trazado 1162070" d="M180,68.914l-2.775-.822-4.877,2.647a3.118,3.118,0,0,1-4.228-1.253,1.014,1.014,0,0,1,.384-1.362l8.586-4.961,4.791,1.42Z" transform="translate(-165.971 -56.204)" fill="#f9a08f"/>
                  <path id="Trazado_1162071" data-name="Trazado 1162071" d="M173.761,50.313l1.332-4.494L160.856,41.6,152.27,46.56a1.015,1.015,0,0,0-.384,1.362,3.118,3.118,0,0,0,4.228,1.253l4.877-2.647Z" transform="translate(-151.763 -37.337)" fill="#f9a08f"/>
                </g>
                <g id="Grupo_1215968" data-name="Grupo 1215968" transform="translate(9.068 6.83)">
                  <path id="Trazado_1162072" data-name="Trazado 1162072" d="M224.847,66.369l6.421-4.008,4.725-.214a3.6,3.6,0,0,1,2.559.91l2.325,2.076.585,1.078a2.932,2.932,0,0,1-1.178,3.975c-1.708.885-5.893-.169-7.073-2.1-.113-.184-.412-.759-.412-.759L229.177,69.3a3.49,3.49,0,0,1-4.732-1.4,1.151,1.151,0,0,1,.4-1.526Z" transform="translate(-224.305 -62.144)" fill="#fdb0a0"/>
                </g>
              </g>
            </g>
          </g>
        </g>
      </g>
      <g id="Grupo_1215975" data-name="Grupo 1215975" transform="translate(0.001 -0.002)">
        <path id="Trazado_1162073" data-name="Trazado 1162073" d="M201.378,211.784a5.188,5.188,0,0,0-7.336-7.336,5.188,5.188,0,0,0-7.336,7.336l6.633,6.633a1,1,0,0,0,1.408,0Z" transform="translate(-162.041 -177.566)" fill="#fc78a8"/>
        <path id="Trazado_1162074" data-name="Trazado 1162074" d="M248.948,211.8l-6.633,6.633a1,1,0,0,1-1.408,0l-1.352-1.352,6.473-6.474c2.022-2.026,2.557-4.771.532-6.8a5.194,5.194,0,0,0-1.135-.86,5.188,5.188,0,0,1,3.523,8.849Z" transform="translate(-209.612 -177.582)" fill="#fc5a95"/>
        <g id="Grupo_1215974" data-name="Grupo 1215974" transform="translate(0 0)">
          <path id="Trazado_1162075" data-name="Trazado 1162075" d="M11.264,83.835a1.958,1.958,0,0,0,.936-.24,4.032,4.032,0,0,0,1.712-1.8l.051,0a1.955,1.955,0,0,0,.932-.236,4.03,4.03,0,0,0,1.619-1.615,1.948,1.948,0,0,0,.748-.228,4.055,4.055,0,0,0,1.63-5.5l-2.376-4.378a25.536,25.536,0,0,0,2.937-6.322,28.72,28.72,0,0,0,.967-4.8,5.8,5.8,0,0,0-1.67-4.8L8.115,43.286a.937.937,0,0,0-1.326,1.326L17.424,55.246A3.932,3.932,0,0,1,18.558,58.5a26.836,26.836,0,0,1-.9,4.488,23.089,23.089,0,0,1-2.077,4.787l-1.124-2.071c1.782-1.109,2.792-3.959,2.838-6.088a.937.937,0,0,0-.917-.957h-.021a.938.938,0,0,0-.937.917c-.04,1.834-.939,3.915-1.964,4.542-.107.066-.475.262-.7.38a.937.937,0,0,0-.391,1.279L14.328,69.4A2.556,2.556,0,0,1,13.3,72.863a.214.214,0,0,1-.283-.075L9.141,66.575l-.2-4.479A2.647,2.647,0,0,1,9.611,60.2L11.578,58l1.614-.876a.937.937,0,1,0-.894-1.648l-1.758.954a.939.939,0,0,0-.252.2l-.342.383L1.551,49.753A.938.938,0,0,0,.325,51.172L8.7,58.411l-.485.543A4.513,4.513,0,0,0,7.065,62.18l.111,2.442c-.007.019-1.046,3.52-1.046,3.52a.938.938,0,1,0,1.8.533l.1-.342,1.989,3.187L9.461,73.4a.937.937,0,0,0,.075.714l2.647,4.877a2.18,2.18,0,0,1-.876,2.957.077.077,0,0,1-.1-.029L6.444,73.681l.227-.766a.937.937,0,1,0-1.8-.533l-.341,1.152a.938.938,0,0,0,.087.735l4.961,8.586a1.94,1.94,0,0,0,1.684.979Zm6.155-7.057a2.172,2.172,0,0,1-.427.789,4.032,4.032,0,0,0-.467-1.5l-1.276-2.351a4.409,4.409,0,0,0,.712-.963l1.284,2.365a2.166,2.166,0,0,1,.174,1.66Zm-5.777-2.713a2.085,2.085,0,0,0,2.014.647l1.22,2.249a2.182,2.182,0,0,1-.57,2.752A4.03,4.03,0,0,0,13.83,78.1Z" transform="translate(-0.001 -37.635)"/>
          <path id="Trazado_1162076" data-name="Trazado 1162076" d="M363.441,163.42l2.646-8.882A.938.938,0,0,0,366,153.8l-4.961-8.586a1.942,1.942,0,0,0-2.621-.739,4.025,4.025,0,0,0-1.715,1.8,1.946,1.946,0,0,0-.98.234,4.031,4.031,0,0,0-1.62,1.616,1.948,1.948,0,0,0-.748.227,4.055,4.055,0,0,0-1.63,5.5l2.376,4.378a25.426,25.426,0,0,0-2.937,6.322,28.721,28.721,0,0,0-.967,4.8,5.8,5.8,0,0,0,1.67,4.8l10.405,10.405a.938.938,0,1,0,1.326-1.326l-10.406-10.405a3.932,3.932,0,0,1-1.134-3.256,26.837,26.837,0,0,1,.9-4.488,23.29,23.29,0,0,1,2.078-4.785l1.123,2.069c-1.782,1.109-2.792,3.959-2.838,6.088a.937.937,0,0,0,1.874.04c.039-1.834.939-3.915,1.964-4.542.108-.066.475-.262.7-.38a.937.937,0,0,0,.391-1.279l-1.967-3.623a2.556,2.556,0,0,1,1.026-3.461.214.214,0,0,1,.284.075l3.877,6.213.2,4.479a2.647,2.647,0,0,1-.673,1.893l-1.967,2.2-1.615.876a.937.937,0,1,0,.895,1.648l1.758-.954a.941.941,0,0,0,.252-.2l.348-.389,8.161,7.037a.938.938,0,0,0,1.224-1.42l-8.136-7.015.479-.537a4.512,4.512,0,0,0,1.147-3.226ZM353.2,151.294a2.172,2.172,0,0,1,.427-.789,4.033,4.033,0,0,0,.467,1.5l1.276,2.351a4.409,4.409,0,0,0-.712.963l-1.284-2.365A2.166,2.166,0,0,1,353.2,151.294Zm3.762,2.066-1.221-2.249a2.182,2.182,0,0,1,.568-2.751,4.043,4.043,0,0,0,.48,1.615l2.19,4.035A2.094,2.094,0,0,0,356.961,153.36Zm3.639,3.191.557-1.88a.937.937,0,0,0-.075-.714l-2.647-4.877a2.18,2.18,0,0,1,.876-2.956.078.078,0,0,1,.1.029l4.759,8.237-1.585,5.348Z" transform="translate(-306.388 -126.208)"/>
          <path id="Trazado_1162077" data-name="Trazado 1162077" d="M64.688,361.628l8.849,2.623a.938.938,0,0,0,.735-.087l8.586-4.961a1.941,1.941,0,0,0,.739-2.621,4.032,4.032,0,0,0-1.8-1.712,1.94,1.94,0,0,0-.234-.983,4.03,4.03,0,0,0-1.615-1.619,1.944,1.944,0,0,0-.227-.748,4.055,4.055,0,0,0-5.5-1.63l-4.379,2.376a25.84,25.84,0,0,0-6.322-2.937,28.735,28.735,0,0,0-4.8-.967,5.8,5.8,0,0,0-4.8,1.671L43.288,360.667a.938.938,0,0,0,1.326,1.326l10.635-10.635a3.932,3.932,0,0,1,3.256-1.134,26.862,26.862,0,0,1,4.488.9,23.277,23.277,0,0,1,4.785,2.077l-2.069,1.123c-1.109-1.782-3.959-2.792-6.088-2.838H59.6a.937.937,0,0,0-.02,1.875c1.835.04,3.915.939,4.542,1.964.066.107.262.475.38.7a.938.938,0,0,0,1.279.391l3.623-1.966a2.552,2.552,0,0,1,3.461,1.026.214.214,0,0,1-.075.283l-6.213,3.878-4.479.2a2.647,2.647,0,0,1-1.893-.673L58,357.2l-.876-1.614a.938.938,0,0,0-1.648.894l.954,1.758a.939.939,0,0,0,.2.252l.383.342-7.259,8.394a.938.938,0,0,0,1.418,1.227l7.24-8.372.543.485a4.508,4.508,0,0,0,3.017,1.152q.1,0,.209,0Zm10.026-6.5,2.249-1.221a2.182,2.182,0,0,1,2.752.57,4.031,4.031,0,0,0-1.617.478l-4.034,2.19A2.094,2.094,0,0,0,74.714,355.125Zm.406-3.588a2.178,2.178,0,0,1,2.448.252,4.032,4.032,0,0,0-1.5.467l-2.349,1.275a4.373,4.373,0,0,0-.961-.712Zm6.8,6.042-8.237,4.759-5.347-1.585,3.187-1.989,1.88.557a.938.938,0,0,0,.714-.075l4.877-2.647a2.183,2.183,0,0,1,2.956.876.077.077,0,0,1-.029.1Z" transform="translate(-37.637 -304.781)"/>
          <path id="Trazado_1162078" data-name="Trazado 1162078" d="M323,63.923c-.773-.091-1.544-.213-2.293-.362a.938.938,0,1,0-.368,1.839c.8.16,1.619.289,2.442.386a5.9,5.9,0,0,0,.688.04,5.794,5.794,0,0,0,4.112-1.711L337.984,53.71a.937.937,0,1,0-1.326-1.326L326.253,62.789A3.931,3.931,0,0,1,323,63.923Z" transform="translate(-279.635 -45.595)"/>
          <path id="Trazado_1162079" data-name="Trazado 1162079" d="M146.275,13.681a1.95,1.95,0,0,0,.232.982,4.029,4.029,0,0,0,1.615,1.618,1.942,1.942,0,0,0,.228.749,4.029,4.029,0,0,0,2.412,1.954,4.031,4.031,0,0,0,3.087-.324l4.379-2.376A26.487,26.487,0,0,0,162.5,18.5a.938.938,0,0,0,.7-1.738,24.611,24.611,0,0,1-2.913-1.418l2.07-1.123c1.109,1.782,3.959,2.792,6.088,2.838h.021a.937.937,0,0,0,.02-1.875c-1.835-.04-3.915-.939-4.542-1.964-.066-.107-.262-.475-.38-.7a.938.938,0,0,0-1.279-.391L158.67,14.1a2.552,2.552,0,0,1-3.461-1.026.214.214,0,0,1,.075-.283L161.5,8.909l4.479-.2a2.65,2.65,0,0,1,1.893.673l2.2,1.967.876,1.614a.938.938,0,0,0,1.648-.894l-.954-1.758a.939.939,0,0,0-.2-.252l-.389-.347,7.036-8.161A.938.938,0,1,0,176.67.323L169.655,8.46l-.537-.479a4.513,4.513,0,0,0-3.226-1.147l-2.433.11L154.538,4.3a.938.938,0,0,0-.735.087l-8.586,4.961a1.941,1.941,0,0,0-.739,2.621,4.031,4.031,0,0,0,1.8,1.713Zm7.085-.257-2.249,1.221a2.182,2.182,0,0,1-2.752-.57,4.03,4.03,0,0,0,1.617-.477l4.034-2.19a2.094,2.094,0,0,0-.65,2.016Zm-.406,3.588a2.178,2.178,0,0,1-2.449-.253,4.031,4.031,0,0,0,1.5-.466l2.349-1.275a4.374,4.374,0,0,0,.961.712Zm-6.8-6.042,8.237-4.759L159.739,7.8l-3.187,1.989-1.88-.557a.937.937,0,0,0-.714.075l-4.877,2.647a2.18,2.18,0,0,1-2.956-.876.077.077,0,0,1,.029-.1Z" transform="translate(-126.208 0.002)"/>
          <path id="Trazado_1162080" data-name="Trazado 1162080" d="M187.5,211.217a.058.058,0,0,1-.082,0l-3.679-3.679a.937.937,0,0,0-1.326,1.326l3.679,3.679a1.936,1.936,0,0,0,2.734,0l6.633-6.634a6.125,6.125,0,0,0-8-9.235,6.125,6.125,0,0,0-8.2,9.023.938.938,0,0,0,1.388-1.26,4.25,4.25,0,0,1,6.151-5.863.937.937,0,0,0,1.324,0,4.25,4.25,0,0,1,6.012,6.01Z" transform="translate(-155.455 -171.029)"/>
        </g>
      </g>
    </g>
  </g>
</svg>
