<svg xmlns="http://www.w3.org/2000/svg" xmlns:xlink="http://www.w3.org/1999/xlink" width="110" height="110" viewBox="0 0 110 110">
  <defs>
    <filter id="Trazado_982547" x="0" y="0" width="110" height="110" filterUnits="userSpaceOnUse">
      <feOffset dy="3" input="SourceAlpha"/>
      <feGaussianBlur stdDeviation="3" result="blur"/>
      <feFlood flood-opacity="0.161"/>
      <feComposite operator="in" in2="blur"/>
      <feComposite in="SourceGraphic"/>
    </filter>
  </defs>
  <g id="Grupo_1215979" data-name="Grupo 1215979" transform="translate(-692 -11330.972)">
    <g id="Grupo_1214725" data-name="Grupo 1214725" transform="translate(701 11336.972)">
      <g id="Grupo_1200151" data-name="Grupo 1200151" transform="translate(0 0)">
        <g id="Grupo_1185952" data-name="Grupo 1185952" transform="translate(0 0)">
          <g id="Grupo_1184115" data-name="Grupo 1184115">
            <g id="Grupo_1183744" data-name="Grupo 1183744">
              <g id="Grupo_1181546" data-name="Grupo 1181546">
                <g id="Grupo_1177563" data-name="Grupo 1177563">
                  <g id="Grupo_1173148" data-name="Grupo 1173148">
                    <g id="Grupo_1163803" data-name="Grupo 1163803">
                      <g id="Grupo_1163015" data-name="Grupo 1163015">
                        <g id="Grupo_1157017" data-name="Grupo 1157017">
                          <g id="Grupo_1155793" data-name="Grupo 1155793">
                            <g id="Grupo_1154704" data-name="Grupo 1154704">
                              <g id="Grupo_1150790" data-name="Grupo 1150790">
                                <g id="Grupo_1154214" data-name="Grupo 1154214">
                                  <g id="Grupo_1152583" data-name="Grupo 1152583">
                                    <g id="Grupo_1146973" data-name="Grupo 1146973">
                                      <g id="Grupo_1146954" data-name="Grupo 1146954">
                                        <g transform="matrix(1, 0, 0, 1, -9, -6)" filter="url(#Trazado_982547)">
                                          <g id="Trazado_982547-2" data-name="Trazado 982547" transform="translate(9 6)" fill="#f9e3d4">
                                            <path d="M 46 90.49986267089844 C 39.99187850952148 90.49986267089844 34.16426849365234 89.32350158691406 28.67905426025391 87.00344848632812 C 23.38021278381348 84.76223754882812 18.62104034423828 81.55340576171875 14.53376007080078 77.46612548828125 C 10.44646644592285 73.37884521484375 7.237653255462646 68.61968994140625 4.996426582336426 63.32084655761719 C 2.676373243331909 57.83563232421875 1.50001335144043 52.00803375244141 1.50001335144043 45.99992752075195 C 1.50001335144043 39.9918212890625 2.676373243331909 34.16422271728516 4.996426582336426 28.67900657653809 C 7.237653255462646 23.38016700744629 10.44646644592285 18.62100791931152 14.53376007080078 14.53372764587402 C 18.62104034423828 10.44644737243652 23.38021278381348 7.237634181976318 28.67905426025391 4.996420860290527 C 34.16426849365234 2.676367521286011 39.99187850952148 1.500007510185242 46 1.500007510185242 C 52.00812149047852 1.500007510185242 57.83572006225586 2.676367521286011 63.32094573974609 4.996420860290527 C 68.61978912353516 7.237634181976318 73.37895965576172 10.44646072387695 77.46623992919922 14.53372764587402 C 81.55353546142578 18.62100791931152 84.76235961914062 23.38016700744629 87.00358581542969 28.67900657653809 C 89.32363891601562 34.16422271728516 90.5 39.9918212890625 90.5 45.99992752075195 C 90.5 52.00803375244141 89.32363891601562 57.83563232421875 87.00358581542969 63.32084655761719 C 84.76235961914062 68.61968994140625 81.55353546142578 73.37884521484375 77.46623992919922 77.46612548828125 C 73.37895965576172 81.55340576171875 68.61978912353516 84.76223754882812 63.32094573974609 87.00344848632812 C 57.83572006225586 89.32350158691406 52.00812149047852 90.49986267089844 46 90.49986267089844 Z" stroke="none"/>
                                            <path d="M 46 3 C 40.1937141418457 3 34.56269836425781 4.136497497558594 29.26338577270508 6.377914428710938 C 24.14332580566406 8.543510437011719 19.54442596435547 11.64438629150391 15.59441375732422 15.59438323974609 C 11.64440155029297 19.54439544677734 8.543525695800781 24.14329528808594 6.3779296875 29.26333999633789 C 4.136497497558594 34.56265640258789 3 40.19365692138672 3 45.99992752075195 C 3 51.80619812011719 4.136497497558594 57.43719863891602 6.3779296875 62.73651123046875 C 8.543525695800781 67.85655212402344 11.64440155029297 72.45545959472656 15.59441375732422 76.40547180175781 C 19.54442596435547 80.35546875 24.14332580566406 83.45634460449219 29.26338577270508 85.62194061279297 C 34.56269836425781 87.86335754394531 40.1937141418457 88.99985504150391 46 88.99985504150391 C 51.8062858581543 88.99985504150391 57.43728637695312 87.86335754394531 62.73661422729492 85.62194061279297 C 67.85665893554688 83.45634460449219 72.45557403564453 80.35546875 76.40558624267578 76.40547180175781 C 80.35559844970703 72.45545959472656 83.45647430419922 67.85655212402344 85.6220703125 62.73651123046875 C 87.86348724365234 57.43719863891602 88.99998474121094 51.80619812011719 88.99998474121094 45.99992752075195 C 88.99998474121094 40.19365692138672 87.86348724365234 34.56265640258789 85.6220703125 29.26333999633789 C 83.45647430419922 24.14329528808594 80.35559844970703 19.54439544677734 76.40558624267578 15.59438323974609 C 72.45557403564453 11.64438629150391 67.85665893554688 8.543510437011719 62.73661422729492 6.377914428710938 C 57.43728637695312 4.136497497558594 51.8062858581543 3 46 3 M 46 0 C 71.40509033203125 0 91.99998474121094 20.59487152099609 91.99998474121094 45.99992752075195 C 91.99998474121094 71.40498352050781 71.40509033203125 91.99985504150391 46 91.99985504150391 C 20.59491729736328 91.99985504150391 0 71.40498352050781 0 45.99992752075195 C 0 20.59487152099609 20.59491729736328 0 46 0 Z" stroke="none" fill="#eca675"/>
                                          </g>
                                        </g>
                                      </g>
                                    </g>
                                  </g>
                                </g>
                              </g>
                            </g>
                          </g>
                        </g>
                      </g>
                    </g>
                  </g>
                </g>
              </g>
            </g>
          </g>
        </g>
      </g>
    </g>
    <g id="poblacion" transform="translate(715.911 11337.044)">
      <path id="Trazado_1162081" data-name="Trazado 1162081" d="M69.749,236A29.875,29.875,0,0,1,10,236Z" transform="translate(-8.786 -189.769)" fill="#ccf5fc"/>
      <g id="Grupo_1215977" data-name="Grupo 1215977" transform="translate(6.626 46.231)">
        <path id="Trazado_1162082" data-name="Trazado 1162082" d="M54.565,236l3.393,4.587a3.253,3.253,0,0,0,1.422,1.092l5.081,2-.563-2.848a3.252,3.252,0,0,1,.16-1.811L65.236,236Z" transform="translate(-54.565 -236)" fill="#a0e5a5"/>
        <path id="Trazado_1162083" data-name="Trazado 1162083" d="M264.544,239.5l-4.588-3.5h-13.97l-1.539,1.72a1.983,1.983,0,0,0-.505,1.323v3.79a1.983,1.983,0,0,0,1.983,1.983h3.967a1.983,1.983,0,0,1,1.855,1.281l.867,2.29a1.983,1.983,0,0,1-.18,1.764l-.39.615a1.983,1.983,0,0,0-.019,2.094l2.546,4.181a1.983,1.983,0,0,0,3.41-.038l3.41-5.889a1.983,1.983,0,0,0,.267-.994v-2.77a1.983,1.983,0,0,1,.387-1.177l2.892-3.919a1.984,1.984,0,0,0-.394-2.755Z" transform="translate(-220.944 -236)" fill="#a0e5a5"/>
        <path id="Trazado_1162084" data-name="Trazado 1162084" d="M111.191,302.848l-6.482-3.4a1.8,1.8,0,0,0-2.242.471l-2.258,2.83a1.8,1.8,0,0,0,.166,2.427l1.884,1.793a2.547,2.547,0,0,1,.769,2.184l-.952,7.1,2.325,1.4,6.5-8.812a2.549,2.549,0,0,0,.418-.883l.785-3.08A1.8,1.8,0,0,0,111.191,302.848Z" transform="translate(-94.32 -291.564)" fill="#a0e5a5"/>
      </g>
      <path id="XMLID_1699_" d="M198.746,102.127h-4.974A5.771,5.771,0,0,0,188,107.9v5.614h16.516V107.9A5.771,5.771,0,0,0,198.746,102.127Z" transform="translate(-165.17 -72.153)" fill="#ff7d97"/>
      <path id="XMLID_1698_" d="M228.974,30a3.736,3.736,0,0,0-3.736,3.736v1.288a3.736,3.736,0,1,0,7.472,0V33.736A3.736,3.736,0,0,0,228.974,30Z" transform="translate(-197.885 -8.786)" fill="#cc9081"/>
      <path id="XMLID_56_" d="M20.745,102.127H15.771A5.771,5.771,0,0,0,10,107.9v5.614H26.516V107.9A5.771,5.771,0,0,0,20.745,102.127Z" transform="translate(-8.786 -72.153)" fill="#a0e5a5"/>
      <path id="XMLID_55_" d="M50.974,30a3.736,3.736,0,0,0-3.736,3.736v1.288a3.736,3.736,0,1,0,7.472,0V33.736A3.736,3.736,0,0,0,50.974,30Z" transform="translate(-41.501 -8.786)" fill="#ffd0c7"/>
      <path id="XMLID_60_" d="M371.771,102.127h4.974a5.771,5.771,0,0,1,5.771,5.771v5.614H366V107.9A5.771,5.771,0,0,1,371.771,102.127Z" transform="translate(-321.553 -72.153)" fill="#ffda8f"/>
      <path id="XMLID_59_" d="M406.974,30a3.736,3.736,0,0,1,3.736,3.736v1.288a3.736,3.736,0,1,1-7.472,0V33.736A3.736,3.736,0,0,1,406.974,30Z" transform="translate(-354.268 -8.786)" fill="#f2b394"/>
      <g id="Grupo_1215978" data-name="Grupo 1215978" transform="translate(0 20)">
        <path id="Trazado_1162085" data-name="Trazado 1162085" d="M60.964,226H1.214A1.214,1.214,0,0,0,0,227.214a31.1,31.1,0,0,0,44.9,27.862,1.214,1.214,0,0,0-1.08-2.176,28.754,28.754,0,0,1-25.344.062l5.708-7.743a3.744,3.744,0,0,0,.617-1.3l.785-3.08a3,3,0,0,0-1.522-3.414l-6.472-3.392-.439-2.219a2.035,2.035,0,0,1,.1-1.135l.876-2.248h10.86a3.191,3.191,0,0,0-.577,1.828v3.79a3.2,3.2,0,0,0,3.2,3.2h3.967a.773.773,0,0,1,.719.5l.866,2.29a.773.773,0,0,1-.07.684l-.39.615a3.178,3.178,0,0,0-.03,3.376l2.546,4.181a3.17,3.17,0,0,0,2.73,1.534h.037a3.17,3.17,0,0,0,2.732-1.6l3.41-5.89a3.2,3.2,0,0,0,.43-1.6v-2.77a.763.763,0,0,1,.15-.457l2.892-3.919a3.212,3.212,0,0,0-.635-4.441l-1.728-1.317H59.724a28.564,28.564,0,0,1-7.554,18.2,1.214,1.214,0,1,0,1.786,1.646,31,31,0,0,0,8.223-21.063A1.214,1.214,0,0,0,60.964,226Zm-58.51,2.429h3.56l3.029,4.095a4.463,4.463,0,0,0,1.953,1.5l2.632,1.037-2.063,2.584a3,3,0,0,0,.278,4.064l1.884,1.793a1.337,1.337,0,0,1,.4,1.143l-.691,5.155a29.137,29.137,0,0,1-2.616-2.319,28.454,28.454,0,0,1-8.369-19.051ZM23.23,240.237l-.785,3.08a1.327,1.327,0,0,1-.219.462l-5.905,8.01q-.324-.2-.644-.4l.861-6.421a3.774,3.774,0,0,0-1.135-3.225l-1.884-1.793a.582.582,0,0,1-.054-.789l2.259-2.83a.587.587,0,0,1,.729-.153l6.482,3.4a.583.583,0,0,1,.3.663Zm-8.241-10.442a4.458,4.458,0,0,0-.22,2.488l.132.668-3.013-1.187a2.034,2.034,0,0,1-.891-.684l-1.96-2.65h6.485Zm34.5,1.883a.772.772,0,0,1,.153,1.068l-2.891,3.919a3.176,3.176,0,0,0-.625,1.9v2.77a.77.77,0,0,1-.1.385l-3.41,5.889a.769.769,0,0,1-1.322.015l-2.546-4.18a.764.764,0,0,1,.007-.812l.39-.615a3.213,3.213,0,0,0,.29-2.844l-.867-2.29a3.214,3.214,0,0,0-2.991-2.066H31.608a.77.77,0,0,1-.769-.769v-3.79a.768.768,0,0,1,.2-.513l1.177-1.315H45.229Z" transform="translate(0 -200.983)"/>
        <path id="Trazado_1162086" data-name="Trazado 1162086" d="M179.214,42.573H195.73a1.214,1.214,0,0,0,1.214-1.214V35.744a7,7,0,0,0-5.339-6.787,4.92,4.92,0,0,0,.817-2.719V24.95a4.95,4.95,0,1,0-9.9,0v1.288a4.921,4.921,0,0,0,.817,2.719A7,7,0,0,0,178,35.744v5.614a1.214,1.214,0,0,0,1.214,1.215Zm5.737-17.623a2.521,2.521,0,0,1,5.043,0v1.288a2.521,2.521,0,0,1-5.043,0Zm-4.522,10.794a4.562,4.562,0,0,1,4.556-4.556h4.974a4.562,4.562,0,0,1,4.556,4.556v4.4H180.429Z" transform="translate(-156.383 -20)"/>
        <path id="Trazado_1162087" data-name="Trazado 1162087" d="M1.214,42.573H17.73a1.214,1.214,0,0,0,1.214-1.214V35.744a7,7,0,0,0-5.339-6.787,4.92,4.92,0,0,0,.817-2.719V24.95a4.95,4.95,0,1,0-9.9,0v1.288a4.921,4.921,0,0,0,.817,2.719A7,7,0,0,0,0,35.744v5.614a1.214,1.214,0,0,0,1.214,1.215ZM6.951,24.95a2.521,2.521,0,0,1,5.043,0v1.288a2.521,2.521,0,1,1-5.043,0ZM2.429,35.744a4.562,4.562,0,0,1,4.556-4.556H11.96a4.562,4.562,0,0,1,4.556,4.556v4.4H2.429Z" transform="translate(0 -20)"/>
        <path id="Trazado_1162088" data-name="Trazado 1162088" d="M369.606,28.957a4.92,4.92,0,0,0,.817-2.719V24.95a4.95,4.95,0,1,0-9.9,0v1.288a4.921,4.921,0,0,0,.817,2.719A7,7,0,0,0,356,35.744v5.614a1.214,1.214,0,0,0,1.214,1.214h16.516a1.214,1.214,0,0,0,1.214-1.214V35.744A7,7,0,0,0,369.606,28.957Zm-6.655-4.007a2.521,2.521,0,1,1,5.043,0v1.288a2.521,2.521,0,1,1-5.043,0Zm9.565,15.194H358.429v-4.4a4.562,4.562,0,0,1,4.556-4.556h4.974a4.562,4.562,0,0,1,4.556,4.556v4.4Z" transform="translate(-312.767 -20)"/>
        <circle id="Elipse_14325" data-name="Elipse 14325" cx="1.214" cy="1.214" r="1.214" transform="translate(47.794 48.922)"/>
      </g>
    </g>
  </g>
</svg>
