<svg xmlns="http://www.w3.org/2000/svg" xmlns:xlink="http://www.w3.org/1999/xlink" width="110" height="110" viewBox="0 0 110 110">
  <defs>
    <filter id="Trazado_982547" x="0" y="0" width="110" height="110" filterUnits="userSpaceOnUse">
      <feOffset dy="3" input="SourceAlpha"/>
      <feGaussianBlur stdDeviation="3" result="blur"/>
      <feFlood flood-opacity="0.161"/>
      <feComposite operator="in" in2="blur"/>
      <feComposite in="SourceGraphic"/>
    </filter>
    <clipPath id="clip-path">
      <path id="path21" d="M0-682.665H62.3v62.3H0Z" transform="translate(0 682.665)"/>
    </clipPath>
  </defs>
  <g id="Grupo_1215985" data-name="Grupo 1215985" transform="translate(-3918.001 -11367.525)">
    <g id="Grupo_1214728" data-name="Grupo 1214728" transform="translate(3927.001 11373.525)">
      <g id="Grupo_1200151" data-name="Grupo 1200151" transform="translate(0 0)">
        <g id="Grupo_1185952" data-name="Grupo 1185952" transform="translate(0 0)">
          <g id="Grupo_1184115" data-name="Grupo 1184115">
            <g id="Grupo_1183744" data-name="Grupo 1183744">
              <g id="Grupo_1181546" data-name="Grupo 1181546">
                <g id="Grupo_1177563" data-name="Grupo 1177563">
                  <g id="Grupo_1173148" data-name="Grupo 1173148">
                    <g id="Grupo_1163803" data-name="Grupo 1163803">
                      <g id="Grupo_1163015" data-name="Grupo 1163015">
                        <g id="Grupo_1157017" data-name="Grupo 1157017">
                          <g id="Grupo_1155793" data-name="Grupo 1155793">
                            <g id="Grupo_1154704" data-name="Grupo 1154704">
                              <g id="Grupo_1150790" data-name="Grupo 1150790">
                                <g id="Grupo_1154214" data-name="Grupo 1154214">
                                  <g id="Grupo_1152583" data-name="Grupo 1152583">
                                    <g id="Grupo_1146973" data-name="Grupo 1146973">
                                      <g id="Grupo_1146954" data-name="Grupo 1146954">
                                        <g transform="matrix(1, 0, 0, 1, -9, -6)" filter="url(#Trazado_982547)">
                                          <g id="Trazado_982547-2" data-name="Trazado 982547" transform="translate(9 6)" fill="#f9e3d4">
                                            <path d="M 46 90.49986267089844 C 39.99187850952148 90.49986267089844 34.16426849365234 89.32350158691406 28.67905426025391 87.00344848632812 C 23.38021278381348 84.76223754882812 18.62104034423828 81.55340576171875 14.53376007080078 77.46612548828125 C 10.44646644592285 73.37884521484375 7.237653255462646 68.61968994140625 4.996426582336426 63.32084655761719 C 2.676373243331909 57.83563232421875 1.50001335144043 52.00803375244141 1.50001335144043 45.99992752075195 C 1.50001335144043 39.9918212890625 2.676373243331909 34.16422271728516 4.996426582336426 28.67900657653809 C 7.237653255462646 23.38016700744629 10.44646644592285 18.62100791931152 14.53376007080078 14.53372764587402 C 18.62104034423828 10.44644737243652 23.38021278381348 7.237634181976318 28.67905426025391 4.996420860290527 C 34.16426849365234 2.676367521286011 39.99187850952148 1.500007510185242 46 1.500007510185242 C 52.00812149047852 1.500007510185242 57.83572006225586 2.676367521286011 63.32094573974609 4.996420860290527 C 68.61978912353516 7.237634181976318 73.37895965576172 10.44646072387695 77.46623992919922 14.53372764587402 C 81.55353546142578 18.62100791931152 84.76235961914062 23.38016700744629 87.00358581542969 28.67900657653809 C 89.32363891601562 34.16422271728516 90.5 39.9918212890625 90.5 45.99992752075195 C 90.5 52.00803375244141 89.32363891601562 57.83563232421875 87.00358581542969 63.32084655761719 C 84.76235961914062 68.61968994140625 81.55353546142578 73.37884521484375 77.46623992919922 77.46612548828125 C 73.37895965576172 81.55340576171875 68.61978912353516 84.76223754882812 63.32094573974609 87.00344848632812 C 57.83572006225586 89.32350158691406 52.00812149047852 90.49986267089844 46 90.49986267089844 Z" stroke="none"/>
                                            <path d="M 46 3 C 40.1937141418457 3 34.56269836425781 4.136497497558594 29.26338577270508 6.377914428710938 C 24.14332580566406 8.543510437011719 19.54442596435547 11.64438629150391 15.59441375732422 15.59438323974609 C 11.64440155029297 19.54439544677734 8.543525695800781 24.14329528808594 6.3779296875 29.26333999633789 C 4.136497497558594 34.56265640258789 3 40.19365692138672 3 45.99992752075195 C 3 51.80619812011719 4.136497497558594 57.43719863891602 6.3779296875 62.73651123046875 C 8.543525695800781 67.85655212402344 11.64440155029297 72.45545959472656 15.59441375732422 76.40547180175781 C 19.54442596435547 80.35546875 24.14332580566406 83.45634460449219 29.26338577270508 85.62194061279297 C 34.56269836425781 87.86335754394531 40.1937141418457 88.99985504150391 46 88.99985504150391 C 51.8062858581543 88.99985504150391 57.43728637695312 87.86335754394531 62.73661422729492 85.62194061279297 C 67.85665893554688 83.45634460449219 72.45557403564453 80.35546875 76.40558624267578 76.40547180175781 C 80.35559844970703 72.45545959472656 83.45647430419922 67.85655212402344 85.6220703125 62.73651123046875 C 87.86348724365234 57.43719863891602 88.99998474121094 51.80619812011719 88.99998474121094 45.99992752075195 C 88.99998474121094 40.19365692138672 87.86348724365234 34.56265640258789 85.6220703125 29.26333999633789 C 83.45647430419922 24.14329528808594 80.35559844970703 19.54439544677734 76.40558624267578 15.59438323974609 C 72.45557403564453 11.64438629150391 67.85665893554688 8.543510437011719 62.73661422729492 6.377914428710938 C 57.43728637695312 4.136497497558594 51.8062858581543 3 46 3 M 46 0 C 71.40509033203125 0 91.99998474121094 20.59487152099609 91.99998474121094 45.99992752075195 C 91.99998474121094 71.40498352050781 71.40509033203125 91.99985504150391 46 91.99985504150391 C 20.59491729736328 91.99985504150391 0 71.40498352050781 0 45.99992752075195 C 0 20.59487152099609 20.59491729736328 0 46 0 Z" stroke="none" fill="#eca675"/>
                                          </g>
                                        </g>
                                      </g>
                                    </g>
                                  </g>
                                </g>
                              </g>
                            </g>
                          </g>
                        </g>
                      </g>
                    </g>
                  </g>
                </g>
              </g>
            </g>
          </g>
        </g>
      </g>
    </g>
    <g id="g15" transform="translate(3941.352 12071.041)">
      <g id="g17" transform="translate(0 -682.665)">
        <g id="g19" transform="translate(0 0)" clip-path="url(#clip-path)">
          <g id="g25" transform="translate(0.913 9.729)">
            <path id="path27" d="M-169.328-59.734v15.894l-2.363,9.058V-18.7h-11.653V-35.365l-1.441-1.907a7.664,7.664,0,0,1-1.548-4.616V-59.069a2.118,2.118,0,0,1,.623-1.5,2.118,2.118,0,0,1,1.5-.623,2.125,2.125,0,0,1,2.126,2.126v-2.509a2.125,2.125,0,0,1,2.124-2.126h0a2.125,2.125,0,0,1,2.124,2.126v-2.03a2.113,2.113,0,0,1,.623-1.5,2.12,2.12,0,0,1,1.5-.623,2.125,2.125,0,0,1,2.126,2.126v3.873a2.115,2.115,0,0,1,.623-1.5,2.115,2.115,0,0,1,1.5-.623,2.125,2.125,0,0,1,2.126,2.126" transform="translate(186.333 65.733)" fill="#ffdfcf"/>
          </g>
          <g id="g29" transform="translate(3.901 13.603)">
            <path id="path31" d="M-118.62,0a2.116,2.116,0,0,0-1.517.614,2.124,2.124,0,0,1,.63,1.511V18.018l-2.363,9.058v7.14a20.33,20.33,0,0,1-2.732.179,16.2,16.2,0,0,1-5.6-.879c-.118-.046-.229-.092-.332-.14V35.34a18.388,18.388,0,0,0,5.931.88q.471,0,.934-.019a1.725,1.725,0,0,1,1.8,1.722v5.235h2.991V27.075l2.362-9.058V2.177A2.16,2.16,0,0,0-118.62,0" transform="translate(130.532 0.001)" fill="#ffcebf"/>
          </g>
          <g id="g33" transform="translate(0.913 9.73)">
            <path id="path35" d="M-145.8-468.341v-16.082l2.363-9.057v-15.894a2.126,2.126,0,0,0-2.126-2.126,2.126,2.126,0,0,0-2.125,2.126v-3.873a2.125,2.125,0,0,0-2.125-2.125,2.126,2.126,0,0,0-2.126,2.125v2.029a2.126,2.126,0,0,0-2.125-2.125h0a2.126,2.126,0,0,0-2.126,2.126v2.509a2.125,2.125,0,0,0-2.125-2.126,2.126,2.126,0,0,0-2.125,2.126v17.18a7.658,7.658,0,0,0,1.548,4.616l1.441,1.907v16.664" transform="translate(160.44 515.373)" fill="none" stroke="#000" stroke-linecap="round" stroke-linejoin="round" stroke-miterlimit="10" stroke-width="1"/>
          </g>
          <g id="g37" transform="translate(13.666 15.728)">
            <path id="path39" d="M0,0V10.9" fill="none" stroke="#000" stroke-linecap="round" stroke-linejoin="round" stroke-miterlimit="10" stroke-width="1"/>
          </g>
          <g id="g41" transform="translate(9.415 13.884)">
            <path id="path43" d="M0,0V12.838" fill="none" stroke="#000" stroke-linecap="round" stroke-linejoin="round" stroke-miterlimit="10" stroke-width="1"/>
          </g>
          <g id="g45" transform="translate(5.164 16.394)">
            <path id="path47" d="M0,0V10.035" fill="none" stroke="#000" stroke-linecap="round" stroke-linejoin="round" stroke-miterlimit="10" stroke-width="1"/>
          </g>
          <g id="g49" transform="translate(10.811 21.28)">
            <path id="path51" d="M-108.714-10.969l.4,9.451a6.329,6.329,0,0,1-.63,3.031l-1.407,2.9a3.666,3.666,0,0,1-2.058,1.849L-115.4,7.332h-4.235V2.252a5.313,5.313,0,0,1,5.313-5.313h.879V-8.516a3.555,3.555,0,0,1,3.555-3.554,1.173,1.173,0,0,1,1.171,1.1" transform="translate(119.632 12.071)" fill="#ffdfcf"/>
          </g>
          <g id="g53" transform="translate(12.321 21.28)">
            <path id="path55" d="M-91.39-135.26l-1.406,2.9a3.67,3.67,0,0,1-2.059,1.849l-2.987,1.073h-2.725l2.987-1.073a3.669,3.669,0,0,0,2.059-1.849l1.406-2.9a6.318,6.318,0,0,0,.63-3.031l-.4-9.45a1.176,1.176,0,0,0-.226-.624,3.531,3.531,0,0,1,1.779-.477,1.173,1.173,0,0,1,.8.318,1.168,1.168,0,0,1,.367.783l.4,9.45a6.319,6.319,0,0,1-.63,3.031" transform="translate(100.568 148.844)" fill="#ffcebf"/>
          </g>
          <g id="g57" transform="translate(10.811 21.279)">
            <path id="path59" d="M-7.6-115.281a5.31,5.31,0,0,1,4.549-2.567h.879V-123.3a3.555,3.555,0,0,1,3.555-3.555,1.173,1.173,0,0,1,1.171,1.1l.4,9.451a6.328,6.328,0,0,1-.63,3.031l-1.407,2.9a3.666,3.666,0,0,1-2.058,1.849l-2.988,1.073H-8.368" transform="translate(8.368 126.858)" fill="none" stroke="#000" stroke-linecap="round" stroke-linejoin="round" stroke-miterlimit="10" stroke-width="1"/>
          </g>
          <g id="g61" transform="translate(3.903 26.069)">
            <path id="path63" d="M-100.378-54.885a3.23,3.23,0,0,0,0-4.565,3.23,3.23,0,0,0-4.566,0,3.23,3.23,0,0,0-4.566,0,3.23,3.23,0,0,0,0,4.565l4.13,4.13a.62.62,0,0,0,.877,0Z" transform="translate(110.458 60.396)" fill="#fe76a8"/>
          </g>
          <g id="g65" transform="translate(7.81 26.072)">
            <path id="path67" d="M-61.471-54.858l-4.13,4.13a.619.619,0,0,1-.877,0l-1.166-1.166,3.958-3.959a3.228,3.228,0,0,0,.045-4.515,3.217,3.217,0,0,1,2.166.944,3.229,3.229,0,0,1,0,4.565" transform="translate(67.644 60.367)" fill="#ff5795"/>
          </g>
          <g id="g69" transform="translate(3.903 26.069)">
            <path id="path71" d="M-38.956-84.454l1.161,1.161a.62.62,0,0,0,.877,0l4.13-4.13a3.23,3.23,0,0,0,0-4.565,3.23,3.23,0,0,0-4.566,0,3.23,3.23,0,0,0-4.566,0A3.23,3.23,0,0,0-42-87.5" transform="translate(42.868 92.935)" fill="none" stroke="#000" stroke-linecap="round" stroke-linejoin="round" stroke-miterlimit="10" stroke-width="1"/>
          </g>
          <g id="g73" transform="translate(40.164 10.64)">
            <path id="path75" d="M-169.325-218V-233.9a2.125,2.125,0,0,0-2.125-2.125,2.125,2.125,0,0,0-2.126,2.125v-3.873a2.125,2.125,0,0,0-2.125-2.125,2.125,2.125,0,0,0-2.126,2.125v2.029a2.125,2.125,0,0,0-2.125-2.125h0a2.125,2.125,0,0,0-2.125,2.125v2.509a2.125,2.125,0,0,0-2.125-2.126,2.126,2.126,0,0,0-2.126,2.126v17.18a7.659,7.659,0,0,0,1.548,4.616l1.441,1.907v15.753h11.653v-15.172Z" transform="translate(186.329 239.894)" fill="#ffcebf"/>
          </g>
          <g id="g77" transform="translate(51.815 14.513)">
            <path id="path79" d="M-53.3-21.162V-5.268L-55.665,3.79V18.962h-2.991V3.79l2.363-9.058V-21.162a2.124,2.124,0,0,0-.63-1.511,2.115,2.115,0,0,1,1.495-.614A2.125,2.125,0,0,1-53.3-21.162" transform="translate(58.656 23.287)" fill="#ffb09e"/>
          </g>
          <g id="g81" transform="translate(40.164 10.64)">
            <path id="path83" d="M-145.8-459.277v-15.172l2.363-9.058V-499.4a2.125,2.125,0,0,0-2.125-2.125,2.126,2.126,0,0,0-2.126,2.125v-3.873a2.126,2.126,0,0,0-2.125-2.125,2.126,2.126,0,0,0-2.126,2.125v2.029a2.125,2.125,0,0,0-2.125-2.125h0a2.125,2.125,0,0,0-2.125,2.125v2.509a2.126,2.126,0,0,0-2.125-2.126,2.126,2.126,0,0,0-2.126,2.126v17.18a7.659,7.659,0,0,0,1.548,4.616l1.441,1.907v15.753" transform="translate(160.44 505.399)" fill="none" stroke="#000" stroke-linecap="round" stroke-linejoin="round" stroke-miterlimit="10" stroke-width="1"/>
          </g>
          <g id="g85" transform="translate(52.917 16.638)">
            <path id="path87" d="M0,0V10.9" fill="none" stroke="#000" stroke-linecap="round" stroke-linejoin="round" stroke-miterlimit="10" stroke-width="1"/>
          </g>
          <g id="g89" transform="translate(48.666 14.795)">
            <path id="path91" d="M0,0V12.838" fill="none" stroke="#000" stroke-linecap="round" stroke-linejoin="round" stroke-miterlimit="10" stroke-width="1"/>
          </g>
          <g id="g93" transform="translate(44.415 17.304)">
            <path id="path95" d="M0,0V10.035" fill="none" stroke="#000" stroke-linecap="round" stroke-linejoin="round" stroke-miterlimit="10" stroke-width="1"/>
          </g>
          <g id="g97" transform="translate(50.063 22.19)">
            <path id="path99" d="M-108.714-10.969l.4,9.451a6.328,6.328,0,0,1-.63,3.031l-1.407,2.9a3.666,3.666,0,0,1-2.058,1.849L-115.4,7.332h-4.235V2.252a5.313,5.313,0,0,1,5.313-5.313h.879V-8.516a3.555,3.555,0,0,1,3.555-3.554,1.173,1.173,0,0,1,1.171,1.1" transform="translate(119.632 12.071)" fill="#ffcebf"/>
          </g>
          <g id="g101" transform="translate(51.573 22.19)">
            <path id="path103" d="M-91.39-135.26l-1.406,2.9a3.67,3.67,0,0,1-2.059,1.849l-2.987,1.073h-2.725l2.987-1.073a3.67,3.67,0,0,0,2.059-1.849l1.406-2.9a6.319,6.319,0,0,0,.63-3.031l-.4-9.45a1.175,1.175,0,0,0-.226-.625,3.532,3.532,0,0,1,1.779-.477,1.173,1.173,0,0,1,.8.318,1.169,1.169,0,0,1,.367.783l.4,9.45a6.32,6.32,0,0,1-.63,3.031" transform="translate(100.568 148.844)" fill="#ffb09e"/>
          </g>
          <g id="g105" transform="translate(50.063 30.231)">
            <path id="path107" d="M0-113.139H4.235l2.988-1.073a3.666,3.666,0,0,0,2.058-1.849l1.407-2.9a6.327,6.327,0,0,0,.63-3.031l-.106-2.511" transform="translate(0 124.501)" fill="none" stroke="#000" stroke-linecap="round" stroke-linejoin="round" stroke-miterlimit="10" stroke-width="1"/>
          </g>
          <g id="g109" transform="translate(50.827 22.19)">
            <path id="path111" d="M-102.228-37.4l-.112-2.654a1.173,1.173,0,0,0-1.171-1.1,3.555,3.555,0,0,0-3.555,3.555v5.455h-.879a5.31,5.31,0,0,0-4.549,2.567" transform="translate(112.494 41.153)" fill="none" stroke="#000" stroke-linecap="round" stroke-linejoin="round" stroke-miterlimit="10" stroke-width="1"/>
          </g>
          <g id="g113" transform="translate(43.154 26.979)">
            <path id="path115" d="M-100.378-54.885a3.23,3.23,0,0,0,0-4.565,3.23,3.23,0,0,0-4.566,0,3.23,3.23,0,0,0-4.566,0,3.23,3.23,0,0,0,0,4.565l4.13,4.13a.62.62,0,0,0,.877,0Z" transform="translate(110.458 60.396)" fill="#fe76a8"/>
          </g>
          <g id="g117" transform="translate(47.062 26.982)">
            <path id="path119" d="M-61.471-54.858l-4.13,4.13a.619.619,0,0,1-.877,0l-1.166-1.166,3.958-3.959a3.228,3.228,0,0,0,.045-4.515,3.217,3.217,0,0,1,2.166.944,3.229,3.229,0,0,1,0,4.565" transform="translate(67.644 60.367)" fill="#ff5795"/>
          </g>
          <g id="g121" transform="translate(43.154 26.979)">
            <path id="path123" d="M-100.378-54.885a3.23,3.23,0,0,0,0-4.565,3.23,3.23,0,0,0-4.566,0,3.23,3.23,0,0,0-4.566,0,3.23,3.23,0,0,0,0,4.565l4.13,4.13a.62.62,0,0,0,.877,0Z" transform="translate(110.458 60.396)" fill="none" stroke="#000" stroke-linecap="round" stroke-linejoin="round" stroke-miterlimit="10" stroke-width="1"/>
          </g>
          <g id="g125" transform="translate(20.762 5.537)">
            <path id="path127" d="M-197.044-253.69v-18.5a2.473,2.473,0,0,0-2.473-2.473,2.473,2.473,0,0,0-2.473,2.473v-4.507a2.473,2.473,0,0,0-2.473-2.473,2.474,2.474,0,0,0-2.473,2.473v2.362a2.473,2.473,0,0,0-2.473-2.473,2.473,2.473,0,0,0-2.473,2.473v2.92a2.474,2.474,0,0,0-2.473-2.473,2.474,2.474,0,0,0-2.474,2.473v19.993a8.913,8.913,0,0,0,1.8,5.372l1.677,2.22v15.884h13.561v-15.208Z" transform="translate(216.831 279.166)" fill="#a54f3e"/>
          </g>
          <g id="g129" transform="translate(34.32 10.045)">
            <path id="path131" d="M-62.028-24.627v18.5l-2.749,10.54V19.617h-3.48V4.409l2.75-10.54v-18.5a2.471,2.471,0,0,0-.733-1.758A2.462,2.462,0,0,1-64.5-27.1a2.473,2.473,0,0,1,2.473,2.473" transform="translate(68.257 27.1)" fill="#883f2d"/>
          </g>
          <g id="g133" transform="translate(20.762 5.537)">
            <path id="path135" d="M-169.665-510.088V-525.3l2.749-10.54v-18.5a2.473,2.473,0,0,0-2.473-2.473,2.474,2.474,0,0,0-2.474,2.473v-4.507a2.473,2.473,0,0,0-2.473-2.474h0a2.473,2.473,0,0,0-2.473,2.474v2.361a2.474,2.474,0,0,0-2.473-2.473,2.473,2.473,0,0,0-2.473,2.474v2.92a2.474,2.474,0,0,0-2.473-2.474,2.473,2.473,0,0,0-2.473,2.474v19.993a8.913,8.913,0,0,0,1.8,5.372l1.677,2.22v4.988" transform="translate(186.704 561.312)" fill="none" stroke="#000" stroke-linecap="round" stroke-linejoin="round" stroke-miterlimit="10" stroke-width="1"/>
          </g>
          <g id="g137" transform="translate(24.24 50.172)">
            <path id="path139" d="M0,0V6.59" fill="none" stroke="#000" stroke-linecap="round" stroke-linejoin="round" stroke-miterlimit="10" stroke-width="1"/>
          </g>
          <g id="g141" transform="translate(35.603 12.518)">
            <path id="path143" d="M0,0V12.69" fill="none" stroke="#000" stroke-linecap="round" stroke-linejoin="round" stroke-miterlimit="10" stroke-width="1"/>
          </g>
          <g id="g145" transform="translate(30.656 10.372)">
            <path id="path147" d="M0,0V14.939" fill="none" stroke="#000" stroke-linecap="round" stroke-linejoin="round" stroke-miterlimit="10" stroke-width="1"/>
          </g>
          <g id="g149" transform="translate(25.709 13.293)">
            <path id="path151" d="M0,0V11.678" fill="none" stroke="#000" stroke-linecap="round" stroke-linejoin="round" stroke-miterlimit="10" stroke-width="1"/>
          </g>
          <g id="g153" transform="translate(32.282 18.978)">
            <path id="path155" d="M-126.511-12.765l.466,11a7.363,7.363,0,0,1-.733,3.527l-1.637,3.371a4.266,4.266,0,0,1-2.4,2.151l-3.477,1.249h-4.928V2.621a6.183,6.183,0,0,1,6.183-6.183h1.023V-9.91a4.136,4.136,0,0,1,4.136-4.136,1.365,1.365,0,0,1,1.362,1.282" transform="translate(139.216 14.047)" fill="#a54f3e"/>
          </g>
          <g id="g157" transform="translate(34.039 18.978)">
            <path id="path159" d="M-106.35-157.4l-1.636,3.372a4.27,4.27,0,0,1-2.4,2.152l-3.476,1.249h-3.171l3.476-1.249a4.27,4.27,0,0,0,2.4-2.152l1.636-3.372a7.353,7.353,0,0,0,.733-3.527l-.465-11a1.369,1.369,0,0,0-.263-.727,4.112,4.112,0,0,1,2.071-.555,1.365,1.365,0,0,1,.935.37,1.359,1.359,0,0,1,.427.912l.465,11a7.355,7.355,0,0,1-.733,3.527" transform="translate(117.03 173.21)" fill="#883f2d"/>
          </g>
          <g id="g161" transform="translate(32.282 18.978)">
            <path id="path163" d="M-8.849-134.153a6.179,6.179,0,0,1,5.294-2.988h1.023v-6.348a4.136,4.136,0,0,1,4.136-4.136,1.365,1.365,0,0,1,1.362,1.282l.466,11a7.364,7.364,0,0,1-.733,3.528l-1.637,3.371a4.266,4.266,0,0,1-2.4,2.151l-3.477,1.249H-9.737" transform="translate(9.737 147.625)" fill="none" stroke="#000" stroke-linecap="round" stroke-linejoin="round" stroke-miterlimit="10" stroke-width="1"/>
          </g>
          <g id="g165" transform="translate(24.242 24.552)">
            <path id="path167" d="M-116.81-63.87a3.759,3.759,0,0,0,0-5.313,3.759,3.759,0,0,0-5.313,0,3.759,3.759,0,0,0-5.313,0,3.759,3.759,0,0,0,0,5.313l4.806,4.806a.721.721,0,0,0,1.02,0Z" transform="translate(128.54 70.284)" fill="#fe76a8"/>
          </g>
          <g id="g169" transform="translate(28.789 24.554)">
            <path id="path171" d="M-71.534-63.838l-4.806,4.806a.72.72,0,0,1-1.02,0l-1.357-1.357L-74.112-65a3.757,3.757,0,0,0,.053-5.254,3.744,3.744,0,0,1,2.521,1.1,3.758,3.758,0,0,1,0,5.313" transform="translate(78.717 70.249)" fill="#ff5795"/>
          </g>
          <g id="g173" transform="translate(24.242 24.552)">
            <path id="path175" d="M-116.81-63.87a3.759,3.759,0,0,0,0-5.313,3.759,3.759,0,0,0-5.313,0,3.759,3.759,0,0,0-5.313,0,3.759,3.759,0,0,0,0,5.313l4.806,4.806a.721.721,0,0,0,1.02,0Z" transform="translate(128.54 70.284)" fill="none" stroke="#000" stroke-linecap="round" stroke-linejoin="round" stroke-miterlimit="10" stroke-width="1"/>
          </g>
          <g id="g177" transform="translate(1.407 42.414)">
            <path id="path179" d="M-22.08-.811C-23.456-.272-24.3.448-24.3,1.243s.842,1.515,2.217,2.052a17.454,17.454,0,0,0,6.106.97,17.876,17.876,0,0,0,5.892-.888c1.5-.546,2.431-1.3,2.431-2.133S-8.581-.345-10.083-.892" transform="translate(24.297 0.892)" fill="none" stroke="#000" stroke-linecap="round" stroke-linejoin="round" stroke-miterlimit="10" stroke-width="1"/>
          </g>
          <g id="g181" transform="translate(46.321 52.046)">
            <path id="path183" d="M0,0,.235.647" fill="none" stroke="#000" stroke-linecap="round" stroke-linejoin="round" stroke-miterlimit="10" stroke-width="1"/>
          </g>
          <g id="g185" transform="translate(49.398 54.5)">
            <path id="path187" d="M-1.358,0l-.136.514" transform="translate(1.495)" fill="none" stroke="#000" stroke-linecap="round" stroke-linejoin="round" stroke-miterlimit="10" stroke-width="1"/>
          </g>
          <g id="g189" transform="translate(51.815 51.047)">
            <path id="path191" d="M-2.409,0l-.242,1" transform="translate(2.651)" fill="none" stroke="#000" stroke-linecap="round" stroke-linejoin="round" stroke-miterlimit="10" stroke-width="1"/>
          </g>
        </g>
      </g>
    </g>
  </g>
</svg>
