<svg xmlns="http://www.w3.org/2000/svg" xmlns:xlink="http://www.w3.org/1999/xlink" width="110" height="110" viewBox="0 0 110 110">
  <defs>
    <filter id="Trazado_982547" x="0" y="0" width="110" height="110" filterUnits="userSpaceOnUse">
      <feOffset dy="3" input="SourceAlpha"/>
      <feGaussianBlur stdDeviation="3" result="blur"/>
      <feFlood flood-opacity="0.161"/>
      <feComposite operator="in" in2="blur"/>
      <feComposite in="SourceGraphic"/>
    </filter>
  </defs>
  <g id="Grupo_1215984" data-name="Grupo 1215984" transform="translate(-3603 -11367)">
    <g id="Grupo_1214727" data-name="Grupo 1214727" transform="translate(3612 11373)">
      <g id="Grupo_1200150" data-name="Grupo 1200150" transform="translate(0 0)">
        <g id="Grupo_1185951" data-name="Grupo 1185951" transform="translate(0 0)">
          <g id="Grupo_1184083" data-name="Grupo 1184083" transform="translate(0 0)">
            <g id="Grupo_1183743" data-name="Grupo 1183743">
              <g id="Grupo_1181545" data-name="Grupo 1181545">
                <g id="Grupo_1177562" data-name="Grupo 1177562">
                  <g id="Grupo_1173147" data-name="Grupo 1173147">
                    <g id="Grupo_1163801" data-name="Grupo 1163801">
                      <g id="Grupo_1163014" data-name="Grupo 1163014">
                        <g id="Grupo_1157015" data-name="Grupo 1157015">
                          <g id="Grupo_1155792" data-name="Grupo 1155792">
                            <g id="Grupo_1154703" data-name="Grupo 1154703">
                              <g id="Grupo_1150789" data-name="Grupo 1150789">
                                <g id="Grupo_1154212" data-name="Grupo 1154212">
                                  <g id="Grupo_1152583" data-name="Grupo 1152583">
                                    <g id="Grupo_1146973" data-name="Grupo 1146973">
                                      <g id="Grupo_1146954" data-name="Grupo 1146954">
                                        <g transform="matrix(1, 0, 0, 1, -9, -6)" filter="url(#Trazado_982547)">
                                          <g id="Trazado_982547-2" data-name="Trazado 982547" transform="translate(9 6)" fill="#f9e3d4">
                                            <path d="M 46 90.49986267089844 C 39.99187850952148 90.49986267089844 34.16426849365234 89.32350158691406 28.67905426025391 87.00344848632812 C 23.38021278381348 84.76223754882812 18.62104034423828 81.55340576171875 14.53376007080078 77.46612548828125 C 10.44646644592285 73.37884521484375 7.237653255462646 68.61968994140625 4.996426582336426 63.32084655761719 C 2.676373243331909 57.83563232421875 1.50001335144043 52.00803375244141 1.50001335144043 45.99992752075195 C 1.50001335144043 39.9918212890625 2.676373243331909 34.16422271728516 4.996426582336426 28.67900657653809 C 7.237653255462646 23.38016700744629 10.44646644592285 18.62100791931152 14.53376007080078 14.53372764587402 C 18.62104034423828 10.44644737243652 23.38021278381348 7.237634181976318 28.67905426025391 4.996420860290527 C 34.16426849365234 2.676367521286011 39.99187850952148 1.500007510185242 46 1.500007510185242 C 52.00812149047852 1.500007510185242 57.83572006225586 2.676367521286011 63.32094573974609 4.996420860290527 C 68.61978912353516 7.237634181976318 73.37895965576172 10.44646072387695 77.46623992919922 14.53372764587402 C 81.55353546142578 18.62100791931152 84.76235961914062 23.38016700744629 87.00358581542969 28.67900657653809 C 89.32363891601562 34.16422271728516 90.5 39.9918212890625 90.5 45.99992752075195 C 90.5 52.00803375244141 89.32363891601562 57.83563232421875 87.00358581542969 63.32084655761719 C 84.76235961914062 68.61968994140625 81.55353546142578 73.37884521484375 77.46623992919922 77.46612548828125 C 73.37895965576172 81.55340576171875 68.61978912353516 84.76223754882812 63.32094573974609 87.00344848632812 C 57.83572006225586 89.32350158691406 52.00812149047852 90.49986267089844 46 90.49986267089844 Z" stroke="none"/>
                                            <path d="M 46 3 C 40.1937141418457 3 34.56269836425781 4.136497497558594 29.26338577270508 6.377914428710938 C 24.14332580566406 8.543510437011719 19.54442596435547 11.64438629150391 15.59441375732422 15.59438323974609 C 11.64440155029297 19.54439544677734 8.543525695800781 24.14329528808594 6.3779296875 29.26333999633789 C 4.136497497558594 34.56265640258789 3 40.19365692138672 3 45.99992752075195 C 3 51.80619812011719 4.136497497558594 57.43719863891602 6.3779296875 62.73651123046875 C 8.543525695800781 67.85655212402344 11.64440155029297 72.45545959472656 15.59441375732422 76.40547180175781 C 19.54442596435547 80.35546875 24.14332580566406 83.45634460449219 29.26338577270508 85.62194061279297 C 34.56269836425781 87.86335754394531 40.1937141418457 88.99985504150391 46 88.99985504150391 C 51.8062858581543 88.99985504150391 57.43728637695312 87.86335754394531 62.73661422729492 85.62194061279297 C 67.85665893554688 83.45634460449219 72.45557403564453 80.35546875 76.40558624267578 76.40547180175781 C 80.35559844970703 72.45545959472656 83.45647430419922 67.85655212402344 85.6220703125 62.73651123046875 C 87.86348724365234 57.43719863891602 88.99998474121094 51.80619812011719 88.99998474121094 45.99992752075195 C 88.99998474121094 40.19365692138672 87.86348724365234 34.56265640258789 85.6220703125 29.26333999633789 C 83.45647430419922 24.14329528808594 80.35559844970703 19.54439544677734 76.40558624267578 15.59438323974609 C 72.45557403564453 11.64438629150391 67.85665893554688 8.543510437011719 62.73661422729492 6.377914428710938 C 57.43728637695312 4.136497497558594 51.8062858581543 3 46 3 M 46 0 C 71.40509033203125 0 91.99998474121094 20.59487152099609 91.99998474121094 45.99992752075195 C 91.99998474121094 71.40498352050781 71.40509033203125 91.99985504150391 46 91.99985504150391 C 20.59491729736328 91.99985504150391 0 71.40498352050781 0 45.99992752075195 C 0 20.59487152099609 20.59491729736328 0 46 0 Z" stroke="none" fill="#eca675"/>
                                          </g>
                                        </g>
                                      </g>
                                    </g>
                                  </g>
                                </g>
                              </g>
                            </g>
                          </g>
                        </g>
                      </g>
                    </g>
                  </g>
                </g>
              </g>
            </g>
          </g>
        </g>
      </g>
    </g>
    <g id="libro_1_" data-name="libro (1)" transform="translate(3627 11340.805)">
      <g id="Grupo_1215982" data-name="Grupo 1215982" transform="translate(0.92 54.115)">
        <g id="Grupo_1215980" data-name="Grupo 1215980" transform="translate(0 35.617)">
          <path id="Trazado_1162089" data-name="Trazado 1162089" d="M37.971,351.164v5.289a1.7,1.7,0,0,1-1.7,1.7H9.2a1.7,1.7,0,0,1-1.7-1.7v-5.289Z" transform="translate(-7.5 -351.164)" fill="#d88a55"/>
          <path id="Trazado_1162090" data-name="Trazado 1162090" d="M210.846,351.164v5.289a1.7,1.7,0,0,1-1.7,1.7H213.2a1.7,1.7,0,0,0,1.7-1.7v-5.289Z" transform="translate(-184.423 -351.164)" fill="#c57a44"/>
          <path id="Trazado_1162091" data-name="Trazado 1162091" d="M286.471,351.164v5.289a1.7,1.7,0,0,1-1.7,1.7H257.7a1.7,1.7,0,0,1-1.7-1.7v-5.289Z" transform="translate(-225.529 -351.164)" fill="#d88a55"/>
          <path id="Trazado_1162092" data-name="Trazado 1162092" d="M459.346,351.164v5.289a1.7,1.7,0,0,1-1.7,1.7H461.7a1.7,1.7,0,0,0,1.7-1.7v-5.289Z" transform="translate(-402.452 -351.164)" fill="#c57a44"/>
        </g>
        <path id="Trazado_1162093" data-name="Trazado 1162093" d="M36.274,98.842H9.2a1.7,1.7,0,0,1-1.7-1.7V62.392a1.7,1.7,0,0,1,1.7-1.7H31.1a6.868,6.868,0,0,1,6.868,6.868V97.145a1.7,1.7,0,0,1-1.7,1.7Z" transform="translate(-7.5 -60.695)" fill="#f3f0f3"/>
        <path id="Trazado_1162094" data-name="Trazado 1162094" d="M171.025,60.695h-4.048a6.868,6.868,0,0,1,6.868,6.868V97.145a1.7,1.7,0,0,1-1.7,1.7H176.2a1.7,1.7,0,0,0,1.7-1.7V67.563A6.868,6.868,0,0,0,171.025,60.695Z" transform="translate(-147.422 -60.695)" fill="#e2dee2"/>
        <path id="Trazado_1162095" data-name="Trazado 1162095" d="M284.774,98.842H257.7a1.7,1.7,0,0,1-1.7-1.7V67.563a6.868,6.868,0,0,1,6.868-6.868h21.906a1.7,1.7,0,0,1,1.7,1.7V97.145A1.7,1.7,0,0,1,284.774,98.842Z" transform="translate(-225.529 -60.695)" fill="#f3f0f3"/>
        <path id="Trazado_1162096" data-name="Trazado 1162096" d="M461.7,60.695h-4.048a1.7,1.7,0,0,1,1.7,1.7V97.145a1.7,1.7,0,0,1-1.7,1.7H461.7a1.7,1.7,0,0,0,1.7-1.7V62.392A1.7,1.7,0,0,0,461.7,60.695Z" transform="translate(-402.452 -60.695)" fill="#e2dee2"/>
        <path id="Trazado_1162097" data-name="Trazado 1162097" d="M41.265,290.581H62.113a.765.765,0,0,0,.765-.765V287.87a.765.765,0,0,0-.765-.765H41.265a.765.765,0,0,0-.765.765v1.946A.765.765,0,0,0,41.265,290.581Z" transform="translate(-36.454 -259.343)" fill="#ffd15b"/>
        <g id="Grupo_1215981" data-name="Grupo 1215981" transform="translate(43.473 5.645)">
          <path id="Trazado_1162098" data-name="Trazado 1162098" d="M363.176,114.312l-1.077-2.9a1.056,1.056,0,0,1,.814-1.41l3.046-.515,1.969-2.38a1.056,1.056,0,0,1,1.628,0l1.969,2.38,3.046.515a1.056,1.056,0,0,1,.814,1.41l-1.077,2.9,1.077,2.9a1.056,1.056,0,0,1-.814,1.41l-3.046.515-1.969,2.38a1.056,1.056,0,0,1-1.628,0l-1.969-2.38-3.046-.515a1.056,1.056,0,0,1-.814-1.41Z" transform="translate(-362.032 -106.729)" fill="#ffd15b"/>
          <circle id="Elipse_14326" data-name="Elipse 14326" cx="2.401" cy="2.401" r="2.401" transform="translate(4.309 5.182)" fill="#60b7ff"/>
        </g>
        <path id="Trazado_1162099" data-name="Trazado 1162099" d="M98.108,224.237H89.38a.946.946,0,0,1-.822-1.414l.445-.783a3.161,3.161,0,0,1,2.748-1.6h3.987a3.161,3.161,0,0,1,2.748,1.6l.445.783A.946.946,0,0,1,98.108,224.237Z" transform="translate(-78.508 -200.854)" fill="#d88a55"/>
        <path id="Trazado_1162100" data-name="Trazado 1162100" d="M187.447,381.356l-1.036-.729-1.036.729a1.066,1.066,0,0,1-1.68-.872v-8.69h5.433v8.69A1.066,1.066,0,0,1,187.447,381.356Z" transform="translate(-162.089 -333.647)" fill="#4f66d0"/>
        <path id="Trazado_1162101" data-name="Trazado 1162101" d="M203.011,371.794v9.077l.348-.245,1.036.729a1.066,1.066,0,0,0,1.68-.872v-8.69h-3.064Z" transform="translate(-179.038 -333.647)" fill="#314dc9"/>
      </g>
      <g id="Grupo_1215983" data-name="Grupo 1215983" transform="translate(0 53.195)">
        <path id="Trazado_1162102" data-name="Trazado 1162102" d="M57.217,283.236v-1.946a1.686,1.686,0,0,0-1.685-1.685H34.685A1.686,1.686,0,0,0,33,281.291v1.946a1.687,1.687,0,0,0,1.685,1.685H55.533A1.687,1.687,0,0,0,57.217,283.236Zm-1.839-.155H34.839v-1.636H55.378Z" transform="translate(-28.954 -251.844)"/>
        <path id="Trazado_1162103" data-name="Trazado 1162103" d="M77.045,336.295a.92.92,0,1,0,0,1.839h11.8a.92.92,0,1,0,0-1.839Z" transform="translate(-66.791 -301.581)"/>
        <path id="Trazado_1162104" data-name="Trazado 1162104" d="M282.42,111.378h5.363a.92.92,0,0,0,0-1.839H282.42a.92.92,0,0,0,0,1.839Z" transform="translate(-246.983 -102.63)"/>
        <path id="Trazado_1162105" data-name="Trazado 1162105" d="M282.42,139.723h5.363a.92.92,0,0,0,0-1.839H282.42a.92.92,0,0,0,0,1.839Z" transform="translate(-246.983 -127.499)"/>
        <path id="Trazado_1162106" data-name="Trazado 1162106" d="M282.42,168.068h5.363a.92.92,0,0,0,0-1.839H282.42a.92.92,0,0,0,0,1.839Z" transform="translate(-246.983 -152.369)"/>
        <path id="Trazado_1162107" data-name="Trazado 1162107" d="M282.42,196.411h5.363a.92.92,0,0,0,0-1.839H282.42a.92.92,0,0,0,0,1.839Z" transform="translate(-246.983 -177.236)"/>
        <path id="Trazado_1162108" data-name="Trazado 1162108" d="M282.42,224.756h5.363a.92.92,0,0,0,0-1.839H282.42a.92.92,0,0,0,0,1.839Z" transform="translate(-246.983 -202.106)"/>
        <path id="Trazado_1162109" data-name="Trazado 1162109" d="M282.42,253.1h21.443a.92.92,0,0,0,0-1.839H282.42a.92.92,0,0,0,0,1.839Z" transform="translate(-246.983 -226.975)"/>
        <path id="Trazado_1162110" data-name="Trazado 1162110" d="M282.42,281.445h21.443a.92.92,0,1,0,0-1.839H282.42a.92.92,0,1,0,0,1.839Z" transform="translate(-246.983 -251.844)"/>
        <path id="Trazado_1162111" data-name="Trazado 1162111" d="M282.42,309.789h14.187a.92.92,0,0,0,0-1.839H282.42a.92.92,0,0,0,0,1.839Z" transform="translate(-246.983 -276.712)"/>
        <path id="Trazado_1162112" data-name="Trazado 1162112" d="M436.2,307.95h-2.948a.92.92,0,1,0,0,1.839H436.2a.92.92,0,1,0,0-1.839Z" transform="translate(-379.324 -276.712)"/>
        <path id="Trazado_1162113" data-name="Trazado 1162113" d="M282.42,338.134h21.443a.92.92,0,1,0,0-1.839H282.42a.92.92,0,0,0,0,1.839Z" transform="translate(-246.983 -301.581)"/>
        <path id="Trazado_1162114" data-name="Trazado 1162114" d="M354.8,111.983a1.97,1.97,0,0,0,1.382.96l2.708.458,1.751,2.117a1.97,1.97,0,0,0,1.523.717h0a1.97,1.97,0,0,0,1.523-.717l1.751-2.117,2.708-.458a1.976,1.976,0,0,0,1.523-2.638l-.958-2.574.958-2.574a1.976,1.976,0,0,0-1.523-2.638l-2.708-.458-1.751-2.117a1.976,1.976,0,0,0-3.045,0l-1.751,2.117-2.708.458a1.976,1.976,0,0,0-1.523,2.638l.958,2.574-.958,2.574A1.971,1.971,0,0,0,354.8,111.983Zm2.66-4.572-1.077-2.9a.137.137,0,0,1,.105-.182l3.046-.515a.921.921,0,0,0,.555-.321l1.969-2.38a.137.137,0,0,1,.211,0l1.969,2.38a.92.92,0,0,0,.555.321l3.046.515a.137.137,0,0,1,.105.182l-1.077,2.9a.921.921,0,0,0,0,.641l1.077,2.9a.137.137,0,0,1-.105.182l-3.046.515a.92.92,0,0,0-.555.321l-1.969,2.38a.137.137,0,0,1-.211,0l-1.969-2.38a.92.92,0,0,0-.555-.321l-3.046-.515a.137.137,0,0,1-.105-.182l1.077-2.9A.92.92,0,0,0,357.456,107.41Z" transform="translate(-311.058 -93.583)"/>
        <path id="Trazado_1162115" data-name="Trazado 1162115" d="M392.991,148.133a3.321,3.321,0,1,0-3.321-3.321A3.324,3.324,0,0,0,392.991,148.133Zm0-4.8a1.481,1.481,0,1,1-1.481,1.481A1.483,1.483,0,0,1,392.991,143.331Z" transform="translate(-341.889 -130.665)"/>
        <path id="Trazado_1162116" data-name="Trazado 1162116" d="M60.165,53.195H38.259a7.794,7.794,0,0,0-6.868,4.121,7.794,7.794,0,0,0-6.868-4.121H10.028a.92.92,0,1,0,0,1.839H24.522a5.955,5.955,0,0,1,5.949,5.949V90.564a.778.778,0,0,1-.777.777H2.617a.778.778,0,0,1-.777-.777V55.812a.778.778,0,0,1,.777-.777H5.733a.92.92,0,0,0,0-1.839H2.617A2.62,2.62,0,0,0,0,55.812V95.02a2.62,2.62,0,0,0,2.617,2.617H21.605v3.314a1.979,1.979,0,0,0,1.071,1.763,2.347,2.347,0,0,0,2.565-.5l.507.357h0a2.031,2.031,0,0,0,2.058.138,1.979,1.979,0,0,0,1.071-1.763V97.637h.817a2.6,2.6,0,0,0,1.7-.629,2.6,2.6,0,0,0,1.7.629H60.165a2.62,2.62,0,0,0,2.617-2.617V55.812a2.62,2.62,0,0,0-2.617-2.617ZM38.259,55.034H60.165a.778.778,0,0,1,.777.777V90.564a.778.778,0,0,1-.777.777H33.088a.778.778,0,0,1-.777-.777V60.983A5.955,5.955,0,0,1,38.259,55.034ZM2.617,95.8a.778.778,0,0,1-.777-.777V93.063a2.606,2.606,0,0,0,.777.118H21.6V95.8Zm24.421,5.153a.147.147,0,0,1-.231.12l-1.036-.729a.92.92,0,0,0-1.059,0l-1.036.729a.147.147,0,0,1-.231-.12v-7.77h3.593ZM29.694,95.8h-.817V93.181h.817a2.607,2.607,0,0,0,.777-.118V95.02A.778.778,0,0,1,29.694,95.8Zm30.471,0H33.088a.778.778,0,0,1-.777-.777V93.063a2.606,2.606,0,0,0,.777.118H60.165a2.606,2.606,0,0,0,.777-.118V95.02A.778.778,0,0,1,60.165,95.8Z" transform="translate(0 -53.195)"/>
        <path id="Trazado_1162117" data-name="Trazado 1162117" d="M52.873,96.42a.92.92,0,0,0-.92.92V98.2a7.256,7.256,0,0,0-5.835,1.444c-1.373,1.1-2.255,1.75-2.938,1.408a.92.92,0,1,0-.823,1.645,2.654,2.654,0,0,0,1.2.292,2.824,2.824,0,0,0,.512-.049V105.9a.92.92,0,1,0,1.839,0v-3.788c.42-.282,1.076-.8,1.619-1.24a5.565,5.565,0,0,1,4.421-.8v10.636H50.879a4.089,4.089,0,0,0-3.548,2.064l-.445.783a1.866,1.866,0,0,0,1.622,2.788h8.728a1.866,1.866,0,0,0,1.622-2.788l-.445-.783a4.089,4.089,0,0,0-3.548-2.064H53.792V100.072a5.6,5.6,0,0,1,4.682,1.01c.436.351.889.715,1.358,1.03V105.9a.92.92,0,0,0,1.839,0v-2.955a2.823,2.823,0,0,0,.512.048,2.655,2.655,0,0,0,1.2-.292.92.92,0,1,0-.823-1.645c-.683.341-1.565-.3-2.938-1.408A7.267,7.267,0,0,0,53.792,98.2V97.34A.92.92,0,0,0,52.873,96.42Zm3.942,17.261.445.783a.02.02,0,0,1,0,.026c-.008.013-.012.013-.023.013H48.509c-.011,0-.015,0-.023-.013a.02.02,0,0,1,0-.026l.445-.783a2.246,2.246,0,0,1,1.949-1.133h3.987A2.246,2.246,0,0,1,56.815,113.681Z" transform="translate(-36.718 -91.12)"/>
      </g>
    </g>
  </g>
</svg>
