<svg xmlns="http://www.w3.org/2000/svg" xmlns:xlink="http://www.w3.org/1999/xlink" width="110" height="110" viewBox="0 0 110 110">
  <defs>
    <filter id="Trazado_982547" x="0" y="0" width="110" height="110" filterUnits="userSpaceOnUse">
      <feOffset dy="3" input="SourceAlpha"/>
      <feGaussianBlur stdDeviation="3" result="blur"/>
      <feFlood flood-opacity="0.161"/>
      <feComposite operator="in" in2="blur"/>
      <feComposite in="SourceGraphic"/>
    </filter>
  </defs>
  <g id="Grupo_1215989" data-name="Grupo 1215989" transform="translate(-3918 -11679.525)">
    <g id="Grupo_1214729" data-name="Grupo 1214729" transform="translate(3927 11685.525)">
      <g id="Grupo_1200151" data-name="Grupo 1200151" transform="translate(0 0)">
        <g id="Grupo_1185952" data-name="Grupo 1185952" transform="translate(0 0)">
          <g id="Grupo_1184115" data-name="Grupo 1184115">
            <g id="Grupo_1183744" data-name="Grupo 1183744">
              <g id="Grupo_1181546" data-name="Grupo 1181546">
                <g id="Grupo_1177563" data-name="Grupo 1177563">
                  <g id="Grupo_1173148" data-name="Grupo 1173148">
                    <g id="Grupo_1163803" data-name="Grupo 1163803">
                      <g id="Grupo_1163015" data-name="Grupo 1163015">
                        <g id="Grupo_1157017" data-name="Grupo 1157017">
                          <g id="Grupo_1155793" data-name="Grupo 1155793">
                            <g id="Grupo_1154704" data-name="Grupo 1154704">
                              <g id="Grupo_1150790" data-name="Grupo 1150790">
                                <g id="Grupo_1154214" data-name="Grupo 1154214">
                                  <g id="Grupo_1152583" data-name="Grupo 1152583">
                                    <g id="Grupo_1146973" data-name="Grupo 1146973">
                                      <g id="Grupo_1146954" data-name="Grupo 1146954">
                                        <g transform="matrix(1, 0, 0, 1, -9, -6)" filter="url(#Trazado_982547)">
                                          <g id="Trazado_982547-2" data-name="Trazado 982547" transform="translate(9 6)" fill="#f9e3d4">
                                            <path d="M 46 90.49986267089844 C 39.99187850952148 90.49986267089844 34.16426849365234 89.32350158691406 28.67905426025391 87.00344848632812 C 23.38021278381348 84.76223754882812 18.62104034423828 81.55340576171875 14.53376007080078 77.46612548828125 C 10.44646644592285 73.37884521484375 7.237653255462646 68.61968994140625 4.996426582336426 63.32084655761719 C 2.676373243331909 57.83563232421875 1.50001335144043 52.00803375244141 1.50001335144043 45.99992752075195 C 1.50001335144043 39.9918212890625 2.676373243331909 34.16422271728516 4.996426582336426 28.67900657653809 C 7.237653255462646 23.38016700744629 10.44646644592285 18.62100791931152 14.53376007080078 14.53372764587402 C 18.62104034423828 10.44644737243652 23.38021278381348 7.237634181976318 28.67905426025391 4.996420860290527 C 34.16426849365234 2.676367521286011 39.99187850952148 1.500007510185242 46 1.500007510185242 C 52.00812149047852 1.500007510185242 57.83572006225586 2.676367521286011 63.32094573974609 4.996420860290527 C 68.61978912353516 7.237634181976318 73.37895965576172 10.44646072387695 77.46623992919922 14.53372764587402 C 81.55353546142578 18.62100791931152 84.76235961914062 23.38016700744629 87.00358581542969 28.67900657653809 C 89.32363891601562 34.16422271728516 90.5 39.9918212890625 90.5 45.99992752075195 C 90.5 52.00803375244141 89.32363891601562 57.83563232421875 87.00358581542969 63.32084655761719 C 84.76235961914062 68.61968994140625 81.55353546142578 73.37884521484375 77.46623992919922 77.46612548828125 C 73.37895965576172 81.55340576171875 68.61978912353516 84.76223754882812 63.32094573974609 87.00344848632812 C 57.83572006225586 89.32350158691406 52.00812149047852 90.49986267089844 46 90.49986267089844 Z" stroke="none"/>
                                            <path d="M 46 3 C 40.1937141418457 3 34.56269836425781 4.136497497558594 29.26338577270508 6.377914428710938 C 24.14332580566406 8.543510437011719 19.54442596435547 11.64438629150391 15.59441375732422 15.59438323974609 C 11.64440155029297 19.54439544677734 8.543525695800781 24.14329528808594 6.3779296875 29.26333999633789 C 4.136497497558594 34.56265640258789 3 40.19365692138672 3 45.99992752075195 C 3 51.80619812011719 4.136497497558594 57.43719863891602 6.3779296875 62.73651123046875 C 8.543525695800781 67.85655212402344 11.64440155029297 72.45545959472656 15.59441375732422 76.40547180175781 C 19.54442596435547 80.35546875 24.14332580566406 83.45634460449219 29.26338577270508 85.62194061279297 C 34.56269836425781 87.86335754394531 40.1937141418457 88.99985504150391 46 88.99985504150391 C 51.8062858581543 88.99985504150391 57.43728637695312 87.86335754394531 62.73661422729492 85.62194061279297 C 67.85665893554688 83.45634460449219 72.45557403564453 80.35546875 76.40558624267578 76.40547180175781 C 80.35559844970703 72.45545959472656 83.45647430419922 67.85655212402344 85.6220703125 62.73651123046875 C 87.86348724365234 57.43719863891602 88.99998474121094 51.80619812011719 88.99998474121094 45.99992752075195 C 88.99998474121094 40.19365692138672 87.86348724365234 34.56265640258789 85.6220703125 29.26333999633789 C 83.45647430419922 24.14329528808594 80.35559844970703 19.54439544677734 76.40558624267578 15.59438323974609 C 72.45557403564453 11.64438629150391 67.85665893554688 8.543510437011719 62.73661422729492 6.377914428710938 C 57.43728637695312 4.136497497558594 51.8062858581543 3 46 3 M 46 0 C 71.40509033203125 0 91.99998474121094 20.59487152099609 91.99998474121094 45.99992752075195 C 91.99998474121094 71.40498352050781 71.40509033203125 91.99985504150391 46 91.99985504150391 C 20.59491729736328 91.99985504150391 0 71.40498352050781 0 45.99992752075195 C 0 20.59487152099609 20.59491729736328 0 46 0 Z" stroke="none" fill="#eca675"/>
                                          </g>
                                        </g>
                                      </g>
                                    </g>
                                  </g>
                                </g>
                              </g>
                            </g>
                          </g>
                        </g>
                      </g>
                    </g>
                  </g>
                </g>
              </g>
            </g>
          </g>
        </g>
      </g>
    </g>
    <g id="igualdad-de-genero" transform="translate(3941.001 11676.099)">
      <g id="Grupo_1215986" data-name="Grupo 1215986" transform="translate(0.923 28.15)">
        <path id="Trazado_1162118" data-name="Trazado 1162118" d="M27.522,44.336a10.011,10.011,0,1,0-11.856,9.84v3.548H12.82a1.845,1.845,0,1,0,0,3.691h2.846V64.1a1.845,1.845,0,1,0,3.691,0V61.415H22.2a1.845,1.845,0,1,0,0-3.691H19.356V54.176a10.027,10.027,0,0,0,8.166-9.84Zm-16.331,0a6.32,6.32,0,1,1,6.32,6.32A6.327,6.327,0,0,1,11.191,44.336Z" transform="translate(-7.5 -34.325)" fill="#ee6161"/>
        <path id="Trazado_1162119" data-name="Trazado 1162119" d="M297.438,60.666a10.754,10.754,0,0,0-6.226,1.977l-4.189-4.19h2.1a1.845,1.845,0,1,0,0-3.691h-6.558a1.845,1.845,0,0,0-1.845,1.845V63.2a1.845,1.845,0,1,0,3.691,0V61.063l4.19,4.19a10.81,10.81,0,1,0,8.836-4.587Zm0,17.935a7.122,7.122,0,1,1,7.122-7.122A7.13,7.13,0,0,1,297.438,78.6Z" transform="translate(-247.111 -52.249)" fill="#5f99d7"/>
        <circle id="Elipse_14327" data-name="Elipse 14327" cx="5.044" cy="5.044" r="5.044" transform="translate(25.526 43.336)" fill="#ffd15b"/>
        <path id="Trazado_1162120" data-name="Trazado 1162120" d="M242.845,386.6a5.027,5.027,0,0,0-1.845.35,5.043,5.043,0,0,1,0,9.388,5.044,5.044,0,1,0,1.845-9.738Z" transform="translate(-212.275 -343.265)" fill="#ffc344"/>
        <path id="Trazado_1162121" data-name="Trazado 1162121" d="M29.085,332.221H10.519A3.019,3.019,0,0,1,7.5,329.2v-.536a.874.874,0,0,1,.874-.874H31.23a.874.874,0,0,1,.874.874v.536a3.019,3.019,0,0,1-3.019,3.019Z" transform="translate(-7.5 -291.69)" fill="#ffe177"/>
        <path id="Trazado_1162122" data-name="Trazado 1162122" d="M158.8,327.792h-3.691a.874.874,0,0,1,.874.874v.536a3.019,3.019,0,0,1-3.019,3.019h3.691a3.019,3.019,0,0,0,3.019-3.019v-.536A.874.874,0,0,0,158.8,327.792Z" transform="translate(-135.066 -291.69)" fill="#ffd15b"/>
        <path id="Trazado_1162123" data-name="Trazado 1162123" d="M326.085,332.221H307.519A3.019,3.019,0,0,1,304.5,329.2v-.536a.874.874,0,0,1,.874-.874H328.23a.874.874,0,0,1,.874.874v.536A3.019,3.019,0,0,1,326.085,332.221Z" transform="translate(-267.964 -291.69)" fill="#ffe177"/>
        <path id="Trazado_1162124" data-name="Trazado 1162124" d="M455.8,327.792h-3.691a.873.873,0,0,1,.874.874v.536a3.019,3.019,0,0,1-3.019,3.019h3.691a3.019,3.019,0,0,0,3.019-3.019v-.536A.873.873,0,0,0,455.8,327.792Z" transform="translate(-395.529 -291.69)" fill="#ffd15b"/>
        <path id="Trazado_1162125" data-name="Trazado 1162125" d="M189.651,451.016H168v-2.46a1.23,1.23,0,0,1,1.23-1.23h19.191a1.23,1.23,0,0,1,1.23,1.23Z" transform="translate(-148.256 -396.519)" fill="#ffe177"/>
        <path id="Trazado_1162126" data-name="Trazado 1162126" d="M307.691,447.325H304a1.23,1.23,0,0,1,1.23,1.23v2.46h3.691v-2.46A1.23,1.23,0,0,0,307.691,447.325Z" transform="translate(-267.525 -396.519)" fill="#ffd15b"/>
      </g>
      <g id="Grupo_1215988" data-name="Grupo 1215988" transform="translate(0 27.284)">
        <g id="Grupo_1215987" data-name="Grupo 1215987">
          <path id="Trazado_1162127" data-name="Trazado 1162127" d="M8.166,48.74v1.887H6.243a2.768,2.768,0,0,0,0,5.536H8.166V57.92a2.768,2.768,0,0,0,5.536,0V56.162h1.923a2.768,2.768,0,0,0,0-5.536H13.7V48.74a10.938,10.938,0,0,0,8.166-10.579c-.6-14.5-21.269-14.5-21.867,0A10.938,10.938,0,0,0,8.166,48.74Zm2.768-19.667c11.015.3,12.434,15.71,1.676,18.022a.923.923,0,0,0-.753.907V51.55a.923.923,0,0,0,.923.923h2.846a.923.923,0,0,1,0,1.845H12.779a.923.923,0,0,0-.923.923v2.681a.923.923,0,0,1-1.845,0V55.24a.923.923,0,0,0-.923-.923H6.243a.923.923,0,0,1,0-1.845H9.088a.923.923,0,0,0,.923-.923V48a.923.923,0,0,0-.753-.907C-1.508,44.778-.073,29.37,10.934,29.073Z" transform="translate(0 -27.284)"/>
          <path id="Trazado_1162128" data-name="Trazado 1162128" d="M37.243,71.577a7.251,7.251,0,0,0,7.243-7.243c-.4-9.609-14.09-9.606-14.486,0A7.251,7.251,0,0,0,37.243,71.577Zm0-12.641a5.4,5.4,0,1,1-5.4,5.4A5.4,5.4,0,0,1,37.243,58.936Z" transform="translate(-26.309 -53.457)"/>
          <path id="Trazado_1162129" data-name="Trazado 1162129" d="M275.991,59.388a2.771,2.771,0,0,0,2.766-2.678l2.085,2.085a11.734,11.734,0,1,0,20.424.681.923.923,0,0,0-1.635.856,9.888,9.888,0,1,1-16.852-1.125.923.923,0,0,0-.1-1.185l-4.19-4.19a.923.923,0,0,0-1.575.652V56.62a.923.923,0,0,1-1.845,0V50.03a.924.924,0,0,1,.923-.923h6.558a.923.923,0,0,1,0,1.845h-2.1a.923.923,0,0,0-.652,1.575l4.19,4.19a.923.923,0,0,0,1.185.1,9.914,9.914,0,0,1,11.989.461.923.923,0,1,0,1.176-1.422,11.77,11.77,0,0,0-13.577-.976L282.671,52.8a2.768,2.768,0,0,0-.121-5.533h-6.558a2.771,2.771,0,0,0-2.768,2.768v6.59a2.771,2.771,0,0,0,2.768,2.768Z" transform="translate(-239.612 -44.804)"/>
          <path id="Trazado_1162130" data-name="Trazado 1162130" d="M359.254,125.249a8.054,8.054,0,0,0-8.045,8.045c.442,10.673,15.649,10.67,16.09,0a8.054,8.054,0,0,0-8.045-8.045Zm0,14.244a6.2,6.2,0,1,1,6.2-6.2A6.207,6.207,0,0,1,359.254,139.493Z" transform="translate(-308.004 -113.198)"/>
          <path id="Trazado_1162131" data-name="Trazado 1162131" d="M61.189,320.292H38.333a1.8,1.8,0,0,0-1.8,1.8v.536a3.946,3.946,0,0,0,3.941,3.941h6.041c-1.781,1.462-4.852,2.94-10.131,3.519a5.981,5.981,0,0,0-9.793.006c-5.309-.574-8.382-2.056-10.158-3.525h6.071a3.946,3.946,0,0,0,3.941-3.941v-.536a1.8,1.8,0,0,0-1.8-1.8H10.734a.923.923,0,0,0,0,1.845H24.6v.487a2.1,2.1,0,0,1-2.1,2.1H3.942a2.1,2.1,0,0,1-2.1-2.1v-.487H6.432a.923.923,0,0,0,0-1.845H1.8a1.8,1.8,0,0,0-1.8,1.8v.536a3.946,3.946,0,0,0,3.941,3.941h9.893c1.626,1.982,5,4.414,11.921,5.285a6.027,6.027,0,0,0-.04,3.146H21.9a2.155,2.155,0,0,0-2.153,2.153v2.46a.923.923,0,0,0,.923.923H32.259a.923.923,0,0,0,0-1.845H21.59V337.15a.308.308,0,0,1,.308-.308H41.088a.308.308,0,0,1,.308.308v1.538H36.536a.923.923,0,0,0,0,1.845h5.782a.923.923,0,0,0,.923-.923v-2.46A2.155,2.155,0,0,0,41.088,335H37.266a6,6,0,0,0-.039-3.153c6.9-.877,10.27-3.3,11.9-5.277h9.914a3.946,3.946,0,0,0,3.941-3.941v-.536A1.8,1.8,0,0,0,61.189,320.292ZM27.654,335a4.122,4.122,0,1,1,7.677,0ZM61.14,322.625a2.1,2.1,0,0,1-2.1,2.1H40.478a2.1,2.1,0,0,1-2.1-2.1v-.487H61.14Z" transform="translate(0 -284.247)"/>
        </g>
      </g>
    </g>
  </g>
</svg>
