<svg xmlns="http://www.w3.org/2000/svg" xmlns:xlink="http://www.w3.org/1999/xlink" width="113" height="113" viewBox="0 0 113 113">
  <defs>
    <filter id="Trazado_982547" x="0" y="0" width="113" height="113" filterUnits="userSpaceOnUse">
      <feOffset dy="3" input="SourceAlpha"/>
      <feGaussianBlur stdDeviation="3" result="blur"/>
      <feFlood flood-opacity="0.161"/>
      <feComposite operator="in" in2="blur"/>
      <feComposite in="SourceGraphic"/>
    </filter>
  </defs>
  <g id="Grupo_1215721" data-name="Grupo 1215721" transform="translate(-1162.499 -1171.1)">
    <g id="Grupo_1211243" data-name="Grupo 1211243" transform="translate(-0.001 -10382)">
      <g id="Grupo_1210101" data-name="Grupo 1210101" transform="translate(0 4024.292)">
        <g id="Grupo_1208707" data-name="Grupo 1208707" transform="translate(-1.454 3213.429)">
          <g id="Grupo_1148635" data-name="Grupo 1148635" transform="translate(908.908 600.047)">
            <g id="Grupo_1148525" data-name="Grupo 1148525" transform="translate(264.046 3721.333)">
              <g transform="matrix(1, 0, 0, 1, -9, -6)" filter="url(#Trazado_982547)">
                <g id="Trazado_982547-2" data-name="Trazado 982547" transform="translate(9 6)" fill="#f9e3d4">
                  <path d="M 47.5 93.5 C 41.28937149047852 93.5 35.26533508300781 92.28397369384766 29.59518623352051 89.88570404052734 C 24.11771965026855 87.56893157958984 19.19813346862793 84.25196075439453 14.97309303283691 80.02691650390625 C 10.74804019927979 75.80186462402344 7.431066513061523 70.88229370117188 5.114293098449707 65.40481567382812 C 2.716026782989502 59.73468017578125 1.5 53.71062850952148 1.5 47.5 C 1.5 41.28937149047852 2.716026782989502 35.26533508300781 5.114293098449707 29.59518623352051 C 7.431066513061523 24.11771965026855 10.74804019927979 19.19813346862793 14.97309303283691 14.97309303283691 C 19.19813346862793 10.74804019927979 24.11771965026855 7.431066513061523 29.59518623352051 5.114293098449707 C 35.26533508300781 2.716026782989502 41.28937149047852 1.5 47.5 1.5 C 53.71062850952148 1.5 59.73468017578125 2.716026782989502 65.40481567382812 5.114293098449707 C 70.88229370117188 7.431066513061523 75.80186462402344 10.74804019927979 80.02691650390625 14.97309303283691 C 84.25196075439453 19.19813346862793 87.56893157958984 24.11771965026855 89.88570404052734 29.59518623352051 C 92.28397369384766 35.26533508300781 93.5 41.28937149047852 93.5 47.5 C 93.5 53.71062850952148 92.28397369384766 59.73468017578125 89.88570404052734 65.40481567382812 C 87.56893157958984 70.88229370117188 84.25196075439453 75.80186462402344 80.02691650390625 80.02691650390625 C 75.80186462402344 84.25196075439453 70.88229370117188 87.56893157958984 65.40481567382812 89.88570404052734 C 59.73468017578125 92.28397369384766 53.71062850952148 93.5 47.5 93.5 Z" stroke="none"/>
                  <path d="M 47.5 3 C 41.49121475219727 3 35.66376876831055 4.176155090332031 30.17950439453125 6.495796203613281 C 24.88084411621094 8.736953735351562 20.12152099609375 11.94598388671875 16.03375244140625 16.03375244140625 C 11.94598388671875 20.12152099609375 8.736953735351562 24.88084411621094 6.495796203613281 30.17950439453125 C 4.176155090332031 35.66376876831055 3 41.49121475219727 3 47.5 C 3 53.50878524780273 4.176155090332031 59.33623123168945 6.495796203613281 64.82049560546875 C 8.736953735351562 70.11915588378906 11.94598388671875 74.87847900390625 16.03375244140625 78.96624755859375 C 20.12152099609375 83.05401611328125 24.88084411621094 86.26304626464844 30.17950439453125 88.50419616699219 C 35.66376876831055 90.82384490966797 41.49121475219727 92 47.5 92 C 53.50878524780273 92 59.33623123168945 90.82384490966797 64.82049560546875 88.50419616699219 C 70.11915588378906 86.26304626464844 74.87847900390625 83.05401611328125 78.96624755859375 78.96624755859375 C 83.05401611328125 74.87847900390625 86.26304626464844 70.11915588378906 88.50419616699219 64.82049560546875 C 90.82384490966797 59.33623123168945 92 53.50878524780273 92 47.5 C 92 41.49121475219727 90.82384490966797 35.66376876831055 88.50419616699219 30.17950439453125 C 86.26304626464844 24.88084411621094 83.05401611328125 20.12152099609375 78.96624755859375 16.03375244140625 C 74.87847900390625 11.94598388671875 70.11915588378906 8.736953735351562 64.82049560546875 6.495796203613281 C 59.33623123168945 4.176155090332031 53.50878524780273 3 47.5 3 M 47.5 0 C 73.7335205078125 0 95 21.2664794921875 95 47.5 C 95 73.7335205078125 73.7335205078125 95 47.5 95 C 21.2664794921875 95 0 73.7335205078125 0 47.5 C 0 21.2664794921875 21.2664794921875 0 47.5 0 Z" stroke="none" fill="#eca675"/>
                </g>
              </g>
            </g>
          </g>
        </g>
      </g>
    </g>
    <g id="urna-electoral_1_" data-name="urna-electoral (1)" transform="translate(1181.393 1197.267)">
      <g id="Grupo_1215719" data-name="Grupo 1215719" transform="translate(1.889 1.082)">
        <path id="Trazado_1160367" data-name="Trazado 1160367" d="M75.515,177.493a4.228,4.228,0,0,1,4.228,4.228v38.7a4.228,4.228,0,0,1-4.228,4.228H12.535a4.228,4.228,0,0,1-4.228-4.228v-38.7a4.228,4.228,0,0,1,4.228-4.228Z" transform="translate(-8.307 -152.976)" fill="#e4c6bd"/>
        <path id="Trazado_1160368" data-name="Trazado 1160368" d="M17.583,221.435a4.228,4.228,0,0,1-4.228-4.228v-38.7a4.242,4.242,0,0,1,.124-1.02h-.945a4.228,4.228,0,0,0-4.228,4.228v38.7a4.228,4.228,0,0,0,4.228,4.228H75.515a4.229,4.229,0,0,0,4.1-3.208H17.583Z" transform="translate(-8.307 -152.975)" fill="#d9b3a6"/>
        <g id="Grupo_1215718" data-name="Grupo 1215718" transform="translate(8.455)">
          <path id="Trazado_1160369" data-name="Trazado 1160369" d="M120.2,303.564H68.045a1.114,1.114,0,0,1-1.114-1.114V276.688a1.114,1.114,0,0,1,1.114-1.114H120.2a1.114,1.114,0,0,1,1.114,1.114v25.763A1.113,1.113,0,0,1,120.2,303.564Z" transform="translate(-66.931 -236.912)" fill="#d1a08f"/>
          <path id="Trazado_1160370" data-name="Trazado 1160370" d="M196.342,39.589,206,16.721a.585.585,0,0,0-.311-.766l-19.909-8.4a.585.585,0,0,0-.766.311L171.616,39.589Z" transform="translate(-156.518 -7.504)" fill="#f8f6f6"/>
          <path id="Trazado_1160371" data-name="Trazado 1160371" d="M178.878,33.329l10.28-24.351L185.777,7.55a.585.585,0,0,0-.766.311L171.617,39.588h24.726l1.592-3.771H180.528a1.791,1.791,0,0,1-1.65-2.488Z" transform="translate(-156.519 -7.504)" fill="#f3eae6"/>
        </g>
      </g>
      <g id="Grupo_1215720" data-name="Grupo 1215720" transform="translate(0.807 0)">
        <path id="Trazado_1160372" data-name="Trazado 1160372" d="M61.626,270.237h5.8a1.082,1.082,0,0,0,0-2.163h-5.8a2.2,2.2,0,0,0-2.2,2.2v25.763a2.2,2.2,0,0,0,2.2,2.2h52.155a2.2,2.2,0,0,0,2.2-2.2V270.269a2.2,2.2,0,0,0-2.2-2.2H72.041a1.082,1.082,0,0,0,0,2.163h41.74a.032.032,0,0,1,.032.032v25.763a.032.032,0,0,1-.032.032H61.626a.032.032,0,0,1-.032-.032V270.269A.032.032,0,0,1,61.626,270.237Z" transform="translate(-50.976 -229.411)"/>
        <path id="Trazado_1160373" data-name="Trazado 1160373" d="M73.325,41.668a1.082,1.082,0,0,0,1.082-1.082V29.827A5.315,5.315,0,0,0,69.1,24.517h-14.1l5.825-13.8a1.668,1.668,0,0,0-.887-2.183L40.022.132a1.666,1.666,0,0,0-2.184.887L34.469,9a1.082,1.082,0,0,0,1.993.841l3.177-7.525,18.993,8.018L49.45,32.085H27.073l7.6-17.994a1.082,1.082,0,1,0-1.993-.841L27.919,24.517H6.116A5.315,5.315,0,0,0,.807,29.827v38.7a5.315,5.315,0,0,0,5.309,5.309H69.1a5.315,5.315,0,0,0,5.309-5.309V45.2a1.082,1.082,0,1,0-2.163,0V68.523A3.15,3.15,0,0,1,69.1,71.669H6.116A3.15,3.15,0,0,1,2.97,68.523v-38.7a3.149,3.149,0,0,1,3.146-3.146h20.89l-2.281,5.4H18.881a1.082,1.082,0,1,0,0,2.163H56.551a1.082,1.082,0,0,0,0-2.163H51.8l2.281-5.4H69.1a3.149,3.149,0,0,1,3.146,3.146V40.586a1.081,1.081,0,0,0,1.082,1.082Z" transform="translate(-0.807 0)"/>
        <path id="Trazado_1160374" data-name="Trazado 1160374" d="M289.5,79.729a1.081,1.081,0,0,0,1.408.6l1.833-.741a1.082,1.082,0,0,0,.6-1.407l-3.549-8.813a1.082,1.082,0,0,0-2.007.808l3.145,7.811-.831.336A1.082,1.082,0,0,0,289.5,79.729Z" transform="translate(-246.324 -58.78)"/>
        <path id="Trazado_1160375" data-name="Trazado 1160375" d="M343.794,336.842a1.082,1.082,0,1,0,0-2.163h-3.7a1.082,1.082,0,0,0-1.082,1.082v8.778a1.082,1.082,0,0,0,1.082,1.082h3.7a1.082,1.082,0,1,0,0-2.163h-2.617v-2.225h2.344a1.082,1.082,0,1,0,0-2.163h-2.344v-2.226Z" transform="translate(-290.236 -286.41)"/>
        <path id="Trazado_1160376" data-name="Trazado 1160376" d="M135.564,345.419h.009a1.284,1.284,0,0,0,1.207-.876l2.892-8.707a1.082,1.082,0,0,0-2.053-.682l-2.074,6.241-2.177-6.271a1.082,1.082,0,0,0-2.044.709l3.031,8.733A1.283,1.283,0,0,0,135.564,345.419Z" transform="translate(-112.45 -286.168)"/>
        <path id="Trazado_1160377" data-name="Trazado 1160377" d="M282.446,345.421a1.082,1.082,0,0,0,1.082-1.082v-7.777H284.9a1.082,1.082,0,0,0,0-2.163H280.01a1.082,1.082,0,1,0,0,2.163h1.355v7.777A1.082,1.082,0,0,0,282.446,345.421Z" transform="translate(-238.816 -286.17)"/>
        <path id="Trazado_1160378" data-name="Trazado 1160378" d="M207.245,339.91a5.511,5.511,0,1,0-5.511,5.511A5.517,5.517,0,0,0,207.245,339.91Zm-8.859,0a3.348,3.348,0,1,1,3.348,3.348A3.351,3.351,0,0,1,198.386,339.91Z" transform="translate(-168.039 -286.17)"/>
      </g>
    </g>
  </g>
</svg>
