<svg xmlns="http://www.w3.org/2000/svg" xmlns:xlink="http://www.w3.org/1999/xlink" width="108" height="108" viewBox="0 0 108 108">
  <defs>
    <filter id="Trazado_904820" x="0" y="0" width="108" height="108" filterUnits="userSpaceOnUse">
      <feOffset dy="3" input="SourceAlpha"/>
      <feGaussianBlur stdDeviation="3" result="blur"/>
      <feFlood flood-opacity="0.161"/>
      <feComposite operator="in" in2="blur"/>
      <feComposite in="SourceGraphic"/>
    </filter>
  </defs>
  <g id="Grupo_1215361" data-name="Grupo 1215361" transform="translate(-197 -508)">
    <g id="Grupo_1209015" data-name="Grupo 1209015" transform="translate(0 -2158.055)">
      <g id="Grupo_1207774" data-name="Grupo 1207774" transform="translate(206 2670.713)">
        <g id="Grupo_1206630" data-name="Grupo 1206630" transform="translate(0 1.342)">
          <g id="Grupo_1185091" data-name="Grupo 1185091" transform="translate(0 0)">
            <g id="Grupo_1179560" data-name="Grupo 1179560">
              <g id="Grupo_1173787" data-name="Grupo 1173787" transform="translate(0)">
                <g id="Grupo_1171910" data-name="Grupo 1171910">
                  <g id="Grupo_1167341" data-name="Grupo 1167341">
                    <g id="Grupo_1166792" data-name="Grupo 1166792">
                      <g transform="matrix(1, 0, 0, 1, -9, -6)" filter="url(#Trazado_904820)">
                        <g id="Trazado_904820-2" data-name="Trazado 904820" transform="translate(9 6)" fill="#e7f2f8">
                          <path d="M 44.99999618530273 88.50006866455078 C 39.12687301635742 88.50006866455078 33.43022155761719 87.35014343261719 28.06829643249512 85.08222961425781 C 22.88852119445801 82.89136505126953 18.23629570007324 79.75465393066406 14.24084663391113 75.75919342041016 C 10.24540901184082 71.76374053955078 7.108683586120605 67.11151885986328 4.917821407318115 61.93174362182617 C 2.649921178817749 56.56980514526367 1.499996185302734 50.87315368652344 1.499996185302734 45.00003051757812 C 1.499996185302734 39.12690734863281 2.649921178817749 33.43025588989258 4.917821407318115 28.06831741333008 C 7.108683586120605 22.88854217529297 10.24540901184082 18.23631858825684 14.24084663391113 14.24086761474609 C 18.23629570007324 10.24541759490967 22.88852119445801 7.10869312286377 28.06829643249512 4.917842864990234 C 33.43022155761719 2.649930477142334 39.12687301635742 1.500005483627319 44.99999618530273 1.500005483627319 C 50.87311935424805 1.500005483627319 56.56977081298828 2.649930477142334 61.93169784545898 4.917842864990234 C 67.11147308349609 7.10869312286377 71.76369476318359 10.24541759490967 75.75914764404297 14.24086761474609 C 79.75458526611328 18.23631858825684 82.89131164550781 22.88854217529297 85.08216857910156 28.06831741333008 C 87.35007476806641 33.43025588989258 88.5 39.12690734863281 88.5 45.00003051757812 C 88.5 50.87315368652344 87.35007476806641 56.56980514526367 85.08216857910156 61.93174362182617 C 82.89131164550781 67.11151885986328 79.75458526611328 71.76374053955078 75.75914764404297 75.75919342041016 C 71.76369476318359 79.75465393066406 67.11147308349609 82.89136505126953 61.93169784545898 85.08222961425781 C 56.56977081298828 87.35014343261719 50.87311935424805 88.50006866455078 44.99999618530273 88.50006866455078 Z" stroke="none"/>
                          <path d="M 44.99999618530273 3 C 39.32870864868164 3 33.82865142822266 4.110061645507812 28.65262603759766 6.299346923828125 C 23.65165710449219 8.414573669433594 19.15968322753906 11.44334411621094 15.301513671875 15.30152893066406 C 11.44333648681641 19.15969848632812 8.414566040039062 23.65167236328125 6.299339294433594 28.65264511108398 C 4.110054016113281 33.82868576049805 2.999992370605469 39.32874298095703 2.999992370605469 45.00003051757812 C 2.999992370605469 50.67131805419922 4.110054016113281 56.1713752746582 6.299339294433594 61.34741592407227 C 8.414566040039062 66.348388671875 11.44333648681641 70.84036254882812 15.301513671875 74.69853210449219 C 19.15968322753906 78.55671691894531 23.65165710449219 81.58548736572266 28.65262603759766 83.70071411132812 C 33.82865142822266 85.88999938964844 39.32870864868164 87.00006103515625 44.99999618530273 87.00006103515625 C 50.67128372192383 87.00006103515625 56.17134094238281 85.88999938964844 61.34736633300781 83.70071411132812 C 66.34834289550781 81.58548736572266 70.84030914306641 78.55671691894531 74.69847869873047 74.69853210449219 C 78.55665588378906 70.84036254882812 81.58542633056641 66.348388671875 83.70065307617188 61.34741592407227 C 85.88993835449219 56.1713752746582 87 50.67131805419922 87 45.00003051757812 C 87 39.32874298095703 85.88993835449219 33.82868576049805 83.70065307617188 28.65264511108398 C 81.58542633056641 23.65167236328125 78.55665588378906 19.15969848632812 74.69847869873047 15.30152893066406 C 70.84030914306641 11.44334411621094 66.34834289550781 8.414573669433594 61.34736633300781 6.299346923828125 C 56.17134094238281 4.110061645507812 50.67128372192383 3 44.99999618530273 3 M 44.99999618530273 0 C 69.85281372070312 0 90 20.14720153808594 90 45.00003051757812 C 90 69.85285949707031 69.85281372070312 90.00006103515625 44.99999618530273 90.00006103515625 C 20.14717864990234 90.00006103515625 -7.62939453125e-06 69.85285949707031 -7.62939453125e-06 45.00003051757812 C -7.62939453125e-06 20.14720153808594 20.14717864990234 0 44.99999618530273 0 Z" stroke="none" fill="#248abf"/>
                        </g>
                      </g>
                    </g>
                  </g>
                </g>
              </g>
            </g>
          </g>
        </g>
      </g>
    </g>
    <g id="constitucion" transform="translate(214.503 535.204)">
      <g id="Grupo_1215358" data-name="Grupo 1215358" transform="translate(3.431 1.008)">
        <path id="Trazado_1087852" data-name="Trazado 1087852" d="M22.774,7.5V22.166H12.634A2.715,2.715,0,0,1,9.92,19.452V13.927A6.424,6.424,0,0,1,16.347,7.5Z" transform="translate(-9.92 -7.5)" fill="#f6a96c"/>
        <path id="Trazado_1087853" data-name="Trazado 1087853" d="M51.2,7.5V22.166H47.168V13.927a6.435,6.435,0,0,0-4.41-6.1A6.4,6.4,0,0,1,44.772,7.5Z" transform="translate(-38.346 -7.5)" fill="#ea9b58"/>
        <path id="Trazado_1087854" data-name="Trazado 1087854" d="M108.022,13.927v57.64a2.714,2.714,0,0,1-2.714,2.714H66.889a2.714,2.714,0,0,1-2.714-2.714V13.927A6.426,6.426,0,0,0,57.748,7.5H101.6a6.426,6.426,0,0,1,6.425,6.427Z" transform="translate(-51.321 -7.5)" fill="#ffe5c2"/>
        <path id="Trazado_1087855" data-name="Trazado 1087855" d="M364.534,13.927v57.64a2.714,2.714,0,0,1-2.714,2.714h-4.031a2.714,2.714,0,0,0,2.714-2.714V13.927A6.426,6.426,0,0,0,354.078,7.5h4.031a6.426,6.426,0,0,1,6.425,6.427Z" transform="translate(-307.834 -7.5)" fill="#fed2a4"/>
        <path id="Trazado_1087856" data-name="Trazado 1087856" d="M362.557,148.1v17.523l-.18.318a12.753,12.753,0,0,1-9.5,6.374,12.75,12.75,0,0,1,.564-11.424l2.644-4.677A32.827,32.827,0,0,1,362.557,148.1Z" transform="translate(-305.857 -129.208)" fill="#fed2a4"/>
        <path id="Trazado_1087857" data-name="Trazado 1087857" d="M206.184,63.516h-20.45a1.068,1.068,0,0,1-1.068-1.068V59.356a1.068,1.068,0,0,1,1.068-1.068h20.45a1.068,1.068,0,0,1,1.068,1.068v3.093A1.068,1.068,0,0,1,206.184,63.516Z" transform="translate(-161.187 -51.464)" fill="#d9b1ee"/>
        <path id="Trazado_1087858" data-name="Trazado 1087858" d="M236.493,259.824h-9.97a.789.789,0,0,1-.753-1.023l.358-1.152A2.344,2.344,0,0,1,228.366,256h6.284a2.344,2.344,0,0,1,2.238,1.649l.358,1.152A.789.789,0,0,1,236.493,259.824Z" transform="translate(-196.736 -222.61)" fill="#9c9c9c"/>
        <g id="Grupo_1215357" data-name="Grupo 1215357" transform="translate(48.647 15.05)">
          <path id="Trazado_1087859" data-name="Trazado 1087859" d="M385.192,136.512l-2.644,4.678a12.752,12.752,0,0,1-9.5,6.375,12.752,12.752,0,0,1,.564-11.424l2.644-4.678a32.9,32.9,0,0,1,11.3-11.767,1.234,1.234,0,0,1,1.89,1.057,32.912,32.912,0,0,1-4.256,15.76Z" transform="translate(-371.965 -119.506)" fill="#e1f0ff"/>
          <path id="Trazado_1087860" data-name="Trazado 1087860" d="M391.959,119.7a32.884,32.884,0,0,0-3.175,2.244,1.217,1.217,0,0,1,.809,1.167,14.824,14.824,0,0,1-.673,4.765,32.876,32.876,0,0,1-3.381,8.64l-2.644,4.678a12.749,12.749,0,0,1-5.846,5.342q.178.522.4,1.033a12.752,12.752,0,0,0,9.5-6.375l2.644-4.678a32.912,32.912,0,0,0,4.256-15.76A1.234,1.234,0,0,0,391.959,119.7Z" transform="translate(-376.366 -119.506)" fill="#cae4f9"/>
          <path id="Trazado_1087861" data-name="Trazado 1087861" d="M385.192,213.538l-2.644,4.678a12.752,12.752,0,0,1-9.5,6.375,12.752,12.752,0,0,1,.564-11.424l2.644-4.678,1.7,7.424Z" transform="translate(-371.965 -196.533)" fill="#4f66d0"/>
          <path id="Trazado_1087862" data-name="Trazado 1087862" d="M384.614,247.7l-1.721,3.044a12.748,12.748,0,0,1-5.846,5.342q.178.522.4,1.033a12.752,12.752,0,0,0,9.5-6.375l2.644-4.678Z" transform="translate(-376.365 -229.061)" fill="#314dc9"/>
        </g>
      </g>
      <g id="Grupo_1215359" data-name="Grupo 1215359" transform="translate(2.424)">
        <path id="Trazado_1087863" data-name="Trazado 1087863" d="M201.767,55.956V52.863a2.078,2.078,0,0,0-2.075-2.075h-20.45a2.078,2.078,0,0,0-2.075,2.075v3.093a2.078,2.078,0,0,0,2.075,2.075h20.45A2.078,2.078,0,0,0,201.767,55.956Zm-2.016,0a.06.06,0,0,1-.06.06h-20.45a.06.06,0,0,1-.06-.06V52.863a.06.06,0,0,1,.06-.06h20.45a.06.06,0,0,1,.06.06Z" transform="translate(-153.687 -43.964)"/>
        <path id="Trazado_1087864" data-name="Trazado 1087864" d="M159.635,414.121a1.008,1.008,0,0,0-1.008-1.008H138.813a1.008,1.008,0,0,0,0,2.016h19.814A1.008,1.008,0,0,0,159.635,414.121Z" transform="translate(-119.614 -357.604)"/>
        <path id="Trazado_1087865" data-name="Trazado 1087865" d="M138.813,445.084a1.008,1.008,0,0,0,0,2.016h11.671a1.008,1.008,0,1,0,0-2.016Z" transform="translate(-119.614 -385.279)"/>
        <path id="Trazado_1087866" data-name="Trazado 1087866" d="M69.433,15.343a2.25,2.25,0,0,0-2.294.048,33.908,33.908,0,0,0-6,4.744V7.435A7.442,7.442,0,0,0,53.706,0H9.858A7.442,7.442,0,0,0,2.424,7.434v5.525a3.726,3.726,0,0,0,3.722,3.722h5.422a1.008,1.008,0,1,0,0-2.016H6.146A1.708,1.708,0,0,1,4.44,12.959V7.434a5.419,5.419,0,1,1,10.838,0v57.64A3.726,3.726,0,0,0,19,68.8H57.417a3.726,3.726,0,0,0,3.722-3.722V46.026a1.008,1.008,0,0,0-2.016,0V65.074a1.708,1.708,0,0,1-1.706,1.706H19a1.708,1.708,0,0,1-1.706-1.706V7.435a7.415,7.415,0,0,0-2.35-5.419H53.706a5.425,5.425,0,0,1,5.418,5.419V22.312A33.84,33.84,0,0,0,55.5,27.518L52.851,32.2a13.863,13.863,0,0,0-1.284,10.425H21.623a1.008,1.008,0,0,0,0,2.016h30.09l-1.289,2.28h-28.8a1.008,1.008,0,1,0,0,2.016H49.284l-1.289,2.28H21.622a1.008,1.008,0,1,0,0,2.016H46.855l-1.578,2.792a1.014,1.014,0,0,0,.879,1.5h8.629a1.008,1.008,0,1,0,0-2.016h-6.9l1.289-2.28h5.615a1.008,1.008,0,1,0,0-2.016H50.31l1.289-2.28h3.186a1.008,1.008,0,1,0,0-2.016H52.738L53.8,45.04a13.825,13.825,0,0,0,9.739-6.8l2.644-4.678a33.92,33.92,0,0,0,4.386-16.243,2.233,2.233,0,0,0-1.135-1.974ZM53.4,41.65a11.8,11.8,0,0,1,1.206-8.462l1.364-2.413L57,35.283Zm1.755.992,3.6-6.368,4.393-1.442-1.364,2.413a11.8,11.8,0,0,1-6.628,5.4ZM67.7,24.192a31.857,31.857,0,0,1-3.09,8.037L60.227,33.67l2.551-4.514a1.008,1.008,0,1,0-1.755-.992l-2.552,4.514-1.028-4.5A31.985,31.985,0,0,1,68.2,17.1a.233.233,0,0,1,.124-.038.236.236,0,0,1,.116.032.205.205,0,0,1,.111.193,31.855,31.855,0,0,1-.848,6.9Z" transform="translate(-2.424)"/>
        <path id="Trazado_1087867" data-name="Trazado 1087867" d="M206.625,140.329a1.008,1.008,0,0,0,1.008-1.008v-3.659a8.214,8.214,0,0,0,1.757-1.056,1.008,1.008,0,0,0-1.243-1.587,6.514,6.514,0,0,1-5.647,1.1,10.986,10.986,0,0,1-2.544-.907v-2.68a1.008,1.008,0,1,0-2.016,0v2.68a10.988,10.988,0,0,1-2.544.907,7.191,7.191,0,0,1-3.761-.1l-.05-.018a6.034,6.034,0,0,1-1.836-.989,1.008,1.008,0,1,0-1.243,1.587,8.2,8.2,0,0,0,1.777,1.065v3.65a1.008,1.008,0,1,0,2.016,0v-3.07a8.787,8.787,0,0,0,1.309.1,11.576,11.576,0,0,0,4.333-.916v10.081h-2.134a3.336,3.336,0,0,0-3.2,2.357l-.358,1.152a1.8,1.8,0,0,0,1.716,2.33h9.97a1.8,1.8,0,0,0,1.716-2.33l-.358-1.152a3.336,3.336,0,0,0-3.2-2.357h-2.134V135.433a11.574,11.574,0,0,0,4.333.916,8.77,8.77,0,0,0,1.329-.1v3.073A1.007,1.007,0,0,0,206.625,140.329Zm-3.259,8.14.27.868H194.26l.27-.868a1.33,1.33,0,0,1,1.276-.94h6.284A1.33,1.33,0,0,1,203.366,148.468Z" transform="translate(-163.168 -112.123)"/>
      </g>
    </g>
  </g>
</svg>
