<svg xmlns="http://www.w3.org/2000/svg" xmlns:xlink="http://www.w3.org/1999/xlink" width="93.934" height="93.934" viewBox="0 0 93.934 93.934">
  <defs>
    <filter id="Trazado_982547" x="0" y="0" width="93.934" height="93.934" filterUnits="userSpaceOnUse">
      <feOffset dy="3" input="SourceAlpha"/>
      <feGaussianBlur stdDeviation="3" result="blur"/>
      <feFlood flood-opacity="0.161"/>
      <feComposite operator="in" in2="blur"/>
      <feComposite in="SourceGraphic"/>
    </filter>
  </defs>
  <g id="Grupo_1215574" data-name="Grupo 1215574" transform="translate(-191.295 -3873.849)">
    <g id="Grupo_1214662" data-name="Grupo 1214662" transform="translate(0 -1254.151)">
      <g id="Grupo_1214432" data-name="Grupo 1214432" transform="translate(-0.771 -2738.674)">
        <g id="Grupo_1183196" data-name="Grupo 1183196" transform="translate(1 1016.674)">
          <g id="Grupo_1179610" data-name="Grupo 1179610" transform="translate(8 4723.467)">
            <g id="Grupo_1175227" data-name="Grupo 1175227" transform="translate(-5.967 140.533)">
              <g id="Grupo_1167337" data-name="Grupo 1167337" transform="translate(198.033 1992)">
                <g id="Grupo_1166720" data-name="Grupo 1166720">
                  <g id="Grupo_1164305" data-name="Grupo 1164305">
                    <g id="Grupo_1163948" data-name="Grupo 1163948">
                      <g id="Grupo_1158168" data-name="Grupo 1158168">
                        <g id="Grupo_1152576" data-name="Grupo 1152576">
                          <g id="Grupo_1148633" data-name="Grupo 1148633">
                            <g id="Grupo_1148525" data-name="Grupo 1148525">
                              <g transform="matrix(1, 0, 0, 1, -9, -6)" filter="url(#Trazado_982547)">
                                <g id="Trazado_982547-2" data-name="Trazado 982547" transform="translate(9 6)" fill="#eae4dc">
                                  <path d="M 37.966796875 74.43359375 C 33.04315185546875 74.43359375 28.26757431030273 73.46962738037109 23.77274131774902 71.56847381591797 C 19.43047523498535 69.73184967041016 15.53040790557861 67.10224914550781 12.18087482452393 63.75271987915039 C 8.831341743469238 60.4031867980957 6.201741218566895 56.50312042236328 4.365118980407715 52.16086196899414 C 2.463963508605957 47.66601943969727 1.499996900558472 42.89044189453125 1.499996900558472 37.966796875 C 1.499996900558472 33.04315185546875 2.463963508605957 28.26757431030273 4.365118980407715 23.77274131774902 C 6.201741218566895 19.43047523498535 8.831341743469238 15.53040790557861 12.18087482452393 12.18087482452393 C 15.53040790557861 8.831341743469238 19.43047523498535 6.201741218566895 23.77274131774902 4.365118980407715 C 28.26757431030273 2.463963508605957 33.04315185546875 1.499996900558472 37.966796875 1.499996900558472 C 42.89044189453125 1.499996900558472 47.66601943969727 2.463963508605957 52.16086196899414 4.365118980407715 C 56.50312042236328 6.201741218566895 60.4031867980957 8.831341743469238 63.75271987915039 12.18087482452393 C 67.10224914550781 15.53040790557861 69.73184967041016 19.43047523498535 71.56847381591797 23.77274131774902 C 73.46962738037109 28.26757431030273 74.43359375 33.04315185546875 74.43359375 37.966796875 C 74.43359375 42.89044189453125 73.46962738037109 47.66601943969727 71.56847381591797 52.16086196899414 C 69.73184967041016 56.50313186645508 67.10224914550781 60.4031867980957 63.75271987915039 63.75271987915039 C 60.4031867980957 67.10224914550781 56.50313186645508 69.73184967041016 52.16086196899414 71.56847381591797 C 47.66601943969727 73.46962738037109 42.89044189453125 74.43359375 37.966796875 74.43359375 Z" stroke="none"/>
                                  <path d="M 37.966796875 3 C 33.2449836730957 3 28.66600799560547 3.924095153808594 24.35705947875977 5.746635437011719 C 20.19359588623047 7.507637023925781 16.45379638671875 10.02928161621094 13.24153518676758 13.24153518676758 C 10.02927398681641 16.45379638671875 7.507621765136719 20.19359588623047 5.746635437011719 24.35705947875977 C 3.924095153808594 28.66600799560547 3 33.2449836730957 3 37.966796875 C 3 42.6886100769043 3.924095153808594 47.26758575439453 5.746635437011719 51.57653427124023 C 7.507621765136719 55.73999786376953 10.02927398681641 59.47979736328125 13.24153518676758 62.69205856323242 C 16.45379638671875 65.90431976318359 20.19359588623047 68.42597198486328 24.35705947875977 70.18695831298828 C 28.66600799560547 72.00949859619141 33.2449836730957 72.93359375 37.966796875 72.93359375 C 42.6886100769043 72.93359375 47.26758575439453 72.00949859619141 51.57653427124023 70.18695831298828 C 55.73999786376953 68.42597198486328 59.47979736328125 65.90431976318359 62.69205856323242 62.69205856323242 C 65.90431976318359 59.47979736328125 68.42597198486328 55.73999786376953 70.18695831298828 51.57653427124023 C 72.00949859619141 47.26758575439453 72.93359375 42.6886100769043 72.93359375 37.966796875 C 72.93359375 33.2449836730957 72.00949859619141 28.66600799560547 70.18695831298828 24.35705947875977 C 68.42597198486328 20.19359588623047 65.90431976318359 16.45379638671875 62.69205856323242 13.24153518676758 C 59.47979736328125 10.02928161621094 55.73999786376953 7.507637023925781 51.57653427124023 5.746635437011719 C 47.26758575439453 3.924095153808594 42.6886100769043 3 37.966796875 3 M 37.966796875 0 C 58.93528366088867 0 75.93359375 16.99832153320312 75.93359375 37.966796875 C 75.93359375 58.93528366088867 58.93528366088867 75.93359375 37.966796875 75.93359375 C 16.99831008911133 75.93359375 0 58.93528366088867 0 37.966796875 C 0 16.99832153320312 16.99831008911133 0 37.966796875 0 Z" stroke="none" fill="#665b4e"/>
                                </g>
                              </g>
                            </g>
                          </g>
                        </g>
                      </g>
                    </g>
                  </g>
                </g>
              </g>
            </g>
          </g>
        </g>
      </g>
    </g>
    <g id="presidente" transform="translate(168.442 3891.494)">
      <g id="Grupo_1215572" data-name="Grupo 1215572" transform="translate(49.779 0.753)">
        <path id="Trazado_1159762" data-name="Trazado 1159762" d="M56.529,241.316V253.7a1.038,1.038,0,0,0,1.038,1.038H95.572a1.038,1.038,0,0,0,1.038-1.038V241.316a3.017,3.017,0,0,0-2.035-2.854L83,234.473a1.315,1.315,0,0,1-.887-1.243v-6.387H71.026v6.387a1.315,1.315,0,0,1-.887,1.243l-11.576,3.989A3.018,3.018,0,0,0,56.529,241.316Z" transform="translate(-56.529 -204.806)" fill="#685e68"/>
        <path id="Trazado_1159763" data-name="Trazado 1159763" d="M299.35,238.461l-11.576-3.989a1.315,1.315,0,0,1-.887-1.243v-6.387h-2.713v7.994a1.315,1.315,0,0,0,.886,1.243l11.576,3.989a3.017,3.017,0,0,1,2.035,2.854V253.7a1.038,1.038,0,0,1-1.038,1.038h2.713a1.038,1.038,0,0,0,1.038-1.038V241.315A3.018,3.018,0,0,0,299.35,238.461Z" transform="translate(-261.304 -204.805)" fill="#554e56"/>
        <path id="Trazado_1159764" data-name="Trazado 1159764" d="M143.232,306.342l4.951,8.841h12.657l4.951-8.841a.442.442,0,0,0,.015-.4l-1.676-3.611a.443.443,0,0,1,.069-.478l1.535-1.745a.438.438,0,0,0,.089-.427l-1.114-3.465-3.768-1.3a1.313,1.313,0,0,1-.834-.879H148.915a1.313,1.313,0,0,1-.834.879l-3.768,1.3-1.114,3.465a.438.438,0,0,0,.089.427l1.535,1.745a.443.443,0,0,1,.069.478l-1.676,3.611A.442.442,0,0,0,143.232,306.342Z" transform="translate(-134.47 -265.25)" fill="#554e56"/>
        <path id="Trazado_1159765" data-name="Trazado 1159765" d="M176.773,295.444l5.711,18.733h4.5l5.711-18.733-1.53-.527a1.313,1.313,0,0,1-.834-.879H179.137a1.313,1.313,0,0,1-.834.879Z" transform="translate(-164.692 -265.25)" fill="#d3dee5"/>
        <path id="Trazado_1159766" data-name="Trazado 1159766" d="M227.055,337.182l.967,3.171H231.9l.967-3.171-1.477-15.163h-2.862Z" transform="translate(-209.922 -290.419)" fill="#685e68"/>
        <path id="Trazado_1159767" data-name="Trazado 1159767" d="M218.875,320.116l1.42,3.666a1.357,1.357,0,0,0,1.266.867h2.089a1.357,1.357,0,0,0,1.266-.867l1.42-3.666Z" transform="translate(-202.564 -288.708)" fill="#554e56"/>
        <path id="Trazado_1159768" data-name="Trazado 1159768" d="M176.773,295.444l1.53-.527a1.314,1.314,0,0,0,.834-.879h11.192a1.315,1.315,0,0,0,.834.879l1.53.527-2.019,6.624-5.143-5.419h-1.595l-5.143,5.419Z" transform="translate(-164.692 -265.25)" fill="#e8edf2"/>
        <path id="Trazado_1159769" data-name="Trazado 1159769" d="M289.3,295.445l-1.53-.527a1.314,1.314,0,0,1-.834-.879h-2.765v1.243a1.315,1.315,0,0,0,.886,1.243l3.541,1.22Z" transform="translate(-261.303 -265.251)" fill="#d3dee5"/>
        <path id="Trazado_1159770" data-name="Trazado 1159770" d="M198.236,234.013l3.886,3.32a1.417,1.417,0,0,0,.918.338h2a1.416,1.416,0,0,0,.918-.338l3.886-3.32a1.308,1.308,0,0,1-.26-.784v-6.387H198.5v6.387A1.308,1.308,0,0,1,198.236,234.013Z" transform="translate(-183.999 -204.805)" fill="#ffa78f"/>
        <path id="Trazado_1159771" data-name="Trazado 1159771" d="M286.887,233.229v-6.387h-2.713v7.994a1.315,1.315,0,0,0,.67,1.145l2.3-1.968A1.307,1.307,0,0,1,286.887,233.229Z" transform="translate(-261.303 -204.805)" fill="#f78d7c"/>
        <path id="Trazado_1159772" data-name="Trazado 1159772" d="M209.97,234.348a7.14,7.14,0,0,0,1.943-1.4v-6.106H200.826v6.106a7.139,7.139,0,0,0,1.943,1.4A10.175,10.175,0,0,0,209.97,234.348Z" transform="translate(-186.329 -204.806)" fill="#f78d7c"/>
        <path id="Trazado_1159773" data-name="Trazado 1159773" d="M155.737,11.249a1.526,1.526,0,0,1-.683-.553c-2.295-3.384-7.491-3.757-11.219-2.611-3.488,1.073-7.48,5.115-7.48,9.6v9.387H160.4v-8.88A7.5,7.5,0,0,0,155.737,11.249Z" transform="translate(-128.335 -7.5)" fill="#685e68"/>
        <path id="Trazado_1159774" data-name="Trazado 1159774" d="M217.857,27.069h4.4v-8.88a7.5,7.5,0,0,0-4.659-6.941,1.526,1.526,0,0,1-.683-.553c-2.295-3.383-7.491-3.757-11.219-2.611-.189.058-.379.126-.57.2,6.749.206,15.08,4.756,12.73,18.233Z" transform="translate(-190.197 -7.5)" fill="#554e56"/>
        <g id="Grupo_1215571" data-name="Grupo 1215571" transform="translate(7.71 16.781)">
          <path id="Trazado_1159775" data-name="Trazado 1159775" d="M137.993,176.76c-.463-2.278-3.185-2.986-4.3-1.335-1.516,2.253,1.294,6.142,4.3,4.119Z" transform="translate(-133.272 -174.521)" fill="#f78d7c"/>
          <path id="Trazado_1159776" data-name="Trazado 1159776" d="M331.831,176.76c.463-2.278,3.176-2.986,4.288-1.335,1.516,2.253-1.286,6.142-4.288,4.119Z" transform="translate(-311.882 -174.521)" fill="#f78d7c"/>
        </g>
        <path id="Trazado_1159777" data-name="Trazado 1159777" d="M186.371,84.659a2.57,2.57,0,0,1,2.57,2.57V98.043c0,2.736-3.357,6.006-4.831,6.6a10.174,10.174,0,0,1-7.2,0c-1.474-.592-4.831-3.862-4.831-6.6v-7.9a2.159,2.159,0,0,1,2.159-2.159h4.495a8.589,8.589,0,0,0,6.109-2.926,1.067,1.067,0,0,1,.832-.4h.7Z" transform="translate(-160.468 -76.907)" fill="#ffa78f"/>
        <path id="Trazado_1159778" data-name="Trazado 1159778" d="M220.246,327.374h11.718l9.478-16.416-9.772-3.368Z" transform="translate(-203.797 -277.441)" fill="#fe646f"/>
        <path id="Trazado_1159779" data-name="Trazado 1159779" d="M321.758,309.711l8.687,2.993a3.008,3.008,0,0,1,.978.561l1.332-2.307-9.772-3.368Z" transform="translate(-295.111 -277.441)" fill="#e25269"/>
        <path id="Trazado_1159780" data-name="Trazado 1159780" d="M220.246,327.374H226.1l10.45-18.1-4.886-1.684Z" transform="translate(-203.797 -277.441)" fill="#8795de"/>
        <path id="Trazado_1159781" data-name="Trazado 1159781" d="M321.758,309.711l4.886,1.684,1.224-2.12-4.886-1.684Z" transform="translate(-295.111 -277.441)" fill="#6c7fd8"/>
        <path id="Trazado_1159782" data-name="Trazado 1159782" d="M306.353,369.822c.332-2.1,2.152-2.1,2.484,0a.577.577,0,0,0,.48.48c2.1.332,2.1,2.152,0,2.484a.577.577,0,0,0-.48.48c-.332,2.1-2.152,2.1-2.484,0a.577.577,0,0,0-.48-.48c-2.1-.332-2.1-2.152,0-2.484A.577.577,0,0,0,306.353,369.822Z" transform="translate(-279.405 -332.004)" fill="#fed402"/>
      </g>
      <g id="Grupo_1215573" data-name="Grupo 1215573" transform="translate(49.025 0)">
        <path id="Trazado_1159783" data-name="Trazado 1159783" d="M88.072,33.7l-11.578-3.99a.56.56,0,0,1-.378-.53V27.4c.294-.293.583-.607.852-.932A9.868,9.868,0,0,0,78.6,23.829a3.426,3.426,0,0,0,.55.046,3.61,3.61,0,0,0,2.815-1.422,3.885,3.885,0,0,0,.628-4V11.441A8.225,8.225,0,0,0,77.468,3.8a.773.773,0,0,1-.346-.279A8.251,8.251,0,0,0,71.561.2a14.214,14.214,0,0,0-6.5.414,12,12,0,0,0-5.4,3.756,10.375,10.375,0,0,0-2.609,6.563v7.514a3.884,3.884,0,0,0,.627,4A3.618,3.618,0,0,0,60.5,23.875a3.44,3.44,0,0,0,.543-.044,9.872,9.872,0,0,0,1.631,2.642c.27.325.558.639.852.932v1.772a.56.56,0,0,1-.379.53L51.568,33.7a3.772,3.772,0,0,0-2.543,3.567V49.649a1.793,1.793,0,0,0,1.791,1.791H88.823a1.793,1.793,0,0,0,1.791-1.791V37.263A3.773,3.773,0,0,0,88.072,33.7ZM73.391,49.933l3.473-6.016a1.714,1.714,0,0,0,1.1.426c.735,0,1.678-.549,1.965-2.085,1.536-.287,2.085-1.229,2.085-1.965,0-.712-.515-1.619-1.944-1.936l2.8-4.857,3.436,1.184-8.8,15.248Zm-5.859,0,10.46-18.116L81.427,33l-2.2,3.814a1.75,1.75,0,0,0-1.257-.571c-.735,0-1.678.549-1.965,2.085-1.536.287-2.085,1.229-2.085,1.965s.549,1.678,2.085,1.965c.006.034.013.067.02.1l-4.373,7.575Zm-3.6,0-4.657-8.317,1.61-3.467a1.2,1.2,0,0,0-.188-1.292l-1.419-1.613.944-2.937,1.143-.394,5.125,16.809-.7,1.211h-1.86Zm3.834-3.419.883-9.07c.042,0,.084,0,.126,0,0,0,2.172,0,2.214,0l.291,2.986Zm4.809-8.329-.14-1.442a2.085,2.085,0,0,0,.4-.643l.143-.369.633.667Zm-1.014-3.944.266.28-.4,1.035a.607.607,0,0,1-.563.385H68.776a.607.607,0,0,1-.563-.386l-.4-1.034.265-.28a2.169,2.169,0,0,0,.743.132h2A2.17,2.17,0,0,0,71.562,34.242Zm-4.9,1.489.143.369a2.088,2.088,0,0,0,.4.643l-.675,6.935-1.8-5.906ZM77.471,41.9a1.328,1.328,0,0,0-1.107-1.107c-.716-.113-.938-.4-.938-.5s.222-.384.938-.5a1.328,1.328,0,0,0,1.107-1.107c.113-.716.4-.938.5-.938s.384.222.5.938A1.328,1.328,0,0,0,79.573,39.8c.716.113.938.4.938.5s-.222.384-.938.5A1.328,1.328,0,0,0,78.466,41.9c-.113.716-.4.938-.5.938S77.584,42.614,77.471,41.9Zm-.929-10.581-2.148,3.719L72.8,33.361l2.818-2.408a2.05,2.05,0,0,0,.382.178Zm4.251-9.811a2.176,2.176,0,0,1-1.814.854,4.338,4.338,0,0,0,.027-.471V18.617a1.456,1.456,0,0,1,2.1.241,2.3,2.3,0,0,1-.309,2.648ZM60.808,5.342A10.611,10.611,0,0,1,65.5,2.057a12.663,12.663,0,0,1,5.791-.372,6.9,6.9,0,0,1,4.582,2.685A2.265,2.265,0,0,0,76.9,5.2a6.723,6.723,0,0,1,4.191,6.243v5.542a3,3,0,0,0-2.081-.035V11.074A3.327,3.327,0,0,0,75.682,7.75h-.7a1.812,1.812,0,0,0-1.419.677,7.834,7.834,0,0,1-5.522,2.645H63.547a2.916,2.916,0,0,0-2.912,2.912v2.963a3.011,3.011,0,0,0-2.081.036V10.934a8.875,8.875,0,0,1,2.255-5.593ZM58.846,21.5a2.3,2.3,0,0,1-.308-2.642,1.457,1.457,0,0,1,2.1-.241v3.272a4.33,4.33,0,0,0,.027.472,2.187,2.187,0,0,1-1.815-.86Zm3.411,1.22,0-.008a3.3,3.3,0,0,1-.114-.823v-7.9a1.407,1.407,0,0,1,1.405-1.405h4.495a9.351,9.351,0,0,0,6.7-3.207.312.312,0,0,1,.245-.115h.7A1.818,1.818,0,0,1,77.5,11.074V21.888c0,2.352-3.095,5.391-4.358,5.9a9.375,9.375,0,0,1-6.64,0A9.67,9.67,0,0,1,62.257,22.72Zm3.681,6.466a10.961,10.961,0,0,0,7.764,0,4.894,4.894,0,0,0,.908-.509v.5a2.063,2.063,0,0,0,.086.586l-3.448,2.945a.661.661,0,0,1-.429.158h-2a.661.661,0,0,1-.429-.158l-3.448-2.945a2.063,2.063,0,0,0,.086-.586v-.5A4.9,4.9,0,0,0,65.938,29.186Zm-2.3,1.946a2.059,2.059,0,0,0,.383-.179l2.818,2.408-2.613,2.753-1.431-4.692Zm-13.1,18.517V37.263a2.265,2.265,0,0,1,1.527-2.142l6.384-2.2-.652,2.028a1.2,1.2,0,0,0,.24,1.158l1.4,1.593-1.591,3.428a1.2,1.2,0,0,0,.042,1.085l4.323,7.719H50.816A.285.285,0,0,1,50.532,49.649Zm38.575,0a.285.285,0,0,1-.284.284H79.251l8.51-14.74a2.265,2.265,0,0,1,1.346,2.071Z" transform="translate(-49.025 0)"/>
        <path id="Trazado_1159784" data-name="Trazado 1159784" d="M204.056,171.945a.754.754,0,0,0,.754-.754v-.943a.754.754,0,1,0-1.507,0v.943A.754.754,0,0,0,204.056,171.945Z" transform="translate(-187.802 -152.466)"/>
        <path id="Trazado_1159785" data-name="Trazado 1159785" d="M193.888,140.2a.754.754,0,1,0,.966-1.157,2.449,2.449,0,0,0-3.4,0,.753.753,0,1,0,.966,1.157.981.981,0,0,1,1.469,0Z" transform="translate(-176.9 -124.454)"/>
        <path id="Trazado_1159786" data-name="Trazado 1159786" d="M294.452,169.494a.754.754,0,0,0-.754.754v.943a.754.754,0,1,0,1.507,0v-.943A.754.754,0,0,0,294.452,169.494Z" transform="translate(-269.116 -152.465)"/>
        <path id="Trazado_1159787" data-name="Trazado 1159787" d="M282.816,140.2a.981.981,0,0,1,1.469,0,.753.753,0,1,0,.966-1.157,2.449,2.449,0,0,0-3.4,0,.754.754,0,1,0,.966,1.157Z" transform="translate(-258.214 -124.455)"/>
        <path id="Trazado_1159788" data-name="Trazado 1159788" d="M232.231,222.283a4.949,4.949,0,0,0,3.943,0,.753.753,0,0,0-.581-1.391,3.447,3.447,0,0,1-2.781,0,.754.754,0,0,0-.581,1.391Z" transform="translate(-213.407 -198.647)"/>
      </g>
    </g>
  </g>
</svg>
