<svg xmlns="http://www.w3.org/2000/svg" xmlns:xlink="http://www.w3.org/1999/xlink" width="93.934" height="93.934" viewBox="0 0 93.934 93.934">
  <defs>
    <filter id="Trazado_982547" x="0" y="0" width="93.934" height="93.934" filterUnits="userSpaceOnUse">
      <feOffset dy="3" input="SourceAlpha"/>
      <feGaussianBlur stdDeviation="3" result="blur"/>
      <feFlood flood-opacity="0.161"/>
      <feComposite operator="in" in2="blur"/>
      <feComposite in="SourceGraphic"/>
    </filter>
  </defs>
  <g id="Grupo_1215581" data-name="Grupo 1215581" transform="translate(-611.295 -3873.849)">
    <g id="Grupo_1214663" data-name="Grupo 1214663" transform="translate(0 -1254.151)">
      <g id="Grupo_1214433" data-name="Grupo 1214433" transform="translate(-0.771 -2738.674)">
        <g id="Grupo_1183190" data-name="Grupo 1183190" transform="translate(1 1016.674)">
          <g id="Grupo_1179611" data-name="Grupo 1179611" transform="translate(428 4723.467)">
            <g id="Grupo_1175227" data-name="Grupo 1175227" transform="translate(-5.967 140.533)">
              <g id="Grupo_1167337" data-name="Grupo 1167337" transform="translate(198.033 1992)">
                <g id="Grupo_1166720" data-name="Grupo 1166720">
                  <g id="Grupo_1164305" data-name="Grupo 1164305">
                    <g id="Grupo_1163948" data-name="Grupo 1163948">
                      <g id="Grupo_1158168" data-name="Grupo 1158168">
                        <g id="Grupo_1152576" data-name="Grupo 1152576">
                          <g id="Grupo_1148633" data-name="Grupo 1148633">
                            <g id="Grupo_1148525" data-name="Grupo 1148525">
                              <g transform="matrix(1, 0, 0, 1, -9, -6)" filter="url(#Trazado_982547)">
                                <g id="Trazado_982547-2" data-name="Trazado 982547" transform="translate(9 6)" fill="#eae4dc">
                                  <path d="M 37.966796875 74.43359375 C 33.04315185546875 74.43359375 28.26757431030273 73.46962738037109 23.77274131774902 71.56847381591797 C 19.43047523498535 69.73184967041016 15.53040790557861 67.10224914550781 12.18087482452393 63.75271987915039 C 8.831341743469238 60.4031867980957 6.201741218566895 56.50312042236328 4.365118980407715 52.16086196899414 C 2.463963508605957 47.66601943969727 1.499996900558472 42.89044189453125 1.499996900558472 37.966796875 C 1.499996900558472 33.04315185546875 2.463963508605957 28.26757431030273 4.365118980407715 23.77274131774902 C 6.201741218566895 19.43047523498535 8.831341743469238 15.53040790557861 12.18087482452393 12.18087482452393 C 15.53040790557861 8.831341743469238 19.43047523498535 6.201741218566895 23.77274131774902 4.365118980407715 C 28.26757431030273 2.463963508605957 33.04315185546875 1.499996900558472 37.966796875 1.499996900558472 C 42.89044189453125 1.499996900558472 47.66601943969727 2.463963508605957 52.16086196899414 4.365118980407715 C 56.50312042236328 6.201741218566895 60.4031867980957 8.831341743469238 63.75271987915039 12.18087482452393 C 67.10224914550781 15.53040790557861 69.73184967041016 19.43047523498535 71.56847381591797 23.77274131774902 C 73.46962738037109 28.26757431030273 74.43359375 33.04315185546875 74.43359375 37.966796875 C 74.43359375 42.89044189453125 73.46962738037109 47.66601943969727 71.56847381591797 52.16086196899414 C 69.73184967041016 56.50313186645508 67.10224914550781 60.4031867980957 63.75271987915039 63.75271987915039 C 60.4031867980957 67.10224914550781 56.50313186645508 69.73184967041016 52.16086196899414 71.56847381591797 C 47.66601943969727 73.46962738037109 42.89044189453125 74.43359375 37.966796875 74.43359375 Z" stroke="none"/>
                                  <path d="M 37.966796875 3 C 33.2449836730957 3 28.66600799560547 3.924095153808594 24.35705947875977 5.746635437011719 C 20.19359588623047 7.507637023925781 16.45379638671875 10.02928161621094 13.24153518676758 13.24153518676758 C 10.02927398681641 16.45379638671875 7.507621765136719 20.19359588623047 5.746635437011719 24.35705947875977 C 3.924095153808594 28.66600799560547 3 33.2449836730957 3 37.966796875 C 3 42.6886100769043 3.924095153808594 47.26758575439453 5.746635437011719 51.57653427124023 C 7.507621765136719 55.73999786376953 10.02927398681641 59.47979736328125 13.24153518676758 62.69205856323242 C 16.45379638671875 65.90431976318359 20.19359588623047 68.42597198486328 24.35705947875977 70.18695831298828 C 28.66600799560547 72.00949859619141 33.2449836730957 72.93359375 37.966796875 72.93359375 C 42.6886100769043 72.93359375 47.26758575439453 72.00949859619141 51.57653427124023 70.18695831298828 C 55.73999786376953 68.42597198486328 59.47979736328125 65.90431976318359 62.69205856323242 62.69205856323242 C 65.90431976318359 59.47979736328125 68.42597198486328 55.73999786376953 70.18695831298828 51.57653427124023 C 72.00949859619141 47.26758575439453 72.93359375 42.6886100769043 72.93359375 37.966796875 C 72.93359375 33.2449836730957 72.00949859619141 28.66600799560547 70.18695831298828 24.35705947875977 C 68.42597198486328 20.19359588623047 65.90431976318359 16.45379638671875 62.69205856323242 13.24153518676758 C 59.47979736328125 10.02928161621094 55.73999786376953 7.507637023925781 51.57653427124023 5.746635437011719 C 47.26758575439453 3.924095153808594 42.6886100769043 3 37.966796875 3 M 37.966796875 0 C 58.93528366088867 0 75.93359375 16.99832153320312 75.93359375 37.966796875 C 75.93359375 58.93528366088867 58.93528366088867 75.93359375 37.966796875 75.93359375 C 16.99831008911133 75.93359375 0 58.93528366088867 0 37.966796875 C 0 16.99832153320312 16.99831008911133 0 37.966796875 0 Z" stroke="none" fill="#665b4e"/>
                                </g>
                              </g>
                            </g>
                          </g>
                        </g>
                      </g>
                    </g>
                  </g>
                </g>
              </g>
            </g>
          </g>
        </g>
      </g>
    </g>
    <g id="atencion-al-cliente" transform="translate(608.36 3883.146)">
      <g id="Grupo_1215580" data-name="Grupo 1215580" transform="translate(22.272 15.011)">
        <g id="Grupo_1215575" data-name="Grupo 1215575" transform="translate(33.114 7.384)">
          <path id="Trazado_1159789" data-name="Trazado 1159789" d="M327.465,215.259c0,3.164-11.46,3.164-11.46,0a5.73,5.73,0,0,1,11.46,0Z" transform="translate(-316.005 -202.707)" fill="#66d4f1" fill-rule="evenodd"/>
          <path id="Trazado_1159790" data-name="Trazado 1159790" d="M342.739,152.994a2.648,2.648,0,1,0,2.648-2.648A2.648,2.648,0,0,0,342.739,152.994Z" transform="translate(-339.657 -150.346)" fill="#efc7a4" fill-rule="evenodd"/>
        </g>
        <g id="Grupo_1215576" data-name="Grupo 1215576" transform="translate(20.854)">
          <path id="Trazado_1159791" data-name="Trazado 1159791" d="M221.345,152.511c0,3.228-11.691,3.228-11.691,0a5.846,5.846,0,0,1,11.691,0Z" transform="translate(-209.654 -139.706)" fill="#b3a4ee" fill-rule="evenodd"/>
          <path id="Trazado_1159792" data-name="Trazado 1159792" d="M236.929,88.989a2.7,2.7,0,1,0,2.7-2.7A2.7,2.7,0,0,0,236.929,88.989Z" transform="translate(-233.785 -86.288)" fill="#efc7a4" fill-rule="evenodd"/>
        </g>
        <g id="Grupo_1215577" data-name="Grupo 1215577" transform="translate(8.825 7.384)">
          <path id="Trazado_1159793" data-name="Trazado 1159793" d="M116.771,215.259c0,3.164-11.46,3.164-11.46,0a5.73,5.73,0,0,1,11.46,0Z" transform="translate(-105.311 -202.707)" fill="#f76c82" fill-rule="evenodd"/>
          <path id="Trazado_1159794" data-name="Trazado 1159794" d="M132.045,152.994a2.648,2.648,0,1,0,2.648-2.648A2.648,2.648,0,0,0,132.045,152.994Z" transform="translate(-128.963 -150.346)" fill="#efc7a4" fill-rule="evenodd"/>
        </g>
        <g id="Grupo_1215579" data-name="Grupo 1215579" transform="translate(0 23.932)">
          <g id="Grupo_1215578" data-name="Grupo 1215578" transform="translate(4.037)">
            <path id="Trazado_1159795" data-name="Trazado 1159795" d="M74.955,295.678c-3.708,1.817-7.452,3.562-11.184,5.33l5.267,12.621,7.747-3.774a4.66,4.66,0,0,1,3.461-.3l8.219,2.38c2.6.754,5.829-.632,8.252-1.568l15.417-5.954c4.06-1.568,5.037-9.715-4.55-6.9l-11,3.229a3.5,3.5,0,0,0-2.468-2.458L86.664,296.3c-5.079-3.6-7.663-2.6-11.71-.617Z" transform="translate(-63.771 -293.892)" fill="#efc7a4" fill-rule="evenodd"/>
            <path id="Trazado_1159796" data-name="Trazado 1159796" d="M219.719,334.984l-16.66-4.451a3.507,3.507,0,0,0,2.476,4.281l9.9,2.646A3.507,3.507,0,0,0,219.719,334.984Z" transform="translate(-186.898 -326.309)" fill="#d5a889" fill-rule="evenodd"/>
          </g>
          <path id="Trazado_1159797" data-name="Trazado 1159797" d="M41.935,342.26l-3.885,1.7a1.675,1.675,0,0,1-2.2-.858L28.9,327.31a1.672,1.672,0,0,1,.859-2.2l3.885-1.7a1.675,1.675,0,0,1,2.2.858l6.949,15.8a1.672,1.672,0,0,1-.859,2.2Z" transform="translate(-28.752 -319.875)" fill="#e4e8eb" fill-rule="evenodd"/>
        </g>
      </g>
      <path id="Trazado_1159798" data-name="Trazado 1159798" d="M24.008,37.354a25.582,25.582,0,0,1-.317-4.012A25.277,25.277,0,0,1,48.2,8.077l-.989-.969a.807.807,0,0,1,1.13-1.153l2.2,2.16a25.275,25.275,0,0,1,23.7,25.228c0,.692-.028,1.386-.084,2.075l1.129-.871a.807.807,0,0,1,.984,1.278l-2.647,2.041-.025.016a.74.74,0,0,1-.066.043l-.045.024c-.028.013-.055.025-.083.036L73.374,38a.794.794,0,0,1-.1.025l-.017,0a.92.92,0,0,1-.123.009h-.015a.577.577,0,0,1-.087-.005l-.014,0-.013,0-.04-.008-.016,0a.8.8,0,0,1-.483-.332l-2.01-2.607a.807.807,0,0,1,1.278-.986l.829,1.076c.047-.605.069-1.214.069-1.82A23.691,23.691,0,0,0,50.453,9.726l-2.054,2.1a.807.807,0,0,1-1.153-1.13l.981-1A23.678,23.678,0,0,0,25.6,37.1a.807.807,0,0,1-1.594.254Zm50.35,11.311L59.026,54.586c-.164.062-.331.128-.5.195-2.244.875-5.039,1.964-7.191,1.341l-8.173-2.367a5.454,5.454,0,0,0-4.019.346l-3.421,1.666-4.8-10.911c2.408-1.137,4.772-2.259,7.108-3.4,3.9-1.913,6.158-2.757,10.824.548a.82.82,0,0,0,.258.121L56.523,44.1a2.671,2.671,0,0,1-1.379,5.16L45.295,46.63a.807.807,0,1,0-.416,1.558l9.848,2.632A4.286,4.286,0,0,0,60.1,46.343l10.247-3.015c3.381-.995,5.729-.619,6.281,1.005a3.821,3.821,0,0,1-2.274,4.331ZM35.59,60.108a.859.859,0,0,0-.017-.667L28.606,43.6a.872.872,0,0,0-.8-.519.86.86,0,0,0-.348.073l-3.9,1.709a.861.861,0,0,0-.448,1.146l6.968,15.84a.872.872,0,0,0,1.146.448l3.9-1.71a.862.862,0,0,0,.463-.479ZM78.161,43.815a3.8,3.8,0,0,0-2.7-2.423,10.326,10.326,0,0,0-5.562.388L59.672,44.788c-.042-.084-.087-.167-.134-.25a4.251,4.251,0,0,0-2.6-2L49.666,40.6C44.35,36.881,41.5,37.952,37.319,40c-2.313,1.133-4.658,2.246-7.048,3.375l-.188-.427a2.485,2.485,0,0,0-3.27-1.275l-3.9,1.71a2.476,2.476,0,0,0-1.275,3.274L28.608,62.5a2.486,2.486,0,0,0,3.271,1.275l3.9-1.71a2.475,2.475,0,0,0,1.276-3.274l-.68-1.546,3.477-1.693a3.835,3.835,0,0,1,2.863-.247l8.175,2.367a6.624,6.624,0,0,0,1.852.249,18.467,18.467,0,0,0,6.374-1.637l.5-.193L74.94,50.17a5.407,5.407,0,0,0,3.221-6.355ZM36.824,30.023A4.929,4.929,0,0,0,31.9,34.946c0,.74,2.022,1.567,4.923,1.567s4.924-.826,4.924-1.567A4.929,4.929,0,0,0,36.824,30.023Zm-1.841-4.981A1.842,1.842,0,1,0,36.824,23.2,1.843,1.843,0,0,0,34.983,25.042Zm-4.7,9.9c0,.768.4,1.832,2.319,2.537a12.654,12.654,0,0,0,4.218.643c3.015,0,6.537-.834,6.537-3.181a6.545,6.545,0,0,0-5.907-6.506,3.456,3.456,0,1,0-1.26,0,6.545,6.545,0,0,0-5.908,6.506ZM43.93,27.816c0,.763,2.069,1.614,5.039,1.614s5.039-.851,5.039-1.614a5.039,5.039,0,0,0-10.077,0Zm3.143-10.1a1.9,1.9,0,1,0,1.9-1.9A1.9,1.9,0,0,0,47.073,17.712Zm1.9,13.332c3.069,0,6.653-.845,6.653-3.228a6.661,6.661,0,0,0-6.14-6.633,3.509,3.509,0,1,0-1.025,0,6.662,6.662,0,0,0-6.141,6.633c0,.778.408,1.856,2.355,2.573a12.921,12.921,0,0,0,4.3.655Zm12.144-1.02a4.929,4.929,0,0,0-4.923,4.923c0,.74,2.022,1.567,4.923,1.567s4.923-.826,4.923-1.567A4.928,4.928,0,0,0,61.113,30.023Zm-1.842-4.981A1.842,1.842,0,1,0,61.113,23.2,1.844,1.844,0,0,0,59.271,25.042ZM56.894,37.484a12.656,12.656,0,0,0,4.219.643c3.016,0,6.536-.834,6.536-3.181a6.544,6.544,0,0,0-5.907-6.506,3.456,3.456,0,1,0-1.26,0,6.545,6.545,0,0,0-5.907,6.506c0,.768.4,1.832,2.318,2.537Z" transform="translate(0 0)" fill-rule="evenodd"/>
    </g>
  </g>
</svg>
