<svg xmlns="http://www.w3.org/2000/svg" xmlns:xlink="http://www.w3.org/1999/xlink" width="93.934" height="93.934" viewBox="0 0 93.934 93.934">
  <defs>
    <filter id="Trazado_982547" x="0" y="0" width="93.934" height="93.934" filterUnits="userSpaceOnUse">
      <feOffset dy="3" input="SourceAlpha"/>
      <feGaussianBlur stdDeviation="3" result="blur"/>
      <feFlood flood-opacity="0.161"/>
      <feComposite operator="in" in2="blur"/>
      <feComposite in="SourceGraphic"/>
    </filter>
  </defs>
  <g id="Grupo_1215590" data-name="Grupo 1215590" transform="translate(-1031.295 -3873.849)">
    <g id="Grupo_1214664" data-name="Grupo 1214664" transform="translate(0 -1254.151)">
      <g id="Grupo_1214434" data-name="Grupo 1214434" transform="translate(-0.771 -2738.522)">
        <g id="Grupo_1183184" data-name="Grupo 1183184" transform="translate(1 1016.523)">
          <g id="Grupo_1179612" data-name="Grupo 1179612" transform="translate(848 4723.467)">
            <g id="Grupo_1175227" data-name="Grupo 1175227" transform="translate(-5.967 140.533)">
              <g id="Grupo_1167337" data-name="Grupo 1167337" transform="translate(198.033 1992)">
                <g id="Grupo_1166720" data-name="Grupo 1166720">
                  <g id="Grupo_1164305" data-name="Grupo 1164305">
                    <g id="Grupo_1163948" data-name="Grupo 1163948">
                      <g id="Grupo_1158168" data-name="Grupo 1158168">
                        <g id="Grupo_1152576" data-name="Grupo 1152576">
                          <g id="Grupo_1148633" data-name="Grupo 1148633">
                            <g id="Grupo_1148525" data-name="Grupo 1148525">
                              <g transform="matrix(1, 0, 0, 1, -9, -6)" filter="url(#Trazado_982547)">
                                <g id="Trazado_982547-2" data-name="Trazado 982547" transform="translate(9 6)" fill="#eae4dc">
                                  <path d="M 37.966796875 74.43359375 C 33.04315185546875 74.43359375 28.26757431030273 73.46962738037109 23.77274131774902 71.56847381591797 C 19.43047523498535 69.73184967041016 15.53040790557861 67.10224914550781 12.18087482452393 63.75271987915039 C 8.831341743469238 60.4031867980957 6.201741218566895 56.50312042236328 4.365118980407715 52.16086196899414 C 2.463963508605957 47.66601943969727 1.499996900558472 42.89044189453125 1.499996900558472 37.966796875 C 1.499996900558472 33.04315185546875 2.463963508605957 28.26757431030273 4.365118980407715 23.77274131774902 C 6.201741218566895 19.43047523498535 8.831341743469238 15.53040790557861 12.18087482452393 12.18087482452393 C 15.53040790557861 8.831341743469238 19.43047523498535 6.201741218566895 23.77274131774902 4.365118980407715 C 28.26757431030273 2.463963508605957 33.04315185546875 1.499996900558472 37.966796875 1.499996900558472 C 42.89044189453125 1.499996900558472 47.66601943969727 2.463963508605957 52.16086196899414 4.365118980407715 C 56.50312042236328 6.201741218566895 60.4031867980957 8.831341743469238 63.75271987915039 12.18087482452393 C 67.10224914550781 15.53040790557861 69.73184967041016 19.43047523498535 71.56847381591797 23.77274131774902 C 73.46962738037109 28.26757431030273 74.43359375 33.04315185546875 74.43359375 37.966796875 C 74.43359375 42.89044189453125 73.46962738037109 47.66601943969727 71.56847381591797 52.16086196899414 C 69.73184967041016 56.50313186645508 67.10224914550781 60.4031867980957 63.75271987915039 63.75271987915039 C 60.4031867980957 67.10224914550781 56.50313186645508 69.73184967041016 52.16086196899414 71.56847381591797 C 47.66601943969727 73.46962738037109 42.89044189453125 74.43359375 37.966796875 74.43359375 Z" stroke="none"/>
                                  <path d="M 37.966796875 3 C 33.2449836730957 3 28.66600799560547 3.924095153808594 24.35705947875977 5.746635437011719 C 20.19359588623047 7.507637023925781 16.45379638671875 10.02928161621094 13.24153518676758 13.24153518676758 C 10.02927398681641 16.45379638671875 7.507621765136719 20.19359588623047 5.746635437011719 24.35705947875977 C 3.924095153808594 28.66600799560547 3 33.2449836730957 3 37.966796875 C 3 42.6886100769043 3.924095153808594 47.26758575439453 5.746635437011719 51.57653427124023 C 7.507621765136719 55.73999786376953 10.02927398681641 59.47979736328125 13.24153518676758 62.69205856323242 C 16.45379638671875 65.90431976318359 20.19359588623047 68.42597198486328 24.35705947875977 70.18695831298828 C 28.66600799560547 72.00949859619141 33.2449836730957 72.93359375 37.966796875 72.93359375 C 42.6886100769043 72.93359375 47.26758575439453 72.00949859619141 51.57653427124023 70.18695831298828 C 55.73999786376953 68.42597198486328 59.47979736328125 65.90431976318359 62.69205856323242 62.69205856323242 C 65.90431976318359 59.47979736328125 68.42597198486328 55.73999786376953 70.18695831298828 51.57653427124023 C 72.00949859619141 47.26758575439453 72.93359375 42.6886100769043 72.93359375 37.966796875 C 72.93359375 33.2449836730957 72.00949859619141 28.66600799560547 70.18695831298828 24.35705947875977 C 68.42597198486328 20.19359588623047 65.90431976318359 16.45379638671875 62.69205856323242 13.24153518676758 C 59.47979736328125 10.02928161621094 55.73999786376953 7.507637023925781 51.57653427124023 5.746635437011719 C 47.26758575439453 3.924095153808594 42.6886100769043 3 37.966796875 3 M 37.966796875 0 C 58.93528366088867 0 75.93359375 16.99832153320312 75.93359375 37.966796875 C 75.93359375 58.93528366088867 58.93528366088867 75.93359375 37.966796875 75.93359375 C 16.99831008911133 75.93359375 0 58.93528366088867 0 37.966796875 C 0 16.99832153320312 16.99831008911133 0 37.966796875 0 Z" stroke="none" fill="#665b4e"/>
                                </g>
                              </g>
                            </g>
                          </g>
                        </g>
                      </g>
                    </g>
                  </g>
                </g>
              </g>
            </g>
          </g>
        </g>
      </g>
    </g>
    <g id="ciudadania" transform="translate(1043.812 3887.249)">
      <g id="Grupo_1215588" data-name="Grupo 1215588" transform="translate(6.223 1.123)">
        <g id="Grupo_1215582" data-name="Grupo 1215582" transform="translate(1.348 14.547)">
          <path id="Trazado_1159799" data-name="Trazado 1159799" d="M55.326,156.479l.458-2.318a6.121,6.121,0,0,0-1.7-5.032l-8.89-8.89a2.61,2.61,0,0,0-3.119-.481L35.6,143.3a1.182,1.182,0,0,0-.273,1.868l.9.9.49.5a2.52,2.52,0,0,0-3.554-.008,2.547,2.547,0,0,0-.018,3.564l1.145,1.157a2.52,2.52,0,0,0-3.554-.009,2.546,2.546,0,0,0-.019,3.565l.658.664a2.519,2.519,0,0,0-3.554-.009,2.545,2.545,0,0,0-.018,3.564l8.97,8.97a6.037,6.037,0,0,0,3.786,1.831l3.312.224a6.1,6.1,0,0,1,3.705,1.66l7.558,8.442H79.878L57.167,162.15A5.844,5.844,0,0,1,55.326,156.479Z" transform="translate(-27.084 -139.441)" fill="#ffdad5"/>
        </g>
        <g id="Grupo_1215583" data-name="Grupo 1215583" transform="translate(0 35.014)">
          <path id="Trazado_1159800" data-name="Trazado 1159800" d="M15.742,327a2.254,2.254,0,0,0,3.156,0l2.266-2.266-3.156-3.156-2.266,2.266A2.232,2.232,0,0,0,15.742,327Z" transform="translate(-15.088 -321.576)" fill="#eaf0f0"/>
        </g>
        <g id="Grupo_1215584" data-name="Grupo 1215584" transform="translate(19.82)">
          <path id="Trazado_1159801" data-name="Trazado 1159801" d="M191.462,25.689l3.156,3.156,15.05-15.05a2.232,2.232,0,0,0-3.156-3.156Z" transform="translate(-191.462 -9.986)" fill="#eaf0f0"/>
        </g>
        <g id="Grupo_1215585" data-name="Grupo 1215585" transform="translate(0 35.014)">
          <path id="Trazado_1159802" data-name="Trazado 1159802" d="M15.742,327a2.254,2.254,0,0,0,3.156,0l2.266-2.266-3.156-3.156-2.266,2.266A2.232,2.232,0,0,0,15.742,327Z" transform="translate(-15.088 -321.576)" fill="#eaf0f0"/>
        </g>
        <g id="Grupo_1215586" data-name="Grupo 1215586" transform="translate(19.82)">
          <path id="Trazado_1159803" data-name="Trazado 1159803" d="M191.462,25.689l3.156,3.156,15.05-15.05a2.232,2.232,0,0,0-3.156-3.156Z" transform="translate(-191.462 -9.986)" fill="#eaf0f0"/>
        </g>
        <g id="Grupo_1215587" data-name="Grupo 1215587" transform="translate(28.086 3.813)">
          <path id="Trazado_1159804" data-name="Trazado 1159804" d="M265.025,53.851l9.936-9.936c7.574,2.559,7.626,12.641,15.2,15.2l-9.978,9.978C272.623,66.52,272.585,56.424,265.025,53.851Z" transform="translate(-265.025 -43.915)" fill="#ff7e96"/>
        </g>
      </g>
      <g id="Grupo_1215589" data-name="Grupo 1215589" transform="translate(5.101 0.001)">
        <path id="Trazado_1159805" data-name="Trazado 1159805" d="M424.645,441.366l-8.111-6.44a1.124,1.124,0,0,0-1.4,1.76l8.111,6.44a1.124,1.124,0,1,0,1.4-1.76Z" transform="translate(-368.682 -385.836)"/>
        <path id="Trazado_1159806" data-name="Trazado 1159806" d="M60.54,19.88a1.124,1.124,0,0,0-.734-.809c-3.4-1.148-5.146-4.047-7-7.116C51.039,9.022,49.214,6,45.863,4.385A3.355,3.355,0,0,0,40.3.982L26.01,15.27A3.7,3.7,0,0,0,22.026,15L15.55,18.542a2.327,2.327,0,0,0-1.142,2.54,3.684,3.684,0,0,0-2.423,4.712,3.681,3.681,0,0,0-2.577,4.14,3.643,3.643,0,0,0-1.854,6.2L6.082,37.609a3.356,3.356,0,0,0,4.745,4.745L12.3,40.883l4.163,4.163a7.2,7.2,0,0,0,4.492,2.16h.017l3.3.223a4.993,4.993,0,0,1,2.984,1.324l7.527,8.407a1.124,1.124,0,0,0,1.674-1.5L28.9,47.22q-.03-.034-.063-.065A7.248,7.248,0,0,0,24.45,45.19h-.016l-3.3-.223a4.894,4.894,0,0,1-3.076-1.505l-2.737-2.737a3.663,3.663,0,0,0,2.155-4.049,3.677,3.677,0,0,0,2.9-4,3.681,3.681,0,0,0,3.13-4,3.673,3.673,0,0,0,2.862-2.215l1,1a1.124,1.124,0,1,0,1.589-1.589l-4.86-4.86a1.136,1.136,0,0,0-1.347-.184c-3.2,1.807-5.075.749-5.339.58l-.8-.805a.052.052,0,0,1-.016-.049.051.051,0,0,1,.029-.042l6.477-3.541a1.488,1.488,0,0,1,1.784.29l8.886,8.886a5.022,5.022,0,0,1,1.384,4.067l-.45,2.274c-.006.028-.01.056-.013.084a6.947,6.947,0,0,0,2.2,6.634c.019.018.039.035.059.051l6.889,5.469a1.124,1.124,0,0,0,1.4-1.76l-6.857-5.444a4.706,4.706,0,0,1-1.46-4.64l.45-2.276c.006-.028.01-.056.013-.084a7.292,7.292,0,0,0-2.018-5.961l-4.581-4.581,3.8-3.8c2.976,1.286,4.612,4.012,6.337,6.888,1.972,3.288,4.011,6.688,8.181,8.107a1.134,1.134,0,0,0,1.157-.269l9.978-9.978a1.124,1.124,0,0,0,.3-1.05ZM9.1,32.519a1.4,1.4,0,0,1,1.968.005l.009.008,3.814,3.858a1.409,1.409,0,0,1-.01,1.975,1.368,1.368,0,0,1-1.956-.036L9.088,34.494A1.41,1.41,0,0,1,9.1,32.519Zm.139,8.245A1.108,1.108,0,0,1,7.671,39.2l1.471-1.471,1.567,1.567Zm8.5-6.673a1.408,1.408,0,0,1-1.965,0L12,30.276A1.4,1.4,0,0,1,13.981,28.3l.016.014,3.754,3.8A1.4,1.4,0,0,1,17.741,34.092Zm3.124-4.035a1.409,1.409,0,0,1-1.977-.012L14.43,25.563a1.4,1.4,0,0,1,1.978-1.972l.005,0h0l4.461,4.485A1.409,1.409,0,0,1,20.865,30.056Zm3.116-4a1.4,1.4,0,0,1-1.835.112l-2.086-2.1a9.221,9.221,0,0,0,3.031-.889l.9.9A1.409,1.409,0,0,1,23.981,26.061Zm3.651-9.234L41.887,2.571a1.108,1.108,0,0,1,1.567,1.567h0L29.2,18.393ZM49.189,28.8c-2.976-1.286-4.612-4.013-6.337-6.889-1.7-2.837-3.453-5.757-6.58-7.417l8.253-8.253c2.984,1.28,4.626,4,6.358,6.871,1.707,2.83,3.465,5.743,6.6,7.4Z" transform="translate(-5.101 -0.001)"/>
        <path id="Trazado_1159807" data-name="Trazado 1159807" d="M382.858,408.513a1.124,1.124,0,1,0-.456,1.39A1.132,1.132,0,0,0,382.858,408.513Z" transform="translate(-338.491 -362.006)"/>
      </g>
    </g>
  </g>
</svg>
