<svg xmlns="http://www.w3.org/2000/svg" xmlns:xlink="http://www.w3.org/1999/xlink" width="400" height="318" viewBox="0 0 400 318">
  <defs>
    <clipPath id="clip-path">
      <rect id="Rectángulo_420173" data-name="Rectángulo 420173" width="400" height="318" transform="translate(158.003 1342.457)" fill="#fff" stroke="#707070" stroke-width="1"/>
    </clipPath>
  </defs>
  <g id="Enmascarar_grupo_1153298" data-name="Enmascarar grupo 1153298" transform="translate(-158.003 -1342.457)" clip-path="url(#clip-path)">
    <g id="Grupo_1215512" data-name="Grupo 1215512" transform="translate(169.001 1382.625)">
      <rect id="Rectángulo_420172" data-name="Rectángulo 420172" width="220" height="260" rx="46" transform="translate(96.003 -0.168)" fill="#eca675"/>
      <g id="_35905925_law_firm_03_1_" data-name="35905925_law_firm_03 (1)" transform="translate(0 13.868)">
        <g id="Grupo_1215378" data-name="Grupo 1215378" transform="translate(222.955 0)">
          <g id="Grupo_1215376" data-name="Grupo 1215376" transform="translate(10.484 13.588)">
            <g id="Grupo_1215373" data-name="Grupo 1215373" transform="translate(91.78 146.307)">
              <path id="Trazado_1087907" data-name="Trazado 1087907" d="M1113.4,576.475a.219.219,0,0,0,.088.006c.03,0,.759-.1,2.031-.372a.219.219,0,1,0-.092-.429c-1.253.266-1.99.365-2,.366a.219.219,0,0,0-.031.429Z" transform="translate(-1113.239 -575.676)" fill="#318c85"/>
            </g>
            <g id="Grupo_1215374" data-name="Grupo 1215374" transform="translate(3.968 4.771)">
              <path id="Trazado_1087908" data-name="Trazado 1087908" d="M937.92,282.752a.219.219,0,0,1,.148-.273c1.286-.379,2.582-.811,3.852-1.283a.22.22,0,1,1,.153.411c-1.279.476-2.584.911-3.881,1.293a.219.219,0,0,1-.121,0A.211.211,0,0,1,937.92,282.752Zm7.642-2.811a.22.22,0,0,1,.109-.291c1.236-.56,2.459-1.167,3.634-1.805a.219.219,0,0,1,.209.385c-1.184.643-2.416,1.255-3.662,1.819a.219.219,0,0,1-.15.011A.225.225,0,0,1,945.563,279.941Zm7.166-3.861a.22.22,0,0,1,.065-.3c1.14-.737,2.255-1.523,3.314-2.335a.219.219,0,0,1,.267.348c-1.068.819-2.193,1.612-3.343,2.355a.219.219,0,0,1-.179.027A.216.216,0,0,1,952.729,276.08Zm6.471-4.93a.22.22,0,0,1,.014-.31c1-.913,1.964-1.877,2.866-2.862a.22.22,0,0,1,.324.3c-.911,1-1.885,1.968-2.894,2.89a.22.22,0,0,1-.207.049A.228.228,0,0,1,959.2,271.149Zm5.515-5.975a.219.219,0,0,1-.042-.307c.811-1.071,1.583-2.194,2.292-3.337a.219.219,0,1,1,.373.231c-.716,1.155-1.495,2.289-2.315,3.371a.219.219,0,0,1-.234.079A.228.228,0,0,1,964.714,265.174Zm4.32-6.887a.219.219,0,0,1-.1-.294c.6-1.2,1.146-2.441,1.638-3.7a.219.219,0,1,1,.409.159c-.5,1.273-1.053,2.531-1.654,3.738a.219.219,0,0,1-.256.114A.174.174,0,0,1,969.035,258.288Zm2.992-7.557a.22.22,0,0,1-.148-.273q.084-.285.165-.575c.307-1.094.583-2.223.819-3.357a.22.22,0,0,1,.26-.17.222.222,0,0,1,.17.259c-.238,1.143-.516,2.283-.826,3.386q-.082.292-.167.581a.22.22,0,0,1-.27.149Zm1.534-8.2c.2-1.379.36-2.734.471-4.029a.219.219,0,0,1,.437.037c-.111,1.3-.271,2.668-.474,4.055a.22.22,0,0,1-.249.185l-.028-.006A.219.219,0,0,1,973.561,242.53Zm.672-8.076c.016-1.4-.03-2.762-.137-4.045a.22.22,0,0,1,.438-.037c.108,1.3.155,2.672.139,4.086a.22.22,0,0,1-.279.209A.223.223,0,0,1,974.233,234.454ZM955.946,222.5a.22.22,0,0,1,.339-.279,3.78,3.78,0,0,0,3.424,1.355.219.219,0,1,1,.055.435,4.279,4.279,0,0,1-1.706-.119A4.2,4.2,0,0,1,955.946,222.5Zm17.579,3.907a24.507,24.507,0,0,0-1.133-3.865.219.219,0,1,1,.409-.16,24.931,24.931,0,0,1,1.153,3.934.22.22,0,0,1-.43.09Zm-10.452-4.394a.219.219,0,0,1-.007-.31,12.153,12.153,0,0,0,2.177-3.331.219.219,0,1,1,.4.184,12.571,12.571,0,0,1-2.258,3.451.22.22,0,0,1-.218.06A.214.214,0,0,1,963.073,222.016Zm-8.233-3.5a7.707,7.707,0,0,1,.261-1.4q.073-.262.168-.53a4.23,4.23,0,0,1,1.287-1.822.22.22,0,0,1,.285.334,3.8,3.8,0,0,0-1.158,1.633q-.089.255-.159.5a7.323,7.323,0,0,0-.246,1.321.22.22,0,0,1-.238.2.238.238,0,0,1-.04-.008A.219.219,0,0,1,954.84,218.519Zm15.706.467a13.513,13.513,0,0,0-2.687-2.948.22.22,0,0,1,.276-.342,13.974,13.974,0,0,1,2.775,3.043.22.22,0,0,1-.241.335A.208.208,0,0,1,970.546,218.986Zm-10.334-5.5a.219.219,0,0,1,.2-.241,9.935,9.935,0,0,1,3.666.334c.146.041.294.086.44.134a.219.219,0,0,1,.14.277.228.228,0,0,1-.277.14,9.538,9.538,0,0,0-3.925-.448.219.219,0,0,1-.241-.2Zm6.34,1.084.048-.191a32.814,32.814,0,0,0,.685-3.789.22.22,0,0,1,.436.053,33.449,33.449,0,0,1-.7,3.847l-.047.187a.219.219,0,0,1-.266.159h-.006A.219.219,0,0,1,966.552,214.569Zm1-8.02a38.512,38.512,0,0,0-.163-4.045.22.22,0,0,1,.437-.041,38.965,38.965,0,0,1,.164,4.092.22.22,0,0,1-.222.217.236.236,0,0,1-.057-.008A.224.224,0,0,1,967.553,206.549Zm-.75-8.05a37.577,37.577,0,0,0-1.016-3.916.22.22,0,0,1,.418-.133,38,38,0,0,1,1.028,3.962.22.22,0,0,1-.172.259.218.218,0,0,1-.258-.172Zm-2.454-7.7a37.447,37.447,0,0,0-1.838-3.6.219.219,0,1,1,.379-.221,37.943,37.943,0,0,1,1.86,3.644.22.22,0,0,1-.26.3A.225.225,0,0,1,964.349,190.8Zm-4.053-6.985c-.785-1.073-1.643-2.129-2.551-3.138a.22.22,0,1,1,.326-.294,40.777,40.777,0,0,1,2.578,3.172.22.22,0,0,1-.237.341A.229.229,0,0,1,960.3,183.818Zm-91.967-30.146c-.757-.213-1.51-.432-2.236-.651a.22.22,0,0,1-.147-.274.222.222,0,0,1,.274-.147c.724.219,1.473.437,2.228.649.558.157,1.11.308,1.682.46h0a.22.22,0,0,1-.116.424q-.844-.224-1.657-.453Zm5.48,1.187a.219.219,0,0,1,.264-.163c1.288.3,2.623.6,3.97.879a.219.219,0,1,1-.089.43c-1.35-.281-2.69-.578-3.981-.881l-.01,0A.219.219,0,0,1,873.809,154.859ZM954.9,177.8c-.972-.9-2.012-1.775-3.092-2.611a.219.219,0,1,1,.269-.347c1.09.844,2.139,1.73,3.121,2.635a.22.22,0,0,1-.209.373A.226.226,0,0,1,954.9,177.8ZM862.21,151.767c-1.319-.455-2.606-.931-3.827-1.415a.219.219,0,1,1,.162-.408c1.214.482,2.5.955,3.808,1.408a.22.22,0,0,1-.131.419Zm19.568,4.765a.22.22,0,0,1,.256-.176c1.3.24,2.649.474,4.007.7a.219.219,0,0,1-.071.433c-1.361-.222-2.712-.457-4.016-.7l-.02,0A.22.22,0,0,1,881.778,156.532Zm-27.148-7.786c-1.279-.591-2.507-1.208-3.65-1.835a.219.219,0,1,1,.211-.385c1.135.621,2.353,1.234,3.624,1.821a.22.22,0,0,1-.151.411A.2.2,0,0,1,854.63,148.746Zm35.183,9.108a.219.219,0,0,1,.248-.186c1.314.189,2.671.373,4.031.545a.22.22,0,0,1-.055.436c-1.363-.173-2.722-.356-4.039-.546l-.028-.006A.22.22,0,0,1,889.813,157.854Zm8.078,1.031a.22.22,0,0,1,.243-.194c1.318.146,2.68.287,4.047.418a.219.219,0,0,1-.042.437c-1.37-.132-2.734-.273-4.053-.419a.219.219,0,0,1-.194-.242ZM847.48,144.8a33.431,33.431,0,0,1-3.265-2.472.219.219,0,0,1,.287-.332,33.058,33.058,0,0,0,3.222,2.44.219.219,0,0,1-.182.394A.224.224,0,0,1,847.48,144.8Zm101.032,28.046c-1.1-.724-2.27-1.431-3.464-2.1a.219.219,0,1,1,.214-.383c1.2.674,2.378,1.386,3.49,2.116a.22.22,0,0,1-.18.395A.269.269,0,0,1,948.513,172.843Zm-42.519-13.155a.219.219,0,0,1,.24-.2c1.367.139,2.729.295,4.051.463a.219.219,0,1,1-.055.435c-1.318-.168-2.677-.323-4.04-.462a.23.23,0,0,1-.037-.007A.221.221,0,0,1,905.993,159.688Zm35.461,9.188c-1.191-.572-2.437-1.127-3.7-1.65a.219.219,0,1,1,.167-.406c1.275.526,2.528,1.084,3.726,1.659a.219.219,0,0,1-.154.409A.149.149,0,0,1,941.454,168.877Zm-27.381-8.168a.22.22,0,0,1,.251-.183c1.356.211,2.709.442,4.02.687a.219.219,0,0,1-.081.431c-1.307-.244-2.655-.475-4.007-.685l-.026-.006A.221.221,0,0,1,914.073,160.709Zm19.889,5.068c-1.248-.442-2.544-.869-3.855-1.268a.219.219,0,0,1,.123-.421h0c1.317.4,2.62.83,3.874,1.275a.22.22,0,0,1-.133.418Zm-11.885-3.583a.22.22,0,0,1,.262-.167c1.344.3,2.679.619,3.967.954a.226.226,0,0,1,.157.268.22.22,0,0,1-.268.157c-1.283-.334-2.612-.654-3.951-.951l-.012,0A.218.218,0,0,1,922.078,162.194Z" transform="translate(-844.14 -141.939)" fill="#318c85"/>
            </g>
            <g id="Grupo_1215375" data-name="Grupo 1215375">
              <path id="Trazado_1087909" data-name="Trazado 1087909" d="M833.206,129.492a.22.22,0,0,0,.235-.344,7.794,7.794,0,0,1-1.036-1.686.22.22,0,0,0-.411.154,7.985,7.985,0,0,0,1.1,1.8A.218.218,0,0,0,833.206,129.492Z" transform="translate(-831.979 -127.319)" fill="#318c85"/>
            </g>
          </g>
          <g id="Grupo_1215377" data-name="Grupo 1215377">
            <path id="Trazado_1087910" data-name="Trazado 1087910" d="M817.489,110.894l-4.716-4.768,3.981-.8Z" transform="translate(-808.557 -98.914)" fill="#175e58"/>
            <path id="Trazado_1087911" data-name="Trazado 1087911" d="M803.573,94.043l-3.721-8.323,7.487,7.811Z" transform="translate(-799.852 -85.706)" fill="#318c85"/>
            <path id="Trazado_1087912" data-name="Trazado 1087912" d="M799.861,85.678l13.707,5.868-3.692.679Z" transform="translate(-799.858 -85.678)" fill="#318c85"/>
            <path id="Trazado_1087913" data-name="Trazado 1087913" d="M799.852,85.72l7.48,7.849,1.453,4.117,1.125-5.466Z" transform="translate(-799.852 -85.706)" fill="#24736d"/>
          </g>
        </g>
        <path id="Trazado_1087914" data-name="Trazado 1087914" d="M1113.431,666.973a3.566,3.566,0,0,0,1.038-3.567,5.405,5.405,0,0,0-2.3-3.058,11.63,11.63,0,0,0-3.606-1.482,14.676,14.676,0,0,0-6.424-.418,61.931,61.931,0,0,1,6.047-7.343c.2-.208.4-.413.607-.618l4.551,5.038a11.888,11.888,0,0,0,3.417,2.93,4.056,4.056,0,0,0,4.282-.234,3.565,3.565,0,0,0,1.037-3.567,5.4,5.4,0,0,0-2.3-3.057,11.627,11.627,0,0,0-3.606-1.482,14.449,14.449,0,0,0-6.623-.378,63.127,63.127,0,0,1,8.141-6.73l4.807,4.928a11.884,11.884,0,0,0,3.527,2.8,4.056,4.056,0,0,0,4.27-.4,3.564,3.564,0,0,0,.9-3.6,5.4,5.4,0,0,0-2.42-2.966,11.61,11.61,0,0,0-3.66-1.343,14.922,14.922,0,0,0-6.232-.219,62.057,62.057,0,0,1,6.625-3.819c.676-.336,1.361-.654,2.05-.964l5.111,4.9a11.876,11.876,0,0,0,3.617,2.679,4.056,4.056,0,0,0,4.255-.538,3.563,3.563,0,0,0,.781-3.631,5.4,5.4,0,0,0-2.516-2.886,11.624,11.624,0,0,0-3.7-1.222,15.729,15.729,0,0,0-5.582-.152,59.56,59.56,0,0,1,7.282-2.435l6.659,1.832a11.913,11.913,0,0,0,4.459.634,4.059,4.059,0,0,0,3.489-2.5,3.559,3.559,0,0,0-1.042-3.563,5.414,5.414,0,0,0-3.589-1.339,11.639,11.639,0,0,0-3.841.687,13.9,13.9,0,0,0-6.159,3.619l-.024,0A60.048,60.048,0,0,0,1129,636.12a15.4,15.4,0,0,0,3.354-4.8,11.627,11.627,0,0,0,1.186-3.715,5.4,5.4,0,0,0-.857-3.731,3.563,3.563,0,0,0-3.4-1.5,4.057,4.057,0,0,0-2.934,3.128,11.9,11.9,0,0,0,.043,4.5l.942,6.835a62.11,62.11,0,0,0-8.76,4.82,15,15,0,0,0,2.234-5.732,11.629,11.629,0,0,0,.227-3.892,5.4,5.4,0,0,0-1.758-3.4,3.565,3.565,0,0,0-3.665-.611,4.053,4.053,0,0,0-2.067,3.757,11.9,11.9,0,0,0,1.16,4.349q1.306,3.191,2.609,6.382c-.086.06-.174.118-.26.179a64,64,0,0,0-7.931,6.6,14.175,14.175,0,0,0,1.341-6.722,11.6,11.6,0,0,0-.566-3.855,5.4,5.4,0,0,0-2.411-2.974,3.568,3.568,0,0,0-3.714.144,4.051,4.051,0,0,0-1.263,4.1,11.884,11.884,0,0,0,2.017,4.023l3.973,5.9-.1.1-.066-.013.038.042a62.95,62.95,0,0,0-6.47,7.672,15.368,15.368,0,0,0-.964-6.121,11.841,11.841,0,0,0-1.788-3.546,5.516,5.516,0,0,0-3.286-2.1,3.63,3.63,0,0,0-3.542,1.328,4.123,4.123,0,0,0,.1,4.365,12.123,12.123,0,0,0,3.244,3.243l5.188,4.009.134.148a59.969,59.969,0,0,0-5.319,9.688c-.155.358.374.668.531.306a59.862,59.862,0,0,1,5.212-9.525l4.317,4.78a11.9,11.9,0,0,0,3.417,2.93A4.057,4.057,0,0,0,1113.431,666.973Z" transform="translate(-773.54 -447.211)" fill="#b0bd4c"/>
        <path id="Trazado_1087915" data-name="Trazado 1087915" d="M157.29,662.227a3.565,3.565,0,0,1-1.037-3.567,5.4,5.4,0,0,1,2.3-3.058,11.626,11.626,0,0,1,3.606-1.482,14.675,14.675,0,0,1,6.424-.418,61.875,61.875,0,0,0-6.047-7.343c-.2-.208-.4-.413-.607-.618l-4.551,5.038a11.886,11.886,0,0,1-3.417,2.93,4.056,4.056,0,0,1-4.283-.234,3.565,3.565,0,0,1-1.037-3.567,5.4,5.4,0,0,1,2.3-3.057,11.621,11.621,0,0,1,3.606-1.482,14.45,14.45,0,0,1,6.623-.378,63.111,63.111,0,0,0-8.141-6.73l-4.807,4.928a11.885,11.885,0,0,1-3.527,2.8,4.057,4.057,0,0,1-4.271-.4,3.564,3.564,0,0,1-.9-3.6,5.4,5.4,0,0,1,2.42-2.967,11.614,11.614,0,0,1,3.66-1.343,14.924,14.924,0,0,1,6.232-.219,62.054,62.054,0,0,0-6.625-3.819c-.676-.336-1.361-.654-2.05-.964l-5.11,4.9a11.88,11.88,0,0,1-3.617,2.679,4.057,4.057,0,0,1-4.255-.538,3.563,3.563,0,0,1-.781-3.631,5.4,5.4,0,0,1,2.516-2.886,11.617,11.617,0,0,1,3.7-1.222,15.725,15.725,0,0,1,5.581-.152,59.563,59.563,0,0,0-7.282-2.435l-6.659,1.832a11.91,11.91,0,0,1-4.459.634,4.058,4.058,0,0,1-3.489-2.5,3.558,3.558,0,0,1,1.042-3.563,5.413,5.413,0,0,1,3.589-1.339,11.645,11.645,0,0,1,3.841.687,13.9,13.9,0,0,1,6.159,3.619l.024,0a60.037,60.037,0,0,1,7.745,2.607,15.4,15.4,0,0,1-3.354-4.8,11.63,11.63,0,0,1-1.186-3.715,5.406,5.406,0,0,1,.857-3.731,3.563,3.563,0,0,1,3.4-1.5,4.057,4.057,0,0,1,2.935,3.128,11.894,11.894,0,0,1-.043,4.5l-.942,6.834a62.128,62.128,0,0,1,8.76,4.82,15,15,0,0,1-2.234-5.732,11.619,11.619,0,0,1-.227-3.892,5.4,5.4,0,0,1,1.758-3.4,3.565,3.565,0,0,1,3.665-.611,4.054,4.054,0,0,1,2.067,3.757,11.89,11.89,0,0,1-1.16,4.349l-2.609,6.382c.086.06.174.118.26.179a64.006,64.006,0,0,1,7.931,6.6,14.18,14.18,0,0,1-1.341-6.722,11.6,11.6,0,0,1,.566-3.856,5.4,5.4,0,0,1,2.411-2.974,3.569,3.569,0,0,1,3.714.144,4.051,4.051,0,0,1,1.263,4.1,11.882,11.882,0,0,1-2.017,4.022l-3.973,5.9.1.1.066-.013-.038.042a62.926,62.926,0,0,1,6.47,7.672,15.366,15.366,0,0,1,.964-6.121,11.849,11.849,0,0,1,1.788-3.546,5.515,5.515,0,0,1,3.287-2.1,3.63,3.63,0,0,1,3.543,1.328,4.125,4.125,0,0,1-.1,4.365,12.127,12.127,0,0,1-3.244,3.243l-5.188,4.009-.133.148a59.966,59.966,0,0,1,5.319,9.688c.155.358-.374.668-.531.306a59.87,59.87,0,0,0-5.212-9.525l-4.317,4.78a11.9,11.9,0,0,1-3.417,2.93A4.055,4.055,0,0,1,157.29,662.227Z" transform="translate(-118.339 -444.014)" fill="#b0bd4c"/>
        <g id="Grupo_1215385" data-name="Grupo 1215385" transform="translate(294.062 119.859)">
          <g id="Grupo_1215380" data-name="Grupo 1215380">
            <g id="Grupo_1215379" data-name="Grupo 1215379">
              <path id="Trazado_1087916" data-name="Trazado 1087916" d="M1043.072,487.764c-3.764,7.942-15.384,10.517-19.678,18.458-2.287,4.665-.171,9.051.856,13.327,1.165,7.854,2.012,16.731-.964,25.3-1.631,3.9-4.6,7.587-5.527,11.536a46.741,46.741,0,0,0,12.158-2.845c.077-.093.155-.19.23-.286,2.928-3.757,4.921-8.355,4.424-13.2-.452-4.409-2.678-8.8-1.594-13.278.593-2.45,2.181-4.477,3.673-6.446a18.373,18.373,0,0,0,3.53-6.584c1.054-4.174.566-9,3.127-12.685,1.565-2.246,4.067-3.453,6.3-4.9a12.259,12.259,0,0,0,3.328-2.935,12.688,12.688,0,0,0,1.719-3.4c.824-2.378,1.209-4.88,1.994-7.27a18.961,18.961,0,0,1,3.777-6.53c3.652-4.2,8.557-6.958,13.055-10.123,4.068-2.865,8.19-6.323,10.212-11,.069-.159.135-.32.2-.481a5,5,0,0,0-2.133-1.3c-7.919-1.52-13.4,9.755-20.245,13.223-8.205,3.21-15.118,2.642-16.531,13.169C1044.54,482.266,1044.394,485.07,1043.072,487.764Z" transform="translate(-1017.759 -452.986)" fill="#318c85"/>
            </g>
          </g>
          <g id="Grupo_1215382" data-name="Grupo 1215382" transform="translate(12.157 1.441)">
            <g id="Grupo_1215381" data-name="Grupo 1215381">
              <path id="Trazado_1087917" data-name="Trazado 1087917" d="M1098.58,468.882c-4.5,3.165-9.4,5.925-13.055,10.123a18.96,18.96,0,0,0-3.777,6.53c-.786,2.39-1.171,4.892-1.995,7.27a12.678,12.678,0,0,1-1.719,3.4,12.256,12.256,0,0,1-3.329,2.935c-2.236,1.447-4.737,2.654-6.3,4.9-2.561,3.683-2.073,8.51-3.126,12.685a18.368,18.368,0,0,1-3.531,6.584c-1.492,1.969-3.08,4-3.673,6.446-1.084,4.478,1.143,8.869,1.595,13.278.5,4.842-1.5,9.44-4.424,13.2-.075.1-.153.193-.23.286.215-.079.427-.16.64-.246,9.7-3.794,18.6-10.884,16.8-20.777-1.993-4.565-4.083-8.136,2.242-12.512,9.622-8.375,22.419-13.748,19.367-26.646-.96-5.824-5.036-14.076.836-20.08,2.652-2.057,5.964-2.7,8.661-4.68,5.027-3.165,8.428-10.351,5.685-13.87a2.561,2.561,0,0,0-.26-.3c-.062.162-.128.323-.2.481C1106.771,462.559,1102.649,466.017,1098.58,468.882Z" transform="translate(-1055.015 -457.403)" fill="#257872"/>
            </g>
          </g>
          <g id="Grupo_1215384" data-name="Grupo 1215384" transform="translate(12.157 1.441)">
            <g id="Grupo_1215383" data-name="Grupo 1215383">
              <path id="Trazado_1087918" data-name="Trazado 1087918" d="M1098.58,468.882c-4.5,3.165-9.4,5.925-13.055,10.123a18.96,18.96,0,0,0-3.777,6.53c-.786,2.39-1.171,4.892-1.995,7.27a12.677,12.677,0,0,1-1.719,3.4,12.256,12.256,0,0,1-3.329,2.935c-2.236,1.447-4.737,2.654-6.3,4.9-2.561,3.683-2.073,8.51-3.126,12.685a18.366,18.366,0,0,1-3.531,6.584c-1.492,1.969-3.08,4-3.673,6.446-1.084,4.478,1.143,8.869,1.595,13.278.5,4.842-1.5,9.44-4.424,13.2-.075.1-.153.193-.23.286.215-.079.427-.16.64-.246a26.039,26.039,0,0,0,1.914-2.869,19.053,19.053,0,0,0,2.267-6.029,17.706,17.706,0,0,0-.206-6.754c-.471-2.287-1.178-4.536-1.42-6.864a11.162,11.162,0,0,1,1.732-7.352c1.4-2.218,3.247-4.132,4.485-6.46a18.741,18.741,0,0,0,1.764-6.312,36.949,36.949,0,0,1,1.219-6.787,11.1,11.1,0,0,1,5.045-5.911c2.261-1.423,4.667-2.692,6.176-4.984a21.2,21.2,0,0,0,2.482-6.766,24.57,24.57,0,0,1,2.724-7.344,25.61,25.61,0,0,1,5.74-6.212c6.6-5.354,16.4-9.593,19.67-17.921a2.543,2.543,0,0,0-.26-.3c-.061.162-.128.323-.2.481C1106.771,462.558,1102.649,466.016,1098.58,468.882Z" transform="translate(-1055.015 -457.402)" fill="#8bc9c4"/>
            </g>
          </g>
        </g>
        <g id="Grupo_1215388" data-name="Grupo 1215388" transform="translate(17.517 44.159)">
          <path id="Trazado_1087919" data-name="Trazado 1087919" d="M202.395,540.076a2.041,2.041,0,0,0,.3.26,8.871,8.871,0,0,0,3.034,1.561,3.024,3.024,0,0,1,.157-.32c.535-1.061,1.132-2.121,1.776-3.222-1.006-3.082-1.226-8.046,3.868-15.371,10.3-14.75.519-25.538-8.835-25.9a11.129,11.129,0,0,0-2.311.12l-.126,5.464-.723,30.562A9.19,9.19,0,0,0,202.395,540.076Z" transform="translate(-189.987 -406.985)" fill="#d13737"/>
          <rect id="Rectángulo_420148" data-name="Rectángulo 420148" width="3.903" height="197.764" transform="translate(8.811 3.372)" fill="#753721"/>
          <g id="Grupo_1215386" data-name="Grupo 1215386" transform="translate(3.862 3.378)">
            <path id="Trazado_1087920" data-name="Trazado 1087920" d="M184.442,320.776c5.565,5.465,9.827-1,11.56,10.529,1.078,7.168-.814,21.213-5.335,29.764-4.37,8.266-2.865,15.862,1.557,22.216-1.517-9.314-1.627-14.608,3.711-23.937,17.136-29.948,3.448-65.746-.347-94.649-2.007-15.284-2.468-20.774-4.621-33.344.3,17.6-.708,44.4-3.9,60.383C184.714,303.528,178.9,315.338,184.442,320.776Z" transform="translate(-182.122 -231.355)" fill="#dd4747"/>
          </g>
          <g id="Grupo_1215387" data-name="Grupo 1215387" transform="translate(6.748 20.244)">
            <path id="Trazado_1087921" data-name="Trazado 1087921" d="M198.021,283.042s2.085,18.331,3.939,35.453c3.08,28.428,1.867,38,.723,38.355-.713.219-.328-3-6.167-2.958-6.418.05-5.9-7.419-5.061-10.336C196.983,324.361,199.161,296.384,198.021,283.042Z" transform="translate(-190.965 -283.042)" fill="#999"/>
          </g>
          <path id="Trazado_1087922" data-name="Trazado 1087922" d="M197.5,237h-6.31a1.165,1.165,0,1,0,0,2.329h6.31a1.165,1.165,0,1,0,0-2.329Z" transform="translate(-183.587 -231.778)" fill="#753721"/>
          <path id="Trazado_1087923" data-name="Trazado 1087923" d="M193.768,225.672c0,2.578,1.388,3.078,3.1,3.078s3.1-.5,3.1-3.078S198.58,221,196.868,221,193.768,223.094,193.768,225.672Z" transform="translate(-186.106 -221.004)" fill="#753721"/>
          <path id="Trazado_1087924" data-name="Trazado 1087924" d="M185.956,819.44h-9.814a5.855,5.855,0,0,0-5.855,5.855h21.524A5.855,5.855,0,0,0,185.956,819.44Z" transform="translate(-170.287 -624.159)" fill="#753721"/>
        </g>
        <g id="Grupo_1215394" data-name="Grupo 1215394" transform="translate(48.479 1.741)">
          <g id="Grupo_1215389" data-name="Grupo 1215389" transform="translate(0 221.78)">
            <rect id="Rectángulo_420149" data-name="Rectángulo 420149" width="243" height="7.979" transform="translate(12.248)" fill="#faf3e1"/>
            <rect id="Rectángulo_420150" data-name="Rectángulo 420150" width="267.495" height="13.142" transform="translate(0 7.979)" fill="#f0e2c0"/>
          </g>
          <rect id="Rectángulo_420151" data-name="Rectángulo 420151" width="243" height="12.333" transform="translate(12.248 85.743)" fill="#faf3e1"/>
          <rect id="Rectángulo_420152" data-name="Rectángulo 420152" width="243" height="10.046" transform="translate(12.248 75.698)" fill="#f0e2c0"/>
          <g id="Grupo_1215390" data-name="Grupo 1215390" transform="translate(155.31 98.077)">
            <rect id="Rectángulo_420153" data-name="Rectángulo 420153" width="23.082" height="98.856" transform="translate(5.056 12.424)" fill="#faf3e1"/>
            <path id="Trazado_1087925" data-name="Trazado 1087925" d="M757.682,391.568H741.117l4.992,12.424h23.146l4.993-12.424Z" transform="translate(-741.117 -391.568)" fill="#f0e2c0"/>
            <path id="Trazado_1087926" data-name="Trazado 1087926" d="M757.78,745.007h16.566l-4.993-12.424H746.207l-4.992,12.424Z" transform="translate(-741.183 -621.303)" fill="#f0e2c0"/>
          </g>
          <g id="Grupo_1215391" data-name="Grupo 1215391" transform="translate(216.346 98.077)">
            <rect id="Rectángulo_420154" data-name="Rectángulo 420154" width="23.082" height="98.856" transform="translate(5.057 12.424)" fill="#faf3e1"/>
            <path id="Trazado_1087927" data-name="Trazado 1087927" d="M944.727,391.568H928.161l4.992,12.424H956.3l4.993-12.424Z" transform="translate(-928.161 -391.568)" fill="#f0e2c0"/>
            <path id="Trazado_1087928" data-name="Trazado 1087928" d="M944.825,745.007H961.39L956.4,732.583H933.251l-4.992,12.424Z" transform="translate(-928.227 -621.303)" fill="#f0e2c0"/>
          </g>
          <g id="Grupo_1215392" data-name="Grupo 1215392" transform="translate(85.092 98.077)">
            <rect id="Rectángulo_420155" data-name="Rectángulo 420155" width="23.082" height="98.856" transform="translate(5.057 12.424)" fill="#faf3e1"/>
            <path id="Trazado_1087929" data-name="Trazado 1087929" d="M542.5,391.568H525.934l4.993,12.424h23.147l4.992-12.424Z" transform="translate(-525.934 -391.568)" fill="#f0e2c0"/>
            <path id="Trazado_1087930" data-name="Trazado 1087930" d="M542.6,745.007h16.566l-4.992-12.424H531.025l-4.993,12.424Z" transform="translate(-526 -621.303)" fill="#f0e2c0"/>
          </g>
          <g id="Grupo_1215393" data-name="Grupo 1215393" transform="translate(22.082 98.077)">
            <rect id="Rectángulo_420156" data-name="Rectángulo 420156" width="23.082" height="98.856" transform="translate(5.057 12.424)" fill="#faf3e1"/>
            <path id="Trazado_1087931" data-name="Trazado 1087931" d="M349.408,391.568H332.842l4.993,12.424h23.146l4.992-12.424Z" transform="translate(-332.842 -391.568)" fill="#f0e2c0"/>
            <path id="Trazado_1087932" data-name="Trazado 1087932" d="M349.506,745.007h16.566l-4.992-12.424H337.933l-4.992,12.424Z" transform="translate(-332.909 -621.303)" fill="#f0e2c0"/>
          </g>
          <path id="Trazado_1087933" data-name="Trazado 1087933" d="M470.935,91.012l101.255,75.7H370.28Z" transform="translate(-335.981 -91.012)" fill="#faf3e1"/>
          <path id="Trazado_1087934" data-name="Trazado 1087934" d="M529.465,134.394l72.68,53.415H456.517Z" transform="translate(-394.077 -120.238)" fill="#f0e2c0"/>
          <ellipse id="Elipse_14295" data-name="Elipse 14295" cx="15.235" cy="11.852" rx="15.235" ry="11.852" transform="translate(120.019 33.509)" fill="#faf3e1"/>
        </g>
        <g id="Grupo_1215423" data-name="Grupo 1215423" transform="translate(108.421 6.592)">
          <g id="Grupo_1215395" data-name="Grupo 1215395" transform="translate(74.446 186.864)">
            <path id="Trazado_1087935" data-name="Trazado 1087935" d="M688.009,678.521s5.553,30.915-11.008,36.87h15.927v-36.87Z" transform="translate(-677.001 -678.521)" fill="#8f4827"/>
            <path id="Trazado_1087936" data-name="Trazado 1087936" d="M735.206,678.521s-5.553,30.915,11.008,36.87H730.287v-36.87Z" transform="translate(-712.899 -678.521)" fill="#8f4827"/>
          </g>
          <path id="Trazado_1087937" data-name="Trazado 1087937" d="M718.751,116.456a20.123,20.123,0,0,0-2.469-4.673,22.97,22.97,0,0,1-2.056-3.648,3.613,3.613,0,0,0-6.725.069,21.86,21.86,0,0,1-2.077,3.752,22.077,22.077,0,0,0-2.372,4.425,11.657,11.657,0,0,0,1.607,9.816,8.48,8.48,0,0,0,1.5,1.632,7.285,7.285,0,0,0,2.563,1.413,7.107,7.107,0,0,0,2.02.323c.05,0,.1,0,.151,0s.1,0,.144,0a7.328,7.328,0,0,0,4.615-1.714,8.472,8.472,0,0,0,1.477-1.575A11.653,11.653,0,0,0,718.751,116.456Zm-5.589,9.485a3.008,3.008,0,0,1-.309.187.194.194,0,0,0-.025.014,4.079,4.079,0,0,1-1.937.474,3.916,3.916,0,0,1-1.934-.5c-.007,0-.014-.007-.022-.011-.1-.057-.2-.118-.3-.183-2.444-1.65-3.285-5.852-2.487-8.138.855-2.451,3.267-5.072,4.417-8.087a.334.334,0,0,1,.622-.007c1.254,3.113,3.634,5.582,4.439,8.094C716.458,120.37,715.573,124.367,713.161,125.941Z" transform="translate(-619.784 -105.878)" fill="#8f4827"/>
          <g id="Grupo_1215406" data-name="Grupo 1215406" transform="translate(0 37.239)">
            <g id="Grupo_1215398" data-name="Grupo 1215398" transform="translate(0.693)">
              <g id="Grupo_1215396" data-name="Grupo 1215396" transform="translate(23.19)">
                <path id="Trazado_1087938" data-name="Trazado 1087938" d="M545.308,275.349a.536.536,0,0,1-.468-.371l-22.715-53.865a.911.911,0,0,1,.2-1.017c.259-.206.59-.085.739.27l22.715,53.865a.911.911,0,0,1-.2,1.017A.432.432,0,0,1,545.308,275.349Z" transform="translate(-522.052 -219.995)" fill="#8f4827"/>
              </g>
              <g id="Grupo_1215397" data-name="Grupo 1215397">
                <path id="Trazado_1087939" data-name="Trazado 1087939" d="M451.525,275.349a.536.536,0,0,0,.468-.371l22.715-53.865a.911.911,0,0,0-.2-1.017c-.259-.206-.59-.085-.739.27l-22.715,53.865a.911.911,0,0,0,.2,1.017A.43.43,0,0,0,451.525,275.349Z" transform="translate(-450.985 -219.995)" fill="#8f4827"/>
              </g>
            </g>
            <g id="Grupo_1215405" data-name="Grupo 1215405" transform="translate(0 52.939)">
              <g id="Grupo_1215399" data-name="Grupo 1215399" transform="translate(2.593 4.526)">
                <path id="Trazado_1087940" data-name="Trazado 1087940" d="M462.434,410.084h31.932c3.108,0,5.627-3.3,5.627-7.37V396.1H456.807v6.619C456.807,406.784,459.327,410.084,462.434,410.084Z" transform="translate(-456.807 -396.095)" fill="#ffb83d"/>
              </g>
              <g id="Grupo_1215400" data-name="Grupo 1215400" transform="translate(3.256 4.526)">
                <path id="Trazado_1087941" data-name="Trazado 1087941" d="M499.219,396.1v3.717c0,4.07-2.519,7.37-5.627,7.37H461.66a4.632,4.632,0,0,1-2.821-1c.948,2.321,2.814,3.9,4.965,3.9h31.932c3.108,0,5.627-3.3,5.627-7.37V396.1Z" transform="translate(-458.839 -396.096)" fill="#e6e6e6"/>
              </g>
              <g id="Grupo_1215404" data-name="Grupo 1215404">
                <path id="Trazado_1087942" data-name="Trazado 1087942" d="M495.388,382.227h-44.68c-1.066-.036-1.906,1.14-1.843,2.413a2.03,2.03,0,0,0,1.843,2.112h44.68a2.03,2.03,0,0,0,1.843-2.112C497.294,383.368,496.454,382.192,495.388,382.227Z" transform="translate(-448.862 -382.227)" fill="#8f4827"/>
                <g id="Grupo_1215403" data-name="Grupo 1215403" transform="translate(0 2.16)">
                  <g id="Grupo_1215401" data-name="Grupo 1215401">
                    <path id="Trazado_1087943" data-name="Trazado 1087943" d="M448.866,389.1v-.255C448.862,388.929,448.862,389.014,448.866,389.1Z" transform="translate(-448.863 -388.845)" fill="#cea020"/>
                  </g>
                  <g id="Grupo_1215402" data-name="Grupo 1215402" transform="translate(48.369)">
                    <path id="Trazado_1087944" data-name="Trazado 1087944" d="M597.089,388.845v.255C597.093,389.014,597.093,388.929,597.089,388.845Z" transform="translate(-597.089 -388.845)" fill="#cea020"/>
                  </g>
                </g>
              </g>
            </g>
          </g>
          <g id="Grupo_1215407" data-name="Grupo 1215407" transform="translate(22.29 20.049)">
            <path id="Trazado_1087945" data-name="Trazado 1087945" d="M725.033,383.67a1.957,1.957,0,0,1-3.138,0,2.58,2.58,0,0,1-.629-2.049l.029-.208V169.558l-.029-.209a2.532,2.532,0,0,1,.245-1.47c.007,0,.014.011.022.011a3.915,3.915,0,0,0,1.934.5,4.078,4.078,0,0,0,1.937-.474.2.2,0,0,1,.025-.014,2.544,2.544,0,0,1,.234,1.452l-.029.209V381.412l.029.209A2.578,2.578,0,0,1,725.033,383.67Z" transform="translate(-654.651 -167.696)" fill="#8f4827"/>
            <path id="Trazado_1087946" data-name="Trazado 1087946" d="M792.357,180.014a2.149,2.149,0,0,1-1.2,1.143c-.787.3-1.646.614-2.566.924-.5.173-1.028.341-1.567.51a69.67,69.67,0,0,1-30.307,2.541A68.385,68.385,0,0,1,725.9,172.746c-.787-.568-1.51-1.122-2.167-1.646-.05-.04-.1-.079-.151-.115-.417-.334-.809-.658-1.172-.963a2.18,2.18,0,0,1-.611-2.48,3.916,3.916,0,0,0,1.934.5,4.078,4.078,0,0,0,1.937-.474.2.2,0,0,1,.025-.014,2.883,2.883,0,0,0,.309-.187c.733.593,1.564,1.236,2.487,1.909A64.036,64.036,0,0,0,757.3,180.834a65.35,65.35,0,0,0,32.3-3.727,2.174,2.174,0,0,1,.776-.147,2.111,2.111,0,0,1,.658.1,2.174,2.174,0,0,1,1.51,1.927A2.117,2.117,0,0,1,792.357,180.014Z" transform="translate(-654.918 -167.348)" fill="#8f4827"/>
            <path id="Trazado_1087947" data-name="Trazado 1087947" d="M588.065,168.516a2.165,2.165,0,0,1-.762,1.477c-.363.305-.755.629-1.175.963-.047.039-.093.075-.143.115-.658.521-1.38,1.075-2.171,1.646A68.383,68.383,0,0,1,553,185.1a69.644,69.644,0,0,1-29.707-2.358c-.539-.162-1.064-.327-1.567-.492-1.15-.377-2.21-.758-3.167-1.125a2.166,2.166,0,0,1-1.247-2.8,2.186,2.186,0,0,1,1.348-1.283,2.157,2.157,0,0,1,.679-.111,2.132,2.132,0,0,1,.773.147,65.365,65.365,0,0,0,32.3,3.727,64.064,64.064,0,0,0,28.837-11.585c.924-.669,1.75-1.312,2.48-1.9.1.065.194.126.3.183.007,0,.014.011.022.011a3.915,3.915,0,0,0,1.934.5,4.078,4.078,0,0,0,1.937-.474A2.161,2.161,0,0,1,588.065,168.516Z" transform="translate(-517.168 -167.319)" fill="#8f4827"/>
          </g>
          <g id="Grupo_1215408" data-name="Grupo 1215408" transform="translate(66.877 223.734)">
            <path id="Trazado_1087948" data-name="Trazado 1087948" d="M695.946,791.508H660.119c-3.487,0-6.313,2.171-6.313,4.848v1.93h48.453v-1.93C702.259,793.678,699.432,791.508,695.946,791.508Z" transform="translate(-653.806 -791.508)" fill="#8f4827"/>
          </g>
          <g id="Grupo_1215409" data-name="Grupo 1215409" transform="translate(60.465 230.453)">
            <path id="Trazado_1087949" data-name="Trazado 1087949" d="M689.7,812.1H639.887c-4.409,0-5.73,2.171-5.73,4.848v2.75h61.277v-2.75C695.434,814.27,694.113,812.1,689.7,812.1Z" transform="translate(-634.157 -812.099)" fill="#8f4827"/>
          </g>
          <g id="Grupo_1215410" data-name="Grupo 1215410" transform="translate(19.765 29.754)">
            <path id="Trazado_1087950" data-name="Trazado 1087950" d="M513.852,197.058c-.137,0-.27.007-.4.018a4.422,4.422,0,0,0-.665,8.695,4.047,4.047,0,0,0,.938.13c.043,0,.086,0,.129,0s.086,0,.129,0a4.064,4.064,0,0,0,.942-.13,4.422,4.422,0,0,0-1.071-8.713Zm0,7.207a2.782,2.782,0,1,1,2.782-2.782,2.827,2.827,0,0,1-.119.805A2.787,2.787,0,0,1,513.852,204.265Z" transform="translate(-509.431 -197.058)" fill="#8f4827"/>
          </g>
          <g id="Grupo_1215421" data-name="Grupo 1215421" transform="translate(134.485 37.239)">
            <g id="Grupo_1215413" data-name="Grupo 1215413" transform="translate(0.693)">
              <g id="Grupo_1215411" data-name="Grupo 1215411" transform="translate(23.191)">
                <path id="Trazado_1087951" data-name="Trazado 1087951" d="M957.438,275.349a.536.536,0,0,1-.468-.371l-22.715-53.865a.912.912,0,0,1,.2-1.017c.259-.206.59-.085.739.27L957.9,274.231a.911.911,0,0,1-.2,1.017A.43.43,0,0,1,957.438,275.349Z" transform="translate(-934.181 -219.995)" fill="#8f4827"/>
              </g>
              <g id="Grupo_1215412" data-name="Grupo 1215412">
                <path id="Trazado_1087952" data-name="Trazado 1087952" d="M863.654,275.349a.536.536,0,0,0,.468-.371l22.715-53.865a.911.911,0,0,0-.2-1.017c-.259-.206-.59-.085-.74.27l-22.715,53.865a.911.911,0,0,0,.2,1.017A.431.431,0,0,0,863.654,275.349Z" transform="translate(-863.114 -219.995)" fill="#8f4827"/>
              </g>
            </g>
            <g id="Grupo_1215420" data-name="Grupo 1215420" transform="translate(0 52.939)">
              <g id="Grupo_1215414" data-name="Grupo 1215414" transform="translate(2.594 4.526)">
                <path id="Trazado_1087953" data-name="Trazado 1087953" d="M874.565,410.084H906.5c3.108,0,5.627-3.3,5.627-7.37V396.1H868.938v6.619C868.938,406.784,871.457,410.084,874.565,410.084Z" transform="translate(-868.938 -396.095)" fill="#ffb83d"/>
              </g>
              <g id="Grupo_1215415" data-name="Grupo 1215415" transform="translate(3.256 4.526)">
                <path id="Trazado_1087954" data-name="Trazado 1087954" d="M911.349,396.1v3.717c0,4.07-2.519,7.37-5.628,7.37H873.789a4.633,4.633,0,0,1-2.821-1c.948,2.321,2.815,3.9,4.965,3.9h31.932c3.108,0,5.627-3.3,5.627-7.37V396.1Z" transform="translate(-870.968 -396.096)" fill="#e6e6e6"/>
              </g>
              <g id="Grupo_1215419" data-name="Grupo 1215419">
                <path id="Trazado_1087955" data-name="Trazado 1087955" d="M907.516,382.227H862.836c-1.066-.036-1.906,1.14-1.843,2.413a2.03,2.03,0,0,0,1.843,2.112h44.681a2.031,2.031,0,0,0,1.843-2.112C909.422,383.368,908.583,382.192,907.516,382.227Z" transform="translate(-860.99 -382.227)" fill="#8f4827"/>
                <g id="Grupo_1215418" data-name="Grupo 1215418" transform="translate(0.001 2.16)">
                  <g id="Grupo_1215416" data-name="Grupo 1215416">
                    <path id="Trazado_1087956" data-name="Trazado 1087956" d="M861,389.1v-.255C860.992,388.929,860.991,389.014,861,389.1Z" transform="translate(-860.992 -388.845)" fill="#cea020"/>
                  </g>
                  <g id="Grupo_1215417" data-name="Grupo 1215417" transform="translate(48.369)">
                    <path id="Trazado_1087957" data-name="Trazado 1087957" d="M1009.22,388.845v.255Q1009.225,388.971,1009.22,388.845Z" transform="translate(-1009.22 -388.845)" fill="#cea020"/>
                  </g>
                </g>
              </g>
            </g>
          </g>
          <g id="Grupo_1215422" data-name="Grupo 1215422" transform="translate(154.248 29.754)">
            <path id="Trazado_1087958" data-name="Trazado 1087958" d="M925.977,197.058q-.135,0-.269.011a4.42,4.42,0,0,0-.8,8.7,4.08,4.08,0,0,0,.942.13c.043,0,.086,0,.129,0s.087,0,.129,0a4.032,4.032,0,0,0,.938-.13,4.422,4.422,0,0,0-1.067-8.713Zm0,7.207a2.783,2.783,0,0,1-2.714-2.178,2.558,2.558,0,0,1-.068-.6,2.784,2.784,0,0,1,2.782-2.782,2.717,2.717,0,0,1,1.24.295,2.78,2.78,0,0,1-1.24,5.269Z" transform="translate(-921.553 -197.058)" fill="#8f4827"/>
          </g>
          <path id="Trazado_1087959" data-name="Trazado 1087959" d="M719.837,676.175H707.811a.877.877,0,0,1-.877-.877v-2.653a.877.877,0,0,1,.877-.877h12.026a.877.877,0,0,1,.877.877V675.3A.877.877,0,0,1,719.837,676.175Z" transform="translate(-622.72 -487.108)" fill="#8f4827"/>
        </g>
        <g id="Grupo_1215490" data-name="Grupo 1215490" transform="translate(41.23 155.987)">
          <g id="Grupo_1215447" data-name="Grupo 1215447" transform="translate(0 61.814)">
            <g id="Grupo_1215425" data-name="Grupo 1215425" transform="translate(96.715 3.801)">
              <g id="Grupo_1215424" data-name="Grupo 1215424">
                <path id="Trazado_1087960" data-name="Trazado 1087960" d="M604.885,764.776v19.24H548.96a9.62,9.62,0,1,1,0-19.24Z" transform="translate(-539.337 -764.776)" fill="#fff4e3"/>
              </g>
            </g>
            <g id="Grupo_1215427" data-name="Grupo 1215427" transform="translate(0 0.001)">
              <g id="Grupo_1215426" data-name="Grupo 1215426">
                <path id="Trazado_1087961" data-name="Trazado 1087961" d="M344.719,776.171h60.5v3.8H247.049a4.094,4.094,0,0,1-4.093-4.1V757.224a4.093,4.093,0,0,1,4.093-4.093H405.218v3.8H349.294C340.9,756.93,334.977,767.741,344.719,776.171Z" transform="translate(-242.956 -753.131)" fill="#206e9e"/>
              </g>
            </g>
            <g id="Grupo_1215429" data-name="Grupo 1215429" transform="translate(81.131)">
              <g id="Grupo_1215428" data-name="Grupo 1215428">
                <rect id="Rectángulo_420157" data-name="Rectángulo 420157" width="3.601" height="26.841" fill="#75b8d1"/>
              </g>
            </g>
            <g id="Grupo_1215431" data-name="Grupo 1215431" transform="translate(69.77)">
              <g id="Grupo_1215430" data-name="Grupo 1215430">
                <rect id="Rectángulo_420158" data-name="Rectángulo 420158" width="3.601" height="26.841" fill="#75b8d1"/>
              </g>
            </g>
            <path id="Trazado_1087962" data-name="Trazado 1087962" d="M344.719,776.171h21.426l-.427,3.8H247.049a4.094,4.094,0,0,1-4.093-4.1v-.424c19.2,1.941,84.937,3.1,87.121-.923,1.807-3.327-.072-4.8-.091-9.556-.024-5.979,3.835-9.733,7.2-11.843h31.545l-.427,3.8H349.294C340.9,756.93,334.977,767.741,344.719,776.171Z" transform="translate(-242.956 -753.13)" fill="#b6dbde"/>
            <g id="Grupo_1215434" data-name="Grupo 1215434" transform="translate(92.914)">
              <g id="Grupo_1215433" data-name="Grupo 1215433">
                <g id="Grupo_1215432" data-name="Grupo 1215432">
                  <path id="Trazado_1087963" data-name="Trazado 1087963" d="M531.491,766.552a9.629,9.629,0,0,0,9.623,9.616h55.925v3.8H541.114a13.421,13.421,0,1,1,0-26.841h55.925v3.8H541.114A9.635,9.635,0,0,0,531.491,766.552Z" transform="translate(-527.69 -753.128)" fill="#75b8d1"/>
                </g>
              </g>
            </g>
            <g id="Grupo_1215443" data-name="Grupo 1215443" transform="translate(104.891 6.237)">
              <g id="Grupo_1215435" data-name="Grupo 1215435" transform="translate(0.331)">
                <path id="Trazado_1087964" data-name="Trazado 1087964" d="M595.545,773.686H566.129a.722.722,0,0,1-.722-.722h0a.722.722,0,0,1,.722-.722h29.415a.723.723,0,0,1,.723.722h0A.723.723,0,0,1,595.545,773.686Z" transform="translate(-565.407 -772.241)" fill="#f5dac2"/>
              </g>
              <g id="Grupo_1215436" data-name="Grupo 1215436" transform="translate(17.504 13.718)">
                <path id="Trazado_1087965" data-name="Trazado 1087965" d="M652.137,815.724H618.757a.722.722,0,0,1-.722-.722h0a.723.723,0,0,1,.722-.723h33.38a.722.722,0,0,1,.722.723h0A.723.723,0,0,1,652.137,815.724Z" transform="translate(-618.035 -814.279)" fill="#f5dac2"/>
              </g>
              <g id="Grupo_1215437" data-name="Grupo 1215437" transform="translate(11.431 7.007)">
                <path id="Trazado_1087966" data-name="Trazado 1087966" d="M618.46,795.158H600.144a.722.722,0,0,1-.722-.723h0a.722.722,0,0,1,.722-.722H618.46a.722.722,0,0,1,.723.722h0A.722.722,0,0,1,618.46,795.158Z" transform="translate(-599.422 -793.713)" fill="#f5dac2"/>
              </g>
              <g id="Grupo_1215438" data-name="Grupo 1215438" transform="translate(0 7.007)">
                <path id="Trazado_1087967" data-name="Trazado 1087967" d="M572.946,795.158h-7.83a.722.722,0,0,1-.722-.723h0a.722.722,0,0,1,.722-.722h7.83a.723.723,0,0,1,.723.722h0A.723.723,0,0,1,572.946,795.158Z" transform="translate(-564.393 -793.713)" fill="#f5dac2"/>
              </g>
              <g id="Grupo_1215439" data-name="Grupo 1215439" transform="translate(39.877 7.007)">
                <path id="Trazado_1087968" data-name="Trazado 1087968" d="M695.15,795.158h-7.831a.722.722,0,0,1-.722-.723h0a.722.722,0,0,1,.722-.722h7.831a.723.723,0,0,1,.722.722h0A.723.723,0,0,1,695.15,795.158Z" transform="translate(-686.597 -793.713)" fill="#f5dac2"/>
              </g>
              <g id="Grupo_1215440" data-name="Grupo 1215440" transform="translate(39.877 0.722)">
                <path id="Trazado_1087969" data-name="Trazado 1087969" d="M689.8,775.9H687.32a.723.723,0,0,1-.723-.723h0a.722.722,0,0,1,.723-.722H689.8a.723.723,0,0,1,.723.722h0A.722.722,0,0,1,689.8,775.9Z" transform="translate(-686.597 -774.455)" fill="#f5dac2"/>
              </g>
              <g id="Grupo_1215441" data-name="Grupo 1215441" transform="translate(11.208 13.718)">
                <path id="Trazado_1087970" data-name="Trazado 1087970" d="M601.945,815.724h-2.482a.722.722,0,0,1-.723-.722h0a.723.723,0,0,1,.723-.723h2.482a.723.723,0,0,1,.723.723h0A.723.723,0,0,1,601.945,815.724Z" transform="translate(-598.741 -814.279)" fill="#f5dac2"/>
              </g>
              <g id="Grupo_1215442" data-name="Grupo 1215442" transform="translate(52.329 7.007)">
                <path id="Trazado_1087971" data-name="Trazado 1087971" d="M727.958,795.158h-2.482a.722.722,0,0,1-.722-.723h0a.722.722,0,0,1,.722-.722h2.482a.723.723,0,0,1,.723.722h0A.723.723,0,0,1,727.958,795.158Z" transform="translate(-724.754 -793.713)" fill="#f5dac2"/>
              </g>
            </g>
            <g id="Grupo_1215445" data-name="Grupo 1215445" transform="translate(137.497 10.685)">
              <g id="Grupo_1215444" data-name="Grupo 1215444">
                <path id="Trazado_1087972" data-name="Trazado 1087972" d="M664.315,785.871v8.354l4.249-2.953,4.249,2.953v-8.354Z" transform="translate(-664.315 -785.871)" fill="#c24e4e"/>
              </g>
            </g>
            <g id="Grupo_1215446" data-name="Grupo 1215446" transform="translate(6.673 4.888)">
              <path id="Trazado_1087973" data-name="Trazado 1087973" d="M270.114,771.508v8.93a3.172,3.172,0,0,1-.919,2.384,3.368,3.368,0,0,1-5.791-2.505h1.578a2.314,2.314,0,0,0,.459,1.439,1.884,1.884,0,0,0,2.644.026,2.051,2.051,0,0,0,.433-1.344v-8.929h1.6Z" transform="translate(-263.404 -770.398)" fill="#75b8d1"/>
              <path id="Trazado_1087974" data-name="Trazado 1087974" d="M301.725,779.423v9.5h-1.578v-1.4a3.073,3.073,0,0,1-1.257,1.136,3.886,3.886,0,0,1-1.777.407,4.259,4.259,0,0,1-1.994-.459,3.337,3.337,0,0,1-1.4-1.378,4.538,4.538,0,0,1-.511-2.237v-5.566h1.56v5.357a3.031,3.031,0,0,0,.711,2.159,2.54,2.54,0,0,0,1.942.754,2.6,2.6,0,0,0,1.994-.78,3.212,3.212,0,0,0,.728-2.271v-5.219h1.578Z" transform="translate(-283.485 -775.73)" fill="#75b8d1"/>
              <path id="Trazado_1087975" data-name="Trazado 1087975" d="M327.815,788.388a3.3,3.3,0,0,1-1.37-1.04,2.765,2.765,0,0,1-.555-1.535h1.63a1.6,1.6,0,0,0,.668,1.162,2.537,2.537,0,0,0,1.569.451,2.283,2.283,0,0,0,1.422-.4,1.218,1.218,0,0,0,.52-1.006.992.992,0,0,0-.555-.928,7.822,7.822,0,0,0-1.716-.6,12.575,12.575,0,0,1-1.725-.564,3.06,3.06,0,0,1-1.144-.849,2.215,2.215,0,0,1-.477-1.482,2.243,2.243,0,0,1,.434-1.335,2.934,2.934,0,0,1,1.231-.962,4.429,4.429,0,0,1,1.82-.355,3.891,3.891,0,0,1,2.549.8,2.875,2.875,0,0,1,1.04,2.185h-1.578a1.631,1.631,0,0,0-.6-1.2,2.233,2.233,0,0,0-1.465-.451,2.259,2.259,0,0,0-1.352.364,1.125,1.125,0,0,0-.5.953,1.045,1.045,0,0,0,.3.771,2.213,2.213,0,0,0,.763.486,13.032,13.032,0,0,0,1.274.407,13.72,13.72,0,0,1,1.665.546,2.915,2.915,0,0,1,1.1.806,2.159,2.159,0,0,1,.477,1.4,2.406,2.406,0,0,1-.433,1.4,2.893,2.893,0,0,1-1.222.98,4.37,4.37,0,0,1-1.812.355A4.924,4.924,0,0,1,327.815,788.388Z" transform="translate(-305.5 -775.41)" fill="#75b8d1"/>
              <path id="Trazado_1087976" data-name="Trazado 1087976" d="M355.318,775.785v5.6a1.331,1.331,0,0,0,.295.98,1.452,1.452,0,0,0,1.023.286H357.8v1.335h-1.422a2.827,2.827,0,0,1-1.977-.607,2.6,2.6,0,0,1-.659-1.994v-5.6H352.51v-1.3h1.231v-2.393h1.578v2.393h2.48v1.3Z" transform="translate(-323.433 -770.792)" fill="#75b8d1"/>
              <path id="Trazado_1087977" data-name="Trazado 1087977" d="M374.074,769.945a1.075,1.075,0,0,1,.763-1.838.989.989,0,0,1,.737.312,1.111,1.111,0,0,1,0,1.526.989.989,0,0,1-.737.312A1.037,1.037,0,0,1,374.074,769.945ZM375.6,771.8v9.5h-1.578v-9.5Z" transform="translate(-337.75 -768.107)" fill="#75b8d1"/>
              <path id="Trazado_1087978" data-name="Trazado 1087978" d="M386.413,781.261a4.245,4.245,0,0,1,1.638-1.708,5.2,5.2,0,0,1,5.288.243,4.011,4.011,0,0,1,1.5,2.358h-1.7a2.439,2.439,0,0,0-.945-1.37,2.917,2.917,0,0,0-1.742-.5,2.8,2.8,0,0,0-2.184.927,3.8,3.8,0,0,0-.832,2.627,3.861,3.861,0,0,0,.832,2.653,2.783,2.783,0,0,0,2.184.936,2.952,2.952,0,0,0,1.734-.485,2.461,2.461,0,0,0,.953-1.387h1.7a4.179,4.179,0,0,1-1.526,2.332,4.57,4.57,0,0,1-2.861.876,4.7,4.7,0,0,1-2.4-.607,4.227,4.227,0,0,1-1.638-1.716,5.462,5.462,0,0,1-.59-2.6A5.374,5.374,0,0,1,386.413,781.261Z" transform="translate(-345.875 -775.409)" fill="#75b8d1"/>
              <path id="Trazado_1087979" data-name="Trazado 1087979" d="M427.282,784.444h-7.594a2.986,2.986,0,0,0,3.086,2.982,2.917,2.917,0,0,0,1.708-.477,2.525,2.525,0,0,0,.962-1.274h1.7a4.086,4.086,0,0,1-1.526,2.228,4.607,4.607,0,0,1-2.844.858,4.8,4.8,0,0,1-2.419-.607,4.3,4.3,0,0,1-1.673-1.725,5.346,5.346,0,0,1-.607-2.592,5.424,5.424,0,0,1,.59-2.583,4.14,4.14,0,0,1,1.656-1.708,4.93,4.93,0,0,1,2.453-.6,4.77,4.77,0,0,1,2.393.59,4.087,4.087,0,0,1,1.6,1.621,4.786,4.786,0,0,1,.563,2.332A9.4,9.4,0,0,1,427.282,784.444Zm-1.977-2.835a2.6,2.6,0,0,0-1.084-.988,3.385,3.385,0,0,0-1.517-.338,2.923,2.923,0,0,0-2.037.763,3.109,3.109,0,0,0-.962,2.115h6A2.914,2.914,0,0,0,425.305,781.609Z" transform="translate(-367.603 -775.41)" fill="#75b8d1"/>
            </g>
          </g>
          <g id="Grupo_1215473" data-name="Grupo 1215473" transform="translate(15.36 34.972)">
            <g id="Grupo_1215449" data-name="Grupo 1215449" transform="translate(0 3.801)">
              <g id="Grupo_1215448" data-name="Grupo 1215448">
                <path id="Trazado_1087980" data-name="Trazado 1087980" d="M290.028,682.521v19.24h55.925a9.62,9.62,0,1,0,0-19.24Z" transform="translate(-290.028 -682.521)" fill="#fff4e3"/>
              </g>
            </g>
            <g id="Grupo_1215451" data-name="Grupo 1215451" transform="translate(0.001 0)">
              <g id="Grupo_1215450" data-name="Grupo 1215450">
                <path id="Trazado_1087981" data-name="Trazado 1087981" d="M452.294,673.863v20.861a2.991,2.991,0,0,1-2.989,2.992H290.032v-3.8h60.5c9.741-8.429,3.821-19.238-4.575-19.238H290.032v-3.8H449.3A2.99,2.99,0,0,1,452.294,673.863Z" transform="translate(-290.032 -670.874)" fill="#ffb83d"/>
              </g>
            </g>
            <g id="Grupo_1215453" data-name="Grupo 1215453" transform="translate(77.553 0)">
              <g id="Grupo_1215452" data-name="Grupo 1215452" transform="translate(0)">
                <rect id="Rectángulo_420159" data-name="Rectángulo 420159" width="3.601" height="26.841" transform="translate(3.601 26.841) rotate(180)" fill="#ffd894"/>
              </g>
            </g>
            <g id="Grupo_1215455" data-name="Grupo 1215455" transform="translate(86.556 0)">
              <g id="Grupo_1215454" data-name="Grupo 1215454" transform="translate(0)">
                <rect id="Rectángulo_420160" data-name="Rectángulo 420160" width="3.601" height="26.841" transform="translate(3.601 26.841) rotate(180)" fill="#ffd894"/>
              </g>
            </g>
            <path id="Trazado_1087982" data-name="Trazado 1087982" d="M532.222,693.919v.8a2.991,2.991,0,0,1-2.989,2.992H411.257l-.965-3.8h15.592a9.619,9.619,0,1,0,0-19.238H408.675l3.242-3.8H440.5c2.4,2.024,3.908,9.8,1.723,16.288-3.061,9.1,1.845,6.353,13.236,6.752C466.06,694.289,524.147,693.967,532.222,693.919Z" transform="translate(-369.958 -670.874)" fill="#ebcf9d"/>
            <g id="Grupo_1215457" data-name="Grupo 1215457" transform="translate(0 0.736)">
              <g id="Grupo_1215456" data-name="Grupo 1215456">
                <path id="Trazado_1087983" data-name="Trazado 1087983" d="M348.564,676.554a9.605,9.605,0,0,0-7.354-3.425H290.028v3.065h55.925A9.6,9.6,0,0,1,348.564,676.554Z" transform="translate(-290.028 -673.129)" fill="#ffb32e"/>
              </g>
            </g>
            <g id="Grupo_1215460" data-name="Grupo 1215460" transform="translate(0.001 0.001)">
              <g id="Grupo_1215459" data-name="Grupo 1215459">
                <g id="Grupo_1215458" data-name="Grupo 1215458">
                  <path id="Trazado_1087984" data-name="Trazado 1087984" d="M359.379,684.3a13.437,13.437,0,0,1-13.424,13.418H290.032v-3.8h55.924a9.619,9.619,0,1,0,0-19.238H290.032v-3.8h55.924A13.436,13.436,0,0,1,359.379,684.3Z" transform="translate(-290.032 -670.875)" fill="#ffd894"/>
                </g>
              </g>
            </g>
            <g id="Grupo_1215469" data-name="Grupo 1215469" transform="translate(1.443 6.038)">
              <g id="Grupo_1215461" data-name="Grupo 1215461" transform="translate(0.369)">
                <path id="Trazado_1087985" data-name="Trazado 1087985" d="M329.242,690.821H296.3a.722.722,0,0,1-.722-.722h0a.723.723,0,0,1,.722-.723h32.941a.723.723,0,0,1,.723.723h0A.723.723,0,0,1,329.242,690.821Z" transform="translate(-295.579 -689.376)" fill="#f5dac2"/>
              </g>
              <g id="Grupo_1215462" data-name="Grupo 1215462" transform="translate(19.504 13.717)">
                <path id="Trazado_1087986" data-name="Trazado 1087986" d="M392.3,732.858H354.941a.722.722,0,0,1-.722-.723h0a.722.722,0,0,1,.722-.722H392.3a.722.722,0,0,1,.722.722h0A.722.722,0,0,1,392.3,732.858Z" transform="translate(-354.219 -731.413)" fill="#f5dac2"/>
              </g>
              <g id="Grupo_1215463" data-name="Grupo 1215463" transform="translate(12.736 7.007)">
                <path id="Trazado_1087987" data-name="Trazado 1087987" d="M354.775,712.293H334.2a.722.722,0,0,1-.723-.722h0a.723.723,0,0,1,.723-.722h20.573a.723.723,0,0,1,.723.722h0A.723.723,0,0,1,354.775,712.293Z" transform="translate(-333.479 -710.848)" fill="#f5dac2"/>
              </g>
              <g id="Grupo_1215464" data-name="Grupo 1215464" transform="translate(0 7.007)">
                <path id="Trazado_1087988" data-name="Trazado 1087988" d="M304.061,712.293h-8.89a.723.723,0,0,1-.723-.722h0a.723.723,0,0,1,.723-.722h8.89a.722.722,0,0,1,.722.722h0A.722.722,0,0,1,304.061,712.293Z" transform="translate(-294.449 -710.848)" fill="#f5dac2"/>
              </g>
              <g id="Grupo_1215465" data-name="Grupo 1215465" transform="translate(44.433 7.007)">
                <path id="Trazado_1087989" data-name="Trazado 1087989" d="M440.225,712.293h-8.89a.723.723,0,0,1-.722-.722h0a.722.722,0,0,1,.722-.722h8.89a.722.722,0,0,1,.723.722h0A.723.723,0,0,1,440.225,712.293Z" transform="translate(-430.613 -710.848)" fill="#f5dac2"/>
              </g>
              <g id="Grupo_1215466" data-name="Grupo 1215466" transform="translate(45.225)">
                <path id="Trazado_1087990" data-name="Trazado 1087990" d="M436.693,690.821h-2.93a.723.723,0,0,1-.722-.722h0a.723.723,0,0,1,.722-.723h2.93a.723.723,0,0,1,.723.723h0A.723.723,0,0,1,436.693,690.821Z" transform="translate(-433.041 -689.376)" fill="#f5dac2"/>
              </g>
              <g id="Grupo_1215467" data-name="Grupo 1215467" transform="translate(12.489 13.717)">
                <path id="Trazado_1087991" data-name="Trazado 1087991" d="M336.373,732.858h-2.93a.722.722,0,0,1-.722-.723h0a.722.722,0,0,1,.722-.722h2.93a.723.723,0,0,1,.723.722h0A.723.723,0,0,1,336.373,732.858Z" transform="translate(-332.721 -731.413)" fill="#f5dac2"/>
              </g>
              <g id="Grupo_1215468" data-name="Grupo 1215468" transform="translate(58.306 7.007)">
                <path id="Trazado_1087992" data-name="Trazado 1087992" d="M476.78,712.293h-2.93a.723.723,0,0,1-.723-.722h0a.723.723,0,0,1,.723-.722h2.93a.722.722,0,0,1,.722.722h0A.723.723,0,0,1,476.78,712.293Z" transform="translate(-473.127 -710.848)" fill="#f5dac2"/>
              </g>
            </g>
            <g id="Grupo_1215471" data-name="Grupo 1215471" transform="translate(37.563 9.216)">
              <g id="Grupo_1215470" data-name="Grupo 1215470">
                <path id="Trazado_1087993" data-name="Trazado 1087993" d="M412.67,699.114v8.411l-3.765-2.973-3.764,2.973v-8.411Z" transform="translate(-405.141 -699.114)" fill="#c24e4e"/>
              </g>
            </g>
            <g id="Grupo_1215472" data-name="Grupo 1215472" transform="translate(101.014 4.162)">
              <path id="Trazado_1087994" data-name="Trazado 1087994" d="M601.676,697.945h5.608v1.7h-7.7v-16.02h2.092Z" transform="translate(-599.584 -683.626)" fill="#e68925"/>
              <path id="Trazado_1087995" data-name="Trazado 1087995" d="M628.4,696.555a5.672,5.672,0,0,1,2.149-2.264,5.9,5.9,0,0,1,3.045-.8,5.592,5.592,0,0,1,2.873.713,4.749,4.749,0,0,1,1.816,1.793v-2.3H640.4v12.6h-2.115v-2.345a4.925,4.925,0,0,1-1.85,1.827,5.534,5.534,0,0,1-2.862.724,5.706,5.706,0,0,1-3.034-.827,5.8,5.8,0,0,1-2.138-2.321,7.227,7.227,0,0,1-.782-3.4A7.079,7.079,0,0,1,628.4,696.555Zm9.309.931a4.062,4.062,0,0,0-1.552-1.621,4.4,4.4,0,0,0-4.287-.011,4,4,0,0,0-1.54,1.609,5.117,5.117,0,0,0-.574,2.482,5.234,5.234,0,0,0,.574,2.517,4.062,4.062,0,0,0,1.54,1.632,4.162,4.162,0,0,0,2.138.563,4.225,4.225,0,0,0,2.149-.563,4.04,4.04,0,0,0,1.552-1.632,5.193,5.193,0,0,0,.574-2.494A5.124,5.124,0,0,0,637.708,697.486Z" transform="translate(-618.469 -690.269)" fill="#e68925"/>
              <path id="Trazado_1087996" data-name="Trazado 1087996" d="M691.321,694.121l-3.93,12.6h-2.16l-3.034-10-3.034,10H677l-3.953-12.6h2.138l2.9,10.573,3.126-10.573h2.138l3.057,10.6,2.85-10.6Z" transform="translate(-649.076 -690.696)" fill="#e68925"/>
            </g>
          </g>
          <g id="Grupo_1215489" data-name="Grupo 1215489" transform="translate(158.619)">
            <g id="Grupo_1215476" data-name="Grupo 1215476" transform="translate(2.172 1.452)">
              <g id="Grupo_1215475" data-name="Grupo 1215475">
                <g id="Grupo_1215474" data-name="Grupo 1215474">
                  <path id="Trazado_1087997" data-name="Trazado 1087997" d="M867.295,654.764c-.638-.609-127.076-55.9-127.271-56.921a18.011,18.011,0,0,1-4.3-10.035l-.02-.009,7.166-16.113.012.006a18.039,18.039,0,0,1,11.02-3.537l126.6,56.3C873.159,632.912,869.628,643.987,867.295,654.764Z" transform="translate(-735.701 -568.151)" fill="#fff4e3"/>
                </g>
              </g>
            </g>
            <g id="Grupo_1215478" data-name="Grupo 1215478">
              <g id="Grupo_1215477" data-name="Grupo 1215477">
                <path id="Trazado_1087998" data-name="Trazado 1087998" d="M866.223,649.3a2.672,2.672,0,0,1-3.581,3.4L739.69,598.023a17.845,17.845,0,0,1-5.782-4.1q-.248-.264-.479-.535c-.162-.185-.318-.371-.471-.566-.125-.158-.25-.316-.371-.482s-.255-.347-.375-.527c-.1-.149-.207-.3-.306-.453s-.206-.326-.3-.491c-.086-.146-.173-.292-.256-.435s-.169-.31-.251-.468q-.111-.211-.21-.415c-.074-.15-.145-.3-.214-.451-.059-.129-.117-.262-.171-.393-.067-.147-.127-.3-.188-.445l-.075-.194c-.025-.065-.048-.123-.068-.187-.055-.141-.1-.281-.149-.422-.048-.123-.089-.25-.129-.379s-.088-.274-.124-.412c-.04-.12-.073-.242-.1-.362s-.074-.272-.106-.408c-.031-.116-.056-.235-.082-.353s-.06-.26-.084-.393-.05-.238-.068-.352-.045-.259-.067-.386-.037-.225-.049-.339-.034-.254-.049-.383c-.013-.113-.026-.227-.035-.338a.172.172,0,0,1,0-.046,17.956,17.956,0,0,1,7.138-16.052l.023-.019c.089-.068.181-.134.272-.2s.209-.151.318-.22c.093-.066.188-.126.285-.191s.215-.143.328-.21.2-.125.307-.185.231-.136.348-.2.21-.121.317-.176c.123-.067.249-.133.37-.2s.226-.114.338-.167c.131-.064.26-.123.393-.181s.24-.112.364-.16.272-.118.413-.172c.126-.051.255-.1.384-.151.145-.053.3-.107.446-.158.133-.048.271-.094.411-.134.159-.051.323-.1.484-.146.146-.042.291-.085.44-.122.171-.046.341-.087.515-.127s.324-.07.49-.1c.188-.039.378-.071.568-.1s.356-.056.537-.078c.214-.031.428-.054.643-.075s.407-.038.612-.05c.241-.015.48-.026.721-.03s.477-.008.718,0a17.89,17.89,0,0,1,6.959,1.548l122.952,54.679a2.674,2.674,0,1,1-2.173,4.887l-122.524-54.49a13.164,13.164,0,0,0-1.244-.48,13.315,13.315,0,0,0-1.871-.476c-.344-.06-.693-.109-1.04-.141-.313-.032-.625-.054-.938-.061-.232-.006-.471,0-.7,0s-.48.016-.724.038c-.191.013-.379.031-.574.062s-.4.05-.6.087c-.168.027-.338.059-.506.1s-.347.079-.523.123c-.148.037-.294.079-.44.122s-.315.094-.472.151c-.131.044-.265.092-.4.14s-.286.107-.425.167-.247.1-.364.16c-.133.058-.262.118-.385.185a3.513,3.513,0,0,0-.333.169c-.125.062-.243.131-.362.2s-.214.12-.315.182-.217.137-.322.208a3.43,3.43,0,0,0-.286.195c-.109.069-.211.145-.313.221a3.074,3.074,0,0,0-.26.2c-.1.072-.193.148-.287.228s-.169.139-.246.213c-.092.076-.181.154-.267.238s-.151.143-.224.218a3.306,3.306,0,0,0-.248.251c-.075.069-.143.146-.211.223a2.749,2.749,0,0,0-.226.256c-.072.075-.137.154-.2.232s-.142.176-.21.263-.122.155-.179.238-.133.18-.2.274c-.058.076-.115.159-.167.243s-.12.181-.177.277-.108.167-.156.252-.107.186-.161.285-.1.172-.14.26-.1.19-.144.292a2.1,2.1,0,0,0-.126.261c-.026.047-.046.091-.068.141s-.047.106-.066.16c-.04.09-.08.179-.11.268-.045.1-.085.2-.12.3s-.068.185-.1.28a2.555,2.555,0,0,0-.1.31c-.032.093-.059.188-.081.281a2.6,2.6,0,0,0-.089.321c-.027.1-.051.192-.07.291s-.05.211-.07.32-.043.2-.058.3-.04.221-.057.336-.026.2-.036.3a2.721,2.721,0,0,0-.035.341,2.23,2.23,0,0,0-.028.3c-.013.117-.016.232-.02.352-.008.1-.009.206-.008.314s0,.238,0,.357,0,.216.007.325.009.243.023.366.016.217.025.328c.012.127.024.254.045.381s.026.226.049.339c.016.129.037.255.063.384s.046.235.076.356.058.265.091.4.059.241.1.361c.036.138.076.278.127.417s.079.25.125.377.1.285.159.422.11.269.166.4c.063.154.133.3.208.453s.132.273.2.407c.085.16.17.32.263.473s.175.3.268.441c.108.175.219.341.34.507s.224.319.347.471c.142.2.3.381.456.564s.309.357.473.527c.22.229.449.449.686.661a10.092,10.092,0,0,0,.826.689,12.55,12.55,0,0,0,1.753,1.136c.316.179.64.339.978.489l122.525,54.489A2.643,2.643,0,0,1,866.223,649.3Z" transform="translate(-729.043 -563.7)" fill="#28736d"/>
              </g>
            </g>
            <g id="Grupo_1215479" data-name="Grupo 1215479" transform="translate(18.746 10.754)">
              <path id="Trazado_1087999" data-name="Trazado 1087999" d="M850.044,626.111,786.92,598.039a.723.723,0,0,1-.366-.954h0a.723.723,0,0,1,.954-.367l63.124,28.072a.723.723,0,0,1,.367.954h0A.722.722,0,0,1,850.044,626.111Z" transform="translate(-786.491 -596.656)" fill="#f5dac2"/>
            </g>
            <g id="Grupo_1215480" data-name="Grupo 1215480" transform="translate(49.033 39.236)">
              <path id="Trazado_1088000" data-name="Trazado 1088000" d="M951.136,717.076l-71.4-31.753a.722.722,0,0,1-.367-.954h0a.723.723,0,0,1,.954-.367l71.4,31.753a.723.723,0,0,1,.366.954h0A.723.723,0,0,1,951.136,717.076Z" transform="translate(-879.305 -683.94)" fill="#f5dac2"/>
            </g>
            <g id="Grupo_1215481" data-name="Grupo 1215481" transform="translate(39.078 27.464)">
              <path id="Trazado_1088001" data-name="Trazado 1088001" d="M889.173,667.011l-39.945-17.764a.722.722,0,0,1-.366-.954h0a.723.723,0,0,1,.954-.367L889.76,665.69a.723.723,0,0,1,.367.954h0A.723.723,0,0,1,889.173,667.011Z" transform="translate(-848.799 -647.864)" fill="#f5dac2"/>
            </g>
            <g id="Grupo_1215482" data-name="Grupo 1215482" transform="translate(15.208 16.848)">
              <path id="Trazado_1088002" data-name="Trazado 1088002" d="M794.128,624.742l-18.049-8.027a.723.723,0,0,1-.367-.954h0a.722.722,0,0,1,.954-.367l18.049,8.027a.723.723,0,0,1,.367.954h0A.723.723,0,0,1,794.128,624.742Z" transform="translate(-775.649 -615.332)" fill="#f5dac2"/>
            </g>
            <g id="Grupo_1215483" data-name="Grupo 1215483" transform="translate(98.483 53.882)">
              <path id="Trazado_1088003" data-name="Trazado 1088003" d="M1049.321,738.23l-18.049-8.027a.723.723,0,0,1-.367-.954h0a.723.723,0,0,1,.954-.367l18.049,8.027a.723.723,0,0,1,.367.954h0A.722.722,0,0,1,1049.321,738.23Z" transform="translate(-1030.843 -728.82)" fill="#f5dac2"/>
            </g>
            <g id="Grupo_1215484" data-name="Grupo 1215484" transform="translate(101.035 48.14)">
              <path id="Trazado_1088004" data-name="Trazado 1088004" d="M1045.972,715.668l-6.879-3.059a.723.723,0,0,1-.366-.954h0a.723.723,0,0,1,.954-.367l6.88,3.059a.723.723,0,0,1,.367.954h0A.723.723,0,0,1,1045.972,715.668Z" transform="translate(-1038.663 -711.225)" fill="#f5dac2"/>
            </g>
            <g id="Grupo_1215485" data-name="Grupo 1215485" transform="translate(35.887 33.39)">
              <path id="Trazado_1088005" data-name="Trazado 1088005" d="M846.329,670.465l-6.879-3.059a.722.722,0,0,1-.367-.954h0a.723.723,0,0,1,.954-.366l6.879,3.059a.722.722,0,0,1,.367.954h0A.723.723,0,0,1,846.329,670.465Z" transform="translate(-839.02 -666.023)" fill="#f5dac2"/>
            </g>
            <g id="Grupo_1215486" data-name="Grupo 1215486" transform="translate(124.484 65.445)">
              <path id="Trazado_1088006" data-name="Trazado 1088006" d="M1117.831,768.7l-6.88-3.059a.723.723,0,0,1-.367-.954h0a.723.723,0,0,1,.954-.367l6.88,3.059a.723.723,0,0,1,.366.954h0A.722.722,0,0,1,1117.831,768.7Z" transform="translate(-1110.523 -764.255)" fill="#f5dac2"/>
            </g>
            <g id="Grupo_1215488" data-name="Grupo 1215488" transform="translate(82.745 40.801)">
              <g id="Grupo_1215487" data-name="Grupo 1215487">
                <path id="Trazado_1088007" data-name="Trazado 1088007" d="M990.857,702.386l-3.079-4.174-5.162.509,4.442-9.988,8.24,3.664Z" transform="translate(-982.616 -688.734)" fill="#cf3a3a"/>
              </g>
            </g>
          </g>
        </g>
        <g id="Grupo_1215491" data-name="Grupo 1215491" transform="translate(0 244.642)">
          <path id="Trazado_1088008" data-name="Trazado 1088008" d="M466.232,835.383H89.772a.777.777,0,0,0-.772.782h0a.777.777,0,0,0,.772.782H466.231a.777.777,0,0,0,.772-.782h0A.778.778,0,0,0,466.232,835.383Z" transform="translate(-89 -835.383)" fill="#f0dcad"/>
          <path id="Trazado_1088009" data-name="Trazado 1088009" d="M807.072,869.15H724.044a.844.844,0,0,0-.844.844h0a.844.844,0,0,0,.844.844h83.028a.844.844,0,0,0,.844-.844h0A.844.844,0,0,0,807.072,869.15Z" transform="translate(-519.685 -858.131)" fill="#f0dcad"/>
          <path id="Trazado_1088010" data-name="Trazado 1088010" d="M1041.732,869.15h-25.317a.844.844,0,0,0-.844.844h0a.844.844,0,0,0,.844.844h25.317a.844.844,0,0,0,.844-.844h0A.847.847,0,0,0,1041.732,869.15Z" transform="translate(-718.166 -858.131)" fill="#f0dcad"/>
        </g>
        <g id="Grupo_1215505" data-name="Grupo 1215505" transform="translate(66.123 129.649)">
          <path id="Trazado_1088011" data-name="Trazado 1088011" d="M490.11,485.744c-3.752.424-5.235-2.689-10.845-2.759-5.61.071-7.093,3.184-10.845,2.759s-4.127,2.759-4.127,2.759v29.364h29.944V488.5S493.862,485.32,490.11,485.744Z" transform="translate(-416.96 -482.985)" fill="#894027"/>
          <path id="Trazado_1088012" data-name="Trazado 1088012" d="M622.558,525.441c-2.812.318-3.924-2.015-8.128-2.068-4.2.053-5.316,2.386-8.128,2.068a2.523,2.523,0,0,0-3.093,2.068v22.009h22.443V527.509A2.523,2.523,0,0,0,622.558,525.441Z" transform="translate(-510.545 -510.194)" fill="#894027"/>
          <path id="Trazado_1088013" data-name="Trazado 1088013" d="M367.176,525.441c-2.812.318-3.924-2.015-8.128-2.068-4.2.053-5.316,2.386-8.128,2.068a2.523,2.523,0,0,0-3.093,2.068v22.009h22.443V527.509A2.522,2.522,0,0,0,367.176,525.441Z" transform="translate(-338.498 -510.194)" fill="#894027"/>
          <g id="Grupo_1215494" data-name="Grupo 1215494" transform="translate(4.307 28.104)">
            <rect id="Rectángulo_420161" data-name="Rectángulo 420161" width="33.207" height="33.207" fill="#894027"/>
            <rect id="Rectángulo_420162" data-name="Rectángulo 420162" width="23.166" height="22.224" transform="translate(5.02 5.492)" fill="#a3583e"/>
            <g id="Grupo_1215492" data-name="Grupo 1215492" transform="translate(6.753 7.149)">
              <path id="Trazado_1088014" data-name="Trazado 1088014" d="M372.744,609.929H353.227a.093.093,0,0,1-.093-.093V591.113a.093.093,0,0,1,.093-.093h19.517a.093.093,0,0,1,.093.093v18.724A.093.093,0,0,1,372.744,609.929Zm-19.425-.185h19.332V591.2H353.319Z" transform="translate(-353.134 -591.02)" fill="#894027"/>
            </g>
            <g id="Grupo_1215493" data-name="Grupo 1215493" transform="translate(2.968 2.864)">
              <path id="Trazado_1088015" data-name="Trazado 1088015" d="M368.807,605.368H341.535V577.889h27.272Zm-26.9-.371h26.531V578.259H341.905Z" transform="translate(-341.535 -577.889)" fill="#a3583e"/>
            </g>
          </g>
          <g id="Grupo_1215498" data-name="Grupo 1215498" transform="translate(37.53 21.987)">
            <rect id="Rectángulo_420163" data-name="Rectángulo 420163" width="49.55" height="39.324" fill="#a3583e"/>
            <rect id="Rectángulo_420164" data-name="Rectángulo 420164" width="33.03" height="26.752" transform="translate(8.26 6.286)" fill="#c27348"/>
            <g id="Grupo_1215495" data-name="Grupo 1215495" transform="translate(10.676 8.208)">
              <path id="Trazado_1088016" data-name="Trazado 1088016" d="M495.167,598.426h-28.2V575.517h28.2Zm-27.827-.37H494.8V575.888H467.339Z" transform="translate(-466.969 -575.517)" fill="#a3583e"/>
            </g>
            <g id="Grupo_1215496" data-name="Grupo 1215496" transform="translate(5.818 3.879)">
              <path id="Trazado_1088017" data-name="Trazado 1088017" d="M490,593.818H452.081V562.252H490v31.566Zm-37.359-.556h36.8V562.808h-36.8Z" transform="translate(-452.081 -562.252)" fill="#c27348"/>
            </g>
            <g id="Grupo_1215497" data-name="Grupo 1215497" transform="translate(16.161 10.011)">
              <path id="Trazado_1088018" data-name="Trazado 1088018" d="M503.151,588.664a27.3,27.3,0,0,0-12.293,0c-.27.085-.154.511.117.425a19.309,19.309,0,0,1,5.979-.685h.1a19.318,19.318,0,0,1,5.979.685C503.305,589.176,503.421,588.75,503.151,588.664Z" transform="translate(-488.443 -585.701)" fill="#ffb157"/>
              <path id="Trazado_1088019" data-name="Trazado 1088019" d="M525.588,610.385a2.664,2.664,0,0,1-1.994,2.583s0,0,0,0a2.663,2.663,0,0,1-3.326-2.577l4.621,0Z" transform="translate(-508.359 -600.81)" fill="#ffb157"/>
              <rect id="Rectángulo_420165" data-name="Rectángulo 420165" width="0.281" height="6.621" transform="translate(14.428 2.954)" fill="#ffb157"/>
              <path id="Trazado_1088020" data-name="Trazado 1088020" d="M521.212,596.808l-.242-.1,2.276-6.656.242.1Z" transform="translate(-508.833 -587.11)" fill="#ffb157"/>
              <path id="Trazado_1088021" data-name="Trazado 1088021" d="M530.446,596.857l.242-.1-2.276-6.656-.242.1Z" transform="translate(-513.683 -587.143)" fill="#ffb157"/>
              <path id="Trazado_1088022" data-name="Trazado 1088022" d="M483.776,610.385a2.664,2.664,0,0,0,1.994,2.583s0,0,0,0a2.663,2.663,0,0,0,3.326-2.577l-4.621,0Z" transform="translate(-483.776 -600.81)" fill="#ffb157"/>
              <rect id="Rectángulo_420166" data-name="Rectángulo 420166" width="0.281" height="6.621" transform="translate(2.52 2.954)" fill="#ffb157"/>
              <path id="Trazado_1088023" data-name="Trazado 1088023" d="M493.938,596.808l.242-.1-2.277-6.656-.242.1Z" transform="translate(-489.089 -587.11)" fill="#ffb157"/>
              <path id="Trazado_1088024" data-name="Trazado 1088024" d="M484.7,596.857l-.242-.1,2.276-6.656.242.1Z" transform="translate(-484.238 -587.143)" fill="#ffb157"/>
              <path id="Trazado_1088025" data-name="Trazado 1088025" d="M509.288,635.335v-.168a.68.68,0,0,0-.635-.717h-.613a.68.68,0,0,0-.634.717v.168Z" transform="translate(-499.695 -617.022)" fill="#ffb157"/>
              <path id="Trazado_1088026" data-name="Trazado 1088026" d="M508.792,637.559v-.242a1,1,0,0,0-.949-1.034h-.917a.994.994,0,0,0-.948,1.034v.242Z" transform="translate(-498.734 -618.257)" fill="#ffb157"/>
              <path id="Trazado_1088027" data-name="Trazado 1088027" d="M509.509,581.044h-.292c-.167,0-.3.229-.3.511v16.966h.9V581.614h0v-.06C509.812,581.272,509.676,581.044,509.509,581.044Z" transform="translate(-500.711 -581.044)" fill="#ffb157"/>
              <path id="Trazado_1088028" data-name="Trazado 1088028" d="M509.439,586.534a.8.8,0,1,1-.8-.8A.8.8,0,0,1,509.439,586.534Z" transform="translate(-499.989 -584.205)" fill="#ffb157"/>
            </g>
          </g>
          <g id="Grupo_1215499" data-name="Grupo 1215499" transform="translate(32.81 17.42)">
            <rect id="Rectángulo_420167" data-name="Rectángulo 420167" width="58.99" height="4.65" fill="#c27348"/>
          </g>
          <g id="Grupo_1215500" data-name="Grupo 1215500" transform="translate(0 25.014)">
            <rect id="Rectángulo_420168" data-name="Rectángulo 420168" width="37.53" height="3.09" fill="#a3583e"/>
          </g>
          <g id="Grupo_1215503" data-name="Grupo 1215503" transform="translate(86.919 28.104)">
            <rect id="Rectángulo_420169" data-name="Rectángulo 420169" width="33.207" height="33.207" fill="#894027"/>
            <rect id="Rectángulo_420170" data-name="Rectángulo 420170" width="23.166" height="22.224" transform="translate(5.02 5.492)" fill="#a3583e"/>
            <g id="Grupo_1215501" data-name="Grupo 1215501" transform="translate(6.753 7.149)">
              <path id="Trazado_1088029" data-name="Trazado 1088029" d="M625.909,609.929H606.392a.093.093,0,0,1-.093-.093V591.113a.093.093,0,0,1,.093-.093h19.517a.093.093,0,0,1,.093.093v18.724A.093.093,0,0,1,625.909,609.929Zm-19.425-.185h19.332V591.2H606.484Z" transform="translate(-606.299 -591.02)" fill="#894027"/>
            </g>
            <g id="Grupo_1215502" data-name="Grupo 1215502" transform="translate(2.968 2.864)">
              <path id="Trazado_1088030" data-name="Trazado 1088030" d="M621.972,605.368H594.7V577.889h27.272ZM595.07,605H621.6V578.259H595.07Z" transform="translate(-594.7 -577.889)" fill="#a3583e"/>
            </g>
          </g>
          <g id="Grupo_1215504" data-name="Grupo 1215504" transform="translate(86.919 25.014)">
            <rect id="Rectángulo_420171" data-name="Rectángulo 420171" width="37.53" height="3.09" fill="#a3583e"/>
          </g>
        </g>
        <g id="Grupo_1215506" data-name="Grupo 1215506" transform="translate(303.222 136.829)">
          <path id="Trazado_1088031" data-name="Trazado 1088031" d="M1051.366,508.065a1.066,1.066,0,0,1-.61,1.578l-3.565,1.04a1.064,1.064,0,0,1-1.332-1.274l.882-3.607a1.064,1.064,0,0,1,1.769-.516l2.683,2.568A1.009,1.009,0,0,1,1051.366,508.065Zm-4.663,1.713a.237.237,0,0,0,.037.046.221.221,0,0,0,.219.054l3.565-1.04a.225.225,0,0,0,.093-.379l-2.683-2.568a.225.225,0,0,0-.374.109l-.882,3.608A.2.2,0,0,0,1046.7,509.779Z" transform="translate(-1045.828 -504.989)" fill="#cf3a3a"/>
        </g>
        <g id="Grupo_1215507" data-name="Grupo 1215507" transform="translate(75.967 42.604)">
          <path id="Trazado_1088032" data-name="Trazado 1088032" d="M354.437,219.8l1.787-1.787a1.039,1.039,0,0,0-1.469-1.469l-1.787,1.787-1.787-1.787a1.039,1.039,0,0,0-1.469,1.469L351.5,219.8l-1.784,1.784a1.039,1.039,0,1,0,1.469,1.469l1.784-1.784,1.784,1.784a1.039,1.039,0,0,0,1.469-1.469Z" transform="translate(-349.408 -216.239)" fill="#ffb86b"/>
        </g>
        <g id="Grupo_1215509" data-name="Grupo 1215509" transform="translate(313.71 68.512)">
          <g id="Grupo_1215508" data-name="Grupo 1215508">
            <path id="Trazado_1088033" data-name="Trazado 1088033" d="M1080.966,301.622a3,3,0,1,1,3-3A3,3,0,0,1,1080.966,301.622Zm0-5.053a2.058,2.058,0,1,0,2.058,2.058A2.06,2.06,0,0,0,1080.966,296.568Z" transform="translate(-1077.971 -295.631)" fill="#257872"/>
          </g>
        </g>
        <g id="Grupo_1215511" data-name="Grupo 1215511" transform="translate(53.595 132.117)">
          <g id="Grupo_1215510" data-name="Grupo 1215510" transform="translate(0)">
            <path id="Trazado_1088034" data-name="Trazado 1088034" d="M283.844,496.542a3,3,0,1,1,3-3A3,3,0,0,1,283.844,496.542Zm0-5.053a2.058,2.058,0,1,0,2.058,2.058A2.06,2.06,0,0,0,283.844,491.488Z" transform="translate(-280.849 -490.551)" fill="#257872"/>
          </g>
        </g>
      </g>
    </g>
  </g>
</svg>
