<svg xmlns="http://www.w3.org/2000/svg" xmlns:xlink="http://www.w3.org/1999/xlink" width="110" height="110" viewBox="0 0 110 110">
  <defs>
    <filter id="Trazado_982547" x="0" y="0" width="110" height="110" filterUnits="userSpaceOnUse">
      <feOffset dy="3" input="SourceAlpha"/>
      <feGaussianBlur stdDeviation="3" result="blur"/>
      <feFlood flood-opacity="0.161"/>
      <feComposite operator="in" in2="blur"/>
      <feComposite in="SourceGraphic"/>
    </filter>
  </defs>
  <g id="Grupo_1215519" data-name="Grupo 1215519" transform="translate(-799 -2342.543)">
    <g id="Grupo_1210976" data-name="Grupo 1210976" transform="translate(808 2348.543)">
      <g id="Grupo_1200150" data-name="Grupo 1200150" transform="translate(0 0)">
        <g id="Grupo_1185951" data-name="Grupo 1185951" transform="translate(0 0)">
          <g id="Grupo_1184083" data-name="Grupo 1184083" transform="translate(0 0)">
            <g id="Grupo_1183743" data-name="Grupo 1183743">
              <g id="Grupo_1181545" data-name="Grupo 1181545">
                <g id="Grupo_1177562" data-name="Grupo 1177562">
                  <g id="Grupo_1173147" data-name="Grupo 1173147" transform="translate(0 0)">
                    <g id="Grupo_1163801" data-name="Grupo 1163801" transform="translate(0 0)">
                      <g id="Grupo_1163014" data-name="Grupo 1163014" transform="translate(0 0)">
                        <g id="Grupo_1157015" data-name="Grupo 1157015">
                          <g id="Grupo_1155792" data-name="Grupo 1155792">
                            <g id="Grupo_1154703" data-name="Grupo 1154703">
                              <g id="Grupo_1150789" data-name="Grupo 1150789">
                                <g id="Grupo_1154212" data-name="Grupo 1154212">
                                  <g id="Grupo_1152583" data-name="Grupo 1152583">
                                    <g id="Grupo_1146973" data-name="Grupo 1146973">
                                      <g id="Grupo_1146954" data-name="Grupo 1146954">
                                        <g transform="matrix(1, 0, 0, 1, -9, -6)" filter="url(#Trazado_982547)">
                                          <g id="Trazado_982547-2" data-name="Trazado 982547" transform="translate(9 6)" fill="#f9e3d4">
                                            <path d="M 46.00000381469727 90.49986267089844 C 39.99188232421875 90.49986267089844 34.16427230834961 89.32350158691406 28.67905807495117 87.00344848632812 C 23.38020324707031 84.76223754882812 18.62104415893555 81.55341339111328 14.53375053405762 77.46613311767578 C 10.44647026062012 73.37885284423828 7.237643718719482 68.61968994140625 4.996417045593262 63.32085037231445 C 2.676363706588745 57.83565139770508 1.500003814697266 52.00805282592773 1.500003814697266 45.99993133544922 C 1.500003814697266 39.99182510375977 2.676363706588745 34.16422653198242 4.996417045593262 28.67901039123535 C 7.237643718719482 23.38017082214355 10.44647026062012 18.62101173400879 14.53375053405762 14.53373146057129 C 18.62104415893555 10.44645118713379 23.38020324707031 7.237624645233154 28.67905807495117 4.996411323547363 C 34.16427230834961 2.676357984542847 39.99188232421875 1.499997973442078 46.00000381469727 1.499997973442078 C 52.00812530517578 1.499997973442078 57.83573532104492 2.676357984542847 63.32094955444336 4.996411323547363 C 68.61980438232422 7.237624645233154 73.37896728515625 10.44645118713379 77.46625518798828 14.53373146057129 C 81.55353546142578 18.62101173400879 84.76236724853516 23.38017082214355 87.00359344482422 28.67901039123535 C 89.32364654541016 34.16422653198242 90.5 39.99182510375977 90.5 45.99993133544922 C 90.5 52.00805282592773 89.32364654541016 57.83565139770508 87.00359344482422 63.32085037231445 C 84.76236724853516 68.61968994140625 81.55353546142578 73.37885284423828 77.46625518798828 77.46613311767578 C 73.37896728515625 81.55341339111328 68.61980438232422 84.76223754882812 63.32094955444336 87.00344848632812 C 57.83573532104492 89.32350158691406 52.00812530517578 90.49986267089844 46.00000381469727 90.49986267089844 Z" stroke="none"/>
                                            <path d="M 46.00000381469727 3 C 40.19371795654297 3 34.56270217895508 4.136505126953125 29.26337432861328 6.377914428710938 C 24.14333343505859 8.54351806640625 19.54441833496094 11.64438629150391 15.59440612792969 15.59439086914062 C 11.64440155029297 19.54440307617188 8.54351806640625 24.14330291748047 6.377914428710938 29.26334381103516 C 4.136505126953125 34.56266021728516 3.000007629394531 40.19366073608398 3.000007629394531 45.99993133544922 C 3.000007629394531 51.80620193481445 4.136505126953125 57.43720245361328 6.377914428710938 62.73651885986328 C 8.54351806640625 67.85655975341797 11.64440155029297 72.45545959472656 15.59440612792969 76.40547180175781 C 19.54441833496094 80.35547637939453 24.14333343505859 83.45634460449219 29.26337432861328 85.6219482421875 C 34.56270217895508 87.86335754394531 40.19371795654297 88.99986267089844 46.00000381469727 88.99986267089844 C 51.80628967285156 88.99986267089844 57.43730545043945 87.86335754394531 62.73661804199219 85.6219482421875 C 67.85667419433594 83.45634460449219 72.45557403564453 80.35547637939453 76.40558624267578 76.40547180175781 C 80.35560607910156 72.45545959472656 83.45647430419922 67.85655975341797 85.62207794189453 62.73651885986328 C 87.86350250244141 57.43720245361328 89 51.80620193481445 89 45.99993133544922 C 89 40.19366073608398 87.86350250244141 34.56266021728516 85.62207794189453 29.26334381103516 C 83.45647430419922 24.14330291748047 80.35560607910156 19.54440307617188 76.40558624267578 15.59439086914062 C 72.45557403564453 11.64438629150391 67.85667419433594 8.54351806640625 62.73661804199219 6.377914428710938 C 57.43730545043945 4.136505126953125 51.80628967285156 3 46.00000381469727 3 M 46.00000381469727 0 C 71.40509033203125 0 92 20.59487152099609 92 45.99993133544922 C 92 71.40499114990234 71.40509033203125 91.99986267089844 46.00000381469727 91.99986267089844 C 20.59490203857422 91.99986267089844 7.62939453125e-06 71.40499114990234 7.62939453125e-06 45.99993133544922 C 7.62939453125e-06 20.59487152099609 20.59490203857422 0 46.00000381469727 0 Z" stroke="none" fill="#eca675"/>
                                          </g>
                                        </g>
                                      </g>
                                    </g>
                                  </g>
                                </g>
                              </g>
                            </g>
                          </g>
                        </g>
                      </g>
                    </g>
                  </g>
                </g>
              </g>
            </g>
          </g>
        </g>
      </g>
    </g>
    <g id="empoderamiento_1_" data-name="empoderamiento (1)" transform="translate(818.459 2369.29)">
      <g id="Grupo_1215517" data-name="Grupo 1215517" transform="translate(11.002 15.624)">
        <g id="XMLID_223_">
          <g id="Grupo_1215514" data-name="Grupo 1215514">
            <path id="Trazado_1088035" data-name="Trazado 1088035" d="M170.562,173.744l1.429,34.549v9.624a1.418,1.418,0,0,0,1.41,1.427h21.544a1.418,1.418,0,0,0,1.41-1.427V208a1.529,1.529,0,0,1,.206-.769l1.554-2.687a9.912,9.912,0,0,0,1.329-4.958v-25.71Z" transform="translate(-158.248 -163.705)" fill="#eb9c8d"/>
            <path id="Trazado_1088036" data-name="Trazado 1088036" d="M174.753,273.869l.8,19.365h10.289a6.913,6.913,0,0,0,6.89-6.872c0-.026,0-6.055,0-6.055,0-.023,0-.047,0-.07a6.4,6.4,0,0,0-6.383-6.368h-11.6Z" transform="translate(-161.866 -249.976)" fill="#d78878"/>
            <path id="Trazado_1088037" data-name="Trazado 1088037" d="M170.9,181.8a6.526,6.526,0,0,0,5.07-.427,6.545,6.545,0,0,0,7.9,1.2,6.542,6.542,0,0,0,7.781,1.073,6.541,6.541,0,0,0,7.8,1.046V173.879l-28.881-.134Z" transform="translate(-158.25 -163.706)" fill="#d78878"/>
            <path id="Trazado_1088038" data-name="Trazado 1088038" d="M167.2,112.911a3.885,3.885,0,1,1-7.77,0V105.13a3.909,3.909,0,0,1,3.885-3.934,3.846,3.846,0,0,1,2.748,1.153,3.946,3.946,0,0,1,1.137,2.781Z" transform="translate(-148.641 -101.196)" fill="#eb9c8d"/>
            <path id="Trazado_1088039" data-name="Trazado 1088039" d="M224.053,122.094a3.885,3.885,0,1,1-7.77,0v-7.781a3.91,3.91,0,0,1,3.885-3.934,3.846,3.846,0,0,1,2.748,1.153,3.946,3.946,0,0,1,1.137,2.781Z" transform="translate(-197.719 -109.108)" fill="#eb9c8d"/>
            <g id="Grupo_1215513" data-name="Grupo 1215513" transform="translate(10.793)">
              <path id="Trazado_1088040" data-name="Trazado 1088040" d="M162.346,112.911V105.13a3.936,3.936,0,0,1,2.431-3.648,3.84,3.84,0,0,0-1.457-.286,3.909,3.909,0,0,0-3.885,3.934v7.781a3.908,3.908,0,0,0,3.885,3.933,3.833,3.833,0,0,0,1.456-.286A3.932,3.932,0,0,1,162.346,112.911Z" transform="translate(-159.435 -101.196)" fill="#d78878"/>
              <path id="Trazado_1088041" data-name="Trazado 1088041" d="M219.194,122.094v-7.781a3.936,3.936,0,0,1,2.431-3.648,3.838,3.838,0,0,0-1.457-.286,3.91,3.91,0,0,0-3.885,3.934v7.781a3.908,3.908,0,0,0,3.885,3.933,3.832,3.832,0,0,0,1.455-.286A3.932,3.932,0,0,1,219.194,122.094Z" transform="translate(-208.512 -109.108)" fill="#d78878"/>
              <path id="Trazado_1088042" data-name="Trazado 1088042" d="M184.921,368.939l-6.5-7.454.354,8.571v9.624a1.418,1.418,0,0,0,1.41,1.427h4.747Z" transform="translate(-175.826 -325.468)" fill="#d78878"/>
            </g>
            <path id="Trazado_1088043" data-name="Trazado 1088043" d="M104.35,181.687l2.581,3.145a7.446,7.446,0,0,1,1.686,4.724v5.976a8.231,8.231,0,0,1-8.18,8.28h-6.21v-.248l-10.8-12.39a11.991,11.991,0,0,1-1.773-13.018l2.95-6.194a5.936,5.936,0,0,1,8.2-2.7l12.3,6.686a3,3,0,0,1,1.136,1.088,3.046,3.046,0,0,1-1.135,4.24Z" transform="translate(-80.484 -159.225)" fill="#eb9c8d"/>
          </g>
          <path id="Trazado_1088044" data-name="Trazado 1088044" d="M107.113,173.813a4.037,4.037,0,0,0-1.526-1.461l-12.85-6.825a1.3,1.3,0,0,0-.237-.1l-.052.066a1.322,1.322,0,0,1-1.3.487,5.948,5.948,0,0,0-6.551,3.3l-2.95,6.194a11.991,11.991,0,0,0,1.773,13.018l10.8,12.39v.248h6.147v-.267a2.266,2.266,0,0,0-.557-1.487l-10.238-11.74a11.991,11.991,0,0,1-1.773-13.018l2.95-6.194a5.981,5.981,0,0,1,.41-.726.7.7,0,0,1,.917-.241c2.443,1.313,12.533,6.725,12.533,6.725a1.973,1.973,0,0,1,.746.714,2.014,2.014,0,0,1,.287,1,1.98,1.98,0,0,1-1.033,1.786l-1.613.878a7.951,7.951,0,0,1-7.381.116l-3.731-1.883a1.02,1.02,0,0,0-1.389.494,1.072,1.072,0,0,0,.512,1.383l3.692,1.864a9.983,9.983,0,0,0,9.267-.145l1.613-.878a4.051,4.051,0,0,0,2.112-3.656A4.113,4.113,0,0,0,107.113,173.813Z" transform="translate(-80.485 -156.541)" fill="#d78878"/>
        </g>
        <g id="XMLID_222_" transform="translate(26.335 2.349)">
          <g id="Grupo_1215515" data-name="Grupo 1215515">
            <path id="Trazado_1088045" data-name="Trazado 1088045" d="M280.9,129.889a3.885,3.885,0,1,1-7.77,0v-7.781a3.91,3.91,0,0,1,3.885-3.934,3.846,3.846,0,0,1,2.748,1.153,3.946,3.946,0,0,1,1.137,2.781Z" transform="translate(-273.132 -118.174)" fill="#eb9c8d"/>
            <path id="Trazado_1088046" data-name="Trazado 1088046" d="M337.743,131.628v7.526a3.886,3.886,0,1,1-7.771,0v-7.526a3.911,3.911,0,0,1,3.886-3.934,3.849,3.849,0,0,1,2.748,1.153A3.946,3.946,0,0,1,337.743,131.628Z" transform="translate(-322.202 -126.377)" fill="#eb9c8d"/>
          </g>
        </g>
        <g id="XMLID_224_" transform="translate(26.335 2.349)">
          <g id="Grupo_1215516" data-name="Grupo 1215516">
            <path id="Trazado_1088047" data-name="Trazado 1088047" d="M276.043,129.889v-7.781a3.936,3.936,0,0,1,2.431-3.648,3.839,3.839,0,0,0-1.457-.286,3.91,3.91,0,0,0-3.885,3.934v7.781a3.908,3.908,0,0,0,3.885,3.933,3.841,3.841,0,0,0,1.457-.286A3.934,3.934,0,0,1,276.043,129.889Z" transform="translate(-273.132 -118.174)" fill="#d78878"/>
            <path id="Trazado_1088048" data-name="Trazado 1088048" d="M332.883,139.154v-7.526a3.937,3.937,0,0,1,2.432-3.648,3.837,3.837,0,0,0-1.457-.286,3.911,3.911,0,0,0-3.886,3.934v7.526a3.91,3.91,0,0,0,3.886,3.933,3.84,3.84,0,0,0,1.457-.286A3.936,3.936,0,0,1,332.883,139.154Z" transform="translate(-322.202 -126.377)" fill="#d78878"/>
          </g>
        </g>
      </g>
      <g id="Grupo_1215518" data-name="Grupo 1215518" transform="translate(0 1.881)">
        <path id="Trazado_1088049" data-name="Trazado 1088049" d="M149.2,384.917a1.017,1.017,0,0,0-1.447-.091,1.047,1.047,0,0,0-.09,1.465l3.311,3.8v10.906a1.025,1.025,0,1,0,2.051,0V389.7a1.045,1.045,0,0,0-.257-.687Z" transform="translate(-127.259 -331.613)"/>
        <path id="Trazado_1088050" data-name="Trazado 1088050" d="M77.683,225.771a10.92,10.92,0,0,1-1.618-11.881l1.385-2.908a1.044,1.044,0,0,0-.478-1.386,1.02,1.02,0,0,0-1.369.484l-1.385,2.908a13.012,13.012,0,0,0,1.927,14.156l4.284,4.913a1.017,1.017,0,0,0,1.447.091,1.047,1.047,0,0,0,.09-1.465Z" transform="translate(-62.975 -180.765)"/>
        <path id="Trazado_1088051" data-name="Trazado 1088051" d="M140.729,97.363a4.862,4.862,0,0,0-3.4,1.39A4.87,4.87,0,0,0,129.5,97.49a4.871,4.871,0,0,0-7.762-1.173,4.9,4.9,0,0,0-9.237,2.35v4.35a6.936,6.936,0,0,0-6.067,3.111,1.046,1.046,0,0,0,.276,1.441,1.018,1.018,0,0,0,1.423-.279,4.889,4.889,0,0,1,6.429-1.6l12.3,6.686a2,2,0,0,1,0,3.5l-1.614.878a7.95,7.95,0,0,1-7.38.115l-3.73-1.882a1.02,1.02,0,0,0-1.375.466,1.044,1.044,0,0,0,.46,1.392l3.73,1.882a9.981,9.981,0,0,0,9.266-.144l.123-.067L128.4,121a6.416,6.416,0,0,1,1.449,4.062v5.976a1.025,1.025,0,1,0,2.051,0v-5.976a8.512,8.512,0,0,0-1.922-5.388l-1.793-2.185a4.055,4.055,0,0,0,1.774-3.446,4.1,4.1,0,0,0-.387-1.659,4.854,4.854,0,0,0,6.881-.1,4.9,4.9,0,0,0,4.282,2.542,4.833,4.833,0,0,0,2.178-.517v2.474a1.025,1.025,0,1,0,2.051,0v-4.4a4.986,4.986,0,0,0,.683-2.524v-7.526A4.947,4.947,0,0,0,140.729,97.363Zm-26.174,6.057V98.667a2.861,2.861,0,1,1,5.721,0v7.767l-4.74-2.576A7.086,7.086,0,0,0,114.555,103.42Zm7.771,4.129V99.855a2.861,2.861,0,1,1,5.721,0V108.8a2.921,2.921,0,0,1-.478,1.6Zm10.632,4.144a2.881,2.881,0,0,1-2.86-2.9v-7.781a2.861,2.861,0,1,1,5.721,0V108.8A2.881,2.881,0,0,1,132.958,111.693Zm7.771,1.062a2.881,2.881,0,0,1-2.86-2.9v-7.526a2.861,2.861,0,1,1,5.721,0v7.526A2.881,2.881,0,0,1,140.729,112.755Z" transform="translate(-91.735 -80.991)"/>
        <path id="Trazado_1088052" data-name="Trazado 1088052" d="M355.85,285.042a1.031,1.031,0,0,0-1.025,1.038v9.405a8.865,8.865,0,0,1-1.188,4.434l-1.554,2.687a2.586,2.586,0,0,0-.347,1.294v11.341a1.025,1.025,0,1,0,2.051,0V303.9a.491.491,0,0,1,.066-.245l1.554-2.687a10.962,10.962,0,0,0,1.469-5.482V286.08A1.032,1.032,0,0,0,355.85,285.042Z" transform="translate(-303.653 -245.86)"/>
        <path id="Trazado_1088053" data-name="Trazado 1088053" d="M337.407,11.832a1.017,1.017,0,0,0,1.417-.311l5.112-8.041a1.046,1.046,0,0,0-.307-1.434,1.018,1.018,0,0,0-1.417.311L337.1,10.4A1.045,1.045,0,0,0,337.407,11.832Z" transform="translate(-290.877 -1.881)"/>
        <path id="Trazado_1088054" data-name="Trazado 1088054" d="M414.916,21.208a1.016,1.016,0,0,0,1.439-.176L427.721,6.366a1.046,1.046,0,0,0-.174-1.457,1.017,1.017,0,0,0-1.439.176L414.742,19.751a1.046,1.046,0,0,0,.174,1.457Z" transform="translate(-357.858 -4.3)"/>
        <path id="Trazado_1088055" data-name="Trazado 1088055" d="M469.389,198.133l-4.56,2.567a1.045,1.045,0,0,0-.4,1.411,1.023,1.023,0,0,0,.9.534,1.012,1.012,0,0,0,.5-.131l4.56-2.567a1.045,1.045,0,0,0,.4-1.411A1.019,1.019,0,0,0,469.389,198.133Z" transform="translate(-400.831 -170.864)"/>
        <path id="Trazado_1088056" data-name="Trazado 1088056" d="M470.277,319.642l-4.422-2.7a1.018,1.018,0,0,0-1.408.352,1.045,1.045,0,0,0,.348,1.425l4.422,2.7a1.012,1.012,0,0,0,.529.149,1.022,1.022,0,0,0,.879-.5,1.045,1.045,0,0,0-.348-1.425Z" transform="translate(-400.83 -273.216)"/>
        <path id="Trazado_1088057" data-name="Trazado 1088057" d="M406.991,384.639a1.017,1.017,0,0,0-1.445-.115,1.047,1.047,0,0,0-.113,1.463l1.644,1.947a1.017,1.017,0,0,0,1.445.115,1.047,1.047,0,0,0,.113-1.463Z" transform="translate(-349.797 -331.362)"/>
        <path id="Trazado_1088058" data-name="Trazado 1088058" d="M440.412,423.754a1.017,1.017,0,0,0-1.445-.115,1.047,1.047,0,0,0-.113,1.463l5.723,6.78a1.017,1.017,0,0,0,1.445.115,1.047,1.047,0,0,0,.113-1.463Z" transform="translate(-378.649 -365.064)"/>
        <path id="Trazado_1088059" data-name="Trazado 1088059" d="M278.2,19.694a1.013,1.013,0,0,0,.324.053,1.027,1.027,0,0,0,.973-.711l1.132-3.446a1.041,1.041,0,0,0-.649-1.312,1.023,1.023,0,0,0-1.3.657l-1.132,3.446A1.041,1.041,0,0,0,278.2,19.694Z" transform="translate(-239.566 -12.517)"/>
        <path id="Trazado_1088060" data-name="Trazado 1088060" d="M128.608,11.521a1.017,1.017,0,0,0,1.417.311,1.045,1.045,0,0,0,.307-1.434l-5.112-8.04a1.018,1.018,0,0,0-1.417-.311A1.045,1.045,0,0,0,123.5,3.48Z" transform="translate(-106.473 -1.881)"/>
        <path id="Trazado_1088061" data-name="Trazado 1088061" d="M11.862,20.176a1.016,1.016,0,0,0,1.441.166,1.046,1.046,0,0,0,.164-1.458L1.828,4.079A1.017,1.017,0,0,0,.387,3.913,1.046,1.046,0,0,0,.224,5.372Z" transform="translate(0 -3.438)"/>
        <path id="Trazado_1088062" data-name="Trazado 1088062" d="M5.383,202.526a1.012,1.012,0,0,0,.475.119,1.023,1.023,0,0,0,.909-.556,1.044,1.044,0,0,0-.432-1.4L1.5,198.121a1.019,1.019,0,0,0-1.384.437,1.044,1.044,0,0,0,.432,1.4Z" transform="translate(0 -170.864)"/>
        <path id="Trazado_1088063" data-name="Trazado 1088063" d="M9.34,317.294a1.018,1.018,0,0,0-1.408-.352l-4.422,2.7a1.045,1.045,0,0,0-.348,1.425,1.022,1.022,0,0,0,.879.5,1.01,1.01,0,0,0,.529-.149l4.422-2.7A1.045,1.045,0,0,0,9.34,317.294Z" transform="translate(-2.602 -273.217)"/>
        <path id="Trazado_1088064" data-name="Trazado 1088064" d="M85.791,384.524a1.017,1.017,0,0,0-1.445.115L82.7,386.586a1.047,1.047,0,0,0,.113,1.463,1.017,1.017,0,0,0,1.445-.115l1.644-1.947A1.047,1.047,0,0,0,85.791,384.524Z" transform="translate(-71.184 -331.361)"/>
        <path id="Trazado_1088065" data-name="Trazado 1088065" d="M26.6,423.639a1.017,1.017,0,0,0-1.445.115l-5.723,6.78A1.047,1.047,0,0,0,19.549,432a1.017,1.017,0,0,0,1.445-.115l5.723-6.78A1.046,1.046,0,0,0,26.6,423.639Z" transform="translate(-16.567 -365.064)"/>
        <path id="Trazado_1088066" data-name="Trazado 1088066" d="M213.065,19.037a1.027,1.027,0,0,0,.973.711,1.013,1.013,0,0,0,.324-.053,1.041,1.041,0,0,0,.649-1.312l-1.132-3.446a1.023,1.023,0,0,0-1.3-.657,1.041,1.041,0,0,0-.649,1.312Z" transform="translate(-182.917 -12.517)"/>
      </g>
    </g>
  </g>
</svg>
