<svg xmlns="http://www.w3.org/2000/svg" width="188.879" height="191.539" viewBox="0 0 188.879 191.539">
  <g id="Grupo_1215604" data-name="Grupo 1215604" transform="translate(-179.919 -268.641)">
    <rect id="Rectángulo_417865" data-name="Rectángulo 417865" width="168" height="155" rx="37" transform="translate(190 282)" fill="#248abf"/>
    <g id="Grupo_1215603" data-name="Grupo 1215603" transform="translate(69.329 165.106)">
      <path id="Trazado_1159829" data-name="Trazado 1159829" d="M298.5,217.7c-.631-1.228-1.426-2.4-2.125-3.555q-1.661-2.738-3.443-5.4c-2.4-3.6-4.943-7.1-7.576-10.525-5.381-7.008-11.122-13.729-16.993-20.328q-1.639-1.842-3.294-3.67a20.779,20.779,0,0,0,7.394-4.145c5.094-4.493,6.605-11.685,4.781-18.087-1.609-5.643-5.937-11.115-12.074-11.879-9.155-1.14-17.5,8.883-14.632,17.673a11.855,11.855,0,0,0,.494,1.244,47.233,47.233,0,0,1-10.188-5.635c-3.174-2.112-6.3-4.317-9.626-6.183a61.945,61.945,0,0,0-11.571-4.908,5.841,5.841,0,0,0-.064-4.943,3.224,3.224,0,0,0-2.425-1.81c1.923-5.349.543-11.1-1.412-16.3-1.7-4.519-3.431-9.5-6.535-13.284-1.809-2.2-4.466-3.36-6.972-1.5a13.707,13.707,0,0,0-3.427,4.226,57.3,57.3,0,0,0-3.634,7.852c-2.368,6-4.573,12.723-2.143,18.962a3.262,3.262,0,0,0-2.745,1.781,5.871,5.871,0,0,0-.077,5.066,66.209,66.209,0,0,0-9.379,3.779,82.049,82.049,0,0,0-9.085,5.531,104.5,104.5,0,0,1-9.039,5.69,29.33,29.33,0,0,1-3.747,1.7c3.667-8.146-2.96-18.342-12.01-19-6.283-.459-11.265,4.472-13.485,9.918-2.472,6.063-1.849,13.266,2.4,18.382a19.164,19.164,0,0,0,9.061,5.884c-11.356,12.59-22.6,25.539-31.4,40.083-2.752,4.551-3.1,5.574-2.892,8.783a27.666,27.666,0,0,0,5.926,15.382c4.732,5.977,11.761,9.663,19.084,11.414,9.611,2.3,20.159,1.863,29.748-.352,7.252-1.676,14.46-4.861,19.519-10.481a29.856,29.856,0,0,0,7.246-18.348,9.2,9.2,0,0,0-.88-5.053c-.442-.853-.97-1.671-1.439-2.463q-1.589-2.68-3.3-5.288c-2.235-3.417-4.613-6.74-7.091-9.985-5.091-6.669-10.582-13.018-16.172-19.271q-1.705-1.907-3.423-3.8c.814-.167,1.617-.352,2.39-.578,11.055-3.222,19.951-11.35,31.076-14.369,1-.272,2.021-.481,3.046-.654.256,16.126.4,32.256.019,48.381-.241,10.309-.694,20.615-1.466,30.9q-.49,6.523-1.173,13.03c-8.231.665-16.723,1.788-24.429,4.885-2.953,1.187-6.47,2.819-8.638,5.407-1.839,2.2-1.788,3.841-1.8,8.009-.009,2.922-.026,5.844.021,8.767a10.3,10.3,0,0,0,.778,4.836c1.172,2.272,3.491,3.833,5.7,4.973,7.154,3.687,15.642,4.9,23.545,5.748a158.133,158.133,0,0,0,29.9.338c8.245-.687,16.95-1.811,24.541-5.3a15.556,15.556,0,0,0,6.575-5c1.24-1.829,1.3-3.689,1.371-5.658.086-2.485-.052-5.012-.078-7.469q-.019-1.708-.033-3.415c-.017-2.213.239-4.3-.841-6.054-1.206-1.967-3.528-3.437-5.42-4.427-6.525-3.414-14.149-4.693-21.389-5.479-2.5-.271-5-.452-7.513-.576-.172-1.674-.349-3.348-.5-5.025-.935-10.262-1.525-20.553-1.877-30.851-.638-18.674-.5-37.361-.2-56.041,11.288,1.9,20.32,9.722,30.783,13.844a35.359,35.359,0,0,0,5.937,1.741c-10.937,12.112-21.791,24.462-30.12,38.561-.366.619-.768,1.257-1.133,1.915a8.636,8.636,0,0,0-1.078,5.6,30.094,30.094,0,0,0,5.736,16.364c4.476,5.885,11.125,9.517,18.129,11.552a67.183,67.183,0,0,0,14.069,2.353,65.115,65.115,0,0,0,15.517-.627c7.659-1.31,15.208-4.517,20.6-10.255a27.717,27.717,0,0,0,7.5-17.908c.084-2.217.258-2.388-.906-4.654Zm-123.233-9.679a97.787,97.787,0,0,0-17.091-1.7,141.843,141.843,0,0,0-23.234,1.3c-2.335.338-4.656.769-6.95,1.32q1.122-1.455,2.246-2.9c6.024-7.771,12.211-15.446,18.806-22.742q.632-.7,1.273-1.4c1.394-1.519,1.775-1.186,2.894.046C160.855,190.359,168.241,199.07,175.268,208.026Zm90.627-1.355a137.272,137.272,0,0,0-23.624.237c-2.5.265-5,.62-7.471,1.108q7.782-9.792,15.981-19.247,2.835-3.276,5.731-6.5c1.536-1.7,1.878-1.786,3.348-.187,3.128,3.4,6.133,6.912,9.088,10.462q6.7,8.05,13.05,16.391a96.413,96.413,0,0,0-16.1-2.268Z" transform="translate(0 0)" fill="#68182b"/>
      <path id="Trazado_1159830" data-name="Trazado 1159830" d="M905.7,512.924c1.011,1.619,2,3.253,2.932,4.921.776,1.394,1,2.327.117,3.738a7.007,7.007,0,0,1-1.171,1.369c-4.207-6.58-9.024-12.8-13.8-18.971-6.08-7.857-12.328-15.616-18.987-22.992-1.639-1.816-3.3-3.645-5.055-5.368-.883-.864-.859-.928.544-.987a27.968,27.968,0,0,0,3.335-.34,1.99,1.99,0,0,1,2.124.745C886.523,486.988,897.162,499.248,905.7,512.924Z" transform="translate(-612.185 -299.175)" fill="#a2603f"/>
      <path id="Trazado_1159831" data-name="Trazado 1159831" d="M720.938,649.217a94.861,94.861,0,0,1,16.59-1.643,137.4,137.4,0,0,1,22.956,1.265c2.351.348,4.687.79,6.993,1.358a6.588,6.588,0,0,1,3.925,2.7q.8,1.073,1.592,2.154,1.393,1.906,2.761,3.833a111.131,111.131,0,0,0-21.882-3.508,164.755,164.755,0,0,0-30.468.308,96.244,96.244,0,0,0-10.991,1.861c1.365-1.9,2.781-3.76,4.216-5.6,1.593-2.048,1.888-2.243,4.307-2.726Z" transform="translate(-485.697 -439.03)" fill="#ffb578"/>
      <path id="Trazado_1159832" data-name="Trazado 1159832" d="M698.733,695.294a109.348,109.348,0,0,1,24.5-2.972,165.936,165.936,0,0,1,29.616,1.782,86.747,86.747,0,0,1,11.606,2.62q.66.956,1.3,1.923c.905,1.365.263,2.107-1.015,2.714a37.294,37.294,0,0,1-8.613,2.625,99.618,99.618,0,0,1-19.638,1.631,155.424,155.424,0,0,1-22.834-1.493c-4.8-.714-9.778-1.669-14.193-3.759-.4-.19-.847-.416-1.311-.673-1.328-.739-1.582-1.17-.813-2.339Q698.023,696.315,698.733,695.294Z" transform="translate(-473.183 -475.134)" fill="#823341"/>
      <path id="Trazado_1159833" data-name="Trazado 1159833" d="M545.864,129.035a78.505,78.505,0,0,1,3.339-7.966,20.662,20.662,0,0,1,2.941-4.689c1.765-1.954,3.08-1.765,4.578-.173a18.435,18.435,0,0,1,2.758,4.239,70.457,70.457,0,0,1,2.954,6.7c1.881,4.809,3.943,10.379,2.638,15.554-.468,1.859-.957,2.183-3.852,2.42q-3.45.282-6.914.276-2.929-.007-5.855-.224c-2.333-.172-3.616-.537-4.119-2.156C542.915,138.438,544.241,133.445,545.864,129.035Z" transform="translate(-349.563 -9.224)" fill="#ffb578"/>
      <path id="Trazado_1159834" data-name="Trazado 1159834" d="M532.066,281.72c.125-.994.615-1.717,1.658-1.692,1.164.027,2.36.29,3.521.4q2.207.207,4.422.3a83.678,83.678,0,0,0,8.376-.081q1.964-.118,3.922-.328c.88-.094,2.131-.526,3-.24,1.068.351,1.164,1.868,1.026,2.795a3.482,3.482,0,0,1-2.5,3.019,48.646,48.646,0,0,1-16.5.778c-1.333-.168-2.664-.4-3.977-.685a3.414,3.414,0,0,1-1.9-.92A4.227,4.227,0,0,1,532.066,281.72Z" transform="translate(-340.124 -142.396)" fill="#a2603f"/>
      <path id="Trazado_1159835" data-name="Trazado 1159835" d="M123.09,517.852c8.038-14.444,18.993-27.227,29.942-39.518q1.339-1.5,2.688-3a2.313,2.313,0,0,1,2.468-1.033,29.275,29.275,0,0,0,3.635.368c.7.027,1.173-.02.359.775-1.433,1.4-2.8,2.868-4.149,4.336-3.131,3.408-6.141,6.928-9.1,10.486q-9.622,11.569-18.533,23.719c-2.15,2.94-4.278,5.908-6.251,8.973-.068-.063-.141-.118-.206-.183a5.623,5.623,0,0,1-.97-1.186c-.879-1.412-.661-2.341.117-3.738Z" transform="translate(-9.534 -299.181)" fill="#a2603f"/>
      <path id="Trazado_1159836" data-name="Trazado 1159836" d="M144.8,696.706q.87-.265,1.747-.508a109.88,109.88,0,0,1,21.53-3.421,165.143,165.143,0,0,1,30.077.291,91.336,91.336,0,0,1,12.371,2.19q.819,1.158,1.6,2.341c.516.781.446,1.2-.084,1.534-3.646,2.3-8.009,3.4-12.188,4.233a128.839,128.839,0,0,1-20.736,2.106,125.865,125.865,0,0,1-21.981-.839c-4.471-.631-9.132-1.549-13.2-3.6-1.229-.621-1.285-1.089-.438-2.379Q144.14,697.674,144.8,696.706Z" transform="translate(-26.098 -475.104)" fill="#823341"/>
      <path id="Trazado_1159837" data-name="Trazado 1159837" d="M198.993,654.872a168.612,168.612,0,0,0-29.885,1.79,89.461,89.461,0,0,0-10.335,2.229q1.8-2.573,3.674-5.094c1.826-2.46,2.424-3.059,4.506-3.575A91.9,91.9,0,0,1,183,647.905a138.047,138.047,0,0,1,23.295.2c2.444.25,4.878.6,7.287,1.078a5.835,5.835,0,0,1,4.2,2.53q1.3,1.7,2.577,3.407.889,1.189,1.765,2.391a113.656,113.656,0,0,0-23.128-2.643Z" transform="translate(-38.886 -439.013)" fill="#ffb578"/>
      <path id="Trazado_1159838" data-name="Trazado 1159838" d="M195.249,740.051c-4.159,5.427-10.406,8.74-16.868,10.617a64.239,64.239,0,0,1-13.478,2.274,62.868,62.868,0,0,1-14.926-.548c-7.231-1.235-14.326-4.141-19.464-9.518a25.392,25.392,0,0,1-6.683-13.432,13.767,13.767,0,0,0,1.177.973c3.355,2.448,7.634,3.646,11.64,4.489a100.908,100.908,0,0,0,20.737,1.815,158.074,158.074,0,0,0,23.732-1.619c5.05-.768,10.224-1.849,14.831-4.137a18.561,18.561,0,0,0,4.291-2.908A26.639,26.639,0,0,1,195.249,740.051Z" transform="translate(-10.685 -504.015)" fill="#ffb578"/>
      <path id="Trazado_1159839" data-name="Trazado 1159839" d="M365.627,514.147a34.372,34.372,0,0,1,2.677,4.738c.594,1.458.137,2.551-.747,3.785a7.566,7.566,0,0,1-.572.693c-3.415-5.3-7.378-10.27-11.287-15.2q-7.879-9.934-16.19-19.518-3.746-4.332-7.6-8.567c.812-.822,1.643-1.627,2.5-2.4,1.008-.906,1.387-1.158,2.469.042,10.372,11.487,20.666,23.171,28.753,36.423Z" transform="translate(-178.61 -301.33)" fill="#a2603f"/>
      <path id="Trazado_1159840" data-name="Trazado 1159840" d="M267.126,331.418c-4.762,2.258-9.878,3.885-15.2,3.755a23.593,23.593,0,0,1-12.41-3.605,15,15,0,0,1-6.175-15.425c.946-5.015,4.17-10.376,9.4-11.743,7.509-1.965,15,5.887,13.774,13.242a9.529,9.529,0,0,1-.265,1.145c-.73,2.456-1.838,3.456-4.869,2.972a6.334,6.334,0,0,1-3.721-1.888,3.8,3.8,0,0,1-.47-4.231c.545-1.32-.351-1.451-1.206-.328-1.944,2.555-1.1,5.57,1.481,7.279,2.858,1.893,6.544,1.728,9.717.834,3.84-1.082,7.326-3.236,10.642-5.4,3.253-2.118,6.408-4.388,9.753-6.364a59.455,59.455,0,0,1,12.757-5.541,5.137,5.137,0,0,0,2.162,1.312,25.25,25.25,0,0,0,2.487.595q.1,5.427.187,10.855c-10.3,1.681-18.779,8.139-28.045,12.531Z" transform="translate(-98.837 -161.857)" fill="#aa8053"/>
      <path id="Trazado_1159841" data-name="Trazado 1159841" d="M466.832,916.087a5.977,5.977,0,0,0,1.67-5.354c-.114-.89-.208-1.783-.316-2.674a67.838,67.838,0,0,1,16.5,2.866,18.008,18.008,0,0,1,4.471,2.06c2.294,1.56,1.733,3.174-.213,4.659a10.592,10.592,0,0,1-1.433.9c-3.245,1.725-7.079,2.4-10.674,2.945a138.969,138.969,0,0,1-18.714,1.276,146.794,146.794,0,0,1-20.152-.886A44.551,44.551,0,0,1,426.05,919.1a11.078,11.078,0,0,1-3.013-1.762c-1.286-1.138-1.365-2.376-.526-3.294a9.5,9.5,0,0,1,3.009-2.021c4.453-2.114,9.623-2.892,14.469-3.461,1.406-.165,2.816-.294,4.227-.406-.113.932-.214,1.866-.332,2.8a6.224,6.224,0,0,0,.237,3.009c1.482,4.012,6.624,5.211,10.4,5.468C458.6,919.7,463.773,919.092,466.832,916.087Z" transform="translate(-251.289 -649.283)" fill="#aa8053"/>
      <path id="Trazado_1159842" data-name="Trazado 1159842" d="M458.157,980.166a14.243,14.243,0,0,1-3.065,2.148,38.917,38.917,0,0,1-9.476,3.413,94.208,94.208,0,0,1-12.556,2.112,157.469,157.469,0,0,1-28.935.314c-8.067-.639-16.462-1.717-24.029-4.737a17.027,17.027,0,0,1-6.464-4.059,6.491,6.491,0,0,1-1.27-4.232c-.006-.407-.011-.814-.017-1.221q-.037-2.532-.026-5.065,0-.776.005-1.552c.087.1.174.2.265.292,3.314,3.469,8.218,5.351,12.718,6.672,7.914,2.322,16.3,3.069,24.511,3.231A144.207,144.207,0,0,0,439.1,975.36c5.874-1.1,12.061-2.7,17.107-6.036a17.038,17.038,0,0,0,4.029-3.6c.025,2.274.048,4.547.036,6.82-.005.978.009,1.97-.03,2.953A6.133,6.133,0,0,1,458.157,980.166Z" transform="translate(-211.224 -695.82)" fill="#a2603f"/>
      <path id="Trazado_1159843" data-name="Trazado 1159843" d="M451.734,884.151a25.27,25.27,0,0,1,6.3,3.178c4.239,3.091,2.9,6.569-.824,9.747-3.811,3.251-8.98,4.876-13.752,6.058a119.5,119.5,0,0,1-25.538,2.971,116.507,116.507,0,0,1-26.22-1.818c-5.105-1.033-10.417-2.519-14.768-5.493a11.955,11.955,0,0,1-3.31-3.207,4.759,4.759,0,0,1,.642-5.725,16.491,16.491,0,0,1,4.535-3.268c6.09-3.2,13.215-4.527,19.966-5.415,2.155-.283,4.318-.5,6.484-.677,0,.031-.006.063-.009.094-.132,1.207-.286,2.411-.429,3.617-5.787.441-11.732,1.149-17.208,3.112-2.223.8-5.681,2.085-6.483,4.62-.615,1.946,1.013,3.6,2.5,4.565,2.974,1.942,6.722,2.769,10.16,3.408a112.337,112.337,0,0,0,18.908,1.6,169.449,169.449,0,0,0,21.821-.915,46.267,46.267,0,0,0,12.768-2.858c2.056-.872,4.458-2.245,5.062-4.579.631-2.438-1.875-3.964-3.751-4.871-4.755-2.3-10.243-3.128-15.435-3.73-1.559-.181-3.122-.316-4.687-.431-.159-1.353-.326-2.705-.472-4.06C435.989,880.474,444.173,881.405,451.734,884.151Z" transform="translate(-211.727 -626.696)" fill="#ffb578"/>
      <path id="Trazado_1159844" data-name="Trazado 1159844" d="M565.583,429.756q.37,3.674.8,7.342.217,1.833.451,3.664c.214,1.675.318,2.669-1.181,4.017-1.829,1.645-5.155,2.263-7.241,2.432a19.919,19.919,0,0,1-6.509-.478,10.751,10.751,0,0,1-3.393-1.408c-1.843-1.263-2.24-2.746-1.778-5.687.135-.865.309-1.726.406-2.541q.882-7.445,1.5-14.917c.84-9.982,1.363-19.989,1.67-30,.561-18.3.4-36.611.1-54.916a1.3,1.3,0,0,0-.005-.34q-.04-2.41-.08-4.82-.055-3.138-.112-6.275a54.447,54.447,0,0,0,6.445.351,49.9,49.9,0,0,0,6.646-.459c-.355,19.751-.693,39.509-.282,59.261.207,9.95.605,19.9,1.291,29.825q.516,7.484,1.263,14.949Z" transform="translate(-351.846 -179.313)" fill="#a2603f"/>
      <path id="Trazado_1159845" data-name="Trazado 1159845" d="M647.716,319.677a33.161,33.161,0,0,0-3.78-.786q.033-1.986.066-3.971.061-3.47.123-6.939c.759-.133,1.516-.273,2.269-.438a5.159,5.159,0,0,0,2.4-1.413,59.465,59.465,0,0,1,12.236,5.2c3.705,2.127,7.162,4.647,10.746,6.964,6,3.88,13.637,7.984,20.794,4.569a5.6,5.6,0,0,0,2.891-2.853c.645-1.611-.024-2.963-1.143-4.2-1.055-1.166-1.794-.768-1.221.529a3.359,3.359,0,0,1,.033,3.352,4.9,4.9,0,0,1-2.5,1.57c-3.363,1.1-6.924-.045-7.624-2.759a11.114,11.114,0,0,1,2.383-9.883,11.872,11.872,0,0,1,9.243-4.453c5.281.2,9.148,4.939,10.682,9.619,1.817,5.543.894,11.875-3.369,16.059-4.229,4.15-9.2,5.078-13.078,5.306a31.666,31.666,0,0,1-12.316-1.83c-10.048-3.605-18.452-10.822-28.835-13.64Z" transform="translate(-430.432 -161.909)" fill="#aa8053"/>
      <path id="Trazado_1159846" data-name="Trazado 1159846" d="M678.1,518.9a35.539,35.539,0,0,1,2.779-4.9q1.524-2.488,3.148-4.911c2.174-3.248,4.471-6.415,6.862-9.507,4.889-6.325,10.145-12.359,15.474-18.314q1.552-1.735,3.113-3.461c1.172-1.3,1.538-1,2.579-.058.838.756,1.648,1.545,2.441,2.35-10.562,11.527-20.645,23.62-30.009,36.134-1.761,2.353-3.5,4.736-5.1,7.2C678.146,522.144,677.409,520.6,678.1,518.9Z" transform="translate(-457.791 -301.346)" fill="#a2603f"/>
      <path id="Trazado_1159847" data-name="Trazado 1159847" d="M751.13,740.923c-4.5,5.567-11.021,8.937-17.9,10.583-9.215,2.206-19.373,1.769-28.566-.352-6.836-1.578-13.577-4.491-18.39-9.746a26.284,26.284,0,0,1-6.365-13.68,14.208,14.208,0,0,0,2.033,1.663c3.714,2.518,8.305,3.749,12.644,4.651a129.986,129.986,0,0,0,21.87,2.3,127.687,127.687,0,0,0,22.861-.96c4.711-.685,9.571-1.727,13.811-3.976a16.249,16.249,0,0,0,3.207-2.22A25.089,25.089,0,0,1,751.13,740.923Z" transform="translate(-459.466 -503.749)" fill="#ffb578"/>
      <path id="Trazado_1159848" data-name="Trazado 1159848" d="M725.335,477.749c-.912-.825-1.307-1.155-2.18-.35-.26,5.089-4.525,10.343-7.323,14.1-3.611,4.851-7.591,9.449-11.38,14.161a84.593,84.593,0,0,0-9.19,13.45c-.328.622-.654,1.266-.974,1.926,1.127-1.625,2.3-3.222,3.479-4.8,9.364-12.514,19.447-24.608,30.009-36.134-.793-.805-1.6-1.594-2.441-2.35Z" transform="translate(-471.068 -301.35)" fill="#81391c"/>
      <path id="Trazado_1159849" data-name="Trazado 1159849" d="M907.4,523.276a47.862,47.862,0,0,0-2.537-5.319c-3.061-5.471-7.127-10.457-10.978-15.384-4.129-5.283-8.249-10.579-12.466-15.791-1.872-2.314-3.776-4.6-5.62-6.938a15.457,15.457,0,0,1-2.892-4.836c-.863.117-1.733.206-2.609.244-1.4.059-1.427.123-.544.987,1.756,1.723,3.416,3.552,5.055,5.368,6.659,7.376,12.908,15.135,18.987,22.992C898.493,510.673,903.234,516.805,907.4,523.276Z" transform="translate(-612.19 -299.794)" fill="#81391c"/>
      <path id="Trazado_1159850" data-name="Trazado 1159850" d="M151.567,504.651c2.959-3.558,5.969-7.078,9.1-10.486.643-.7,1.292-1.4,1.949-2.093-1.741,1.449-3.334,3.1-4.988,4.63q-1.94,1.794-3.807,3.663A175.036,175.036,0,0,0,140.294,516c-3.339,4.264-6.544,8.631-9.682,13.045-1.65,2.322-3.455,4.6-4.945,7.022a5.691,5.691,0,0,0,.909,1.094c.066.065.139.12.206.183,1.973-3.065,4.1-6.033,6.251-8.973Q141.916,516.222,151.567,504.651Z" transform="translate(-12.169 -313.566)" fill="#81391c"/>
      <path id="Trazado_1159851" data-name="Trazado 1159851" d="M460.309,999.54c.014-.369.017-.74.02-1.111a17.033,17.033,0,0,1-6.54,6.079c-3.861,2.063-8.29,3.032-12.558,3.83a141.089,141.089,0,0,1-15.8,1.912c-10.668.767-21.649.826-32.207-1.065-4.8-.86-10.1-2.006-14.448-4.232-3.993-2.043-5.52-5.571-6.376-9.439,0,.812,0,1.623.012,2.436q.009.61.017,1.221a6.491,6.491,0,0,0,1.27,4.232,17.026,17.026,0,0,0,6.464,4.059c7.567,3.02,15.962,4.1,24.029,4.737a157.458,157.458,0,0,0,28.934-.314,94.206,94.206,0,0,0,12.556-2.112,38.94,38.94,0,0,0,9.476-3.413,14.234,14.234,0,0,0,3.066-2.148A6.133,6.133,0,0,0,460.309,999.54Z" transform="translate(-211.288 -719.864)" fill="#81391c"/>
      <path id="Trazado_1159852" data-name="Trazado 1159852" d="M600.9,326.138c3.115,3.612,2.329,9.537,2.271,14.428-.1,8.075-.1,16.152-.06,24.228q.087,16,.552,32c.324,10.519,1.116,21,1.609,31.5.242,5.141.861,12.129-2.605,16.438a8.391,8.391,0,0,1-3.724,2.552c.585,0,1.168-.026,1.749-.073,2.086-.169,5.413-.786,7.241-2.432,1.5-1.348,1.394-2.342,1.181-4.017q-.233-1.831-.451-3.664-.435-3.667-.8-7.342-.753-7.463-1.263-14.948c-.686-9.928-1.084-19.876-1.291-29.825-.411-19.753-.073-39.51.283-59.261C604.027,325.93,602.463,326.072,600.9,326.138Z" transform="translate(-394.117 -179.316)" fill="#81391c"/>
      <path id="Trazado_1159853" data-name="Trazado 1159853" d="M532.091,288.278c-.008.048-.019.092-.025.141a4.227,4.227,0,0,0,1.047,3.341,3.414,3.414,0,0,0,1.9.92c1.313.289,2.643.517,3.977.685a48.647,48.647,0,0,0,16.5-.778,3.481,3.481,0,0,0,2.5-3.019,4.653,4.653,0,0,0,.035-.961c-2.621,2.1-6.221,3-9.627,3.312a41.877,41.877,0,0,1-8.042-.187C537.211,291.413,533.624,291.175,532.091,288.278Z" transform="translate(-340.124 -149.095)" fill="#81391c"/>
      <path id="Trazado_1159854" data-name="Trazado 1159854" d="M331.9,480.078q3.864,4.228,7.6,8.567,8.294,9.59,16.19,19.518c2.857,3.6,5.74,7.231,8.42,10.989a30.9,30.9,0,0,0-1.749-3.4,108.079,108.079,0,0,0-9.029-12.085c-3.3-4.069-6.425-8.262-9.6-12.433-2.809-3.695-6.881-8.555-6.862-13.5l-.008-.009c-1.082-1.2-1.461-.949-2.469-.042C333.546,478.452,332.715,479.256,331.9,480.078Z" transform="translate(-178.609 -301.329)" fill="#81391c"/>
      <path id="Trazado_1159855" data-name="Trazado 1159855" d="M572.134,429.844c-.066-10.164-1.318-71.835-1.616-77.276-.348-6.3-2.4-9.371-1.924-2.417.273,3.978.1,8.248.181,12.16.157,7.185-.008,50.681-.89,65.233-.435,7.178-.806,14.359-1.655,21.5-1.463,12.309,5.875,13.049,5.582,1.137C571.645,443.423,572.178,436.617,572.134,429.844Z" transform="translate(-367.565 -195.828)" fill="#f5995a"/>
      <path id="Trazado_1159856" data-name="Trazado 1159856" d="M399.162,531.515c2.77,3.606,5.561,7.175,7.963,11.042a48.677,48.677,0,0,1,3.917,7.893,3.286,3.286,0,0,0,.384-3.236,34.368,34.368,0,0,0-2.677-4.738c-6.695-10.969-14.9-20.864-23.413-30.462A224.892,224.892,0,0,0,399.162,531.515Z" transform="translate(-221.731 -329.659)" fill="#f5995a"/>
      <path id="Trazado_1159857" data-name="Trazado 1159857" d="M955.077,540.641c-7.161-11.465-15.8-21.929-24.754-32.056,4.778,6.427,9.439,12.934,14.177,19.407,3.293,4.5,6.729,8.912,9.868,13.523,1.515,2.226,2.882,4.548,4.18,6.91a3.319,3.319,0,0,0-.538-2.862C957.081,543.895,956.088,542.26,955.077,540.641Z" transform="translate(-661.559 -326.892)" fill="#f5995a"/>
      <path id="Trazado_1159858" data-name="Trazado 1159858" d="M703.661,515.22c-4.394,4.968-8.707,10.011-12.764,15.259-2.39,3.092-4.688,6.259-6.861,9.507q-1.622,2.424-3.148,4.911a35.509,35.509,0,0,0-2.779,4.9,3.385,3.385,0,0,0-.07,2.453c.884-1.486,1.829-2.935,2.731-4.36,2.966-4.679,6.116-9.242,9.293-13.78C694.511,527.759,699.167,521.544,703.661,515.22Z" transform="translate(-457.796 -332.247)" fill="#f5995a"/>
      <path id="Trazado_1159859" data-name="Trazado 1159859" d="M466.557,969.959q-.009-2.117-.033-4.233a17.042,17.042,0,0,1-4.029,3.6c-5.046,3.336-11.233,4.936-17.107,6.036a144.217,144.217,0,0,1-29.285,2.123c-8.215-.163-16.6-.909-24.511-3.231-3.973-1.166-8.257-2.774-11.488-5.521,3.171,5.7,10.509,8.269,16.565,9.776,11.108,2.763,22.59,2.918,33.931,1.829,12.191-1.17,25.719-2.631,35.822-10.275.045-.034.089-.072.133-.107Z" transform="translate(-217.51 -695.824)" fill="#f5995a"/>
      <path id="Trazado_1159860" data-name="Trazado 1159860" d="M155.866,508.452c4.1-5.6,8.465-10.985,13.067-16.275,3.217-3.7,6.371-7.465,9.786-10.984a94.847,94.847,0,0,1,7.345-6.775c-.291-.039-.583-.068-.872-.116a2.312,2.312,0,0,0-2.468,1.033q-1.349,1.5-2.688,3C171.523,487.891,163.013,497.749,155.866,508.452Z" transform="translate(-36.54 -299.182)" fill="#f5995a"/>
      <path id="Trazado_1159861" data-name="Trazado 1159861" d="M234.146,366.658c-.083-.2-.145-.415-.215-.624a14.554,14.554,0,0,0,6.29,10.141,23.593,23.593,0,0,0,12.41,3.605c5.32.13,10.437-1.5,15.2-3.755,9.266-4.393,17.743-10.85,28.045-12.532q-.034-2.065-.071-4.129a36.806,36.806,0,0,0-10.74,3.21c-7.138,3.23-13.233,8.33-20.251,11.777-6.986,3.431-15.69,5.357-22.841,1.331a18.806,18.806,0,0,1-7.827-9.025Z" transform="translate(-99.541 -206.465)" fill="#865725"/>
      <path id="Trazado_1159862" data-name="Trazado 1159862" d="M540.81,931.106c-3.78-.257-8.922-1.456-10.4-5.468a6.224,6.224,0,0,1-.237-3.009c0-.032.007-.065.012-.1a5.078,5.078,0,0,0-.727,5.747c.895,1.776,2.877,2.761,4.666,3.375,5.107,1.754,11.382,1.082,16.4-.64,3.474-1.192,8.128-4.781,4.284-8.4a5.915,5.915,0,0,1-1.687,5.155C550.058,930.773,544.881,931.383,540.81,931.106Z" transform="translate(-337.574 -660.964)" fill="#865725"/>
      <path id="Trazado_1159863" data-name="Trazado 1159863" d="M676.55,374.042a31.668,31.668,0,0,0,12.316,1.83c3.876-.228,8.849-1.155,13.079-5.306a14.817,14.817,0,0,0,4.215-11.636c-.031.158-.05.317-.085.474a19.891,19.891,0,0,1-5.225,9.328c-5.705,5.724-14.3,5.418-21.308,2.67-6.9-2.705-12.7-7.568-19.105-11.193a47.611,47.611,0,0,0-9.642-4.034,31.815,31.815,0,0,0-6.776-1.559q-.009.513-.018,1.027-.034,1.985-.065,3.971a33.2,33.2,0,0,1,3.78.786C658.1,363.219,666.5,370.436,676.55,374.042Z" transform="translate(-430.432 -202.634)" fill="#865725"/>
      <path id="Trazado_1159864" data-name="Trazado 1159864" d="M845.074,354.267c.7,2.715,4.261,3.859,7.624,2.759a4.9,4.9,0,0,0,2.5-1.57,3.032,3.032,0,0,0,.162-2.856c-1.011,3.017-5.607,2.793-7.888,1.442-2.02-1.2-2.32-3.393-2.229-5.566A10.658,10.658,0,0,0,845.074,354.267Z" transform="translate(-592.5 -197.676)" fill="#865725"/>
      <path id="Trazado_1159865" data-name="Trazado 1159865" d="M312.345,334.759c-.011,4.559-5.839,7.526-8.126,3.321a3.487,3.487,0,0,0,.792,3.2,6.335,6.335,0,0,0,3.721,1.888c3.03.483,4.139-.516,4.869-2.972a9.532,9.532,0,0,0,.265-1.145,11.4,11.4,0,0,0-2.176-8.43A13.556,13.556,0,0,1,312.345,334.759Z" transform="translate(-156.188 -183.264)" fill="#865725"/>
      <path id="Trazado_1159866" data-name="Trazado 1159866" d="M305.835,331.923c-3.173.894-6.86,1.06-9.717-.834a5.159,5.159,0,0,1-2.525-4.662c-.991,2.967,1.108,6.289,4.171,7.435,5.181,1.939,10.75-.454,15.227-3.1,5.672-3.348,10.421-7.891,16.324-10.9a52.653,52.653,0,0,1,11.315-4.123,5.243,5.243,0,0,1-1.642-1.119,59.463,59.463,0,0,0-12.757,5.541c-3.345,1.975-6.5,4.246-9.753,6.364-3.316,2.16-6.8,4.314-10.643,5.4Z" transform="translate(-147.491 -170.356)" fill="#c6956a"/>
      <path id="Trazado_1159867" data-name="Trazado 1159867" d="M234.677,316.011a19.313,19.313,0,0,1,7.917-8.9,12.511,12.511,0,0,1,9.112-1.517,10.011,10.011,0,0,0-7.659-1.2C238.865,305.757,235.655,311.034,234.677,316.011Z" transform="translate(-100.143 -161.861)" fill="#c6956a"/>
      <path id="Trazado_1159868" data-name="Trazado 1159868" d="M865.344,304.164a11.872,11.872,0,0,0-9.244,4.453c-.23.276-.435.565-.637.855a18.915,18.915,0,0,1,3.573-2.483c3.706-2.024,7.868-1.571,11.478.409,2.571,1.411,4.447,4.247,5.674,6.933-.053-.183-.1-.368-.162-.549C874.492,309.1,870.625,304.364,865.344,304.164Z" transform="translate(-601.143 -161.91)" fill="#c6956a"/>
      <path id="Trazado_1159869" data-name="Trazado 1159869" d="M432.063,925.909c-2.763-.7-6.438-1.671-8.232-4.082a2.059,2.059,0,0,1,.127-2.771,6.986,6.986,0,0,0-1.448,1.179c-.839.918-.76,2.157.526,3.295a11.085,11.085,0,0,0,3.013,1.762,44.553,44.553,0,0,0,11.925,2.782,146.775,146.775,0,0,0,20.152.887,138.988,138.988,0,0,0,18.714-1.276c3.594-.541,7.429-1.219,10.674-2.945a10.6,10.6,0,0,0,1.433-.9c1.946-1.485,2.507-3.1.213-4.659a18.017,18.017,0,0,0-4.471-2.06,47.658,47.658,0,0,0-5.193-1.385c1.4.564,2.793,1.16,4.146,1.841,2.6,1.307,6.468,3.908,2.553,6.29-3.726,2.267-8.778,2.94-13.021,3.448-4.216.505-8.476.6-12.716.746C451.03,928.4,441.254,928.241,432.063,925.909Z" transform="translate(-251.288 -655.48)" fill="#c6956a"/>
      <path id="Trazado_1159870" data-name="Trazado 1159870" d="M661.731,319.584a59.45,59.45,0,0,0-12.236-5.2,5.156,5.156,0,0,1-2.4,1.413c-.752.165-1.51.3-2.269.438q-.011.614-.022,1.228c2.681-.708,6.4.222,8.721.826a39.924,39.924,0,0,1,8.9,3.7c5.42,2.937,10.523,6.418,16,9.259a18.108,18.108,0,0,0,13.42,1.455c2.077-.639,4.9-2.859,4.517-5.1a3.6,3.6,0,0,1-.19.655,5.6,5.6,0,0,1-2.891,2.853c-7.158,3.415-14.792-.689-20.795-4.569-3.584-2.317-7.041-4.837-10.746-6.964Z" transform="translate(-431.13 -170.165)" fill="#c6956a"/>
      <g id="Grupo_1215602" data-name="Grupo 1215602" transform="translate(115.517 116.961)">
        <path id="Trazado_1159871" data-name="Trazado 1159871" d="M417.936,945.6a119.5,119.5,0,0,0,25.538-2.971c4.772-1.183,9.941-2.808,13.752-6.058,2.868-2.447,4.308-5.071,2.889-7.561-1.065,6.063-7.127,9.339-13.125,11.246-10.64,3.383-22.375,3.806-33.452,3.835-10.283.026-21.187-.722-30.837-4.566-4.125-1.643-8.863-4.712-9.188-9.05a4.593,4.593,0,0,0,.125,4.609,11.959,11.959,0,0,0,3.31,3.207c4.35,2.973,9.663,4.459,14.768,5.493a116.508,116.508,0,0,0,26.22,1.817Z" transform="translate(-327.255 -783.156)" fill="#ff9750"/>
        <path id="Trazado_1159872" data-name="Trazado 1159872" d="M660,895c.047.393.09.786.137,1.18,1.565.116,3.128.25,4.687.431,5.192.6,10.68,1.434,15.435,3.73,1.769.854,4.094,2.26,3.827,4.461,4.885-4.637-12.676-8.3-14.261-8.57-3.227-.551-6.512-.958-9.825-1.232Z" transform="translate(-558.91 -755.706)" fill="#ff9750"/>
        <path id="Trazado_1159873" data-name="Trazado 1159873" d="M414.481,901.7c-1.607,1.248-1.825,2.607-1.185,3.807a2.778,2.778,0,0,1,.127-.965c.8-2.535,4.26-3.823,6.483-4.62,5.476-1.963,11.421-2.67,17.208-3.112.045-.377.088-.754.134-1.131q-3.442.3-6.825.757C425.114,897.155,418.831,898.324,414.481,901.7Z" transform="translate(-359.544 -756.257)" fill="#ff9750"/>
        <path id="Trazado_1159874" data-name="Trazado 1159874" d="M550.184,189.549a7.918,7.918,0,0,1-3.846-2.658c-1.259-1.8-.864-4.951-.668-7.011a46.43,46.43,0,0,1,1.285-6.765q-.562,1.419-1.09,2.85c-1.623,4.41-2.949,9.4-1.531,13.984.5,1.619,1.786,1.984,4.119,2.156q2.922.215,5.855.224,3.46.008,6.914-.276c2.895-.237,3.383-.561,3.852-2.42a17.4,17.4,0,0,0-.21-8.27,9.775,9.775,0,0,1-3.794,7.68C557.969,191.181,553.536,190.765,550.184,189.549Z" transform="translate(-465.08 -173.115)" fill="#ff9750"/>
        <path id="Trazado_1159875" data-name="Trazado 1159875" d="M713.823,676.654c-.473.635-.948,1.269-1.411,1.912a96.294,96.294,0,0,1,10.991-1.861,164.74,164.74,0,0,1,30.468-.308,111.119,111.119,0,0,1,21.882,3.508c-.643-.908-1.3-1.808-1.951-2.709-1.232-.314-2.458-.587-3.632-.843a129.476,129.476,0,0,0-20.685-2.534,152.063,152.063,0,0,0-22.394.375A62.029,62.029,0,0,0,713.823,676.654Z" transform="translate(-601.212 -577.009)" fill="#ff9750"/>
        <path id="Trazado_1159876" data-name="Trazado 1159876" d="M197.042,673.459a128.145,128.145,0,0,0-21.771,1.112c-3.68.508-7.316,1.283-10.939,2.1-1.386.312-2.77.664-4.12,1.108-.478.666-.97,1.323-1.438,1.994a89.524,89.524,0,0,1,10.335-2.228,168.582,168.582,0,0,1,29.885-1.79,113.662,113.662,0,0,1,23.128,2.643q-.779-1.069-1.57-2.128c-1.654-.38-3.324-.693-4.974-.986A131.059,131.059,0,0,0,197.042,673.459Z" transform="translate(-154.403 -576.854)" fill="#ff9750"/>
        <path id="Trazado_1159877" data-name="Trazado 1159877" d="M140.435,776.561c5.139,5.377,12.233,8.284,19.464,9.518a62.878,62.878,0,0,0,14.926.548,64.277,64.277,0,0,0,13.478-2.274c6.462-1.877,12.709-5.19,16.868-10.617a24,24,0,0,0,2.44-3.94A45.122,45.122,0,0,1,188.4,781.965c-9.8,3.065-20.359,2.684-30.356.877a36.333,36.333,0,0,1-21.92-12.412,25.227,25.227,0,0,0,4.311,6.13Z" transform="translate(-136.124 -654.661)" fill="#ff9750"/>
        <path id="Trazado_1159878" data-name="Trazado 1159878" d="M696.573,768.526c4.813,5.255,11.555,8.168,18.39,9.746,9.194,2.121,19.352,2.558,28.567.352,6.876-1.646,13.4-5.016,17.9-10.583a24.712,24.712,0,0,0,3.843-6.711c-7.156,11.359-22.127,16.632-35.275,16.712a57.287,57.287,0,0,1-24.835-5.826,35.535,35.535,0,0,1-12.49-9.5A24.076,24.076,0,0,0,696.573,768.526Z" transform="translate(-585.279 -647.829)" fill="#ff9750"/>
      </g>
      <path id="Trazado_1159879" data-name="Trazado 1159879" d="M578.288,137.428c-2.1-5.428-4.074-5.486-6.3-1.4a29.147,29.147,0,0,0-2.6,6.6c-.592,2.267-.8,4.589.854,6.437,2.291,2.554,8.909,2.958,10.18-.794C581.545,144.937,579.487,140.523,578.288,137.428Z" transform="translate(-369.912 -23.892)" fill="#ffc9a1"/>
      <path id="Trazado_1159880" data-name="Trazado 1159880" d="M735.74,651.536a67.7,67.7,0,0,1,8.209-1.746,150.028,150.028,0,0,1,18.859-1.547c4.182-.1,8.366.01,12.54.277a141.644,141.644,0,0,0-20.56-.943,94.839,94.839,0,0,0-16.59,1.642c-2.42.484-2.715.679-4.308,2.726l-.089.116c.658-.176,1.311-.349,1.94-.526Z" transform="translate(-502.956 -439.032)" fill="#ffc9a1"/>
      <path id="Trazado_1159881" data-name="Trazado 1159881" d="M202.877,648.6q-1.563.079-3.123.183a91.909,91.909,0,0,0-16.046,2.315c-1.945.483-2.607,1.058-4.174,3.136A95.381,95.381,0,0,1,202.877,648.6Z" transform="translate(-55.641 -439.887)" fill="#ffc9a1"/>
      <path id="Trazado_1159882" data-name="Trazado 1159882" d="M156.208,741.436l.015.008a46.236,46.236,0,0,0,12.57,4.016,112.667,112.667,0,0,0,24.968,1.1c9.043-.469,21.9-1.967,28.99-8.922a20.562,20.562,0,0,1-1.86,1.06c-4.607,2.287-9.781,3.369-14.831,4.137a158.076,158.076,0,0,1-23.732,1.619,100.917,100.917,0,0,1-20.737-1.815,43.715,43.715,0,0,1-6.854-1.949C155.232,740.943,155.728,741.2,156.208,741.436Z" transform="translate(-35.629 -511.746)" fill="#ffc9a1"/>
      <path id="Trazado_1159883" data-name="Trazado 1159883" d="M710.6,746.31c8.742,2.194,18.12,2.754,27.1,2.758,9.009,0,23.025-.747,30.682-7.557-.292.177-.58.343-.858.49-4.24,2.25-9.1,3.292-13.811,3.976a127.71,127.71,0,0,1-22.861.96,129.987,129.987,0,0,1-21.87-2.3,38.892,38.892,0,0,1-11.235-3.78C701.136,743.936,706.662,745.322,710.6,746.31Z" transform="translate(-473.859 -514.349)" fill="#ffc9a1"/>
      <path id="Trazado_1159884" data-name="Trazado 1159884" d="M770.24,724.567c-17.863-2.773-36.7-3.289-54.5.554a53.821,53.821,0,0,0,13.115,3.289,155.408,155.408,0,0,0,22.834,1.493,99.619,99.619,0,0,0,19.638-1.631,39.986,39.986,0,0,0,7.7-2.244c-2.925-.6-5.9-1.014-8.787-1.462Z" transform="translate(-488.38 -499.42)" fill="#7a2537"/>
      <path id="Trazado_1159885" data-name="Trazado 1159885" d="M209.343,723.6a39.369,39.369,0,0,0,10.932-3.508c-1.121-.182-2.237-.349-3.323-.532-20.269-3.407-42.224-3.188-62.262,2.29a45.754,45.754,0,0,0,11.935,3.017,125.871,125.871,0,0,0,21.981.839A128.862,128.862,0,0,0,209.343,723.6Z" transform="translate(-35.59 -495.337)" fill="#7a2537"/>
      <path id="Trazado_1159886" data-name="Trazado 1159886" d="M723.789,692.322a109.363,109.363,0,0,0-24.5,2.972q-.711,1.021-1.394,2.06a3.565,3.565,0,0,0-.3.544,161.952,161.952,0,0,1,38.1-3.806c7.625.083,15.24.609,22.829,1.324l2.531.237q-3.791-.935-7.652-1.548A165.943,165.943,0,0,0,723.789,692.322Z" transform="translate(-473.74 -475.134)" fill="#a74153"/>
      <path id="Trazado_1159887" data-name="Trazado 1159887" d="M194.976,692.777a170.785,170.785,0,0,0-26.878.017,109.862,109.862,0,0,0-21.53,3.421q-.876.243-1.747.508-.658.968-1.3,1.946c-.438.666-.628,1.112-.546,1.474a137.662,137.662,0,0,1,40.2-7.457c3.931-.142,7.868-.1,11.8.09Z" transform="translate(-26.122 -475.12)" fill="#a74153"/>
    </g>
  </g>
</svg>
