<svg xmlns="http://www.w3.org/2000/svg" xmlns:xlink="http://www.w3.org/1999/xlink" width="93.934" height="93.934" viewBox="0 0 93.934 93.934">
  <defs>
    <filter id="Trazado_982547" x="0" y="0" width="93.934" height="93.934" filterUnits="userSpaceOnUse">
      <feOffset dy="3" input="SourceAlpha"/>
      <feGaussianBlur stdDeviation="3" result="blur"/>
      <feFlood flood-opacity="0.161"/>
      <feComposite operator="in" in2="blur"/>
      <feComposite in="SourceGraphic"/>
    </filter>
  </defs>
  <g id="Grupo_1215691" data-name="Grupo 1215691" transform="translate(-1031.066 -2969.882)">
    <g id="Grupo_1214675" data-name="Grupo 1214675" transform="translate(-0.229 -2158.118)">
      <g id="Grupo_1214434" data-name="Grupo 1214434" transform="translate(-0.771 -2738.522)">
        <g id="Grupo_1183184" data-name="Grupo 1183184" transform="translate(1 1016.523)">
          <g id="Grupo_1179612" data-name="Grupo 1179612" transform="translate(848 4723.467)">
            <g id="Grupo_1175227" data-name="Grupo 1175227" transform="translate(-5.967 140.533)">
              <g id="Grupo_1167337" data-name="Grupo 1167337" transform="translate(198.033 1992)">
                <g id="Grupo_1166720" data-name="Grupo 1166720">
                  <g id="Grupo_1164305" data-name="Grupo 1164305">
                    <g id="Grupo_1163948" data-name="Grupo 1163948">
                      <g id="Grupo_1158168" data-name="Grupo 1158168">
                        <g id="Grupo_1152576" data-name="Grupo 1152576">
                          <g id="Grupo_1148633" data-name="Grupo 1148633">
                            <g id="Grupo_1148525" data-name="Grupo 1148525">
                              <g transform="matrix(1, 0, 0, 1, -9, -6)" filter="url(#Trazado_982547)">
                                <g id="Trazado_982547-2" data-name="Trazado 982547" transform="translate(9 6)" fill="#eae4dc">
                                  <path d="M 37.966796875 74.43359375 C 33.04315185546875 74.43359375 28.26757431030273 73.46962738037109 23.77274131774902 71.56847381591797 C 19.43047523498535 69.73184967041016 15.53040790557861 67.10224914550781 12.18087482452393 63.75271987915039 C 8.831341743469238 60.4031867980957 6.201741218566895 56.50312042236328 4.365118980407715 52.16086196899414 C 2.463963508605957 47.66601943969727 1.499996900558472 42.89044189453125 1.499996900558472 37.966796875 C 1.499996900558472 33.04315185546875 2.463963508605957 28.26757431030273 4.365118980407715 23.77274131774902 C 6.201741218566895 19.43047523498535 8.831341743469238 15.53040790557861 12.18087482452393 12.18087482452393 C 15.53040790557861 8.831341743469238 19.43047523498535 6.201741218566895 23.77274131774902 4.365118980407715 C 28.26757431030273 2.463963508605957 33.04315185546875 1.499996900558472 37.966796875 1.499996900558472 C 42.89044189453125 1.499996900558472 47.66601943969727 2.463963508605957 52.16086196899414 4.365118980407715 C 56.50312042236328 6.201741218566895 60.4031867980957 8.831341743469238 63.75271987915039 12.18087482452393 C 67.10224914550781 15.53040790557861 69.73184967041016 19.43047523498535 71.56847381591797 23.77274131774902 C 73.46962738037109 28.26757431030273 74.43359375 33.04315185546875 74.43359375 37.966796875 C 74.43359375 42.89044189453125 73.46962738037109 47.66601943969727 71.56847381591797 52.16086196899414 C 69.73184967041016 56.50313186645508 67.10224914550781 60.4031867980957 63.75271987915039 63.75271987915039 C 60.4031867980957 67.10224914550781 56.50313186645508 69.73184967041016 52.16086196899414 71.56847381591797 C 47.66601943969727 73.46962738037109 42.89044189453125 74.43359375 37.966796875 74.43359375 Z" stroke="none"/>
                                  <path d="M 37.966796875 3 C 33.2449836730957 3 28.66600799560547 3.924095153808594 24.35705947875977 5.746635437011719 C 20.19359588623047 7.507637023925781 16.45379638671875 10.02928161621094 13.24153518676758 13.24153518676758 C 10.02927398681641 16.45379638671875 7.507621765136719 20.19359588623047 5.746635437011719 24.35705947875977 C 3.924095153808594 28.66600799560547 3 33.2449836730957 3 37.966796875 C 3 42.6886100769043 3.924095153808594 47.26758575439453 5.746635437011719 51.57653427124023 C 7.507621765136719 55.73999786376953 10.02927398681641 59.47979736328125 13.24153518676758 62.69205856323242 C 16.45379638671875 65.90431976318359 20.19359588623047 68.42597198486328 24.35705947875977 70.18695831298828 C 28.66600799560547 72.00949859619141 33.2449836730957 72.93359375 37.966796875 72.93359375 C 42.6886100769043 72.93359375 47.26758575439453 72.00949859619141 51.57653427124023 70.18695831298828 C 55.73999786376953 68.42597198486328 59.47979736328125 65.90431976318359 62.69205856323242 62.69205856323242 C 65.90431976318359 59.47979736328125 68.42597198486328 55.73999786376953 70.18695831298828 51.57653427124023 C 72.00949859619141 47.26758575439453 72.93359375 42.6886100769043 72.93359375 37.966796875 C 72.93359375 33.2449836730957 72.00949859619141 28.66600799560547 70.18695831298828 24.35705947875977 C 68.42597198486328 20.19359588623047 65.90431976318359 16.45379638671875 62.69205856323242 13.24153518676758 C 59.47979736328125 10.02928161621094 55.73999786376953 7.507637023925781 51.57653427124023 5.746635437011719 C 47.26758575439453 3.924095153808594 42.6886100769043 3 37.966796875 3 M 37.966796875 0 C 58.93528366088867 0 75.93359375 16.99832153320312 75.93359375 37.966796875 C 75.93359375 58.93528366088867 58.93528366088867 75.93359375 37.966796875 75.93359375 C 16.99831008911133 75.93359375 0 58.93528366088867 0 37.966796875 C 0 16.99832153320312 16.99831008911133 0 37.966796875 0 Z" stroke="none" fill="#665b4e"/>
                                </g>
                              </g>
                            </g>
                          </g>
                        </g>
                      </g>
                    </g>
                  </g>
                </g>
              </g>
            </g>
          </g>
        </g>
      </g>
    </g>
    <g id="documento-legal" transform="translate(1056.742 2990.321)">
      <g id="Grupo_1215689" data-name="Grupo 1215689" transform="translate(0.688 0.732)">
        <path id="Trazado_1160169" data-name="Trazado 1160169" d="M386.945,346.831l7.309,5.81a2.723,2.723,0,1,1-3.817,3.826l-5.991-7.637Z" transform="translate(-349.862 -315.702)" fill="#c7865b"/>
        <path id="Trazado_1160170" data-name="Trazado 1160170" d="M389.124,348.563l-2.738,2.737-1.936-2.468,2.5-2Z" transform="translate(-349.865 -315.704)" fill="#bf7d51"/>
        <path id="Trazado_1160171" data-name="Trazado 1160171" d="M7.5,11.211a3.69,3.69,0,0,1,3.711-3.668H27.462a2.8,2.8,0,0,1,1.971.808L39.991,18.809a2.735,2.735,0,0,1,.814,1.944v22.9L39.887,44l.917.39v3.435a3.691,3.691,0,0,1-3.741,3.667l-16.178-.114H11.211A3.69,3.69,0,0,1,7.5,47.709Z" transform="translate(-7.5 -7.543)" fill="#e1ebf0"/>
        <path id="Trazado_1160172" data-name="Trazado 1160172" d="M9.335,11.212v36.5a3.69,3.69,0,0,0,3.711,3.668H11.211A3.69,3.69,0,0,1,7.5,47.71v-36.5a3.69,3.69,0,0,1,3.711-3.668h1.835a3.69,3.69,0,0,0-3.711,3.668Z" transform="translate(-7.5 -7.544)" fill="#d2e4e7"/>
        <path id="Trazado_1160173" data-name="Trazado 1160173" d="M169.89,485.407c-.1.008-.207.012-.312.011L153.4,485.3h1.835Z" transform="translate(-140.014 -441.47)" fill="#b4d2d7"/>
        <path id="Trazado_1160174" data-name="Trazado 1160174" d="M249.6,22.077h-9.429a2.5,2.5,0,0,1-2.509-2.485V10.254a2.754,2.754,0,0,1,.816.559l10.558,10.458A2.727,2.727,0,0,1,249.6,22.077Z" transform="translate(-216.543 -10.005)" fill="#d2e4e7"/>
        <g id="Grupo_1215685" data-name="Grupo 1215685" transform="translate(5.575 11.456)">
          <path id="Trazado_1160175" data-name="Trazado 1160175" d="M79.509,133.78H68.949a.688.688,0,0,1,0-1.376h10.56a.688.688,0,1,1,0,1.376Z" transform="translate(-68.261 -132.404)" fill="#b4d2d7"/>
        </g>
        <g id="Grupo_1215686" data-name="Grupo 1215686" transform="translate(5.575 27.971)">
          <path id="Trazado_1160176" data-name="Trazado 1160176" d="M80.426,313.78H68.949a.688.688,0,0,1,0-1.376H80.426a.688.688,0,1,1,0,1.376Z" transform="translate(-68.261 -312.404)" fill="#b4d2d7"/>
        </g>
        <g id="Grupo_1215687" data-name="Grupo 1215687" transform="translate(5.389 22.466)">
          <path id="Trazado_1160177" data-name="Trazado 1160177" d="M83.07,253.78H66.926a.688.688,0,1,1,0-1.376H83.07a.688.688,0,1,1,0,1.376Z" transform="translate(-66.238 -252.404)" fill="#b4d2d7"/>
        </g>
        <g id="Grupo_1215688" data-name="Grupo 1215688" transform="translate(5.389 33.476)">
          <path id="Trazado_1160178" data-name="Trazado 1160178" d="M80.318,373.78H66.926a.688.688,0,0,1,0-1.376H80.318a.688.688,0,0,1,0,1.376Z" transform="translate(-66.238 -372.404)" fill="#b4d2d7"/>
        </g>
        <path id="Trazado_1160179" data-name="Trazado 1160179" d="M306.894,259.628l-7.027,7.023-3.987-3.069-2.909-3.826,7.046-7.043,4.517,3.618Z" transform="translate(-266.778 -230.22)" fill="#f5de46"/>
        <path id="Trazado_1160180" data-name="Trazado 1160180" d="M0,0H1.946V9.752H0Z" transform="translate(26.186 29.537) rotate(-45)" fill="#f3d332"/>
        <path id="Trazado_1160181" data-name="Trazado 1160181" d="M271.1,334.572h0a1.606,1.606,0,0,1-2.226.249l-7.029-7.028a1.6,1.6,0,0,1,.248-2.224h0a1.6,1.6,0,0,1,2.225-.249l.067.067,6.9,6.895.065.065A1.6,1.6,0,0,1,271.1,334.572Z" transform="translate(-238.195 -295.85)" fill="#c7865b"/>
        <path id="Trazado_1160182" data-name="Trazado 1160182" d="M271.622,334.453a2.049,2.049,0,0,1-.521.855h0a1.606,1.606,0,0,1-2.226.249l-7.029-7.028a1.6,1.6,0,0,1,.248-2.224h0a2.055,2.055,0,0,1,.855-.52,1.346,1.346,0,0,0,.272,1.369l7.029,7.028A1.352,1.352,0,0,0,271.622,334.453Z" transform="translate(-238.195 -296.586)" fill="#bf7d51"/>
        <path id="Trazado_1160183" data-name="Trazado 1160183" d="M374.74,230.668h0a1.592,1.592,0,0,1-2.219.248l-.054-.054-6.878-6.914-.077-.078a1.615,1.615,0,0,1,.248-2.231h0a1.591,1.591,0,0,1,2.218-.249l7.01,7.047A1.613,1.613,0,0,1,374.74,230.668Z" transform="translate(-332.351 -201.454)" fill="#c7865b"/>
        <path id="Trazado_1160184" data-name="Trazado 1160184" d="M375.259,230.535a2.063,2.063,0,0,1-.518.852h0a1.592,1.592,0,0,1-2.219.248l-.054-.054-6.878-6.914-.077-.078a1.615,1.615,0,0,1,.248-2.231h0a2.05,2.05,0,0,1,.858-.524,1.36,1.36,0,0,0,.27,1.379l.077.078,6.878,6.914.054.054A1.337,1.337,0,0,0,375.259,230.535Z" transform="translate(-332.351 -202.173)" fill="#bf7d51"/>
        <path id="Trazado_1160185" data-name="Trazado 1160185" d="M153.154,441.841V440.19a1.835,1.835,0,0,1,1.835-1.835h8.473a1.835,1.835,0,0,1,1.835,1.835v1.651Z" transform="translate(-139.79 -398.828)" fill="#c7865b"/>
        <path id="Trazado_1160186" data-name="Trazado 1160186" d="M165.284,440h-10.07a.184.184,0,0,1-.179-.227,1.836,1.836,0,0,1,1.786-1.415h-1.835A1.836,1.836,0,0,0,153.161,440h0v0s0,.007,0,.01c-.006.059-.009.119-.009.18v1.652h12.143v-1.652A1.908,1.908,0,0,0,165.284,440Z" transform="translate(-139.788 -398.827)" fill="#bf7d51"/>
        <path id="Trazado_1160187" data-name="Trazado 1160187" d="M148.224,474.3H133.265a.459.459,0,0,1-.459-.459v-.752a1.835,1.835,0,0,1,1.835-1.835h12.206a1.835,1.835,0,0,1,1.835,1.835v.752A.459.459,0,0,1,148.224,474.3Z" transform="translate(-121.309 -428.71)" fill="#c7865b"/>
        <path id="Trazado_1160188" data-name="Trazado 1160188" d="M136.48,468.529a1.837,1.837,0,0,0-1.835,1.835v.752a.458.458,0,0,0,.459.459h-1.835a.458.458,0,0,1-.459-.459v-.752a1.835,1.835,0,0,1,1.835-1.835h.031l.841-.275Z" transform="translate(-121.313 -425.984)" fill="#bf7d51"/>
      </g>
      <g id="Grupo_1215690" data-name="Grupo 1215690" transform="translate(0 0.044)">
        <path id="Trazado_1160189" data-name="Trazado 1160189" d="M68.949,133.78h10.56a.688.688,0,1,0,0-1.376H68.949a.688.688,0,1,0,0,1.376Z" transform="translate(-61.998 -120.26)"/>
        <path id="Trazado_1160190" data-name="Trazado 1160190" d="M68.949,312.4a.688.688,0,0,0,0,1.376H80.426a.688.688,0,0,0,0-1.376Z" transform="translate(-61.998 -283.745)"/>
        <path id="Trazado_1160191" data-name="Trazado 1160191" d="M218.736,193.78a.688.688,0,1,0,0-1.376h-7.547a.688.688,0,1,0,0,1.376Z" transform="translate(-191.187 -174.755)"/>
        <path id="Trazado_1160192" data-name="Trazado 1160192" d="M66.926,193.78H76.951a.688.688,0,1,0,0-1.376H66.926a.688.688,0,1,0,0,1.376Z" transform="translate(-60.161 -174.755)"/>
        <path id="Trazado_1160193" data-name="Trazado 1160193" d="M66.926,253.78H83.07a.688.688,0,1,0,0-1.376H66.926a.688.688,0,1,0,0,1.376Z" transform="translate(-60.161 -229.25)"/>
        <path id="Trazado_1160194" data-name="Trazado 1160194" d="M66.926,373.78H80.318a.688.688,0,0,0,0-1.376H66.926a.688.688,0,0,0,0,1.376Z" transform="translate(-60.161 -338.24)"/>
        <path id="Trazado_1160195" data-name="Trazado 1160195" d="M46.968,39.549A3.314,3.314,0,0,0,45.5,37.126L39.519,32.4l1.36-1.359a2,2,0,0,0,.863.193h0a2.613,2.613,0,0,0,1.822-.8l0,0a2.3,2.3,0,0,0,.244-3.2L36.8,20.184a2.122,2.122,0,0,0-2.49-.27V13.941A3.4,3.4,0,0,0,33.3,11.509L22.738,1.051A3.466,3.466,0,0,0,20.283.044H4.4A4.383,4.383,0,0,0,0,4.4V6.951a.688.688,0,0,0,1.376,0V4.4A3.005,3.005,0,0,1,4.4,1.42l16.351.055v8.843a3.189,3.189,0,0,0,3.2,3.173h8.939l.051,8.033a2.188,2.188,0,0,0,.084,1.633l-6.214,6.21a2.422,2.422,0,0,0-2.7.592,2.289,2.289,0,0,0-.253,3.2l7.029,7.028a2.046,2.046,0,0,0,2.056.44,3.1,3.1,0,0,1-.877,2.48,3.01,3.01,0,0,1-2.171.881l-1.409-.01a2.534,2.534,0,0,0-1.6-1.306v-.583a2.526,2.526,0,0,0-2.523-2.523H15.887a2.526,2.526,0,0,0-2.523,2.523v.583a2.533,2.533,0,0,0-1.543,1.2H4.4A3.005,3.005,0,0,1,1.376,40.9V10.16A.688.688,0,1,0,0,10.16V40.9a4.383,4.383,0,0,0,4.4,4.356h7.1v.61a1.148,1.148,0,0,0,1.147,1.147h3.137a.688.688,0,0,0,0-1.376H12.873v-.523a1.148,1.148,0,0,1,1.147-1.147H26.226a1.148,1.148,0,0,1,1.147,1.147v.523H18.992a.688.688,0,0,0,0,1.376H27.6a1.148,1.148,0,0,0,1.147-1.147v-.5l1.164.008a4.393,4.393,0,0,0,3.117-1.281,4.3,4.3,0,0,0,1.284-3.074V39.675a2.341,2.341,0,0,0,.363-2.439L36,35.916l4.719,6c1.692,2.056,3.415,1.85,5.1.323a3.5,3.5,0,0,0,1.146-2.69Zm-31.082,1.4h8.473a1.148,1.148,0,0,1,1.147,1.147v.5H14.74v-.5A1.148,1.148,0,0,1,15.887,40.947ZM34.585,21.4c.36-.331.838-.565,1.243-.248L42.837,28.2c.268.27.152.859-.248,1.261-.37.349-.914.592-1.3.193l-2.6-2.61a.688.688,0,1,0-.976.971l2.113,2.125c-1.822,1.819-4.234,4.232-6.055,6.052l-5.923-5.922L33.925,24.2l1.511,1.519a.688.688,0,1,0,.976-.971l-2-2.009c-.365-.288-.258-.893.172-1.338ZM22.126,10.318V2.382l9.827,9.733H23.947a1.811,1.811,0,0,1-1.821-1.8Zm9.728,28.9-7.029-7.028c-.316-.406-.085-.886.244-1.247.437-.428,1.041-.541,1.324-.186l6.962,6.961c.317.407.083.891-.248,1.251-.4.4-.985.516-1.252.249Zm12.993,2.051a1.8,1.8,0,0,1-3.043-.195l-4.826-6.136,1.56-1.559,6.115,4.834a1.81,1.81,0,0,1,.195,3.056Z" transform="translate(0 -0.044)"/>
      </g>
    </g>
  </g>
</svg>
