<svg xmlns="http://www.w3.org/2000/svg" xmlns:xlink="http://www.w3.org/1999/xlink" width="113" height="113" viewBox="0 0 113 113">
  <defs>
    <filter id="Trazado_982547" x="0" y="0" width="113" height="113" filterUnits="userSpaceOnUse">
      <feOffset dy="3" input="SourceAlpha"/>
      <feGaussianBlur stdDeviation="3" result="blur"/>
      <feFlood flood-opacity="0.161"/>
      <feComposite operator="in" in2="blur"/>
      <feComposite in="SourceGraphic"/>
    </filter>
  </defs>
  <g id="Grupo_1215608" data-name="Grupo 1215608" transform="translate(-1059 -538.501)">
    <g id="Grupo_1214349" data-name="Grupo 1214349" transform="translate(0 -3628.444)">
      <g id="Grupo_1212851" data-name="Grupo 1212851" transform="translate(1068 4172.946)">
        <g id="Grupo_1209935" data-name="Grupo 1209935">
          <g id="Grupo_1208705" data-name="Grupo 1208705">
            <g id="Grupo_1148633" data-name="Grupo 1148633">
              <g id="Grupo_1148525" data-name="Grupo 1148525">
                <g transform="matrix(1, 0, 0, 1, -9, -6)" filter="url(#Trazado_982547)">
                  <g id="Trazado_982547-2" data-name="Trazado 982547" transform="translate(9 6)" fill="#f9e3d4">
                    <path d="M 47.5 93.5 C 41.28937149047852 93.5 35.26533508300781 92.28397369384766 29.59518623352051 89.88570404052734 C 24.11771965026855 87.56893157958984 19.19813346862793 84.25196075439453 14.97309303283691 80.02691650390625 C 10.74804019927979 75.80186462402344 7.431066513061523 70.88229370117188 5.114293098449707 65.40481567382812 C 2.716026782989502 59.73468017578125 1.5 53.71062850952148 1.5 47.5 C 1.5 41.28937149047852 2.716026782989502 35.26533508300781 5.114293098449707 29.59518623352051 C 7.431066513061523 24.11771965026855 10.74804019927979 19.19813346862793 14.97309303283691 14.97309303283691 C 19.19813346862793 10.74804019927979 24.11771965026855 7.431066513061523 29.59518623352051 5.114293098449707 C 35.26533508300781 2.716026782989502 41.28937149047852 1.5 47.5 1.5 C 53.71062850952148 1.5 59.73468017578125 2.716026782989502 65.40481567382812 5.114293098449707 C 70.88229370117188 7.431066513061523 75.80186462402344 10.74804019927979 80.02691650390625 14.97309303283691 C 84.25196075439453 19.19813346862793 87.56893157958984 24.11771965026855 89.88570404052734 29.59518623352051 C 92.28397369384766 35.26533508300781 93.5 41.28937149047852 93.5 47.5 C 93.5 53.71062850952148 92.28397369384766 59.73468017578125 89.88570404052734 65.40481567382812 C 87.56893157958984 70.88229370117188 84.25196075439453 75.80186462402344 80.02691650390625 80.02691650390625 C 75.80186462402344 84.25196075439453 70.88229370117188 87.56893157958984 65.40481567382812 89.88570404052734 C 59.73468017578125 92.28397369384766 53.71062850952148 93.5 47.5 93.5 Z" stroke="none"/>
                    <path d="M 47.5 3 C 41.49121475219727 3 35.66376876831055 4.176155090332031 30.17950439453125 6.495796203613281 C 24.88084411621094 8.736953735351562 20.12152099609375 11.94598388671875 16.03375244140625 16.03375244140625 C 11.94598388671875 20.12152099609375 8.736953735351562 24.88084411621094 6.495796203613281 30.17950439453125 C 4.176155090332031 35.66376876831055 3 41.49121475219727 3 47.5 C 3 53.50878524780273 4.176155090332031 59.33623123168945 6.495796203613281 64.82049560546875 C 8.736953735351562 70.11915588378906 11.94598388671875 74.87847900390625 16.03375244140625 78.96624755859375 C 20.12152099609375 83.05401611328125 24.88084411621094 86.26304626464844 30.17950439453125 88.50419616699219 C 35.66376876831055 90.82384490966797 41.49121475219727 92 47.5 92 C 53.50878524780273 92 59.33623123168945 90.82384490966797 64.82049560546875 88.50419616699219 C 70.11915588378906 86.26304626464844 74.87847900390625 83.05401611328125 78.96624755859375 78.96624755859375 C 83.05401611328125 74.87847900390625 86.26304626464844 70.11915588378906 88.50419616699219 64.82049560546875 C 90.82384490966797 59.33623123168945 92 53.50878524780273 92 47.5 C 92 41.49121475219727 90.82384490966797 35.66376876831055 88.50419616699219 30.17950439453125 C 86.26304626464844 24.88084411621094 83.05401611328125 20.12152099609375 78.96624755859375 16.03375244140625 C 74.87847900390625 11.94598388671875 70.11915588378906 8.736953735351562 64.82049560546875 6.495796203613281 C 59.33623123168945 4.176155090332031 53.50878524780273 3 47.5 3 M 47.5 0 C 73.7335205078125 0 95 21.2664794921875 95 47.5 C 95 73.7335205078125 73.7335205078125 95 47.5 95 C 21.2664794921875 95 0 73.7335205078125 0 47.5 C 0 21.2664794921875 21.2664794921875 0 47.5 0 Z" stroke="none" fill="#eca675"/>
                  </g>
                </g>
              </g>
            </g>
          </g>
        </g>
      </g>
    </g>
    <g id="pueblo" transform="translate(1078.563 565.363)">
      <g id="Grupo_1215606" data-name="Grupo 1215606" transform="translate(1.466 1.453)">
        <path id="Trazado_1159905" data-name="Trazado 1159905" d="M240.682,10.524,223.307,22.107a2.9,2.9,0,1,0,3.212,4.819l15.769-10.512,15.769,10.512a2.9,2.9,0,0,0,3.213-4.819L243.947,10.559A2.9,2.9,0,0,0,240.682,10.524Z" transform="translate(-191.321 -10.037)" fill="#ffc059" fill-rule="evenodd"/>
        <path id="Trazado_1159906" data-name="Trazado 1159906" d="M268.88,54.075,253.111,64.587v9.6l4.054,2.7a2.9,2.9,0,0,1-3.213,4.819V84.7h9.9l.68-.453V71.669h8.688V84.246l.68.453h10.745V64.587Z" transform="translate(-217.913 -47.699)" fill="#ffecd1" fill-rule="evenodd"/>
        <path id="Trazado_1159907" data-name="Trazado 1159907" d="M340.706,175.586h-8.687v12.578l2.738-1.825a2.9,2.9,0,0,1,3.266.035l2.684,1.789Z" transform="translate(-285.395 -151.616)" fill="#c58965" fill-rule="evenodd"/>
        <path id="Trazado_1159908" data-name="Trazado 1159908" d="M45.217,137.63l-13.267-8.845a2.9,2.9,0,0,0-3.266-.035L11.309,140.333a2.9,2.9,0,0,0,3.212,4.819L30.29,134.64l15.769,10.512a2.9,2.9,0,0,0,3.212-4.819Z" transform="translate(-10.019 -111.145)" fill="#ff9256" fill-rule="evenodd"/>
        <path id="Trazado_1159909" data-name="Trazado 1159909" d="M72.651,182.813,56.883,172.3,41.114,182.813v15.993a3.825,3.825,0,0,1,4.711,4.12h6.714V189.895h8.687v13.031H71.81v-2.994a2.9,2.9,0,1,1-3.212-4.819l4.054-2.7v-9.6Z" transform="translate(-36.612 -148.807)" fill="#ffecd1" fill-rule="evenodd"/>
        <rect id="Rect치ngulo_420181" data-name="Rect치ngulo 420181" width="8.687" height="13.031" transform="translate(15.927 41.088)" fill="#c58965"/>
        <path id="Trazado_1159910" data-name="Trazado 1159910" d="M227.36,255.856l-4.054,2.7a2.9,2.9,0,1,0,3.212,4.819l15.769-10.512,15.769,10.512a2.9,2.9,0,1,0,3.212-4.819l-13.957-9.3-.68-.453-2.684-1.789a2.9,2.9,0,0,0-3.266-.035l-2.738,1.825-.68.453Z" transform="translate(-191.321 -212.253)" fill="#ff6977" fill-rule="evenodd"/>
        <path id="Trazado_1159911" data-name="Trazado 1159911" d="M268.881,290.527l-15.769,10.512v20.113h11.425V308.121h8.688v13.031h11.425V301.039Z" transform="translate(-217.914 -249.915)" fill="#ffecd1" fill-rule="evenodd"/>
        <rect id="Rect치ngulo_420182" data-name="Rect치ngulo 420182" width="8.687" height="13.031" transform="translate(46.623 58.206)" fill="#c58965"/>
        <path id="Trazado_1159912" data-name="Trazado 1159912" d="M396.716,265.586l13.957,9.3a2.9,2.9,0,0,1-3.212,4.819v20.113h4.5V265.586H396.716Z" transform="translate(-340.725 -228.585)" fill="#e2f0a1" fill-rule="evenodd"/>
        <path id="Trazado_1159913" data-name="Trazado 1159913" d="M258.926,272.188l9.9-6.6h-9.9Z" transform="translate(-222.886 -228.585)" fill="#e2f0a1" fill-rule="evenodd"/>
        <path id="Trazado_1159914" data-name="Trazado 1159914" d="M45.216,383.812H19.231a3.814,3.814,0,0,1-.408,1.358,3.826,3.826,0,0,1,2.67,3.647H10.018V400.93H34.982a3.413,3.413,0,0,1,2.381-3.253,3.412,3.412,0,0,1,4.6-4.6,3.413,3.413,0,0,1,3.253-2.381v-6.884Z" transform="translate(-10.018 -329.693)" fill="#cbe557" fill-rule="evenodd"/>
        <path id="Trazado_1159915" data-name="Trazado 1159915" d="M18.823,346.961a3.826,3.826,0,0,0-5.158-5.158,3.826,3.826,0,0,0-3.647-2.67v11.475H21.493A3.826,3.826,0,0,0,18.823,346.961Z" transform="translate(-10.018 -291.483)" fill="#aae2c9" fill-rule="evenodd"/>
        <path id="Trazado_1159916" data-name="Trazado 1159916" d="M185.428,434.355a3.413,3.413,0,0,0-.617,3.984,3.413,3.413,0,0,0-2.381,3.253h10.234V431.358a3.412,3.412,0,0,0-3.253,2.381A3.413,3.413,0,0,0,185.428,434.355Z" transform="translate(-157.467 -370.354)" fill="#78d0a9" fill-rule="evenodd"/>
      </g>
      <g id="Grupo_1215607" data-name="Grupo 1215607" transform="translate(0.018 0)">
        <path id="Trazado_1159917" data-name="Trazado 1159917" d="M72.217,46.555,62.239,39.9H72.7a1.448,1.448,0,1,0,0-2.9H69.649V20.272c.05,0,.1.006.149.006a4.388,4.388,0,0,0,.861-.086,4.344,4.344,0,0,0,1.558-7.873L54.907.778A4.319,4.319,0,0,0,50.023.735L46.155,3.314a1.448,1.448,0,1,0,1.606,2.409l3.868-2.579a1.44,1.44,0,0,1,1.634.018l.026.018L70.61,14.728A1.448,1.448,0,1,1,69,17.137L53.236,6.625a1.448,1.448,0,0,0-1.606,0L35.861,17.137a1.448,1.448,0,0,1-1.606-2.409l3.869-2.579a1.448,1.448,0,1,0-1.606-2.409l-3.869,2.579a4.344,4.344,0,0,0,1.558,7.873,4.369,4.369,0,0,0,1.01.082v4.959l-11-7.336a4.318,4.318,0,0,0-4.884-.044l-3.869,2.579a1.448,1.448,0,1,0,1.606,2.409l3.869-2.579a1.44,1.44,0,0,1,1.633.018l.026.018,13.259,8.84,0,0,4.059,2.706a1.448,1.448,0,1,1-1.606,2.409L22.54,23.743a1.448,1.448,0,0,0-1.606,0L5.165,34.255a1.448,1.448,0,0,1-1.606-2.409l3.868-2.579a1.448,1.448,0,0,0-1.606-2.409L1.952,29.437A4.346,4.346,0,0,0,4.371,37.4c.05,0,.1,0,.149-.006V48.624a5.267,5.267,0,0,0-3.054-.969,1.448,1.448,0,1,0,0,2.9A2.368,2.368,0,0,1,3.733,52.21a1.448,1.448,0,0,0,2.048.848,2.4,2.4,0,0,1,.529-.2l.01,0A2.381,2.381,0,0,1,9.243,55.4c0,.014,0,.028-.005.042a2.379,2.379,0,0,1-.252.826,1.448,1.448,0,0,0,.848,2.048A2.37,2.37,0,0,1,11,59.13H1.466a1.448,1.448,0,0,0,0,2.9H12.941a1.448,1.448,0,0,0,1.448-1.448,5.259,5.259,0,0,0-1.374-3.558h22.2v4.207a4.831,4.831,0,0,0-2.534,1.85,4.867,4.867,0,0,0-5.632,5.631,4.84,4.84,0,0,0-2.068,3.982,1.448,1.448,0,1,0,2.9,0,1.956,1.956,0,0,1,1.37-1.872,1.448,1.448,0,0,0,.848-2.048,1.964,1.964,0,0,1,2.648-2.648,1.448,1.448,0,0,0,2.048-.848,1.961,1.961,0,0,1,.424-.734v6.7a1.448,1.448,0,0,0,0,2.9H69.649a1.448,1.448,0,0,0,0-2.9V54.508c.05,0,.1.006.149.006a4.388,4.388,0,0,0,.861-.086,4.344,4.344,0,0,0,1.558-7.873Zm-17.31-11.54a4.319,4.319,0,0,0-4.884-.043l-.486.324V26.871h5.792V35.3ZM38.954,39.9h3.673l-3.673,2.449Zm-.842-12.739V19.117L52.433,9.57l14.321,9.547v17.89H58.224V25.423a1.448,1.448,0,0,0-1.448-1.448H48.089a1.448,1.448,0,0,0-1.448,1.448V37.007H40.907a4.344,4.344,0,0,0,.614-7.57ZM7.416,49.919V36.235l14.321-9.547,14.321,9.547v8.046l-3.41,2.273a4.344,4.344,0,0,0,.615,7.57H27.529V42.541a1.448,1.448,0,0,0-1.448-1.448H17.393a1.448,1.448,0,0,0-1.448,1.448V54.125h-3.9a5.292,5.292,0,0,0-4.63-4.205Zm17.217,4.205H18.841V43.989h5.792Zm30.7,17.118H49.537V61.107h5.792Zm2.9,0V59.66a1.448,1.448,0,0,0-1.448-1.448H48.089a1.448,1.448,0,0,0-1.448,1.448V71.243H38.112V53.353l14.321-9.547,14.321,9.547v17.89ZM71.012,50.972a1.448,1.448,0,0,1-2.008.4L53.236,40.861a1.448,1.448,0,0,0-1.606,0L35.861,51.373h0a1.448,1.448,0,0,1-1.606-2.409l4.056-2.7.009-.006,9.9-6.6,0,0,.675-.45.006,0,2.728-1.819a1.441,1.441,0,0,1,1.634.018l.026.018L55.965,39.2l0,0,.676.451,0,0,13.962,9.308A1.45,1.45,0,0,1,71.012,50.972Z" transform="translate(-0.018 0)"/>
        <path id="Trazado_1159918" data-name="Trazado 1159918" d="M353.466,352.582a1.448,1.448,0,1,0,1.448,1.449h0A1.447,1.447,0,0,0,353.466,352.582Z" transform="translate(-301.051 -301.531)"/>
        <path id="Trazado_1159919" data-name="Trazado 1159919" d="M141.468,237.252a1.448,1.448,0,0,0,1.448-1.448h0a1.448,1.448,0,1,0-1.448,1.449Z" transform="translate(-119.749 -200.423)"/>
        <path id="Trazado_1159920" data-name="Trazado 1159920" d="M353.466,119.026a1.448,1.448,0,0,0,1.448-1.448h0a1.448,1.448,0,1,0-1.448,1.449Z" transform="translate(-301.051 -99.315)"/>
        <path id="Trazado_1159921" data-name="Trazado 1159921" d="M70.37,164.524a1.441,1.441,0,0,0,.8-.243h0a1.447,1.447,0,1,0-.8.244Z" transform="translate(-58.945 -138.225)"/>
        <path id="Trazado_1159922" data-name="Trazado 1159922" d="M282.374,46.292a1.441,1.441,0,0,0,.8-.243h0a1.447,1.447,0,1,0-.8.244Z" transform="translate(-240.252 -37.112)"/>
      </g>
    </g>
  </g>
</svg>
