<svg xmlns="http://www.w3.org/2000/svg" xmlns:xlink="http://www.w3.org/1999/xlink" width="112" height="110" viewBox="0 0 112 110">
  <defs>
    <filter id="Trazado_982547" x="0" y="0" width="110" height="110" filterUnits="userSpaceOnUse">
      <feOffset dy="3" input="SourceAlpha"/>
      <feGaussianBlur stdDeviation="3" result="blur"/>
      <feFlood flood-opacity="0.161"/>
      <feComposite operator="in" in2="blur"/>
      <feComposite in="SourceGraphic"/>
    </filter>
  </defs>
  <g id="Grupo_1215524" data-name="Grupo 1215524" transform="translate(-945 -2342.543)">
    <g id="Grupo_1211419" data-name="Grupo 1211419" transform="translate(954 2348.543)">
      <g id="Grupo_1200150" data-name="Grupo 1200150" transform="translate(0 0)">
        <g id="Grupo_1185951" data-name="Grupo 1185951" transform="translate(0 0)">
          <g id="Grupo_1184083" data-name="Grupo 1184083" transform="translate(0 0)">
            <g id="Grupo_1183743" data-name="Grupo 1183743">
              <g id="Grupo_1181545" data-name="Grupo 1181545">
                <g id="Grupo_1177562" data-name="Grupo 1177562">
                  <g id="Grupo_1173147" data-name="Grupo 1173147" transform="translate(0 0)">
                    <g id="Grupo_1163801" data-name="Grupo 1163801" transform="translate(0 0)">
                      <g id="Grupo_1163014" data-name="Grupo 1163014" transform="translate(0 0)">
                        <g id="Grupo_1157015" data-name="Grupo 1157015">
                          <g id="Grupo_1155792" data-name="Grupo 1155792">
                            <g id="Grupo_1154703" data-name="Grupo 1154703">
                              <g id="Grupo_1150789" data-name="Grupo 1150789">
                                <g id="Grupo_1154212" data-name="Grupo 1154212">
                                  <g id="Grupo_1152583" data-name="Grupo 1152583">
                                    <g id="Grupo_1146973" data-name="Grupo 1146973">
                                      <g id="Grupo_1146954" data-name="Grupo 1146954">
                                        <g transform="matrix(1, 0, 0, 1, -9, -6)" filter="url(#Trazado_982547)">
                                          <g id="Trazado_982547-2" data-name="Trazado 982547" transform="translate(9 6)" fill="#f9e3d4">
                                            <path d="M 46.00000381469727 90.49986267089844 C 39.99188232421875 90.49986267089844 34.16427230834961 89.32350158691406 28.67905807495117 87.00344848632812 C 23.38020324707031 84.76223754882812 18.62104415893555 81.55341339111328 14.53375053405762 77.46613311767578 C 10.44647026062012 73.37885284423828 7.237643718719482 68.61968994140625 4.996417045593262 63.32085037231445 C 2.676363706588745 57.83565139770508 1.500003814697266 52.00805282592773 1.500003814697266 45.99993133544922 C 1.500003814697266 39.99182510375977 2.676363706588745 34.16422653198242 4.996417045593262 28.67901039123535 C 7.237643718719482 23.38017082214355 10.44647026062012 18.62101173400879 14.53375053405762 14.53373146057129 C 18.62104415893555 10.44645118713379 23.38020324707031 7.237624645233154 28.67905807495117 4.996411323547363 C 34.16427230834961 2.676357984542847 39.99188232421875 1.499997973442078 46.00000381469727 1.499997973442078 C 52.00812530517578 1.499997973442078 57.83573532104492 2.676357984542847 63.32094955444336 4.996411323547363 C 68.61980438232422 7.237624645233154 73.37896728515625 10.44645118713379 77.46625518798828 14.53373146057129 C 81.55353546142578 18.62101173400879 84.76236724853516 23.38017082214355 87.00359344482422 28.67901039123535 C 89.32364654541016 34.16422653198242 90.5 39.99182510375977 90.5 45.99993133544922 C 90.5 52.00805282592773 89.32364654541016 57.83565139770508 87.00359344482422 63.32085037231445 C 84.76236724853516 68.61968994140625 81.55353546142578 73.37885284423828 77.46625518798828 77.46613311767578 C 73.37896728515625 81.55341339111328 68.61980438232422 84.76223754882812 63.32094955444336 87.00344848632812 C 57.83573532104492 89.32350158691406 52.00812530517578 90.49986267089844 46.00000381469727 90.49986267089844 Z" stroke="none"/>
                                            <path d="M 46.00000381469727 3 C 40.19371795654297 3 34.56270217895508 4.136505126953125 29.26337432861328 6.377914428710938 C 24.14333343505859 8.54351806640625 19.54441833496094 11.64438629150391 15.59440612792969 15.59439086914062 C 11.64440155029297 19.54440307617188 8.54351806640625 24.14330291748047 6.377914428710938 29.26334381103516 C 4.136505126953125 34.56266021728516 3.000007629394531 40.19366073608398 3.000007629394531 45.99993133544922 C 3.000007629394531 51.80620193481445 4.136505126953125 57.43720245361328 6.377914428710938 62.73651885986328 C 8.54351806640625 67.85655975341797 11.64440155029297 72.45545959472656 15.59440612792969 76.40547180175781 C 19.54441833496094 80.35547637939453 24.14333343505859 83.45634460449219 29.26337432861328 85.6219482421875 C 34.56270217895508 87.86335754394531 40.19371795654297 88.99986267089844 46.00000381469727 88.99986267089844 C 51.80628967285156 88.99986267089844 57.43730545043945 87.86335754394531 62.73661804199219 85.6219482421875 C 67.85667419433594 83.45634460449219 72.45557403564453 80.35547637939453 76.40558624267578 76.40547180175781 C 80.35560607910156 72.45545959472656 83.45647430419922 67.85655975341797 85.62207794189453 62.73651885986328 C 87.86350250244141 57.43720245361328 89 51.80620193481445 89 45.99993133544922 C 89 40.19366073608398 87.86350250244141 34.56266021728516 85.62207794189453 29.26334381103516 C 83.45647430419922 24.14330291748047 80.35560607910156 19.54440307617188 76.40558624267578 15.59439086914062 C 72.45557403564453 11.64438629150391 67.85667419433594 8.54351806640625 62.73661804199219 6.377914428710938 C 57.43730545043945 4.136505126953125 51.80628967285156 3 46.00000381469727 3 M 46.00000381469727 0 C 71.40509033203125 0 92 20.59487152099609 92 45.99993133544922 C 92 71.40499114990234 71.40509033203125 91.99986267089844 46.00000381469727 91.99986267089844 C 20.59490203857422 91.99986267089844 7.62939453125e-06 71.40499114990234 7.62939453125e-06 45.99993133544922 C 7.62939453125e-06 20.59487152099609 20.59490203857422 0 46.00000381469727 0 Z" stroke="none" fill="#eca675"/>
                                          </g>
                                        </g>
                                      </g>
                                    </g>
                                  </g>
                                </g>
                              </g>
                            </g>
                          </g>
                        </g>
                      </g>
                    </g>
                  </g>
                </g>
              </g>
            </g>
          </g>
        </g>
      </g>
    </g>
    <g id="libertad-de-expresion" transform="translate(978.191 2364.998)">
      <g id="Grupo_1215522" data-name="Grupo 1215522" transform="translate(1.659 1.151)">
        <path id="Trazado_1088087" data-name="Trazado 1088087" d="M84.437,82.928a1.042,1.042,0,0,0,.808-.8c.17-.8.306-1.509.408-2.073a1.694,1.694,0,0,0-1.085-1.89l-1.078-.4a1.683,1.683,0,0,1-1.11-1.562c-.025-4.2-1.893-9.431-3.882-11.685l-11.157.724L63.5,79.156l-7.247,20.914,13.186,3.26L72.7,94.515s1.448,2.263,5.631,2.6a1.776,1.776,0,0,0,1.689-.9c.638-1.134,1.488-2.9,1.775-3.3a.971.971,0,0,0-.267-1.387c-4.9-3.041-2.716-7.408,2.906-8.591Z" transform="translate(-48.861 -55.784)" fill="#ffa78f"/>
        <path id="Trazado_1088088" data-name="Trazado 1088088" d="M181.826,82.928a1.042,1.042,0,0,0,.808-.8c.17-.8.306-1.509.408-2.073a1.694,1.694,0,0,0-1.085-1.89l-1.078-.4a1.683,1.683,0,0,1-1.11-1.562c-.025-4.2-1.893-9.431-3.882-11.685l-4.62.3c5.358,12.72,5.252,24.085.471,31.121a9.187,9.187,0,0,0,3.984,1.171,1.776,1.776,0,0,0,1.689-.9c.638-1.134,1.488-2.9,1.775-3.3a.971.971,0,0,0-.267-1.387c-4.9-3.041-2.715-7.408,2.907-8.591Z" transform="translate(-146.25 -55.784)" fill="#f78d7c"/>
        <path id="Trazado_1088089" data-name="Trazado 1088089" d="M57.259,10.239a3.059,3.059,0,0,0-4.287-2.473c-1.171.521-2.331,1.02-3.108,1.351a4.983,4.983,0,0,1-1.953.4h-7.72c-24.69,0-20.413,30.757-9.051,30.757h.844a1.69,1.69,0,0,0,1.672-1.442l.928-6.248,2.78-2.861,3-4.719a9.61,9.61,0,0,1,6.577-4.329c1.02-.164,2.214-.338,3.578-.506,6.551-.806,7.135-6.068,6.735-9.93Z" transform="translate(-19.928 -7.5)" fill="#685e68"/>
        <path id="Trazado_1088090" data-name="Trazado 1088090" d="M208.744,7.767c-.919.409-1.83.8-2.555,1.115,3.273,3.235,3.615,6.716-.142,11.319l.249-.031c6.551-.806,7.135-6.068,6.735-9.93a3.058,3.058,0,0,0-4.287-2.473Z" transform="translate(-175.7 -7.5)" fill="#554e56"/>
        <path id="Trazado_1088091" data-name="Trazado 1088091" d="M86.365,132.035a4.4,4.4,0,0,1-5.178-3.662,4.474,4.474,0,0,1,3.635-5.012,3.554,3.554,0,0,1,4.155,2.827l.238,1.253Z" transform="translate(-69.931 -105.554)" fill="#ffa78f"/>
        <path id="Trazado_1088092" data-name="Trazado 1088092" d="M33.38,293.784l-2.773-3.605-15.214-6.827-3.9,2.855A8.53,8.53,0,0,0,8,293.091v23.381a.766.766,0,0,0,.766.766H34.31a.766.766,0,0,0,.766-.766v-17.7a8.181,8.181,0,0,0-1.7-4.988Z" transform="translate(-7.999 -241.084)" fill="#8795de"/>
        <path id="Trazado_1088093" data-name="Trazado 1088093" d="M66.517,293.784l-2.773-3.605L48.53,283.352l-1.4,1.023,12.934,5.8,2.773,3.605a8.181,8.181,0,0,1,1.7,4.988v18.466h2.911a.766.766,0,0,0,.766-.766v-17.7a8.181,8.181,0,0,0-1.7-4.988Z" transform="translate(-41.136 -241.084)" fill="#6c7fd8"/>
        <path id="Trazado_1088094" data-name="Trazado 1088094" d="M43.331,254.5l16.144,7.4a2.036,2.036,0,0,1,1.184,1.983l-.253,3.89a1.035,1.035,0,0,1-1.412.9l-18.252-7.178a1.391,1.391,0,0,1-.807-1.744l1.515-4.437A1.38,1.38,0,0,1,43.331,254.5Z" transform="translate(-34.978 -216.548)" fill="#e8edf2"/>
        <path id="Trazado_1088095" data-name="Trazado 1088095" d="M152.172,296.373l-2.81-1.288a2.034,2.034,0,0,1,.415,1.368l-.253,5.223a1.024,1.024,0,0,1-.194.538l2.36.928a1.035,1.035,0,0,0,1.412-.9l.253-3.89a2.036,2.036,0,0,0-1.184-1.983Z" transform="translate(-127.675 -251.019)" fill="#d3dee5"/>
        <path id="Trazado_1088096" data-name="Trazado 1088096" d="M302.424,234.1h6.654v11.724h-6.654Z" transform="translate(-257.31 -199.377)" fill="#685e68"/>
        <path id="Trazado_1088097" data-name="Trazado 1088097" d="M276.919,179.785v-6.156a2.3,2.3,0,0,1,2.3-2.3h11.413v10.759H279.22A2.3,2.3,0,0,1,276.919,179.785Z" transform="translate(-235.713 -146.225)" fill="#fe646f"/>
        <path id="Trazado_1088098" data-name="Trazado 1088098" d="M367.783,142.833h-1.361v10.759h1.361a9.266,9.266,0,0,1,6.555,2.717l2.179,2.182a.873.873,0,0,0,1.49-.617V138.551a.873.873,0,0,0-1.49-.617l-2.179,2.182A9.267,9.267,0,0,1,367.783,142.833Z" transform="translate(-311.501 -117.73)" fill="#e8edf2"/>
        <path id="Trazado_1088099" data-name="Trazado 1088099" d="M422.763,137.934l-1.727,1.729v17.1l1.727,1.729a.873.873,0,0,0,1.49-.617V138.551A.873.873,0,0,0,422.763,137.934Z" transform="translate(-357.747 -117.73)" fill="#d3dee5"/>
        <path id="Trazado_1088100" data-name="Trazado 1088100" d="M102.47,279.185H96.1a2.747,2.747,0,0,0-2.747,2.747v5.286a2.691,2.691,0,0,1-.2,1.019l-5.133,12.55a1.434,1.434,0,0,1-1.9.772l-20.733-9.025a5.2,5.2,0,1,0-4.147,9.527L85.685,312.7a5.56,5.56,0,0,0,7.366-2.993l8.084-19.764a.91.91,0,0,1,.842-.565h.494a4.838,4.838,0,0,0,4.838-4.838v-.517A4.838,4.838,0,0,0,102.47,279.185Z" transform="translate(-50.438 -237.555)" fill="#ffa78f"/>
        <path id="Trazado_1088101" data-name="Trazado 1088101" d="M257.584,279.78a4.814,4.814,0,0,1,.858,2.75v.517a4.838,4.838,0,0,1-4.838,4.838h-.494a.91.91,0,0,0-.842.565l-8.812,21.761a5.543,5.543,0,0,1-3.26,3.125,5.56,5.56,0,0,0,7.033-3.125l8.083-19.764a.91.91,0,0,1,.842-.565h.494a4.838,4.838,0,0,0,4.838-4.838v-.517A4.839,4.839,0,0,0,257.584,279.78Z" transform="translate(-204.617 -238.059)" fill="#f78d7c"/>
        <path id="Trazado_1088102" data-name="Trazado 1088102" d="M82.173,371.22l-16.784-7.306a5.2,5.2,0,1,0-4.147,9.527L77.914,380.7Z" transform="translate(-50.438 -308.934)" fill="#685e68"/>
      </g>
      <g id="Grupo_1215523" data-name="Grupo 1215523" transform="translate(0.512 0.002)">
        <path id="Trazado_1088103" data-name="Trazado 1088103" d="M68.065,20.106a2.015,2.015,0,0,0-2.2.439l-2.179,2.182a8.063,8.063,0,0,1-5.742,2.38H45.167a3.455,3.455,0,0,0-3.451,3.451v6.155a3.454,3.454,0,0,0,3.451,3.451h.457v3.86a3.9,3.9,0,0,0-2.2,3.506v5.286a1.536,1.536,0,0,1-.115.583l-5.133,12.55a.284.284,0,0,1-.377.153l-7.915-3.445V58.841a9.384,9.384,0,0,0-1.862-5.591,2.174,2.174,0,0,0,.211-.8l.253-3.89a3.2,3.2,0,0,0-1.852-3.1l-1.687-.773,1.026-2.771L26.1,42a10.155,10.155,0,0,0,4.94,1.622,2.931,2.931,0,0,0,2.785-1.485c.295-.525.633-1.179.932-1.757.28-.542.664-1.284.777-1.444a2.144,2.144,0,0,0,.353-1.658,2.11,2.11,0,0,0-.95-1.372c-1.572-.977-2.334-2.109-2.144-3.188.253-1.439,2.134-2.765,4.684-3.3a2.2,2.2,0,0,0,1.692-1.686c.151-.712.291-1.421.416-2.109a2.839,2.839,0,0,0-1.819-3.171l-1.081-.4a.533.533,0,0,1-.356-.489,22.779,22.779,0,0,0-1.364-7.22c3.911-1.47,5.733-5.135,5.17-10.574a4.209,4.209,0,0,0-5.9-3.4c-1.272.566-2.483,1.085-3.089,1.343a3.833,3.833,0,0,1-1.5.307H21.923c-5.681,0-10.278,1.546-13.663,4.595A1.149,1.149,0,1,0,9.8,8.324c2.95-2.657,7.029-4,12.125-4h7.719a6.12,6.12,0,0,0,2.4-.49c.614-.262,1.837-.786,3.124-1.359a1.91,1.91,0,0,1,2.677,1.541c.548,5.292-1.327,8.128-5.734,8.67-1.258.156-2.476.328-3.619.512a10.765,10.765,0,0,0-7.363,4.846l-.653,1.025a4.755,4.755,0,0,0-.617-.5,4.67,4.67,0,0,0-3.524-.732,5.655,5.655,0,0,0-4.556,6.315,5.512,5.512,0,0,0,2.285,3.7,5.66,5.66,0,0,0,.782.462l-.595,4.011a.546.546,0,0,1-.535.463h-.844c-2.128,0-4.126-1.362-5.625-3.834A18.143,18.143,0,0,1,6.811,12.2,1.149,1.149,0,1,0,4.773,11.14a19.581,19.581,0,0,0-2.08,9.951,19.428,19.428,0,0,0,2.591,9.044,9.568,9.568,0,0,0,6.191,4.807l-1.069,3.086a2.524,2.524,0,0,0-3.36,1.516L5.53,43.982a2.544,2.544,0,0,0-.132.692l-.923.676A9.71,9.71,0,0,0,.512,53.16v23.38a1.918,1.918,0,0,0,1.915,1.915H27.971a1.918,1.918,0,0,0,1.915-1.915V74.495l6.561,2.856a6.709,6.709,0,0,0,8.888-3.612l8.022-19.614h.333a5.994,5.994,0,0,0,5.987-5.987V47.62a6,6,0,0,0-5.1-5.921V38.164h3.364a8.062,8.062,0,0,1,5.742,2.38l2.179,2.181A2.021,2.021,0,0,0,69.314,41.3V34.23a1.149,1.149,0,0,0-2.3,0v6.4l-1.707-1.709a10.346,10.346,0,0,0-7.368-3.054h-.212v-8.46h.212a10.345,10.345,0,0,0,7.368-3.054l1.707-1.709v6.226a1.149,1.149,0,0,0,2.3,0V21.974a2.017,2.017,0,0,0-1.249-1.868ZM44.014,34.713V28.558a1.154,1.154,0,0,1,1.152-1.152H55.43v8.46H45.167a1.154,1.154,0,0,1-1.152-1.152ZM12.922,64.6a4.046,4.046,0,0,1,3.23-7.419l15.717,6.842-3.316,7.381Zm3.6-31.951.563-3.8a5.3,5.3,0,0,0,1.22-.093A1.149,1.149,0,1,0,17.88,26.5,3.256,3.256,0,0,1,14.053,23.8a3.338,3.338,0,0,1,2.714-3.708A2.4,2.4,0,0,1,19.578,22l.238,1.253a1.149,1.149,0,0,0,2.258-.429s-.276-1.432-.3-1.52l1.293-2.031a8.466,8.466,0,0,1,5.789-3.811c2.047-.329,3.236-.453,3.865-.547a20.846,20.846,0,0,1,1.3,6.667,2.841,2.841,0,0,0,1.863,2.632l1.079.4a.544.544,0,0,1,.35.605c-.116.641-.247,1.3-.388,1.969-3.529.76-5.982,2.725-6.406,5.138-.207,1.176-.08,3.429,3.031,5.435-.189.3-.448.8-.846,1.569-.29.561-.619,1.2-.894,1.686a.626.626,0,0,1-.6.321c-3.41-.272-4.655-1.932-4.758-2.077a1.124,1.124,0,0,0-1.079-.533,1.152,1.152,0,0,0-.963.76l-1.571,4.243L12.506,38.986l1.357-3.916a2.859,2.859,0,0,0,2.663-2.416ZM7.7,44.724,9.22,40.287a.225.225,0,0,1,.127-.137.225.225,0,0,1,.187,0l16.144,7.4a.892.892,0,0,1,.516.864l-.242,3.734L7.845,45.027a.241.241,0,0,1-.14-.3ZM27.588,76.157H2.81v-23A7.4,7.4,0,0,1,5.832,47.2l.542-.4A2.545,2.545,0,0,0,7,47.166l18.251,7.178a2.182,2.182,0,0,0,.8.151h.032l.045.058a7.073,7.073,0,0,1,1.458,4.289v.816L17.069,55.078A6.344,6.344,0,1,0,12,66.711l15.583,6.783v2.662ZM57.379,47.62v.517a3.693,3.693,0,0,1-3.689,3.689H53.2a2.051,2.051,0,0,0-1.906,1.279L43.208,72.869a4.411,4.411,0,0,1-5.843,2.375l-6.7-2.918,3.316-7.381,2.907,1.266a2.583,2.583,0,0,0,3.422-1.391l5.133-12.55a3.823,3.823,0,0,0,.286-1.454V45.53a1.6,1.6,0,0,1,1.6-1.6h6.368a3.693,3.693,0,0,1,3.689,3.689Zm-5.1-5.987H47.922v-3.47h4.356Z" transform="translate(-0.512 -0.002)"/>
        <path id="Trazado_1088104" data-name="Trazado 1088104" d="M480.713,198.946H477.65a1.149,1.149,0,0,0,0,2.3h3.063a1.149,1.149,0,0,0,0-2.3Z" transform="translate(-403.566 -168.462)"/>
        <path id="Trazado_1088105" data-name="Trazado 1088105" d="M469.9,160.655a1.144,1.144,0,0,0,.743-.273l2.335-1.983a1.149,1.149,0,0,0-1.488-1.752l-2.335,1.983a1.149,1.149,0,0,0,.745,2.025Z" transform="translate(-397.005 -132.413)"/>
        <path id="Trazado_1088106" data-name="Trazado 1088106" d="M472.98,230.834l-2.335-1.983a1.149,1.149,0,0,0-1.488,1.752l2.335,1.983a1.149,1.149,0,0,0,1.488-1.752Z" transform="translate(-397.005 -193.554)"/>
      </g>
    </g>
  </g>
</svg>
