<svg xmlns="http://www.w3.org/2000/svg" xmlns:xlink="http://www.w3.org/1999/xlink" width="110" height="110" viewBox="0 0 110 110">
  <defs>
    <filter id="Trazado_982547" x="0" y="0" width="110" height="110" filterUnits="userSpaceOnUse">
      <feOffset dy="3" input="SourceAlpha"/>
      <feGaussianBlur stdDeviation="3" result="blur"/>
      <feFlood flood-opacity="0.161"/>
      <feComposite operator="in" in2="blur"/>
      <feComposite in="SourceGraphic"/>
    </filter>
  </defs>
  <g id="Grupo_1215528" data-name="Grupo 1215528" transform="translate(-1260 -2343.543)">
    <g id="Grupo_1211420" data-name="Grupo 1211420" transform="translate(1269 2349.543)">
      <g id="Grupo_1200151" data-name="Grupo 1200151" transform="translate(0 0)">
        <g id="Grupo_1185952" data-name="Grupo 1185952" transform="translate(0 0)">
          <g id="Grupo_1184115" data-name="Grupo 1184115" transform="translate(0 0)">
            <g id="Grupo_1183744" data-name="Grupo 1183744">
              <g id="Grupo_1181546" data-name="Grupo 1181546">
                <g id="Grupo_1177563" data-name="Grupo 1177563">
                  <g id="Grupo_1173148" data-name="Grupo 1173148" transform="translate(0 0)">
                    <g id="Grupo_1163803" data-name="Grupo 1163803" transform="translate(0 0)">
                      <g id="Grupo_1163015" data-name="Grupo 1163015" transform="translate(0 0)">
                        <g id="Grupo_1157017" data-name="Grupo 1157017">
                          <g id="Grupo_1155793" data-name="Grupo 1155793">
                            <g id="Grupo_1154704" data-name="Grupo 1154704">
                              <g id="Grupo_1150790" data-name="Grupo 1150790">
                                <g id="Grupo_1154214" data-name="Grupo 1154214">
                                  <g id="Grupo_1152583" data-name="Grupo 1152583">
                                    <g id="Grupo_1146973" data-name="Grupo 1146973">
                                      <g id="Grupo_1146954" data-name="Grupo 1146954">
                                        <g transform="matrix(1, 0, 0, 1, -9, -6)" filter="url(#Trazado_982547)">
                                          <g id="Trazado_982547-2" data-name="Trazado 982547" transform="translate(9 6)" fill="#f9e3d4">
                                            <path d="M 46.00000381469727 90.49986267089844 C 39.99188232421875 90.49986267089844 34.16427230834961 89.32350158691406 28.67905807495117 87.00344848632812 C 23.38020324707031 84.76223754882812 18.62104415893555 81.55341339111328 14.53375053405762 77.46613311767578 C 10.44647026062012 73.37885284423828 7.237643718719482 68.61968994140625 4.996417045593262 63.32085037231445 C 2.676363706588745 57.83565139770508 1.500003814697266 52.00805282592773 1.500003814697266 45.99993133544922 C 1.500003814697266 39.99182510375977 2.676363706588745 34.16422653198242 4.996417045593262 28.67901039123535 C 7.237643718719482 23.38017082214355 10.44647026062012 18.62101173400879 14.53375053405762 14.53373146057129 C 18.62104415893555 10.44645118713379 23.38020324707031 7.237624645233154 28.67905807495117 4.996411323547363 C 34.16427230834961 2.676357984542847 39.99188232421875 1.499997973442078 46.00000381469727 1.499997973442078 C 52.00812530517578 1.499997973442078 57.83573532104492 2.676357984542847 63.32094955444336 4.996411323547363 C 68.61980438232422 7.237624645233154 73.37896728515625 10.44645118713379 77.46625518798828 14.53373146057129 C 81.55353546142578 18.62101173400879 84.76236724853516 23.38017082214355 87.00359344482422 28.67901039123535 C 89.32364654541016 34.16422653198242 90.5 39.99182510375977 90.5 45.99993133544922 C 90.5 52.00805282592773 89.32364654541016 57.83565139770508 87.00359344482422 63.32085037231445 C 84.76236724853516 68.61968994140625 81.55353546142578 73.37885284423828 77.46625518798828 77.46613311767578 C 73.37896728515625 81.55341339111328 68.61980438232422 84.76223754882812 63.32094955444336 87.00344848632812 C 57.83573532104492 89.32350158691406 52.00812530517578 90.49986267089844 46.00000381469727 90.49986267089844 Z" stroke="none"/>
                                            <path d="M 46.00000381469727 3 C 40.19371795654297 3 34.56270217895508 4.136505126953125 29.26337432861328 6.377914428710938 C 24.14333343505859 8.54351806640625 19.54441833496094 11.64438629150391 15.59440612792969 15.59439086914062 C 11.64440155029297 19.54440307617188 8.54351806640625 24.14330291748047 6.377914428710938 29.26334381103516 C 4.136505126953125 34.56266021728516 3.000007629394531 40.19366073608398 3.000007629394531 45.99993133544922 C 3.000007629394531 51.80620193481445 4.136505126953125 57.43720245361328 6.377914428710938 62.73651885986328 C 8.54351806640625 67.85655975341797 11.64440155029297 72.45545959472656 15.59440612792969 76.40547180175781 C 19.54441833496094 80.35547637939453 24.14333343505859 83.45634460449219 29.26337432861328 85.6219482421875 C 34.56270217895508 87.86335754394531 40.19371795654297 88.99986267089844 46.00000381469727 88.99986267089844 C 51.80628967285156 88.99986267089844 57.43730545043945 87.86335754394531 62.73661804199219 85.6219482421875 C 67.85667419433594 83.45634460449219 72.45557403564453 80.35547637939453 76.40558624267578 76.40547180175781 C 80.35560607910156 72.45545959472656 83.45647430419922 67.85655975341797 85.62207794189453 62.73651885986328 C 87.86350250244141 57.43720245361328 89 51.80620193481445 89 45.99993133544922 C 89 40.19366073608398 87.86350250244141 34.56266021728516 85.62207794189453 29.26334381103516 C 83.45647430419922 24.14330291748047 80.35560607910156 19.54440307617188 76.40558624267578 15.59439086914062 C 72.45557403564453 11.64438629150391 67.85667419433594 8.54351806640625 62.73661804199219 6.377914428710938 C 57.43730545043945 4.136505126953125 51.80628967285156 3 46.00000381469727 3 M 46.00000381469727 0 C 71.40509033203125 0 92 20.59487152099609 92 45.99993133544922 C 92 71.40499114990234 71.40509033203125 91.99986267089844 46.00000381469727 91.99986267089844 C 20.59490203857422 91.99986267089844 7.62939453125e-06 71.40499114990234 7.62939453125e-06 45.99993133544922 C 7.62939453125e-06 20.59487152099609 20.59490203857422 0 46.00000381469727 0 Z" stroke="none" fill="#eca675"/>
                                          </g>
                                        </g>
                                      </g>
                                    </g>
                                  </g>
                                </g>
                              </g>
                            </g>
                          </g>
                        </g>
                      </g>
                    </g>
                  </g>
                </g>
              </g>
            </g>
          </g>
        </g>
      </g>
    </g>
    <g id="teniente" transform="translate(1276.562 2370.038)">
      <g id="Grupo_1215526" data-name="Grupo 1215526" transform="translate(7.719 0.968)">
        <path id="Trazado_1088107" data-name="Trazado 1088107" d="M60.569,39.676H45.087A7.635,7.635,0,0,1,39.28,37h-.3v1.975a12.312,12.312,0,0,0,.277,2.588l.835,3.814a37.048,37.048,0,0,0,1.5,6.033,12.138,12.138,0,0,0,22.476,0,37.049,37.049,0,0,0,1.5-6.033l.836-3.814a12.311,12.311,0,0,0,.277-2.588V37h-.3a7.635,7.635,0,0,1-5.807,2.676Z" transform="translate(-22.108 -17.488)" fill="#f0d0b4"/>
        <path id="Trazado_1088108" data-name="Trazado 1088108" d="M78.02,87.182c-.487-.038-.974-.077-1.458-.13a12.636,12.636,0,0,1-2.18-.4l-10.508,7.8L71.13,97.78Z" transform="translate(-33.224 -39.657)" fill="#424242"/>
        <path id="Trazado_1088109" data-name="Trazado 1088109" d="M69.939,100.449v8.535H8.5v-8.535a12.408,12.408,0,0,1,9.133-11.961A38.531,38.531,0,0,1,25,87.58L31.9,98.2l6.282-2.884.969-.443.969.443L46.4,98.2,53.3,87.6c.708.055,1.411.105,2.109.166a30.619,30.619,0,0,1,5.4.725,12.408,12.408,0,0,1,9.133,11.961Z" transform="translate(-8.5 -40.071)" fill="#5e8569"/>
        <g id="Grupo_1215525" data-name="Grupo 1215525" transform="translate(16.502 47.033)">
          <path id="Trazado_1088110" data-name="Trazado 1088110" d="M52.461,94.487,42,86.721a5.428,5.428,0,0,1-1.729.3c-.65.075-1.306.127-1.963.175l6.892,10.612Z" transform="translate(-38.313 -86.721)" fill="#424242"/>
          <path id="Trazado_1088111" data-name="Trazado 1088111" d="M64.057,99.969v14.114H62.12V99.969a.969.969,0,1,1,1.937,0Z" transform="translate(-48.943 -92.204)" fill="#424242"/>
          <path id="Trazado_1088112" data-name="Trazado 1088112" d="M101.687,110.839v8.1H99.75v-8.1a.969.969,0,0,1,1.937,0Z" transform="translate(-65.744 -97.057)" fill="#424242"/>
        </g>
        <path id="Trazado_1088113" data-name="Trazado 1088113" d="M26.5,116.467h5.722a1.186,1.186,0,0,1,1.185,1.185,1.184,1.184,0,0,0,1.185,1.185h4.336a1.186,1.186,0,0,1,1.185,1.185v.675a1.186,1.186,0,0,1-1.185,1.185H26.5Z" transform="translate(-16.537 -52.969)" fill="#85bc94"/>
        <path id="Trazado_1088114" data-name="Trazado 1088114" d="M108.319,98.207h-7.347a1.661,1.661,0,0,0-1.661,1.661v.069a1.661,1.661,0,0,0,1.661,1.661h1.349a1.661,1.661,0,0,1,1.661,1.661,1.661,1.661,0,0,0,1.661,1.661h4.832A12.337,12.337,0,0,0,108.319,98.207Z" transform="translate(-49.047 -44.816)" fill="#85bc94"/>
        <path id="Trazado_1088115" data-name="Trazado 1088115" d="M64.216,79.011l1.392-.284c-.061-.1-.123-.192-.18-.3A3.731,3.731,0,0,1,65,77.138L64.4,72.391a12.1,12.1,0,0,1-14.391,0L49.4,77.138a3.77,3.77,0,0,1-.625,1.585l1.411.288a35.069,35.069,0,0,0,14.035,0Z" transform="translate(-26.48 -33.29)" fill="#ddb79b"/>
        <path id="Trazado_1088116" data-name="Trazado 1088116" d="M63.917,83.835l-1.392.284a35.069,35.069,0,0,1-14.032,0l-1.411-.288a4.194,4.194,0,0,1-2.1,1.6L55.439,93.2l10.508-7.8A3.653,3.653,0,0,1,63.917,83.835Z" transform="translate(-24.789 -38.398)" fill="#85bc94"/>
        <path id="Trazado_1088117" data-name="Trazado 1088117" d="M9.2,100.879H20.949a1.185,1.185,0,0,0,1.185-1.185v-.675a1.184,1.184,0,0,0-1.185-1.185H16.613a1.186,1.186,0,0,1-1.185-1.185,1.184,1.184,0,0,0-1.185-1.185H12.2a12.384,12.384,0,0,0-3,5.415Z" transform="translate(-8.813 -43.592)" fill="#85bc94"/>
        <path id="Trazado_1088118" data-name="Trazado 1088118" d="M76.316,119.971v-2.7a1.7,1.7,0,0,1,1.7-1.695h.067a1.7,1.7,0,0,0,1.695-1.7,1.7,1.7,0,0,1,1.7-1.695h.069a1.7,1.7,0,0,1,1.695,1.695v6.089Z" transform="translate(-38.779 -51.059)" fill="#85bc94"/>
        <path id="Trazado_1088119" data-name="Trazado 1088119" d="M26.687,110.839v8.1H24.75v-8.1a.969.969,0,0,1,1.937,0Z" transform="translate(-15.756 -50.024)" fill="#424242"/>
        <path id="Trazado_1088120" data-name="Trazado 1088120" d="M35.794,42.54a12.114,12.114,0,0,1-.28-2.589v-.723A3.819,3.819,0,0,0,35,39.19a3.769,3.769,0,1,0,1.625,7.166Z" transform="translate(-18.646 -18.466)" fill="#ddb79b"/>
        <path id="Trazado_1088121" data-name="Trazado 1088121" d="M63.8,48.184H62.718A1.9,1.9,0,0,1,60.84,46l.468-3.444a.969.969,0,0,1,1.92.261l-.47,3.459,1.043-.029a.969.969,0,0,1,0,1.937Z" transform="translate(-31.86 -19.594)" fill="#424242"/>
        <path id="Trazado_1088122" data-name="Trazado 1088122" d="M60.113,60.729a5.742,5.742,0,0,1-4.443-1.852.968.968,0,1,1,1.494-1.231,4.368,4.368,0,0,0,5.9,0,.968.968,0,1,1,1.494,1.231A5.739,5.739,0,0,1,60.113,60.729Z" transform="translate(-29.462 -26.548)" fill="#424242"/>
        <path id="Trazado_1088123" data-name="Trazado 1088123" d="M88.49,39.19a3.487,3.487,0,0,0-.375.028v.735a12.312,12.312,0,0,1-.277,2.588L87,46.355l-.012.055a3.764,3.764,0,1,0,1.5-7.22Z" transform="translate(-43.546 -18.466)" fill="#ddb79b"/>
        <path id="Trazado_1088124" data-name="Trazado 1088124" d="M59.32,36.658H43.838A7.657,7.657,0,0,1,36.181,29h30.8a7.657,7.657,0,0,1-7.658,7.658Z" transform="translate(-20.859 -13.916)" fill="#424242"/>
        <path id="Trazado_1088125" data-name="Trazado 1088125" d="M66.962,13.151l-2.5,3.681h-30.8l-2.5-3.681a3.572,3.572,0,0,1-.136-3.8l1.765-3.04a9.159,9.159,0,0,1,7.922-4.562h16.7A9.159,9.159,0,0,1,65.334,6.31L67.1,9.35a3.571,3.571,0,0,1-.136,3.8Z" transform="translate(-18.341 -1.748)" fill="#5e8569"/>
        <path id="Trazado_1088126" data-name="Trazado 1088126" d="M66.962,13.151l-2.5,3.681h-30.8l-2.5-3.681a3.572,3.572,0,0,1-.136-3.8l1.765-3.04a9.159,9.159,0,0,1,7.922-4.562h16.7A9.159,9.159,0,0,1,65.334,6.31L67.1,9.35a3.571,3.571,0,0,1-.136,3.8Z" transform="translate(-18.341 -1.748)" fill="#5e8569"/>
        <path id="Trazado_1088127" data-name="Trazado 1088127" d="M64.585,12.731l-3.027,2.216-3.027-2.216V8.374h6.054Z" transform="translate(-30.839 -4.706)" fill="#fbb540"/>
      </g>
      <g id="Grupo_1215527" data-name="Grupo 1215527" transform="translate(6.75 0)">
        <path id="Trazado_1088128" data-name="Trazado 1088128" d="M70.114,61.052a13.423,13.423,0,0,0-9.834-12.606,25.369,25.369,0,0,0-4.7-.68c-.289-.023-.58-.046-.868-.072-.494-.043-1-.081-1.5-.121l-.617-.048h0c-.474-.037-.949-.075-1.39-.122l-.423-.055a8.949,8.949,0,0,1-1.592-.3,2.678,2.678,0,0,1-1.515-1.16c-.048-.076-.1-.153-.141-.231a2.764,2.764,0,0,1-.317-.955l-.535-4.179a13.087,13.087,0,0,0,3.908-5.258,25.869,25.869,0,0,0,1.249-4.728c.026-.133.055-.264.081-.4a4.594,4.594,0,0,0,.759.07,4.735,4.735,0,0,0,.712-9.42,8.564,8.564,0,0,0,1.405-4.408l2.353-3.461a4.565,4.565,0,0,0,.172-4.834L55.549,5.044A10.157,10.157,0,0,0,46.79,0h-16.7a10.074,10.074,0,0,0-3.881.775.968.968,0,0,0,.742,1.789,8.158,8.158,0,0,1,3.139-.627h16.7a8.215,8.215,0,0,1,7.085,4.08l1.765,3.04a2.616,2.616,0,0,1-.1,2.768l-2.214,3.258H23.553l-2.214-3.258a2.618,2.618,0,0,1-.1-2.768L23,6.017a.969.969,0,0,0-1.675-.973l-1.766,3.04a4.566,4.566,0,0,0,.173,4.832l2.353,3.46a8.568,8.568,0,0,0,1.393,4.389,4.736,4.736,0,0,0,.592,9.435,4.661,4.661,0,0,0,.892-.092c.028.141.058.277.086.42a25.9,25.9,0,0,0,1.25,4.732,13.08,13.08,0,0,0,3.907,5.258l-.532,4.17a2.817,2.817,0,0,1-.466,1.173,3.24,3.24,0,0,1-1.621,1.229,19.656,19.656,0,0,1-3.437.425q-.568.041-1.136.076a32.111,32.111,0,0,0-6.421.858,13.321,13.321,0,0,0-6.138,3.682,13.556,13.556,0,0,0-3.292,5.92,13.3,13.3,0,0,0-.415,3.3V69.88a.968.968,0,0,0,.969.969H69.158a.968.968,0,0,0,.969-.969V61.346C70.126,61.248,70.116,61.151,70.114,61.052ZM66.8,55.892A11.624,11.624,0,0,1,68.113,60.1h-3.8a.692.692,0,0,1-.692-.692,2.632,2.632,0,0,0-2.629-2.629H59.644a.692.692,0,0,1-.692-.692v-.069a.693.693,0,0,1,.692-.692h6.818c.116.188.229.376.334.569ZM50.828,49.306l-5.561,8.556-5.007-2.294,8.812-6.545a13.554,13.554,0,0,0,1.446.245Zm4.636-23.844a2.8,2.8,0,0,1-2.8,2.8,2.614,2.614,0,0,1-.36-.025,30.387,30.387,0,0,0,.951-5.514,2.8,2.8,0,0,1,2.21,2.738ZM52.8,17.021a6.656,6.656,0,0,1-1.6,3.439,6.738,6.738,0,0,1-5.018,2.28H30.7a6.723,6.723,0,0,1-5.018-2.28,6.656,6.656,0,0,1-1.6-3.439ZM24.075,28.261A2.8,2.8,0,0,1,23.62,22.7a32.025,32.025,0,0,0,.948,5.52,2.716,2.716,0,0,1-.493.045ZM28.1,34.528a24.465,24.465,0,0,1-1.144-4.377c-.1-.505-.2-1.007-.307-1.5L26.2,26.612a20.569,20.569,0,0,1-.631-3.629A8.613,8.613,0,0,0,30.7,24.678h6.368l-.367,2.7a1.9,1.9,0,0,0,1.878,2.182H39.66a.969.969,0,1,0,0-1.937l-1.043.029.4-2.972h7.158a8.878,8.878,0,0,0,5.127-1.694,9.151,9.151,0,0,1-.241,1.851l-.836,3.816-.01.045v.009c-.1.476-.2.959-.3,1.445a24.436,24.436,0,0,1-1.144,4.373,11.141,11.141,0,0,1-3.634,4.721,11.538,11.538,0,0,1-6.707,2.229A11.7,11.7,0,0,1,31.73,39.24,11.133,11.133,0,0,1,28.1,34.528Zm6.9,8.42a13.367,13.367,0,0,0,3.439.463,13.721,13.721,0,0,0,6.432-1.677l.409,3.2a4.437,4.437,0,0,0,.17.765l-.19.039q-.37.075-.742.143a.969.969,0,1,0,.343,1.907c.264-.048.527-.1.788-.152l.789-.161a4.51,4.51,0,0,0,.637.617L43.34,50.867l-4.971,3.692-2.96-2.2L29.7,48.122a5,5,0,0,0,.7-.653l.824.166c.967.2,1.959.358,2.949.476a.969.969,0,1,0,.229-1.924c-.937-.111-1.875-.263-2.79-.45l-.2-.041a4.5,4.5,0,0,0,.183-.761l.409-3.2A13.024,13.024,0,0,0,35,42.948Zm-8.75,6.323a6.572,6.572,0,0,0,1.478-.2l2.416,1.794,6.334,4.7L31.47,57.862l-5.556-8.555ZM9.558,57a11.79,11.79,0,0,1,1.98-3.189h1.611a.216.216,0,0,1,.216.216,2.159,2.159,0,0,0,2.154,2.154h4.337a.216.216,0,0,1,.216.216v.674a.216.216,0,0,1-.216.217H9.446c.037-.1.073-.193.112-.288Zm-.871,4.348a11.334,11.334,0,0,1,.207-2.121H19.854a2.159,2.159,0,0,0,2.153-2.154V56.4a2.159,2.159,0,0,0-2.151-2.153H15.519a.217.217,0,0,1-.218-.221,2.154,2.154,0,0,0-1.661-2.092,11.385,11.385,0,0,1,3.466-1.617,30.15,30.15,0,0,1,6.033-.794l.577-.039L30.3,59.618a.968.968,0,0,0,1.218.353l5.884-2.7V68.911H32.239a2.139,2.139,0,0,0,.022-.216v-.674a2.159,2.159,0,0,0-2.151-2.154H25.773a.217.217,0,0,1-.217-.216A2.159,2.159,0,0,0,23.4,63.5H18.65V61.786a.969.969,0,1,0-1.937,0v7.126H8.687Zm9.963,7.565V65.434H23.4a.216.216,0,0,1,.216.216A2.159,2.159,0,0,0,25.773,67.8H30.11a.217.217,0,0,1,.216.217V68.7a.216.216,0,0,1-.216.216Zm27.573,0v-1.73a.727.727,0,0,1,.727-.726h.067a2.667,2.667,0,0,0,2.663-2.664.727.727,0,0,1,.727-.726h.069a.727.727,0,0,1,.726.726v5.12Zm13.939,0V61.785a.969.969,0,1,0-1.937,0v7.126H53.14v-5.12a2.667,2.667,0,0,0-2.663-2.663h-.069a2.667,2.667,0,0,0-2.664,2.663.727.727,0,0,1-.726.727h-.067a2.667,2.667,0,0,0-2.664,2.663v1.73H39.337V57.276l5.884,2.7a.968.968,0,0,0,1.218-.353L53.013,49.5l.046,0c.5.039.99.076,1.478.119.293.026.587.049.882.073a23.584,23.584,0,0,1,4.351.618,11.385,11.385,0,0,1,5.176,3.074h-5.3a2.632,2.632,0,0,0-2.629,2.629v.069a2.632,2.632,0,0,0,2.629,2.629h1.349a.693.693,0,0,1,.692.692,2.632,2.632,0,0,0,2.629,2.629h3.875v6.873Z" transform="translate(-6.75 0)" fill="#332319"/>
        <path id="Trazado_1088129" data-name="Trazado 1088129" d="M64.335,85.777h.018q.613-.012,1.226-.043a.969.969,0,0,0,.918-1.017.993.993,0,0,0-1.017-.918q-.58.03-1.162.04a.969.969,0,0,0,.017,1.937Z" transform="translate(-32.024 -37.416)" fill="#332319"/>
        <path id="Trazado_1088130" data-name="Trazado 1088130" d="M60.113,60.729a5.739,5.739,0,0,0,4.442-1.85.968.968,0,1,0-1.494-1.231,4.367,4.367,0,0,1-5.9,0,.968.968,0,1,0-1.494,1.231,5.742,5.742,0,0,0,4.442,1.852Z" transform="translate(-28.494 -25.581)" fill="#332319"/>
        <path id="Trazado_1088131" data-name="Trazado 1088131" d="M60.2,14.947a.969.969,0,0,0,1.145,0l3.027-2.214a.969.969,0,0,0,.4-.782V7.593a.969.969,0,0,0-.969-.969H57.75a.968.968,0,0,0-.969.969v4.357a.969.969,0,0,0,.4.781ZM58.718,8.561h4.117v2.9l-2.058,1.507-2.058-1.507Z" transform="translate(-29.089 -2.958)" fill="#332319"/>
      </g>
    </g>
  </g>
</svg>
