<svg xmlns="http://www.w3.org/2000/svg" xmlns:xlink="http://www.w3.org/1999/xlink" width="190" height="162" viewBox="0 0 190 162">
  <defs>
    <clipPath id="clip-path">
      <rect id="Rectángulo_420183" data-name="Rectángulo 420183" width="190" height="162" transform="translate(1230 2350)" fill="#fff" stroke="#707070" stroke-width="1"/>
    </clipPath>
  </defs>
  <g id="Enmascarar_grupo_1153302" data-name="Enmascarar grupo 1153302" transform="translate(-1230 -2350)" clip-path="url(#clip-path)">
    <g id="quechua" transform="translate(1192.628 2375.19)">
      <g id="Grupo_1215653" data-name="Grupo 1215653" transform="translate(87.09 8.767)">
        <path id="Trazado_1159973" data-name="Trazado 1159973" d="M186.556,161.677V124.633H126.922v37.044a11.737,11.737,0,0,1-2.256,6.919l-3.975,5.447a11.02,11.02,0,0,0,8.9,17.516h54.293a11.02,11.02,0,0,0,8.9-17.516l-3.975-5.447A11.735,11.735,0,0,1,186.556,161.677Z" transform="translate(-111.355 -98.881)" fill="#8d9ca8"/>
        <path id="Trazado_1159974" data-name="Trazado 1159974" d="M343.7,174.043l-3.975-5.447a11.737,11.737,0,0,1-2.256-6.919V124.633h-7.5v37.044a11.737,11.737,0,0,0,2.256,6.919l3.975,5.447a11.02,11.02,0,0,1-8.9,17.516h7.5a11.02,11.02,0,0,0,8.9-17.516Z" transform="translate(-262.272 -98.881)" fill="#7a8c98"/>
        <path id="Trazado_1159975" data-name="Trazado 1159975" d="M151.421,176.638h-1.189a7.547,7.547,0,1,1,0-15.095h1.189Z" transform="translate(-128.789 -125.568)" fill="#ffbd86"/>
        <path id="Trazado_1159976" data-name="Trazado 1159976" d="M338.777,176.638h1.189a7.547,7.547,0,1,0,0-15.095h-1.189Z" transform="translate(-270.569 -125.568)" fill="#f6a96c"/>
        <path id="Trazado_1159977" data-name="Trazado 1159977" d="M176.1,291.927l-27.682-6.861a2.345,2.345,0,0,1-1.781-2.276V272.2h-17.4v10.591a2.345,2.345,0,0,1-1.785,2.277L99.5,291.938a9.184,9.184,0,0,0-6.99,8.919v30.5a5.181,5.181,0,0,0,5.181,5.181h80.2a5.181,5.181,0,0,0,5.181-5.181V300.844A9.187,9.187,0,0,0,176.1,291.927Z" transform="translate(-92.515 -205.573)" fill="#ffbd86"/>
        <path id="Trazado_1159978" data-name="Trazado 1159978" d="M304.782,300.847v30.514a5.181,5.181,0,0,1-5.182,5.179h-7.5a5.179,5.179,0,0,0,5.179-5.179V300.847a9.182,9.182,0,0,0-6.974-8.916l-27.683-6.861a2.346,2.346,0,0,1-1.781-2.277V272.2h7.5v10.594a2.349,2.349,0,0,0,1.781,2.277l27.683,6.861A9.185,9.185,0,0,1,304.782,300.847Z" transform="translate(-214.219 -205.576)" fill="#f6a96c"/>
        <path id="Trazado_1159979" data-name="Trazado 1159979" d="M202.71,168.146H191.322a17.094,17.094,0,0,1-17.094-17.094v-16.2l5.166-10.223h34.521l5.888,10.223v16.2A17.094,17.094,0,0,1,202.71,168.146Z" transform="translate(-151.596 -98.881)" fill="#fed2a4"/>
        <path id="Trazado_1159980" data-name="Trazado 1159980" d="M284.494,124.633h-7.5l5.272,9.154a4.616,4.616,0,0,1,.616,2.3v16.07a17.1,17.1,0,0,1-11.037,15.986h1.445a17.094,17.094,0,0,0,17.094-17.094v-16.2Z" transform="translate(-222.175 -98.881)" fill="#ffbd86"/>
        <path id="Trazado_1159981" data-name="Trazado 1159981" d="M210.729,356.821v6.689a16.036,16.036,0,0,1-1.568,6.917l-2.885,6.029H158.961l-2.885-6.029a16.037,16.037,0,0,1-1.568-6.917V329.352l7.914-1.947Z" transform="translate(-137.338 -245.491)" fill="#6c7fd8"/>
        <path id="Trazado_1159982" data-name="Trazado 1159982" d="M169.159,327.405l-5.333,1.312,44.833,27.3a2.751,2.751,0,0,1,1.32,2.349v5.144a16.036,16.036,0,0,1-1.568,6.917l-2.885,6.029h7.487l2.885-6.029a16.037,16.037,0,0,0,1.568-6.917v-6.689Z" transform="translate(-144.075 -245.491)" fill="#4f66d0"/>
        <path id="Trazado_1159983" data-name="Trazado 1159983" d="M148.716,92.9h59.708V83.973a3.226,3.226,0,0,0-3.226-3.226H151.942a3.226,3.226,0,0,0-3.226,3.226V92.9Z" transform="translate(-133.15 -67.15)" fill="#fe76a8"/>
        <path id="Trazado_1159984" data-name="Trazado 1159984" d="M328.751,80.746H319.6a3.226,3.226,0,0,1,3.226,3.226V92.9h9.151V83.972A3.226,3.226,0,0,0,328.751,80.746Z" transform="translate(-256.704 -67.149)" fill="#fe5694"/>
        <g id="Grupo_1215652" data-name="Grupo 1215652" transform="translate(31.884 13.597)">
          <path id="Trazado_1159985" data-name="Trazado 1159985" d="M207.63,80.746h8.509V92.9H207.63Z" transform="translate(-207.63 -80.746)" fill="#bbec6c"/>
          <path id="Trazado_1159986" data-name="Trazado 1159986" d="M273.649,80.746h8.509V92.9h-8.509Z" transform="translate(-255.364 -80.746)" fill="#a2e62e"/>
        </g>
        <path id="Trazado_1159987" data-name="Trazado 1159987" d="M163.672,45.252h51.144a13.6,13.6,0,0,0-13.6-13.6H177.269A13.6,13.6,0,0,0,163.672,45.252Z" transform="translate(-143.964 -31.655)" fill="#8d9ca8"/>
        <path id="Trazado_1159988" data-name="Trazado 1159988" d="M279.656,31.656h-7.5a13.6,13.6,0,0,1,13.6,13.6h7.5A13.6,13.6,0,0,0,279.656,31.656Z" transform="translate(-222.4 -31.656)" fill="#7a8c98"/>
      </g>
      <g id="Grupo_1215654" data-name="Grupo 1215654" transform="translate(85.012 0)">
        <path id="Trazado_1159989" data-name="Trazado 1159989" d="M251.08,174.943a2.077,2.077,0,0,0,2.077-2.077v-7.827a2.077,2.077,0,1,0-4.155,0v7.827A2.077,2.077,0,0,0,251.08,174.943Z" transform="translate(-203.582 -117.825)"/>
        <path id="Trazado_1159990" data-name="Trazado 1159990" d="M177.653,121.412a2.077,2.077,0,0,0,2.077-2.077v-15.3a11.236,11.236,0,0,0-7.374-10.568A13.075,13.075,0,0,0,170.2,82.706l-3.975-5.448a9.6,9.6,0,0,1-1.855-5.694V57.8a9.593,9.593,0,0,0,0-11.026l.072-21.186a5.307,5.307,0,0,0-4.555-5.244A15.694,15.694,0,0,0,144.346,6.69H126.965L129.3,3.242A2.077,2.077,0,1,0,125.859.913L123.05,5.062,120.243.913A2.077,2.077,0,0,0,116.8,3.242l2.369,3.5A15.7,15.7,0,0,0,104.85,20.39a5.311,5.311,0,0,0-4.271,5.2V46.877a9.618,9.618,0,0,0,7.089,15A19.207,19.207,0,0,0,121.73,79.42v6.563a.27.27,0,0,1-.2.26L96.6,92.375a8.994,8.994,0,0,1,1.5-7.22l3.975-5.448a13.729,13.729,0,0,0,2.656-8.143V67.678a2.077,2.077,0,1,0-4.155,0v3.886a9.6,9.6,0,0,1-1.858,5.695l-3.974,5.447a13.174,13.174,0,0,0-2.17,10.709,11.229,11.229,0,0,0-7.566,10.638v30.5a7.266,7.266,0,0,0,7.259,7.257h80.2a7.266,7.266,0,0,0,7.259-7.257v-5.5a2.077,2.077,0,1,0-4.155,0v5.5a3.107,3.107,0,0,1-3.1,3.1H159.326l1.462-3.055a18.221,18.221,0,0,0,1.771-7.813V111.505a2.077,2.077,0,1,0-4.155,0v4.9l-12.774-7.778q7.9-4.33,15.749-13.663l8.8,2.18a7.093,7.093,0,0,1,5.4,6.9v15.3a2.077,2.077,0,0,0,2.077,2.077Zm-10.81-36.257a8.921,8.921,0,0,1,1.5,7.248L143.5,86.247a.273.273,0,0,1-.206-.261V79.42a19.207,19.207,0,0,0,14.062-17.546,9.544,9.544,0,0,0,2.864-.711v10.4a13.725,13.725,0,0,0,2.654,8.143Zm-58.4-42.488a9.569,9.569,0,0,0-3.709.781V36.6h6.776Zm-2.561-18.226h1.763v8h-2.912V25.591A1.15,1.15,0,0,1,105.883,24.442Zm11.014,0v8h-5.1v-8Zm18.286,0v8H129.56v-8Zm18.039,0v8h-5.375v-8Zm4.155,33.247v-10.8a5.471,5.471,0,0,1,0,10.8ZM143.691,32.442h-4.354v-8h4.354v8Zm-18.285,0h-4.354v-8h4.354Zm34.81,4.155v6.82a9.575,9.575,0,0,0-3.716-.751L153,36.6Zm.071-4.155h-2.912v-8h1.762a1.15,1.15,0,0,1,1.149,1.149v6.851ZM120.4,10.845h23.951a11.539,11.539,0,0,1,11.332,9.442H109.064A11.539,11.539,0,0,1,120.4,10.845ZM103.063,52.29a5.479,5.479,0,0,1,4.582-5.4v10.8a5.479,5.479,0,0,1-4.582-5.4Zm8.744,8.937,4.044-1.66,2.01,1.813a2.077,2.077,0,1,0,2.782-3.085l-2.981-2.688a2.078,2.078,0,0,0-2.18-.379L111.8,56.74v-11.5l4.366-8.641h32.043l5.012,8.7V56.74l-3.683-1.512a2.077,2.077,0,0,0-2.18.379l-2.981,2.688a2.077,2.077,0,1,0,2.782,3.085l2.01-1.813,4.044,1.66A15.031,15.031,0,0,1,138.2,75.955H126.816a15.031,15.031,0,0,1-15.009-14.728ZM126.816,80.11c.387-.013,12.33.029,12.318-.024v5.136c-.953,1.033-3.483,3.383-6.764,3.383-3.262,0-5.617-2.331-6.487-3.344V80.086C126.193,80.1,126.5,80.11,126.816,80.11Zm5.119,28.074c-7.923-.081-15.982-4.9-23.988-14.323l3.885-.956,24.41,14.864A20.64,20.64,0,0,1,131.936,108.184Zm-42.77,26.368v-30.5a7.087,7.087,0,0,1,5.41-6.9l7.608-1.871v31.507a18.222,18.222,0,0,0,1.771,7.813l1.462,3.055H92.271A3.107,3.107,0,0,1,89.166,134.553Zm69.238-7.766a14.037,14.037,0,0,1-1.364,6.02l-2.319,4.848h-44.7l-2.319-4.847a14.037,14.037,0,0,1-1.365-6.021V98.327c5.405,5.972,10.911,10.05,16.468,12.205V115.5a2.077,2.077,0,0,0,4.155,0v-3.719a24.9,24.9,0,0,0,3.4.489V120.1a2.077,2.077,0,1,0,4.155,0v-7.878a25.34,25.34,0,0,0,2.822-.438v3.72a2.077,2.077,0,1,0,4.155,0v-4.535l16.913,10.3v5.522Zm-16.953-20.71L117.522,91.506l5-1.229a4.417,4.417,0,0,0,1.682-.82,12.371,12.371,0,0,0,8.17,3.3,13.074,13.074,0,0,0,8.391-3.348,4.429,4.429,0,0,0,1.731.868l14.367,3.56q-7.786,8.82-15.41,12.238Z" transform="translate(-85.012 0)"/>
        <path id="Trazado_1159991" data-name="Trazado 1159991" d="M247,247.675h-4.437a2.077,2.077,0,0,0,0,4.155H247a2.077,2.077,0,1,0,0-4.155Z" transform="translate(-197.427 -179.076)"/>
        <path id="Trazado_1159992" data-name="Trazado 1159992" d="M237.456,222.571a12.5,12.5,0,0,0,2.073.169,16.034,16.034,0,0,0,5.455-1.016,2.115,2.115,0,0,0,1.356-2.444,2.078,2.078,0,0,0-2.739-1.473c-4.433,1.628-6.972.227-7.078.166l-.066-.03a2.08,2.08,0,1,0-1.7,3.8A10.75,10.75,0,0,0,237.456,222.571Z" transform="translate(-192.39 -157.388)"/>
        <circle id="Elipse_14307" data-name="Elipse 14307" cx="2.077" cy="2.077" r="2.077" transform="translate(55.025 49.05)"/>
        <circle id="Elipse_14308" data-name="Elipse 14308" cx="2.077" cy="2.077" r="2.077" transform="translate(35.538 49.05)"/>
      </g>
    </g>
  </g>
</svg>
