<svg xmlns="http://www.w3.org/2000/svg" xmlns:xlink="http://www.w3.org/1999/xlink" width="93.934" height="93.934" viewBox="0 0 93.934 93.934">
  <defs>
    <filter id="Trazado_982547" x="0" y="0" width="93.934" height="93.934" filterUnits="userSpaceOnUse">
      <feOffset dy="3" input="SourceAlpha"/>
      <feGaussianBlur stdDeviation="3" result="blur"/>
      <feFlood flood-opacity="0.161"/>
      <feComposite operator="in" in2="blur"/>
      <feComposite in="SourceGraphic"/>
    </filter>
  </defs>
  <g id="Grupo_1215669" data-name="Grupo 1215669" transform="translate(-191.066 -2817.849)">
    <g id="Grupo_1214670" data-name="Grupo 1214670" transform="translate(-0.229 -2310.151)">
      <g id="Grupo_1214432" data-name="Grupo 1214432" transform="translate(-0.771 -2738.674)">
        <g id="Grupo_1183196" data-name="Grupo 1183196" transform="translate(1 1016.674)">
          <g id="Grupo_1179610" data-name="Grupo 1179610" transform="translate(8 4723.467)">
            <g id="Grupo_1175227" data-name="Grupo 1175227" transform="translate(-5.967 140.533)">
              <g id="Grupo_1167337" data-name="Grupo 1167337" transform="translate(198.033 1992)">
                <g id="Grupo_1166720" data-name="Grupo 1166720">
                  <g id="Grupo_1164305" data-name="Grupo 1164305">
                    <g id="Grupo_1163948" data-name="Grupo 1163948">
                      <g id="Grupo_1158168" data-name="Grupo 1158168">
                        <g id="Grupo_1152576" data-name="Grupo 1152576">
                          <g id="Grupo_1148633" data-name="Grupo 1148633">
                            <g id="Grupo_1148525" data-name="Grupo 1148525">
                              <g transform="matrix(1, 0, 0, 1, -9, -6)" filter="url(#Trazado_982547)">
                                <g id="Trazado_982547-2" data-name="Trazado 982547" transform="translate(9 6)" fill="#eae4dc">
                                  <path d="M 37.966796875 74.43359375 C 33.04315185546875 74.43359375 28.26757431030273 73.46962738037109 23.77274131774902 71.56847381591797 C 19.43047523498535 69.73184967041016 15.53040790557861 67.10224914550781 12.18087482452393 63.75271987915039 C 8.831341743469238 60.4031867980957 6.201741218566895 56.50312042236328 4.365118980407715 52.16086196899414 C 2.463963508605957 47.66601943969727 1.499996900558472 42.89044189453125 1.499996900558472 37.966796875 C 1.499996900558472 33.04315185546875 2.463963508605957 28.26757431030273 4.365118980407715 23.77274131774902 C 6.201741218566895 19.43047523498535 8.831341743469238 15.53040790557861 12.18087482452393 12.18087482452393 C 15.53040790557861 8.831341743469238 19.43047523498535 6.201741218566895 23.77274131774902 4.365118980407715 C 28.26757431030273 2.463963508605957 33.04315185546875 1.499996900558472 37.966796875 1.499996900558472 C 42.89044189453125 1.499996900558472 47.66601943969727 2.463963508605957 52.16086196899414 4.365118980407715 C 56.50312042236328 6.201741218566895 60.4031867980957 8.831341743469238 63.75271987915039 12.18087482452393 C 67.10224914550781 15.53040790557861 69.73184967041016 19.43047523498535 71.56847381591797 23.77274131774902 C 73.46962738037109 28.26757431030273 74.43359375 33.04315185546875 74.43359375 37.966796875 C 74.43359375 42.89044189453125 73.46962738037109 47.66601943969727 71.56847381591797 52.16086196899414 C 69.73184967041016 56.50313186645508 67.10224914550781 60.4031867980957 63.75271987915039 63.75271987915039 C 60.4031867980957 67.10224914550781 56.50313186645508 69.73184967041016 52.16086196899414 71.56847381591797 C 47.66601943969727 73.46962738037109 42.89044189453125 74.43359375 37.966796875 74.43359375 Z" stroke="none"/>
                                  <path d="M 37.966796875 3 C 33.2449836730957 3 28.66600799560547 3.924095153808594 24.35705947875977 5.746635437011719 C 20.19359588623047 7.507637023925781 16.45379638671875 10.02928161621094 13.24153518676758 13.24153518676758 C 10.02927398681641 16.45379638671875 7.507621765136719 20.19359588623047 5.746635437011719 24.35705947875977 C 3.924095153808594 28.66600799560547 3 33.2449836730957 3 37.966796875 C 3 42.6886100769043 3.924095153808594 47.26758575439453 5.746635437011719 51.57653427124023 C 7.507621765136719 55.73999786376953 10.02927398681641 59.47979736328125 13.24153518676758 62.69205856323242 C 16.45379638671875 65.90431976318359 20.19359588623047 68.42597198486328 24.35705947875977 70.18695831298828 C 28.66600799560547 72.00949859619141 33.2449836730957 72.93359375 37.966796875 72.93359375 C 42.6886100769043 72.93359375 47.26758575439453 72.00949859619141 51.57653427124023 70.18695831298828 C 55.73999786376953 68.42597198486328 59.47979736328125 65.90431976318359 62.69205856323242 62.69205856323242 C 65.90431976318359 59.47979736328125 68.42597198486328 55.73999786376953 70.18695831298828 51.57653427124023 C 72.00949859619141 47.26758575439453 72.93359375 42.6886100769043 72.93359375 37.966796875 C 72.93359375 33.2449836730957 72.00949859619141 28.66600799560547 70.18695831298828 24.35705947875977 C 68.42597198486328 20.19359588623047 65.90431976318359 16.45379638671875 62.69205856323242 13.24153518676758 C 59.47979736328125 10.02928161621094 55.73999786376953 7.507637023925781 51.57653427124023 5.746635437011719 C 47.26758575439453 3.924095153808594 42.6886100769043 3 37.966796875 3 M 37.966796875 0 C 58.93528366088867 0 75.93359375 16.99832153320312 75.93359375 37.966796875 C 75.93359375 58.93528366088867 58.93528366088867 75.93359375 37.966796875 75.93359375 C 16.99831008911133 75.93359375 0 58.93528366088867 0 37.966796875 C 0 16.99832153320312 16.99831008911133 0 37.966796875 0 Z" stroke="none" fill="#665b4e"/>
                                </g>
                              </g>
                            </g>
                          </g>
                        </g>
                      </g>
                    </g>
                  </g>
                </g>
              </g>
            </g>
          </g>
        </g>
      </g>
    </g>
    <g id="despacho-de-abogados" transform="translate(199.133 2821.572)">
      <g id="Grupo_1215667" data-name="Grupo 1215667" transform="translate(16.649 16.661)">
        <g id="Grupo_1215655" data-name="Grupo 1215655" transform="translate(0 0)">
          <path id="Trazado_1159993" data-name="Trazado 1159993" d="M25.232,460.02h41.53a1.391,1.391,0,0,1,1.387,1.387v1.387h-44.3v-1.387a1.391,1.391,0,0,1,1.387-1.387Z" transform="translate(-23.745 -418.313)" fill="#a36b4c" fill-rule="evenodd"/>
          <path id="Trazado_1159994" data-name="Trazado 1159994" d="M37.985,460.02H78.3a1.391,1.391,0,0,1,1.387,1.387v1.387H36.6v-1.387a1.391,1.391,0,0,1,1.387-1.387Z" transform="translate(-35.282 -418.313)" fill="#b17852" fill-rule="evenodd"/>
          <path id="Trazado_1159995" data-name="Trazado 1159995" d="M23.08,35.037H67.026a.279.279,0,0,0,.278-.278v-2.6a.273.273,0,0,0-.173-.258L45.158,22.936a.269.269,0,0,0-.21,0L22.975,31.9a.273.273,0,0,0-.173.258v2.6a.279.279,0,0,0,.278.278Z" transform="translate(-22.802 -22.915)" fill="#a7733e" fill-rule="evenodd"/>
          <path id="Trazado_1159996" data-name="Trazado 1159996" d="M46.4,39.138H88.121a.279.279,0,0,0,.278-.278v-2.6a.274.274,0,0,0-.173-.258L67.261,27.449,46.295,36.006a.273.273,0,0,0-.173.258v2.6a.279.279,0,0,0,.278.278Z" transform="translate(-43.897 -27.016)" fill="#b4813a" fill-rule="evenodd"/>
        </g>
        <g id="Grupo_1215660" data-name="Grupo 1215660" transform="translate(2.15 12.122)">
          <g id="Grupo_1215657" data-name="Grupo 1215657" transform="translate(34.501)">
            <path id="Trazado_1159997" data-name="Trazado 1159997" d="M422.336,180.179h2.758V204h-2.758Z" transform="translate(-420.865 -177.295)" fill="#b4813a"/>
            <g id="Grupo_1215656" data-name="Grupo 1215656">
              <path id="Trazado_1159998" data-name="Trazado 1159998" d="M406.917,149.954h5.7v2.884h-5.7Z" transform="translate(-406.917 -149.954)" fill="#b17852"/>
              <path id="Trazado_1159999" data-name="Trazado 1159999" d="M406.917,429.8h5.7v2.884h-5.7Z" transform="translate(-406.917 -403.094)" fill="#b17852"/>
            </g>
          </g>
          <g id="Grupo_1215659" data-name="Grupo 1215659">
            <path id="Trazado_1160000" data-name="Trazado 1160000" d="M60.755,180.179h2.758V204H60.755Z" transform="translate(-59.284 -177.295)" fill="#b4813a"/>
            <g id="Grupo_1215658" data-name="Grupo 1215658">
              <path id="Trazado_1160001" data-name="Trazado 1160001" d="M45.336,149.954h5.7v2.884h-5.7Z" transform="translate(-45.336 -149.954)" fill="#b17852"/>
              <path id="Trazado_1160002" data-name="Trazado 1160002" d="M45.336,429.8h5.7v2.884h-5.7Z" transform="translate(-45.336 -403.094)" fill="#b17852"/>
            </g>
          </g>
        </g>
        <g id="Grupo_1215662" data-name="Grupo 1215662" transform="translate(2.15 12.122)">
          <path id="Trazado_1160003" data-name="Trazado 1160003" d="M60.755,180.179h.975V204h-.975Z" transform="translate(-59.284 -177.295)" fill="#a7733e"/>
          <g id="Grupo_1215661" data-name="Grupo 1215661">
            <path id="Trazado_1160004" data-name="Trazado 1160004" d="M45.336,149.956h.952v2.884h-.952Z" transform="translate(-45.336 -149.956)" fill="#a46b4d"/>
            <path id="Trazado_1160005" data-name="Trazado 1160005" d="M45.336,429.795h.952v2.884h-.952Z" transform="translate(-45.336 -403.093)" fill="#a46b4d"/>
          </g>
        </g>
        <rect id="Rect치ngulo_420184" data-name="Rect치ngulo 420184" width="24.976" height="2.215" rx="1.108" transform="translate(9.763 19.631)" fill="#a7733e"/>
        <path id="Trazado_1160006" data-name="Trazado 1160006" d="M150.33,234.618a1.112,1.112,0,0,1-1.08.864H126.488a.886.886,0,1,1,0-1.728h22.761A1.112,1.112,0,0,1,150.33,234.618Z" transform="translate(-115.618 -213.636)" fill="#b4813a" fill-rule="evenodd"/>
        <path id="Trazado_1160007" data-name="Trazado 1160007" d="M245.5,180.468a1.108,1.108,0,0,1,1.108,1.108v24.459a1.108,1.108,0,1,1-2.215,0V181.576a1.108,1.108,0,0,1,1.108-1.107Z" transform="translate(-223.248 -165.435)" fill="#b4813a"/>
        <path id="Trazado_1160008" data-name="Trazado 1160008" d="M244.473,207.345a1.1,1.1,0,0,1-.081-.414V182.472a1.112,1.112,0,0,1,.661-1.013v25.886h-.58Z" transform="translate(-223.248 -166.331)" fill="#a7733e" fill-rule="evenodd"/>
        <g id="Grupo_1215663" data-name="Grupo 1215663" transform="translate(28.41 22.405)">
          <path id="Trazado_1160009" data-name="Trazado 1160009" d="M327.489,355.178a3.472,3.472,0,1,1-6.943,0Z" transform="translate(-320.546 -345.88)" fill="#aa763d" fill-rule="evenodd"/>
          <path id="Trazado_1160010" data-name="Trazado 1160010" d="M335.07,355.178a3.093,3.093,0,1,1-6.144,0Z" transform="translate(-328.126 -345.88)" fill="#b4813a" fill-rule="evenodd"/>
          <path id="Trazado_1160011" data-name="Trazado 1160011" d="M323.755,257.915l-3.209,9.113h6.944l-3.21-9.113a.278.278,0,0,0-.525,0Z" transform="translate(-320.546 -257.729)" fill="#c79736" fill-rule="evenodd"/>
          <path id="Trazado_1160012" data-name="Trazado 1160012" d="M328.927,272.489h6.144L332,263.767Z" transform="translate(-328.127 -263.191)" fill="#cd9e34" fill-rule="evenodd"/>
        </g>
        <path id="Trazado_1160013" data-name="Trazado 1160013" d="M198.013,430.955h8.557a1.391,1.391,0,0,1,1.387,1.387v1.387H196.626v-1.387a1.391,1.391,0,0,1,1.387-1.387Z" transform="translate(-180.04 -392.021)" fill="#b17852" fill-rule="evenodd"/>
        <path id="Trazado_1160014" data-name="Trazado 1160014" d="M196.627,452.754h11.33v.693h-11.33Z" transform="translate(-180.041 -411.74)" fill="#a36b4c"/>
        <circle id="Elipse_14309" data-name="Elipse 14309" cx="2.878" cy="2.878" r="2.878" transform="translate(19.24 18.277) rotate(-2.579)" fill="#eac165"/>
        <rect id="Rect치ngulo_420185" data-name="Rect치ngulo 420185" width="15.295" height="2.527" rx="1.263" transform="translate(14.925 6.385)" fill="#eac165"/>
        <g id="Grupo_1215664" data-name="Grupo 1215664" transform="translate(9.149 22.405)">
          <path id="Trazado_1160015" data-name="Trazado 1160015" d="M125.628,355.178a3.472,3.472,0,0,1-6.944,0Z" transform="translate(-118.684 -345.88)" fill="#aa763d" fill-rule="evenodd"/>
          <path id="Trazado_1160016" data-name="Trazado 1160016" d="M133.208,355.178a3.093,3.093,0,1,1-6.144,0Z" transform="translate(-126.264 -345.88)" fill="#b4813a" fill-rule="evenodd"/>
          <path id="Trazado_1160017" data-name="Trazado 1160017" d="M121.893,257.915l-3.209,9.113h6.944l-3.209-9.113a.278.278,0,0,0-.525,0Z" transform="translate(-118.684 -257.729)" fill="#c79736" fill-rule="evenodd"/>
          <path id="Trazado_1160018" data-name="Trazado 1160018" d="M127.065,272.489h6.144l-3.072-8.722Z" transform="translate(-126.265 -263.191)" fill="#cd9e34" fill-rule="evenodd"/>
        </g>
        <g id="Grupo_1215666" data-name="Grupo 1215666" transform="translate(36.651 12.122)">
          <path id="Trazado_1160019" data-name="Trazado 1160019" d="M422.336,180.179h.975V204h-.975Z" transform="translate(-420.865 -177.295)" fill="#a7733e"/>
          <g id="Grupo_1215665" data-name="Grupo 1215665" transform="translate(0)">
            <path id="Trazado_1160020" data-name="Trazado 1160020" d="M406.917,149.956h.952v2.884h-.952Z" transform="translate(-406.917 -149.956)" fill="#a46b4d"/>
            <path id="Trazado_1160021" data-name="Trazado 1160021" d="M406.917,429.795h.952v2.884h-.952Z" transform="translate(-406.917 -403.093)" fill="#a46b4d"/>
          </g>
        </g>
      </g>
      <g id="Grupo_1215668" data-name="Grupo 1215668" transform="translate(16 16.002)">
        <path id="Trazado_1160022" data-name="Trazado 1160022" d="M18.337,456.1h43v-.738a.738.738,0,0,0-.737-.738H19.075a.739.739,0,0,0-.738.738v.738Zm43.654,1.3h-44.3a.65.65,0,0,1-.649-.649v-1.387a2.038,2.038,0,0,1,2.036-2.036H60.6a2.038,2.038,0,0,1,2.035,2.036v1.387a.649.649,0,0,1-.649.649Z" transform="translate(-16.94 -411.595)" fill-rule="evenodd"/>
        <path id="Trazado_1160023" data-name="Trazado 1160023" d="M17.3,28.144H60.5V26.169L38.9,17.351,17.3,26.169v1.976Zm43.853,1.3h-44.5A.648.648,0,0,1,16,28.793V25.732a.65.65,0,0,1,.4-.6L38.654,16.05a.652.652,0,0,1,.49,0L61.4,25.131a.649.649,0,0,1,.4.6v3.061a.649.649,0,0,1-.649.649Z" transform="translate(-16 -16.002)" fill-rule="evenodd"/>
        <path id="Trazado_1160024" data-name="Trazado 1160024" d="M416.184,198.27a.649.649,0,0,1-.649-.649V173.951a.649.649,0,0,1,1.3,0v23.671a.65.65,0,0,1-.649.649Zm2.758,0a.649.649,0,0,1-.649-.649V173.951a.649.649,0,1,1,1.3,0v23.671a.649.649,0,0,1-.649.649Z" transform="translate(-377.412 -158.293)" fill-rule="evenodd"/>
        <path id="Trazado_1160025" data-name="Trazado 1160025" d="M406.465,425.539a.649.649,0,0,1-.649-.649v-2.217h-4.4v2.217a.649.649,0,0,1-1.3,0v-2.866a.649.649,0,0,1,.649-.649h5.7a.649.649,0,0,1,.649.649v2.866A.649.649,0,0,1,406.465,425.539Z" transform="translate(-363.464 -382.695)" fill-rule="evenodd"/>
        <path id="Trazado_1160026" data-name="Trazado 1160026" d="M54.6,198.27a.649.649,0,0,1-.649-.649V173.951a.649.649,0,0,1,1.3,0v23.671a.65.65,0,0,1-.649.649Zm2.758,0a.649.649,0,0,1-.649-.649V173.951a.649.649,0,1,1,1.3,0v23.671A.649.649,0,0,1,57.359,198.27Z" transform="translate(-50.331 -158.293)" fill-rule="evenodd"/>
        <path id="Trazado_1160027" data-name="Trazado 1160027" d="M44.883,425.539a.649.649,0,0,1-.649-.649v-2.217h-4.4v2.217a.649.649,0,0,1-1.3,0v-2.866a.649.649,0,0,1,.649-.649h5.7a.649.649,0,0,1,.649.649v2.866A.649.649,0,0,1,44.883,425.539Z" transform="translate(-36.383 -382.695)" fill-rule="evenodd"/>
        <path id="Trazado_1160028" data-name="Trazado 1160028" d="M128.7,225.475h-8.624a1.756,1.756,0,1,1,0-3.513h8.856a.649.649,0,0,1,0,1.3h-8.856a.458.458,0,1,0,0,.917H128.7a.649.649,0,0,1,0,1.3Zm14.137,0h-8.625a.649.649,0,1,1,0-1.3h8.625a.458.458,0,0,0,0-.917h-8.856a.649.649,0,1,1,0-1.3h8.856a1.756,1.756,0,0,1,0,3.513Z" transform="translate(-108.552 -202.31)" fill-rule="evenodd"/>
        <path id="Trazado_1160029" data-name="Trazado 1160029" d="M238.236,178.4a.65.65,0,0,1-.649-.649v-2.216a1.756,1.756,0,1,1,3.513,0v2.216a.649.649,0,1,1-1.3,0v-2.216a.459.459,0,1,0-.917,0v2.216a.649.649,0,0,1-.649.649Zm0,20.577a.649.649,0,0,1-.649-.649V183.065a.649.649,0,1,1,1.3,0v15.262a.648.648,0,0,1-.649.649Zm2.215,0a.649.649,0,0,1-.649-.649V183.065a.649.649,0,1,1,1.3,0v15.262a.648.648,0,0,1-.649.649Z" transform="translate(-216.444 -158.723)" fill-rule="evenodd"/>
        <path id="Trazado_1160030" data-name="Trazado 1160030" d="M116,353.252a4.125,4.125,0,0,1-4.12-4.121.649.649,0,0,1,1.3,0,2.823,2.823,0,1,0,5.645,0,.649.649,0,0,1,1.3,0A4.126,4.126,0,0,1,116,353.252Z" transform="translate(-102.734 -316.758)" fill-rule="evenodd"/>
        <path id="Trazado_1160031" data-name="Trazado 1160031" d="M113.444,255.034h1.906v-5.412Zm2.555,1.3h-3.471a.648.648,0,0,1-.613-.864l3.472-9.857a.649.649,0,0,1,1.261.215v9.857a.649.649,0,0,1-.649.649Z" transform="translate(-102.73 -223.31)" fill-rule="evenodd"/>
        <path id="Trazado_1160032" data-name="Trazado 1160032" d="M152.383,256.332h-3.472a.649.649,0,0,1,0-1.3h2.555l-3.167-8.992a.649.649,0,1,1,1.225-.431L153,255.468a.649.649,0,0,1-.612.864Z" transform="translate(-135.642 -223.31)" fill-rule="evenodd"/>
        <path id="Trazado_1160033" data-name="Trazado 1160033" d="M317.864,353.252a4.126,4.126,0,0,1-4.12-4.121.649.649,0,0,1,1.3,0,2.823,2.823,0,1,0,5.645,0,.649.649,0,1,1,1.3,0,4.126,4.126,0,0,1-4.121,4.121Z" transform="translate(-285.334 -316.758)" fill-rule="evenodd"/>
        <path id="Trazado_1160034" data-name="Trazado 1160034" d="M315.305,255.034h1.906v-5.412Zm2.555,1.3h-3.471a.648.648,0,0,1-.613-.864l3.472-9.857a.649.649,0,0,1,1.261.215v9.857a.649.649,0,0,1-.649.649Z" transform="translate(-285.33 -223.31)" fill-rule="evenodd"/>
        <path id="Trazado_1160035" data-name="Trazado 1160035" d="M354.245,256.332h-3.472a.649.649,0,1,1,0-1.3h2.555l-3.167-8.992a.649.649,0,1,1,1.225-.431l3.471,9.857a.648.648,0,0,1-.612.864Z" transform="translate(-318.243 -223.31)" fill-rule="evenodd"/>
        <path id="Trazado_1160036" data-name="Trazado 1160036" d="M201.8,428.334a.649.649,0,0,1-.649-.649V426.3a.739.739,0,0,0-.737-.738h-8.557a.739.739,0,0,0-.738.738v1.386a.649.649,0,1,1-1.3,0V426.3a2.038,2.038,0,0,1,2.036-2.036h8.557a2.038,2.038,0,0,1,2.035,2.036v1.386a.649.649,0,0,1-.649.649Z" transform="translate(-173.235 -385.308)" fill-rule="evenodd"/>
        <path id="Trazado_1160037" data-name="Trazado 1160037" d="M222.565,207.6a2.229,2.229,0,1,0,2.229,2.229,2.231,2.231,0,0,0-2.229-2.229Zm0,5.756a3.527,3.527,0,1,1,3.527-3.527,3.531,3.531,0,0,1-3.527,3.527Z" transform="translate(-199.665 -188.141)" fill-rule="evenodd"/>
        <path id="Trazado_1160038" data-name="Trazado 1160038" d="M174.33,84.439a.614.614,0,0,0,0,1.228H187.1a.614.614,0,1,0,0-1.228ZM187.1,86.965H174.33a1.912,1.912,0,0,1,0-3.824H187.1a1.912,1.912,0,1,1,0,3.824Z" transform="translate(-157.493 -76.735)" fill-rule="evenodd"/>
        <path id="Trazado_1160039" data-name="Trazado 1160039" d="M406.464,147.422h-5.7a.649.649,0,0,1-.649-.649v-2.867a.649.649,0,0,1,1.3,0v2.218h4.4v-2.218a.649.649,0,1,1,1.3,0v2.867A.649.649,0,0,1,406.464,147.422Z" transform="translate(-363.464 -131.115)" fill-rule="evenodd"/>
        <path id="Trazado_1160040" data-name="Trazado 1160040" d="M44.882,147.422h-5.7a.65.65,0,0,1-.649-.649v-2.867a.649.649,0,0,1,1.3,0v2.218h4.4v-2.218a.649.649,0,1,1,1.3,0v2.867a.65.65,0,0,1-.649.649Z" transform="translate(-36.382 -131.115)" fill-rule="evenodd"/>
      </g>
    </g>
  </g>
</svg>
