<svg xmlns="http://www.w3.org/2000/svg" xmlns:xlink="http://www.w3.org/1999/xlink" width="110" height="110" viewBox="0 0 110 110">
  <defs>
    <filter id="Trazado_982547" x="0" y="0" width="110" height="110" filterUnits="userSpaceOnUse">
      <feOffset dy="3" input="SourceAlpha"/>
      <feGaussianBlur stdDeviation="3" result="blur"/>
      <feFlood flood-opacity="0.161"/>
      <feComposite operator="in" in2="blur"/>
      <feComposite in="SourceGraphic"/>
    </filter>
  </defs>
  <g id="Grupo_1215530" data-name="Grupo 1215530" transform="translate(-945 -2661.543)">
    <g id="Grupo_1211421" data-name="Grupo 1211421" transform="translate(954 2667.543)">
      <g id="Grupo_1200150" data-name="Grupo 1200150" transform="translate(0 0)">
        <g id="Grupo_1185951" data-name="Grupo 1185951" transform="translate(0 0)">
          <g id="Grupo_1184083" data-name="Grupo 1184083" transform="translate(0 0)">
            <g id="Grupo_1183743" data-name="Grupo 1183743">
              <g id="Grupo_1181545" data-name="Grupo 1181545">
                <g id="Grupo_1177562" data-name="Grupo 1177562">
                  <g id="Grupo_1173147" data-name="Grupo 1173147" transform="translate(0 0)">
                    <g id="Grupo_1163801" data-name="Grupo 1163801" transform="translate(0 0)">
                      <g id="Grupo_1163014" data-name="Grupo 1163014" transform="translate(0 0)">
                        <g id="Grupo_1157015" data-name="Grupo 1157015">
                          <g id="Grupo_1155792" data-name="Grupo 1155792">
                            <g id="Grupo_1154703" data-name="Grupo 1154703">
                              <g id="Grupo_1150789" data-name="Grupo 1150789">
                                <g id="Grupo_1154212" data-name="Grupo 1154212">
                                  <g id="Grupo_1152583" data-name="Grupo 1152583">
                                    <g id="Grupo_1146973" data-name="Grupo 1146973">
                                      <g id="Grupo_1146954" data-name="Grupo 1146954">
                                        <g transform="matrix(1, 0, 0, 1, -9, -6)" filter="url(#Trazado_982547)">
                                          <g id="Trazado_982547-2" data-name="Trazado 982547" transform="translate(9 6)" fill="#f9e3d4">
                                            <path d="M 46.00000381469727 90.49986267089844 C 39.99188232421875 90.49986267089844 34.16427230834961 89.32350158691406 28.67905807495117 87.00344848632812 C 23.38020324707031 84.76223754882812 18.62104415893555 81.55341339111328 14.53375053405762 77.46613311767578 C 10.44647026062012 73.37885284423828 7.237643718719482 68.61968994140625 4.996417045593262 63.32085037231445 C 2.676363706588745 57.83565139770508 1.500003814697266 52.00805282592773 1.500003814697266 45.99993133544922 C 1.500003814697266 39.99182510375977 2.676363706588745 34.16422653198242 4.996417045593262 28.67901039123535 C 7.237643718719482 23.38017082214355 10.44647026062012 18.62101173400879 14.53375053405762 14.53373146057129 C 18.62104415893555 10.44645118713379 23.38020324707031 7.237624645233154 28.67905807495117 4.996411323547363 C 34.16427230834961 2.676357984542847 39.99188232421875 1.499997973442078 46.00000381469727 1.499997973442078 C 52.00812530517578 1.499997973442078 57.83573532104492 2.676357984542847 63.32094955444336 4.996411323547363 C 68.61980438232422 7.237624645233154 73.37896728515625 10.44645118713379 77.46625518798828 14.53373146057129 C 81.55353546142578 18.62101173400879 84.76236724853516 23.38017082214355 87.00359344482422 28.67901039123535 C 89.32364654541016 34.16422653198242 90.5 39.99182510375977 90.5 45.99993133544922 C 90.5 52.00805282592773 89.32364654541016 57.83565139770508 87.00359344482422 63.32085037231445 C 84.76236724853516 68.61968994140625 81.55353546142578 73.37885284423828 77.46625518798828 77.46613311767578 C 73.37896728515625 81.55341339111328 68.61980438232422 84.76223754882812 63.32094955444336 87.00344848632812 C 57.83573532104492 89.32350158691406 52.00812530517578 90.49986267089844 46.00000381469727 90.49986267089844 Z" stroke="none"/>
                                            <path d="M 46.00000381469727 3 C 40.19371795654297 3 34.56270217895508 4.136505126953125 29.26337432861328 6.377914428710938 C 24.14333343505859 8.54351806640625 19.54441833496094 11.64438629150391 15.59440612792969 15.59439086914062 C 11.64440155029297 19.54440307617188 8.54351806640625 24.14330291748047 6.377914428710938 29.26334381103516 C 4.136505126953125 34.56266021728516 3.000007629394531 40.19366073608398 3.000007629394531 45.99993133544922 C 3.000007629394531 51.80620193481445 4.136505126953125 57.43720245361328 6.377914428710938 62.73651885986328 C 8.54351806640625 67.85655975341797 11.64440155029297 72.45545959472656 15.59440612792969 76.40547180175781 C 19.54441833496094 80.35547637939453 24.14333343505859 83.45634460449219 29.26337432861328 85.6219482421875 C 34.56270217895508 87.86335754394531 40.19371795654297 88.99986267089844 46.00000381469727 88.99986267089844 C 51.80628967285156 88.99986267089844 57.43730545043945 87.86335754394531 62.73661804199219 85.6219482421875 C 67.85667419433594 83.45634460449219 72.45557403564453 80.35547637939453 76.40558624267578 76.40547180175781 C 80.35560607910156 72.45545959472656 83.45647430419922 67.85655975341797 85.62207794189453 62.73651885986328 C 87.86350250244141 57.43720245361328 89 51.80620193481445 89 45.99993133544922 C 89 40.19366073608398 87.86350250244141 34.56266021728516 85.62207794189453 29.26334381103516 C 83.45647430419922 24.14330291748047 80.35560607910156 19.54440307617188 76.40558624267578 15.59439086914062 C 72.45557403564453 11.64438629150391 67.85667419433594 8.54351806640625 62.73661804199219 6.377914428710938 C 57.43730545043945 4.136505126953125 51.80628967285156 3 46.00000381469727 3 M 46.00000381469727 0 C 71.40509033203125 0 92 20.59487152099609 92 45.99993133544922 C 92 71.40499114990234 71.40509033203125 91.99986267089844 46.00000381469727 91.99986267089844 C 20.59490203857422 91.99986267089844 7.62939453125e-06 71.40499114990234 7.62939453125e-06 45.99993133544922 C 7.62939453125e-06 20.59487152099609 20.59490203857422 0 46.00000381469727 0 Z" stroke="none" fill="#eca675"/>
                                          </g>
                                        </g>
                                      </g>
                                    </g>
                                  </g>
                                </g>
                              </g>
                            </g>
                          </g>
                        </g>
                      </g>
                    </g>
                  </g>
                </g>
              </g>
            </g>
          </g>
        </g>
      </g>
    </g>
    <g id="gps" transform="translate(966.456 2681.906)">
      <path id="Trazado_1088132" data-name="Trazado 1088132" d="M59.994,28.945l-.632,1.077c.272.677.514,1.368.731,2.069-1.916,1.511-3.082,4.791-3.265,5.334a1.225,1.225,0,0,1-.38-.074,24,24,0,0,1-1.556-1.862c-.015-.015-.025-.03-.04-.044a4.37,4.37,0,0,0-4.238-1.2,1.959,1.959,0,0,0-1.521,1.319,2.864,2.864,0,0,0,.78,2.44c.084.094.282.326-.845,1.358-.054.054-.114.109-.173.168a3.991,3.991,0,0,1-.4.361,2.128,2.128,0,0,0-2.188-.336,1.783,1.783,0,0,0-1.052.973,2.914,2.914,0,0,0,.2,2.252l.948,1.714a3.246,3.246,0,0,0,2.1,1.585,1.074,1.074,0,0,1-.128.425l-2.628,2.178a.841.841,0,0,0-.094.094,3.132,3.132,0,0,0-.864,2.213L44.53,53.7a2.371,2.371,0,0,1-.746,1.506,1.033,1.033,0,0,0-.109.1,30.31,30.31,0,0,1-4.089,3.818,1.3,1.3,0,0,1-1.027.227,1.252,1.252,0,0,1-.835-.6c-.272-.464-.464-.859-.464-.864a.836.836,0,0,0-.114-.178,2.51,2.51,0,0,1-.6-1.635l.257-1.551a3.256,3.256,0,0,0-.3-2L35.783,51.1c0,.01,0,.015-.01.025a4.492,4.492,0,0,1-.163.474c-.059.163-.128.321-.2.479a.154.154,0,0,1-.025.049,4.622,4.622,0,0,1-.217.445c-.084.163-.173.316-.267.474l-.193.321-4.934,8.075a3.05,3.05,0,0,1-.637.741h0a2.957,2.957,0,0,1-1.887.682,2.786,2.786,0,0,1-.7-.089,2.967,2.967,0,0,1-1.827-1.329l-5.127-8.4a8.215,8.215,0,0,1,0-8.683,8.665,8.665,0,0,1,2.227-2.445v0a8.5,8.5,0,0,1,.914-.593,8.21,8.21,0,0,1,.983-.479,5.872,5.872,0,0,1,.514-2.252,5.88,5.88,0,0,1,4.3-2.983,19.211,19.211,0,0,1,8.54.924.433.433,0,0,0,.074.025,6.4,6.4,0,0,0,5.729-1.3,2.521,2.521,0,0,0,1-1.966c0-2.657-3.917-3.383-4.6-3.487-3.077-.785-7.9.178-8.125.227-2.04.464-2.628.128-2.721.054-.035-.025-.084-.059-.094-.227s.247-.474,2.094-.869c.123-.03.242-.054.341-.079A11.574,11.574,0,0,0,34.1,27.295c.741-.533,1.027-1.516.845-2.924a1.256,1.256,0,0,1,.7-1.343,8.756,8.756,0,0,1,3.61-.375,2.343,2.343,0,0,0,2.44-1.808,6.3,6.3,0,0,0-.2-2.825c-.138-1.032,1.087-2.692,1.8-3.452.084.035.173.059.262.094,0-.059,0-.114.015-.173a.374.374,0,0,1,0-.074c.01-.119.02-.237.035-.356s.035-.267.054-.4v-.02a28.146,28.146,0,1,0,16.323,15.3ZM19.756,17.131a4.926,4.926,0,0,1,.687,3.635c-.449,1.694-2.134,3.107-5.008,4.2a24.592,24.592,0,0,0-5.008,1.99,27.344,27.344,0,0,1,9.33-9.829Zm-7.008,39.7A27.034,27.034,0,0,1,7,40.146a27.647,27.647,0,0,1,.41-4.682,3.218,3.218,0,0,1,1.442.943.626.626,0,0,0,.1.123,8.446,8.446,0,0,1,1.882,6A4.563,4.563,0,0,0,12.2,45.989a5.423,5.423,0,0,0,1.19.85,3.375,3.375,0,0,1,1.437,3.976A17.042,17.042,0,0,0,12.748,56.83ZM34.163,67.311a27.137,27.137,0,0,1-8.179-1.259,11.983,11.983,0,0,1,11.671,1.027A27.159,27.159,0,0,1,34.163,67.311Z" transform="translate(-1.083 -6.067)" fill="#81d9e3"/>
      <path id="Trazado_1088133" data-name="Trazado 1088133" d="M78.226,34.653c-1.916,1.511-3.082,4.791-3.265,5.334a1.225,1.225,0,0,1-.38-.074,24,24,0,0,1-1.556-1.862c-.015-.015-.025-.03-.04-.044a4.37,4.37,0,0,0-4.238-1.2,1.959,1.959,0,0,0-1.521,1.319,2.864,2.864,0,0,0,.78,2.44c.084.094.282.326-.845,1.358-.054.054-.114.109-.173.168a3.991,3.991,0,0,1-.405.361A2.128,2.128,0,0,0,64.4,42.12a1.783,1.783,0,0,0-1.052.973,2.914,2.914,0,0,0,.2,2.252l.948,1.714a3.246,3.246,0,0,0,2.1,1.585,1.074,1.074,0,0,1-.128.425l-2.628,2.178a.841.841,0,0,0-.094.094,3.132,3.132,0,0,0-.864,2.213l-.217,2.712a2.371,2.371,0,0,1-.746,1.506,1.033,1.033,0,0,0-.109.1,30.309,30.309,0,0,1-4.089,3.818,1.3,1.3,0,0,1-1.027.227,1.252,1.252,0,0,1-.835-.6c-.272-.464-.464-.859-.464-.864a.836.836,0,0,0-.114-.178,2.51,2.51,0,0,1-.6-1.635l.257-1.551a3.256,3.256,0,0,0-.3-2l-.716-1.427a8.168,8.168,0,0,0-.879-6.737,8.864,8.864,0,0,0-7.655-4.218,9.171,9.171,0,0,0-3.531.7,5.274,5.274,0,0,1,4.811-5.235,19.211,19.211,0,0,1,8.54.924.434.434,0,0,0,.074.025A6.4,6.4,0,0,0,61,37.818a2.521,2.521,0,0,0,1-1.966c0-2.657-3.917-3.383-4.6-3.487-3.077-.785-7.9.178-8.125.227-2.04.464-2.628.128-2.721.054-.035-.025-.084-.059-.094-.227s.247-.474,2.094-.869c.123-.03.242-.054.341-.079a11.574,11.574,0,0,0,3.334-1.615c.741-.533,1.027-1.516.845-2.924a1.256,1.256,0,0,1,.7-1.343,8.756,8.756,0,0,1,3.61-.375,2.343,2.343,0,0,0,2.44-1.808,6.3,6.3,0,0,0-.2-2.825c-.138-1.032,1.087-2.692,1.8-3.452.084.035.173.059.262.094,0-.059,0-.114.015-.173a11.006,11.006,0,0,0,1.516,6.416l7.255,12.347a2.965,2.965,0,0,0,5.112,0l1.9-3.23c.272.677.514,1.368.731,2.069Z" transform="translate(-19.216 -8.629)" fill="#98e07e"/>
      <path id="Trazado_1088134" data-name="Trazado 1088134" d="M98.434,87.71a2.344,2.344,0,0,0-2.632.02,7.624,7.624,0,0,0-3.536,4.692,2.339,2.339,0,0,0,.7,2.534,1.913,1.913,0,0,0,1.175.38,5.194,5.194,0,0,0,3.7-2.39,6.968,6.968,0,0,0,1.294-2.7,2.335,2.335,0,0,0-.7-2.539Zm-2.173,4.045a3.75,3.75,0,0,1-2.089,1.605,4.938,4.938,0,0,1,3.062-4.055A3.805,3.805,0,0,1,96.261,91.755Z" transform="translate(-44.689 -44.198)" fill="#2d4356"/>
      <path id="Trazado_1088135" data-name="Trazado 1088135" d="M98.283,93.78a3.75,3.75,0,0,1-2.089,1.605,4.938,4.938,0,0,1,3.062-4.055,3.805,3.805,0,0,1-.973,2.45Z" transform="translate(-46.712 -46.222)" fill="#98e07e"/>
      <path id="Trazado_1088136" data-name="Trazado 1088136" d="M59.518,26.9l-.607,1.032-.632,1.077c.272.677.514,1.368.731,2.069-1.916,1.511-3.082,4.791-3.265,5.334a1.225,1.225,0,0,1-.38-.074,24,24,0,0,1-1.556-1.862c-.015-.015-.025-.03-.04-.044a4.37,4.37,0,0,0-4.238-1.2,1.959,1.959,0,0,0-1.521,1.319,2.864,2.864,0,0,0,.78,2.44c.084.094.282.326-.845,1.358-.054.054-.114.109-.173.168a3.989,3.989,0,0,1-.4.361,2.128,2.128,0,0,0-2.188-.336,1.783,1.783,0,0,0-1.052.973,2.914,2.914,0,0,0,.2,2.252l.948,1.714a3.246,3.246,0,0,0,2.1,1.585,1.074,1.074,0,0,1-.128.425l-2.628,2.178a.84.84,0,0,0-.094.094,3.132,3.132,0,0,0-.864,2.213l-.217,2.712A2.371,2.371,0,0,1,42.7,54.2a1.034,1.034,0,0,0-.109.1A30.309,30.309,0,0,1,38.5,58.114a1.3,1.3,0,0,1-1.027.227,1.252,1.252,0,0,1-.835-.6c-.272-.464-.464-.859-.464-.864a.836.836,0,0,0-.114-.178,2.51,2.51,0,0,1-.6-1.635l.257-1.551a3.256,3.256,0,0,0-.3-2L34.7,50.088c0,.01,0,.015-.01.025q-.074.237-.163.474c-.059.163-.128.321-.2.479a.154.154,0,0,1-.025.049,4.621,4.621,0,0,1-.217.444c-.084.163-.173.316-.267.474l-.193.321.025.044a1.322,1.322,0,0,1,.119.79l-.262,1.576a4.307,4.307,0,0,0,.938,3.077c.079.158.257.5.484.894a3.262,3.262,0,0,0,4.746.968A32.427,32.427,0,0,0,44,55.679a4.379,4.379,0,0,0,1.413-2.82l.222-2.791a.631.631,0,0,0,0-.168,1.169,1.169,0,0,1,.311-.756l2.7-2.242a.833.833,0,0,0,.188-.207,2.837,2.837,0,0,0,.464-2.109,2.007,2.007,0,0,0-1.022-1.3.927.927,0,0,0-.341-.114A1.273,1.273,0,0,1,47,42.527l-.929-1.684a1.589,1.589,0,0,1-.128-.474.015.015,0,0,0,.01,0,1.28,1.28,0,0,1,.351.183c1.279.9,2.415-.193,2.84-.6l.143-.138c1.679-1.546,2.01-2.929.983-4.119a1.979,1.979,0,0,1-.326-.514.715.715,0,0,1,.094-.03,2.376,2.376,0,0,1,2.218.563c1.763,2.287,2.124,2.4,2.386,2.474l.054.015c1.99.637,2.687-.543,2.894-1.082l.015-.044a13.868,13.868,0,0,1,1.985-3.8,27.1,27.1,0,0,1-20.447,32.34c-7.152-6.49-15.281-2.381-16.8-1.521A27.367,27.367,0,0,1,14.06,58.5c-1.343-2.055.578-6.307,1.447-7.794a.872.872,0,0,0,.084-.183,5.362,5.362,0,0,0-2.336-6.435,3.486,3.486,0,0,1-.775-.548,2.594,2.594,0,0,1-.751-1.971,10.516,10.516,0,0,0-2.4-7.389A5.3,5.3,0,0,0,6.735,32.5c.2-.775.43-1.541.691-2.292.84-1.946,5-3.7,7.483-4.356a.782.782,0,0,0,.1-.035c3.531-1.334,5.635-3.205,6.263-5.556a6.815,6.815,0,0,0-.889-5.132,26.976,26.976,0,0,1,8.633-2.855,2.815,2.815,0,0,1,.109,1.857c-.188.494-.9.785-1.61,1.042A18.4,18.4,0,0,0,24.2,16.711a2.357,2.357,0,0,0-.82,3.067,3.019,3.019,0,0,0,2.954,1.531c.059,0,.123,0,.193,0a8.5,8.5,0,0,0,4.159-1.521c.064-.04.173-.119.316-.222a4.79,4.79,0,0,1,2.42-1.25.986.986,0,1,0,.094-1.971,6.392,6.392,0,0,0-3.7,1.64c-.079.059-.143.109-.173.128a6.832,6.832,0,0,1-3.176,1.225c-.257,0-1.1,0-1.3-.41-.084-.178-.079-.44.059-.524a15.875,15.875,0,0,1,2.958-1.363,4.167,4.167,0,0,0,2.786-2.218,4.568,4.568,0,0,0,.054-2.766c.677-.049,1.363-.084,2.055-.084a27.088,27.088,0,0,1,7.089.944c-.826,1.037-1.987,2.84-1.686,4.494a.541.541,0,0,0,.03.128,4.486,4.486,0,0,1,.173,1.882.356.356,0,0,1-.38.252,10.665,10.665,0,0,0-4.5.524,3.234,3.234,0,0,0-1.9,3.423,2.255,2.255,0,0,1-.03,1.057,9.552,9.552,0,0,1-2.632,1.3c-.094.02-.2.044-.316.069-1.23.262-3.793.815-3.645,2.939a2.217,2.217,0,0,0,.884,1.679c.884.652,2.307.746,4.322.286.044-.01,4.628-.929,7.255-.237a.864.864,0,0,0,.109.025c1.21.178,2.963.83,2.963,1.541a.6.6,0,0,1-.252.415,4.381,4.381,0,0,1-3.9.968,20.922,20.922,0,0,0-9.443-1.027A7.867,7.867,0,0,0,21.4,36.649a.2.2,0,0,0-.025.044,7.484,7.484,0,0,0-.642,4.208v0a9.365,9.365,0,0,1,.914-.6,9.516,9.516,0,0,1,.983-.479,5.872,5.872,0,0,1,.514-2.252,5.88,5.88,0,0,1,4.3-2.983,19.211,19.211,0,0,1,8.54.924.433.433,0,0,0,.074.025,6.4,6.4,0,0,0,5.729-1.3,2.521,2.521,0,0,0,1-1.966c0-2.657-3.917-3.383-4.6-3.487-3.077-.785-7.9.178-8.125.227-2.04.464-2.628.128-2.721.054-.035-.025-.084-.059-.094-.227s.247-.474,2.094-.869c.123-.03.242-.054.341-.079a11.574,11.574,0,0,0,3.334-1.615c.741-.533,1.027-1.516.845-2.924a1.256,1.256,0,0,1,.7-1.343,8.756,8.756,0,0,1,3.61-.375,2.343,2.343,0,0,0,2.44-1.808,6.3,6.3,0,0,0-.2-2.825c-.138-1.032,1.087-2.692,1.8-3.452.084.035.173.059.262.094,0-.059,0-.114.015-.173a.374.374,0,0,1,0-.074c.01-.119.02-.237.035-.356s.035-.267.054-.4a9.693,9.693,0,0,1,.2-.988A29.169,29.169,0,1,0,59.518,26.9ZM36.572,66.066A26.943,26.943,0,0,1,24.9,65.039,11.983,11.983,0,0,1,36.572,66.066ZM7.768,35.395a.626.626,0,0,0,.1.123,8.446,8.446,0,0,1,1.882,6,4.563,4.563,0,0,0,1.368,3.462,5.423,5.423,0,0,0,1.19.85A3.375,3.375,0,0,1,13.749,49.8a17.043,17.043,0,0,0-2.084,6.016A27.034,27.034,0,0,1,5.915,39.134a27.647,27.647,0,0,1,.41-4.682,3.218,3.218,0,0,1,1.442.943ZM19.359,19.753c-.449,1.694-2.134,3.107-5.008,4.2a24.592,24.592,0,0,0-5.008,1.99,27.344,27.344,0,0,1,9.33-9.829A4.926,4.926,0,0,1,19.359,19.753Z" transform="translate(0 -5.055)" fill="#2d4356"/>
      <g id="Grupo_1215529" data-name="Grupo 1215529" transform="translate(5.915 11.063)">
        <path id="Trazado_1088137" data-name="Trazado 1088137" d="M58.111,121.4a26.943,26.943,0,0,1-11.671-1.027A11.983,11.983,0,0,1,58.111,121.4Z" transform="translate(-27.455 -71.448)" fill="#98e07e"/>
        <path id="Trazado_1088138" data-name="Trazado 1088138" d="M24.956,26.035c-.449,1.694-2.134,3.107-5.008,4.2a24.593,24.593,0,0,0-5.008,1.99A27.344,27.344,0,0,1,24.27,22.4,4.926,4.926,0,0,1,24.956,26.035Z" transform="translate(-11.512 -22.4)" fill="#98e07e"/>
        <path id="Trazado_1088139" data-name="Trazado 1088139" d="M15.833,74.87a17.043,17.043,0,0,0-2.084,6.016A27.034,27.034,0,0,1,8,64.2a27.647,27.647,0,0,1,.41-4.682,3.218,3.218,0,0,1,1.442.943.626.626,0,0,0,.1.123,8.446,8.446,0,0,1,1.882,6,4.563,4.563,0,0,0,1.368,3.462,5.423,5.423,0,0,0,1.19.85,3.375,3.375,0,0,1,1.437,3.976Z" transform="translate(-8 -41.186)" fill="#98e07e"/>
      </g>
      <path id="Trazado_1088140" data-name="Trazado 1088140" d="M103.489,4.6a9.45,9.45,0,0,0-16.225,0,9,9,0,0,0,0,9.231l7.26,12.347a.987.987,0,0,0,1.7,0l7.26-12.347a9,9,0,0,0,0-9.231Zm-1.7,8.233-6.406,10.9-6.411-10.9a7.057,7.057,0,0,1,0-7.231,7.471,7.471,0,0,1,12.817,0A7.034,7.034,0,0,1,101.785,12.836Z" transform="translate(-41.555)" fill="#2d4356"/>
      <path id="Trazado_1088141" data-name="Trazado 1088141" d="M103.816,7.63A7.471,7.471,0,0,0,91,7.63a7.057,7.057,0,0,0,0,7.231l6.411,10.9,6.406-10.9A7.034,7.034,0,0,0,103.816,7.63ZM97.41,15.36a4.445,4.445,0,1,1,4.445-4.445A4.445,4.445,0,0,1,97.41,15.36Z" transform="translate(-43.586 -2.024)" fill="#fc785e"/>
      <path id="Trazado_1088142" data-name="Trazado 1088142" d="M100.445,9a4.445,4.445,0,1,0,4.445,4.445A4.445,4.445,0,0,0,100.445,9Zm0,6.915a2.469,2.469,0,1,1,2.469-2.469A2.469,2.469,0,0,1,100.445,15.915Z" transform="translate(-46.621 -4.555)" fill="#2d4356"/>
      <path id="Trazado_1088143" data-name="Trazado 1088143" d="M47.881,76.27a7.078,7.078,0,0,0-11.933,0,6.265,6.265,0,0,0,0,6.628l5.122,8.4a.989.989,0,0,0,1.689,0l5.122-8.4A6.244,6.244,0,0,0,47.881,76.27ZM46.2,81.87l-4.282,7.013L37.632,81.87a4.328,4.328,0,0,1,0-4.569,5.1,5.1,0,0,1,8.564,0,4.307,4.307,0,0,1,0,4.569Z" transform="translate(-15.749 -36.945)" fill="#2d4356"/>
      <path id="Trazado_1088144" data-name="Trazado 1088144" d="M70.187,68.61a27.211,27.211,0,0,1-21.1,26.473c-7.152-6.49-15.281-2.381-16.8-1.521A27.367,27.367,0,0,1,24,87.981a3.7,3.7,0,0,1-.44-2.331A2.926,2.926,0,0,0,24,86.993a27.367,27.367,0,0,0,8.288,5.581,16.968,16.968,0,0,1,3.117-1.334,2.786,2.786,0,0,0,.7.089,2.957,2.957,0,0,0,1.887-.682h0A13.177,13.177,0,0,1,49.088,94.1,27.214,27.214,0,0,0,70.182,68.23C70.187,68.354,70.187,68.482,70.187,68.61Z" transform="translate(-9.943 -34.531)" fill="#0f423c" opacity="0.25"/>
      <path id="Trazado_1088145" data-name="Trazado 1088145" d="M79.738,80.823a1.074,1.074,0,0,1-.128.425l-2.628,2.178a.838.838,0,0,0-.094.094,3.132,3.132,0,0,0-.864,2.213l-.217,2.712a2.371,2.371,0,0,1-.746,1.506,1.035,1.035,0,0,0-.109.1,30.308,30.308,0,0,1-4.089,3.818,1.3,1.3,0,0,1-1.027.227A1.252,1.252,0,0,1,69,93.5c-.272-.464-.464-.859-.464-.864a.836.836,0,0,0-.114-.178,2.51,2.51,0,0,1-.6-1.635l.069-.41a2.785,2.785,0,0,0,.533,1.057.837.837,0,0,1,.114.178s.193.4.464.864a1.252,1.252,0,0,0,.835.6,1.3,1.3,0,0,0,1.027-.227,30.308,30.308,0,0,0,4.089-3.818,1.034,1.034,0,0,1,.109-.1,2.371,2.371,0,0,0,.746-1.506l.217-2.712a3.132,3.132,0,0,1,.864-2.213.842.842,0,0,1,.094-.094l2.183-1.808A2.9,2.9,0,0,0,79.738,80.823Z" transform="translate(-32.36 -40.807)" fill="#528440" opacity="0.3"/>
      <path id="Trazado_1088146" data-name="Trazado 1088146" d="M58.111,121.921a26.943,26.943,0,0,1-11.671-1.027,14.339,14.339,0,0,1,1.585-.543,26.851,26.851,0,0,0,6.594.815q1.067,0,2.1-.089A11.215,11.215,0,0,1,58.111,121.921Z" transform="translate(-21.539 -60.909)" fill="#528440" opacity="0.3"/>
      <path id="Trazado_1088147" data-name="Trazado 1088147" d="M15.833,79.258a17.042,17.042,0,0,0-2.084,6.016A27.034,27.034,0,0,1,8,68.59c0-.133,0-.267,0-.4a27.07,27.07,0,0,0,5.744,16.1,17.042,17.042,0,0,1,2.084-6.016,3.758,3.758,0,0,0,.153-.642A3.508,3.508,0,0,1,15.833,79.258Z" transform="translate(-2.085 -34.511)" fill="#528440" opacity="0.3"/>
      <path id="Trazado_1088148" data-name="Trazado 1088148" d="M25.05,23.571a5.926,5.926,0,0,0-.78-2.183,27.321,27.321,0,0,0-8.47,8.4q-.43.207-.859.445A27.344,27.344,0,0,1,24.27,20.4a5.248,5.248,0,0,1,.78,3.171Z" transform="translate(-5.597 -10.324)" fill="#0f423c" opacity="0.25"/>
      <path id="Trazado_1088149" data-name="Trazado 1088149" d="M46.1,16.25a3.441,3.441,0,0,0-.173-.642A26.865,26.865,0,0,0,37.7,18.255a7.528,7.528,0,0,0-.405-.78,26.976,26.976,0,0,1,8.633-2.855A3,3,0,0,1,46.1,16.25Z" transform="translate(-16.908 -7.399)" fill="#e8fbfc" opacity="0.3"/>
      <path id="Trazado_1088150" data-name="Trazado 1088150" d="M67.982,14.943c-.193.242-.4.524-.607.835a26.979,26.979,0,0,0-6.48-.79c-.632,0-1.259.03-1.882.074a5.282,5.282,0,0,0-.173-.978C59.517,14.035,60.2,14,60.895,14a27.088,27.088,0,0,1,7.089.944Z" transform="translate(-27.815 -7.085)" fill="#e8fbfc" opacity="0.3"/>
      <path id="Trazado_1088151" data-name="Trazado 1088151" d="M103.818,21.779l-6.406,10.9L91,21.779a7.124,7.124,0,0,1-.978-4.109A7.169,7.169,0,0,0,91,20.791l6.411,10.9,6.406-10.9a7.111,7.111,0,0,0,.983-3.121,7.091,7.091,0,0,1-.983,4.109Z" transform="translate(-43.589 -8.943)" fill="#a54b3f" opacity="0.5"/>
      <path id="Trazado_1088152" data-name="Trazado 1088152" d="M104.8,11.739a7.111,7.111,0,0,0-.983-3.121A7.471,7.471,0,0,0,91,8.618a7.169,7.169,0,0,0-.978,3.121A7.106,7.106,0,0,1,91,7.63a7.471,7.471,0,0,1,12.817,0A7.073,7.073,0,0,1,104.8,11.739Z" transform="translate(-43.588 -2.024)" fill="#f9dbd7" opacity="0.3"/>
      <path id="Trazado_1088153" data-name="Trazado 1088153" d="M48.226,79.326a5.1,5.1,0,0,0-8.564,0,4.328,4.328,0,0,0,0,4.569l4.282,7.013,4.282-7.013A4.307,4.307,0,0,0,48.226,79.326ZM43.944,84.9a2.963,2.963,0,1,1,2.963-2.963A2.963,2.963,0,0,1,43.944,84.9Z" transform="translate(-17.779 -38.97)" fill="#fc785e"/>
      <path id="Trazado_1088154" data-name="Trazado 1088154" d="M45.963,81a2.963,2.963,0,1,0,2.963,2.963A2.963,2.963,0,0,0,45.963,81Zm0,3.951a.988.988,0,1,1,.988-.988A.988.988,0,0,1,45.963,84.951Z" transform="translate(-19.798 -40.994)" fill="#2d4356"/>
      <path id="Trazado_1088155" data-name="Trazado 1088155" d="M48.855,82.1a4.366,4.366,0,0,0-.627-1.788,5.1,5.1,0,0,0-8.564,0,4.357,4.357,0,0,0-.622,1.788,4.333,4.333,0,0,1,.622-2.776,5.1,5.1,0,0,1,8.564,0,4.337,4.337,0,0,1,.627,2.776Z" transform="translate(-17.78 -38.97)" fill="#fff" opacity="0.25"/>
      <path id="Trazado_1088156" data-name="Trazado 1088156" d="M48.228,88.111l-4.282,7.013-4.282-7.013a4.347,4.347,0,0,1-.622-2.781,4.377,4.377,0,0,0,.622,1.793l4.282,7.013,4.282-7.013a4.386,4.386,0,0,0,.627-1.793A4.351,4.351,0,0,1,48.228,88.111Z" transform="translate(-17.78 -43.186)" fill="#a54b3f" opacity="0.5"/>
    </g>
  </g>
</svg>
