<svg xmlns="http://www.w3.org/2000/svg" xmlns:xlink="http://www.w3.org/1999/xlink" width="93.934" height="93.934" viewBox="0 0 93.934 93.934">
  <defs>
    <filter id="Trazado_982547" x="0" y="0" width="93.934" height="93.934" filterUnits="userSpaceOnUse">
      <feOffset dy="3" input="SourceAlpha"/>
      <feGaussianBlur stdDeviation="3" result="blur"/>
      <feFlood flood-opacity="0.161"/>
      <feComposite operator="in" in2="blur"/>
      <feComposite in="SourceGraphic"/>
    </filter>
  </defs>
  <g id="Grupo_1215671" data-name="Grupo 1215671" transform="translate(-611.066 -2817.849)">
    <g id="Grupo_1214671" data-name="Grupo 1214671" transform="translate(-0.229 -2310.151)">
      <g id="Grupo_1214433" data-name="Grupo 1214433" transform="translate(-0.771 -2738.674)">
        <g id="Grupo_1183190" data-name="Grupo 1183190" transform="translate(1 1016.674)">
          <g id="Grupo_1179611" data-name="Grupo 1179611" transform="translate(428 4723.467)">
            <g id="Grupo_1175227" data-name="Grupo 1175227" transform="translate(-5.967 140.533)">
              <g id="Grupo_1167337" data-name="Grupo 1167337" transform="translate(198.033 1992)">
                <g id="Grupo_1166720" data-name="Grupo 1166720">
                  <g id="Grupo_1164305" data-name="Grupo 1164305">
                    <g id="Grupo_1163948" data-name="Grupo 1163948">
                      <g id="Grupo_1158168" data-name="Grupo 1158168">
                        <g id="Grupo_1152576" data-name="Grupo 1152576">
                          <g id="Grupo_1148633" data-name="Grupo 1148633">
                            <g id="Grupo_1148525" data-name="Grupo 1148525">
                              <g transform="matrix(1, 0, 0, 1, -9, -6)" filter="url(#Trazado_982547)">
                                <g id="Trazado_982547-2" data-name="Trazado 982547" transform="translate(9 6)" fill="#eae4dc">
                                  <path d="M 37.966796875 74.43359375 C 33.04315185546875 74.43359375 28.26757431030273 73.46962738037109 23.77274131774902 71.56847381591797 C 19.43047523498535 69.73184967041016 15.53040790557861 67.10224914550781 12.18087482452393 63.75271987915039 C 8.831341743469238 60.4031867980957 6.201741218566895 56.50312042236328 4.365118980407715 52.16086196899414 C 2.463963508605957 47.66601943969727 1.499996900558472 42.89044189453125 1.499996900558472 37.966796875 C 1.499996900558472 33.04315185546875 2.463963508605957 28.26757431030273 4.365118980407715 23.77274131774902 C 6.201741218566895 19.43047523498535 8.831341743469238 15.53040790557861 12.18087482452393 12.18087482452393 C 15.53040790557861 8.831341743469238 19.43047523498535 6.201741218566895 23.77274131774902 4.365118980407715 C 28.26757431030273 2.463963508605957 33.04315185546875 1.499996900558472 37.966796875 1.499996900558472 C 42.89044189453125 1.499996900558472 47.66601943969727 2.463963508605957 52.16086196899414 4.365118980407715 C 56.50312042236328 6.201741218566895 60.4031867980957 8.831341743469238 63.75271987915039 12.18087482452393 C 67.10224914550781 15.53040790557861 69.73184967041016 19.43047523498535 71.56847381591797 23.77274131774902 C 73.46962738037109 28.26757431030273 74.43359375 33.04315185546875 74.43359375 37.966796875 C 74.43359375 42.89044189453125 73.46962738037109 47.66601943969727 71.56847381591797 52.16086196899414 C 69.73184967041016 56.50313186645508 67.10224914550781 60.4031867980957 63.75271987915039 63.75271987915039 C 60.4031867980957 67.10224914550781 56.50313186645508 69.73184967041016 52.16086196899414 71.56847381591797 C 47.66601943969727 73.46962738037109 42.89044189453125 74.43359375 37.966796875 74.43359375 Z" stroke="none"/>
                                  <path d="M 37.966796875 3 C 33.2449836730957 3 28.66600799560547 3.924095153808594 24.35705947875977 5.746635437011719 C 20.19359588623047 7.507637023925781 16.45379638671875 10.02928161621094 13.24153518676758 13.24153518676758 C 10.02927398681641 16.45379638671875 7.507621765136719 20.19359588623047 5.746635437011719 24.35705947875977 C 3.924095153808594 28.66600799560547 3 33.2449836730957 3 37.966796875 C 3 42.6886100769043 3.924095153808594 47.26758575439453 5.746635437011719 51.57653427124023 C 7.507621765136719 55.73999786376953 10.02927398681641 59.47979736328125 13.24153518676758 62.69205856323242 C 16.45379638671875 65.90431976318359 20.19359588623047 68.42597198486328 24.35705947875977 70.18695831298828 C 28.66600799560547 72.00949859619141 33.2449836730957 72.93359375 37.966796875 72.93359375 C 42.6886100769043 72.93359375 47.26758575439453 72.00949859619141 51.57653427124023 70.18695831298828 C 55.73999786376953 68.42597198486328 59.47979736328125 65.90431976318359 62.69205856323242 62.69205856323242 C 65.90431976318359 59.47979736328125 68.42597198486328 55.73999786376953 70.18695831298828 51.57653427124023 C 72.00949859619141 47.26758575439453 72.93359375 42.6886100769043 72.93359375 37.966796875 C 72.93359375 33.2449836730957 72.00949859619141 28.66600799560547 70.18695831298828 24.35705947875977 C 68.42597198486328 20.19359588623047 65.90431976318359 16.45379638671875 62.69205856323242 13.24153518676758 C 59.47979736328125 10.02928161621094 55.73999786376953 7.507637023925781 51.57653427124023 5.746635437011719 C 47.26758575439453 3.924095153808594 42.6886100769043 3 37.966796875 3 M 37.966796875 0 C 58.93528366088867 0 75.93359375 16.99832153320312 75.93359375 37.966796875 C 75.93359375 58.93528366088867 58.93528366088867 75.93359375 37.966796875 75.93359375 C 16.99831008911133 75.93359375 0 58.93528366088867 0 37.966796875 C 0 16.99832153320312 16.99831008911133 0 37.966796875 0 Z" stroke="none" fill="#665b4e"/>
                                </g>
                              </g>
                            </g>
                          </g>
                        </g>
                      </g>
                    </g>
                  </g>
                </g>
              </g>
            </g>
          </g>
        </g>
      </g>
    </g>
    <g id="responsabilidad_1_" data-name="responsabilidad (1)" transform="translate(627.566 2831.065)">
      <path id="Trazado_1160041" data-name="Trazado 1160041" d="M46.824,50.9a18.486,18.486,0,0,1-6.867-1.323l-.081-.032A7.6,7.6,0,0,0,37.056,49H24.8a7.59,7.59,0,0,0-2.819.543l-.081.032A18.491,18.491,0,0,1,15.03,50.9H11v4.745h4.591a18.5,18.5,0,0,0,5.847-.949v6.642H40.416V54.693a18.5,18.5,0,0,0,5.847.949h4.591V50.9Z" transform="translate(-0.46 -2.401)" fill="#eaeaea"/>
      <path id="Trazado_1160042" data-name="Trazado 1160042" d="M31.847,49,29,55.642l2.847,3.8,2.847-3.8Z" transform="translate(-1.379 -2.401)" fill="#999"/>
      <g id="Grupo_1215670" data-name="Grupo 1215670" transform="translate(5.796 29.518)">
        <path id="Trazado_1160043" data-name="Trazado 1160043" d="M56.92,52H53v2.847h2.272a2.845,2.845,0,0,0,2.368-1.268l.069-.1A.949.949,0,0,0,56.92,52Z" transform="translate(-8.402 -32.073)" fill="#ffd6a8"/>
        <path id="Trazado_1160044" data-name="Trazado 1160044" d="M6.161,53.476l.069.1A2.845,2.845,0,0,0,8.6,54.847h2.272V52H6.951A.949.949,0,0,0,6.161,53.476Z" transform="translate(-6 -32.073)" fill="#ffd6a8"/>
        <circle id="Elipse_14310" data-name="Elipse 14310" cx="8.5" cy="8.5" r="8.5" transform="translate(16.139 0.416)" fill="#ffd6a8"/>
      </g>
      <path id="Trazado_1160045" data-name="Trazado 1160045" d="M39.585,37.462l.25.01a8.53,8.53,0,0,0-16.5-.223,14.177,14.177,0,0,1,16.248.213Z" transform="translate(-1.09 -1.482)" fill="#999"/>
      <circle id="Elipse_14311" data-name="Elipse 14311" cx="8.5" cy="8.5" r="8.5" transform="translate(21.935 2.935)" fill="#a7dbfc"/>
      <path id="Trazado_1160046" data-name="Trazado 1160046" d="M30.591,6.894h-1.9L26.8,5l-.519-.074a8.493,8.493,0,0,0-2.78,9.563h.453l3.8-2.847h1.9l1.9-1.9Z" transform="translate(-1.073 -0.149)" fill="#63bc94"/>
      <path id="Trazado_1160047" data-name="Trazado 1160047" d="M35.9,7.9v2.847L34,13.6l5.693,1.9.061-.02a8.5,8.5,0,0,0-1.19-9.349Z" transform="translate(-1.635 -0.211)" fill="#63bc94"/>
      <path id="Trazado_1160048" data-name="Trazado 1160048" d="M31.7,20.745a8.707,8.707,0,0,0,.936-.053L31.7,16.949,29.805,16l-3.621,2.716A8.5,8.5,0,0,0,31.7,20.745Z" transform="translate(-1.236 -0.715)" fill="#63bc94"/>
      <circle id="Elipse_14312" data-name="Elipse 14312" cx="8.5" cy="8.5" r="8.5" transform="translate(40.935 16.935)" fill="#a7dbfc"/>
      <path id="Trazado_1160049" data-name="Trazado 1160049" d="M54.426,23.929a2.828,2.828,0,0,0-5.363,0,2.366,2.366,0,0,0,.309,4.713h4.745a2.366,2.366,0,0,0,.309-4.713Z" transform="translate(-2.299 -1.022)" fill="#63bc94"/>
      <circle id="Elipse_14313" data-name="Elipse 14313" cx="8.5" cy="8.5" r="8.5" transform="translate(2.935 16.935)" fill="#a7dbfc"/>
      <ellipse id="Elipse_14314" data-name="Elipse 14314" cx="2.5" cy="3" rx="2.5" ry="3" transform="translate(8.935 20.935)" fill="#ffd6a8"/>
      <path id="Trazado_1160050" data-name="Trazado 1160050" d="M12.693,28H10.8A3.8,3.8,0,0,0,7,31.8v2.355a8.534,8.534,0,0,0,9.489,0V31.8A3.8,3.8,0,0,0,12.693,28Z" transform="translate(-0.255 -1.328)" fill="#eaeaea"/>
      <path id="Trazado_1160051" data-name="Trazado 1160051" d="M30.693,39H28.8a.949.949,0,1,1-1.9,0H25a2.847,2.847,0,0,0,5.693,0Z" transform="translate(-1.175 -1.89)"/>
      <path id="Trazado_1160052" data-name="Trazado 1160052" d="M35.847,41.847A2.85,2.85,0,0,0,38.693,39H36.8a.949.949,0,0,1-1.9,0H33A2.85,2.85,0,0,0,35.847,41.847Z" transform="translate(-1.584 -1.89)"/>
      <path id="Trazado_1160053" data-name="Trazado 1160053" d="M22.08,60.365V53.723a.949.949,0,0,0-1.249-.9,17.511,17.511,0,0,1-5.547.9H11.642V50.876h3.081a19.474,19.474,0,0,0,7.3-1.422,6.6,6.6,0,0,1,2.468-.475h4.69L26.9,54.3a.948.948,0,0,0,.113.943l2.847,3.8a.949.949,0,0,0,1.518,0l2.847-3.8a.948.948,0,0,0,.113-.943l-2.28-5.32h4.69a6.727,6.727,0,0,1,2.549.508,19.358,19.358,0,0,0,7.219,1.39H49.6v2.847H45.957a17.511,17.511,0,0,1-5.547-.9.949.949,0,0,0-1.249.9v6.642h1.9V54.993a19.4,19.4,0,0,0,4.9.627h4.591a.949.949,0,0,0,.949-.949H52.82a3.789,3.789,0,0,0,3.157-1.688l.07-.106a1.9,1.9,0,0,0-1.579-2.95H51.5a.949.949,0,0,0-.949-.949h-4.03a17.593,17.593,0,0,1-6.6-1.287,8.516,8.516,0,0,0-3.172-.611h-.46A9.482,9.482,0,1,0,21.584,36.6c-.019.014-.04.026-.06.04l.03.043a9.464,9.464,0,0,0,3.4,10.4h-.46a8.636,8.636,0,0,0-3.253.643,17.477,17.477,0,0,1-6.515,1.254h-4.03a.949.949,0,0,0-.949.949H6.9a1.9,1.9,0,0,0-1.581,2.947l.07.107a3.789,3.789,0,0,0,3.158,1.69h1.2a.949.949,0,0,0,.949.949h4.591a19.4,19.4,0,0,0,4.9-.627v5.372ZM51.5,51.825H54.47l-.07.105a1.9,1.9,0,0,1-1.579.845H51.5ZM32.38,54.541l-1.759,2.345-1.759-2.345,1.759-4.1ZM30.621,31.9a7.587,7.587,0,0,1,6.325,3.4,15.174,15.174,0,0,0-12.4-.351A7.576,7.576,0,0,1,30.621,31.9Zm-7.591,7.591a7.57,7.57,0,0,1,.2-1.7,13.232,13.232,0,0,1,14.862.392,7.588,7.588,0,1,1-15.061,1.31ZM9.745,52.774h-1.2a1.894,1.894,0,0,1-1.577-.842l-.07-.107H9.745Z" transform="translate(-0.153 -1.431)"/>
      <path id="Trazado_1160054" data-name="Trazado 1160054" d="M31.489,20.978A9.489,9.489,0,1,0,22,11.489,9.5,9.5,0,0,0,31.489,20.978Zm-3.913-3L29.691,16.4l.983.492.545,2.18a7.53,7.53,0,0,1-3.643-1.086Zm11.5-6.492a7.549,7.549,0,0,1-.481,2.635L34.866,12.88l1.208-1.813a.954.954,0,0,0,.159-.527V8.2L37.742,7.2a7.539,7.539,0,0,1,1.338,4.294Zm-15.183,0a7.566,7.566,0,0,1,2.517-5.63l1.556,1.556a.945.945,0,0,0,.671.278h1.214L30.4,9.335,29.2,10.54h-1.5a.946.946,0,0,0-.569.19l-3.069,2.3a7.643,7.643,0,0,1-.158-1.542Zm4.112.949h1.582a.945.945,0,0,0,.671-.278l1.9-1.9a.948.948,0,0,0,.229-.971L31.44,6.445a.947.947,0,0,0-.9-.649h-1.5L28,4.757a7.542,7.542,0,0,1,8.466,1.012L34.758,6.9a.95.95,0,0,0-.422.789v2.559L32.6,12.86a.948.948,0,0,0,.49,1.426l4.622,1.541A7.6,7.6,0,0,1,33.133,18.9L32.41,16a.95.95,0,0,0-.5-.619l-1.9-.949a.95.95,0,0,0-.994.09L26.04,16.762a7.635,7.635,0,0,1-1.321-1.857Z" transform="translate(-1.022)"/>
      <path id="Trazado_1160055" data-name="Trazado 1160055" d="M5.8,34.062v.018H5.82a9.415,9.415,0,0,0,11.338,0h.025v-.018a9.489,9.489,0,1,0-11.387,0Zm9.489-1.009a7.529,7.529,0,0,1-7.591,0v-1.82a2.85,2.85,0,0,1,2.847-2.847h1.9a2.85,2.85,0,0,1,2.847,2.847ZM9.591,24.591a1.9,1.9,0,1,1,1.9,1.9A1.9,1.9,0,0,1,9.591,24.591Zm1.9-5.693a7.579,7.579,0,0,1,5.693,12.6v-.26a4.74,4.74,0,0,0-2.741-4.285,3.8,3.8,0,1,0-5.9,0A4.74,4.74,0,0,0,5.8,31.234v.26a7.579,7.579,0,0,1,5.693-12.6Z" transform="translate(0 -0.766)"/>
      <path id="Trazado_1160056" data-name="Trazado 1160056" d="M51.489,35.978A9.489,9.489,0,1,0,42,26.489,9.5,9.5,0,0,0,51.489,35.978Zm0-17.08A7.591,7.591,0,1,1,43.9,26.489,7.6,7.6,0,0,1,51.489,18.9Z" transform="translate(-2.044 -0.766)"/>
      <path id="Trazado_1160057" data-name="Trazado 1160057" d="M49.321,29.54h1.423v2.847h1.9V29.54h1.423a3.315,3.315,0,0,0,.991-6.481,3.776,3.776,0,0,0-6.726,0,3.315,3.315,0,0,0,.991,6.481Zm-.185-4.722a.947.947,0,0,0,.773-.633,1.88,1.88,0,0,1,3.568,0,.947.947,0,0,0,.773.633,1.418,1.418,0,0,1-.185,2.825H49.321a1.418,1.418,0,0,1-.185-2.824Z" transform="translate(-2.248 -0.971)"/>
      <path id="Trazado_1160058" data-name="Trazado 1160058" d="M55,47h1.9v1.9H55Z" transform="translate(-2.708 -2.299)"/>
      <path id="Trazado_1160059" data-name="Trazado 1160059" d="M55,43h1.9v1.9H55Z" transform="translate(-2.708 -2.095)"/>
      <path id="Trazado_1160060" data-name="Trazado 1160060" d="M55,39h1.9v1.9H55Z" transform="translate(-2.708 -1.89)"/>
      <path id="Trazado_1160061" data-name="Trazado 1160061" d="M7,47H8.9v1.9H7Z" transform="translate(-0.255 -2.299)"/>
      <path id="Trazado_1160062" data-name="Trazado 1160062" d="M7,43H8.9v1.9H7Z" transform="translate(-0.255 -2.095)"/>
      <path id="Trazado_1160063" data-name="Trazado 1160063" d="M7,39H8.9v1.9H7Z" transform="translate(-0.255 -1.89)"/>
    </g>
  </g>
</svg>
