<svg xmlns="http://www.w3.org/2000/svg" xmlns:xlink="http://www.w3.org/1999/xlink" width="93.934" height="93.934" viewBox="0 0 93.934 93.934">
  <defs>
    <filter id="Trazado_978624" x="0" y="0" width="93.934" height="93.934" filterUnits="userSpaceOnUse">
      <feOffset dy="3" input="SourceAlpha"/>
      <feGaussianBlur stdDeviation="3" result="blur"/>
      <feFlood flood-opacity="0.161"/>
      <feComposite operator="in" in2="blur"/>
      <feComposite in="SourceGraphic"/>
    </filter>
  </defs>
  <g id="Grupo_1215733" data-name="Grupo 1215733" transform="translate(-190 -3143.381)">
    <g id="Grupo_1214679" data-name="Grupo 1214679" transform="translate(-631 2418.347)">
      <g id="Grupo_1212848" data-name="Grupo 1212848" transform="translate(212 -798.5)">
        <g id="Grupo_1210963" data-name="Grupo 1210963" transform="translate(0 -377.186)">
          <g id="Grupo_1208068" data-name="Grupo 1208068" transform="translate(412 470.719)">
            <g id="Grupo_1144123" data-name="Grupo 1144123" transform="translate(206 1436)">
              <g transform="matrix(1, 0, 0, 1, -9, -6)" filter="url(#Trazado_978624)">
                <g id="Trazado_978624-2" data-name="Trazado 978624" transform="translate(9 6)" fill="#f2f4f0">
                  <path d="M 37.966796875 74.43359375 C 33.04315185546875 74.43359375 28.26757431030273 73.46962738037109 23.77274131774902 71.56847381591797 C 19.43047523498535 69.73184967041016 15.53040790557861 67.10224914550781 12.18087482452393 63.75271987915039 C 8.831341743469238 60.4031867980957 6.201741218566895 56.50312042236328 4.365118980407715 52.16086196899414 C 2.463963508605957 47.66601943969727 1.499996900558472 42.89044189453125 1.499996900558472 37.966796875 C 1.499996900558472 33.04315185546875 2.463963508605957 28.26757431030273 4.365118980407715 23.77274131774902 C 6.201741218566895 19.43047523498535 8.831341743469238 15.53040790557861 12.18087482452393 12.18087482452393 C 15.53040790557861 8.831341743469238 19.43047523498535 6.201741218566895 23.77274131774902 4.365118980407715 C 28.26757431030273 2.463963508605957 33.04315185546875 1.499996900558472 37.966796875 1.499996900558472 C 42.89044189453125 1.499996900558472 47.66601943969727 2.463963508605957 52.16086196899414 4.365118980407715 C 56.50312042236328 6.201741218566895 60.4031867980957 8.831341743469238 63.75271987915039 12.18087482452393 C 67.10224914550781 15.53040790557861 69.73184967041016 19.43047523498535 71.56847381591797 23.77274131774902 C 73.46962738037109 28.26757431030273 74.43359375 33.04315185546875 74.43359375 37.966796875 C 74.43359375 42.89044189453125 73.46962738037109 47.66601943969727 71.56847381591797 52.16086196899414 C 69.73184967041016 56.50313186645508 67.10224914550781 60.4031867980957 63.75271987915039 63.75271987915039 C 60.4031867980957 67.10224914550781 56.50313186645508 69.73184967041016 52.16086196899414 71.56847381591797 C 47.66601943969727 73.46962738037109 42.89044189453125 74.43359375 37.966796875 74.43359375 Z" stroke="none"/>
                  <path d="M 37.966796875 3 C 33.2449836730957 3 28.66600799560547 3.924095153808594 24.35705947875977 5.746635437011719 C 20.19359588623047 7.507621765136719 16.45379638671875 10.02927398681641 13.24153518676758 13.24153518676758 C 10.02927398681641 16.45379638671875 7.507621765136719 20.19359588623047 5.746635437011719 24.35705947875977 C 3.924095153808594 28.66600799560547 3 33.2449836730957 3 37.966796875 C 3 42.6886100769043 3.924095153808594 47.26758575439453 5.746635437011719 51.57653427124023 C 7.507621765136719 55.73999786376953 10.02927398681641 59.47979736328125 13.24153518676758 62.69205856323242 C 16.45379638671875 65.90431976318359 20.19359588623047 68.42597198486328 24.35705947875977 70.18695831298828 C 28.66600799560547 72.00949859619141 33.2449836730957 72.93359375 37.966796875 72.93359375 C 42.6886100769043 72.93359375 47.26758575439453 72.00949859619141 51.57653427124023 70.18695831298828 C 55.73999786376953 68.42597198486328 59.47979736328125 65.90431976318359 62.69205856323242 62.69205856323242 C 65.90431976318359 59.47979736328125 68.42597198486328 55.73999786376953 70.18695831298828 51.57653427124023 C 72.00949859619141 47.26758575439453 72.93359375 42.6886100769043 72.93359375 37.966796875 C 72.93359375 33.2449836730957 72.00949859619141 28.66600799560547 70.18695831298828 24.35705947875977 C 68.42597198486328 20.19359588623047 65.90431976318359 16.45379638671875 62.69205856323242 13.24153518676758 C 59.47979736328125 10.02927398681641 55.73999786376953 7.507621765136719 51.57653427124023 5.746635437011719 C 47.26758575439453 3.924095153808594 42.6886100769043 3 37.966796875 3 M 37.966796875 0 C 58.93528366088867 0 75.93359375 16.99831008911133 75.93359375 37.966796875 C 75.93359375 58.93528366088867 58.93528366088867 75.93359375 37.966796875 75.93359375 C 16.99831008911133 75.93359375 0 58.93528366088867 0 37.966796875 C 0 16.99831008911133 16.99831008911133 0 37.966796875 0 Z" stroke="none" fill="#899e78"/>
                </g>
              </g>
            </g>
          </g>
        </g>
      </g>
    </g>
    <g id="obediente_5_" data-name="obediente (5)" transform="translate(165.488 3160.669)">
      <g id="Grupo_1215725" data-name="Grupo 1215725" transform="translate(50.793 0.782)">
        <path id="Trazado_1160379" data-name="Trazado 1160379" d="M155.646,7.5h-29.18a.313.313,0,0,0-.313.313v3.264l.131.1h25.786a.209.209,0,0,1,.208.208v20.53l.1.083,3.577,2.215V7.813a.313.313,0,0,0-.313-.313Z" transform="translate(-119 -7.5)" fill="#dbf1d0"/>
        <path id="Trazado_1160380" data-name="Trazado 1160380" d="M129.68,11.181V7.813a.313.313,0,0,1,.313-.313h-3.527a.313.313,0,0,0-.313.313v3.368Z" transform="translate(-119 -7.5)" fill="#c1e9af"/>
        <path id="Trazado_1160381" data-name="Trazado 1160381" d="M118.061,45.71V60.993l.059-.036a.6.6,0,0,1,.628,0l2.89,1.79V42.134a.313.313,0,0,0-.313-.313H92.145a.313.313,0,0,0-.313.313V45.4h25.916a.313.313,0,0,1,.313.313Z" transform="translate(-88.255 -38.244)" fill="#fff3de"/>
        <path id="Trazado_1160382" data-name="Trazado 1160382" d="M95.289,45.4V42.134a.313.313,0,0,1,.313-.313H92.145a.313.313,0,0,0-.313.313V45.4Z" transform="translate(-88.255 -38.244)" fill="#ffe5c2"/>
        <path id="Trazado_1160383" data-name="Trazado 1160383" d="M79.557,114.037a8.708,8.708,0,0,1-3.06-6.628V98.77a.6.6,0,0,1,.282-.507l10.537-6.527V76.455A.313.313,0,0,0,87,76.142H57.824a.313.313,0,0,0-.313.313v39.91a.313.313,0,0,0,.313.313H82.655Z" transform="translate(-57.511 -68.989)" fill="#dff6fd"/>
        <g id="Grupo_1215724" data-name="Grupo 1215724" transform="translate(0 7.153)">
          <path id="Trazado_1160384" data-name="Trazado 1160384" d="M61,116.365V76.455a.313.313,0,0,1,.313-.313h-3.49a.313.313,0,0,0-.313.313v39.91a.313.313,0,0,0,.313.313h3.49A.313.313,0,0,1,61,116.365Z" transform="translate(-57.511 -76.142)" fill="#c8effe"/>
        </g>
      </g>
      <g id="Grupo_1215729" data-name="Grupo 1215729" transform="translate(69.78 23.405)">
        <g id="Grupo_1215726" data-name="Grupo 1215726">
          <path id="Trazado_1160385" data-name="Trazado 1160385" d="M239.7,231.743v8.639a8.708,8.708,0,0,0,3.06,6.628l7.746,6.6a.6.6,0,0,0,.773,0l7.746-6.6a8.708,8.708,0,0,0,3.06-6.628v-8.639a.6.6,0,0,0-.282-.507l-10.6-6.563a.6.6,0,0,0-.628,0l-10.6,6.563A.6.6,0,0,0,239.7,231.743Z" transform="translate(-239.698 -224.584)" fill="#fac600"/>
        </g>
        <g id="Grupo_1215728" data-name="Grupo 1215728" transform="translate(0 4.868)">
          <g id="Grupo_1215727" data-name="Grupo 1215727">
            <path id="Trazado_1160386" data-name="Trazado 1160386" d="M245.921,287.439a8.708,8.708,0,0,1-3.06-6.628v-9.518l-2.881,1.784a.6.6,0,0,0-.282.507v8.639a8.708,8.708,0,0,0,3.06,6.628l7.746,6.6a.6.6,0,0,0,.773,0l2.023-1.724Z" transform="translate(-239.698 -271.293)" fill="#e8b800"/>
          </g>
        </g>
      </g>
      <g id="Grupo_1215730" data-name="Grupo 1215730" transform="translate(74.594 30.173)">
        <circle id="Elipse_14319" data-name="Elipse 14319" cx="6.378" cy="6.378" r="6.378" fill="#4fc123"/>
      </g>
      <g id="Grupo_1215731" data-name="Grupo 1215731" transform="translate(74.594 30.173)">
        <path id="Trazado_1160387" data-name="Trazado 1160387" d="M289.406,295.909a6.379,6.379,0,0,1,4.621-6.131,6.378,6.378,0,1,0,0,12.262A6.38,6.38,0,0,1,289.406,295.909Z" transform="translate(-285.893 -289.531)" fill="#47a920"/>
      </g>
      <g id="Grupo_1215732" data-name="Grupo 1215732" transform="translate(50.012 0)">
        <path id="Trazado_1160388" data-name="Trazado 1160388" d="M154.625,119.063a.782.782,0,1,0,0-1.563H144.311a.782.782,0,0,0,0,1.563Z" transform="translate(-133.783 -105.255)"/>
        <path id="Trazado_1160389" data-name="Trazado 1160389" d="M109.529,169.282a.782.782,0,0,0,.782.782h17.4a.782.782,0,0,0,0-1.563h-17.4A.782.782,0,0,0,109.529,169.282Z" transform="translate(-103.327 -150.94)"/>
        <path id="Trazado_1160390" data-name="Trazado 1160390" d="M110.311,205.063h17.4a.782.782,0,1,0,0-1.563h-17.4a.782.782,0,1,0,0,1.563Z" transform="translate(-103.327 -182.293)"/>
        <path id="Trazado_1160391" data-name="Trazado 1160391" d="M110.311,275.063h5.937a.782.782,0,0,0,0-1.563h-5.937a.782.782,0,0,0,0,1.563Z" transform="translate(-103.327 -244.998)"/>
        <path id="Trazado_1160392" data-name="Trazado 1160392" d="M92.164,34.857a.782.782,0,0,0,.782-.782V30.563a1.369,1.369,0,0,0-.652-1.171l-3.759-2.328V1.094A1.1,1.1,0,0,0,87.44,0H58.26a1.1,1.1,0,0,0-1.094,1.094V3.577H54.683a1.1,1.1,0,0,0-1.094,1.094V7.153H51.106a1.1,1.1,0,0,0-1.094,1.094v39.91a1.1,1.1,0,0,0,1.094,1.094h5.783a.782.782,0,0,0,0-1.563H51.575V8.717H79.818V23.095l-4.751,2.943a.78.78,0,0,0-.67-1.183H57a.782.782,0,1,0,0,1.563H74.4c.021,0,.041,0,.061,0L71.087,28.5H65.434a.782.782,0,0,0,0,1.563h3.657a1.38,1.38,0,0,0-.093.5V32.15H57a.782.782,0,1,0,0,1.563H69V35.8H57a.782.782,0,1,0,0,1.563H69V39.2c0,.081,0,.161,0,.242H57a.782.782,0,1,0,0,1.563H69.171a9.474,9.474,0,0,0,3.162,5.418l1.483,1.264H60.536a.782.782,0,0,0,0,1.563H75.65l4.429,3.774a1.372,1.372,0,0,0,1.787,0l7.746-6.6A9.475,9.475,0,0,0,92.945,39.2v-1.48a.782.782,0,0,0-1.563,0V39.2A7.914,7.914,0,0,1,88.6,45.235l-7.625,6.5-7.625-6.5A7.914,7.914,0,0,1,70.561,39.2V30.667l10.41-6.448,10.41,6.448v3.409a.782.782,0,0,0,.782.782ZM81.381,22.685V8.248a1.1,1.1,0,0,0-1.094-1.094H55.152V5.14H83.394v5.49a.782.782,0,1,0,1.563,0V4.671a1.1,1.1,0,0,0-1.094-1.094H58.728V1.563H86.971V26.1l-2.013-1.247V14.277a.782.782,0,1,0-1.563,0v9.6l-1.7-1.051a1.389,1.389,0,0,0-.316-.144Z" transform="translate(-50.012 0)"/>
        <path id="Trazado_1160393" data-name="Trazado 1160393" d="M278.394,289.189a7.159,7.159,0,1,0,7.159-7.159A7.167,7.167,0,0,0,278.394,289.189Zm12.756,0a5.6,5.6,0,1,1-5.6-5.6A5.6,5.6,0,0,1,291.15,289.189Z" transform="translate(-254.594 -252.639)"/>
        <path id="Trazado_1160394" data-name="Trazado 1160394" d="M320.221,332.445a.782.782,0,0,0-1.105,1.105L321,335.436a.782.782,0,0,0,1.105,0l2.923-2.923a.782.782,0,0,0-1.105-1.105l-2.371,2.371Z" transform="translate(-290.867 -296.665)"/>
      </g>
    </g>
  </g>
</svg>
