<svg xmlns="http://www.w3.org/2000/svg" xmlns:xlink="http://www.w3.org/1999/xlink" width="93.934" height="93.934" viewBox="0 0 93.934 93.934">
  <defs>
    <filter id="Trazado_982547" x="0" y="0" width="93.934" height="93.934" filterUnits="userSpaceOnUse">
      <feOffset dy="3" input="SourceAlpha"/>
      <feGaussianBlur stdDeviation="3" result="blur"/>
      <feFlood flood-opacity="0.161"/>
      <feComposite operator="in" in2="blur"/>
      <feComposite in="SourceGraphic"/>
    </filter>
  </defs>
  <g id="Grupo_1215673" data-name="Grupo 1215673" transform="translate(-1031.066 -2817.849)">
    <g id="Grupo_1214672" data-name="Grupo 1214672" transform="translate(-0.229 -2310.151)">
      <g id="Grupo_1214434" data-name="Grupo 1214434" transform="translate(-0.771 -2738.522)">
        <g id="Grupo_1183184" data-name="Grupo 1183184" transform="translate(1 1016.523)">
          <g id="Grupo_1179612" data-name="Grupo 1179612" transform="translate(848 4723.467)">
            <g id="Grupo_1175227" data-name="Grupo 1175227" transform="translate(-5.967 140.533)">
              <g id="Grupo_1167337" data-name="Grupo 1167337" transform="translate(198.033 1992)">
                <g id="Grupo_1166720" data-name="Grupo 1166720">
                  <g id="Grupo_1164305" data-name="Grupo 1164305">
                    <g id="Grupo_1163948" data-name="Grupo 1163948">
                      <g id="Grupo_1158168" data-name="Grupo 1158168">
                        <g id="Grupo_1152576" data-name="Grupo 1152576">
                          <g id="Grupo_1148633" data-name="Grupo 1148633">
                            <g id="Grupo_1148525" data-name="Grupo 1148525">
                              <g transform="matrix(1, 0, 0, 1, -9, -6)" filter="url(#Trazado_982547)">
                                <g id="Trazado_982547-2" data-name="Trazado 982547" transform="translate(9 6)" fill="#eae4dc">
                                  <path d="M 37.966796875 74.43359375 C 33.04315185546875 74.43359375 28.26757431030273 73.46962738037109 23.77274131774902 71.56847381591797 C 19.43047523498535 69.73184967041016 15.53040790557861 67.10224914550781 12.18087482452393 63.75271987915039 C 8.831341743469238 60.4031867980957 6.201741218566895 56.50312042236328 4.365118980407715 52.16086196899414 C 2.463963508605957 47.66601943969727 1.499996900558472 42.89044189453125 1.499996900558472 37.966796875 C 1.499996900558472 33.04315185546875 2.463963508605957 28.26757431030273 4.365118980407715 23.77274131774902 C 6.201741218566895 19.43047523498535 8.831341743469238 15.53040790557861 12.18087482452393 12.18087482452393 C 15.53040790557861 8.831341743469238 19.43047523498535 6.201741218566895 23.77274131774902 4.365118980407715 C 28.26757431030273 2.463963508605957 33.04315185546875 1.499996900558472 37.966796875 1.499996900558472 C 42.89044189453125 1.499996900558472 47.66601943969727 2.463963508605957 52.16086196899414 4.365118980407715 C 56.50312042236328 6.201741218566895 60.4031867980957 8.831341743469238 63.75271987915039 12.18087482452393 C 67.10224914550781 15.53040790557861 69.73184967041016 19.43047523498535 71.56847381591797 23.77274131774902 C 73.46962738037109 28.26757431030273 74.43359375 33.04315185546875 74.43359375 37.966796875 C 74.43359375 42.89044189453125 73.46962738037109 47.66601943969727 71.56847381591797 52.16086196899414 C 69.73184967041016 56.50313186645508 67.10224914550781 60.4031867980957 63.75271987915039 63.75271987915039 C 60.4031867980957 67.10224914550781 56.50313186645508 69.73184967041016 52.16086196899414 71.56847381591797 C 47.66601943969727 73.46962738037109 42.89044189453125 74.43359375 37.966796875 74.43359375 Z" stroke="none"/>
                                  <path d="M 37.966796875 3 C 33.2449836730957 3 28.66600799560547 3.924095153808594 24.35705947875977 5.746635437011719 C 20.19359588623047 7.507637023925781 16.45379638671875 10.02928161621094 13.24153518676758 13.24153518676758 C 10.02927398681641 16.45379638671875 7.507621765136719 20.19359588623047 5.746635437011719 24.35705947875977 C 3.924095153808594 28.66600799560547 3 33.2449836730957 3 37.966796875 C 3 42.6886100769043 3.924095153808594 47.26758575439453 5.746635437011719 51.57653427124023 C 7.507621765136719 55.73999786376953 10.02927398681641 59.47979736328125 13.24153518676758 62.69205856323242 C 16.45379638671875 65.90431976318359 20.19359588623047 68.42597198486328 24.35705947875977 70.18695831298828 C 28.66600799560547 72.00949859619141 33.2449836730957 72.93359375 37.966796875 72.93359375 C 42.6886100769043 72.93359375 47.26758575439453 72.00949859619141 51.57653427124023 70.18695831298828 C 55.73999786376953 68.42597198486328 59.47979736328125 65.90431976318359 62.69205856323242 62.69205856323242 C 65.90431976318359 59.47979736328125 68.42597198486328 55.73999786376953 70.18695831298828 51.57653427124023 C 72.00949859619141 47.26758575439453 72.93359375 42.6886100769043 72.93359375 37.966796875 C 72.93359375 33.2449836730957 72.00949859619141 28.66600799560547 70.18695831298828 24.35705947875977 C 68.42597198486328 20.19359588623047 65.90431976318359 16.45379638671875 62.69205856323242 13.24153518676758 C 59.47979736328125 10.02928161621094 55.73999786376953 7.507637023925781 51.57653427124023 5.746635437011719 C 47.26758575439453 3.924095153808594 42.6886100769043 3 37.966796875 3 M 37.966796875 0 C 58.93528366088867 0 75.93359375 16.99832153320312 75.93359375 37.966796875 C 75.93359375 58.93528366088867 58.93528366088867 75.93359375 37.966796875 75.93359375 C 16.99831008911133 75.93359375 0 58.93528366088867 0 37.966796875 C 0 16.99832153320312 16.99831008911133 0 37.966796875 0 Z" stroke="none" fill="#665b4e"/>
                                </g>
                              </g>
                            </g>
                          </g>
                        </g>
                      </g>
                    </g>
                  </g>
                </g>
              </g>
            </g>
          </g>
        </g>
      </g>
    </g>
    <g id="libro" transform="translate(1050.814 2834.781)">
      <path id="Trazado_1160064" data-name="Trazado 1160064" d="M58.577,31.65V55.19H27.96V31.65H33.3l-.047.149-.272.851-.268.851-.3.936a3.4,3.4,0,0,0,3.241,4.432h2.9a2.552,2.552,0,0,0,2.178,3.883h5.1a2.552,2.552,0,0,0,2.178-3.883h2.9a3.4,3.4,0,0,0,3.241-4.427l-.3-.948-.268-.851-.268-.842-.047-.149Z" transform="translate(-16.069 -18.189)" fill="#e1ebf4"/>
      <g id="Grupo_1215672" data-name="Grupo 1215672" transform="translate(0 0)">
        <path id="Trazado_1160065" data-name="Trazado 1160065" d="M11.554,24.687c-.361.471-.709.959-1.036,1.449a.851.851,0,1,0,1.415.944c.306-.46.633-.917.971-1.359a.851.851,0,0,0-1.351-1.034Z" transform="translate(-5.962 -13.996)" fill="#2d4356"/>
        <path id="Trazado_1160066" data-name="Trazado 1160066" d="M38.2,5.115a.849.849,0,0,0,1.113.457c.512-.214,1.036-.412,1.557-.591a.851.851,0,0,0-.55-1.61c-.557.19-1.116.4-1.663.63A.85.85,0,0,0,38.2,5.115Z" transform="translate(-21.913 -1.911)" fill="#2d4356"/>
        <path id="Trazado_1160067" data-name="Trazado 1160067" d="M28.292,10.984a.847.847,0,0,0,.474-.145c.461-.31.936-.608,1.413-.885a.851.851,0,1,0-.855-1.471c-.509.3-1.016.613-1.508.944a.851.851,0,0,0,.476,1.556Z" transform="translate(-15.77 -4.809)" fill="#2d4356"/>
        <path id="Trazado_1160068" data-name="Trazado 1160068" d="M19.615,15.683c-.444.392-.881.8-1.3,1.22a.851.851,0,1,0,1.205,1.2c.39-.392.8-.777,1.216-1.144a.85.85,0,1,0-1.125-1.276Z" transform="translate(-10.385 -8.891)" fill="#2d4356"/>
        <path id="Trazado_1160069" data-name="Trazado 1160069" d="M6.294,37.431c.211-.512.442-1.024.687-1.523a.851.851,0,1,0-1.527-.75c-.262.532-.508,1.079-.733,1.624a.85.85,0,1,0,1.572.649Z" transform="translate(-2.676 -19.932)" fill="#2d4356"/>
        <path id="Trazado_1160070" data-name="Trazado 1160070" d="M.851,61.486a.851.851,0,0,0,.851-.851v-.049c0-.543.017-1.088.051-1.621a.851.851,0,1,0-1.7-.107C.018,59.427,0,60.009,0,60.587v.049a.851.851,0,0,0,.851.851Z" transform="translate(0 -33.368)" fill="#2d4356"/>
        <path id="Trazado_1160071" data-name="Trazado 1160071" d="M2.611,46.1a.851.851,0,0,0-1.04.6c-.152.572-.286,1.156-.4,1.735a.851.851,0,1,0,1.67.326c.106-.542.232-1.089.374-1.626a.851.851,0,0,0-.6-1.04Z" transform="translate(-0.664 -26.476)" fill="#2d4356"/>
        <path id="Trazado_1160072" data-name="Trazado 1160072" d="M62.679,1.7h.073c.534,0,1.072.017,1.6.049l.054,0a.851.851,0,0,0,.052-1.7C63.894.018,63.321,0,62.752,0h-.073a.851.851,0,0,0,0,1.7Z" transform="translate(-35.533 0)" fill="#2d4356"/>
        <path id="Trazado_1160073" data-name="Trazado 1160073" d="M87.988,7.045a.851.851,0,0,0,.375-1.614c-.533-.261-1.08-.508-1.624-.732a.851.851,0,1,0-.648,1.573c.511.21,1.023.441,1.524.686A.847.847,0,0,0,87.988,7.045Z" transform="translate(-49.174 -2.664)" fill="#2d4356"/>
        <path id="Trazado_1160074" data-name="Trazado 1160074" d="M74.936,1.161a.851.851,0,0,0-.326,1.67c.542.105,1.089.231,1.627.373a.85.85,0,0,0,.434-1.645c-.573-.151-1.157-.285-1.735-.4Z" transform="translate(-42.484 -0.658)" fill="#2d4356"/>
        <path id="Trazado_1160075" data-name="Trazado 1160075" d="M50.591,2.53a.865.865,0,0,0,.168-.017c.543-.109,1.1-.2,1.646-.274A.85.85,0,1,0,52.181.553C51.6.631,51,.729,50.424.846a.851.851,0,0,0,.167,1.685Z" transform="translate(-28.586 -0.314)" fill="#2d4356"/>
        <path id="Trazado_1160076" data-name="Trazado 1160076" d="M120.852,38.6a.851.851,0,0,0-1.569.657c.214.511.413,1.035.592,1.557a.85.85,0,1,0,1.609-.552C121.293,39.7,121.081,39.146,120.852,38.6Z" transform="translate(-68.515 -21.883)" fill="#2d4356"/>
        <path id="Trazado_1160077" data-name="Trazado 1160077" d="M2.5,72.588c-.108-.543-.2-1.1-.273-1.646a.85.85,0,0,0-1.686.223c.077.586.175,1.177.291,1.757a.851.851,0,0,0,.833.684.861.861,0,0,0,.168-.017.851.851,0,0,0,.667-1Z" transform="translate(-0.309 -40.346)" fill="#2d4356"/>
        <path id="Trazado_1160078" data-name="Trazado 1160078" d="M96.677,11.9c.461.307.919.633,1.359.97A.851.851,0,1,0,99.07,11.52c-.47-.359-.958-.707-1.45-1.035a.85.85,0,1,0-.942,1.416Z" transform="translate(-55.343 -5.944)" fill="#2d4356"/>
        <path id="Trazado_1160079" data-name="Trazado 1160079" d="M122.792,50.7c.109.54.2,1.094.276,1.647a.851.851,0,0,0,.842.737.9.9,0,0,0,.115-.007.851.851,0,0,0,.729-.957c-.08-.589-.179-1.18-.294-1.756a.851.851,0,0,0-1.668.336Z" transform="translate(-70.56 -28.554)" fill="#2d4356"/>
        <path id="Trazado_1160080" data-name="Trazado 1160080" d="M9.925,93.5a.85.85,0,1,0-1.471.854c.3.51.613,1.017.943,1.508a.85.85,0,1,0,1.412-.948C10.5,94.452,10.2,93.977,9.925,93.5Z" transform="translate(-4.792 -53.491)" fill="#2d4356"/>
        <path id="Trazado_1160081" data-name="Trazado 1160081" d="M108.382,19.573c-.391-.443-.8-.879-1.221-1.3a.851.851,0,1,0-1.2,1.207c.393.39.778.8,1.145,1.214a.851.851,0,0,0,1.276-1.126Z" transform="translate(-60.752 -10.362)" fill="#2d4356"/>
        <path id="Trazado_1160082" data-name="Trazado 1160082" d="M113.526,96.585a.85.85,0,0,0-1.18.234c-.309.461-.636.918-.974,1.356a.851.851,0,0,0,1.349,1.037c.36-.468.709-.955,1.038-1.447A.851.851,0,0,0,113.526,96.585Z" transform="translate(-63.905 -55.425)" fill="#2d4356"/>
        <path id="Trazado_1160083" data-name="Trazado 1160083" d="M104.4,106.081c-.392.392-.8.776-1.218,1.142A.85.85,0,0,0,104.3,108.5c.444-.39.88-.8,1.3-1.217a.85.85,0,1,0-1.2-1.2Z" transform="translate(-59.132 -60.822)" fill="#2d4356"/>
        <path id="Trazado_1160084" data-name="Trazado 1160084" d="M5.553,84.165c-.214-.514-.412-1.038-.589-1.557a.851.851,0,0,0-1.611.547c.189.555.4,1.114.629,1.664a.85.85,0,0,0,1.57-.655Z" transform="translate(-1.901 -47.144)" fill="#2d4356"/>
        <path id="Trazado_1160085" data-name="Trazado 1160085" d="M124.775,61.771a.851.851,0,0,0-.851.851v.1c0,.556-.018,1.118-.054,1.669a.851.851,0,0,0,.794.9l.056,0a.851.851,0,0,0,.848-.8c.038-.588.057-1.186.057-1.779v-.1a.851.851,0,0,0-.851-.851Z" transform="translate(-71.188 -35.5)" fill="#2d4356"/>
        <path id="Trazado_1160086" data-name="Trazado 1160086" d="M94.866,113.688c-.463.31-.939.607-1.415.883a.85.85,0,0,0,.852,1.472c.508-.294,1.016-.611,1.51-.941a.851.851,0,1,0-.947-1.414Z" transform="translate(-53.463 -65.255)" fill="#2d4356"/>
        <path id="Trazado_1160087" data-name="Trazado 1160087" d="M119.511,85.788a.85.85,0,0,0-1.111.46c-.213.514-.445,1.026-.69,1.521a.851.851,0,1,0,1.525.754c.261-.529.509-1.075.737-1.624a.851.851,0,0,0-.46-1.111Z" transform="translate(-67.597 -49.265)" fill="#2d4356"/>
        <path id="Trazado_1160088" data-name="Trazado 1160088" d="M123.31,74.107a.849.849,0,0,0-1,.67c-.108.545-.235,1.092-.377,1.626a.851.851,0,1,0,1.644.439c.152-.569.287-1.153.4-1.734a.85.85,0,0,0-.669-1Z" transform="translate(-70.059 -42.58)" fill="#2d4356"/>
        <path id="Trazado_1160089" data-name="Trazado 1160089" d="M115.951,29.274c-.3-.508-.615-1.015-.945-1.506a.851.851,0,0,0-1.411.95c.311.461.609.936.887,1.413a.851.851,0,1,0,1.469-.857Z" transform="translate(-65.2 -15.742)" fill="#2d4356"/>
        <path id="Trazado_1160090" data-name="Trazado 1160090" d="M84.112,119.348c-.509.211-1.033.409-1.558.588a.851.851,0,1,0,.547,1.611c.561-.191,1.12-.4,1.664-.628a.851.851,0,0,0-.653-1.571Z" transform="translate(-47.112 -68.552)" fill="#2d4356"/>
        <path id="Trazado_1160091" data-name="Trazado 1160091" d="M72.532,122.827c-.54.107-1.095.2-1.648.272a.85.85,0,1,0,.223,1.686c.589-.078,1.18-.175,1.756-.289a.851.851,0,1,0-.331-1.669Z" transform="translate(-40.313 -70.58)" fill="#2d4356"/>
        <path id="Trazado_1160092" data-name="Trazado 1160092" d="M60.579,123.927h-.031c-.544,0-1.1-.018-1.639-.052a.851.851,0,1,0-.108,1.7c.575.037,1.159.055,1.755.055h.019l0-.851v.851a.851.851,0,0,0,0-1.7Z" transform="translate(-33.336 -71.19)" fill="#2d4356"/>
        <path id="Trazado_1160093" data-name="Trazado 1160093" d="M27.035,112.38c-.461-.309-.918-.635-1.358-.972a.85.85,0,0,0-1.035,1.35c.468.359.956.708,1.448,1.037a.85.85,0,0,0,.944-1.415Z" transform="translate(-13.97 -63.926)" fill="#2d4356"/>
        <path id="Trazado_1160094" data-name="Trazado 1160094" d="M48.71,122.324c-.543-.106-1.09-.233-1.626-.375a.85.85,0,0,0-.437,1.644c.571.152,1.155.287,1.734.4a.86.86,0,0,0,.165.016.851.851,0,0,0,.163-1.685Z" transform="translate(-26.445 -70.068)" fill="#2d4356"/>
        <path id="Trazado_1160095" data-name="Trazado 1160095" d="M37.38,118.424c-.512-.211-1.024-.443-1.522-.689a.851.851,0,1,0-.752,1.526c.531.262,1.077.509,1.624.735a.851.851,0,0,0,.65-1.572Z" transform="translate(-19.903 -67.613)" fill="#2d4356"/>
        <path id="Trazado_1160096" data-name="Trazado 1160096" d="M16.921,103.221a.851.851,0,0,0-1.277,1.125c.392.445.8.882,1.218,1.3a.851.851,0,1,0,1.2-1.2C17.674,104.049,17.29,103.64,16.921,103.221Z" transform="translate(-8.869 -59.156)" fill="#2d4356"/>
        <path id="Trazado_1160097" data-name="Trazado 1160097" d="M79.506,78H71.851a.851.851,0,1,0,0,1.7h7.655a.851.851,0,0,0,0-1.7Z" transform="translate(-40.804 -44.827)" fill="#2d4356"/>
        <path id="Trazado_1160098" data-name="Trazado 1160098" d="M79.506,70H71.851a.851.851,0,1,0,0,1.7h7.655a.851.851,0,0,0,0-1.7Z" transform="translate(-40.804 -40.229)" fill="#2d4356"/>
        <path id="Trazado_1160099" data-name="Trazado 1160099" d="M79.506,62H71.851a.851.851,0,1,0,0,1.7h7.655a.851.851,0,0,0,0-1.7Z" transform="translate(-40.804 -35.632)" fill="#2d4356"/>
        <path id="Trazado_1160100" data-name="Trazado 1160100" d="M43.506,78H35.851a.851.851,0,0,0,0,1.7h7.655a.851.851,0,1,0,0-1.7Z" transform="translate(-20.115 -44.827)" fill="#2d4356"/>
        <path id="Trazado_1160101" data-name="Trazado 1160101" d="M43.506,70H35.851a.851.851,0,0,0,0,1.7h7.655a.851.851,0,1,0,0-1.7Z" transform="translate(-20.115 -40.229)" fill="#2d4356"/>
        <path id="Trazado_1160102" data-name="Trazado 1160102" d="M43.506,62H35.851a.851.851,0,0,0,0,1.7h7.655a.851.851,0,1,0,0-1.7Z" transform="translate(-20.115 -35.632)" fill="#2d4356"/>
        <path id="Trazado_1160103" data-name="Trazado 1160103" d="M55.426,33.4h-1.7V31.688A1.7,1.7,0,0,0,52.024,30H47.333l.536,1.693,4.155,0V53.846H39.265a2.568,2.568,0,0,0-.851.14V41.8h-1.7V53.987a2.567,2.567,0,0,0-.851-.14L23.1,53.859V31.7h4.151l.54-1.7H23.1a1.7,1.7,0,0,0-1.7,1.688V33.4H19.7A1.7,1.7,0,0,0,18,35.1V57.219a1.7,1.7,0,0,0,1.7,1.7H35.862a2.543,2.543,0,0,0,1.7-.655,2.543,2.543,0,0,0,1.7.655H55.426a1.7,1.7,0,0,0,1.7-1.7V35.1a1.7,1.7,0,0,0-1.7-1.7ZM35.862,57.219H19.7V35.1h1.7V53.859a1.7,1.7,0,0,0,1.7,1.688H35.862a.836.836,0,0,1,.851.821A.853.853,0,0,1,35.862,57.219Zm19.564,0H39.265a.853.853,0,0,1-.851-.851.836.836,0,0,1,.851-.821H52.024a1.7,1.7,0,0,0,1.7-1.688V35.1h1.7Z" transform="translate(-10.345 -17.241)" fill="#2d4356"/>
      </g>
      <path id="Trazado_1160104" data-name="Trazado 1160104" d="M83.012,42V64.115H66.851A.853.853,0,0,1,66,63.265a.836.836,0,0,1,.851-.821H79.609a1.7,1.7,0,0,0,1.7-1.688V42Z" transform="translate(-37.931 -24.138)" fill="#9387a2"/>
      <path id="Trazado_1160105" data-name="Trazado 1160105" d="M39.012,63.265a.853.853,0,0,1-.851.851H22V42h1.7V60.755a1.7,1.7,0,0,0,1.7,1.688H38.161a.836.836,0,0,1,.851.821Z" transform="translate(-12.644 -24.138)" fill="#9387a2"/>
      <path id="Trazado_1160106" data-name="Trazado 1160106" d="M35.851,55.7h7.655a.843.843,0,0,0,.556-.211A2.561,2.561,0,0,1,42.418,54H35.851a.851.851,0,0,0,0,1.7Z" transform="translate(-20.115 -31.034)" fill="#2d4356"/>
      <path id="Trazado_1160107" data-name="Trazado 1160107" d="M79.9,54H73.337a2.561,2.561,0,0,1-1.644,1.49.843.843,0,0,0,.556.211H79.9a.851.851,0,1,0,0-1.7Z" transform="translate(-41.202 -31.034)" fill="#2d4356"/>
      <path id="Trazado_1160108" data-name="Trazado 1160108" d="M60.642,25.817l-2.467-7.77a.849.849,0,0,0-.812-.6H52.238V16.6a.851.851,0,1,0-1.7,0v.851H45.412a.849.849,0,0,0-.812.6l-2.467,7.77a1.7,1.7,0,0,0,1.62,2.212h3.364a1.7,1.7,0,0,0,1.625-2.216l-2.118-6.66h3.913V30.21h-1.7a.851.851,0,1,0,0,1.7h5.1a.851.851,0,1,0,0-1.7h-1.7V19.152h3.913l-2.118,6.664a1.7,1.7,0,0,0,1.625,2.212h3.364a1.7,1.7,0,0,0,1.62-2.212Zm-13.524.51H43.754l1.684-5.3Zm8.54,0,1.68-5.3,1.684,5.3Z" transform="translate(-24.169 -9.052)" fill="#2d4356"/>
      <path id="Trazado_1160109" data-name="Trazado 1160109" d="M77.4,33.459H74.04l1.68-5.3Z" transform="translate(-42.551 -16.184)" fill="#ffdb80"/>
      <path id="Trazado_1160110" data-name="Trazado 1160110" d="M49.414,33.459H46.05l1.684-5.3Z" transform="translate(-26.465 -16.184)" fill="#ffdb80"/>
      <path id="Trazado_1160111" data-name="Trazado 1160111" d="M22,42h1.7v.851H22Z" transform="translate(-12.644 -24.138)" fill="#dccef2" opacity="0.2"/>
      <path id="Trazado_1160112" data-name="Trazado 1160112" d="M79.609,84.07v.851H66.851a2.568,2.568,0,0,0-.851.14V84.21a2.568,2.568,0,0,1,.851-.14Z" transform="translate(-37.931 -48.315)" fill="#9fa5aa" opacity="0.5"/>
      <path id="Trazado_1160113" data-name="Trazado 1160113" d="M43.609,84.21v.851a2.567,2.567,0,0,0-.851-.14L30,84.933v-.851l12.759-.013A2.568,2.568,0,0,1,43.609,84.21Z" transform="translate(-17.241 -48.315)" fill="#9fa5aa" opacity="0.5"/>
      <path id="Trazado_1160114" data-name="Trazado 1160114" d="M102,42h1.7v.851H102Z" transform="translate(-58.62 -24.138)" fill="#dccef2" opacity="0.2"/>
      <path id="Trazado_1160115" data-name="Trazado 1160115" d="M34.151,34l-.268.851H30V34Z" transform="translate(-17.241 -19.54)" fill="#fff" opacity="0.5"/>
      <path id="Trazado_1160116" data-name="Trazado 1160116" d="M92.385,33.97v.851l-3.887,0-.268-.851Z" transform="translate(-50.706 -19.523)" fill="#fff" opacity="0.5"/>
      <path id="Trazado_1160117" data-name="Trazado 1160117" d="M39.012,91.431a.853.853,0,0,1-.851.851H22v-.851H38.161a.847.847,0,0,0,.732-.421A.8.8,0,0,1,39.012,91.431Z" transform="translate(-12.644 -52.304)" fill="#5f5968" opacity="0.5"/>
      <path id="Trazado_1160118" data-name="Trazado 1160118" d="M83.012,91.431v.851H66.851A.853.853,0,0,1,66,91.431a.8.8,0,0,1,.119-.421.847.847,0,0,0,.732.421Z" transform="translate(-37.931 -52.304)" fill="#5f5968" opacity="0.5"/>
      <path id="Trazado_1160119" data-name="Trazado 1160119" d="M49.414,39.471H46.05l.272-.851h2.824Z" transform="translate(-26.465 -22.195)" fill="#ad9359" opacity="0.45"/>
      <path id="Trazado_1160120" data-name="Trazado 1160120" d="M77.4,39.471H74.04l.268-.851h2.824Z" transform="translate(-42.551 -22.195)" fill="#ad9359" opacity="0.45"/>
    </g>
  </g>
</svg>
