<svg xmlns="http://www.w3.org/2000/svg" xmlns:xlink="http://www.w3.org/1999/xlink" width="93.934" height="93.934" viewBox="0 0 93.934 93.934">
  <defs>
    <filter id="Trazado_982547" x="0" y="0" width="93.934" height="93.934" filterUnits="userSpaceOnUse">
      <feOffset dy="3" input="SourceAlpha"/>
      <feGaussianBlur stdDeviation="3" result="blur"/>
      <feFlood flood-opacity="0.161"/>
      <feComposite operator="in" in2="blur"/>
      <feComposite in="SourceGraphic"/>
    </filter>
  </defs>
  <g id="Grupo_1215675" data-name="Grupo 1215675" transform="translate(-191.066 -2969.882)">
    <g id="Grupo_1214673" data-name="Grupo 1214673" transform="translate(-0.229 -2158.118)">
      <g id="Grupo_1214432" data-name="Grupo 1214432" transform="translate(-0.771 -2738.674)">
        <g id="Grupo_1183196" data-name="Grupo 1183196" transform="translate(1 1016.674)">
          <g id="Grupo_1179610" data-name="Grupo 1179610" transform="translate(8 4723.467)">
            <g id="Grupo_1175227" data-name="Grupo 1175227" transform="translate(-5.967 140.533)">
              <g id="Grupo_1167337" data-name="Grupo 1167337" transform="translate(198.033 1992)">
                <g id="Grupo_1166720" data-name="Grupo 1166720">
                  <g id="Grupo_1164305" data-name="Grupo 1164305">
                    <g id="Grupo_1163948" data-name="Grupo 1163948">
                      <g id="Grupo_1158168" data-name="Grupo 1158168">
                        <g id="Grupo_1152576" data-name="Grupo 1152576">
                          <g id="Grupo_1148633" data-name="Grupo 1148633">
                            <g id="Grupo_1148525" data-name="Grupo 1148525">
                              <g transform="matrix(1, 0, 0, 1, -9, -6)" filter="url(#Trazado_982547)">
                                <g id="Trazado_982547-2" data-name="Trazado 982547" transform="translate(9 6)" fill="#eae4dc">
                                  <path d="M 37.966796875 74.43359375 C 33.04315185546875 74.43359375 28.26757431030273 73.46962738037109 23.77274131774902 71.56847381591797 C 19.43047523498535 69.73184967041016 15.53040790557861 67.10224914550781 12.18087482452393 63.75271987915039 C 8.831341743469238 60.4031867980957 6.201741218566895 56.50312042236328 4.365118980407715 52.16086196899414 C 2.463963508605957 47.66601943969727 1.499996900558472 42.89044189453125 1.499996900558472 37.966796875 C 1.499996900558472 33.04315185546875 2.463963508605957 28.26757431030273 4.365118980407715 23.77274131774902 C 6.201741218566895 19.43047523498535 8.831341743469238 15.53040790557861 12.18087482452393 12.18087482452393 C 15.53040790557861 8.831341743469238 19.43047523498535 6.201741218566895 23.77274131774902 4.365118980407715 C 28.26757431030273 2.463963508605957 33.04315185546875 1.499996900558472 37.966796875 1.499996900558472 C 42.89044189453125 1.499996900558472 47.66601943969727 2.463963508605957 52.16086196899414 4.365118980407715 C 56.50312042236328 6.201741218566895 60.4031867980957 8.831341743469238 63.75271987915039 12.18087482452393 C 67.10224914550781 15.53040790557861 69.73184967041016 19.43047523498535 71.56847381591797 23.77274131774902 C 73.46962738037109 28.26757431030273 74.43359375 33.04315185546875 74.43359375 37.966796875 C 74.43359375 42.89044189453125 73.46962738037109 47.66601943969727 71.56847381591797 52.16086196899414 C 69.73184967041016 56.50313186645508 67.10224914550781 60.4031867980957 63.75271987915039 63.75271987915039 C 60.4031867980957 67.10224914550781 56.50313186645508 69.73184967041016 52.16086196899414 71.56847381591797 C 47.66601943969727 73.46962738037109 42.89044189453125 74.43359375 37.966796875 74.43359375 Z" stroke="none"/>
                                  <path d="M 37.966796875 3 C 33.2449836730957 3 28.66600799560547 3.924095153808594 24.35705947875977 5.746635437011719 C 20.19359588623047 7.507637023925781 16.45379638671875 10.02928161621094 13.24153518676758 13.24153518676758 C 10.02927398681641 16.45379638671875 7.507621765136719 20.19359588623047 5.746635437011719 24.35705947875977 C 3.924095153808594 28.66600799560547 3 33.2449836730957 3 37.966796875 C 3 42.6886100769043 3.924095153808594 47.26758575439453 5.746635437011719 51.57653427124023 C 7.507621765136719 55.73999786376953 10.02927398681641 59.47979736328125 13.24153518676758 62.69205856323242 C 16.45379638671875 65.90431976318359 20.19359588623047 68.42597198486328 24.35705947875977 70.18695831298828 C 28.66600799560547 72.00949859619141 33.2449836730957 72.93359375 37.966796875 72.93359375 C 42.6886100769043 72.93359375 47.26758575439453 72.00949859619141 51.57653427124023 70.18695831298828 C 55.73999786376953 68.42597198486328 59.47979736328125 65.90431976318359 62.69205856323242 62.69205856323242 C 65.90431976318359 59.47979736328125 68.42597198486328 55.73999786376953 70.18695831298828 51.57653427124023 C 72.00949859619141 47.26758575439453 72.93359375 42.6886100769043 72.93359375 37.966796875 C 72.93359375 33.2449836730957 72.00949859619141 28.66600799560547 70.18695831298828 24.35705947875977 C 68.42597198486328 20.19359588623047 65.90431976318359 16.45379638671875 62.69205856323242 13.24153518676758 C 59.47979736328125 10.02928161621094 55.73999786376953 7.507637023925781 51.57653427124023 5.746635437011719 C 47.26758575439453 3.924095153808594 42.6886100769043 3 37.966796875 3 M 37.966796875 0 C 58.93528366088867 0 75.93359375 16.99832153320312 75.93359375 37.966796875 C 75.93359375 58.93528366088867 58.93528366088867 75.93359375 37.966796875 75.93359375 C 16.99831008911133 75.93359375 0 58.93528366088867 0 37.966796875 C 0 16.99832153320312 16.99831008911133 0 37.966796875 0 Z" stroke="none" fill="#665b4e"/>
                                </g>
                              </g>
                            </g>
                          </g>
                        </g>
                      </g>
                    </g>
                  </g>
                </g>
              </g>
            </g>
          </g>
        </g>
      </g>
    </g>
    <g id="urna-electoral" transform="translate(208.148 2978.765)">
      <path id="Trazado_1160121" data-name="Trazado 1160121" d="M21,15H40.977V30.437H21Z" transform="translate(-1.103 -1.287)" fill="#82ab00"/>
      <path id="Trazado_1160122" data-name="Trazado 1160122" d="M37.792,18.21l-1.142-.379a10.469,10.469,0,0,0-3.5,2.3l-.9.9a4.111,4.111,0,0,1-2.962,1.231,5.911,5.911,0,0,1-2.483-.6,3.584,3.584,0,0,1-1.592-4.845,2,2,0,0,1-2-1.816H23v8.3a5.321,5.321,0,0,0,5.321,5.321h12.84V18.582a8.093,8.093,0,0,1-3.369-.372Z" transform="translate(-1.287 -1.287)" fill="#8dbf00"/>
      <path id="Trazado_1160123" data-name="Trazado 1160123" d="M45.785,13.3,45,14.077a6.288,6.288,0,0,1-4.449,1.843,6.224,6.224,0,0,1-2-.327L36.8,15.012a12.231,12.231,0,0,0-4.758,2.942l-.981.981a2.1,2.1,0,0,1-1.489.617,4.073,4.073,0,0,1-1.789-.418,1.763,1.763,0,0,1-.454-2.824l1.153-1.153c.363-.363.736-.717,1.126-1.053H25l3.868-5.421A4.631,4.631,0,0,1,30.575,7.23a4.8,4.8,0,0,1,1.653-.472l9.117-.826,1.344-.672Z" transform="translate(-1.471 -0.392)" fill="#d08d78"/>
      <path id="Trazado_1160124" data-name="Trazado 1160124" d="M27.448,16.433a1.763,1.763,0,0,0,.454,2.824,4.073,4.073,0,0,0,1.789.418,2.1,2.1,0,0,0,1.489-.617l.981-.981a12.231,12.231,0,0,1,4.758-2.942l1.753.581a6.224,6.224,0,0,0,2,.327,6.289,6.289,0,0,0,4.45-1.844l.78-.78L43.266,6.585,41.459,7.634l-9.117.826a4.794,4.794,0,0,0-1.653.472,4.631,4.631,0,0,0-1.707,1.453l-2.74,3.841h3.485c-.39.336-.763.69-1.126,1.053Z" transform="translate(-1.586 -0.514)" fill="#f2b9a1"/>
      <path id="Trazado_1160125" data-name="Trazado 1160125" d="M13,38H47.506V59.793H13Z" transform="translate(-0.368 -3.402)" fill="#004c9d"/>
      <path id="Trazado_1160126" data-name="Trazado 1160126" d="M47.782,40H19.96A3.961,3.961,0,0,0,16,43.959a14.2,14.2,0,0,0,14.2,14.2h17.58Z" transform="translate(-0.644 -3.586)" fill="#0059be"/>
      <path id="Trazado_1160127" data-name="Trazado 1160127" d="M10,32H49.954v5.448H10Z" transform="translate(-0.092 -2.851)" fill="#0059be"/>
      <path id="Trazado_1160128" data-name="Trazado 1160128" d="M53.08,13.8,48.54,2,44,3.816l4.54,11.8Z" transform="translate(-3.218 -0.092)" fill="#66c3e9"/>
      <path id="Trazado_1160129" data-name="Trazado 1160129" d="M30.622,15.229l-1.206-1.362A25.689,25.689,0,0,1,34.989,10.1l.812,1.625a23.842,23.842,0,0,0-5.179,3.5Z" transform="translate(-1.877 -0.837)" fill="#d08d78"/>
      <g id="Grupo_1215674" data-name="Grupo 1215674" transform="translate(18.08 42.77)">
        <path id="Trazado_1160130" data-name="Trazado 1160130" d="M22.632,49.51l-.908,1.816-.908-1.816V47H19v2.724a.908.908,0,0,0,.1.406l1.816,3.632a.908.908,0,0,0,1.625,0l1.816-3.632a.908.908,0,0,0,.1-.406V47H22.632Z" transform="translate(-19 -47)" fill="#66c3e9"/>
        <path id="Trazado_1160131" data-name="Trazado 1160131" d="M30.54,47H26.908a.908.908,0,0,0-.908.908v5.448a.908.908,0,0,0,.908.908H30.54a.908.908,0,0,0,.908-.908V47.908A.908.908,0,0,0,30.54,47Zm-.908,5.448H27.816V48.816h1.816Z" transform="translate(-19.644 -47)" fill="#66c3e9"/>
        <path id="Trazado_1160132" data-name="Trazado 1160132" d="M33,48.816h1.816v5.448h1.816V48.816h1.816V47H33Z" transform="translate(-20.287 -47)" fill="#66c3e9"/>
        <path id="Trazado_1160133" data-name="Trazado 1160133" d="M44.54,48.816V47H40.908a.908.908,0,0,0-.908.908v5.448a.908.908,0,0,0,.908.908H44.54V52.448H41.816V51.54h1.816V49.724H41.816v-.908Z" transform="translate(-20.931 -47)" fill="#66c3e9"/>
      </g>
      <path id="Trazado_1160134" data-name="Trazado 1160134" d="M24,42H38.529v1.816H24Z" transform="translate(-1.379 -3.77)" fill="#fff"/>
      <path id="Trazado_1160135" data-name="Trazado 1160135" d="M29.659,28.2a.908.908,0,0,1-.642-.266l-2.724-2.724,1.284-1.284,2.082,2.082,5.714-5.714,1.284,1.284L30.3,27.933a.908.908,0,0,1-.642.266Z" transform="translate(-1.59 -1.774)" fill="#fff"/>
      <path id="Trazado_1160136" data-name="Trazado 1160136" d="M15.724,34.724H50.23V32H13A2.724,2.724,0,0,0,15.724,34.724Z" transform="translate(-0.368 -2.851)" fill="#006bdb"/>
      <path id="Trazado_1160137" data-name="Trazado 1160137" d="M48.6,15.914l3.935-1.574L49.895,7.469a3.554,3.554,0,0,0-4.638-2.025l-.589.235Z" transform="translate(-3.28 -0.385)" fill="#8adef9"/>
      <path id="Trazado_1160138" data-name="Trazado 1160138" d="M9.908,35.506h1.816V56.391a.908.908,0,0,0,.908.908H47.138a.908.908,0,0,0,.908-.908V35.506h1.816a.908.908,0,0,0,.908-.908V29.149a.908.908,0,0,0-.908-.908h-9.08V16.227a7.145,7.145,0,0,0,3.178-1.706l.512,1.334a.908.908,0,0,0,.85.582.926.926,0,0,0,.338-.064l4.54-1.816a.908.908,0,0,0,.51-1.17l-4.54-11.8a.908.908,0,0,0-1.186-.518L40.444,2.88a.908.908,0,0,0-.51,1.17l.143.373-.454.228-8.945.817a5.555,5.555,0,0,0-4.017,2.3l-3.6,5.033H19.9a.908.908,0,0,0-.908.908V28.241H9.908A.908.908,0,0,0,9,29.149V34.6a.908.908,0,0,0,.908.908ZM46.23,55.483H13.54V35.506H46.23ZM44.805,3.093,48.692,13.2l-2.854,1.146L41.951,4.234ZM28.137,8.824a3.733,3.733,0,0,1,2.7-1.55l9.115-.825a.935.935,0,0,0,.324-.091l.454-.227,2.521,6.555-.363.363a5.448,5.448,0,0,1-5.516,1.3l-1.754-.585a.908.908,0,0,0-.574,0,13.133,13.133,0,0,0-5.11,3.158l-.984.984a1.19,1.19,0,0,1-.848.351,3.1,3.1,0,0,1-1.381-.326.852.852,0,0,1-.222-1.362l1.154-1.154A24.048,24.048,0,0,1,33.921,10.9l-.812-1.625A25.885,25.885,0,0,0,27.8,12.8H25.293Zm-7.332,5.8h5.072l-.659.659a2.667,2.667,0,0,0,.694,4.268,4.934,4.934,0,0,0,2.193.518,3,3,0,0,0,2.132-.884l.984-.984a11.317,11.317,0,0,1,4.119-2.621l1.46.487a7.222,7.222,0,0,0,2.166.363V28.241H20.8ZM10.816,30.057H48.954v3.632H10.816Z" transform="translate(0 0)"/>
      <path id="Trazado_1160139" data-name="Trazado 1160139" d="M19.1,50.13l1.816,3.632a.908.908,0,0,0,1.625,0l1.816-3.632a.908.908,0,0,0,.1-.406V47H22.632v2.51l-.908,1.816-.908-1.816V47H19v2.724A.908.908,0,0,0,19.1,50.13Z" transform="translate(-0.92 -4.23)"/>
      <path id="Trazado_1160140" data-name="Trazado 1160140" d="M30.54,47H26.908a.908.908,0,0,0-.908.908v5.448a.908.908,0,0,0,.908.908H30.54a.908.908,0,0,0,.908-.908V47.908A.908.908,0,0,0,30.54,47Zm-.908,5.448H27.816V48.816h1.816Z" transform="translate(-1.563 -4.23)"/>
      <path id="Trazado_1160141" data-name="Trazado 1160141" d="M33,48.816h1.816v5.448h1.816V48.816h1.816V47H33Z" transform="translate(-2.207 -4.23)"/>
      <path id="Trazado_1160142" data-name="Trazado 1160142" d="M40,53.356a.908.908,0,0,0,.908.908H44.54V52.448H41.816V51.54h1.816V49.724H41.816v-.908H44.54V47H40.908a.908.908,0,0,0-.908.908Z" transform="translate(-2.851 -4.23)"/>
      <path id="Trazado_1160143" data-name="Trazado 1160143" d="M24,42H38.529v1.816H24Z" transform="translate(-1.379 -3.77)"/>
      <path id="Trazado_1160144" data-name="Trazado 1160144" d="M29.659,26.007l-2.082-2.082-1.284,1.284,2.724,2.724a.908.908,0,0,0,1.284,0l6.356-6.356-1.284-1.284Z" transform="translate(-1.59 -1.774)"/>
    </g>
  </g>
</svg>
