<svg xmlns="http://www.w3.org/2000/svg" xmlns:xlink="http://www.w3.org/1999/xlink" width="93.934" height="93.934" viewBox="0 0 93.934 93.934">
  <defs>
    <filter id="Trazado_982547" x="0" y="0" width="93.934" height="93.934" filterUnits="userSpaceOnUse">
      <feOffset dy="3" input="SourceAlpha"/>
      <feGaussianBlur stdDeviation="3" result="blur"/>
      <feFlood flood-opacity="0.161"/>
      <feComposite operator="in" in2="blur"/>
      <feComposite in="SourceGraphic"/>
    </filter>
  </defs>
  <g id="Grupo_1215562" data-name="Grupo 1215562" transform="translate(-191.295 -3722)">
    <g id="Grupo_1214594" data-name="Grupo 1214594" transform="translate(0 -1406)">
      <g id="Grupo_1214432" data-name="Grupo 1214432" transform="translate(-0.771 -2738.674)">
        <g id="Grupo_1183196" data-name="Grupo 1183196" transform="translate(1 1016.674)">
          <g id="Grupo_1179610" data-name="Grupo 1179610" transform="translate(8 4723.467)">
            <g id="Grupo_1175227" data-name="Grupo 1175227" transform="translate(-5.967 140.533)">
              <g id="Grupo_1167337" data-name="Grupo 1167337" transform="translate(198.033 1992)">
                <g id="Grupo_1166720" data-name="Grupo 1166720">
                  <g id="Grupo_1164305" data-name="Grupo 1164305">
                    <g id="Grupo_1163948" data-name="Grupo 1163948">
                      <g id="Grupo_1158168" data-name="Grupo 1158168">
                        <g id="Grupo_1152576" data-name="Grupo 1152576">
                          <g id="Grupo_1148633" data-name="Grupo 1148633">
                            <g id="Grupo_1148525" data-name="Grupo 1148525">
                              <g transform="matrix(1, 0, 0, 1, -9, -6)" filter="url(#Trazado_982547)">
                                <g id="Trazado_982547-2" data-name="Trazado 982547" transform="translate(9 6)" fill="#eae4dc">
                                  <path d="M 37.966796875 74.43359375 C 33.04315185546875 74.43359375 28.26757431030273 73.46962738037109 23.77274131774902 71.56847381591797 C 19.43047523498535 69.73184967041016 15.53040790557861 67.10224914550781 12.18087482452393 63.75271987915039 C 8.831341743469238 60.4031867980957 6.201741218566895 56.50312042236328 4.365118980407715 52.16086196899414 C 2.463963508605957 47.66601943969727 1.499996900558472 42.89044189453125 1.499996900558472 37.966796875 C 1.499996900558472 33.04315185546875 2.463963508605957 28.26757431030273 4.365118980407715 23.77274131774902 C 6.201741218566895 19.43047523498535 8.831341743469238 15.53040790557861 12.18087482452393 12.18087482452393 C 15.53040790557861 8.831341743469238 19.43047523498535 6.201741218566895 23.77274131774902 4.365118980407715 C 28.26757431030273 2.463963508605957 33.04315185546875 1.499996900558472 37.966796875 1.499996900558472 C 42.89044189453125 1.499996900558472 47.66601943969727 2.463963508605957 52.16086196899414 4.365118980407715 C 56.50312042236328 6.201741218566895 60.4031867980957 8.831341743469238 63.75271987915039 12.18087482452393 C 67.10224914550781 15.53040790557861 69.73184967041016 19.43047523498535 71.56847381591797 23.77274131774902 C 73.46962738037109 28.26757431030273 74.43359375 33.04315185546875 74.43359375 37.966796875 C 74.43359375 42.89044189453125 73.46962738037109 47.66601943969727 71.56847381591797 52.16086196899414 C 69.73184967041016 56.50313186645508 67.10224914550781 60.4031867980957 63.75271987915039 63.75271987915039 C 60.4031867980957 67.10224914550781 56.50313186645508 69.73184967041016 52.16086196899414 71.56847381591797 C 47.66601943969727 73.46962738037109 42.89044189453125 74.43359375 37.966796875 74.43359375 Z" stroke="none"/>
                                  <path d="M 37.966796875 3 C 33.2449836730957 3 28.66600799560547 3.924095153808594 24.35705947875977 5.746635437011719 C 20.19359588623047 7.507637023925781 16.45379638671875 10.02928161621094 13.24153518676758 13.24153518676758 C 10.02927398681641 16.45379638671875 7.507621765136719 20.19359588623047 5.746635437011719 24.35705947875977 C 3.924095153808594 28.66600799560547 3 33.2449836730957 3 37.966796875 C 3 42.6886100769043 3.924095153808594 47.26758575439453 5.746635437011719 51.57653427124023 C 7.507621765136719 55.73999786376953 10.02927398681641 59.47979736328125 13.24153518676758 62.69205856323242 C 16.45379638671875 65.90431976318359 20.19359588623047 68.42597198486328 24.35705947875977 70.18695831298828 C 28.66600799560547 72.00949859619141 33.2449836730957 72.93359375 37.966796875 72.93359375 C 42.6886100769043 72.93359375 47.26758575439453 72.00949859619141 51.57653427124023 70.18695831298828 C 55.73999786376953 68.42597198486328 59.47979736328125 65.90431976318359 62.69205856323242 62.69205856323242 C 65.90431976318359 59.47979736328125 68.42597198486328 55.73999786376953 70.18695831298828 51.57653427124023 C 72.00949859619141 47.26758575439453 72.93359375 42.6886100769043 72.93359375 37.966796875 C 72.93359375 33.2449836730957 72.00949859619141 28.66600799560547 70.18695831298828 24.35705947875977 C 68.42597198486328 20.19359588623047 65.90431976318359 16.45379638671875 62.69205856323242 13.24153518676758 C 59.47979736328125 10.02928161621094 55.73999786376953 7.507637023925781 51.57653427124023 5.746635437011719 C 47.26758575439453 3.924095153808594 42.6886100769043 3 37.966796875 3 M 37.966796875 0 C 58.93528366088867 0 75.93359375 16.99832153320312 75.93359375 37.966796875 C 75.93359375 58.93528366088867 58.93528366088867 75.93359375 37.966796875 75.93359375 C 16.99831008911133 75.93359375 0 58.93528366088867 0 37.966796875 C 0 16.99832153320312 16.99831008911133 0 37.966796875 0 Z" stroke="none" fill="#665b4e"/>
                                </g>
                              </g>
                            </g>
                          </g>
                        </g>
                      </g>
                    </g>
                  </g>
                </g>
              </g>
            </g>
          </g>
        </g>
      </g>
    </g>
    <g id="edificio-del-gobierno" transform="translate(215.654 3742.438)">
      <g id="Grupo_1215560" data-name="Grupo 1215560" transform="translate(0.662 0.662)">
        <g id="Grupo_1215558" data-name="Grupo 1215558">
          <path id="Trazado_1159691" data-name="Trazado 1159691" d="M7.5,16.949H51.391L30.77,7.5H28.121ZM29.445,14.3a1.766,1.766,0,1,1,1.766-1.766A1.766,1.766,0,0,1,29.445,14.3Z" transform="translate(-7.5 -7.5)" fill="#decba0" fill-rule="evenodd"/>
          <circle id="Elipse_14304" data-name="Elipse 14304" cx="1.766" cy="1.766" r="1.766" transform="matrix(0.987, -0.16, 0.16, 0.987, 19.916, 3.577)" fill="#e5ecf5"/>
          <path id="Trazado_1159692" data-name="Trazado 1159692" d="M51.391,119.8v-5.3H7.5v5.3ZM7.5,148.94H51.391v-2.649H50.066v-2.649H8.825v2.649H7.5Z" transform="translate(-7.5 -105.05)" fill="#e5ecf5" fill-rule="evenodd"/>
          <path id="Trazado_1159693" data-name="Trazado 1159693" d="M52.5,223.044h6.623V204.5H52.5Zm29.319,0h6.623V204.5H81.819Zm-14.66,0h6.623V204.5H67.16Z" transform="translate(-48.526 -187.102)" fill="#e5ecf5" fill-rule="evenodd"/>
          <path id="Trazado_1159694" data-name="Trazado 1159694" d="M37.5,198.343h9.273v-2.649H37.5Zm29.319,0h9.273v-2.649H66.818Zm9.273-21.195V174.5H66.818v2.649ZM52.159,198.343h9.273v-2.649H52.159Zm9.273-21.195V174.5H52.159v2.649Zm-14.66,0V174.5H37.5v2.649Z" transform="translate(-34.85 -159.751)" fill="#decba0" fill-rule="evenodd"/>
          <path id="Trazado_1159695" data-name="Trazado 1159695" d="M7.5,16.949h2.649L30.77,7.5H28.121Z" transform="translate(-7.5 -7.5)" fill="#d4b981" fill-rule="evenodd"/>
          <path id="Trazado_1159696" data-name="Trazado 1159696" d="M9.487,114.5H7.5v5.3H9.487ZM7.5,148.94H9.487v-2.649h1.325v-2.649H8.825v2.649H7.5Z" transform="translate(-7.5 -105.05)" fill="#cad8eb" fill-rule="evenodd"/>
          <path id="Trazado_1159697" data-name="Trazado 1159697" d="M52.5,223.044h1.987V204.5H52.5Zm29.319,0h1.987V204.5H81.819Zm-14.66,0h1.987V204.5H67.16Z" transform="translate(-48.526 -187.102)" fill="#cad8eb" fill-rule="evenodd"/>
          <path id="Trazado_1159698" data-name="Trazado 1159698" d="M37.5,198.343h1.987v-2.649H37.5Zm29.319,0h1.987v-2.649H66.819v2.649ZM68.806,174.5H66.819v2.649h1.987ZM52.16,198.343h1.987v-2.649H52.16ZM54.147,174.5H52.16v2.649h1.987Zm-14.66,0H37.5v2.649h1.987Z" transform="translate(-34.851 -159.751)" fill="#d4b981" fill-rule="evenodd"/>
          <path id="Trazado_1159699" data-name="Trazado 1159699" d="M128.824,198.343h5.387v-2.649h1.325V177.148h-1.325V174.5h-5.387v2.649H127.5v18.545h1.325Zm14.66,0h5.387v-2.649H150.2V177.148H148.87V174.5h-5.387v2.649h-1.325v18.545h1.325Z" transform="translate(-116.902 -159.751)" fill="#87bcc4" fill-rule="evenodd"/>
          <path id="Trazado_1159700" data-name="Trazado 1159700" d="M128.824,177.811v17.221h1.325v3.312h-1.325v-2.649H127.5V177.148h1.325V174.5h1.325v3.312Zm14.66,0v17.221h1.325v3.312h-1.325v-2.649h-1.325V177.148h1.325V174.5h1.325v3.312Z" transform="translate(-116.902 -159.751)" fill="#5fa6b0" fill-rule="evenodd"/>
          <path id="Trazado_1159701" data-name="Trazado 1159701" d="M236,46.256a1.769,1.769,0,0,0,2.429,1.638,1.767,1.767,0,0,1,0-3.275A1.769,1.769,0,0,0,236,46.256Z" transform="translate(-215.821 -41.223)" fill="#cad8eb" fill-rule="evenodd"/>
        </g>
        <g id="Grupo_1215559" data-name="Grupo 1215559" transform="translate(5.961 11.436)">
          <path id="Trazado_1159702" data-name="Trazado 1159702" d="M105.643,159.518h-1.325v-1.325h1.325Zm-14.66,0H89.659v-1.325h1.325Zm-14.66,0H75v-1.325h1.325Zm30.644-7.948h-1.325V147.6h1.325Zm-14.66,0H90.983V147.6h1.325Zm-14.66,0H76.324V147.6h1.325Zm29.319-5.3h-1.325v-1.325h1.325Zm-14.66,0H90.983v-1.325h1.325Zm-14.66,0H76.324v-1.325h1.325Zm33.293-7.948h-1.325V137h1.325Zm-2.649,0h-3.974V137h3.974Z" transform="translate(-74.999 -136.999)" fill="#fff"/>
        </g>
      </g>
      <g id="Grupo_1215561" data-name="Grupo 1215561" transform="translate(0)">
        <path id="Trazado_1159703" data-name="Trazado 1159703" d="M17.649,227v15.9H16.325v2.649H15v1.325H57.566v-1.325H56.241V242.9H54.917V227H53.592v15.9H51.605v1.325h3.312v1.325H46.969V244.22H50.28V242.9H48.293V227H46.969v15.9H45.644v2.649H41.582V242.9H40.257V227H38.932v15.9H36.945v1.325h3.312v1.325H32.309V244.22h3.312V242.9H33.634V227H32.309v15.9H30.984v2.649H26.922V242.9H25.6V227H24.273v15.9H22.286v1.325H25.6v1.325H17.649V244.22h3.312V242.9H18.974V227Z" transform="translate(-13.675 -206.952)"/>
        <path id="Trazado_1159704" data-name="Trazado 1159704" d="M1.325,468.325H21.945V467H0v3.974H38.592v-1.325H1.325Z" transform="translate(0 -425.759)"/>
        <path id="Trazado_1159705" data-name="Trazado 1159705" d="M263.5,468.325h20.621v1.325h-3.974v1.325h5.3V467H263.5Z" transform="translate(-240.23 -425.759)"/>
        <path id="Trazado_1159706" data-name="Trazado 1159706" d="M24.077,0H21.139L11.3,4.509l.552,1.2,9.577-4.388h2.36l17.73,8.125H3.7l6.949-3.184-.552-1.2L0,9.687v6.386H2.649v2.649h10.6V16.073h4.062v2.649h10.6V16.073h4.062v2.649h10.6V16.073h2.649V9.687ZM11.922,17.4H3.974V16.073h7.948Zm29.319,0H33.293V16.073h7.948ZM23.27,14.748v1.325h3.312V17.4H18.634V16.073h3.312V14.748H1.325V10.774H43.891v3.974Z" transform="translate(0)"/>
        <path id="Trazado_1159707" data-name="Trazado 1159707" d="M233.5,137h1.325v1.325H233.5Z" transform="translate(-212.879 -124.9)"/>
        <path id="Trazado_1159708" data-name="Trazado 1159708" d="M210.416,41.857a2.433,2.433,0,0,0,2.337-1.766h2.079V38.766h-2.079a2.429,2.429,0,0,0-4.674,0H206v1.325h2.079A2.433,2.433,0,0,0,210.416,41.857Zm0-3.533a1.1,1.1,0,1,1-1.1,1.1A1.105,1.105,0,0,1,210.416,38.325Z" transform="translate(-187.808 -33.732)"/>
        <path id="Trazado_1159709" data-name="Trazado 1159709" d="M263.5,137h1.325v1.325H263.5Z" transform="translate(-240.23 -124.9)"/>
      </g>
    </g>
  </g>
</svg>
