<svg xmlns="http://www.w3.org/2000/svg" xmlns:xlink="http://www.w3.org/1999/xlink" width="93.934" height="93.934" viewBox="0 0 93.934 93.934">
  <defs>
    <filter id="Trazado_982547" x="0" y="0" width="93.934" height="93.934" filterUnits="userSpaceOnUse">
      <feOffset dy="3" input="SourceAlpha"/>
      <feGaussianBlur stdDeviation="3" result="blur"/>
      <feFlood flood-opacity="0.161"/>
      <feComposite operator="in" in2="blur"/>
      <feComposite in="SourceGraphic"/>
    </filter>
  </defs>
  <g id="Grupo_1215684" data-name="Grupo 1215684" transform="translate(-611.066 -2969.882)">
    <g id="Grupo_1214674" data-name="Grupo 1214674" transform="translate(-0.229 -2158.118)">
      <g id="Grupo_1214433" data-name="Grupo 1214433" transform="translate(-0.771 -2738.674)">
        <g id="Grupo_1183190" data-name="Grupo 1183190" transform="translate(1 1016.674)">
          <g id="Grupo_1179611" data-name="Grupo 1179611" transform="translate(428 4723.467)">
            <g id="Grupo_1175227" data-name="Grupo 1175227" transform="translate(-5.967 140.533)">
              <g id="Grupo_1167337" data-name="Grupo 1167337" transform="translate(198.033 1992)">
                <g id="Grupo_1166720" data-name="Grupo 1166720">
                  <g id="Grupo_1164305" data-name="Grupo 1164305">
                    <g id="Grupo_1163948" data-name="Grupo 1163948">
                      <g id="Grupo_1158168" data-name="Grupo 1158168">
                        <g id="Grupo_1152576" data-name="Grupo 1152576">
                          <g id="Grupo_1148633" data-name="Grupo 1148633">
                            <g id="Grupo_1148525" data-name="Grupo 1148525">
                              <g transform="matrix(1, 0, 0, 1, -9, -6)" filter="url(#Trazado_982547)">
                                <g id="Trazado_982547-2" data-name="Trazado 982547" transform="translate(9 6)" fill="#eae4dc">
                                  <path d="M 37.966796875 74.43359375 C 33.04315185546875 74.43359375 28.26757431030273 73.46962738037109 23.77274131774902 71.56847381591797 C 19.43047523498535 69.73184967041016 15.53040790557861 67.10224914550781 12.18087482452393 63.75271987915039 C 8.831341743469238 60.4031867980957 6.201741218566895 56.50312042236328 4.365118980407715 52.16086196899414 C 2.463963508605957 47.66601943969727 1.499996900558472 42.89044189453125 1.499996900558472 37.966796875 C 1.499996900558472 33.04315185546875 2.463963508605957 28.26757431030273 4.365118980407715 23.77274131774902 C 6.201741218566895 19.43047523498535 8.831341743469238 15.53040790557861 12.18087482452393 12.18087482452393 C 15.53040790557861 8.831341743469238 19.43047523498535 6.201741218566895 23.77274131774902 4.365118980407715 C 28.26757431030273 2.463963508605957 33.04315185546875 1.499996900558472 37.966796875 1.499996900558472 C 42.89044189453125 1.499996900558472 47.66601943969727 2.463963508605957 52.16086196899414 4.365118980407715 C 56.50312042236328 6.201741218566895 60.4031867980957 8.831341743469238 63.75271987915039 12.18087482452393 C 67.10224914550781 15.53040790557861 69.73184967041016 19.43047523498535 71.56847381591797 23.77274131774902 C 73.46962738037109 28.26757431030273 74.43359375 33.04315185546875 74.43359375 37.966796875 C 74.43359375 42.89044189453125 73.46962738037109 47.66601943969727 71.56847381591797 52.16086196899414 C 69.73184967041016 56.50313186645508 67.10224914550781 60.4031867980957 63.75271987915039 63.75271987915039 C 60.4031867980957 67.10224914550781 56.50313186645508 69.73184967041016 52.16086196899414 71.56847381591797 C 47.66601943969727 73.46962738037109 42.89044189453125 74.43359375 37.966796875 74.43359375 Z" stroke="none"/>
                                  <path d="M 37.966796875 3 C 33.2449836730957 3 28.66600799560547 3.924095153808594 24.35705947875977 5.746635437011719 C 20.19359588623047 7.507637023925781 16.45379638671875 10.02928161621094 13.24153518676758 13.24153518676758 C 10.02927398681641 16.45379638671875 7.507621765136719 20.19359588623047 5.746635437011719 24.35705947875977 C 3.924095153808594 28.66600799560547 3 33.2449836730957 3 37.966796875 C 3 42.6886100769043 3.924095153808594 47.26758575439453 5.746635437011719 51.57653427124023 C 7.507621765136719 55.73999786376953 10.02927398681641 59.47979736328125 13.24153518676758 62.69205856323242 C 16.45379638671875 65.90431976318359 20.19359588623047 68.42597198486328 24.35705947875977 70.18695831298828 C 28.66600799560547 72.00949859619141 33.2449836730957 72.93359375 37.966796875 72.93359375 C 42.6886100769043 72.93359375 47.26758575439453 72.00949859619141 51.57653427124023 70.18695831298828 C 55.73999786376953 68.42597198486328 59.47979736328125 65.90431976318359 62.69205856323242 62.69205856323242 C 65.90431976318359 59.47979736328125 68.42597198486328 55.73999786376953 70.18695831298828 51.57653427124023 C 72.00949859619141 47.26758575439453 72.93359375 42.6886100769043 72.93359375 37.966796875 C 72.93359375 33.2449836730957 72.00949859619141 28.66600799560547 70.18695831298828 24.35705947875977 C 68.42597198486328 20.19359588623047 65.90431976318359 16.45379638671875 62.69205856323242 13.24153518676758 C 59.47979736328125 10.02928161621094 55.73999786376953 7.507637023925781 51.57653427124023 5.746635437011719 C 47.26758575439453 3.924095153808594 42.6886100769043 3 37.966796875 3 M 37.966796875 0 C 58.93528366088867 0 75.93359375 16.99832153320312 75.93359375 37.966796875 C 75.93359375 58.93528366088867 58.93528366088867 75.93359375 37.966796875 75.93359375 C 16.99831008911133 75.93359375 0 58.93528366088867 0 37.966796875 C 0 16.99832153320312 16.99831008911133 0 37.966796875 0 Z" stroke="none" fill="#665b4e"/>
                                </g>
                              </g>
                            </g>
                          </g>
                        </g>
                      </g>
                    </g>
                  </g>
                </g>
              </g>
            </g>
          </g>
        </g>
      </g>
    </g>
    <g id="discurso" transform="translate(617.93 2994.436)">
      <g id="Grupo_1215683" data-name="Grupo 1215683" transform="translate(13.695 0.841)">
        <path id="Trazado_1160145" data-name="Trazado 1160145" d="M167.6,37.465H145.777V18.412a10.912,10.912,0,1,1,21.824,0Z" transform="translate(-131.721 -7.5)" fill="#f6df7f"/>
        <path id="Trazado_1160146" data-name="Trazado 1160146" d="M229.828,7.5a10.994,10.994,0,0,0-1.681.129,10.915,10.915,0,0,1,9.231,10.783V37.465h3.362V18.412A10.912,10.912,0,0,0,229.828,7.5Z" transform="translate(-204.86 -7.5)" fill="#efd06f"/>
        <g id="Grupo_1215678" data-name="Grupo 1215678" transform="translate(5.434 20.521)">
          <g id="Grupo_1215676" data-name="Grupo 1215676" transform="translate(33.23)">
            <path id="Trazado_1160147" data-name="Trazado 1160147" d="M370.7,195.954a1.681,1.681,0,0,1-2.377,0l-2.476-2.476a1.681,1.681,0,0,1,2.377-2.377l2.476,2.476A1.681,1.681,0,0,1,370.7,195.954Z" transform="translate(-365.355 -190.608)" fill="#685e68"/>
          </g>
          <g id="Grupo_1215677" data-name="Grupo 1215677">
            <path id="Trazado_1160148" data-name="Trazado 1160148" d="M69.334,195.954a1.681,1.681,0,0,0,2.377,0l2.476-2.476A1.681,1.681,0,0,0,71.81,191.1l-2.476,2.476A1.681,1.681,0,0,0,69.334,195.954Z" transform="translate(-68.841 -190.608)" fill="#685e68"/>
          </g>
        </g>
        <g id="Grupo_1215679" data-name="Grupo 1215679" transform="translate(38.21 0)">
          <path id="Trazado_1160149" data-name="Trazado 1160149" d="M369.135,7.5c-3.745,0-6.78,2.333-6.78,5.211a4.237,4.237,0,0,0,.71,2.321A.453.453,0,0,1,363,15.6l-1.56,1.56a.448.448,0,0,0,.317.765h7.378c3.745,0,6.78-2.333,6.78-5.211S372.88,7.5,369.135,7.5Z" transform="translate(-361.308 -7.5)" fill="#f6df7f"/>
          <path id="Trazado_1160150" data-name="Trazado 1160150" d="M404.509,7.5a8.736,8.736,0,0,0-1.681.162c2.931.575,5.1,2.617,5.1,5.049,0,2.878-3.036,5.211-6.78,5.211h3.362c3.745,0,6.78-2.333,6.78-5.211S408.254,7.5,404.509,7.5Z" transform="translate(-396.682 -7.5)" fill="#efd06f"/>
        </g>
        <g id="Grupo_1215681" data-name="Grupo 1215681" transform="translate(7.881 7.874)">
          <path id="Trazado_1160151" data-name="Trazado 1160151" d="M117.988,203.939l-5.162-1.453a2.39,2.39,0,0,1-1.743-2.3v-1.255h-6.639v1.251a2.39,2.39,0,0,1-1.742,2.3l-5.165,1.455a8.5,8.5,0,0,0-6.861,8.32V218h11.615l5.536-1.681L113.236,218h11.615v-5.745a8.5,8.5,0,0,0-6.863-8.32Z" transform="translate(-90.676 -185.352)" fill="#7a6d79"/>
          <g id="Grupo_1215680" data-name="Grupo 1215680" transform="translate(17.045 13.579)">
            <path id="Trazado_1160152" data-name="Trazado 1160152" d="M253.035,203.939l-5.162-1.453a2.39,2.39,0,0,1-1.743-2.3v-1.255h-3.362v2.936a2.39,2.39,0,0,0,1.743,2.3l5.162,1.453a8.5,8.5,0,0,1,6.863,8.32V218H259.9v-5.745A8.5,8.5,0,0,0,253.035,203.939Z" transform="translate(-242.768 -198.931)" fill="#685e68"/>
          </g>
          <path id="Trazado_1160153" data-name="Trazado 1160153" d="M205.893,231.371l-10.713,0-.02.006,1.343,15.432h8.069Z" transform="translate(-183.451 -214.154)" fill="#fff"/>
          <path id="Trazado_1160154" data-name="Trazado 1160154" d="M249.012,231.38h-5.291a2.389,2.389,0,0,0,1.636,1.6l3.189.9.488-2.49Z" transform="translate(-226.569 -214.163)" fill="#f3f0f3"/>
          <path id="Trazado_1160155" data-name="Trazado 1160155" d="M195.342,202.565a6.832,6.832,0,0,0,10.713,0l-.517.006a2.39,2.39,0,0,1-1.743-2.3v-1.255l-6.415-.089v1.251a2.39,2.39,0,0,1-1.742,2.3Z" transform="translate(-183.612 -185.351)" fill="#ffcebf"/>
          <path id="Trazado_1160156" data-name="Trazado 1160156" d="M247,202.025a2.389,2.389,0,0,1-.865-1.839v-1.255h-3.362v2.936a2.39,2.39,0,0,0,1.743,2.3l1.208.34a6.866,6.866,0,0,0,2.447-1.939l-.293-.082A2.377,2.377,0,0,1,247,202.025Z" transform="translate(-225.723 -185.352)" fill="#ffb09e"/>
          <path id="Trazado_1160157" data-name="Trazado 1160157" d="M150.63,105.539h-2.45a2.594,2.594,0,0,0,0,5.187h2.449v-5.187Z" transform="translate(-139.433 -102.426)" fill="#ffb09e"/>
          <path id="Trazado_1160158" data-name="Trazado 1160158" d="M295.706,105.539h2.449a2.594,2.594,0,1,1,0,5.187h-2.449Z" transform="translate(-272.728 -102.426)" fill="#ffcebf"/>
          <path id="Trazado_1160159" data-name="Trazado 1160159" d="M190.731,80.876V85.1a6.872,6.872,0,0,1-7.618,7.278,10.113,10.113,0,0,1-3.273-.471,7.572,7.572,0,0,1-4.252-6.807V80.876a12.658,12.658,0,0,0,7.081-2.927.782.782,0,0,1,.992-.016,13.943,13.943,0,0,0,7.07,2.943Z" transform="translate(-166.072 -77.763)" fill="#ffcebf"/>
          <path id="Trazado_1160160" data-name="Trazado 1160160" d="M219.96,79.584a13.954,13.954,0,0,1-2.609-1.642.786.786,0,0,0-1,.013,12.745,12.745,0,0,1-1.144.856,13.846,13.846,0,0,0,3.32,1.536,3.6,3.6,0,0,1,2.524,3.44V85.1a6.736,6.736,0,0,1-1.681,4.755,6.992,6.992,0,0,1-5.848,2.051,7.727,7.727,0,0,0,2.465.716,7.568,7.568,0,0,0,8.426-7.523V80.883a13.994,13.994,0,0,1-4.457-1.3Z" transform="translate(-199.758 -77.77)" fill="#ffb09e"/>
          <path id="Trazado_1160161" data-name="Trazado 1160161" d="M269.69,236.464l1.313-3.94-3.831-1.078-3.023,15.429h3.118l3.686-7.962a.785.785,0,0,0-.214-.936l-.8-.659A.784.784,0,0,1,269.69,236.464Z" transform="translate(-244.708 -214.223)" fill="#685e68"/>
          <path id="Trazado_1160162" data-name="Trazado 1160162" d="M288.994,231.933l-1.732-.487-.488,2.49,1.973.555a8.583,8.583,0,0,1,1.537.459l.809-2.426Z" transform="translate(-264.798 -214.223)" fill="#554e56"/>
          <path id="Trazado_1160163" data-name="Trazado 1160163" d="M160.8,232.5l1.314,3.941a.784.784,0,0,1-.247.855l-.8.659a.785.785,0,0,0-.214.936l3.686,7.962h3.118l-3.024-15.432Z" transform="translate(-152.92 -214.199)" fill="#685e68"/>
        </g>
        <g id="Grupo_1215682" data-name="Grupo 1215682" transform="translate(0 40.526)">
          <path id="Trazado_1160164" data-name="Trazado 1160164" d="M56.811,410.272l-3.438-12.2H95.908l-3.438,12.2a.784.784,0,0,1-.755.572H57.566A.785.785,0,0,1,56.811,410.272Z" transform="translate(-49.673 -394.831)" fill="#e19974"/>
          <path id="Trazado_1160165" data-name="Trazado 1160165" d="M369.7,398.076l-3.438,12.2a.784.784,0,0,1-.755.572h3.362a.785.785,0,0,0,.755-.572l3.438-12.2Z" transform="translate(-326.825 -394.831)" fill="#dc8758"/>
          <path id="Trazado_1160166" data-name="Trazado 1160166" d="M68.61,375.728H22.036a1.681,1.681,0,0,1-1.681-1.681V370.8a1.681,1.681,0,0,1,1.681-1.681H68.61a1.681,1.681,0,0,1,1.681,1.681v3.245A1.681,1.681,0,0,1,68.61,375.728Z" transform="translate(-20.355 -369.121)" fill="#f4d7c8"/>
          <path id="Trazado_1160167" data-name="Trazado 1160167" d="M424.3,369.121h-3.362a1.681,1.681,0,0,1,1.681,1.681v3.245a1.681,1.681,0,0,1-1.681,1.681H424.3a1.681,1.681,0,0,0,1.681-1.681V370.8A1.681,1.681,0,0,0,424.3,369.121Z" transform="translate(-376.045 -369.121)" fill="#ecbba3"/>
        </g>
      </g>
      <path id="Trazado_1160168" data-name="Trazado 1160168" d="M63.094,5.211a.841.841,0,1,0,.841.841A.841.841,0,0,0,63.094,5.211ZM59.732,0c-4.2,0-7.621,2.715-7.621,6.052a5.061,5.061,0,0,0,.679,2.5L51.443,9.9a1.289,1.289,0,0,0,.911,2.2h7.378c4.2,0,7.621-2.715,7.621-6.052S63.934,0,59.732,0Zm0,10.422H53.3l.89-.89a1.3,1.3,0,0,0,.175-1.617,3.382,3.382,0,0,1-.574-1.863c0-2.41,2.665-4.371,5.94-4.371s5.94,1.961,5.94,4.371S63.007,10.422,59.732,10.422Zm2.218,30.1h-.841V30.43a3.618,3.618,0,0,0-1.068-2.577L58.79,26.6a2.539,2.539,0,0,0-.491-2.868l-2.476-2.476a2.522,2.522,0,0,0-3.566,3.566L54.733,27.3a2.515,2.515,0,0,0,2.868.49l1.252,1.251a1.948,1.948,0,0,1,.575,1.387v10.1H56.59v-4.9a9.356,9.356,0,0,0-6.175-8.763c0-2.865,0-12.529,0-15.107A11.759,11.759,0,0,0,34.232.864a.841.841,0,0,0,.634,1.557,10.071,10.071,0,0,1,13.861,9.032A3.412,3.412,0,0,0,47,10.987h-.711a13.119,13.119,0,0,1-4.149-1.215,13.131,13.131,0,0,1-2.455-1.546,1.629,1.629,0,0,0-2.057.03,11.834,11.834,0,0,1-2.613,1.667,11.807,11.807,0,0,1-3.971,1.063h-.724a3.412,3.412,0,0,0-1.727.468A10.106,10.106,0,0,1,31.822,4.36.841.841,0,1,0,30.68,3.126a11.791,11.791,0,0,0-3.77,8.626c0,3.122.074,12.106,0,15.106a9.357,9.357,0,0,0-6.175,8.763v4.905H17.9V30.43a1.948,1.948,0,0,1,.575-1.387l1.252-1.251a2.517,2.517,0,0,0,2.868-.49l2.476-2.476a2.552,2.552,0,0,0,0-3.566,2.524,2.524,0,0,0-3.566,0l-2.476,2.476a2.532,2.532,0,0,0-.491,2.868l-1.251,1.25a3.618,3.618,0,0,0-1.068,2.577v10.1h-.841a2.524,2.524,0,0,0-2.522,2.522v3.245a2.524,2.524,0,0,0,2.522,2.522h2.331l2.241,7.952a.841.841,0,0,0,.809.613.851.851,0,0,0,.809-1.069l-2.113-7.5H57.872l-2.113,7.5a.84.84,0,1,0,1.618.456l2.241-7.952h2.331a2.524,2.524,0,0,0,2.522-2.522V43.048a2.524,2.524,0,0,0-2.521-2.521ZM57.11,26.113a.841.841,0,0,1-1.189,0l-2.476-2.476a.841.841,0,0,1,1.189-1.189l2.476,2.476a.849.849,0,0,1,0,1.188Zm-36.9-1.189,2.476-2.476a.841.841,0,1,1,1.189,1.189L21.4,26.113a.841.841,0,0,1-1.189-1.189Zm34.694,10.7v4.9H50.274V38.859a.841.841,0,0,0-1.681,0v1.668H45.45l3.134-6.769a1.625,1.625,0,0,0-.444-1.939l-.773-.634,1.048-3.143C52.036,28.91,54.916,31.579,54.909,35.622Zm-12.775.041a.84.84,0,0,0-.986.663l-.823,4.2H37L34.583,28.191a7.69,7.69,0,0,0,8.158,0l-.831,4.241a.84.84,0,0,0,1.65.323l1.129-5.761,2.105.592-1.034,3.1a1.634,1.634,0,0,0,.511,1.77l.769.631L43.6,40.526h-1.56l.76-3.876a.84.84,0,0,0-.663-.987ZM31.565,30.69,30.53,27.584l2.105-.593,2.652,13.535h-1.56l-3.442-7.436.769-.631A1.634,1.634,0,0,0,31.565,30.69Zm3.186-4.464a3.251,3.251,0,0,0,1.389-2.152,8.416,8.416,0,0,0,5.045,0,3.251,3.251,0,0,0,1.387,2.154,5.985,5.985,0,0,1-7.821,0ZM47.074,12.672a1.753,1.753,0,0,1,1.66,1.49v.52a1.766,1.766,0,0,1-1.663,1.488c0-.109.006-3.379,0-3.5Zm-.2,5.183a3.532,3.532,0,0,0,1.857-.467v9c-.329-.077-4.487-1.263-4.782-1.345a1.583,1.583,0,0,1-1.13-1.685A8.438,8.438,0,0,0,46.877,17.855ZM31.932,12.577a13.47,13.47,0,0,0,3.8-1.13,13.515,13.515,0,0,0,2.95-1.876,14.822,14.822,0,0,0,2.732,1.713,14.776,14.776,0,0,0,3.983,1.271v3.493a6.731,6.731,0,0,1-13.461,0Zm-3.341,1.585a1.753,1.753,0,0,1,1.66-1.49c0,.119,0,3.39,0,3.5a1.759,1.759,0,0,1-1.663-1.488v-.52Zm0,3.225a3.448,3.448,0,0,0,1.857.468,8.438,8.438,0,0,0,4.055,5.5,1.6,1.6,0,0,1-1.129,1.681l-4.783,1.348ZM22.416,35.621c-.011-4.074,2.8-6.594,6.494-7.58l1.048,3.144-.773.634a1.625,1.625,0,0,0-.444,1.939l3.134,6.769H28.732V38.859a.841.841,0,0,0-1.681,0v1.668H22.416ZM62.79,46.293a.842.842,0,0,1-.841.841H15.376a.842.842,0,0,1-.841-.841V43.048a.841.841,0,0,1,.841-.841H61.949a.841.841,0,0,1,.841.841ZM56.369,5.211a.841.841,0,1,0,.841.841A.841.841,0,0,0,56.369,5.211Zm3.362,0a.841.841,0,1,0,.841.841A.841.841,0,0,0,59.732,5.211Z"/>
    </g>
  </g>
</svg>
