<svg xmlns="http://www.w3.org/2000/svg" xmlns:xlink="http://www.w3.org/1999/xlink" width="93.934" height="93.934" viewBox="0 0 93.934 93.934">
  <defs>
    <filter id="Trazado_982547" x="0" y="0" width="93.934" height="93.934" filterUnits="userSpaceOnUse">
      <feOffset dy="3" input="SourceAlpha"/>
      <feGaussianBlur stdDeviation="3" result="blur"/>
      <feFlood flood-opacity="0.161"/>
      <feComposite operator="in" in2="blur"/>
      <feComposite in="SourceGraphic"/>
    </filter>
  </defs>
  <g id="Grupo_1215568" data-name="Grupo 1215568" transform="translate(-611.295 -3722)">
    <g id="Grupo_1214640" data-name="Grupo 1214640" transform="translate(0 -1406)">
      <g id="Grupo_1214433" data-name="Grupo 1214433" transform="translate(-0.771 -2738.674)">
        <g id="Grupo_1183190" data-name="Grupo 1183190" transform="translate(1 1016.674)">
          <g id="Grupo_1179611" data-name="Grupo 1179611" transform="translate(428 4723.467)">
            <g id="Grupo_1175227" data-name="Grupo 1175227" transform="translate(-5.967 140.533)">
              <g id="Grupo_1167337" data-name="Grupo 1167337" transform="translate(198.033 1992)">
                <g id="Grupo_1166720" data-name="Grupo 1166720">
                  <g id="Grupo_1164305" data-name="Grupo 1164305">
                    <g id="Grupo_1163948" data-name="Grupo 1163948">
                      <g id="Grupo_1158168" data-name="Grupo 1158168">
                        <g id="Grupo_1152576" data-name="Grupo 1152576">
                          <g id="Grupo_1148633" data-name="Grupo 1148633">
                            <g id="Grupo_1148525" data-name="Grupo 1148525">
                              <g transform="matrix(1, 0, 0, 1, -9, -6)" filter="url(#Trazado_982547)">
                                <g id="Trazado_982547-2" data-name="Trazado 982547" transform="translate(9 6)" fill="#eae4dc">
                                  <path d="M 37.966796875 74.43359375 C 33.04315185546875 74.43359375 28.26757431030273 73.46962738037109 23.77274131774902 71.56847381591797 C 19.43047523498535 69.73184967041016 15.53040790557861 67.10224914550781 12.18087482452393 63.75271987915039 C 8.831341743469238 60.4031867980957 6.201741218566895 56.50312042236328 4.365118980407715 52.16086196899414 C 2.463963508605957 47.66601943969727 1.499996900558472 42.89044189453125 1.499996900558472 37.966796875 C 1.499996900558472 33.04315185546875 2.463963508605957 28.26757431030273 4.365118980407715 23.77274131774902 C 6.201741218566895 19.43047523498535 8.831341743469238 15.53040790557861 12.18087482452393 12.18087482452393 C 15.53040790557861 8.831341743469238 19.43047523498535 6.201741218566895 23.77274131774902 4.365118980407715 C 28.26757431030273 2.463963508605957 33.04315185546875 1.499996900558472 37.966796875 1.499996900558472 C 42.89044189453125 1.499996900558472 47.66601943969727 2.463963508605957 52.16086196899414 4.365118980407715 C 56.50312042236328 6.201741218566895 60.4031867980957 8.831341743469238 63.75271987915039 12.18087482452393 C 67.10224914550781 15.53040790557861 69.73184967041016 19.43047523498535 71.56847381591797 23.77274131774902 C 73.46962738037109 28.26757431030273 74.43359375 33.04315185546875 74.43359375 37.966796875 C 74.43359375 42.89044189453125 73.46962738037109 47.66601943969727 71.56847381591797 52.16086196899414 C 69.73184967041016 56.50313186645508 67.10224914550781 60.4031867980957 63.75271987915039 63.75271987915039 C 60.4031867980957 67.10224914550781 56.50313186645508 69.73184967041016 52.16086196899414 71.56847381591797 C 47.66601943969727 73.46962738037109 42.89044189453125 74.43359375 37.966796875 74.43359375 Z" stroke="none"/>
                                  <path d="M 37.966796875 3 C 33.2449836730957 3 28.66600799560547 3.924095153808594 24.35705947875977 5.746635437011719 C 20.19359588623047 7.507637023925781 16.45379638671875 10.02928161621094 13.24153518676758 13.24153518676758 C 10.02927398681641 16.45379638671875 7.507621765136719 20.19359588623047 5.746635437011719 24.35705947875977 C 3.924095153808594 28.66600799560547 3 33.2449836730957 3 37.966796875 C 3 42.6886100769043 3.924095153808594 47.26758575439453 5.746635437011719 51.57653427124023 C 7.507621765136719 55.73999786376953 10.02927398681641 59.47979736328125 13.24153518676758 62.69205856323242 C 16.45379638671875 65.90431976318359 20.19359588623047 68.42597198486328 24.35705947875977 70.18695831298828 C 28.66600799560547 72.00949859619141 33.2449836730957 72.93359375 37.966796875 72.93359375 C 42.6886100769043 72.93359375 47.26758575439453 72.00949859619141 51.57653427124023 70.18695831298828 C 55.73999786376953 68.42597198486328 59.47979736328125 65.90431976318359 62.69205856323242 62.69205856323242 C 65.90431976318359 59.47979736328125 68.42597198486328 55.73999786376953 70.18695831298828 51.57653427124023 C 72.00949859619141 47.26758575439453 72.93359375 42.6886100769043 72.93359375 37.966796875 C 72.93359375 33.2449836730957 72.00949859619141 28.66600799560547 70.18695831298828 24.35705947875977 C 68.42597198486328 20.19359588623047 65.90431976318359 16.45379638671875 62.69205856323242 13.24153518676758 C 59.47979736328125 10.02928161621094 55.73999786376953 7.507637023925781 51.57653427124023 5.746635437011719 C 47.26758575439453 3.924095153808594 42.6886100769043 3 37.966796875 3 M 37.966796875 0 C 58.93528366088867 0 75.93359375 16.99832153320312 75.93359375 37.966796875 C 75.93359375 58.93528366088867 58.93528366088867 75.93359375 37.966796875 75.93359375 C 16.99831008911133 75.93359375 0 58.93528366088867 0 37.966796875 C 0 16.99832153320312 16.99831008911133 0 37.966796875 0 Z" stroke="none" fill="#665b4e"/>
                                </g>
                              </g>
                            </g>
                          </g>
                        </g>
                      </g>
                    </g>
                  </g>
                </g>
              </g>
            </g>
          </g>
        </g>
      </g>
    </g>
    <g id="votacion-en-linea" transform="translate(634.153 3735.061)">
      <g id="Grupo_1215567" data-name="Grupo 1215567" transform="translate(0.706 8.209)">
        <g id="Grupo_1215563" data-name="Grupo 1215563" transform="translate(0 4.703)">
          <path id="Trazado_1159710" data-name="Trazado 1159710" d="M51.48,97.872H10.325A2.825,2.825,0,0,1,7.5,95.047V67.76a2.825,2.825,0,0,1,2.825-2.825H51.48a2.825,2.825,0,0,1,2.825,2.825V95.047A2.825,2.825,0,0,1,51.48,97.872Z" transform="translate(-7.5 -64.935)" fill="#918291"/>
          <path id="Trazado_1159711" data-name="Trazado 1159711" d="M37.5,119.4V95.5a.565.565,0,0,1,.565-.565h40.59V119.4Z" transform="translate(-34.675 -92.11)" fill="#d8ecfe"/>
          <path id="Trazado_1159712" data-name="Trazado 1159712" d="M10.325,360.331H51.48a2.825,2.825,0,0,0,2.825-2.825V354.68H7.5v2.825A2.825,2.825,0,0,0,10.325,360.331Z" transform="translate(-7.5 -327.393)" fill="#a79ba7"/>
          <path id="Trazado_1159713" data-name="Trazado 1159713" d="M184.708,422.432H168.164l2.825-7.752h10.893Z" transform="translate(-153.033 -381.743)" fill="#918291"/>
          <path id="Trazado_1159714" data-name="Trazado 1159714" d="M203.393,419.329l-13.353-2.55.765-2.1H201.7Z" transform="translate(-172.849 -381.743)" fill="#7a6d79"/>
        </g>
        <g id="Grupo_1215566" data-name="Grupo 1215566" transform="translate(13.161 0)">
          <g id="Grupo_1215565" data-name="Grupo 1215565" transform="translate(6.185)">
            <g id="Grupo_1215564" data-name="Grupo 1215564">
              <path id="Trazado_1159715" data-name="Trazado 1159715" d="M227.229,43.831l-1.343,4.426-2.409,7.937a1.219,1.219,0,0,1-1.52.813l-8.165-2.478a1.218,1.218,0,0,1-.812-1.52l3.751-12.364a1.22,1.22,0,0,1,1.521-.813l8.165,2.478A1.219,1.219,0,0,1,227.229,43.831Z" transform="translate(-212.927 -37.445)" fill="#fee45a"/>
              <path id="Trazado_1159716" data-name="Trazado 1159716" d="M310.2,65.932l-1.343,4.426-3.725.162a.487.487,0,0,1-.5-.422l-.09-.665A1.47,1.47,0,0,1,305.7,67.8l3-.615.484-1.592a1.22,1.22,0,0,0-.558-1.411l.766.233A1.219,1.219,0,0,1,310.2,65.932Z" transform="translate(-295.901 -59.546)" fill="#fedf30"/>
              <path id="Trazado_1159717" data-name="Trazado 1159717" d="M317.379,35.451l1.551-2a1.625,1.625,0,0,1,1.44-.623l7.477.715,1.4,5.468-4.281,2.447a5.477,5.477,0,0,1-2.479.717l-6.52.284a.488.488,0,0,1-.5-.422l-.09-.665a1.47,1.47,0,0,1,1.161-1.636l3-.615.483-1.593A1.219,1.219,0,0,0,319.2,36Z" transform="translate(-305.712 -31.14)" fill="#f6a96c"/>
              <path id="Trazado_1159718" data-name="Trazado 1159718" d="M450.8,22.1l-1.809-6.683a.569.569,0,0,0-.729-.391l-2.634.878a.569.569,0,0,0-.37.684L447,23.252a.569.569,0,0,0,.723.4l2.7-.859A.569.569,0,0,0,450.8,22.1Z" transform="translate(-423.363 -14.997)" fill="#fe646f"/>
            </g>
          </g>
          <path id="Trazado_1159719" data-name="Trazado 1159719" d="M168.487,197.633H147.909a.659.659,0,0,1-.659-.659v-1.507a.659.659,0,0,1,.659-.659h20.577a.659.659,0,0,1,.659.659v1.507A.659.659,0,0,1,168.487,197.633Z" transform="translate(-147.25 -177.874)" fill="#aa6a51"/>
          <path id="Trazado_1159720" data-name="Trazado 1159720" d="M180.379,237.039H163.192a.942.942,0,0,1-.942-.942V224.808h19.071V236.1A.942.942,0,0,1,180.379,237.039Z" transform="translate(-160.837 -205.049)" fill="#aa6a51"/>
          <path id="Trazado_1159721" data-name="Trazado 1159721" d="M162.25,224.808v.942l19.071,1.883v-2.825Z" transform="translate(-160.837 -205.049)" fill="#935b44"/>
        </g>
      </g>
      <path id="Trazado_1159722" data-name="Trazado 1159722" d="M22.806,43.731h2.607a.706.706,0,0,0,0-1.413H22.806a.706.706,0,0,0,0,1.413Zm2.01-10.353a.706.706,0,1,0,.706.706A.706.706,0,0,0,24.815,33.378Zm-2.825,0a.706.706,0,1,0,.706.706A.706.706,0,0,0,21.99,33.378ZM48.213,15.558a1.275,1.275,0,0,0-.04-.43L46.364,8.445a1.275,1.275,0,0,0-1.634-.877L42.1,8.447a1.278,1.278,0,0,0-.861,1.363l-6.458-.617a2.32,2.32,0,0,0-2.065.893L31.458,11.7,25.582,9.92a1.93,1.93,0,0,0-2.4,1.284l-1.161,3.828H3.532a.706.706,0,0,0-.706.706V39.493H1.413V15.738a2.121,2.121,0,0,1,2.119-2.119H20.575a.706.706,0,1,0,0-1.413H3.532A3.536,3.536,0,0,0,0,15.738V43.025a3.536,3.536,0,0,0,3.532,3.532H17.653l-2.31,6.34h-.918a.706.706,0,1,0,0,1.413H33.794a.706.706,0,1,0,0-1.413h-.918l-2.31-6.34H44.686a3.536,3.536,0,0,0,3.532-3.532c0-.058-.009-27.412,0-27.466Zm-3.175-6.6,1.737,6.415-2.3.731-.007,0-.133.042L44.066,15.1l-1.195-4.666a.708.708,0,0,0-.07-.17l-.136-.519ZM32.956,28.675h.688V39.258a.236.236,0,0,1-.235.235H16.222a.236.236,0,0,1-.235-.235V28.675H30.13a.706.706,0,1,0,0-1.413H14.574V25.85H35.057v1.413h-2.1a.706.706,0,0,0,0,1.413Zm2.1,10.583V28.675H35.1a1.367,1.367,0,0,0,1.366-1.366V25.8A1.367,1.367,0,0,0,35.1,24.437h-3l1.317-4.34,3.435-.15a6.209,6.209,0,0,0,2.8-.809l3.575-2.043a1.243,1.243,0,0,0,.749.471V39.493H35.038A1.643,1.643,0,0,0,35.057,39.258ZM33.828,10.951a.916.916,0,0,1,.814-.352l6.96.665,1.094,4.18.074.287-3.814,2.18a4.791,4.791,0,0,1-2.159.624l-6.321.275-.063-.467a.765.765,0,0,1,.6-.85l2.992-.614,1.54-.29a.706.706,0,0,0-.261-1.388l-.4.075.145-.478a1.925,1.925,0,0,0-1.283-2.4l-.842-.256Zm-9.3.664a.515.515,0,0,1,.64-.342L31.514,13.2h0l1.822.553a.517.517,0,0,1,.342.639l-.361,1.19-2.586.53a2.182,2.182,0,0,0-1.719,2.423l.09.665a1.188,1.188,0,0,0,1.182,1.034c.063,0,1.58-.068,1.643-.07l-1.3,4.275H20.863a.51.51,0,0,1-.082-.459c.006-.005,3.751-12.364,3.751-12.364ZM4.238,16.444H21.591L19.43,23.568a1.934,1.934,0,0,0-.059.869H14.527A1.367,1.367,0,0,0,13.161,25.8v1.507a1.367,1.367,0,0,0,1.366,1.366h.047V39.258a1.645,1.645,0,0,0,.019.235H4.238ZM31.372,52.9H16.846l2.31-6.34h9.9Zm15.433-9.871a2.121,2.121,0,0,1-2.119,2.119H3.532a2.121,2.121,0,0,1-2.119-2.119V40.906H46.805Zm0-3.532H45.393v-22.2l1.413-.449ZM27.64,33.378a.706.706,0,1,0,.706.706A.706.706,0,0,0,27.64,33.378Z" transform="translate(0 0)"/>
    </g>
  </g>
</svg>
