<svg xmlns="http://www.w3.org/2000/svg" xmlns:xlink="http://www.w3.org/1999/xlink" width="93.934" height="93.934" viewBox="0 0 93.934 93.934">
  <defs>
    <filter id="Trazado_982547" x="0" y="0" width="93.934" height="93.934" filterUnits="userSpaceOnUse">
      <feOffset dy="3" input="SourceAlpha"/>
      <feGaussianBlur stdDeviation="3" result="blur"/>
      <feFlood flood-opacity="0.161"/>
      <feComposite operator="in" in2="blur"/>
      <feComposite in="SourceGraphic"/>
    </filter>
  </defs>
  <g id="Grupo_1215570" data-name="Grupo 1215570" transform="translate(-1031.295 -3722)">
    <g id="Grupo_1214661" data-name="Grupo 1214661" transform="translate(0 -1406)">
      <g id="Grupo_1214434" data-name="Grupo 1214434" transform="translate(-0.771 -2738.522)">
        <g id="Grupo_1183184" data-name="Grupo 1183184" transform="translate(1 1016.523)">
          <g id="Grupo_1179612" data-name="Grupo 1179612" transform="translate(848 4723.467)">
            <g id="Grupo_1175227" data-name="Grupo 1175227" transform="translate(-5.967 140.533)">
              <g id="Grupo_1167337" data-name="Grupo 1167337" transform="translate(198.033 1992)">
                <g id="Grupo_1166720" data-name="Grupo 1166720">
                  <g id="Grupo_1164305" data-name="Grupo 1164305">
                    <g id="Grupo_1163948" data-name="Grupo 1163948">
                      <g id="Grupo_1158168" data-name="Grupo 1158168">
                        <g id="Grupo_1152576" data-name="Grupo 1152576">
                          <g id="Grupo_1148633" data-name="Grupo 1148633">
                            <g id="Grupo_1148525" data-name="Grupo 1148525">
                              <g transform="matrix(1, 0, 0, 1, -9, -6)" filter="url(#Trazado_982547)">
                                <g id="Trazado_982547-2" data-name="Trazado 982547" transform="translate(9 6)" fill="#eae4dc">
                                  <path d="M 37.966796875 74.43359375 C 33.04315185546875 74.43359375 28.26757431030273 73.46962738037109 23.77274131774902 71.56847381591797 C 19.43047523498535 69.73184967041016 15.53040790557861 67.10224914550781 12.18087482452393 63.75271987915039 C 8.831341743469238 60.4031867980957 6.201741218566895 56.50312042236328 4.365118980407715 52.16086196899414 C 2.463963508605957 47.66601943969727 1.499996900558472 42.89044189453125 1.499996900558472 37.966796875 C 1.499996900558472 33.04315185546875 2.463963508605957 28.26757431030273 4.365118980407715 23.77274131774902 C 6.201741218566895 19.43047523498535 8.831341743469238 15.53040790557861 12.18087482452393 12.18087482452393 C 15.53040790557861 8.831341743469238 19.43047523498535 6.201741218566895 23.77274131774902 4.365118980407715 C 28.26757431030273 2.463963508605957 33.04315185546875 1.499996900558472 37.966796875 1.499996900558472 C 42.89044189453125 1.499996900558472 47.66601943969727 2.463963508605957 52.16086196899414 4.365118980407715 C 56.50312042236328 6.201741218566895 60.4031867980957 8.831341743469238 63.75271987915039 12.18087482452393 C 67.10224914550781 15.53040790557861 69.73184967041016 19.43047523498535 71.56847381591797 23.77274131774902 C 73.46962738037109 28.26757431030273 74.43359375 33.04315185546875 74.43359375 37.966796875 C 74.43359375 42.89044189453125 73.46962738037109 47.66601943969727 71.56847381591797 52.16086196899414 C 69.73184967041016 56.50313186645508 67.10224914550781 60.4031867980957 63.75271987915039 63.75271987915039 C 60.4031867980957 67.10224914550781 56.50313186645508 69.73184967041016 52.16086196899414 71.56847381591797 C 47.66601943969727 73.46962738037109 42.89044189453125 74.43359375 37.966796875 74.43359375 Z" stroke="none"/>
                                  <path d="M 37.966796875 3 C 33.2449836730957 3 28.66600799560547 3.924095153808594 24.35705947875977 5.746635437011719 C 20.19359588623047 7.507637023925781 16.45379638671875 10.02928161621094 13.24153518676758 13.24153518676758 C 10.02927398681641 16.45379638671875 7.507621765136719 20.19359588623047 5.746635437011719 24.35705947875977 C 3.924095153808594 28.66600799560547 3 33.2449836730957 3 37.966796875 C 3 42.6886100769043 3.924095153808594 47.26758575439453 5.746635437011719 51.57653427124023 C 7.507621765136719 55.73999786376953 10.02927398681641 59.47979736328125 13.24153518676758 62.69205856323242 C 16.45379638671875 65.90431976318359 20.19359588623047 68.42597198486328 24.35705947875977 70.18695831298828 C 28.66600799560547 72.00949859619141 33.2449836730957 72.93359375 37.966796875 72.93359375 C 42.6886100769043 72.93359375 47.26758575439453 72.00949859619141 51.57653427124023 70.18695831298828 C 55.73999786376953 68.42597198486328 59.47979736328125 65.90431976318359 62.69205856323242 62.69205856323242 C 65.90431976318359 59.47979736328125 68.42597198486328 55.73999786376953 70.18695831298828 51.57653427124023 C 72.00949859619141 47.26758575439453 72.93359375 42.6886100769043 72.93359375 37.966796875 C 72.93359375 33.2449836730957 72.00949859619141 28.66600799560547 70.18695831298828 24.35705947875977 C 68.42597198486328 20.19359588623047 65.90431976318359 16.45379638671875 62.69205856323242 13.24153518676758 C 59.47979736328125 10.02928161621094 55.73999786376953 7.507637023925781 51.57653427124023 5.746635437011719 C 47.26758575439453 3.924095153808594 42.6886100769043 3 37.966796875 3 M 37.966796875 0 C 58.93528366088867 0 75.93359375 16.99832153320312 75.93359375 37.966796875 C 75.93359375 58.93528366088867 58.93528366088867 75.93359375 37.966796875 75.93359375 C 16.99831008911133 75.93359375 0 58.93528366088867 0 37.966796875 C 0 16.99832153320312 16.99831008911133 0 37.966796875 0 Z" stroke="none" fill="#665b4e"/>
                                </g>
                              </g>
                            </g>
                          </g>
                        </g>
                      </g>
                    </g>
                  </g>
                </g>
              </g>
            </g>
          </g>
        </g>
      </g>
    </g>
    <g id="convencion" transform="translate(1052.176 3739.258)">
      <path id="Trazado_1159723" data-name="Trazado 1159723" d="M181.032,195.18h-5.146a4.192,4.192,0,0,0-4.185,4.19v3.907h13.431a.605.605,0,0,1,.082,0V199.37A4.192,4.192,0,0,0,181.032,195.18Z" transform="translate(-137.474 -158.049)" fill="#72c1e8"/>
      <path id="Trazado_1159724" data-name="Trazado 1159724" d="M192.35,198.238l-2.066-3.06h-5.145l-2.066,3.06,4.639,5.039h0Z" transform="translate(-146.725 -158.048)" fill="#7c7b7a"/>
      <path id="Trazado_1159725" data-name="Trazado 1159725" d="M199.307,195.178l-2.573,8.1-2.572-8.1Z" transform="translate(-155.749 -158.048)" fill="#efefef"/>
      <path id="Trazado_1159726" data-name="Trazado 1159726" d="M109.123,205.067v3.426H97.91v-3.426a3.478,3.478,0,0,1,3.473-3.477h4.267A3.478,3.478,0,0,1,109.123,205.067Z" transform="translate(-77.43 -163.265)" fill="#72c1e8"/>
      <path id="Trazado_1159727" data-name="Trazado 1159727" d="M57.782,15.274c0-8.844-11.347-11.836-20.756-11.836-9.319,0-20.756,2.976-20.756,11.836,0,4.43,2.854,7.39,6.88,9.243a.54.54,0,0,1,.31.408l.473,3.1a.538.538,0,0,0,.987.206l1.356-2.147a.538.538,0,0,1,.6-.23,38.069,38.069,0,0,0,8.335,1.224.537.537,0,0,1,.487.362L36.579,30A.538.538,0,0,0,37.6,30l.885-2.571a.537.537,0,0,1,.484-.361,37.806,37.806,0,0,0,8.293-1.246.538.538,0,0,1,.6.228l1.394,2.186a.538.538,0,0,0,.986-.209l.479-3.167a.539.539,0,0,1,.306-.407c3.961-1.858,6.758-4.8,6.758-9.176Z" transform="translate(-11.001 -2.033)" fill="#efefef"/>
      <circle id="Elipse_14305" data-name="Elipse 14305" cx="4.466" cy="4.466" r="4.466" transform="translate(21.62 4.06)" fill="#f4cf5a"/>
      <path id="Trazado_1159728" data-name="Trazado 1159728" d="M102.805,70.261v3.874H87.84V70.261a4.643,4.643,0,0,1,4.088-4.61,4.991,4.991,0,0,1,.552-.032h5.686A4.644,4.644,0,0,1,102.805,70.261Z" transform="translate(-69.237 -52.629)" fill="#7c7b7a"/>
      <path id="Trazado_1159729" data-name="Trazado 1159729" d="M109.927,65.875l-6.721,8.26H100.43c3.372-4.062,2.623-3.16,3.738-4.5L107.5,65.62h.911A4.594,4.594,0,0,1,109.927,65.875Z" transform="translate(-79.481 -52.629)" fill="#fc5d3d"/>
      <path id="Trazado_1159730" data-name="Trazado 1159730" d="M123.945,68.234l-5.826,7.017H115.33l6.721-8.26A4.621,4.621,0,0,1,123.945,68.234Z" transform="translate(-91.605 -53.744)" fill="#72c1e8"/>
      <path id="Trazado_1159731" data-name="Trazado 1159731" d="M115.107,65.62l-3.331,4.011c-.218-.435-1.728-3.441-2-3.98a4.989,4.989,0,0,1,.551-.032Z" transform="translate(-87.089 -52.629)" fill="#efefef"/>
      <g id="Grupo_1215569" data-name="Grupo 1215569" transform="translate(11.277 6.198)">
        <path id="Trazado_1159732" data-name="Trazado 1159732" d="M197.876,68.282c-.747-.247-1.518-.462-1.951-2.329-.4,1.718-1.038,2.026-1.951,2.329a2.592,2.592,0,0,1,1.951,2.328C196.332,68.851,197.008,68.569,197.876,68.282Z" transform="translate(-166.873 -59.098)" fill="#f0c020"/>
        <path id="Trazado_1159733" data-name="Trazado 1159733" d="M175.608,31.488c-.747-.247-1.518-.462-1.951-2.328-.4,1.718-1.038,2.026-1.951,2.329a2.592,2.592,0,0,1,1.951,2.328C174.064,32.057,174.74,31.775,175.608,31.488Z" transform="translate(-148.754 -29.16)" fill="#f0c020"/>
        <path id="Trazado_1159734" data-name="Trazado 1159734" d="M52.424,66.071c-.747-.247-1.518-.463-1.951-2.328-.4,1.718-1.038,2.026-1.951,2.328A2.591,2.591,0,0,1,50.472,68.4C50.881,66.64,51.556,66.358,52.424,66.071Z" transform="translate(-48.521 -57.3)" fill="#f0c020"/>
      </g>
      <path id="Trazado_1159735" data-name="Trazado 1159735" d="M112.587,201.588l-.772,1.63a1.386,1.386,0,0,0,.528,1.776l2.378,1.457,2.134-4.863Z" transform="translate(-88.635 -163.264)" fill="#7c7b7a"/>
      <path id="Trazado_1159736" data-name="Trazado 1159736" d="M130.907,203.218l-.772-1.63L128,206.451l2.378-1.457A1.387,1.387,0,0,0,130.907,203.218Z" transform="translate(-101.914 -163.264)" fill="#7c7b7a"/>
      <path id="Trazado_1159737" data-name="Trazado 1159737" d="M120.814,201.588l-2.134,4.863-2.134-4.863Z" transform="translate(-92.593 -163.264)" fill="#efefef"/>
      <path id="Trazado_1159738" data-name="Trazado 1159738" d="M25.669,198.411V202.4H11.852a.589.589,0,0,0-.082,0v-3.991a4.31,4.31,0,0,1,4.274-4.311h5.321A4.313,4.313,0,0,1,25.669,198.411Z" transform="translate(-7.34 -157.171)" fill="#72c1e8"/>
      <path id="Trazado_1159739" data-name="Trazado 1159739" d="M32.9,197.361,30.835,194.1H25.69l-2.066,3.262,4.639,5.039h0Z" transform="translate(-16.985 -157.17)" fill="#7c7b7a"/>
      <path id="Trazado_1159740" data-name="Trazado 1159740" d="M39.858,194.1l-2.573,8.3-2.573-8.3Z" transform="translate(-26.008 -157.17)" fill="#efefef"/>
      <path id="Trazado_1159741" data-name="Trazado 1159741" d="M195.486,172.28a2.859,2.859,0,0,1-2.858-2.858v-2.385h5.717v2.385a2.858,2.858,0,0,1-2.858,2.858Z" transform="translate(-154.501 -135.15)" fill="#ffb69f"/>
      <path id="Trazado_1159742" data-name="Trazado 1159742" d="M198.106,147.938l-1.233.644a2.217,2.217,0,0,1-1.026.252H193.2a1.489,1.489,0,0,0-1.47,1.726l.151.937H197.6A3.123,3.123,0,0,0,198.106,147.938Z" transform="translate(-153.759 -119.61)" fill="#7c7b7a"/>
      <path id="Trazado_1159743" data-name="Trazado 1159743" d="M113.746,163.882v2.288h-2.122a2.341,2.341,0,0,0,.261-1.079v-1.343l-4.744-.635v1.979a2.329,2.329,0,0,0,.261,1.079H105.28v-2.288a4.233,4.233,0,0,1,8.466,0Z" transform="translate(-83.427 -129.139)" fill="#7c7b7a"/>
      <path id="Trazado_1159744" data-name="Trazado 1159744" d="M115.27,178.239v1.979a2.329,2.329,0,0,0,.261,1.079,2.37,2.37,0,0,0,4.222,0,2.341,2.341,0,0,0,.261-1.079v-1.343Z" transform="translate(-91.556 -144.265)" fill="#ffb69f"/>
      <path id="Trazado_1159745" data-name="Trazado 1159745" d="M38.62,166.691v.973a2.94,2.94,0,0,1-5.88,0v-.973a1.472,1.472,0,0,1,2.323-1.2,1.052,1.052,0,0,0,1.233,0,1.472,1.472,0,0,1,2.323,1.2Z" transform="translate(-24.403 -133.675)" fill="#ffb69f"/>
      <path id="Trazado_1159746" data-name="Trazado 1159746" d="M37.342,152.4a1.479,1.479,0,0,0-1.045.261,1.054,1.054,0,0,1-1.235,0,1.474,1.474,0,0,0-1.043-.261,1.5,1.5,0,0,0-1.278,1.511v2.335a1.472,1.472,0,0,1,2.323-1.2,1.052,1.052,0,0,0,1.233,0,1.472,1.472,0,0,1,2.323,1.2v-2.335A1.506,1.506,0,0,0,37.342,152.4Z" transform="translate(-24.403 -123.234)" fill="#7c7b7a"/>
      <path id="Trazado_1159747" data-name="Trazado 1159747" d="M49.78,238.643a.6.6,0,0,0-.082,0H6.55a.586.586,0,0,0-.082,0,1.3,1.3,0,0,0,.082,2.59H49.7a1.3,1.3,0,0,0,.082-2.59Z" transform="translate(-2.038 -193.411)" fill="#7c7b7a"/>
      <path id="Trazado_1159748" data-name="Trazado 1159748" d="M141.937,223.367h-1.3a.466.466,0,0,1,0-.932h.838V221.6a.466.466,0,0,1,.932,0v1.3A.466.466,0,0,1,141.937,223.367Z" transform="translate(-111.814 -179.17)" fill="#c5e5ff"/>
      <path id="Trazado_1159749" data-name="Trazado 1159749" d="M70.022,221.651H68.966a.466.466,0,1,1,0-.932h.59v-1.149a.466.466,0,1,1,.932,0v1.615A.466.466,0,0,1,70.022,221.651Z" transform="translate(-53.5 -177.517)" fill="#c5e5ff"/>
      <path id="Trazado_1159750" data-name="Trazado 1159750" d="M229.352,222.229h-.879a.466.466,0,0,1,0-.932h.414v-.769a.466.466,0,0,1,.932,0v1.234A.466.466,0,0,1,229.352,222.229Z" transform="translate(-183.288 -178.296)" fill="#c5e5ff"/>
      <path id="Trazado_1159751" data-name="Trazado 1159751" d="M33.1,35.012c-3.333-2.287-3.333-4.925-3.333-5.792a6.148,6.148,0,0,1,1.815-4.51.466.466,0,1,1,.674.642A5.2,5.2,0,0,0,30.7,29.219c0,.824,0,3.014,2.928,5.023a.466.466,0,1,1-.527.768Zm.624-11.442a.466.466,0,0,1,.169-.637,22.1,22.1,0,0,1,6.739-2.346.466.466,0,1,1,.179.914,21.257,21.257,0,0,0-6.45,2.238A.466.466,0,0,1,33.721,23.57Z" transform="translate(-21.981 -15.979)" fill="#fff"/>
      <path id="Trazado_1159752" data-name="Trazado 1159752" d="M14.345,12.944a.466.466,0,0,0,.5-.429C15.481,4.309,26.892,1.871,35.1,1.871h.028c8.736,0,20.267,2.68,20.275,11.369-.005,3.777-2.189,6.722-6.491,8.757a1,1,0,0,0-.568.758l-.479,3.167a.072.072,0,0,1-.132.028l-1.393-2.186a1,1,0,0,0-1.118-.427,37.365,37.365,0,0,1-8.189,1.23,1.009,1.009,0,0,0-.906.674l-.885,2.569a.072.072,0,0,1-.136,0l-.883-2.566a1.006,1.006,0,0,0-.907-.674,37.783,37.783,0,0,1-8.232-1.207,1,1,0,0,0-1.116.43l-1.357,2.146a.071.071,0,0,1-.132-.026L22,22.821a1,1,0,0,0-.576-.76c-3.249-1.5-5.325-3.534-6.171-6.055a.474.474,0,0,0-.591-.293.469.469,0,0,0-.294.591c1.051,3.113,3.657,5.221,6.667,6.6a.076.076,0,0,1,.045.054l.471,3.1a1.006,1.006,0,0,0,1.843.386l1.356-2.148a.07.07,0,0,1,.082-.03A38.641,38.641,0,0,0,33.271,25.5a.071.071,0,0,1,.065.048l.883,2.564a1,1,0,0,0,1.9,0L37,25.547a.071.071,0,0,1,.065-.048,38.451,38.451,0,0,0,8.4-1.261.071.071,0,0,1,.082.03l1.394,2.186a1.006,1.006,0,0,0,1.841-.389l.479-3.167a.069.069,0,0,1,.043-.056c4.127-1.921,7.034-5.066,7.026-9.6C56.338,3.905,44.414.94,35.108.94c-8.833,0-20.519,2.7-21.194,11.505a.466.466,0,0,0,.43.5Z" transform="translate(-9.084 0)"/>
      <path id="Trazado_1159753" data-name="Trazado 1159753" d="M15,70.655a.466.466,0,1,0-.175.448A.466.466,0,0,0,15,70.655Z" transform="translate(-9.213 -56.367)"/>
      <path id="Trazado_1159754" data-name="Trazado 1159754" d="M106.079,26.251a.469.469,0,0,0,.649-.112l0,0a.467.467,0,0,0-.114-.648.479.479,0,0,0-.65.114v0A.466.466,0,0,0,106.079,26.251Z" transform="translate(-83.917 -19.91)"/>
      <path id="Trazado_1159755" data-name="Trazado 1159755" d="M85.34,29.208v3.874a.466.466,0,0,0,.466.466h14.965a.466.466,0,0,0,.466-.466V29.208A5.107,5.107,0,0,0,96.171,24.1a4.931,4.931,0,0,0-5.426-8.226.466.466,0,1,0,.481.8A4,4,0,1,1,93.293,24.1h-.01a4.011,4.011,0,0,1-3.92-4.775A.463.463,0,0,0,89,18.78a.471.471,0,0,0-.546.367A4.921,4.921,0,0,0,90.4,24.1,5.1,5.1,0,0,0,85.34,29.208Zm4.627-3.423,1.369,2.73-.386.466L89.287,27.7Zm4.261-.752-2.242,2.7-1.354-2.7Zm-7.956,4.175a4.177,4.177,0,0,1,2.9-3.979l-.88,2.478a.466.466,0,0,0,.155.525l1.9,1.464-2.422,2.918H86.272Zm4.434,3.408H89.144l6.3-7.583h.692a4.176,4.176,0,0,1,.7.058ZM97.8,25.38a4.169,4.169,0,0,1,1.117.716L93.5,32.617H91.907Zm2.51,7.237h-5.6l4.83-5.817a4.161,4.161,0,0,1,.766,2.409Z" transform="translate(-67.202 -11.576)"/>
      <path id="Trazado_1159756" data-name="Trazado 1159756" d="M191.473,66.25a.466.466,0,0,0,.319.442c1.28.423,1.425,1.047,1.644,1.991a.466.466,0,0,0,.908,0c.364-1.568.9-1.746,1.644-1.991a.466.466,0,0,0,.32-.442.472.472,0,0,0-.369-.459c-.687-.226-1.23-.4-1.595-1.975a.466.466,0,0,0-.908,0c-.364,1.568-.9,1.746-1.644,1.991A.466.466,0,0,0,191.473,66.25Zm2.419-.939a2.546,2.546,0,0,0,.814.944,2.468,2.468,0,0,0-.805.911,2.582,2.582,0,0,0-.851-.9A2.476,2.476,0,0,0,193.892,65.311Z" transform="translate(-153.561 -50.868)"/>
      <path id="Trazado_1159757" data-name="Trazado 1159757" d="M173.719,29.015c-.715-.235-1.272-.388-1.644-1.99a.466.466,0,0,0-.908,0c-.364,1.568-.9,1.746-1.644,1.991a.466.466,0,0,0,0,.885c1.28.423,1.424,1.047,1.644,1.991a.466.466,0,0,0,.908,0c.364-1.568.9-1.746,1.644-1.991a.466.466,0,0,0,0-.885Zm-2.087,1.358a2.584,2.584,0,0,0-.851-.9,2.474,2.474,0,0,0,.842-.95,2.541,2.541,0,0,0,.814.944,2.471,2.471,0,0,0-.806.911Z" transform="translate(-135.442 -20.931)"/>
      <path id="Trazado_1159758" data-name="Trazado 1159758" d="M47.985,66.471a.466.466,0,0,0,.908,0c.364-1.568.9-1.746,1.644-1.991a.466.466,0,0,0,0-.884c-.709-.235-1.27-.382-1.644-1.991a.466.466,0,0,0-.908,0c-.364,1.568-.9,1.746-1.644,1.991a.466.466,0,0,0,0,.884C47.621,64.9,47.766,65.526,47.985,66.471ZM48.44,63.1a2.544,2.544,0,0,0,.814.944,2.469,2.469,0,0,0-.806.911,2.582,2.582,0,0,0-.85-.9A2.475,2.475,0,0,0,48.44,63.1Z" transform="translate(-35.21 -49.068)"/>
      <path id="Trazado_1159759" data-name="Trazado 1159759" d="M121.761,34.557a.466.466,0,1,0,0,.932h1.549a.466.466,0,0,0,0-.932H123V32.292a.466.466,0,0,0-.624-.438l-.773.279a.466.466,0,1,0,.317.876l.151-.054v1.6Z" transform="translate(-96.449 -25.132)"/>
      <path id="Trazado_1159760" data-name="Trazado 1159760" d="M48.207,162.426V158.9a4.663,4.663,0,0,0-4.919-4.656,3.313,3.313,0,0,0,1.022-2.393v-2.212a3.608,3.608,0,0,0,.457-3.935.466.466,0,0,0-.635-.21l-1.233.644a1.76,1.76,0,0,1-.811.2H39.446a1.955,1.955,0,0,0-1.93,2.265l.145.9v2.348a3.312,3.312,0,0,0,1.022,2.392,4.7,4.7,0,0,0-3.432,1.243.467.467,0,0,0-.024.66.48.48,0,0,0,.658.024,0,0,0,0,0,0,0,3.716,3.716,0,0,1,1.562-.862l-1.487,2.2a.466.466,0,0,0,.043.576l3.918,4.256H34.694v-3.164a.466.466,0,1,0-.932,0v3.164h-1.6v-2.961a3.954,3.954,0,0,0-3.97-3.943,2.811,2.811,0,0,0,.276-.361h1.855a.466.466,0,0,0,.466-.466v-2.288a4.7,4.7,0,1,0-9.4,0v2.288a.466.466,0,0,0,.466.466h1.856a2.834,2.834,0,0,0,.276.361,3.954,3.954,0,0,0-3.97,3.943v2.961H18.8v-3.521a4.786,4.786,0,0,0-4.945-4.777h-.239a3.393,3.393,0,0,0,1.073-2.474v-3.307A1.968,1.968,0,0,0,13,146.284h0a1.953,1.953,0,0,0-1.373.344.589.589,0,0,1-.694,0,1.942,1.942,0,0,0-1.373-.344,1.968,1.968,0,0,0-1.685,1.973v3.307a3.393,3.393,0,0,0,1.073,2.474H8.7a4.788,4.788,0,0,0-4.741,4.777v3.61a1.762,1.762,0,0,0,.549,3.437H47.66a1.761,1.761,0,0,0,.548-3.436Zm-20.216-8.9a1.906,1.906,0,1,1-3.812,0v-1.445l3.812.511Zm-5.673.613v-1.822a3.767,3.767,0,0,1,7.535,0v1.822h-1a2.984,2.984,0,0,0,.067-.613v-1.343a.466.466,0,0,0-.4-.462l-4.744-.635a.466.466,0,0,0-.528.462v1.979a3.348,3.348,0,0,0,.067.613Zm21.393,1.623,1.322,1.957-2.967,3.223Zm-2.726,5.5-1.936-6.095h3.872Zm6.29-2.37v3.441H42.049l3.918-4.255a.466.466,0,0,0,.043-.576l-1.486-2.2A3.728,3.728,0,0,1,47.276,158.9Zm-7.829-11.631h2.642a2.7,2.7,0,0,0,1.242-.3l.779-.407A2.677,2.677,0,0,1,43.633,149H38.524l-.088-.545a1.023,1.023,0,0,1,1.01-1.186Zm-.853,4.582v-1.919h4.785v1.919a2.393,2.393,0,1,1-4.785,0Zm-1.654,5.874,1.322-1.957c1.632,5.138,1.453,4.576,1.645,5.18Zm-5.713,1.656v2.961H26.552v-1.314l2.156-1.321a1.848,1.848,0,0,0,.706-2.373l-.4-.853A3.016,3.016,0,0,1,31.226,159.376ZM23.6,157.728l.335-.707,1.127,2.567-1.111-.681A.919.919,0,0,1,23.6,157.728Zm1.065-1.363h2.842L26.086,159.6Zm3.572.655.335.708a.919.919,0,0,1-.351,1.179l-1.111.681Zm-7.291,2.355a3.016,3.016,0,0,1,2.217-2.9l-.4.854a1.849,1.849,0,0,0,.706,2.373l2.156,1.321v1.314H20.945Zm-3.082-.561v3.521H12.341l3.918-4.255a.466.466,0,0,0,.051-.565l-1.568-2.475A3.852,3.852,0,0,1,17.864,158.815ZM14,155.605l1.335,2.108-3,3.256Zm-4.659-.635h3.881l-1.94,6.26Zm.884,6-3-3.256,1.335-2.108ZM8.8,148.257a1.035,1.035,0,0,1,.87-1.049,1.011,1.011,0,0,1,.715.177,1.528,1.528,0,0,0,1.776,0,1.011,1.011,0,0,1,.717-.179,1.036,1.036,0,0,1,.871,1.049v.682a2,2,0,0,0-1.006-.282,1.924,1.924,0,0,0-1.122.359.587.587,0,0,1-.692,0,1.925,1.925,0,0,0-1.124-.358,1.989,1.989,0,0,0-1,.281Zm0,3.307v-.973a1.006,1.006,0,0,1,1.587-.817,1.526,1.526,0,0,0,1.775,0,.994.994,0,0,1,.581-.186,1.006,1.006,0,0,1,1.006,1v.973a2.474,2.474,0,1,1-4.949,0ZM7.778,155.1l-1.532,2.419a.466.466,0,0,0,.051.565l3.918,4.256H4.9v-3.521A3.851,3.851,0,0,1,7.777,155.1ZM47.66,164.93H4.512a.831.831,0,0,1-.008-1.661H47.66a.831.831,0,1,1,0,1.662Z" transform="translate(0 -117.575)"/>
      <path id="Trazado_1159761" data-name="Trazado 1159761" d="M171.422,206.9a.474.474,0,0,0-.606.261.466.466,0,1,0,.606-.261Z" transform="translate(-136.726 -167.564)"/>
    </g>
  </g>
</svg>
