<svg xmlns="http://www.w3.org/2000/svg" xmlns:xlink="http://www.w3.org/1999/xlink" width="113" height="113" viewBox="0 0 113 113">
  <defs>
    <filter id="Trazado_982547" x="0" y="0" width="113" height="113" filterUnits="userSpaceOnUse">
      <feOffset dy="3" input="SourceAlpha"/>
      <feGaussianBlur stdDeviation="3" result="blur"/>
      <feFlood flood-opacity="0.161"/>
      <feComposite operator="in" in2="blur"/>
      <feComposite in="SourceGraphic"/>
    </filter>
  </defs>
  <g id="Grupo_1215609" data-name="Grupo 1215609" transform="translate(-429 -538.501)">
    <g id="Grupo_1214345" data-name="Grupo 1214345" transform="translate(0 -3628.444)">
      <g id="Grupo_1210956" data-name="Grupo 1210956" transform="translate(438 4172.946)">
        <g id="Grupo_1209935" data-name="Grupo 1209935">
          <g id="Grupo_1208705" data-name="Grupo 1208705">
            <g id="Grupo_1148633" data-name="Grupo 1148633">
              <g id="Grupo_1148525" data-name="Grupo 1148525">
                <g transform="matrix(1, 0, 0, 1, -9, -6)" filter="url(#Trazado_982547)">
                  <g id="Trazado_982547-2" data-name="Trazado 982547" transform="translate(9 6)" fill="#f9e3d4">
                    <path d="M 47.5 93.5 C 41.28937149047852 93.5 35.26533508300781 92.28397369384766 29.59518623352051 89.88570404052734 C 24.11771965026855 87.56893157958984 19.19813346862793 84.25196075439453 14.97309303283691 80.02691650390625 C 10.74804019927979 75.80186462402344 7.431066513061523 70.88229370117188 5.114293098449707 65.40481567382812 C 2.716026782989502 59.73468017578125 1.5 53.71062850952148 1.5 47.5 C 1.5 41.28937149047852 2.716026782989502 35.26533508300781 5.114293098449707 29.59518623352051 C 7.431066513061523 24.11771965026855 10.74804019927979 19.19813346862793 14.97309303283691 14.97309303283691 C 19.19813346862793 10.74804019927979 24.11771965026855 7.431066513061523 29.59518623352051 5.114293098449707 C 35.26533508300781 2.716026782989502 41.28937149047852 1.5 47.5 1.5 C 53.71062850952148 1.5 59.73468017578125 2.716026782989502 65.40481567382812 5.114293098449707 C 70.88229370117188 7.431066513061523 75.80186462402344 10.74804019927979 80.02691650390625 14.97309303283691 C 84.25196075439453 19.19813346862793 87.56893157958984 24.11771965026855 89.88570404052734 29.59518623352051 C 92.28397369384766 35.26533508300781 93.5 41.28937149047852 93.5 47.5 C 93.5 53.71062850952148 92.28397369384766 59.73468017578125 89.88570404052734 65.40481567382812 C 87.56893157958984 70.88229370117188 84.25196075439453 75.80186462402344 80.02691650390625 80.02691650390625 C 75.80186462402344 84.25196075439453 70.88229370117188 87.56893157958984 65.40481567382812 89.88570404052734 C 59.73468017578125 92.28397369384766 53.71062850952148 93.5 47.5 93.5 Z" stroke="none"/>
                    <path d="M 47.5 3 C 41.49121475219727 3 35.66376876831055 4.176155090332031 30.17950439453125 6.495796203613281 C 24.88084411621094 8.736953735351562 20.12152099609375 11.94598388671875 16.03375244140625 16.03375244140625 C 11.94598388671875 20.12152099609375 8.736953735351562 24.88084411621094 6.495796203613281 30.17950439453125 C 4.176155090332031 35.66376876831055 3 41.49121475219727 3 47.5 C 3 53.50878524780273 4.176155090332031 59.33623123168945 6.495796203613281 64.82049560546875 C 8.736953735351562 70.11915588378906 11.94598388671875 74.87847900390625 16.03375244140625 78.96624755859375 C 20.12152099609375 83.05401611328125 24.88084411621094 86.26304626464844 30.17950439453125 88.50419616699219 C 35.66376876831055 90.82384490966797 41.49121475219727 92 47.5 92 C 53.50878524780273 92 59.33623123168945 90.82384490966797 64.82049560546875 88.50419616699219 C 70.11915588378906 86.26304626464844 74.87847900390625 83.05401611328125 78.96624755859375 78.96624755859375 C 83.05401611328125 74.87847900390625 86.26304626464844 70.11915588378906 88.50419616699219 64.82049560546875 C 90.82384490966797 59.33623123168945 92 53.50878524780273 92 47.5 C 92 41.49121475219727 90.82384490966797 35.66376876831055 88.50419616699219 30.17950439453125 C 86.26304626464844 24.88084411621094 83.05401611328125 20.12152099609375 78.96624755859375 16.03375244140625 C 74.87847900390625 11.94598388671875 70.11915588378906 8.736953735351562 64.82049560546875 6.495796203613281 C 59.33623123168945 4.176155090332031 53.50878524780273 3 47.5 3 M 47.5 0 C 73.7335205078125 0 95 21.2664794921875 95 47.5 C 95 73.7335205078125 73.7335205078125 95 47.5 95 C 21.2664794921875 95 0 73.7335205078125 0 47.5 C 0 21.2664794921875 21.2664794921875 0 47.5 0 Z" stroke="none" fill="#eca675"/>
                  </g>
                </g>
              </g>
            </g>
          </g>
        </g>
      </g>
    </g>
    <g id="palacio-de-justicia_1_" data-name="palacio-de-justicia (1)" transform="translate(433.557 546.415)">
      <path id="Trazado_1159888" data-name="Trazado 1159888" d="M78.939,58.868l8.082-.373c2.46-.113,4.9,1.545,4.913,3.921l.009,2.424c.008,2.368-2.427,4.04-4.888,3.938l-8.116-.341v6.429h.938a.87.87,0,0,1,.87.87v4.741h1.992a.87.87,0,0,1,.87.87v4.319h2.582a.87.87,0,0,1,.87.87v5.681a.87.87,0,0,1-.87.87H16.877a.87.87,0,0,1-.87-.87V86.534a.87.87,0,0,1,.87-.87h2.582V81.345a.87.87,0,0,1,.87-.87h2.009V75.735a.87.87,0,0,1,.87-.87h.938V52.012H23.19a.87.87,0,0,1-.87-.87V46.548H17.625a.87.87,0,0,1-.87-.87V40.572a.87.87,0,0,1,.6-.827l33.7-21.929a.867.867,0,0,1,.96.01L85.855,39.807a.87.87,0,0,1,.456.765v5.107a.87.87,0,0,1-.87.87H80.728v4.594a.87.87,0,0,1-.87.87h-.92v6.856Zm-22.954.979,14.73-.68V51.931h-.957a.87.87,0,0,1-.87-.87V46.468H34.154v4.594a.87.87,0,0,1-.87.87h-.919V74.785H33.3a.87.87,0,0,1,.87.87V80.4H68.906V75.655a.87.87,0,0,1,.87-.87h.938V68.011l-14.709-.617.007,2.652a3.512,3.512,0,0,1,2.432,3.329l.006,2.263a2.192,2.192,0,0,1-2.186,2.193l-9.638.026a2.191,2.191,0,0,1-2.193-2.186l-.006-2.263a3.511,3.511,0,0,1,2.414-3.337l-.035-12.852a3.513,3.513,0,0,1-2.433-3.329l-.006-2.263a2.191,2.191,0,0,1,2.186-2.193l9.638-.026a2.191,2.191,0,0,1,2.193,2.186l.006,2.263a3.511,3.511,0,0,1-2.414,3.337Z" fill-rule="evenodd"/>
      <path id="Trazado_1159889" data-name="Trazado 1159889" d="M45.018,49.305H106.93L75.952,29.178ZM75.952,35.987a5.54,5.54,0,1,1-5.54,5.54,5.54,5.54,0,0,1,5.54-5.54Z" transform="translate(-24.421 -9.683)" fill="#688b96" fill-rule="evenodd"/>
      <path id="Trazado_1159890" data-name="Trazado 1159890" d="M0,0H5.706V12.511H0Z" transform="translate(48.55 57.376) rotate(-0.172)" fill="#ba9463"/>
      <g id="Grupo_1215605" data-name="Grupo 1215605" transform="translate(17.743 28.04)">
        <path id="Trazado_1159891" data-name="Trazado 1159891" d="M372.8,241.357l4.743-.219V234.2H372.8Z" transform="translate(-318.087 -210.311)" fill="#ccc" fill-rule="evenodd"/>
        <path id="Trazado_1159892" data-name="Trazado 1159892" d="M377.54,336.5l-4.743-.2V343h4.743Z" transform="translate(-318.087 -296.256)" fill="#fff" fill-rule="evenodd"/>
        <path id="Trazado_1159893" data-name="Trazado 1159893" d="M268.739,291.622l31.119,1.306a3.4,3.4,0,0,0,2.269-.7,1.974,1.974,0,0,0,.818-1.507l-.009-2.424c-.029-1.364-1.635-2.256-3.106-2.188l-31.1,1.436Z" transform="translate(-230.482 -254.004)" fill="#9a774d" fill-rule="evenodd"/>
        <path id="Trazado_1159894" data-name="Trazado 1159894" d="M206.6,360.39l.006,2.263a.464.464,0,0,0,.461.454l9.638-.026a.464.464,0,0,0,.454-.461l-.006-2.263a1.781,1.781,0,0,0-1.778-1.764l-7.011.019a1.788,1.788,0,0,0-1.764,1.779Z" transform="translate(-178.183 -315.022)" fill="#ba9463" fill-rule="evenodd"/>
        <path id="Trazado_1159895" data-name="Trazado 1159895" d="M216.778,231.916l-.006-2.263a.463.463,0,0,0-.461-.454l-9.638.026a.464.464,0,0,0-.454.461l.006,2.263A1.781,1.781,0,0,0,208,233.714l7.01-.019A1.787,1.787,0,0,0,216.778,231.916Z" transform="translate(-177.863 -206.099)" fill="#ba9463" fill-rule="evenodd"/>
        <path id="Trazado_1159896" data-name="Trazado 1159896" d="M223.009,84.3a3.8,3.8,0,1,0,0,5.375A3.805,3.805,0,0,0,223.009,84.3Z" transform="translate(-186.535 -83.189)" fill="#e6a211" fill-rule="evenodd"/>
        <path id="Trazado_1159897" data-name="Trazado 1159897" d="M26.982,461.85H94.555v-3.942H26.982Z" transform="translate(-26.982 -398.625)" fill="#4d4d4d" fill-rule="evenodd"/>
        <path id="Trazado_1159898" data-name="Trazado 1159898" d="M48.8,428.564h60.67v-3.449H48.8Z" transform="translate(-45.348 -371.02)" fill="#666" fill-rule="evenodd"/>
      </g>
      <path id="Trazado_1159899" data-name="Trazado 1159899" d="M67,389.652h8.358v3.871H67Z" transform="translate(-42.926 -313.128)" fill="gray"/>
      <path id="Trazado_1159900" data-name="Trazado 1159900" d="M361.371,389.652h8.358v3.871h-8.358Z" transform="translate(-290.725 -313.128)" fill="gray"/>
      <path id="Trazado_1159901" data-name="Trazado 1159901" d="M31.711,167.39H97.788v3.368H31.711Z" transform="translate(-13.22 -126.029)" fill="#666"/>
      <path id="Trazado_1159902" data-name="Trazado 1159902" d="M78.426,234.2h4.743v22.854H78.426Z" transform="translate(-52.544 -182.271)" fill="#ccc"/>
      <path id="Trazado_1159903" data-name="Trazado 1159903" d="M66.885,199.668v3.724h8.358v-3.724Z" transform="translate(-42.829 -153.2)" fill="gray" fill-rule="evenodd"/>
      <path id="Trazado_1159904" data-name="Trazado 1159904" d="M361.256,199.668h8.358v3.724h-8.358Z" transform="translate(-290.629 -153.2)" fill="gray"/>
    </g>
  </g>
</svg>
