<svg xmlns="http://www.w3.org/2000/svg" xmlns:xlink="http://www.w3.org/1999/xlink" width="108" height="108" viewBox="0 0 108 108">
  <defs>
    <filter id="Trazado_904820" x="0" y="0" width="108" height="108" filterUnits="userSpaceOnUse">
      <feOffset dy="3" input="SourceAlpha"/>
      <feGaussianBlur stdDeviation="3" result="blur"/>
      <feFlood flood-opacity="0.161"/>
      <feComposite operator="in" in2="blur"/>
      <feComposite in="SourceGraphic"/>
    </filter>
  </defs>
  <g id="Grupo_1215360" data-name="Grupo 1215360" transform="translate(-197 -508)">
    <g id="Grupo_1209015" data-name="Grupo 1209015" transform="translate(0 -2158.055)">
      <g id="Grupo_1207774" data-name="Grupo 1207774" transform="translate(206 2670.713)">
        <g id="Grupo_1206630" data-name="Grupo 1206630" transform="translate(0 1.342)">
          <g id="Grupo_1185091" data-name="Grupo 1185091" transform="translate(0 0)">
            <g id="Grupo_1179560" data-name="Grupo 1179560">
              <g id="Grupo_1173787" data-name="Grupo 1173787" transform="translate(0)">
                <g id="Grupo_1171910" data-name="Grupo 1171910">
                  <g id="Grupo_1167341" data-name="Grupo 1167341">
                    <g id="Grupo_1166792" data-name="Grupo 1166792">
                      <g transform="matrix(1, 0, 0, 1, -9, -6)" filter="url(#Trazado_904820)">
                        <g id="Trazado_904820-2" data-name="Trazado 904820" transform="translate(9 6)" fill="#fcf5f0">
                          <path d="M 44.99999618530273 88.50006866455078 C 39.12687301635742 88.50006866455078 33.43022155761719 87.35014343261719 28.06829643249512 85.08222961425781 C 22.88852119445801 82.89136505126953 18.23629570007324 79.75465393066406 14.24084663391113 75.75919342041016 C 10.24540901184082 71.76374053955078 7.108683586120605 67.11151885986328 4.917821407318115 61.93174362182617 C 2.649921178817749 56.56980514526367 1.499996185302734 50.87315368652344 1.499996185302734 45.00003051757812 C 1.499996185302734 39.12690734863281 2.649921178817749 33.43025588989258 4.917821407318115 28.06831741333008 C 7.108683586120605 22.88854217529297 10.24540901184082 18.23631858825684 14.24084663391113 14.24086761474609 C 18.23629570007324 10.24541759490967 22.88852119445801 7.10869312286377 28.06829643249512 4.917842864990234 C 33.43022155761719 2.649930477142334 39.12687301635742 1.500005483627319 44.99999618530273 1.500005483627319 C 50.87311935424805 1.500005483627319 56.56977081298828 2.649930477142334 61.93169784545898 4.917842864990234 C 67.11147308349609 7.10869312286377 71.76369476318359 10.24541759490967 75.75914764404297 14.24086761474609 C 79.75458526611328 18.23631858825684 82.89131164550781 22.88854217529297 85.08216857910156 28.06831741333008 C 87.35007476806641 33.43025588989258 88.5 39.12690734863281 88.5 45.00003051757812 C 88.5 50.87315368652344 87.35007476806641 56.56980514526367 85.08216857910156 61.93174362182617 C 82.89131164550781 67.11151885986328 79.75458526611328 71.76374053955078 75.75914764404297 75.75919342041016 C 71.76369476318359 79.75465393066406 67.11147308349609 82.89136505126953 61.93169784545898 85.08222961425781 C 56.56977081298828 87.35014343261719 50.87311935424805 88.50006866455078 44.99999618530273 88.50006866455078 Z" stroke="none"/>
                          <path d="M 44.99999618530273 3 C 39.32870864868164 3 33.82865142822266 4.110061645507812 28.65262603759766 6.299346923828125 C 23.65165710449219 8.414573669433594 19.15968322753906 11.44334411621094 15.301513671875 15.30152893066406 C 11.44333648681641 19.15969848632812 8.414566040039062 23.65167236328125 6.299339294433594 28.65264511108398 C 4.110054016113281 33.82868576049805 2.999992370605469 39.32874298095703 2.999992370605469 45.00003051757812 C 2.999992370605469 50.67131805419922 4.110054016113281 56.1713752746582 6.299339294433594 61.34741592407227 C 8.414566040039062 66.348388671875 11.44333648681641 70.84036254882812 15.301513671875 74.69853210449219 C 19.15968322753906 78.55671691894531 23.65165710449219 81.58548736572266 28.65262603759766 83.70071411132812 C 33.82865142822266 85.88999938964844 39.32870864868164 87.00006103515625 44.99999618530273 87.00006103515625 C 50.67128372192383 87.00006103515625 56.17134094238281 85.88999938964844 61.34736633300781 83.70071411132812 C 66.34834289550781 81.58548736572266 70.84030914306641 78.55671691894531 74.69847869873047 74.69853210449219 C 78.55665588378906 70.84036254882812 81.58542633056641 66.348388671875 83.70065307617188 61.34741592407227 C 85.88993835449219 56.1713752746582 87 50.67131805419922 87 45.00003051757812 C 87 39.32874298095703 85.88993835449219 33.82868576049805 83.70065307617188 28.65264511108398 C 81.58542633056641 23.65167236328125 78.55665588378906 19.15969848632812 74.69847869873047 15.30152893066406 C 70.84030914306641 11.44334411621094 66.34834289550781 8.414573669433594 61.34736633300781 6.299346923828125 C 56.17134094238281 4.110061645507812 50.67128372192383 3 44.99999618530273 3 M 44.99999618530273 0 C 69.85281372070312 0 90 20.14720153808594 90 45.00003051757812 C 90 69.85285949707031 69.85281372070312 90.00006103515625 44.99999618530273 90.00006103515625 C 20.14717864990234 90.00006103515625 -7.62939453125e-06 69.85285949707031 -7.62939453125e-06 45.00003051757812 C -7.62939453125e-06 20.14720153808594 20.14717864990234 0 44.99999618530273 0 Z" stroke="none" fill="#eca675"/>
                        </g>
                      </g>
                    </g>
                  </g>
                </g>
              </g>
            </g>
          </g>
        </g>
      </g>
    </g>
    <g id="protesta" transform="translate(215.489 516.48)">
      <g id="Grupo_1215368" data-name="Grupo 1215368" transform="translate(1.002 23.873)">
        <g id="Grupo_1215364" data-name="Grupo 1215364" transform="translate(0 0)">
          <g id="Grupo_1215363" data-name="Grupo 1215363">
            <g id="Grupo_1215362" data-name="Grupo 1215362">
              <path id="Trazado_1087868" data-name="Trazado 1087868" d="M57.18,114.3H82.561v5.313l-5.706,8.793-19.675-.955Z" transform="translate(-50.25 -102.653)" fill="#dd9162"/>
              <path id="Trazado_1087869" data-name="Trazado 1087869" d="M193.925,59.062c0-1.785.734-3.88,2.461-4.093a3.541,3.541,0,0,1,.433-.027,3.5,3.5,0,0,1,3.5,3.5v6.333a3.5,3.5,0,0,1-3.5,3.5,3.541,3.541,0,0,1-.433-.027c-1.727-.213-2.487-2.206-2.487-3.99Z" transform="translate(-168.004 -51.528)" fill="#dd9162"/>
              <path id="Trazado_1087870" data-name="Trazado 1087870" d="M191.9,66.373c-.036,0-.074,0-.112,0a1.927,1.927,0,0,1-1.835-1.943V55.137a3.5,3.5,0,0,0-3.064,3.47l-.46,2.749.46,3.585a3.5,3.5,0,0,0,3.064,3.47,3.452,3.452,0,0,0,.433.027,3.5,3.5,0,0,0,3.381-2.605A3.477,3.477,0,0,1,191.9,66.373Z" transform="translate(-161.57 -51.696)" fill="#d3865b"/>
              <path id="Trazado_1087871" data-name="Trazado 1087871" d="M141.508,44.566c0-1.785.989-3.672,2.716-3.885a3.541,3.541,0,0,1,.433-.027,3.5,3.5,0,0,1,3.5,3.5v8.535a3.49,3.49,0,0,1-.184,1.123s-.544.651-.822.981a3.269,3.269,0,0,1-2.49,1.392,3.541,3.541,0,0,1-.433-.027c-1.727-.213-2.768-2.192-2.768-3.976Z" transform="translate(-122.836 -39.222)" fill="#dd9162"/>
              <path id="Trazado_1087872" data-name="Trazado 1087872" d="M142.3,54.562h-.016a1.823,1.823,0,0,1-1.793-1.831V40.849a3.5,3.5,0,0,0-3.064,3.47l-.306,3.779.306,4.756a3.5,3.5,0,0,0,3.064,3.47h0a3.45,3.45,0,0,0,.433.027,3.5,3.5,0,0,0,3.312-2.374,3.487,3.487,0,0,1-1.936.585Z" transform="translate(-119.098 -39.39)" fill="#d3865b"/>
              <path id="Trazado_1087873" data-name="Trazado 1087873" d="M91.1,42.586l-.208-8.109c0-1.785,1.062-3.9,2.788-4.117a3.542,3.542,0,0,1,.433-.027,3.5,3.5,0,0,1,3.5,3.5v9.416a3.5,3.5,0,0,1-3.5,3.5,3.541,3.541,0,0,1-.433-.027c-1.117-.138-2.58-1.965-2.58-4.129Z" transform="translate(-79.287 -30.333)" fill="#dd9162"/>
              <path id="Trazado_1087874" data-name="Trazado 1087874" d="M41.565,57.713l-.014-6.63a4.221,4.221,0,0,1,2.584-4.074,3.581,3.581,0,0,1,.461-.03A3.515,3.515,0,0,1,48.1,50.11c.013.12-.109.241-.109.365l.191,7.175Z" transform="translate(-36.789 -44.671)" fill="#dd9162"/>
              <path id="Trazado_1087875" data-name="Trazado 1087875" d="M45.207,57.84l-.063-7.174a3.51,3.51,0,0,0-.019-.366c-.116.014-.233.031-.35.055l-2.676.621a.766.766,0,0,1-.939-.746V47.2A3.506,3.506,0,0,0,38.1,50.666V57.9l3.064-.027Z" transform="translate(-33.813 -44.86)" fill="#d3865b"/>
              <path id="Trazado_1087876" data-name="Trazado 1087876" d="M89.976,45.81H89.97a.716.716,0,0,1-.575-1.141,5.8,5.8,0,0,0,1.022-4.345,5.408,5.408,0,0,0-1.95-3.411.773.773,0,0,1-.3-.606V30.528A3.5,3.5,0,0,0,85.1,34v2.274l-.613,3.249.613,3.7a3.5,3.5,0,0,0,1.815,3.253h0a3.476,3.476,0,0,0,1.238.4l.009,0A3.49,3.49,0,0,0,91.4,45.5,3.454,3.454,0,0,1,89.976,45.81Z" transform="translate(-73.773 -30.501)" fill="#d3865b"/>
              <path id="Trazado_1087877" data-name="Trazado 1087877" d="M33.839,100.328H26.36a.608.608,0,0,1-.533-.313,8.293,8.293,0,0,0-7.506-4.408.457.457,0,0,1-.432-.354l-.7-2.961a.46.46,0,0,1,.331-.55l3.618-.947a3.5,3.5,0,1,0-1.481-6.835l-7.165,1.755c-1.613.35-2.675,2.44-2.709,4.02,0,0,.039,5.593.039,5.593,0,4.1,5.5,9.586,9.211,11.321,1.494.7,1.183,25.764,1.259,31.2.007.507.831.99.831,1.212H38.157s.9-.3.9-.681c.006-.662.012-28.015.018-28.07a15.553,15.553,0,0,1,.679-3.281c.011-.029.022-.057.034-.084a24.587,24.587,0,0,0,1.326-4.3,19.928,19.928,0,0,0,.45-3.871l.179-5.36Z" transform="translate(-9.43 -76.452)" fill="#dd9162"/>
              <path id="Trazado_1087878" data-name="Trazado 1087878" d="M17.734,116.63a8.824,8.824,0,0,0-2.979-2.443c-3.71-1.733-4.459-4.152-4.463-8.247l0-8.831a3.511,3.511,0,0,0-3.063,3.414h0l.006,7.032a10.557,10.557,0,0,0,6.084,9.554,4.887,4.887,0,0,1,2.921,4.533c0,.064,0,27.446.005,28.124a.687.687,0,0,0,.688.686h1.991c0-.083,0-29.075,0-29.163a7.338,7.338,0,0,0-1.186-4.659Z" transform="translate(-7.223 -87.846)" fill="#d3865b"/>
            </g>
          </g>
        </g>
        <g id="Grupo_1215366" data-name="Grupo 1215366" transform="translate(36.536 5.815)">
          <path id="Trazado_1087879" data-name="Trazado 1087879" d="M320.553,156.192h25.372V161.5l-5.7,8.79-19.668-.955Z" transform="translate(-313.626 -144.548)" fill="#f4aa73"/>
          <path id="Trazado_1087880" data-name="Trazado 1087880" d="M457.249,100.972c0-1.784.734-3.879,2.46-4.092a3.539,3.539,0,0,1,.433-.027,3.5,3.5,0,0,1,3.5,3.5v6.331a3.5,3.5,0,0,1-3.5,3.5,3.539,3.539,0,0,1-.433-.027c-1.726-.213-2.486-2.205-2.486-3.989Z" transform="translate(-431.338 -93.441)" fill="#f4aa73"/>
          <path id="Trazado_1087881" data-name="Trazado 1087881" d="M455.223,108.28c-.036,0-.073,0-.112,0a1.926,1.926,0,0,1-1.834-1.942V97.048a3.5,3.5,0,0,0-3.063,3.468l-.459,2.748.459,3.583a3.5,3.5,0,0,0,3.063,3.468,3.446,3.446,0,0,0,.433.027,3.5,3.5,0,0,0,3.38-2.6A3.476,3.476,0,0,1,455.223,108.28Z" transform="translate(-424.905 -93.609)" fill="#ea9f6c"/>
          <path id="Trazado_1087882" data-name="Trazado 1087882" d="M404.852,86.482c0-1.784.989-3.67,2.715-3.884a3.539,3.539,0,0,1,.433-.027,3.5,3.5,0,0,1,3.5,3.5V94.6a3.492,3.492,0,0,1-.184,1.123s-.543.651-.822.981A3.268,3.268,0,0,1,408,98.094a3.539,3.539,0,0,1-.433-.027c-1.726-.213-2.767-2.191-2.767-3.975Z" transform="translate(-386.186 -81.14)" fill="#f4aa73"/>
          <path id="Trazado_1087883" data-name="Trazado 1087883" d="M405.638,96.375h-.016a1.822,1.822,0,0,1-1.793-1.831V82.667a3.5,3.5,0,0,0-3.063,3.468l-.306,3.778.306,4.755a3.5,3.5,0,0,0,3.063,3.468h0a3.448,3.448,0,0,0,.433.027,3.5,3.5,0,0,0,3.311-2.373,3.486,3.486,0,0,1-1.936.585Z" transform="translate(-382.449 -81.222)" fill="#ea9f6c"/>
          <path id="Trazado_1087884" data-name="Trazado 1087884" d="M354.462,84.5l-.208-8.106c0-1.784,1.061-3.9,2.787-4.116a3.54,3.54,0,0,1,.433-.027,3.5,3.5,0,0,1,3.5,3.5v9.413a3.5,3.5,0,0,1-3.5,3.5,3.539,3.539,0,0,1-.433-.027C355.925,88.492,354.462,86.665,354.462,84.5Z" transform="translate(-342.652 -72.253)" fill="#f4aa73"/>
          <path id="Trazado_1087885" data-name="Trazado 1087885" d="M304.944,99.623,304.93,93a4.219,4.219,0,0,1,2.583-4.073,3.579,3.579,0,0,1,.461-.03,3.513,3.513,0,0,1,3.5,3.129c.013.12-.109.241-.109.365l.191,7.173Z" transform="translate(-300.17 -86.585)" fill="#f4aa73"/>
          <path id="Trazado_1087886" data-name="Trazado 1087886" d="M308.585,99.75l-.063-7.171a3.5,3.5,0,0,0-.019-.366c-.116.014-.233.031-.35.055l-2.675.621a.766.766,0,0,1-.939-.746V89.114a3.5,3.5,0,0,0-3.063,3.465v7.234l3.063-.027Z" transform="translate(-297.195 -86.775)" fill="#ea9f6c"/>
          <path id="Trazado_1087887" data-name="Trazado 1087887" d="M353.338,87.724h-.007a.716.716,0,0,1-.575-1.141,5.8,5.8,0,0,0,1.022-4.343,5.407,5.407,0,0,0-1.95-3.41.773.773,0,0,1-.3-.606V72.447a3.5,3.5,0,0,0-3.063,3.468l-.019,1.942.019.331-.613,3.248.613,3.7a3.5,3.5,0,0,0,1.815,3.252h0a3.477,3.477,0,0,0,1.238.4l.009,0a3.455,3.455,0,0,0,.433.027,3.49,3.49,0,0,0,2.8-1.406A3.455,3.455,0,0,1,353.338,87.724Z" transform="translate(-337.139 -72.42)" fill="#ea9f6c"/>
          <path id="Trazado_1087888" data-name="Trazado 1087888" d="M297.219,142.224h-7.477a.608.608,0,0,1-.533-.313,8.29,8.29,0,0,0-7.5-4.407.457.457,0,0,1-.432-.354l-.7-2.96a.459.459,0,0,1,.331-.55l3.617-.947a3.5,3.5,0,0,0-1.481-6.832l-7.163,1.754c-1.612.349-2.674,2.439-2.708,4.019,0,0,.039,5.591.039,5.591,0,4.094,4.239,8.687,7.947,10.422l.488.349c1.633.763,3.315,27.151,3.315,27.151l1.461-.667,1.433.667h13.888a.687.687,0,0,0,.688-.681c.006-.662.012-22.213.018-22.268a15.54,15.54,0,0,1,.678-3.28c.011-.029.022-.057.034-.084a24.583,24.583,0,0,0,1.325-4.3,19.915,19.915,0,0,0,.45-3.87l.179-5.358Z" transform="translate(-272.819 -118.356)" fill="#f4aa73"/>
          <g id="Grupo_1215365" data-name="Grupo 1215365" transform="translate(0 9.259)">
            <path id="Trazado_1087889" data-name="Trazado 1087889" d="M273.681,147.832,273.676,139a3.51,3.51,0,0,0-3.062,3.413h0l.006,7.03a10.55,10.55,0,0,0,.2,2.047h3.216A15.138,15.138,0,0,1,273.681,147.832Z" transform="translate(-270.612 -139.004)" fill="#ea9f6c"/>
            <path id="Trazado_1087890" data-name="Trazado 1087890" d="M329.057,184.508a3.732,3.732,0,0,0-.891.091.661.661,0,0,1-.788-.448l-.9-2.955-1.564.41a.456.456,0,0,0-.333.532l.668,2.876a8.762,8.762,0,0,1,.227,2.09l-.1,8.271,4.365,27.5h2.385a2.9,2.9,0,0,0,.08-.66s.005-4.676.009-5.691a7.824,7.824,0,0,1,.168-1.538c.011-.052.021-.1.029-.155.118-.713,1.412-4.61,1.8-6.362a22.265,22.265,0,0,0,.5-4.307l.11-1.711.07-2.023V190.342A5.84,5.84,0,0,0,329.057,184.508Z" transform="translate(-317.087 -175.343)" fill="#ea9f6c"/>
          </g>
        </g>
        <g id="Grupo_1215367" data-name="Grupo 1215367" transform="translate(19.774 23.358)">
          <path id="Trazado_1087891" data-name="Trazado 1087891" d="M199.38,282.1h25.2v5.275l-5.666,8.731-19.536-.949Z" transform="translate(-192.499 -270.535)" fill="#ffd18d"/>
          <path id="Trazado_1087892" data-name="Trazado 1087892" d="M335.157,227.251c0-1.772.729-3.853,2.443-4.064a3.471,3.471,0,0,1,3.9,3.445v6.288a3.471,3.471,0,0,1-3.9,3.445c-1.715-.212-2.469-2.19-2.469-3.962Z" transform="translate(-309.42 -219.771)" fill="#ffd18d"/>
          <path id="Trazado_1087893" data-name="Trazado 1087893" d="M333.145,234.51c-.036,0-.073,0-.111,0a1.913,1.913,0,0,1-1.822-1.929v-9.227a3.472,3.472,0,0,0-3.042,3.445l-.456,2.729.456,3.559a3.472,3.472,0,0,0,3.042,3.445,3.429,3.429,0,0,0,.43.027A3.473,3.473,0,0,0,335,233.973,3.452,3.452,0,0,1,333.145,234.51Z" transform="translate(-303.032 -219.938)" fill="#fbbd80"/>
          <path id="Trazado_1087894" data-name="Trazado 1087894" d="M283.113,212.857c0-1.772.982-3.646,2.7-3.858a3.471,3.471,0,0,1,3.9,3.445v8.475a3.47,3.47,0,0,1-.183,1.115s-.54.646-.816.974a3.246,3.246,0,0,1-2.472,1.382,3.52,3.52,0,0,1-.43-.027c-1.715-.212-2.748-2.176-2.748-3.948Z" transform="translate(-264.573 -207.551)" fill="#ffd18d"/>
          <path id="Trazado_1087895" data-name="Trazado 1087895" d="M283.893,222.784h-.016a1.81,1.81,0,0,1-1.781-1.819v-11.8a3.472,3.472,0,0,0-3.042,3.445l-.3,3.752.3,4.723a3.472,3.472,0,0,0,3.042,3.445h0a3.429,3.429,0,0,0,.43.027,3.473,3.473,0,0,0,3.289-2.357A3.462,3.462,0,0,1,283.893,222.784Z" transform="translate(-260.86 -207.719)" fill="#fbbd80"/>
          <path id="Trazado_1087896" data-name="Trazado 1087896" d="M233.061,210.892l-.207-8.052c0-1.772,1.054-3.876,2.769-4.088a3.471,3.471,0,0,1,3.9,3.445v9.35a3.47,3.47,0,0,1-3.9,3.445C234.514,214.855,233.061,213.04,233.061,210.892Z" transform="translate(-221.33 -198.725)" fill="#ffd18d"/>
          <path id="Trazado_1087897" data-name="Trazado 1087897" d="M183.876,225.912l-.014-6.583a4.191,4.191,0,0,1,2.566-4.045,3.551,3.551,0,0,1,.457-.029,3.49,3.49,0,0,1,3.48,3.108c.012.119-.109.24-.109.362l.19,7.124Z" transform="translate(-179.134 -212.961)" fill="#ffd18d"/>
          <path id="Trazado_1087898" data-name="Trazado 1087898" d="M187.493,226.038l-.062-7.123a3.5,3.5,0,0,0-.019-.364c-.116.014-.231.031-.348.055l-2.657.617a.76.76,0,0,1-.932-.741v-3.009a3.481,3.481,0,0,0-3.042,3.441V226.1l3.042-.027Z" transform="translate(-176.18 -213.151)" fill="#fbbd80"/>
          <path id="Trazado_1087899" data-name="Trazado 1087899" d="M231.947,214.094h-.007a.711.711,0,0,1-.571-1.133,5.761,5.761,0,0,0,1.015-4.314,5.37,5.37,0,0,0-1.937-3.387.768.768,0,0,1-.3-.6V198.92a3.472,3.472,0,0,0-3.042,3.445v2.258l-.608,3.226.608,3.678a3.476,3.476,0,0,0,1.8,3.23h0a3.452,3.452,0,0,0,1.229.4l.009,0a3.464,3.464,0,0,0,3.214-1.369,3.435,3.435,0,0,1-1.417.3Z" transform="translate(-215.857 -198.893)" fill="#fbbd80"/>
          <path id="Trazado_1087900" data-name="Trazado 1087900" d="M176.205,268.225h-7.426a.6.6,0,0,1-.53-.31,8.234,8.234,0,0,0-7.453-4.377.454.454,0,0,1-.429-.351l-.692-2.94A.456.456,0,0,1,160,259.7l3.592-.94a3.472,3.472,0,0,0-1.471-6.786l-7.114,1.743c-1.6.347-2.656,2.423-2.69,3.992,0,0,.039,5.553.039,5.553a10.684,10.684,0,0,0,5.9,9.708c1.622.758,5.319,8.214,5.319,10.8h17.8s.012-5.578.018-5.633a15.445,15.445,0,0,1,.674-3.258c.011-.028.022-.056.033-.083a24.408,24.408,0,0,0,1.316-4.268,19.787,19.787,0,0,0,.447-3.843l.178-5.322Z" transform="translate(-151.969 -244.518)" fill="#ffd18d"/>
          <path id="Trazado_1087901" data-name="Trazado 1087901" d="M160.213,284.411a8.763,8.763,0,0,0-2.958-2.426c-3.684-1.721-4.427-4.123-4.431-8.189l0-8.769a3.486,3.486,0,0,0-3.041,3.39h0l.006,6.983a10.482,10.482,0,0,0,6.041,9.486,4.853,4.853,0,0,1,2.9,4.5c0,.064.005,5.691.005,5.691h2.66c0-.083,0-5.954,0-6.042A7.285,7.285,0,0,0,160.213,284.411Z" transform="translate(-149.776 -255.831)" fill="#fbbd80"/>
        </g>
      </g>
      <g id="Grupo_1215369" data-name="Grupo 1215369" transform="translate(0 22.832)">
        <path id="Trazado_1087902" data-name="Trazado 1087902" d="M9.614,189.975A9.76,9.76,0,0,1,4.4,183.669a1.04,1.04,0,1,0-2.013.524,11.814,11.814,0,0,0,6.31,7.65l.024.012a3.959,3.959,0,0,1,1.256.994,5.459,5.459,0,0,1,1.316,3.607v27.879a1.04,1.04,0,1,0,2.081,0V196.456a7.538,7.538,0,0,0-1.831-4.977,6.05,6.05,0,0,0-1.93-1.5Z" transform="translate(-2.027 -160.688)"/>
        <path id="Trazado_1087903" data-name="Trazado 1087903" d="M66.491,32.062A4.523,4.523,0,0,0,63.732,33a4.539,4.539,0,0,0-7.176-1.832,4.542,4.542,0,0,0-8.393.669,4.571,4.571,0,0,0-7.259,3.654V37.82l-.72.176a4.514,4.514,0,0,0-3.561,4.254c-.012.187,0,3.89,0,4.016a4.53,4.53,0,0,0-2.224.03V30.764a4.532,4.532,0,0,0-7.289-3.592,4.539,4.539,0,0,0-7.176-1.832,4.542,4.542,0,0,0-8.393.669,4.571,4.571,0,0,0-7.259,3.654v2.332l-.72.176A4.514,4.514,0,0,0,0,36.424c0,.03,0,.061,0,.092l0,4.816a1.04,1.04,0,0,0,1.04,1.04h0A1.04,1.04,0,0,0,2.085,41.33l0-4.756c0-.012,0-.025,0-.037A2.44,2.44,0,0,1,4.018,34.2l.027-.006,7.463-1.821a2.461,2.461,0,0,1,2.911,1.876,2.447,2.447,0,0,1-1.881,2.909l-.043.01L8.441,38.227a1.04,1.04,0,0,0-.756,1.219l.882,4.233a1.04,1.04,0,0,0,1.018.828h.072a7.962,7.962,0,0,1,4.631,1.312,7.558,7.558,0,0,1,3,4.125,1.04,1.04,0,1,0,2.012-.531,9.563,9.563,0,0,0-3.831-5.3,9.715,9.715,0,0,0-5.038-1.659L9.925,39.99,12.2,39.4a4.538,4.538,0,0,0,6.952.485,4.539,4.539,0,0,0,7.314.183,4.529,4.529,0,0,0,5.858.82v6.632a4.53,4.53,0,0,0-1.079,1.8,4.571,4.571,0,0,0-7.259,3.654V55.3l-.72.176A4.579,4.579,0,0,0,19.7,59.827c.005.348,0,7,.012,7.368a1.04,1.04,0,1,0,2.08-.066c-.015-.6-.005-6.739-.011-7.244a2.581,2.581,0,0,1,1.964-2.38l7.463-1.821a2.461,2.461,0,0,1,2.911,1.876,2.422,2.422,0,0,1-.333,1.838,2.692,2.692,0,0,1-1.591,1.081l-4.054,1.058a1.04,1.04,0,0,0-.754,1.227l.882,4.068a1.04,1.04,0,0,0,.96.818,7.99,7.99,0,0,1,7.782,5.829,1.04,1.04,0,1,0,1.975-.654,9.929,9.929,0,0,0-8.847-7.188l-.508-2.34,2.255-.588a4.586,4.586,0,0,0,3.688,1.878,4.53,4.53,0,0,0,3.273-1.4,4.539,4.539,0,0,0,7.314.183,4.529,4.529,0,0,0,5.858.82v4.1a24.768,24.768,0,0,1-.34,3.3,1.04,1.04,0,1,0,2.051.352,28.494,28.494,0,0,0,.371-3.631V54.075a4.532,4.532,0,0,0-7.289-3.592,4.518,4.518,0,0,0-.441-.859l0-3.76,2.451-.639a4.538,4.538,0,0,0,6.952.485,4.539,4.539,0,0,0,7.314.183,4.529,4.529,0,0,0,5.858.82v4.119a22.7,22.7,0,0,1-2.1,9.148l-.016.039a13.324,13.324,0,0,0-.892,4.845V86.48a1.04,1.04,0,0,0,2.081,0V64.862a11.26,11.26,0,0,1,.743-4.072,24.709,24.709,0,0,0,2.268-9.96V36.59a4.534,4.534,0,0,0-4.531-4.527Zm-23.5,3.426a2.486,2.486,0,0,1,4.972,0v.63c-.095.016,0,0-.308.057l-4.663,1.138ZM11.029,30.349,6.366,31.487V29.663a2.486,2.486,0,0,1,4.972,0v.63c-.094.014-.187.03-.281.051ZM15.876,39.2a2.469,2.469,0,0,1-1.536-.539,4.522,4.522,0,0,0-.922-8.195v-3.1a2.458,2.458,0,0,1,4.916,0V36.75A2.455,2.455,0,0,1,15.876,39.2Zm9.455-1.9a2.458,2.458,0,0,1-4.916,0,1.042,1.042,0,0,0-.017-.179c.01-.122.017-.246.017-.37V28.788a2.458,2.458,0,0,1,4.916,0Zm4.539,2.227a2.455,2.455,0,0,1-2.458-2.447V30.764a2.454,2.454,0,0,1,4.909,0V37.08A2.451,2.451,0,0,1,29.87,39.527Zm.856,14.133L26.063,54.8V52.973a2.486,2.486,0,0,1,4.972,0v.63a2.082,2.082,0,0,0-.308.057Zm4.847,8.848a2.64,2.64,0,0,1-1.545-.534,4.522,4.522,0,0,0-.913-8.2v-3.1a2.458,2.458,0,0,1,4.916,0v9.391a2.455,2.455,0,0,1-2.458,2.447Zm9.455-1.9a2.458,2.458,0,0,1-4.916,0c-.016-.635.011-7.9,0-8.512a2.455,2.455,0,0,1,2.458-2.447A2.386,2.386,0,0,1,45.029,52.1Zm4.539-8.982a2.451,2.451,0,0,1,2.45,2.447V60.39a2.454,2.454,0,0,1-4.909,0V54.074A2.455,2.455,0,0,1,49.568,51.627Zm-4.506-7.575a1.04,1.04,0,0,0-.778,1.007l0,2.847a4.535,4.535,0,0,0-4.653.743,4.548,4.548,0,0,0-.927-1.251c0-.046-.008-4.96,0-5.036a2.44,2.44,0,0,1,1.936-2.336L48.128,38.2a2.46,2.46,0,0,1,2.911,1.876,2.422,2.422,0,0,1-.333,1.838,2.714,2.714,0,0,1-1.548,1.071c-.034.01-4.036,1.053-4.1,1.068Zm7.435.971a2.469,2.469,0,0,1-1.536-.539,4.522,4.522,0,0,0-.922-8.195v-3.1a2.458,2.458,0,0,1,4.916,0v9.391A2.455,2.455,0,0,1,52.5,45.023Zm9.455-1.9a2.458,2.458,0,0,1-4.916,0V34.614a2.458,2.458,0,0,1,4.916,0Zm4.539,2.227a2.455,2.455,0,0,1-2.458-2.447V36.59a2.454,2.454,0,0,1,4.909,0v6.316a2.451,2.451,0,0,1-2.45,2.447Z" transform="translate(0 -22.832)"/>
        <path id="Trazado_1087904" data-name="Trazado 1087904" d="M157.5,373.238a9.445,9.445,0,0,1-4.342-4.083,1.04,1.04,0,1,0-1.829.992,11.509,11.509,0,0,0,5.292,4.976,3.961,3.961,0,0,1,1.256.994,5.459,5.459,0,0,1,1.316,3.607v4.568a1.04,1.04,0,0,0,2.081,0v-4.568a7.538,7.538,0,0,0-1.831-4.978A6.039,6.039,0,0,0,157.5,373.238Z" transform="translate(-130.229 -320.646)"/>
        <path id="Trazado_1087905" data-name="Trazado 1087905" d="M356.091,402.037a1.04,1.04,0,0,0-1.338.612c-.17.453-.235.6-.561,1.4a13.326,13.326,0,0,0-.892,4.846v4.131a1.04,1.04,0,0,0,2.081,0V408.9a11.258,11.258,0,0,1,.75-4.092c.16-.4.313-.743.572-1.427A1.04,1.04,0,0,0,356.091,402.037Z" transform="translate(-304.292 -349.38)"/>
      </g>
    </g>
  </g>
</svg>
