<svg xmlns="http://www.w3.org/2000/svg" xmlns:xlink="http://www.w3.org/1999/xlink" width="400" height="245" viewBox="0 0 400 245">
  <defs>
    <clipPath id="clip-path">
      <rect id="Rectángulo_420190" data-name="Rectángulo 420190" width="400" height="245" transform="translate(914.999 773)" fill="#fff" stroke="#707070" stroke-width="1"/>
    </clipPath>
    <clipPath id="clip-path-2">
      <rect id="Rectángulo_420187" data-name="Rectángulo 420187" width="356.593" height="266.599" fill="none"/>
    </clipPath>
    <clipPath id="clip-path-3">
      <rect id="Rectángulo_420186" data-name="Rectángulo 420186" width="14.274" height="31.322" fill="none"/>
    </clipPath>
  </defs>
  <g id="Enmascarar_grupo_1153303" data-name="Enmascarar grupo 1153303" transform="translate(-914.999 -773)" clip-path="url(#clip-path)">
    <g id="Grupo_1215698" data-name="Grupo 1215698" transform="translate(10.717 14.933)">
      <rect id="Rectángulo_420189" data-name="Rectángulo 420189" width="379" height="126" rx="20" transform="translate(914.782 849.067)" fill="#eca675"/>
      <g id="Grupo_1215697" data-name="Grupo 1215697" transform="translate(937.19 736.468)">
        <g id="Grupo_1215696" data-name="Grupo 1215696">
          <g id="Grupo_1215695" data-name="Grupo 1215695" clip-path="url(#clip-path-2)">
            <path id="Trazado_1160198" data-name="Trazado 1160198" d="M2202.54,369.626a59.836,59.836,0,1,1-59.836-60.064,59.95,59.95,0,0,1,59.836,60.064" transform="translate(-1923.46 -285.87)" fill="#f0b539"/>
            <path id="Trazado_1160199" data-name="Trazado 1160199" d="M2253.277,425.158a55.251,55.251,0,1,1-55.251-55.461,55.356,55.356,0,0,1,55.251,55.461" transform="translate(-1978.782 -341.403)" fill="#ffd74a"/>
            <path id="Trazado_1160200" data-name="Trazado 1160200" d="M2449.378,577.846l30.25,13.881a.557.557,0,0,1,.246.221l3.658,6.129a.557.557,0,0,1-.479.843H2415.3a.557.557,0,0,1-.462-.868l4.036-5.989a.554.554,0,0,1,.225-.193l29.813-14.021a.558.558,0,0,1,.469,0" transform="translate(-2229.931 -533.574)" fill="#f0b539"/>
            <path id="Trazado_1160201" data-name="Trazado 1160201" d="M2807.529,671.6a5.167,5.167,0,1,1-5.166-5.059,5.113,5.113,0,0,1,5.166,5.059" transform="translate(-2583.119 -615.525)" fill="#ffd74a"/>
            <path id="Trazado_1160202" data-name="Trazado 1160202" d="M2551.56,933.959h-7.728a.438.438,0,0,1-.437-.437V900.716a.438.438,0,0,1,.437-.437h7.728a.438.438,0,0,1,.437.437v32.807a.438.438,0,0,1-.437.437" transform="translate(-2348.741 -831.378)" fill="#f0b539"/>
            <path id="Trazado_1160203" data-name="Trazado 1160203" d="M2533.572,898.5H2522.9a.467.467,0,0,1-.466-.466v-.857a.467.467,0,0,1,.466-.466h10.674a.467.467,0,0,1,.466.466v.857a.467.467,0,0,1-.466.466" transform="translate(-2329.383 -828.082)" fill="#f0b539"/>
            <path id="Trazado_1160204" data-name="Trazado 1160204" d="M2534.911,1325.915h-10.674a.467.467,0,0,1-.466-.466v-.857a.467.467,0,0,1,.466-.466h10.674a.467.467,0,0,1,.466.466v.857a.467.467,0,0,1-.466.466" transform="translate(-2330.619 -1222.787)" fill="#f0b539"/>
            <path id="Trazado_1160205" data-name="Trazado 1160205" d="M2820.846,932.174h-7.728a.438.438,0,0,1-.437-.437V898.931a.438.438,0,0,1,.437-.437h7.728a.438.438,0,0,1,.437.437v32.807a.438.438,0,0,1-.437.437" transform="translate(-2597.418 -829.729)" fill="#f0b539"/>
            <path id="Trazado_1160206" data-name="Trazado 1160206" d="M2802.858,896.713h-10.674a.467.467,0,0,1-.466-.466v-.857a.467.467,0,0,1,.466-.466h10.674a.467.467,0,0,1,.466.466v.857a.467.467,0,0,1-.466.466" transform="translate(-2578.059 -826.433)" fill="#f0b539"/>
            <path id="Trazado_1160207" data-name="Trazado 1160207" d="M2804.2,1324.13h-10.674a.467.467,0,0,1-.466-.466v-.857a.467.467,0,0,1,.466-.466H2804.2a.467.467,0,0,1,.466.466v.857a.467.467,0,0,1-.466.466" transform="translate(-2579.295 -1221.139)" fill="#f0b539"/>
            <path id="Trazado_1160208" data-name="Trazado 1160208" d="M3083.105,932.174h-7.729a.438.438,0,0,1-.437-.437V898.931a.438.438,0,0,1,.437-.437h7.729a.438.438,0,0,1,.437.437v32.807a.438.438,0,0,1-.437.437" transform="translate(-2839.605 -829.729)" fill="#f0b539"/>
            <path id="Trazado_1160209" data-name="Trazado 1160209" d="M3065.117,896.713h-10.674a.467.467,0,0,1-.466-.466v-.857a.467.467,0,0,1,.466-.466h10.674a.467.467,0,0,1,.466.466v.857a.467.467,0,0,1-.466.466" transform="translate(-2820.247 -826.433)" fill="#f0b539"/>
            <path id="Trazado_1160210" data-name="Trazado 1160210" d="M3066.455,1324.13h-10.674a.467.467,0,0,1-.466-.466v-.857a.467.467,0,0,1,.466-.466h10.674a.467.467,0,0,1,.466.466v.857a.467.467,0,0,1-.466.466" transform="translate(-2821.482 -1221.139)" fill="#f0b539"/>
            <path id="Trazado_1160211" data-name="Trazado 1160211" d="M2506.822,1376.4h-64.273a.531.531,0,0,1-.529-.529v-3.1a.531.531,0,0,1,.529-.529h64.273a.531.531,0,0,1,.529.529v3.1a.531.531,0,0,1-.529.529" transform="translate(-2255.124 -1267.216)" fill="#f0b539"/>
            <path id="Trazado_1160212" data-name="Trazado 1160212" d="M2466.373,1457.679H2393.7a.564.564,0,0,1-.562-.562v-3.037a.564.564,0,0,1,.563-.563h72.675a.565.565,0,0,1,.563.563v3.037a.564.564,0,0,1-.563.563" transform="translate(-2209.981 -1342.275)" fill="#f0b539"/>
            <path id="Trazado_1160213" data-name="Trazado 1160213" d="M3439.489,775.053l1,179.037h-5.276l.176-65.737.006-2.342h0l.079-29.625h0v-.28l0-.786h0l.132-49.505.873-31.117c0-.363.82-6.995,1.365-6.995h.662c.545,0,.983,6.988.983,7.352" transform="translate(-3172.303 -708.946)" fill="#222257"/>
            <path id="Trazado_1160214" data-name="Trazado 1160214" d="M3420.651,1870.939s10.516,11.812,6.214,24.209,15.815-8.359,15.815-8.359l-1.615-15.176-18.943-4.708Z" transform="translate(-3158.858 -1724.026)" fill="#96263b"/>
            <path id="Trazado_1160215" data-name="Trazado 1160215" d="M3538.616,2507.291s-.694,21.783-2.75,28.735,17.171-.41,17.24-8.576-14.49-20.159-14.49-20.159" transform="translate(-3265.113 -2315.4)" fill="#96263b"/>
            <path id="Trazado_1160216" data-name="Trazado 1160216" d="M3365.2,834.812c-.639-1.774.277,4.758-.143,6.561-4.24,18.183-11.074,64.1-10.265,71.844,1.013,9.694,23.712-.907,24.219,11.964s-17.635,17.445-19.154,22.614,12.416,13.384,18.494,22.645a59.934,59.934,0,0,1,6.262,12.354c.19.527,1.352.438,1.358-.1.266-20.284-7.831-111.952-20.771-147.879" transform="translate(-3097.978 -770.642)" fill="#b32d46"/>
            <path id="Trazado_1160217" data-name="Trazado 1160217" d="M3489.711,881.507l11.806,78.907a5.765,5.765,0,0,1,2.037,3.77s-9.612-68.075-13.844-86.215a17.01,17.01,0,0,1,0,3.538" transform="translate(-3222.633 -810.775)" fill="#96263b"/>
            <path id="Trazado_1160218" data-name="Trazado 1160218" d="M887.252,1137.27l-.18-67.5-.006-2.465h0l-.084-31.169h0v-.295l0-.827h0l-.139-52.087-.918-32.74c0-.382-.863-7.359-1.436-7.359h-.7c-.573,0-1.034,7.352-1.034,7.735l-1.041,186.706Z" transform="translate(-814.234 -870.671)" fill="#222257"/>
            <path id="Trazado_1160219" data-name="Trazado 1160219" d="M689.779,2103.589s-11.064,12.427-6.538,25.471-16.64-8.8-16.64-8.8l1.7-15.967,19.931-4.953Z" transform="translate(-615.584 -1938.676)" fill="#96263b"/>
            <path id="Trazado_1160220" data-name="Trazado 1160220" d="M624.515,2773.122s.73,22.919,2.893,30.233-18.066-.432-18.138-9.023,15.245-21.21,15.245-21.21" transform="translate(-562.641 -2560.886)" fill="#96263b"/>
            <path id="Trazado_1160221" data-name="Trazado 1160221" d="M631.046,1013.439c.672-1.867-.292,5.006.151,6.9,4.461,19.131,11.652,67.438,10.8,75.59-1.066,10.2-24.949-.954-25.482,12.588s18.554,18.355,20.153,23.793S623.6,1146.4,617.21,1156.139a63.045,63.045,0,0,0-6.589,13c-.2.554-1.422.461-1.429-.109-.28-21.341,8.239-117.789,21.854-155.59" transform="translate(-562.563 -935.583)" fill="#b32d46"/>
            <path id="Trazado_1160222" data-name="Trazado 1160222" d="M721.035,1062.568l-12.422,83.022a6.067,6.067,0,0,0-2.144,3.966s10.113-71.624,14.566-90.71a17.9,17.9,0,0,0,0,3.722" transform="translate(-652.401 -977.809)" fill="#96263b"/>
            <path id="Trazado_1160223" data-name="Trazado 1160223" d="M848.449,531.181a34.194,34.194,0,1,0,36.644-31.672,34.281,34.281,0,0,0-36.644,31.672" transform="translate(-783.425 -461.19)" fill="#3b3b7d"/>
            <path id="Trazado_1160224" data-name="Trazado 1160224" d="M986.047,647.162a23.1,23.1,0,1,0,24.758-21.4,23.161,23.161,0,0,0-24.758,21.4m2.372.178a20.723,20.723,0,1,1,19.122,22.292,20.748,20.748,0,0,1-19.122-22.292" transform="translate(-910.522 -577.811)" fill="#fff"/>
            <path id="Trazado_1160225" data-name="Trazado 1160225" d="M1068.463,790.757a.551.551,0,0,0,.069.3,3.826,3.826,0,0,0,.173.45,4.643,4.643,0,0,0,3.416,2.376,5.082,5.082,0,0,0,2.266-.091c2.91-.774,2.943-2.371,2.943-2.371.024-.33-.289-.659-.837-.945l-2.453-9.74a2.706,2.706,0,0,1,1.182-.892l.169-.044q.056-.012.107-.027a37.683,37.683,0,0,1,10.106-1.155l-1.273,17.12-.51-.038a.169.169,0,0,0-.171.145,18.971,18.971,0,0,1-1.34,4.918.242.242,0,0,0,.034.2,9.833,9.833,0,0,0,4.308.323.241.241,0,0,0,.064-.195,21.2,21.2,0,0,1-.546-5.06c.01-.147-.071-.166-.148-.172l-.456-.034,1.272-17.107a38.641,38.641,0,0,1,8.992,2.334l.067.027a2.523,2.523,0,0,1,1.207,1.159l-3.555,9.481c-.627.2-1.015.491-1.041.834a.56.56,0,0,0,.081.323,4.1,4.1,0,0,0,2.295,2.382,5.09,5.09,0,0,0,3.548.331c2.91-.774,2.943-2.371,2.943-2.371.026-.352-.332-.7-.95-1l-2.292-9.1.017.007c1.208.462,2.07-.676,2.233-2.308s-.955-3.042-1.961-3.065a1.778,1.778,0,0,0-.392.034.41.41,0,0,0-.06.747,2.337,2.337,0,0,1,1.126,1.073c.986,1.683-.657,2.718-1.254,1.612a2.991,2.991,0,0,0-1.288-1.287c-.034-.024-.219-.117-.219-.117a32.4,32.4,0,0,0-9.388-2.566l.089-1.192a.11.11,0,0,0-.094-.123l-1.032-.077a.11.11,0,0,0-.111.108l-.087,1.172c-4-.249-10.033,1.171-10.568,1.3l-.031.008-.007,0h0c-.035.011-.2.065-.235.081a3.023,3.023,0,0,0-1.431,1.093c-.755,1-2.225-.264-1-1.781a2.483,2.483,0,0,1,1.108-.847.468.468,0,0,0-.015-.86c-.049-.011-.1-.019-.152-.026-1-.128-2.313,1.1-2.393,2.738-.078,1.6.575,2.836,1.784,2.631l-3.153,8.409c-.7.2-1.131.506-1.158.871m25.593.835,3.359-8.958a2.029,2.029,0,0,0,.209.194l2.314,9.188a10.994,10.994,0,0,0-2.885-.575,10.871,10.871,0,0,0-3,.151M1076,790.254a10.771,10.771,0,0,0-2.994-.616,11.089,11.089,0,0,0-2.885.128l3.168-8.449a2,2,0,0,0,.4-.248Z" transform="translate(-986.689 -716.479)" fill="#fff"/>
            <path id="Trazado_1160226" data-name="Trazado 1160226" d="M1081.067,797.187c-.321,0-.724-.016-1.231-.054-2.125-.159-2.391-.427-2.461-.627a.631.631,0,0,1-.05-.461l.008-.028.012-.027a18.729,18.729,0,0,0,1.309-4.805.549.549,0,0,1,.58-.485l.128.01,1.216-16.345a37.814,37.814,0,0,0-9.6,1.16c-.038.011-.078.021-.119.03l-.151.04a1.985,1.985,0,0,0-.866.634l2.361,9.376c.767.446.91.906.888,1.224-.011.2-.194,1.91-3.227,2.716a5.488,5.488,0,0,1-2.435.1,4.926,4.926,0,0,1-3.694-2.592,4.265,4.265,0,0,1-.181-.465.918.918,0,0,1-.095-.473c.026-.347.268-.819,1.247-1.151l2.9-7.72a1.592,1.592,0,0,1-.788-.385,3.3,3.3,0,0,1-.827-2.645,3.584,3.584,0,0,1,1.236-2.541,2.1,2.1,0,0,1,1.588-.558c.062.008.124.019.184.032a.777.777,0,0,1,.591.742.826.826,0,0,1-.534.855,2.14,2.14,0,0,0-.933.725,1.247,1.247,0,0,0-.332,1.2.475.475,0,0,0,.353.316.423.423,0,0,0,.377-.2,3.3,3.3,0,0,1,1.474-1.165c.036-.015.066-.027.089-.039l0,0,0-.034.316-.077.046-.011a46.591,46.591,0,0,1,10.3-1.326l.059-.8a.493.493,0,0,1,.521-.461l1.032.077a.493.493,0,0,1,.447.533l-.061.827a32.42,32.42,0,0,1,9.145,2.558,2.043,2.043,0,0,1,.276.15c.015.01.054.034.089.054a3.234,3.234,0,0,1,1.313,1.362.425.425,0,0,0,.344.258.476.476,0,0,0,.395-.259,1.248,1.248,0,0,0-.151-1.235,2,2,0,0,0-.935-.91.79.79,0,0,1,.125-1.478,2.183,2.183,0,0,1,.476-.042,2.1,2.1,0,0,1,1.487.788,3.587,3.587,0,0,1,.846,2.7,3.252,3.252,0,0,1-1.244,2.515,1.571,1.571,0,0,1-.868.241l2.1,8.347c.865.463,1.026.951,1,1.288-.011.2-.194,1.91-3.227,2.716a5.456,5.456,0,0,1-3.812-.356,4.457,4.457,0,0,1-2.483-2.577.923.923,0,0,1-.109-.5c.024-.329.245-.779,1.127-1.108l3.423-9.128a1.861,1.861,0,0,0-.914-.853l-.079-.032a39.042,39.042,0,0,0-8.494-2.259l-1.214,16.326.074.006a.514.514,0,0,1,.5.581,20.96,20.96,0,0,0,.536,4.944l.008.047a.631.631,0,0,1-.118.442c-.075.143-.268.308-1.3.308m-2.946-1.065a14.021,14.021,0,0,0,3.567.266,21.411,21.411,0,0,1-.526-4.776l-.621-.047,1.33-17.885.4.045a39.362,39.362,0,0,1,9.092,2.359l.009,0,.051.021a2.6,2.6,0,0,1,1.28,1.143l.106.157.114.165,0,.009.161.171a1.639,1.639,0,0,0,.17.157l.1.081.009.036.314.124a.892.892,0,0,0,.835-.047,2.574,2.574,0,0,0,.885-1.94,2.81,2.81,0,0,0-.658-2.113,1.382,1.382,0,0,0-.931-.53,1.427,1.427,0,0,0-.272.02.123.123,0,0,0,0,.034,2.751,2.751,0,0,1,1.286,1.224,1.973,1.973,0,0,1,.152,2.008,1.239,1.239,0,0,1-1.05.639h-.018a1.164,1.164,0,0,1-1-.659,2.489,2.489,0,0,0-1.024-1.065c-.053-.031-.1-.058-.141-.087-.025-.015-.1-.056-.176-.092a32.325,32.325,0,0,0-9.26-2.528l-.366-.042.1-1.293-.473-.035-.1,1.283-.377-.023c-3.915-.243-9.8,1.131-10.455,1.289l-.014,0c-.1.033-.164.054-.185.062-.04.02-.082.037-.131.058a2.56,2.56,0,0,0-1.157.919,1.163,1.163,0,0,1-1.09.5,1.237,1.237,0,0,1-.962-.79,1.972,1.972,0,0,1,.447-1.963,2.879,2.879,0,0,1,1.282-.969.169.169,0,0,0,.009-.128c-.033-.007-.067-.012-.1-.017a1.38,1.38,0,0,0-1,.385,2.807,2.807,0,0,0-.963,1.992,2.618,2.618,0,0,0,.571,2.035.87.87,0,0,0,.767.2l.267-.045.007-.018.141-.066a1.608,1.608,0,0,0,.322-.2l.172-.137,0-.007.146-.153.114-.121a2.75,2.75,0,0,1,1.233-.873l.014,0,.173-.045.015,0c.028-.006.054-.012.078-.02l.016,0a37.9,37.9,0,0,1,10.221-1.166l.389.022-1.331,17.89-.679-.051a19.336,19.336,0,0,1-1.269,4.643m3.052-4.727h0m8.057-3.984,0,0-.176.057c-.6.194-.77.411-.777.5a.191.191,0,0,0,.032.1l.021.037.013.041a3.655,3.655,0,0,0,2.094,2.148,4.7,4.7,0,0,0,3.284.306c2.553-.679,2.656-1.961,2.659-2.015v-.014c.007-.091-.138-.34-.735-.629l-.161-.078v-.006l-.294-.108a10.665,10.665,0,0,0-2.781-.552,10.524,10.524,0,0,0-2.888.143Zm-23.934-1.831v0l-.183.054c-.683.2-.877.435-.884.532a.179.179,0,0,0,.026.093l.016.031.01.033a3.469,3.469,0,0,0,.156.405,4.186,4.186,0,0,0,3.139,2.159,4.729,4.729,0,0,0,2.1-.084c2.553-.679,2.656-1.961,2.659-2.016v-.014c.006-.082-.118-.309-.632-.577l-.152-.079,0-.008-.3-.118a10.408,10.408,0,0,0-2.884-.591,10.768,10.768,0,0,0-2.782.122Zm26.147.824c.334,0,.676.013,1.021.039a12.509,12.509,0,0,1,2.318.385l-1.96-7.785-2.792,7.446a11.319,11.319,0,0,1,1.413-.084m-24.046-1.8c.334,0,.675.013,1.019.039a12.347,12.347,0,0,1,2.424.414l-1.966-7.807-2.784,7.425a11.573,11.573,0,0,1,1.307-.071m24.32-8.973,0,0,0,0m-21.285-1.375,0,0,0,0" transform="translate(-982.072 -711.862)" fill="#fff"/>
            <path id="Trazado_1160227" data-name="Trazado 1160227" d="M1494.661,1176.313s8.514,8.791,8.8,10.625-24.138,3.171-24.138,3.171Z" transform="translate(-1366.105 -1086.286)" fill="#3b3b7d"/>
            <path id="Trazado_1160228" data-name="Trazado 1160228" d="M2366.168,885.568a4.444,4.444,0,0,0-.717-.606.358.358,0,0,0,.028-.055,7.362,7.362,0,0,0-.85-8.787,11.2,11.2,0,0,0-1.466-1.3,10.109,10.109,0,0,0-.888-.591c-.208-.131-.423-.25-.642-.363a11.335,11.335,0,0,0-1.468-.64,10.56,10.56,0,0,0-8,.265,23.927,23.927,0,0,0-2.313,1.2c-.18.1-.362.219-.535.339l-.018.01a7.587,7.587,0,0,0-1.184.949.387.387,0,0,0-.627.329c.02.142.047.278.079.412a1.242,1.242,0,0,0,.06,1.329.314.314,0,0,0,.445.084c.26.562.55,1.114.778,1.718a13.124,13.124,0,0,1,.424,1.39c.075.29.143.58.209.873.148.651.289,1.3.476,1.936.017.058.033.119.053.179.107.365.217.731.337,1.1a32.166,32.166,0,0,0,2.985,6.91c-.069.368-.129.726-.185,1.066a14.207,14.207,0,0,0-.159,1.447c-.049.745-.049,1.5-.037,2.245l-.709-.22a.365.365,0,0,0-.271.678c.321.142.653.282.993.419.008.378.013.754.009,1.133,0,.282.468.3.493.017.03-.308.052-.616.073-.929.2.072.391.143.59.209a17.867,17.867,0,0,0,4.776.988c.012,0,.023,0,.035,0a10.617,10.617,0,0,0,1.408-.007,9.183,9.183,0,0,0,2.6-.544,7.863,7.863,0,0,0,1-.463,6.918,6.918,0,0,0,.931-.61,7.036,7.036,0,0,0,1.01-.936,7.672,7.672,0,0,0,.558-.683c2.042-2.8,2.135-8.01-.281-10.487" transform="translate(-2167.748 -805.79)" fill="#9c5c26"/>
            <path id="Trazado_1160229" data-name="Trazado 1160229" d="M2368.559,881.82c-.135.035-.269.068-.4.1a24.071,24.071,0,0,0-7.6,3.311,14.436,14.436,0,0,0-4.149,4.836c-.445.794-.846,1.621-1.218,2.465-.068.15-.328.08-.283-.084a15.549,15.549,0,0,1,1.293-3.255c2.027-3.746,5.481-6.146,9.76-7.651.377-.131.754-.254,1.133-.368a11.313,11.313,0,0,1,1.468.64" transform="translate(-2174.673 -813.74)" fill="#7a481e"/>
            <path id="Trazado_1160230" data-name="Trazado 1160230" d="M2371.929,905.386c-.178.316-.348.641-.509.97a.345.345,0,0,1-.625-.29,12.333,12.333,0,0,1,.8-1.78,22.024,22.024,0,0,1,6.653-7.019,22.934,22.934,0,0,1,5.612-2.985,10.06,10.06,0,0,1,.888.591,23.572,23.572,0,0,0-12.815,10.513" transform="translate(-2189.329 -825.839)" fill="#7a481e"/>
            <path id="Trazado_1160231" data-name="Trazado 1160231" d="M2498.24,1034.436a15.166,15.166,0,0,1-1.362,1.86c-.224.268-.459.527-.707.774-.294.307-.6.6-.921.87q-.32.282-.66.54a12.321,12.321,0,0,1-3.676,1.968.361.361,0,0,1-.352-.621c1.264-.937,2.541-1.768,3.736-2.706.19-.15.382-.3.569-.458.358-.3.708-.615,1.045-.947.2-.2.4-.4.586-.615s.372-.42.548-.645.345-.448.5-.679a.422.422,0,0,1-.028.055,4.445,4.445,0,0,1,.717.606" transform="translate(-2299.818 -954.657)" fill="#7a481e"/>
            <path id="Trazado_1160232" data-name="Trazado 1160232" d="M2383.24,924.865a11.165,11.165,0,0,1-1.443.006,23.28,23.28,0,0,0-.015-7.972,28.519,28.519,0,0,0-3.71-9.569,25.615,25.615,0,0,0-3.488-4.6,28.531,28.531,0,0,0-2.394-2.119c.179-.124.366-.24.552-.349a16.125,16.125,0,0,1,3.207,2.088,27.076,27.076,0,0,1,3.393,3.968,28.437,28.437,0,0,1,3.481,9.174,25.594,25.594,0,0,1,.417,9.372" transform="translate(-2190.639 -831.363)" fill="#7a481e"/>
            <path id="Trazado_1160233" data-name="Trazado 1160233" d="M2542.856,1081.986a7.9,7.9,0,0,1-1,.463c.046-.834.148-1.671.164-2.508a30.479,30.479,0,0,0-.189-3.994q-.149-1.327-.407-2.634c-.085-.455-.182-.905-.292-1.359.19-.15.383-.3.569-.458.139.424.269.85.383,1.278a25.726,25.726,0,0,1,.771,9.212" transform="translate(-2346.653 -989.491)" fill="#7a481e"/>
            <path id="Trazado_1160234" data-name="Trazado 1160234" d="M1934.539,887.7c-3.512,15.016-13.191,17.043-13.191,17.043s-28.712-4.121-26.426-.492,2.994,11.969,1.662,14.713.927-1.441-2.513-7.792-6.51-20.914-6.51-20.914c-.649-6.483-.1-11.457,2.1-16.208,2.569-5.547,8.111-9.413,14.09-10.8a28.81,28.81,0,0,1,2.859-.518q.9-.122,1.8-.187a29.349,29.349,0,0,1,14.376,2.482c8.476,3.919,11.005,12.454,11.856,20.948a5.286,5.286,0,0,1-.109,1.727" transform="translate(-1742.864 -796.447)" fill="#9c5c26"/>
            <path id="Trazado_1160235" data-name="Trazado 1160235" d="M1767.165,1685.794a3.788,3.788,0,0,1,.58,1.038,15.951,15.951,0,0,1,.639,2.177c.119.51.24,1.071.369,1.681,0,.022.01.045.014.068.406,1.929.885,4.346,1.623,7.226a16.248,16.248,0,0,0,.643,1.58c.036.08.073.159.11.237.3.628.605,1.177.764,1.193.5.048-.73-2.881-.2-2.843a24.315,24.315,0,0,1,3.524.509,16.6,16.6,0,0,1,9.957,6.04,29.318,29.318,0,0,0,5.223-5.695,40.87,40.87,0,0,0,4.718-9.011c2.282-5.926,2.272-12.422,1.357-18.245q-.108-.695-.235-1.374a64.832,64.832,0,0,0-5.446-16.406s-1.345,0-3.474.162l-.262.02c-.4.03-.815.068-1.26.111-.974.094-2.049.22-3.2.387-.22.031-.44.064-.662.1l-.562.09a52.885,52.885,0,0,0-7.191,1.678l-.122.037a15.983,15.983,0,0,0-8.2,7.083,23.969,23.969,0,0,0-2.946,8.169c-2.2,12.171,4.477,12.821,4.237,13.988" transform="translate(-1627.596 -1527.385)" fill="#fde5d6"/>
            <path id="Trazado_1160236" data-name="Trazado 1160236" d="M1839.373,1626.605a42.77,42.77,0,0,0,.754,6.792v0c.56,3.087,1.283,5.821,1.619,7.025.116.418.186.651.186.651q.116.785.213,1.588a110.541,110.541,0,0,1,.642,14.717c-.017,1.142-.047,2.26-.086,3.342q-.02.584-.045,1.153c-.079,1.9-.183,3.661-.292,5.228-.3,4.242-.633,7.036-.633,7.036a13.219,13.219,0,0,0,4.38,2.353c15,5.212,48.285.655,43.129-9.13-8.381-15.9,8.127-69.068,8.127-69.068l-14.546-6.2-26.021,2.271-2.141.922-2.311,1-7.274,3.132s-1.486,4.485-2.94,10.16c-.382,1.488-.762,3.059-1.112,4.651-.3,1.387-.587,2.792-.828,4.173a46.214,46.214,0,0,0-.82,8.2" transform="translate(-1698.598 -1470.248)" fill="#fff"/>
            <path id="Trazado_1160237" data-name="Trazado 1160237" d="M2091.009,1286.6c-.12,2.741,4.7,6.184,6.031,6.184,8.174,0,14.794-2.262,13.353-7.736-3.5-13.289-.7-20.952-.989-26.452.5,9.59-22.294,2.615-18.962,15.477,1.571,6.066.751,8.3.567,12.527" transform="translate(-1930.147 -1162.274)" fill="#ffbb95"/>
            <path id="Trazado_1160238" data-name="Trazado 1160238" d="M2098.534,1409.54s9.371.035,15.465-5.909c0,0-.162.3-.478.783a18.162,18.162,0,0,1-13.32,8.134l-1.121.118s-.271-1.834-.545-3.125" transform="translate(-1937.927 -1296.206)" fill="#f0825b"/>
            <path id="Trazado_1160239" data-name="Trazado 1160239" d="M1965.8,982.148a19.384,19.384,0,0,0-4.638-9.742c-1.743-1.88-4.839-2.89-7.211-3.68a18.384,18.384,0,0,0-7.76-.837,15.376,15.376,0,0,0-8.127,3.982,16.509,16.509,0,0,0-5.091,10.165,36.826,36.826,0,0,0-.37,7.481,24.752,24.752,0,0,0,3.365,11.476,13.454,13.454,0,0,0,2.557,3.1c3.66,3.26,8.665,3.859,13.263,2.447a20.215,20.215,0,0,0,11.6-8.856,19.007,19.007,0,0,0,2.942-9.312,28.606,28.606,0,0,0-.535-6.23" transform="translate(-1784.644 -893.717)" fill="#ffbb95"/>
            <path id="Trazado_1160240" data-name="Trazado 1160240" d="M2329.5,1150.767a5.257,5.257,0,0,0-3.54.87,2.435,2.435,0,0,0-1.085,2.276.133.133,0,0,0,.034.08,6.573,6.573,0,0,1-.271.6c-.231.512-.5,1.006-.757,1.507a10.08,10.08,0,0,0-1.021,3.039,2.241,2.241,0,0,0,.665,2.077,4.535,4.535,0,0,0,2.869.985,6.862,6.862,0,0,0,1.086-.041,5.519,5.519,0,0,0,1.15-.251,7.011,7.011,0,0,0,4.6-5.871c.158-2.227-1.321-4.964-3.729-5.272" transform="translate(-2145.052 -1062.662)" fill="#ffbb95"/>
            <path id="Trazado_1160241" data-name="Trazado 1160241" d="M2385.547,1188.177a3.105,3.105,0,0,0-2.849,3.574.166.166,0,0,0,.32.012,6.359,6.359,0,0,1,1-2.067,5.365,5.365,0,0,1,1.617-1.182.183.183,0,0,0-.091-.338" transform="translate(-2200.281 -1097.241)" fill="#f0825b"/>
            <path id="Trazado_1160242" data-name="Trazado 1160242" d="M1990.66,939.571c9.219,14.553,21.7,11.933,26.744,12.337a5.871,5.871,0,0,0,2.685-.515c.044-.02,3.007-11.543-9.817-15.731-7.278-2.377-12.612-.8-15.865,1.013-.208.116-.408.233-.6.35a13.782,13.782,0,0,0-3.148,2.546" transform="translate(-1838.309 -862.942)" fill="#9c5c26"/>
            <path id="Trazado_1160243" data-name="Trazado 1160243" d="M1964.5,890.535a13.908,13.908,0,0,1,2.946-3.774,23.175,23.175,0,0,1,2.635-3.537c.163-.184.332-.366.5-.546.016-.019.033-.036.049-.053q.248-.263.5-.519a37.4,37.4,0,0,1,3.622-3.177,59.637,59.637,0,0,1,4.941-3.431q-.905.066-1.8.187a39.058,39.058,0,0,0-7.418,5.523c-.16.15-.316.305-.471.464-.031.033-.064.064-.1.1q-.239.241-.471.489a20.084,20.084,0,0,0-4.942,8.279" transform="translate(-1814.152 -808.492)" fill="#7a481e"/>
            <path id="Trazado_1160244" data-name="Trazado 1160244" d="M2029.074,957.906c.07.107.138.213.208.319.09.137.18.274.271.409.053.08.106.159.16.239q.238.359.478.713a24.056,24.056,0,0,0,2.64,3.193,30.491,30.491,0,0,0,12.912,7.712,38.946,38.946,0,0,0,6.838,1.451,25.823,25.823,0,0,0,4.735.282c-.609-.072-2.28-.958-3.078-1.135-5.1-1.136-11.35-2.32-15.706-4.966a27.288,27.288,0,0,1-5.7-4.657,34.236,34.236,0,0,1-2.543-3.036l-.076-.1-.156-.212-.177-.24c-.113-.152-.224-.305-.336-.459q-.239.241-.471.489" transform="translate(-1873.783 -884.143)" fill="#7a481e"/>
            <path id="Trazado_1160245" data-name="Trazado 1160245" d="M2097,1136.151c-1.222,0-2.511.1-3.729.188-.815.062-2.26.091-2.7.935-.652,1.259,1.46,1.232,2.174,1.226a7.414,7.414,0,0,0,4.231-1.425c.437-.307,1.138-.921.022-.925" transform="translate(-1930.459 -1049.198)" fill="#442322"/>
            <path id="Trazado_1160246" data-name="Trazado 1160246" d="M1932.021,1134.184a3.92,3.92,0,0,0,2.879,1.4c.518.007,2.05.037,1.75-1.2-.2-.829-1.248-.859-1.832-.921a25,25,0,0,0-2.685-.191c-.811,0-.386.6-.112.907" transform="translate(-1783.825 -1046.544)" fill="#442322"/>
            <path id="Trazado_1160247" data-name="Trazado 1160247" d="M2147.184,1200.616c-1.443-.583-2.134,1.94-1.172,2.719a1.135,1.135,0,0,0,1.873-.561c.168-.672.048-1.855-.7-2.158" transform="translate(-1981.36 -1108.649)" fill="#442322"/>
            <path id="Trazado_1160248" data-name="Trazado 1160248" d="M1971.3,1200.619c-1.443-.584-2.134,1.94-1.172,2.719a1.135,1.135,0,0,0,1.873-.562c.168-.672.048-1.854-.7-2.157" transform="translate(-1818.933 -1108.652)" fill="#442322"/>
            <path id="Trazado_1160249" data-name="Trazado 1160249" d="M2002.853,1210.391a2.61,2.61,0,0,1-1.569-.892,1.891,1.891,0,0,1,0-2.43,2.529,2.529,0,0,1,.954-.667,6.7,6.7,0,0,0,1.037-.386.681.681,0,0,0,.324-.546,8.935,8.935,0,0,0,.121-.888c.037-.461.09-.917.146-1.376q.157-1.289.316-2.578a.108.108,0,0,1,.039-.077.1.1,0,0,1,.075-.017.1.1,0,0,1,.083.1,33.35,33.35,0,0,1,.039,3.5c-.04.772.048,2.216-.837,2.587-.136.057-.293.109-.459.164-.7.233-1.571.522-1.5,1.444a1.463,1.463,0,0,0,.945,1.2,2.317,2.317,0,0,0,.537.141c.076.012.153.022.23.033s.151.02.226.032a2.274,2.274,0,0,1,.424.1.149.149,0,0,1,.1.131.233.233,0,0,1-.089.216,1.575,1.575,0,0,1-1.132.2" transform="translate(-1847.709 -1108.652)" fill="#442322"/>
            <path id="Trazado_1160250" data-name="Trazado 1160250" d="M1844.345,1670.441a1.258,1.258,0,0,0,.363-.153l.054-.032.038-.025c.018-.011.035-.023.053-.035.073-.048.152-.106.236-.171,0,0,0,0,0,0l.07-.054c.017-.012.033-.026.05-.041q.428-.346.855-.68l0,0a69.972,69.972,0,0,1,14.633-8.667c3.785-1.676,6.445-2.488,6.834-2.679-4.18-8.29-1.413-15.835-4.627-24.014-.237-.606-.508-1.215-.817-1.828a18.007,18.007,0,0,0-2.856.124h0a20.57,20.57,0,0,0-2.318.42c-.111.027-.224.054-.335.083l-.155.041c-.1.026-.207.055-.312.084q-.189.052-.38.109l-.037.011c-.127.038-.255.077-.382.118s-.267.085-.4.13c-.095.031-.19.064-.285.1-.079.026-.157.054-.235.083s-.153.055-.23.083q-.546.2-1.089.428l-.287.121-.295.129q-.209.092-.416.188c-.109.049-.217.1-.325.152q-.363.17-.725.352l-.256.13-.237.123c-1.581,7.173-6.5,30.455-6.192,35.379" transform="translate(-1703.179 -1507.138)" fill="#fff"/>
            <path id="Trazado_1160251" data-name="Trazado 1160251" d="M1250.224,1563.034a37.745,37.745,0,0,0,1.37-3.91c.429-1.227-.586-4.635-.8-5.873-.332-1.959-1.256-2.667-2.938-3.522a9.831,9.831,0,0,0-3.23-1.193,2.735,2.735,0,0,0-.572,0,1.909,1.909,0,0,0-1.089.45.373.373,0,0,0-.132.183.406.406,0,0,0,.016.214c.28,1.046,1.285,1.755,1.766,2.689a11.918,11.918,0,0,0,1.12,1.656,2.155,2.155,0,0,1,.56,1.7,3.422,3.422,0,0,0-.343,1.635,5.894,5.894,0,0,0,1.96,2.578c.584.5,1.283,2.835,2.045,2.639.23-.06.115,1.015.264.753" transform="translate(-1147.71 -1430.007)" fill="#ffbb95"/>
            <path id="Trazado_1160252" data-name="Trazado 1160252" d="M1100.458,1525.132c.206,1.67,3.381,7.919,6.956,9.57,1.28.593,2.577.993,3.392,2.308.005.009,1.445,2.07,1.8,2.456,3.711-1.959,5.089-5.683,6.606-6.779a9.307,9.307,0,0,1-.158-2.983,13.2,13.2,0,0,0,.433-2.395c.114-1.06-1.236-4.621-2.775-6.024a11.951,11.951,0,0,1-2.352-2.957c-1.149-2.02-3.189-5.161-4.881-5.363a2.112,2.112,0,0,0-2.277,1.283,3.682,3.682,0,0,0-.255,1.041c-.026.191-.051.385-.083.57a2.819,2.819,0,0,1-.13.525,1.992,1.992,0,0,1-.143.306c-.084.14-1.048.067-1.186.188-.466.424-.493.356-.776.835a1.72,1.72,0,0,0-.067.617c-.008.282.265,1.058.147,1.157-.028.022-.353-.018-.381,0a4.069,4.069,0,0,0-.793.091c-.5.172-.652.354-1.262,1.03-.01.014-.022.025-.032.039a2.561,2.561,0,0,0-.17.908,3.924,3.924,0,0,1,.069.529c-1.464.28-1.771,2.34-1.682,3.042" transform="translate(-1016.224 -1397.157)" fill="#ffbb95"/>
            <path id="Trazado_1160253" data-name="Trazado 1160253" d="M1234.2,1756.11a.588.588,0,0,0-.543.7,12.577,12.577,0,0,0,1.368,3.506,10.338,10.338,0,0,0,.587.944s0,0,0,0a.008.008,0,0,1,0,0c.007,0,.011,0,.018,0,3.739-.273,6.946-3.679,8.711-6,0,0,0-.007.007-.009.628-.823,1.071-1.506,1.292-1.86.1-.166.155-.258.155-.258-.194-.361-.406-.719-.628-1.063a26.317,26.317,0,0,0-2.093-2.815.434.434,0,0,0-.716.08c-3.081,5.786-6.688,6.667-8.148,6.771h-.013" transform="translate(-1139.235 -1615.241)" fill="#3b3b7d"/>
            <path id="Trazado_1160254" data-name="Trazado 1160254" d="M1256.784,1684.6c6.038,9.48,18.119,27.749,27.327,27.678a6.5,6.5,0,0,0,1.244-.128,7.218,7.218,0,0,0,4.083-2.581c4.459-5.245,9.9-10.451,11.121-14.461a7.332,7.332,0,0,0-1.758-7.173l3.592-14.53,1.788-7.231,3.015-12.2-.105,0-.127.006c-1.469.1-9.527,1.154-14.5,11.984-4.406,9.587-8.384,17.8-9.782,20.678-.244.5-2.908-2.652-3.365-3.357-.916-1.419-1.906-2.965-3.1-4.7-3.835-5.562-8.7-11.907-11.957-13.583h0c-.1-.049-.191-.1-.283-.136l-.009,0c-.115-.052-.229-.1-.339-.134a2.049,2.049,0,0,0-1.4-.051,1.282,1.282,0,0,0-.189.087,1.942,1.942,0,0,0-.776.876l-1.642.8-3.013,1.47-1.631,2.1-.911,1.172-.01.006a.048.048,0,0,1-.017.006,2.36,2.36,0,0,0-.975,1.077,3.576,3.576,0,0,0-.23.6c-.508,1.751-.2,5.193,3.958,11.725" transform="translate(-1156.773 -1527.389)" fill="#3b3b7d"/>
            <path id="Trazado_1160255" data-name="Trazado 1160255" d="M1251.933,1793.926c.216.342.361.539.361.539l-.013.007a.076.076,0,0,0,.033-.01,19.411,19.411,0,0,0,7.582-4.472c.551-.518,1.082-1.063,1.586-1.626a.014.014,0,0,0,.007-.01,28.835,28.835,0,0,0,1.867-2.3c-.1-.049-.19-.095-.283-.136l-.008,0c-.122-.046-.235-.09-.339-.133a2.151,2.151,0,0,1-1.046-.724,2.942,2.942,0,0,0-.353.674,4.92,4.92,0,0,1-.759,1.664c-.439.505-.893.993-1.369,1.46a19.689,19.689,0,0,1-5.55,3.865c-.485.224-.981.428-1.487.61-.162.059-.325.114-.489.168.094.16.181.3.259.428" transform="translate(-1155.88 -1648.441)" fill="#222257"/>
            <path id="Trazado_1160256" data-name="Trazado 1160256" d="M1647.281,2078.112c-1.5-2.76-2.739-5.583-4.342-8.265l.016-.032a9.06,9.06,0,0,0,.593-.929,70.674,70.674,0,0,1,4.244,8.965.288.288,0,0,1-.512.261" transform="translate(-1517.201 -1910.547)" fill="#222257"/>
            <path id="Trazado_1160257" data-name="Trazado 1160257" d="M1844.345,1682.393c0,.027,0,.053,0,.079.406,2.192.885,4.94,1.624,8.215,0,.016.01.04.018.068s.011.038.018.062l.024.075c.021.067.047.146.078.235q.027.08.057.168l.022.062c.013.034.025.071.038.106,0,.013.008.026.013.038.013.037.028.074.041.112s.017.047.026.068.016.047.025.07.017.047.026.07c.017.048.035.1.053.144l.029.073c.018.049.037.1.057.148.038.1.077.2.116.3h0c.036.09.073.181.11.269.4,3.754.239,15.609.239,15.653v3.323a8.3,8.3,0,0,0,.827,2.269c1.641,1.276,4.828,3.827,7.563,4.348,8.223,1.564,12.183.518,12.183.518l-1.547-27.015-.331-5.787c-.932-2.428-2.858-8.057-2.858-8.057a66.155,66.155,0,0,1-2.1-6.823c-2.9-11.445-3.578-24.4-3.736-29.537-.021-.684-.032-1.228-.04-1.612-.007-.425-.008-.654-.008-.654-.111.03-.224.061-.335.094l-.155.047c-.1.03-.207.063-.312.1-.126.04-.253.081-.38.124l-.037.012c-.127.044-.255.088-.382.134s-.267.1-.4.148c-.095.035-.19.072-.285.111-.079.03-.157.062-.235.094s-.153.063-.23.094q-.546.23-1.089.487l-.287.138-.295.146q-.209.1-.416.213c-.109.056-.217.112-.325.172q-.363.193-.725.4l-.256.147-.237.14c-1.581,8.154-6.5,34.619-6.192,40.216" transform="translate(-1703.179 -1513.911)" fill="#3b3b7d"/>
            <path id="Trazado_1160258" data-name="Trazado 1160258" d="M2063.8,2260.5a1.2,1.2,0,1,0,1.2-1.208,1.206,1.206,0,0,0-1.2,1.208" transform="translate(-1905.854 -2086.381)" fill="#09091a"/>
            <path id="Trazado_1160259" data-name="Trazado 1160259" d="M2066.872,2343.3a1.2,1.2,0,1,0,1.2-1.208,1.206,1.206,0,0,0-1.2,1.208" transform="translate(-1908.688 -2162.84)" fill="#09091a"/>
            <path id="Trazado_1160260" data-name="Trazado 1160260" d="M1836.51,1916.7a36.151,36.151,0,0,1-.713-11.769,67.966,67.966,0,0,1,1.961-10.943c.424-1.654.894-3.294,1.384-4.927a.62.62,0,0,1,.771-.434.672.672,0,0,1,.406.818c-.928,3.09-1.775,6.209-2.4,9.384q-.132.67-.251,1.342-.057.325-.112.651-.03.179-.058.358c0,.016-.034.214-.011.066q-.014.09-.028.18-.218,1.425-.365,2.862a43.938,43.938,0,0,0-.222,5.8q.026.813.088,1.624.014.187.031.374c.005.062.011.124.017.186-.013-.139.011.112.014.136q.042.4.094.805a28.654,28.654,0,0,0,.592,3.175.667.667,0,0,1-.454.792.625.625,0,0,1-.744-.48" transform="translate(-1695.134 -1744.057)" fill="#222257"/>
            <path id="Trazado_1160261" data-name="Trazado 1160261" d="M2159.884,1621.957l-10.506-3.927-26.359,48.4,1.349,32.891s12.5,1.278,28.412-3.571c0,0-1.613-4.8,1-18.673,3.681-19.581,6.109-55.124,6.109-55.124" transform="translate(-1960.537 -1494.197)" fill="#3b3b7d"/>
            <path id="Trazado_1160262" data-name="Trazado 1160262" d="M2113.563,2242.368c.912,4.146.593,8.443.636,12.671.044,4.317.386,8.622.834,12.906.255,2.436.536,4.8.817,7.157a.738.738,0,0,1-.43.862.618.618,0,0,1-.758-.49c-.517-4.341-1.037-8.685-1.364-13.051-.161-2.149-.275-4.3-.317-6.46-.042-2.11.016-4.219.007-6.328,0-1.167-.034-2.334-.123-3.5q-.034-.443-.081-.885c-.008-.073-.016-.147-.024-.22-.016-.144.007.05-.013-.107s-.038-.293-.058-.44q-.125-.88-.314-1.745a.728.728,0,0,1,.43-.862.621.621,0,0,1,.758.49" transform="translate(-1950.692 -2070.283)" fill="#222257"/>
            <path id="Trazado_1160263" data-name="Trazado 1160263" d="M2195.946,1546.833s-6.41,10.8-11.736,11.849c-1.841.363,2.1,1.544,8,11.116,1.181,1.917,10.326-17.427,10.326-18.706s-6.462-5.755-6.585-4.258" transform="translate(-2016.624 -1428.169)" fill="#fff"/>
            <path id="Trazado_1160264" data-name="Trazado 1160264" d="M2027.139,1582.742s-.507,6.006,6.148,9.283c1.178.58-2.992-1.7-11.777,7.977-1.086,1.2-.63-12.945-.389-13.583s6.213-4.457,6.018-3.677" transform="translate(-1866.158 -1461.513)" fill="#fff"/>
            <path id="Trazado_1160265" data-name="Trazado 1160265" d="M2119.958,1726.568l-1.286,7.1q-.622,3.434-1.244,6.869c-.484,2.677-.984,5.352-1.378,8.05-.39,2.667-.683,5.363-.858,8.061a61.3,61.3,0,0,0-.026,7.844q.032.511.074,1.02c.021.259.174.482.411.482a.454.454,0,0,0,.411-.482,59.861,59.861,0,0,1-.105-7.864c.134-2.633.4-5.264.754-7.868.369-2.712.861-5.4,1.347-8.083l1.266-7q.624-3.443,1.247-6.886.09-.5.18-.994a.509.509,0,0,0-.287-.592.411.411,0,0,0-.505.336" transform="translate(-1953.182 -1594.103)" fill="#9b96d9"/>
            <path id="Trazado_1160266" data-name="Trazado 1160266" d="M2179.378,1610.923a.657.657,0,0,1,.612-.01,2.6,2.6,0,0,1,.734.541q.725.667,1.4,1.387a26.224,26.224,0,0,1,2.462,3.053,26.827,26.827,0,0,1,1.993,3.4,2.653,2.653,0,0,0,.484.774,1.013,1.013,0,0,0,.992.261,2.1,2.1,0,0,0,.848-.589,8.107,8.107,0,0,0,.644-.726,16.8,16.8,0,0,0,1.96-3.4c.377-.814.751-1.629,1.132-2.441q1.377-2.932,2.774-5.854c.856-1.8,1.715-3.6,2.553-5.416l.232-.5a.425.425,0,0,0-.147-.564.413.413,0,0,0-.562.148c-.794,1.734-1.615,3.456-2.433,5.179q-1.4,2.953-2.8,5.908-.569,1.207-1.129,2.418a25.661,25.661,0,0,1-1.676,3.258,8.471,8.471,0,0,1-1.167,1.451c-.148.146-.385.407-.589.331.043.016-.022-.019-.024-.02.034.025-.024-.022-.025-.023a.482.482,0,0,1-.088-.1,3.015,3.015,0,0,1-.217-.4,27,27,0,0,0-1.978-3.409,27.725,27.725,0,0,0-2.477-3.123q-.676-.736-1.406-1.421a2.9,2.9,0,0,0-1.754-1.006,1.357,1.357,0,0,0-.926.315.411.411,0,0,0,.581.583" transform="translate(-2011.937 -1478.269)" fill="#9b96d9"/>
            <path id="Trazado_1160267" data-name="Trazado 1160267" d="M2038.221,1711.988a1.846,1.846,0,0,0-2.122-.65,4.953,4.953,0,0,0-1.213.616q-.551.354-1.092.725a47.573,47.573,0,0,0-4.282,3.3q-1.156,1-2.245,2.079a.412.412,0,0,0,.581.583,46.874,46.874,0,0,1,3.782-3.355q.961-.763,1.963-1.472c.673-.477,1.354-.957,2.064-1.376a3.138,3.138,0,0,1,.6-.292,1.387,1.387,0,0,1,.521-.09.89.89,0,0,1,.73.343.411.411,0,1,0,.709-.416" transform="translate(-1872.002 -1580.275)" fill="#9b96d9"/>
            <path id="Trazado_1160268" data-name="Trazado 1160268" d="M1466.507,1402.638l-5.241,7.841a1,1,0,0,0,.27,1.375l1.9,1.281a.988.988,0,0,0,1.37-.271l5.241-7.841a.864.864,0,0,0-.234-1.2l-2.116-1.425a.857.857,0,0,0-1.191.235" transform="translate(-1349.277 -1294.937)" fill="#f0b539"/>
            <path id="Trazado_1160269" data-name="Trazado 1160269" d="M1505.511,1434.212c1.615-2.416,2.532-4.64,2.048-4.966s-2.186,1.369-3.8,3.785-2.532,4.639-2.048,4.965,2.186-1.369,3.8-3.785" transform="translate(-1386.66 -1319.824)" fill="#f0b539"/>
            <path id="Trazado_1160270" data-name="Trazado 1160270" d="M1248.829,1262.514l3.776-5.427a1.906,1.906,0,0,1,2.653-.473l15.753,11.045c.859.6-.076,1.02-.676,1.883l-4.166,5.938c-.6.862-.257,1.344-1.116.742l-15.753-11.045a1.923,1.923,0,0,1-.471-2.663" transform="translate(-1152.937 -1160.125)" fill="#9c5c26"/>
            <path id="Trazado_1160271" data-name="Trazado 1160271" d="M1063.45,1454.13l-3.032-2.126a1.152,1.152,0,0,1-.269-1.621l20.722-28.457a1.142,1.142,0,0,1,1.58-.264l1.949,1.366a1.152,1.152,0,0,1,.293,1.585l-19.639,29.216a1.142,1.142,0,0,1-1.6.3" transform="translate(-978.809 -1312.666)" fill="#9c5c26"/>
            <path id="Trazado_1160272" data-name="Trazado 1160272" d="M1242.187,1256.047l5.386-7.741a.988.988,0,0,1,1.375-.245l1.878,1.316a1,1,0,0,1,.244,1.38l-5.386,7.741a.856.856,0,0,1-1.2.213l-2.089-1.464a.864.864,0,0,1-.212-1.2" transform="translate(-1146.976 -1152.378)" fill="#f0b539"/>
            <path id="Trazado_1160273" data-name="Trazado 1160273" d="M1051.371,1794.789l-3.694-2.59a1.277,1.277,0,0,1-.313-1.769l.5-.723a1.266,1.266,0,0,1,1.762-.314l3.694,2.59a1.277,1.277,0,0,1,.313,1.769l-.5.723a1.266,1.266,0,0,1-1.762.314" transform="translate(-966.997 -1652.234)" fill="#f0b539"/>
            <path id="Trazado_1160274" data-name="Trazado 1160274" d="M1191.634,1593.207l-3.694-2.59a1.278,1.278,0,0,1-.313-1.769l.5-.723a1.266,1.266,0,0,1,1.762-.314l3.694,2.59a1.277,1.277,0,0,1,.313,1.769l-.5.723a1.266,1.266,0,0,1-1.763.314" transform="translate(-1096.525 -1466.08)" fill="#f0b539"/>
            <path id="Trazado_1160275" data-name="Trazado 1160275" d="M1252.654,1261.351c-1.425,2.049-2.968,3.438-3.446,3.1s.29-2.267,1.715-4.316,2.968-3.437,3.446-3.1-.29,2.267-1.715,4.316" transform="translate(-1153.471 -1160.784)" fill="#78471d"/>
            <path id="Trazado_1160276" data-name="Trazado 1160276" d="M1284.668,1282.809c-1.66,2.385-3.393,4.048-3.871,3.713s.48-2.541,2.14-4.926,3.393-4.048,3.871-3.713-.48,2.541-2.14,4.926" transform="translate(-1182.661 -1180.042)" fill="#f0b539"/>
            <path id="Trazado_1160277" data-name="Trazado 1160277" d="M1471.677,1413.947c-1.606,2.308-3.337,3.879-3.867,3.507s.343-2.543,1.949-4.852,3.435-3.961,3.964-3.59-.44,2.626-2.047,4.935" transform="translate(-1355.331 -1301.128)" fill="#9c5c26"/>
            <path id="Trazado_1160278" data-name="Trazado 1160278" d="M1180.783,1515.265s.04-3.177,1.6-3.275,1.676-.771,3.856,1.86,3.559,5.724,2.311,6.653a1.817,1.817,0,0,1-2.327-.077,43.53,43.53,0,0,0-5.438-5.161" transform="translate(-1090.414 -1396.135)" fill="#ffbb95"/>
            <path id="Trazado_1160279" data-name="Trazado 1160279" d="M1113.906,1589.518s3.273,3.4,4.628,2.5.436-2.814.436-2.814,1.753.858,2.718-.129a1.958,1.958,0,0,0,.557-2.383s1.531.982,2.133.087a2.964,2.964,0,0,0,.373-2.432c-.173-.38-4.056-3.549-4.056-3.549Z" transform="translate(-1028.655 -1459.811)" fill="#ffbb95"/>
            <path id="Trazado_1160280" data-name="Trazado 1160280" d="M1104.422,1573.569a3.723,3.723,0,0,1-2.267-1.137,24.029,24.029,0,0,1-2.509-2.787l-.005-.012c-.006-.028-.554-2.825,1.094-3.563l.406-.138a2.287,2.287,0,0,1,1.417-2.514l.01,0,1.406-.021a2.246,2.246,0,0,1-.442-1.583,1.637,1.637,0,0,1,.892-1.1c1.759-.988,5.093,2.789,5.234,2.95.107.09,2.689,2.3,1.967,3.794a1.885,1.885,0,0,1-2.393.853,2.362,2.362,0,0,1-.248,1.59,2.133,2.133,0,0,1-1.414.926,2.664,2.664,0,0,1-1.91-.321c.277.437.98,1.749.039,2.555a1.925,1.925,0,0,1-1.277.508m-4.726-3.954a23.822,23.822,0,0,0,2.5,2.774c1.425,1.268,2.495,1.461,3.469.628,1.1-.938-.134-2.606-.146-2.623l-.152-.2.194.164a2.523,2.523,0,0,0,2,.417,2.078,2.078,0,0,0,1.378-.9,2.323,2.323,0,0,0,.231-1.6l-.014-.054.052.021a1.865,1.865,0,0,0,2.369-.807c.7-1.455-1.929-3.706-1.955-3.728-.037-.042-3.447-3.906-5.166-2.941a1.583,1.583,0,0,0-.864,1.058,2.245,2.245,0,0,0,.465,1.582l.036.046-1.516.022a2.242,2.242,0,0,0-1.373,2.473l0,.025-.45.153c-1.566.7-1.088,3.343-1.06,3.492" transform="translate(-1015.397 -1441.117)" fill="#e88c68"/>
            <path id="Trazado_1160281" data-name="Trazado 1160281" d="M1155.8,1519.749c-.747,0-1.317-.653-2-1.44a11.794,11.794,0,0,0-3.042-2.675c-2.156-1.261-1.759-2.726-1.585-3.145a2.054,2.054,0,0,1,2.053-1.295.268.268,0,0,1,0-.1c.434-2.161.788-2.7.943-2.833a2.535,2.535,0,0,1,1.974-.769,3.28,3.28,0,0,1,2.068,1.226c.231.239,3.029,3.175,3.634,5.839.316,1.393-.2,2.019-.7,2.3a1.135,1.135,0,0,0-1.584,1.613,1.926,1.926,0,0,1-1.185,1.156,1.518,1.518,0,0,1-.577.122m-4.786-8.033a1.565,1.565,0,0,0-1.349.978c-.356.861.14,1.764,1.361,2.478a12.248,12.248,0,0,1,3.175,2.785c.883,1.012,1.3,1.448,1.974,1.174a1.418,1.418,0,0,0,.879-.829,2.255,2.255,0,0,0-.245-1.6c-.1-.1-.274-.295-.5-.548-1.019-1.143-3.139-3.522-4.889-4.351a.908.908,0,0,0-.157-.057.987.987,0,0,0-.249-.031m6.2,4.632a1.819,1.819,0,0,0,1.669.045c.487-.277.635-.854.439-1.715-.584-2.571-3.477-5.565-3.506-5.595l-.022-.026a2.8,2.8,0,0,0-1.7-1.029,2.031,2.031,0,0,0-1.563.633l-.007.007a6.933,6.933,0,0,0-.77,2.534.266.266,0,0,1-.07.133c1.841.888,3.993,3.3,5.029,4.464.229.256.41.459.5.543l.007.006" transform="translate(-1061.089 -1392.113)" fill="#e88c68"/>
            <path id="Trazado_1160282" data-name="Trazado 1160282" d="M1124.054,1602.475c-1.177,0-2.142-1.02-3.151-2.088a16.087,16.087,0,0,0-1.54-1.491,3.23,3.23,0,0,1-1.382-2.145,1.985,1.985,0,0,1,.49-1.469,2.106,2.106,0,0,1,2.4-.581,19.134,19.134,0,0,1,5.311,4.52l.02.029a2.236,2.236,0,0,1,.171,1.657,2.326,2.326,0,0,1-1.369,1.35,2.3,2.3,0,0,1-.949.216m-3.933-7.5a1.959,1.959,0,0,0-1.308.61,1.521,1.521,0,0,0-.375,1.125,2.807,2.807,0,0,0,1.213,1.826,16.392,16.392,0,0,1,1.586,1.533c1.2,1.271,2.239,2.369,3.578,1.768a1.9,1.9,0,0,0,1.121-1.075,1.765,1.765,0,0,0-.127-1.274,18.991,18.991,0,0,0-5.153-4.383,1.124,1.124,0,0,0-.534-.13" transform="translate(-1032.412 -1472.486)" fill="#e88c68"/>
            <path id="Trazado_1160283" data-name="Trazado 1160283" d="M1100.68,1637.775a2.441,2.441,0,0,1-.714-.1,10.833,10.833,0,0,1-4.214-3.912,3.794,3.794,0,0,1,.236-3.033,1.308,1.308,0,0,1,.982-.82,1.059,1.059,0,0,1,.992.349,18.352,18.352,0,0,0,1.891,1.8c.338.285,3.287,2.826,2.818,4.29a1.985,1.985,0,0,1-1.991,1.435m-3.519-7.427a.675.675,0,0,0-.115.01.864.864,0,0,0-.633.541,3.575,3.575,0,0,0-.248,2.661,10.419,10.419,0,0,0,3.936,3.672,1.635,1.635,0,0,0,2.132-1.032c.283-.883-1.492-2.8-2.677-3.8h0a18.777,18.777,0,0,1-1.94-1.844.6.6,0,0,0-.456-.209" transform="translate(-1011.687 -1505.148)" fill="#e88c68"/>
            <path id="Trazado_1160284" data-name="Trazado 1160284" d="M1203.125,1522.967s-1.762-4.281-3.486-5.578-3.438,1.168-6.684,2.544.081,3.512,1.221,3.331c1.969-.312,3.266-1.333,3.685-1.159s-.834,7.493.782,10.008,4.483-9.147,4.483-9.147" transform="translate(-1100.374 -1400.92)" fill="#ffbb95"/>
            <path id="Trazado_1160285" data-name="Trazado 1160285" d="M1194.567,1543.593a.268.268,0,0,1-.255-.187,22.525,22.525,0,0,1-.088-3.351c0-1.3.008-2.768-.032-3.965a7.494,7.494,0,0,0-.229-2.2,2.964,2.964,0,0,0-.912.345,4.007,4.007,0,0,1-3.506.456c-1.2-.561-1.489-1.23-1.521-1.693a1.588,1.588,0,0,1,.789-1.416,34.584,34.584,0,0,1,3.67-2.1.268.268,0,1,1,.212.492,33.983,33.983,0,0,0-3.59,2.053,1.065,1.065,0,0,0-.548.93c.032.451.463.894,1.214,1.245a3.539,3.539,0,0,0,3.047-.454c.616-.3,1.062-.511,1.415-.332.437.221.541,1.524.527,6.64,0,1.389-.008,2.963.063,3.187a.268.268,0,0,1-.255.349" transform="translate(-1097.096 -1412.406)" fill="#e88c68"/>
            <path id="Trazado_1160286" data-name="Trazado 1160286" d="M1931.347,1639.378l-6.42,1.723,2.7.8Z" transform="translate(-1777.607 -1513.911)" fill="#3b3b7d"/>
            <path id="Trazado_1160287" data-name="Trazado 1160287" d="M2066.334,1162.522c-4.089.379-7.463,2.181-7.463,4.871s3.341,4.87,7.463,4.87,8.489-3.48,8.489-6.171-4.13-3.974-8.489-3.57m-.033,8.643c-3.2,0-5.793-1.692-5.793-3.78s2.618-3.486,5.793-3.78c3.383-.314,6.588.683,6.588,2.77s-3.39,4.79-6.588,4.79" transform="translate(-1901.299 -1073.483)" fill="#b32d46"/>
            <path id="Trazado_1160288" data-name="Trazado 1160288" d="M1871.219,1166.807c0,2.458,3.308,5.638,6.429,5.638s5.652-1.991,5.652-4.449-2.555-4.1-5.652-4.45c-3.3-.369-6.429.8-6.429,3.262m1.464.258c0-1.907,2.428-2.818,4.99-2.531,2.4.269,4.387,1.546,4.387,3.454s-1.964,3.454-4.387,3.454-4.99-2.469-4.99-4.376" transform="translate(-1728.009 -1074.434)" fill="#b32d46"/>
            <path id="Trazado_1160289" data-name="Trazado 1160289" d="M2024.494,1214.45s.543-.32,2.909,0v-1.131a4.707,4.707,0,0,0-3.016,0Z" transform="translate(-1869.455 -1120.24)" fill="#b32d46"/>
            <path id="Trazado_1160290" data-name="Trazado 1160290" d="M2241.1,1157.84l8.34-2.73s-.334-.859-4.509.048a35.479,35.479,0,0,0-5.319,1.737Z" transform="translate(-2068.206 -1066.366)" fill="#b32d46"/>
            <path id="Trazado_1160291" data-name="Trazado 1160291" d="M2528.722,1669.341s9.646,2.426,9.09,15.139.222,21.411,1.444,25.983-2.758,24.449-5.267,24.6-9.619-4.648-10.841-19.365-.856-31.317.794-38.238,4.78-8.121,4.78-8.121" transform="translate(-2329.375 -1541.581)" fill="#3b3b7d"/>
            <path id="Trazado_1160292" data-name="Trazado 1160292" d="M2033.825,1357.49s-5.2,1.192-6.08-1.264,1.488-2.453,3.3-2.453,5.569,1.7,4.969,2.487a5.085,5.085,0,0,1-2.192,1.23" transform="translate(-1872.381 -1250.164)" fill="#442322"/>
            <path id="Trazado_1160293" data-name="Trazado 1160293" d="M2043.5,1364.688a.633.633,0,0,0-.258.5c.021.3.027.465.153.465s4.871.055,5.154.055-1.323-1-2.614-1.119a5.542,5.542,0,0,0-2.435.1" transform="translate(-1886.861 -1260.096)" fill="#fff"/>
            <path id="Trazado_1160294" data-name="Trazado 1160294" d="M2641.169,1831.255a3.119,3.119,0,0,0,3.136,2c2.254-.167,7.527-5.925,10.416-10.972,4.5-7.862,9.509-21.753,11.175-28.46s-1.286-15.7-1.286-17a1.147,1.147,0,0,0-.639-.891,3.094,3.094,0,0,0-4.186.845c-3.263,4.593-10.649,17.332-13.327,21.633-3.333,5.353-6.32,9.93-6,21.843.1,3.83.194,9.664.71,11" transform="translate(-2438.355 -1639.57)" fill="#3b3b7d"/>
            <path id="Trazado_1160295" data-name="Trazado 1160295" d="M2541.832,1463.2l1.178,1.518a1.458,1.458,0,0,0,.851.531l27.611,5.857a1.358,1.358,0,0,0,1.592-.938l12.1-42.232a1.739,1.739,0,0,0-.061-1.134l-1.335-3.285c-1.2-1.437-1.3-.318-1.623-.026l-40.271,36.4c-.48.454-.445,2.792-.042,3.312" transform="translate(-2347.011 -1313.911)" fill="#522727"/>
            <path id="Trazado_1160296" data-name="Trazado 1160296" d="M2582.9,1350.2l-26.8-5.7a1.956,1.956,0,0,0-2.3,1.375l-11.483,42.158a1.908,1.908,0,0,0,1.445,2.353l25.373,5.767a1.958,1.958,0,0,0,2.313-1.313l12.912-42.226a1.907,1.907,0,0,0-1.456-2.414" transform="translate(-2347.686 -1241.557)" fill="#703535"/>
            <path id="Trazado_1160297" data-name="Trazado 1160297" d="M2606.208,1450.1l-12.973,42.919a1.906,1.906,0,0,1-2.341,1.463c-2.015-.318-25.678-5.788-25.678-5.788l.78,1.145s26.913,5.851,27.563,5.724,13.268-43.937,13.268-43.937Z" transform="translate(-2368.892 -1339.121)" fill="#fff"/>
            <path id="Trazado_1160298" data-name="Trazado 1160298" d="M2728.963,1402.121a1.715,1.715,0,0,1-.371-.041l-20.9-4.612a1.631,1.631,0,0,1-1.048-.731,1.342,1.342,0,0,1-.156-1.055l1.6-5.888a1.523,1.523,0,0,1,1.826-1.007l21.1,4.464a1.628,1.628,0,0,1,1.069.745,1.338,1.338,0,0,1,.14,1.076l-1.808,6.037a1.493,1.493,0,0,1-1.461,1.012m-.14-1.087a.481.481,0,0,0,.574-.233l1.808-6.037a.271.271,0,0,0-.035-.222.564.564,0,0,0-.369-.244l-21.1-4.464a.475.475,0,0,0-.571.24l-1.6,5.888a.28.28,0,0,0,.039.219.564.564,0,0,0,.362.24Z" transform="translate(-2499.312 -1282.463)" fill="#522727"/>
            <path id="Trazado_1160299" data-name="Trazado 1160299" d="M2613.107,1568.147a1.546,1.546,0,0,1-.348-.04l-20.7-4.772a1.527,1.527,0,0,1-.972-.712,1.471,1.471,0,0,1-.144-1.168l7.441-25.394a1.526,1.526,0,0,1,1.8-1.047l20.811,4.7a1.528,1.528,0,0,1,.979.712,1.472,1.472,0,0,1,.143,1.173l-7.551,25.466a1.521,1.521,0,0,1-1.461,1.081m-21.137-6.39h0a.41.41,0,0,0,.041.325.446.446,0,0,0,.289.209l20.7,4.772a.453.453,0,0,0,.541-.3l7.551-25.466a.41.41,0,0,0-.041-.327.446.446,0,0,0-.291-.209l-20.811-4.7a.452.452,0,0,0-.539.3Z" transform="translate(-2392.593 -1417.5)" fill="#522727"/>
            <path id="Trazado_1160300" data-name="Trazado 1160300" d="M2798.487,1438.963l.74.164-.784,3.572-.74-.164Zm-.313,3,2.3.509-.143.649-2.3-.509Z" transform="translate(-2583.585 -1328.834)" fill="#f0b539"/>
            <path id="Trazado_1160301" data-name="Trazado 1160301" d="M2837.151,1451.53l.469.1.716,3.9-.8-.176-.4-2.647-1.475,2.231-.8-.176Zm-1.3,2.178,2.064.457-.143.648-2.064-.457Z" transform="translate(-2617.905 -1340.44)" fill="#f0b539"/>
            <path id="Trazado_1160302" data-name="Trazado 1160302" d="M2890.362,1457.206l.594.131.227,2.549,1.028-2.271.761.168-1.688,3.371-.7-.154-.148-2.65-1.277,2.334-.7-.154-.119-3.772.761.168-.019,2.494Z" transform="translate(-2667.292 -1345.269)" fill="#f0b539"/>
            <path id="Trazado_1160303" data-name="Trazado 1160303" d="M2729.83,1587.028l-16.445-3.6a.512.512,0,0,1,.217-1l16.446,3.6a.512.512,0,0,1-.218,1" transform="translate(-2505.35 -1461.312)" fill="#522727"/>
            <path id="Trazado_1160304" data-name="Trazado 1160304" d="M2717.688,1623.038l-16.446-3.6a.512.512,0,0,1,.217-1l16.446,3.6a.512.512,0,0,1-.217,1" transform="translate(-2494.137 -1494.566)" fill="#522727"/>
            <path id="Trazado_1160305" data-name="Trazado 1160305" d="M3063.41,1590.358c.248-1.395-1.009-2.622-1.872-3.534-.416-.439-.7-.973-1.372-.995-.842-.028-.641,1.025-.471,1.586a7.552,7.552,0,0,0,.836,1.649,1.255,1.255,0,0,1,.128.289,2.37,2.37,0,0,1,.058.7c0,.107,0,.22.015.342a2.883,2.883,0,0,0,.99,1.9c-.033.053-.064.1-.093.156a.09.09,0,0,0,.14.11c.059-.057.122-.115.187-.175a.32.32,0,0,0,.229-.219l.013-.012a6.2,6.2,0,0,0,.851-.971,2.172,2.172,0,0,0,.361-.824" transform="translate(-2825.388 -1464.459)" fill="#ffbb95"/>
            <path id="Trazado_1160306" data-name="Trazado 1160306" d="M3064.492,1626.922c-.065.24-.382.14-.4-.073-.007-.112-.015-.22-.027-.328-.3.121-.593-.277-.745-.519a2.813,2.813,0,0,1-.219-.4c.112-.359.222-.716.329-1.077.071-.242.14-.484.206-.726a3.819,3.819,0,0,1,.7.832,2.729,2.729,0,0,1,.148,2.3" transform="translate(-2828.677 -1499.52)" fill="#f0825b"/>
            <path id="Trazado_1160307" data-name="Trazado 1160307" d="M3010.276,1620.461a3.711,3.711,0,0,0-.5-1.237,1.615,1.615,0,0,0-.379-.392c-.75-.535-1.628-.949-2.425-1.414a7.211,7.211,0,0,0-2.514-1.255c-.993-.114-1.354.522-1.189,1.427a3.581,3.581,0,0,0,1.542,2.4,12.63,12.63,0,0,1,2.1,1.578,2.688,2.688,0,0,1,.577,1.058,4.961,4.961,0,0,1,.159.79.058.058,0,0,0,0,.015c.054.41.087.835.168,1.266a.3.3,0,0,0,.193.245c.161.585,1.154.09,1.457-.376l0-.006a5.7,5.7,0,0,0,.529-1.026,5.157,5.157,0,0,0,.278-3.073" transform="translate(-2773.384 -1492.461)" fill="#ffbb95"/>
            <path id="Trazado_1160308" data-name="Trazado 1160308" d="M3046.979,1690.713c-.065.24-.382.141-.395-.073-.007-.113-.016-.225-.028-.335a.467.467,0,0,1-.3-.054,1.625,1.625,0,0,1-.6-.739c.047-.193.092-.386.139-.58l.052-.214c.041-.165.082-.332.121-.5h0c.03-.127.061-.253.091-.38.021-.087.043-.174.063-.262a3.841,3.841,0,0,1,.711.839c.035.056.064.112.093.167a2.159,2.159,0,0,1,.232.911,3.952,3.952,0,0,1-.176,1.217" transform="translate(-2812.559 -1558.422)" fill="#f0825b"/>
            <path id="Trazado_1160309" data-name="Trazado 1160309" d="M2981.765,1690.76a1.525,1.525,0,0,0-.085-.194s0,0,0,0a.358.358,0,0,0-.026-.048,2.065,2.065,0,0,0-1.073-.872l-.013-.005c-.131-.054-.266-.1-.4-.148l-.01,0-.093-.03-.217-.067-.012,0c-1.452-.44-2.819-.9-4.239-1.435-.6-.225-1.568-.636-2.163-.161a.77.77,0,0,0-.319.676,2.548,2.548,0,0,0,.411,1.267,4.521,4.521,0,0,0,2.137,1.743,7.954,7.954,0,0,1,2.709,1.337,2.11,2.11,0,0,1,.782,1.323c0,.01,0,.02,0,.03.018.326-.119.65-.08.972a.5.5,0,0,0,.01.055,2.635,2.635,0,0,0,.259.588c.243.521.621.727,1.1.437a1.4,1.4,0,0,0,.119-.08,3.478,3.478,0,0,0,.669-.66,5.1,5.1,0,0,0,.536-4.716" transform="translate(-2745.565 -1558.414)" fill="#ffbb95"/>
            <path id="Trazado_1160310" data-name="Trazado 1160310" d="M3029.471,1754.4c-.017.669-.9.568-1.059.141a2.277,2.277,0,0,1-.581-.26.6.6,0,0,1-.215.038c.088-.338.168-.676.244-1.016q.034-.147.066-.3c.085-.391.166-.783.251-1.176a0,0,0,0,1,0,0c.018-.086.038-.172.056-.259s.038-.172.058-.258a3.907,3.907,0,0,1,.833.69,2.19,2.19,0,0,1,.527,1.076h0a4.023,4.023,0,0,1,.029,1.121.284.284,0,0,1,0,.035.172.172,0,0,1-.212.165" transform="translate(-2795.904 -1617.283)" fill="#f0825b"/>
            <path id="Trazado_1160311" data-name="Trazado 1160311" d="M2981.756,1759.863c-.853-.381-1.735-.677-2.556-1.115-.6-.32-2.1-1.59-2.806-1.136-.873.563-.445,1.906.114,2.507a15.677,15.677,0,0,0,2.6,1.993,21.2,21.2,0,0,0-1.208,4.214c-.223.927.749.238,2.495-1.012a12.574,12.574,0,0,0,2.247-1.776,2.859,2.859,0,0,0,.765-1.809,1.8,1.8,0,0,0-1.073-1.589c-.191-.1-.384-.19-.579-.276" transform="translate(-2748.142 -1623.007)" fill="#ffbb95"/>
            <path id="Trazado_1160312" data-name="Trazado 1160312" d="M3014.672,1820.395c-.065.24-.382.139-.4-.073a3.685,3.685,0,0,0-.484-1.908c.089-.265.2-.558.313-.836a4,4,0,0,1,.418.519,2.732,2.732,0,0,1,.148,2.3" transform="translate(-2783.137 -1678.473)" fill="#f0825b"/>
            <path id="Trazado_1160313" data-name="Trazado 1160313" d="M3034.518,1773.636a3.467,3.467,0,0,1-.669.66,1.373,1.373,0,0,1-.119.08c-.044-.053-.088-.1-.134-.153a3.831,3.831,0,0,0-.961-.728c-.087-.049-.177-.1-.267-.144-.508-.254-1.044-.461-1.557-.754.023-.1.045-.2.066-.3a2.93,2.93,0,0,1,1.561.022c.056.015.111.032.167.05h0a4.441,4.441,0,0,1,1.594.941c.1.095.21.2.318.32" transform="translate(-2798.854 -1636.574)" fill="#f0825b"/>
            <path id="Trazado_1160314" data-name="Trazado 1160314" d="M3050.327,1702.652a.281.281,0,0,1,.025.048c-.012-.018-.023-.033-.028-.042a2.773,2.773,0,0,0-1.07-.877l-.013-.005a2.28,2.28,0,0,0-.4-.148l-.011,0-.093-.03c-.06-.022-.14-.05-.231-.086a11,11,0,0,1-1.03-.445l.052-.214a3.693,3.693,0,0,1,.82-.131c.087,0,.174,0,.26,0a3.648,3.648,0,0,1,2.154.832l.1.079a5.721,5.721,0,0,1-.529,1.026" transform="translate(-2814.24 -1570.553)" fill="#f0825b"/>
            <path id="Trazado_1160315" data-name="Trazado 1160315" d="M3071.4,1633.094a6.194,6.194,0,0,1-.851.971,2.952,2.952,0,0,0-.817-1.336,7.473,7.473,0,0,1-.664-.763c-.3-.381-.564-.758-.457-.751a2.779,2.779,0,0,1,.4.051,3.65,3.65,0,0,1,2.389,1.829" transform="translate(-2833.737 -1506.372)" fill="#f0825b"/>
            <path id="Trazado_1160316" data-name="Trazado 1160316" d="M2531.449,1997.46a13.8,13.8,0,0,0-1.4,5.094c-.209,1.737-.373,3.479-.565,5.218q-.246,2.229-.5,4.457-.246,2.157-.491,4.314-.28,2.492-.544,4.985-.038.359-.075.717a.575.575,0,0,0,.574.574.59.59,0,0,0,.574-.574q.268-2.555.553-5.108.241-2.16.49-4.319.25-2.184.495-4.369c.19-1.707.369-3.415.552-5.123.023-.214.047-.429.072-.643q.018-.151.036-.3c.006-.05.013-.1.019-.15,0-.021.005-.043.008-.064.018-.142-.012.086,0,0,.06-.42.125-.839.208-1.255s.185-.836.309-1.246q.089-.3.2-.585c.035-.093.071-.186.108-.277.008-.018.044-.1.012-.03s0,0,0-.01c.026-.059.051-.117.078-.175.086-.188.18-.372.28-.553a.574.574,0,0,0-.991-.58" transform="translate(-2334.404 -1844.331)" fill="#222257"/>
            <path id="Trazado_1160317" data-name="Trazado 1160317" d="M2652.618,2058.194a25.133,25.133,0,0,0-1.94,2.829,25.741,25.741,0,0,0-1.527,3.076,25.012,25.012,0,0,0-1.077,3.14,25.944,25.944,0,0,0-.666,3.376,24.123,24.123,0,0,0-.208,3.3q0,.211.006.422a.574.574,0,0,0,1.148,0,24.31,24.31,0,0,1,.211-3.782q-.01.076-.02.153a24.91,24.91,0,0,1,1.212-5q.244-.687.527-1.359l-.058.137a24.562,24.562,0,0,1,2.428-4.42q.2-.293.415-.579.1-.137.2-.272c.027-.035.154-.2.038-.051l.12-.153a.625.625,0,0,0,.168-.406.585.585,0,0,0-.168-.406.577.577,0,0,0-.406-.168.554.554,0,0,0-.406.168" transform="translate(-2444.601 -1900.518)" fill="#222257"/>
            <path id="Trazado_1160318" data-name="Trazado 1160318" d="M2612.339,2928.006l.064-25.589.01-4.148.01-4.213,0-1.35.013-4.989h0l0-1.69.007-2.956c0-1.032-.408-1.191-1.064-1.055a20.439,20.439,0,0,1-2.763.741l-37.987,2.418-2.142.136-2.365.151-29.142,1.855h-.029l-6.606.421-10.467.665-2.533.162a3.3,3.3,0,0,0-.444.074,3.348,3.348,0,0,0-1.019.426,3.286,3.286,0,0,0-.424.31h0a3.624,3.624,0,0,0-.942,1.257l0,.011c-.028.063-.055.128-.08.193-.01.028-.022.057-.032.085a3.7,3.7,0,0,0-.216,1.191l-.032,1.722v.006l-.01.546h0l-.037,2.008-.006.318h0l-.125,6.864-.177,9.609-.272,14.817Z" transform="translate(-2321.164 -2661.407)" fill="#7d4a1e"/>
            <path id="Trazado_1160319" data-name="Trazado 1160319" d="M2396.272,2942.071l112.908-1.932c.911-.016,1.637-.579,1.623-1.259l-.09-4.216c-.014-.68-.764-1.218-1.675-1.2l-112.908,1.933c-.911.015-1.637.579-1.623,1.259l.09,4.216c.014.68.764,1.219,1.675,1.2" transform="translate(-2211.248 -2708.954)" fill="#693d19"/>
            <path id="Trazado_1160320" data-name="Trazado 1160320" d="M2339.712,2876.388l119.916-2.052c.938-.016,1.687-.6,1.672-1.3l-.089-4.142c-.015-.7-.787-1.255-1.725-1.239l-120.036,1.2c-.938.016-1.566,1.446-1.551,2.146l.089,4.142c.015.7.787,1.255,1.726,1.239" transform="translate(-2158.971 -2648.187)" fill="#9c5c26"/>
            <path id="Trazado_1160321" data-name="Trazado 1160321" d="M2774.012,3162.387v-26.209a.431.431,0,0,0-.446-.4H2704.7a.463.463,0,0,0-.106.012.418.418,0,0,0-.341.386v26.209Z" transform="translate(-2497.288 -2895.789)" fill="#693d19"/>
            <path id="Trazado_1160322" data-name="Trazado 1160322" d="M2818.971,3212.885v-21.508a1.069,1.069,0,0,0-1.17-.914h-58.982a1.07,1.07,0,0,0-1.169.914v21.508Z" transform="translate(-2546.598 -2946.287)" fill="#9c5c26"/>
            <path id="Trazado_1160323" data-name="Trazado 1160323" d="M2827,3317.564v-12.181a.112.112,0,0,1,.114-.1h46.8a.113.113,0,0,1,.115.1v12.181h1.642v-12.181a1.672,1.672,0,0,0-1.757-1.566h-46.8a1.672,1.672,0,0,0-1.756,1.566v12.181Z" transform="translate(-2609.127 -3050.965)" fill="#693d19"/>
            <path id="Trazado_1160324" data-name="Trazado 1160324" d="M862.312,2581.473h0l0,.819,0,1.16h0l.011,4.158v.528l0,1.159.01,3.974,0,1.084,0,.834.009,3.424.006,2.237.067,24.69.047,16.649.01,3.43h127.4l-.23-11.411-.407-20.2-.041-2.007-.1-4.988-.034-1.69-.016-.782v0l-.04-2-.059-2.962-.026-1.25-.03-1.447-.011-.595-.027-1.322-.1-4.852-.022-1.094h0l-.011-.56-.02-1.009a4.017,4.017,0,0,0-.319-1.5,4.184,4.184,0,0,0-.725-1.151,4.452,4.452,0,0,0-1.141-.924,4.661,4.661,0,0,0-1.883-.585l-1.813-.106h-.017l-1.428-.083-1.25-.072-12.217-.707-8.511-.493h-.025l-9.459-.548h-.016l-4.1-.239-.791-.045-12.86-.745-2.254-.131-6.909-.4-.463-.026-.4-.022-.215-.014-.166-.01-2.9-.168-13.691-.793-.395-.023-37.542-2.176c-2.644-.24-4.932-1-4.925,1.513l.009,2.318Z" transform="translate(-796.305 -2379.021)" fill="#7d4a1e"/>
            <path id="Trazado_1160325" data-name="Trazado 1160325" d="M872.093,2649.077l-145.284.327c-1.172,0-2.12-.641-2.119-1.437l.01-4.94c0-.8.953-1.445,2.124-1.447l145.284-.327c1.172,0,2.12.641,2.119,1.438l-.01,4.94c0,.8-.953,1.445-2.124,1.447" transform="translate(-669.227 -2439.109)" fill="#693d19"/>
            <path id="Trazado_1160326" data-name="Trazado 1160326" d="M832.9,2572.555l-154.3.347c-1.207,0-2.184-.66-2.182-1.481l.009-4.853c0-.821.981-1.488,2.188-1.491l154.3-.347c1.207,0,2.184.66,2.182,1.481l-.009,4.853c0,.821-.981,1.488-2.188,1.491" transform="translate(-624.646 -2368.443)" fill="#9c5c26"/>
            <path id="Trazado_1160327" data-name="Trazado 1160327" d="M989.661,2912.7v-46.833a.367.367,0,0,0-.177-.286,1.032,1.032,0,0,0-.447-.166.988.988,0,0,0-.1-.011c-.031,0-.062,0-.093,0H863.114a.952.952,0,0,0-.754.295.29.29,0,0,0-.06.173V2912.7Z" transform="translate(-796.305 -2646.101)" fill="#693d19"/>
            <path id="Trazado_1160328" data-name="Trazado 1160328" d="M1078.046,2971.866v-41.327c0-.589-.963-1.07-2.136-1.07H968.225c-1.175,0-2.136.481-2.136,1.07v41.327Z" transform="translate(-892.151 -2705.267)" fill="#9c5c26"/>
            <path id="Trazado_1160329" data-name="Trazado 1160329" d="M1108.054,3094.5v-30.4c0-.063.1-.119.208-.119h85.444c.11,0,.209.056.209.119v30.4h3v-30.4c0-1.012-1.44-1.835-3.208-1.835h-85.444c-1.768,0-3.208.823-3.208,1.835v30.4Z" transform="translate(-1020.481 -2827.9)" fill="#693d19"/>
            <g id="Grupo_1215694" data-name="Grupo 1215694" transform="translate(179.14 235.277)" opacity="0.59">
              <g id="Grupo_1215693" data-name="Grupo 1215693">
                <g id="Grupo_1215692" data-name="Grupo 1215692" clip-path="url(#clip-path-3)">
                  <path id="Trazado_1160330" data-name="Trazado 1160330" d="M2354.962,3105.5l-.059-4.028-.4-27.294-.01.031h0c-.131.385-1.41,4.158-3.588,9.579-.979,2.435-2.139,5.2-3.459,8.145-1.933,4.312-4.208,9-6.755,13.567Z" transform="translate(-2340.688 -3074.183)" fill="#693d19"/>
                </g>
              </g>
            </g>
          </g>
        </g>
        <rect id="Rectángulo_420188" data-name="Rectángulo 420188" width="356.593" height="266.598" transform="translate(0 0)" fill="none"/>
      </g>
    </g>
  </g>
</svg>
