<svg xmlns="http://www.w3.org/2000/svg" xmlns:xlink="http://www.w3.org/1999/xlink" width="103" height="103" viewBox="0 0 103 103">
  <defs>
    <filter id="Trazado_978624" x="0" y="0" width="103" height="103" filterUnits="userSpaceOnUse">
      <feOffset dy="3" input="SourceAlpha"/>
      <feGaussianBlur stdDeviation="3" result="blur"/>
      <feFlood flood-opacity="0.161"/>
      <feComposite operator="in" in2="blur"/>
      <feComposite in="SourceGraphic"/>
    </filter>
  </defs>
  <g id="Grupo_1215601" data-name="Grupo 1215601" transform="translate(-192 -4493)">
    <g id="Grupo_1214665" data-name="Grupo 1214665" transform="translate(0 4179)">
      <g id="Grupo_1180764" data-name="Grupo 1180764" transform="translate(1 -4144)">
        <g id="Grupo_1179463" data-name="Grupo 1179463" transform="translate(200 4464)">
          <g id="Grupo_1144531" data-name="Grupo 1144531">
            <g transform="matrix(1, 0, 0, 1, -9, -6)" filter="url(#Trazado_978624)">
              <g id="Trazado_978624-2" data-name="Trazado 978624" transform="translate(9 6)" fill="#e7f2f8">
                <path d="M 42.5 83.5 C 36.96437835693359 83.5 31.59512901306152 82.41617584228516 26.54141235351562 80.27863311767578 C 21.65934181213379 78.21369171142578 17.27447128295898 75.25723266601562 13.50862312316895 71.49137878417969 C 9.742764472961426 67.72553253173828 6.786305904388428 63.34066009521484 4.721364498138428 58.45858764648438 C 2.583823442459106 53.40486907958984 1.5 48.03562164306641 1.5 42.5 C 1.5 36.96437835693359 2.583823442459106 31.59512901306152 4.721364498138428 26.54141235351562 C 6.786305904388428 21.65934181213379 9.742764472961426 17.27447128295898 13.50862312316895 13.50862312316895 C 17.27447128295898 9.742764472961426 21.65934181213379 6.786305904388428 26.54141235351562 4.721364498138428 C 31.59512901306152 2.583823442459106 36.96437835693359 1.5 42.5 1.5 C 48.03562164306641 1.5 53.40486907958984 2.583823442459106 58.45858764648438 4.721364498138428 C 63.34066009521484 6.786305904388428 67.72553253173828 9.742764472961426 71.49137878417969 13.50862312316895 C 75.25723266601562 17.27447128295898 78.21369171142578 21.65934181213379 80.27863311767578 26.54141235351562 C 82.41617584228516 31.59512901306152 83.5 36.96437835693359 83.5 42.5 C 83.5 48.03562164306641 82.41617584228516 53.40486907958984 80.27863311767578 58.45858764648438 C 78.21369171142578 63.34066009521484 75.25723266601562 67.72553253173828 71.49137878417969 71.49137878417969 C 67.72553253173828 75.25723266601562 63.34066009521484 78.21369171142578 58.45858764648438 80.27863311767578 C 53.40486907958984 82.41617584228516 48.03562164306641 83.5 42.5 83.5 Z" stroke="none"/>
                <path d="M 42.5 3 C 37.16621398925781 3 31.99356079101562 4.043960571289062 27.125732421875 6.102882385253906 C 22.42246627807617 8.092185974121094 18.19785308837891 10.94070434570312 14.56928253173828 14.56928253173828 C 10.94070434570312 18.19785308837891 8.092185974121094 22.42246627807617 6.102882385253906 27.125732421875 C 4.043960571289062 31.99356079101562 3 37.16621398925781 3 42.5 C 3 47.83378601074219 4.043960571289062 53.00643920898438 6.102882385253906 57.87425231933594 C 8.092185974121094 62.57753372192383 10.94070434570312 66.80213165283203 14.56928253173828 70.43071746826172 C 18.19786834716797 74.05929565429688 22.42246627807617 76.90781402587891 27.125732421875 78.89711761474609 C 31.99356079101562 80.95603942871094 37.16621398925781 82 42.5 82 C 47.83378601074219 82 53.00642395019531 80.95603942871094 57.87425231933594 78.89711761474609 C 62.57753372192383 76.90781402587891 66.80213165283203 74.05929565429688 70.43071746826172 70.43071746826172 C 74.05929565429688 66.80213165283203 76.90781402587891 62.57753372192383 78.89711761474609 57.87425231933594 C 80.95603942871094 53.00642395019531 82 47.83378601074219 82 42.5 C 82 37.16621398925781 80.95603942871094 31.99356079101562 78.89711761474609 27.125732421875 C 76.90781402587891 22.42246627807617 74.05929565429688 18.19786834716797 70.43071746826172 14.56928253173828 C 66.80213165283203 10.94070434570312 62.57753372192383 8.092185974121094 57.87425231933594 6.102882385253906 C 53.00643920898438 4.043960571289062 47.83378601074219 3 42.5 3 M 42.5 0 C 65.97209167480469 0 85 19.02789306640625 85 42.5 C 85 65.97209167480469 65.97209167480469 85 42.5 85 C 19.02789306640625 85 0 65.97209167480469 0 42.5 C 0 19.02789306640625 19.02789306640625 0 42.5 0 Z" stroke="none" fill="#248abf"/>
              </g>
            </g>
          </g>
        </g>
      </g>
    </g>
    <g id="ley_4_" data-name="ley (4)" transform="translate(217.359 4513.445)">
      <g id="Grupo_1215599" data-name="Grupo 1215599" transform="translate(0.893 0.893)">
        <g id="Grupo_1215598" data-name="Grupo 1215598">
          <g id="Grupo_1215592" data-name="Grupo 1215592">
            <g id="Grupo_1215591" data-name="Grupo 1215591">
              <path id="Trazado_1159808" data-name="Trazado 1159808" d="M15.08,62.805H12.728A5.228,5.228,0,0,1,7.5,57.577V12.728A5.228,5.228,0,0,1,12.728,7.5H15.08Z" transform="translate(-7.5 -7.5)" fill="#964f09"/>
              <path id="Trazado_1159809" data-name="Trazado 1159809" d="M102.265,62.805H71.178V7.5h31.087a2.35,2.35,0,0,1,2.35,2.35V60.456A2.35,2.35,0,0,1,102.265,62.805Z" transform="translate(-63.598 -7.5)" fill="#e68d35"/>
              <path id="Trazado_1159810" data-name="Trazado 1159810" d="M297.085,7.5h-4.762a2.35,2.35,0,0,1,2.35,2.35V60.456a2.35,2.35,0,0,1-2.35,2.35h4.762a2.35,2.35,0,0,0,2.35-2.35V9.85a2.35,2.35,0,0,0-2.35-2.35Z" transform="translate(-258.418 -7.5)" fill="#d47619"/>
              <path id="Trazado_1159811" data-name="Trazado 1159811" d="M71.825,391.422H36.314a2.358,2.358,0,0,1-2.358-2.358v-2.511a2.358,2.358,0,0,1,2.358-2.358H71.825Z" transform="translate(-30.807 -339.353)" fill="#fff"/>
              <path id="Trazado_1159812" data-name="Trazado 1159812" d="M75.967,422l-4.789,3.833V415.208h4.789Z" transform="translate(-63.598 -366.675)" fill="#73a4ff"/>
            </g>
            <path id="Trazado_1159813" data-name="Trazado 1159813" d="M133.115,73.465h18.691V85.86H133.115Z" transform="translate(-118.162 -65.613)" fill="#fff"/>
          </g>
          <g id="Grupo_1215597" data-name="Grupo 1215597" transform="translate(22.832 24.113)">
            <path id="Trazado_1159814" data-name="Trazado 1159814" d="M267.963,475.955h-21.77a1.928,1.928,0,0,1-1.928-1.928h0a1.928,1.928,0,0,1,1.928-1.928h21.77a1.928,1.928,0,0,1,1.928,1.928h0A1.928,1.928,0,0,1,267.963,475.955Z" transform="translate(-238.913 -440.905)" fill="#73a4ff"/>
            <path id="Trazado_1159815" data-name="Trazado 1159815" d="M408.1,472.1h-4.762a1.928,1.928,0,0,1,1.928,1.928h0a1.928,1.928,0,0,1-1.928,1.928H408.1a1.928,1.928,0,0,0,1.928-1.928h0A1.928,1.928,0,0,0,408.1,472.1Z" transform="translate(-379.054 -440.904)" fill="#5c95ff"/>
            <path id="Trazado_1159816" data-name="Trazado 1159816" d="M301.175,442.206H285.324a4.044,4.044,0,0,1,4.044-4.044h7.762a4.044,4.044,0,0,1,4.044,4.044h0Z" transform="translate(-275.084 -411.008)" fill="#ffd52b"/>
            <path id="Trazado_1159817" data-name="Trazado 1159817" d="M349.267,438.16h-4.762a4.044,4.044,0,0,1,4.044,4.044h4.762A4.044,4.044,0,0,0,349.267,438.16Z" transform="translate(-327.22 -411.007)" fill="#fcca00"/>
            <g id="Grupo_1215593" data-name="Grupo 1215593" transform="translate(16.22)">
              <path id="Trazado_1159818" data-name="Trazado 1159818" d="M339.455,237.157h-3.89v-25.15a1.945,1.945,0,1,1,3.89,0Z" transform="translate(-335.565 -210.062)" fill="#73a4ff"/>
            </g>
            <path id="Trazado_1159819" data-name="Trazado 1159819" d="M310.165,250.506H297.123v0a6.408,6.408,0,0,1,6.408-6.408h.226a6.408,6.408,0,0,1,6.408,6.408Z" transform="translate(-285.479 -240.045)" fill="#ffd52b"/>
            <path id="Trazado_1159820" data-name="Trazado 1159820" d="M334.4,244.1h-.226a6.391,6.391,0,0,0-2.268.414,6.41,6.41,0,0,1,4.14,5.994v0H340.8v0A6.408,6.408,0,0,0,334.4,244.1Z" transform="translate(-316.118 -240.044)" fill="#fcca00"/>
            <g id="Grupo_1215596" data-name="Grupo 1215596" transform="translate(0 19.235)">
              <g id="Grupo_1215594" data-name="Grupo 1215594">
                <path id="Trazado_1159821" data-name="Trazado 1159821" d="M208.915,375.541H201.25a1.946,1.946,0,0,1,0-3.892h7.665a1.946,1.946,0,0,1,0,3.892Z" transform="translate(-199.305 -371.649)" fill="#ffd52b"/>
              </g>
              <path id="Trazado_1159822" data-name="Trazado 1159822" d="M244.8,371.649h-4.762a1.946,1.946,0,0,1,0,3.892H244.8a1.946,1.946,0,0,0,0-3.892Z" transform="translate(-235.186 -371.649)" fill="#fcca00"/>
              <g id="Grupo_1215595" data-name="Grupo 1215595" transform="translate(24.775)">
                <path id="Trazado_1159823" data-name="Trazado 1159823" d="M417.043,375.541h-7.665a1.946,1.946,0,0,1,0-3.892h7.665a1.946,1.946,0,0,1,0,3.892Z" transform="translate(-407.433 -371.649)" fill="#ffd52b"/>
              </g>
              <path id="Trazado_1159824" data-name="Trazado 1159824" d="M452.924,371.649h-4.762a1.946,1.946,0,0,1,0,3.892h4.762a1.946,1.946,0,0,0,0-3.892Z" transform="translate(-418.538 -371.649)" fill="#fcca00"/>
            </g>
          </g>
        </g>
        <path id="Trazado_1159825" data-name="Trazado 1159825" d="M244.611,291.4H213.15a.893.893,0,1,0,0,1.786h31.461a.893.893,0,0,0,0-1.786Z" transform="translate(-187.883 -257.606)" fill="#ffd52b"/>
      </g>
      <g id="Grupo_1215600" data-name="Grupo 1215600" transform="translate(0 0)">
        <path id="Trazado_1159826" data-name="Trazado 1159826" d="M145.2,80.145a.893.893,0,0,0,.893-.893V66.858a.893.893,0,0,0-.893-.893H126.508a.893.893,0,0,0-.893.893V79.253a.893.893,0,0,0,.893.893ZM127.4,67.751h16.9V78.36H127.4Z" transform="translate(-110.662 -58.113)" fill="#060606"/>
        <path id="Trazado_1159827" data-name="Trazado 1159827" d="M58.33,43.357l-2.736-6.883h2.027a.893.893,0,1,0,0-1.786H49.262a7.318,7.318,0,0,0-4.534-5.995V26.951A2.842,2.842,0,0,0,42.8,24.264V3.243A3.246,3.246,0,0,0,39.559,0H6.121A6.128,6.128,0,0,0,0,6.121v4.355a.893.893,0,1,0,1.786,0V6.121A4.34,4.34,0,0,1,6.121,1.786H7.58V44.842H6.4a3.254,3.254,0,0,0-3.251,3.251V50.6A3.254,3.254,0,0,0,6.4,53.854H7.58v1.452H6.121A4.34,4.34,0,0,1,1.786,50.97V15A.893.893,0,1,0,0,15V50.97a6.128,6.128,0,0,0,6.121,6.121H7.58v2.964a.9.9,0,0,0,1.451.7l4.575-3.661H28.382a2.85,2.85,0,0,0,2.623,3.857H46.067a.893.893,0,1,0,0-1.786H31.005a1.037,1.037,0,0,1,0-2.072h21.77a1.037,1.037,0,0,1,0,2.072H50.825a.893.893,0,1,0,0,1.786h1.951c3.63,0,3.636-5.643,0-5.643h-2.15a4.945,4.945,0,0,0-4.854-4.04H44.728V36.474h8.234l-2.736,6.883a2.838,2.838,0,0,0,.22,5.668h7.665a2.838,2.838,0,0,0,.22-5.668ZM39.053,44.842H35.833a2.841,2.841,0,0,0-2.279-1.484l-2.736-6.883h8.234Zm-13.383.292h7.665a1.053,1.053,0,0,1,0,2.106H25.67a1.053,1.053,0,0,1,0-2.106Zm1.706-1.786L29.5,38l2.127,5.35Zm20.071-8.774H36.334a5.524,5.524,0,0,1,5.443-4.624A5.6,5.6,0,0,1,47.447,34.574Zm-4.5-6.347a8.624,8.624,0,0,0-2.1,0V26.951a1.052,1.052,0,0,1,2.1,0ZM9.366,1.786H39.56a1.459,1.459,0,0,1,1.457,1.457V24.251a2.842,2.842,0,0,0-1.964,2.7v1.743a7.319,7.319,0,0,0-4.534,5.995H26.16a.893.893,0,1,0,0,1.786h2.027L25.45,43.358a2.842,2.842,0,0,0-2.279,1.484H9.366Zm0,48.533h3v5.474l-3,2.4Zm4.789,4.987V53.854H33.668a4.9,4.9,0,0,0-.512,1.452h-19Zm34.638,0h-13.8a3.157,3.157,0,0,1,3.021-2.254h7.762A3.157,3.157,0,0,1,48.793,55.306Zm-10.783-4.04a4.907,4.907,0,0,0-2.694.8H14.155V49.426a.893.893,0,0,0-.893-.893H8.473a.893.893,0,0,0-.893.893v2.642H6.4A1.467,1.467,0,0,1,4.935,50.6V48.092A1.467,1.467,0,0,1,6.4,46.627H22.867a2.842,2.842,0,0,0,2.8,2.4h7.665a2.842,2.842,0,0,0,2.8-2.4h2.914v4.638H38.009Zm4.933-.058h-2.1V36.474h2.1Zm13.463-7.86H52.151L54.278,38Zm1.705,3.892H50.445a1.053,1.053,0,0,1,0-2.106h7.665a1.053,1.053,0,0,1,0,2.106Z" transform="translate(0 0)" fill="#060606"/>
      </g>
    </g>
  </g>
</svg>
