<svg xmlns="http://www.w3.org/2000/svg" xmlns:xlink="http://www.w3.org/1999/xlink" width="93.934" height="93.934" viewBox="0 0 93.934 93.934">
  <defs>
    <filter id="Trazado_982547" x="0" y="0" width="93.934" height="93.934" filterUnits="userSpaceOnUse">
      <feOffset dy="3" input="SourceAlpha"/>
      <feGaussianBlur stdDeviation="3" result="blur"/>
      <feFlood flood-opacity="0.161"/>
      <feComposite operator="in" in2="blur"/>
      <feComposite in="SourceGraphic"/>
    </filter>
  </defs>
  <g id="Grupo_1215759" data-name="Grupo 1215759" transform="translate(-191.066 -8449.729)">
    <g id="Grupo_1214711" data-name="Grupo 1214711" transform="translate(-0.229 3321.729)">
      <g id="Grupo_1214432" data-name="Grupo 1214432" transform="translate(-0.771 -2738.674)">
        <g id="Grupo_1183196" data-name="Grupo 1183196" transform="translate(1 1016.674)">
          <g id="Grupo_1179610" data-name="Grupo 1179610" transform="translate(8 4723.467)">
            <g id="Grupo_1175227" data-name="Grupo 1175227" transform="translate(-5.967 140.533)">
              <g id="Grupo_1167337" data-name="Grupo 1167337" transform="translate(198.033 1992)">
                <g id="Grupo_1166720" data-name="Grupo 1166720">
                  <g id="Grupo_1164305" data-name="Grupo 1164305">
                    <g id="Grupo_1163948" data-name="Grupo 1163948">
                      <g id="Grupo_1158168" data-name="Grupo 1158168">
                        <g id="Grupo_1152576" data-name="Grupo 1152576">
                          <g id="Grupo_1148633" data-name="Grupo 1148633">
                            <g id="Grupo_1148525" data-name="Grupo 1148525">
                              <g transform="matrix(1, 0, 0, 1, -9, -6)" filter="url(#Trazado_982547)">
                                <g id="Trazado_982547-2" data-name="Trazado 982547" transform="translate(9 6)" fill="#eae4dc">
                                  <path d="M 37.966796875 74.43359375 C 33.04315185546875 74.43359375 28.26757431030273 73.46962738037109 23.77274131774902 71.56847381591797 C 19.43047523498535 69.73184967041016 15.53040790557861 67.10224914550781 12.18087482452393 63.75271987915039 C 8.831341743469238 60.4031867980957 6.201741218566895 56.50312042236328 4.365118980407715 52.16086196899414 C 2.463963508605957 47.66601943969727 1.499996900558472 42.89044189453125 1.499996900558472 37.966796875 C 1.499996900558472 33.04315185546875 2.463963508605957 28.26757431030273 4.365118980407715 23.77274131774902 C 6.201741218566895 19.43047523498535 8.831341743469238 15.53040790557861 12.18087482452393 12.18087482452393 C 15.53040790557861 8.831341743469238 19.43047523498535 6.201741218566895 23.77274131774902 4.365118980407715 C 28.26757431030273 2.463963508605957 33.04315185546875 1.499996900558472 37.966796875 1.499996900558472 C 42.89044189453125 1.499996900558472 47.66601943969727 2.463963508605957 52.16086196899414 4.365118980407715 C 56.50312042236328 6.201741218566895 60.4031867980957 8.831341743469238 63.75271987915039 12.18087482452393 C 67.10224914550781 15.53040790557861 69.73184967041016 19.43047523498535 71.56847381591797 23.77274131774902 C 73.46962738037109 28.26757431030273 74.43359375 33.04315185546875 74.43359375 37.966796875 C 74.43359375 42.89044189453125 73.46962738037109 47.66601943969727 71.56847381591797 52.16086196899414 C 69.73184967041016 56.50313186645508 67.10224914550781 60.4031867980957 63.75271987915039 63.75271987915039 C 60.4031867980957 67.10224914550781 56.50313186645508 69.73184967041016 52.16086196899414 71.56847381591797 C 47.66601943969727 73.46962738037109 42.89044189453125 74.43359375 37.966796875 74.43359375 Z" stroke="none"/>
                                  <path d="M 37.966796875 3 C 33.2449836730957 3 28.66600799560547 3.924095153808594 24.35705947875977 5.746635437011719 C 20.19359588623047 7.507637023925781 16.45379638671875 10.02928161621094 13.24153518676758 13.24153518676758 C 10.02927398681641 16.45379638671875 7.507621765136719 20.19359588623047 5.746635437011719 24.35705947875977 C 3.924095153808594 28.66600799560547 3 33.2449836730957 3 37.966796875 C 3 42.6886100769043 3.924095153808594 47.26758575439453 5.746635437011719 51.57653427124023 C 7.507621765136719 55.73999786376953 10.02927398681641 59.47979736328125 13.24153518676758 62.69205856323242 C 16.45379638671875 65.90431976318359 20.19359588623047 68.42597198486328 24.35705947875977 70.18695831298828 C 28.66600799560547 72.00949859619141 33.2449836730957 72.93359375 37.966796875 72.93359375 C 42.6886100769043 72.93359375 47.26758575439453 72.00949859619141 51.57653427124023 70.18695831298828 C 55.73999786376953 68.42597198486328 59.47979736328125 65.90431976318359 62.69205856323242 62.69205856323242 C 65.90431976318359 59.47979736328125 68.42597198486328 55.73999786376953 70.18695831298828 51.57653427124023 C 72.00949859619141 47.26758575439453 72.93359375 42.6886100769043 72.93359375 37.966796875 C 72.93359375 33.2449836730957 72.00949859619141 28.66600799560547 70.18695831298828 24.35705947875977 C 68.42597198486328 20.19359588623047 65.90431976318359 16.45379638671875 62.69205856323242 13.24153518676758 C 59.47979736328125 10.02928161621094 55.73999786376953 7.507637023925781 51.57653427124023 5.746635437011719 C 47.26758575439453 3.924095153808594 42.6886100769043 3 37.966796875 3 M 37.966796875 0 C 58.93528366088867 0 75.93359375 16.99832153320312 75.93359375 37.966796875 C 75.93359375 58.93528366088867 58.93528366088867 75.93359375 37.966796875 75.93359375 C 16.99831008911133 75.93359375 0 58.93528366088867 0 37.966796875 C 0 16.99832153320312 16.99831008911133 0 37.966796875 0 Z" stroke="none" fill="#665b4e"/>
                                </g>
                              </g>
                            </g>
                          </g>
                        </g>
                      </g>
                    </g>
                  </g>
                </g>
              </g>
            </g>
          </g>
        </g>
      </g>
    </g>
    <g id="ley_6_" data-name="ley (6)" transform="translate(205 8453.036)">
      <g id="Grupo_1215750" data-name="Grupo 1215750" transform="translate(12.044 45.885)">
        <g id="Grupo_1215745" data-name="Grupo 1215745" transform="translate(0 2.953)">
          <path id="Trazado_1160471" data-name="Trazado 1160471" d="M145.488,356.776a9.4,9.4,0,0,0,2.257,6.191H113.729a1.076,1.076,0,0,1-.878-.449,10.958,10.958,0,0,1,0-11.482,1.076,1.076,0,0,1,.878-.449h34.016A9.4,9.4,0,0,0,145.488,356.776Z" transform="translate(-111.226 -350.585)" fill="#fb3a82"/>
          <path id="Trazado_1160472" data-name="Trazado 1160472" d="M121.607,350.587l-9.592,10.39a10.87,10.87,0,0,1-.785-4.2,9.824,9.824,0,0,1,1.624-5.742,1.075,1.075,0,0,1,.878-.449Z" transform="translate(-111.23 -350.587)" fill="#fb1466"/>
          <path id="Trazado_1160473" data-name="Trazado 1160473" d="M180.053,356.776a9.4,9.4,0,0,0,2.257,6.191H147.776s-1.985-2.01-1.985-6.191,1.985-6.191,1.985-6.191H182.31A9.4,9.4,0,0,0,180.053,356.776Z" transform="translate(-142.048 -350.585)" fill="#e0d3ce"/>
          <g id="Grupo_1215744" data-name="Grupo 1215744" transform="translate(3.743 0)">
            <path id="Trazado_1160474" data-name="Trazado 1160474" d="M152.425,350.587l-6.6,7.148c-.023-.305-.036-.625-.036-.957,0-4.181,1.985-6.191,1.985-6.191Z" transform="translate(-145.79 -350.587)" fill="#cdbfbb"/>
            <path id="Trazado_1160475" data-name="Trazado 1160475" d="M428.491,356.782a9.4,9.4,0,0,0,2.257,6.19h-4.092a9.618,9.618,0,0,1,0-12.381h4.092A9.4,9.4,0,0,0,428.491,356.782Z" transform="translate(-394.228 -350.591)" fill="#cdbfbb"/>
          </g>
        </g>
        <g id="Grupo_1215749" data-name="Grupo 1215749" transform="translate(4.66)">
          <g id="Grupo_1215747" data-name="Grupo 1215747" transform="translate(0)">
            <path id="Trazado_1160476" data-name="Trazado 1160476" d="M192.186,325.115a1.8,1.8,0,0,1-1.8,1.8H156.057a1.8,1.8,0,0,1,0-3.594H190.39A1.8,1.8,0,0,1,192.186,325.115Z" transform="translate(-154.26 -323.317)" fill="#fb3a82"/>
            <g id="Grupo_1215746" data-name="Grupo 1215746">
              <path id="Trazado_1160477" data-name="Trazado 1160477" d="M162.7,323.317l-3.317,3.594h-3.33a1.8,1.8,0,0,1,0-3.594Z" transform="translate(-154.26 -323.317)" fill="#fb1466"/>
              <path id="Trazado_1160478" data-name="Trazado 1160478" d="M461,325.117a1.8,1.8,0,0,1-1.8,1.8h-3.485a1.8,1.8,0,0,0,0-3.594H459.2A1.8,1.8,0,0,1,461,325.117Z" transform="translate(-423.069 -323.321)" fill="#fb1466"/>
            </g>
          </g>
          <g id="Grupo_1215748" data-name="Grupo 1215748" transform="translate(0 14.693)">
            <path id="Trazado_1160479" data-name="Trazado 1160479" d="M190.387,462.59H156.054a1.8,1.8,0,0,1,0-3.594h34.333a1.8,1.8,0,0,1,0,3.594Z" transform="translate(-154.257 -458.996)" fill="#fb3a82"/>
            <path id="Trazado_1160480" data-name="Trazado 1160480" d="M461,460.8a1.8,1.8,0,0,1-1.8,1.8h-3.485a1.8,1.8,0,1,0,0-3.593H459.2A1.8,1.8,0,0,1,461,460.8Z" transform="translate(-423.068 -459)" fill="#fb1466"/>
          </g>
        </g>
      </g>
      <g id="Grupo_1215758" data-name="Grupo 1215758" transform="translate(-0.001 12.193)">
        <g id="Grupo_1215753" data-name="Grupo 1215753" transform="translate(0.812 21.462)">
          <g id="Grupo_1215751" data-name="Grupo 1215751" transform="translate(0 6.874)">
            <path id="Trazado_1160481" data-name="Trazado 1160481" d="M31.155,276.758l-2.9-2.9L8.506,292.087a3.127,3.127,0,1,0,4.419,4.419Z" transform="translate(-7.5 -273.857)" fill="#873f30"/>
            <path id="Trazado_1160482" data-name="Trazado 1160482" d="M14.1,303.944a3.128,3.128,0,0,1-4.421,0,3.1,3.1,0,0,1-.763-1.246,3.122,3.122,0,0,0,3.173-.76c.03-.03.06-.062.089-.093L30.411,282.1,32.42,284.1,14.189,303.853C14.16,303.884,14.131,303.915,14.1,303.944Z" transform="translate(-8.764 -281.204)" fill="#6c3328"/>
          </g>
          <path id="Trazado_1160483" data-name="Trazado 1160483" d="M197.316,210.382l-6.68,7.968,2.729,2.729,7.968-6.68Z" transform="translate(-170.804 -210.382)" fill="#873f30"/>
          <path id="Trazado_1160484" data-name="Trazado 1160484" d="M206.167,210.382l-2.159,2.575.648.648a1.221,1.221,0,0,1,0,1.726l-4.094,4.094,1.654,1.654,7.968-6.68Z" transform="translate(-179.655 -210.382)" fill="#6c3328"/>
          <g id="Grupo_1215752" data-name="Grupo 1215752" transform="translate(17.621 6.337)">
            <path id="Trazado_1160485" data-name="Trazado 1160485" d="M173.445,274.9l-2.649-2.649a1.961,1.961,0,0,1,2.773-2.773l2.649,2.649a1.961,1.961,0,1,1-2.773,2.773Z" transform="translate(-170.222 -268.899)" fill="#ba5d4f"/>
            <path id="Trazado_1160486" data-name="Trazado 1160486" d="M186.222,284.9a1.961,1.961,0,0,1-2.773,0l-2.008-2.008a1.961,1.961,0,1,0,2.773-2.773l2.008,2.008A1.96,1.96,0,0,1,186.222,284.9Z" transform="translate(-180.226 -278.908)" fill="#a34f41"/>
          </g>
        </g>
        <g id="Grupo_1215754" data-name="Grupo 1215754" transform="translate(21.551 3.25)">
          <path id="Trazado_1160487" data-name="Trazado 1160487" d="M0,0H8.319V13.061H0Z" transform="translate(9.234 0) rotate(45)" fill="#ba5d4f"/>
          <path id="Trazado_1160488" data-name="Trazado 1160488" d="M0,0H8.319V13.061H0Z" transform="translate(18.766 28.008) rotate(-135)" fill="#a34f41"/>
        </g>
        <g id="Grupo_1215757" data-name="Grupo 1215757" transform="translate(0 0)">
          <path id="Trazado_1160489" data-name="Trazado 1160489" d="M177.265,33.392l-.2-.2a1.984,1.984,0,0,1,0-2.806l10.107-10.107a1.984,1.984,0,0,1,2.806,0l.2.2a1.984,1.984,0,0,1,0,2.806L180.071,33.392A1.984,1.984,0,0,1,177.265,33.392Z" transform="translate(-157.369 -18.882)" fill="#873f30"/>
          <path id="Trazado_1160490" data-name="Trazado 1160490" d="M348.825,204.951l.2.2a1.984,1.984,0,0,0,2.806,0l10.107-10.107a1.984,1.984,0,0,0,0-2.806l-.2-.2a1.984,1.984,0,0,0-2.806,0l-10.107,10.107A1.984,1.984,0,0,0,348.825,204.951Z" transform="translate(-310.532 -172.044)" fill="#6c3328"/>
          <g id="Grupo_1215756" data-name="Grupo 1215756">
            <path id="Trazado_1160491" data-name="Trazado 1160491" d="M0,0H9.343V19.726H0Z" transform="translate(39.22 6.971) rotate(45)" fill="#fcc16d"/>
            <path id="Trazado_1160492" data-name="Trazado 1160492" d="M0,0H19.726V4.729H0Z" transform="translate(28.531 24.187) rotate(-45)" fill="#fca62f"/>
            <path id="Trazado_1160493" data-name="Trazado 1160493" d="M238.685,67.638l-1.618-.662a1.488,1.488,0,0,0-1.615.325L224.088,78.665a1.488,1.488,0,0,0-.325,1.615l.662,1.618a.992.992,0,0,0,1.62.326l12.967-12.967a.992.992,0,0,0-.326-1.62Z" transform="translate(-199.433 -60.945)" fill="#873f30"/>
            <path id="Trazado_1160494" data-name="Trazado 1160494" d="M303.3,132.252l.662,1.618a1.488,1.488,0,0,1-.325,1.615l-11.363,11.363a1.488,1.488,0,0,1-1.615.325l-1.618-.662a.992.992,0,0,1-.326-1.62l12.967-12.967a.992.992,0,0,1,1.62.326Z" transform="translate(-257.187 -118.701)" fill="#6c3328"/>
            <g id="Grupo_1215755" data-name="Grupo 1215755">
              <path id="Trazado_1160495" data-name="Trazado 1160495" d="M52.834,59.765h-.6a8.4,8.4,0,0,1-.7-1.333.812.812,0,0,0-1.5.621c.1.243.213.479.331.712H18.5a2.6,2.6,0,0,0-.708.1A9.441,9.441,0,0,1,16.6,55.028c0-.354.016-.7.046-1.045H32.206a.812.812,0,0,0,0-1.624H17.33l1.908-2.067H50.356a10.138,10.138,0,0,0-.782,2.067H38.9a.812.812,0,1,0,0,1.624H49.29c-.032.33-.05.663-.052,1a.812.812,0,0,0,.809.816h0a.812.812,0,0,0,.812-.809,8.69,8.69,0,0,1,1.366-4.7h.606a2.609,2.609,0,1,0,0-5.218H42.682l9.3-9.3a2.8,2.8,0,0,0,0-3.954l-.2-.2a2.795,2.795,0,0,0-3.811-.133l-1.438-1.438.489-.489a2.3,2.3,0,0,0,.5-2.5l-.662-1.618a1.8,1.8,0,0,0-1.307-1.084l-1.13-1.13a.812.812,0,1,0-1.149,1.149l.556.556-12.8,12.8-3.764-3.764,12.8-12.8.5.5a.812.812,0,1,0,1.149-1.149l-1.072-1.072a1.8,1.8,0,0,0-1.084-1.307h0l-1.618-.662a2.3,2.3,0,0,0-2.5.5l-.489.489-1.438-1.438a2.795,2.795,0,0,0-.133-3.81l-.2-.2a2.8,2.8,0,0,0-3.954,0L19.117,23.119a2.8,2.8,0,0,0,0,3.954l.2.2a2.795,2.795,0,0,0,3.811.133l1.438,1.438-.49.49a2.3,2.3,0,0,0-.5,2.5l.662,1.618a1.8,1.8,0,0,0,1.288,1.08l-4.072,4.858a2.775,2.775,0,0,0-3.665,3.518l-1.847,1.7a.812.812,0,0,0,1.1,1.194l1.707-1.575,2.012,2.012L5.64,62.627a2.315,2.315,0,1,1-3.271-3.271L14.231,48.4a.812.812,0,0,0-1.1-1.193L1.267,58.162A3.939,3.939,0,0,0,3.936,65h.081a3.906,3.906,0,0,0,2.816-1.266L11.7,58.456a9.361,9.361,0,0,0,1.306,2.784,1.891,1.891,0,0,0,1.54.791h1.368A2.6,2.6,0,0,0,18.5,64.983H52.834a2.609,2.609,0,0,0,0-5.218Zm.985-12.083a.986.986,0,0,1-.985.985h-32.1l1.35-1.462a2.776,2.776,0,0,0,2.77-.507H52.834a.986.986,0,0,1,.985.985Zm-24.5-9.373-4.7,3.943-1.87-1.87,3.943-4.7Zm-3.543,6.764a2.789,2.789,0,0,0-.169-1.532l4.858-4.072a1.8,1.8,0,0,0,1.08,1.288l1.618.662a2.3,2.3,0,0,0,2.5-.5l.49-.49,1.438,1.438a2.8,2.8,0,0,0-.323,3.209H25.774ZM49.8,32.418a1.164,1.164,0,0,1,.828.343l.2.2a1.171,1.171,0,0,1,0,1.657L40.727,44.73a1.171,1.171,0,0,1-1.657,0l-.2-.2a1.173,1.173,0,0,1,0-1.657L48.974,32.761A1.163,1.163,0,0,1,49.8,32.418Zm-2.987.2-8.087,8.087L37.3,39.277l8.087-8.087ZM32.1,38.959,45.064,25.993a.171.171,0,0,1,.124-.053.2.2,0,0,1,.038,0,.173.173,0,0,1,.131.108l.662,1.618a.674.674,0,0,1-.148.733L34.509,39.767a.674.674,0,0,1-.733.148l-1.618-.662a.18.18,0,0,1-.059-.294ZM21.3,26.473a1.164,1.164,0,0,1-.828-.343l-.2-.2a1.172,1.172,0,0,1,0-1.657L30.373,14.161a1.172,1.172,0,0,1,1.657,0l.2.2a1.172,1.172,0,0,1,0,1.657L22.127,26.13a1.165,1.165,0,0,1-.829.343Zm2.987-.2,8.087-8.087,1.432,1.432L25.718,27.7Zm.943,4.219L36.592,19.124a.674.674,0,0,1,.734-.148l1.618.662a.18.18,0,0,1,.059.293L26.036,32.9a.18.18,0,0,1-.293-.059l-.662-1.618a.674.674,0,0,1,.148-.733ZM19.245,41.953a1.149,1.149,0,0,1,1.961-.812l2.649,2.649a1.149,1.149,0,0,1-1.625,1.625l-2.649-2.649a1.141,1.141,0,0,1-.337-.812ZM14.33,60.3a8.194,8.194,0,0,1-1.3-3.282l1.947-2.109c0,.04,0,.08,0,.121a11.269,11.269,0,0,0,1.26,5.378H14.547A.264.264,0,0,1,14.33,60.3Zm38.5,3.06H18.5a.985.985,0,1,1,0-1.97H52.834a.985.985,0,1,1,0,1.97Z" transform="translate(0.001 -12.193)"/>
              <path id="Trazado_1160496" data-name="Trazado 1160496" d="M203.139,417.166a.812.812,0,0,0,0,1.624H222.06a.812.812,0,0,0,0-1.624Z" transform="translate(-180.417 -373.311)"/>
            </g>
          </g>
        </g>
      </g>
    </g>
  </g>
</svg>
