<svg xmlns="http://www.w3.org/2000/svg" xmlns:xlink="http://www.w3.org/1999/xlink" width="93.934" height="93.934" viewBox="0 0 93.934 93.934">
  <defs>
    <filter id="Trazado_982547" x="0" y="0" width="93.934" height="93.934" filterUnits="userSpaceOnUse">
      <feOffset dy="3" input="SourceAlpha"/>
      <feGaussianBlur stdDeviation="3" result="blur"/>
      <feFlood flood-opacity="0.161"/>
      <feComposite operator="in" in2="blur"/>
      <feComposite in="SourceGraphic"/>
    </filter>
  </defs>
  <g id="Grupo_1215785" data-name="Grupo 1215785" transform="translate(-611.066 -8449.729)">
    <g id="Grupo_1214712" data-name="Grupo 1214712" transform="translate(-0.229 3321.729)">
      <g id="Grupo_1214433" data-name="Grupo 1214433" transform="translate(-0.771 -2738.674)">
        <g id="Grupo_1183190" data-name="Grupo 1183190" transform="translate(1 1016.674)">
          <g id="Grupo_1179611" data-name="Grupo 1179611" transform="translate(428 4723.467)">
            <g id="Grupo_1175227" data-name="Grupo 1175227" transform="translate(-5.967 140.533)">
              <g id="Grupo_1167337" data-name="Grupo 1167337" transform="translate(198.033 1992)">
                <g id="Grupo_1166720" data-name="Grupo 1166720">
                  <g id="Grupo_1164305" data-name="Grupo 1164305">
                    <g id="Grupo_1163948" data-name="Grupo 1163948">
                      <g id="Grupo_1158168" data-name="Grupo 1158168">
                        <g id="Grupo_1152576" data-name="Grupo 1152576">
                          <g id="Grupo_1148633" data-name="Grupo 1148633">
                            <g id="Grupo_1148525" data-name="Grupo 1148525">
                              <g transform="matrix(1, 0, 0, 1, -9, -6)" filter="url(#Trazado_982547)">
                                <g id="Trazado_982547-2" data-name="Trazado 982547" transform="translate(9 6)" fill="#eae4dc">
                                  <path d="M 37.966796875 74.43359375 C 33.04315185546875 74.43359375 28.26757431030273 73.46962738037109 23.77274131774902 71.56847381591797 C 19.43047523498535 69.73184967041016 15.53040790557861 67.10224914550781 12.18087482452393 63.75271987915039 C 8.831341743469238 60.4031867980957 6.201741218566895 56.50312042236328 4.365118980407715 52.16086196899414 C 2.463963508605957 47.66601943969727 1.499996900558472 42.89044189453125 1.499996900558472 37.966796875 C 1.499996900558472 33.04315185546875 2.463963508605957 28.26757431030273 4.365118980407715 23.77274131774902 C 6.201741218566895 19.43047523498535 8.831341743469238 15.53040790557861 12.18087482452393 12.18087482452393 C 15.53040790557861 8.831341743469238 19.43047523498535 6.201741218566895 23.77274131774902 4.365118980407715 C 28.26757431030273 2.463963508605957 33.04315185546875 1.499996900558472 37.966796875 1.499996900558472 C 42.89044189453125 1.499996900558472 47.66601943969727 2.463963508605957 52.16086196899414 4.365118980407715 C 56.50312042236328 6.201741218566895 60.4031867980957 8.831341743469238 63.75271987915039 12.18087482452393 C 67.10224914550781 15.53040790557861 69.73184967041016 19.43047523498535 71.56847381591797 23.77274131774902 C 73.46962738037109 28.26757431030273 74.43359375 33.04315185546875 74.43359375 37.966796875 C 74.43359375 42.89044189453125 73.46962738037109 47.66601943969727 71.56847381591797 52.16086196899414 C 69.73184967041016 56.50313186645508 67.10224914550781 60.4031867980957 63.75271987915039 63.75271987915039 C 60.4031867980957 67.10224914550781 56.50313186645508 69.73184967041016 52.16086196899414 71.56847381591797 C 47.66601943969727 73.46962738037109 42.89044189453125 74.43359375 37.966796875 74.43359375 Z" stroke="none"/>
                                  <path d="M 37.966796875 3 C 33.2449836730957 3 28.66600799560547 3.924095153808594 24.35705947875977 5.746635437011719 C 20.19359588623047 7.507637023925781 16.45379638671875 10.02928161621094 13.24153518676758 13.24153518676758 C 10.02927398681641 16.45379638671875 7.507621765136719 20.19359588623047 5.746635437011719 24.35705947875977 C 3.924095153808594 28.66600799560547 3 33.2449836730957 3 37.966796875 C 3 42.6886100769043 3.924095153808594 47.26758575439453 5.746635437011719 51.57653427124023 C 7.507621765136719 55.73999786376953 10.02927398681641 59.47979736328125 13.24153518676758 62.69205856323242 C 16.45379638671875 65.90431976318359 20.19359588623047 68.42597198486328 24.35705947875977 70.18695831298828 C 28.66600799560547 72.00949859619141 33.2449836730957 72.93359375 37.966796875 72.93359375 C 42.6886100769043 72.93359375 47.26758575439453 72.00949859619141 51.57653427124023 70.18695831298828 C 55.73999786376953 68.42597198486328 59.47979736328125 65.90431976318359 62.69205856323242 62.69205856323242 C 65.90431976318359 59.47979736328125 68.42597198486328 55.73999786376953 70.18695831298828 51.57653427124023 C 72.00949859619141 47.26758575439453 72.93359375 42.6886100769043 72.93359375 37.966796875 C 72.93359375 33.2449836730957 72.00949859619141 28.66600799560547 70.18695831298828 24.35705947875977 C 68.42597198486328 20.19359588623047 65.90431976318359 16.45379638671875 62.69205856323242 13.24153518676758 C 59.47979736328125 10.02928161621094 55.73999786376953 7.507637023925781 51.57653427124023 5.746635437011719 C 47.26758575439453 3.924095153808594 42.6886100769043 3 37.966796875 3 M 37.966796875 0 C 58.93528366088867 0 75.93359375 16.99832153320312 75.93359375 37.966796875 C 75.93359375 58.93528366088867 58.93528366088867 75.93359375 37.966796875 75.93359375 C 16.99831008911133 75.93359375 0 58.93528366088867 0 37.966796875 C 0 16.99832153320312 16.99831008911133 0 37.966796875 0 Z" stroke="none" fill="#665b4e"/>
                                </g>
                              </g>
                            </g>
                          </g>
                        </g>
                      </g>
                    </g>
                  </g>
                </g>
              </g>
            </g>
          </g>
        </g>
      </g>
    </g>
    <g id="gobierno_3_" data-name="gobierno (3)" transform="translate(631.96 8469.854)">
      <g id="Grupo_1215783" data-name="Grupo 1215783" transform="translate(1.809 3.426)">
        <g id="Grupo_1215761" data-name="Grupo 1215761" transform="translate(12.941 42.058)">
          <path id="Trazado_1160511" data-name="Trazado 1160511" d="M40.646,58.176v2.677H18V58.176a1.622,1.622,0,0,1,1.351-1.593l3.5-.582a1.622,1.622,0,0,0,1.618,1.618h9.706A1.622,1.622,0,0,0,35.794,56l3.5.582A1.622,1.622,0,0,1,40.646,58.176Z" transform="translate(-18 -56)" fill="#969faa"/>
        </g>
        <g id="Grupo_1215762" data-name="Grupo 1215762" transform="translate(17.794 38.822)">
          <path id="Trazado_1160512" data-name="Trazado 1160512" d="M36.941,52v3.235a1.622,1.622,0,0,1-1.618,1.618H25.618A1.622,1.622,0,0,1,24,55.235V52Z" transform="translate(-24 -52)" fill="#aab2bd"/>
        </g>
        <g id="Grupo_1215763" data-name="Grupo 1215763" transform="translate(31.673 6.47)">
          <path id="Trazado_1160513" data-name="Trazado 1160513" d="M45.94,15.235h-4.1a8.127,8.127,0,0,0-.162-1.618A7.709,7.709,0,0,0,41.16,12h3.915A6.425,6.425,0,0,0,45.94,15.235Z" transform="translate(-41.16 -12)" fill="#ccd1d9"/>
        </g>
        <g id="Grupo_1215764" data-name="Grupo 1215764" transform="translate(0 6.47)">
          <path id="Trazado_1160514" data-name="Trazado 1160514" d="M50.528,12V41.117a3.234,3.234,0,0,1-3.235,3.235H5.235A3.234,3.234,0,0,1,2,41.117V15.235A3.234,3.234,0,0,1,5.235,12h13.62a7.709,7.709,0,0,0-.518,1.618,8.127,8.127,0,0,0-.162,1.618H6.044a.811.811,0,0,0-.809.809V37.073a.811.811,0,0,0,.809.809h40.44a.811.811,0,0,0,.809-.809V17.6A6.468,6.468,0,0,0,50.528,12Z" transform="translate(-2 -12)" fill="#ccd1d9"/>
        </g>
        <g id="Grupo_1215765" data-name="Grupo 1215765" transform="translate(32.352 9.706)">
          <path id="Trazado_1160515" data-name="Trazado 1160515" d="M54.941,18.37V37.838a.811.811,0,0,1-.809.809H50.088V28.941H45.235V20.853H42V16h4.1a6.475,6.475,0,0,0,8.84,2.37Z" transform="translate(-42 -16)" fill="#69d6f4"/>
        </g>
        <g id="Grupo_1215766" data-name="Grupo 1215766" transform="translate(3.235 9.706)">
          <path id="Trazado_1160516" data-name="Trazado 1160516" d="M18.941,16v4.853H15.706v8.088H10.853v9.706H6.809A.811.811,0,0,1,6,37.838V16.809A.811.811,0,0,1,6.809,16Z" transform="translate(-6 -16)" fill="#69d6f4"/>
        </g>
        <g id="Grupo_1215767" data-name="Grupo 1215767" transform="translate(35.587)">
          <path id="Trazado_1160517" data-name="Trazado 1160517" d="M58.941,10.47A6.47,6.47,0,1,1,52.47,4,6.468,6.468,0,0,1,58.941,10.47Z" transform="translate(-46 -4)" fill="#ef7385"/>
        </g>
        <g id="Grupo_1215768" data-name="Grupo 1215768" transform="translate(24.264 1.618)">
          <path id="Trazado_1160518" data-name="Trazado 1160518" d="M39.926,12.47H35.235C35.235,6.809,32,6,32,6a8.081,8.081,0,0,1,7.409,4.853A7.709,7.709,0,0,1,39.926,12.47Z" transform="translate(-32 -6)" fill="#ffeaa7"/>
        </g>
        <g id="Grupo_1215769" data-name="Grupo 1215769" transform="translate(16.338 1.618)">
          <path id="Trazado_1160519" data-name="Trazado 1160519" d="M30.126,6s-3.235.809-3.235,6.47H22.2a7.709,7.709,0,0,1,.518-1.618A8.078,8.078,0,0,1,30.126,6Z" transform="translate(-22.2 -6)" fill="#ffeaa7"/>
        </g>
        <g id="Grupo_1215770" data-name="Grupo 1215770" transform="translate(21.029 1.618)">
          <path id="Trazado_1160520" data-name="Trazado 1160520" d="M31.235,6s3.235.809,3.235,6.47H28C28,6.809,31.235,6,31.235,6Z" transform="translate(-28 -6)" fill="#fcd770"/>
        </g>
        <g id="Grupo_1215771" data-name="Grupo 1215771" transform="translate(16.176 8.088)">
          <path id="Trazado_1160521" data-name="Trazado 1160521" d="M38.014,14H22.162A8.127,8.127,0,0,0,22,15.618V20.47H38.176V15.618A8.127,8.127,0,0,0,38.014,14Z" transform="translate(-22 -14)" fill="#cf9e76"/>
        </g>
        <g id="Grupo_1215772" data-name="Grupo 1215772" transform="translate(12.941 14.558)">
          <path id="Trazado_1160522" data-name="Trazado 1160522" d="M37.411,22h3.235v8.088H35.591l-4.853-4.319a2.143,2.143,0,0,0-2.831,0l-4.853,4.319H18V22H37.411Z" transform="translate(-18 -22)" fill="#dfb28b"/>
        </g>
        <g id="Grupo_1215773" data-name="Grupo 1215773" transform="translate(16.176 17.794)">
          <path id="Trazado_1160523" data-name="Trazado 1160523" d="M36.356,30.853l1.82,1.618H22l1.82-1.618,4.853-4.319a2.143,2.143,0,0,1,2.831,0Z" transform="translate(-22 -26)" fill="#d3a06c"/>
        </g>
        <g id="Grupo_1215774" data-name="Grupo 1215774" transform="translate(30.532 22.646)">
          <path id="Trazado_1160524" data-name="Trazado 1160524" d="M39.75,32l1.82,1.618H39.952v8.088h9.706V32Z" transform="translate(-39.75 -32)" fill="#ecc19c"/>
        </g>
        <g id="Grupo_1215775" data-name="Grupo 1215775" transform="translate(21.029 24.264)">
          <path id="Trazado_1160525" data-name="Trazado 1160525" d="M28,34h6.47v8.088H28Z" transform="translate(-28 -34)" fill="#ecc19c"/>
        </g>
        <g id="Grupo_1215776" data-name="Grupo 1215776" transform="translate(8.088 22.646)">
          <path id="Trazado_1160526" data-name="Trazado 1160526" d="M21.908,32H12v9.706h9.706V33.618H20.088Z" transform="translate(-12 -32)" fill="#ecc19c"/>
        </g>
        <g id="Grupo_1215777" data-name="Grupo 1215777" transform="translate(27.499 24.264)">
          <path id="Trazado_1160527" data-name="Trazado 1160527" d="M36,34h3.235v8.088H36Z" transform="translate(-36 -34)" fill="#cf9e76"/>
        </g>
        <g id="Grupo_1215778" data-name="Grupo 1215778" transform="translate(17.794 24.264)">
          <path id="Trazado_1160528" data-name="Trazado 1160528" d="M24,34h3.235v8.088H24Z" transform="translate(-24 -34)" fill="#cf9e76"/>
        </g>
        <g id="Grupo_1215779" data-name="Grupo 1215779" transform="translate(19.411 11.323)">
          <path id="Trazado_1160529" data-name="Trazado 1160529" d="M26,18h3.235v3.235H26Z" transform="translate(-26 -18)" fill="#e6e9ed"/>
        </g>
        <g id="Grupo_1215780" data-name="Grupo 1215780" transform="translate(25.882 11.323)">
          <path id="Trazado_1160530" data-name="Trazado 1160530" d="M34,18h3.235v3.235H34Z" transform="translate(-34 -18)" fill="#e6e9ed"/>
        </g>
        <g id="Grupo_1215781" data-name="Grupo 1215781" transform="translate(33.97 27.499)">
          <path id="Trazado_1160531" data-name="Trazado 1160531" d="M44,38h3.235v4.853H44Z" transform="translate(-44 -38)" fill="#e6e9ed"/>
        </g>
        <g id="Grupo_1215782" data-name="Grupo 1215782" transform="translate(11.323 27.499)">
          <path id="Trazado_1160532" data-name="Trazado 1160532" d="M16,38h3.235v4.853H16Z" transform="translate(-16 -38)" fill="#e6e9ed"/>
        </g>
      </g>
      <g id="Grupo_1215784" data-name="Grupo 1215784" transform="translate(1 1)">
        <path id="Trazado_1160533" data-name="Trazado 1160533" d="M13,47h1.618v1.618H13Z" transform="translate(-3.294 -9.795)"/>
        <path id="Trazado_1160534" data-name="Trazado 1160534" d="M9,47h1.618v1.618H9Z" transform="translate(-2.53 -9.795)"/>
        <path id="Trazado_1160535" data-name="Trazado 1160535" d="M5,47H6.618v1.618H5Z" transform="translate(-1.765 -9.795)"/>
        <path id="Trazado_1160536" data-name="Trazado 1160536" d="M21,25h1.618v3.235H21Z" transform="translate(-4.824 -5.589)"/>
        <path id="Trazado_1160537" data-name="Trazado 1160537" d="M41,25h1.618v3.235H41Z" transform="translate(-8.648 -5.589)"/>
        <path id="Trazado_1160538" data-name="Trazado 1160538" d="M43.866,2.618a7.287,7.287,0,0,0-7.231,6.47H33.988a8.9,8.9,0,0,0-7.106-4.812V1H25.264V4.276a8.9,8.9,0,0,0-7.106,4.812H5.044A4.049,4.049,0,0,0,1,13.132V39.014a4.049,4.049,0,0,0,4.044,4.044h13.75V44.8l-2.825.471a2.419,2.419,0,0,0-2.028,2.393v3.483H38.2V47.663a2.418,2.418,0,0,0-2.028-2.393L33.352,44.8V43.058H47.1a4.049,4.049,0,0,0,4.044-4.044V9.9A7.288,7.288,0,0,0,43.866,2.618Zm0,1.618A5.662,5.662,0,1,1,38.2,9.9,5.668,5.668,0,0,1,43.866,4.235ZM38.2,34.97H36.587V31.734H38.2ZM34.97,30.117V34.97H33.352V28.5h2.936l-1.82-1.618H41.44V34.97H39.822V30.117ZM15.558,34.97H13.941V31.734h1.618Zm-3.235-4.853V34.97H10.706V26.882h6.972L15.858,28.5h2.936v6.47H17.176V30.117ZM26.076,5.906c.566.256,2.177,1.292,2.4,4.8h-4.8C23.891,7.215,25.5,6.17,26.076,5.906ZM33.3,12.323a7.226,7.226,0,0,1,.048.809v4.044H31.734V13.941H26.882v3.235H25.264V13.941H20.411v3.235H18.794V13.132a7.226,7.226,0,0,1,.048-.809Zm3.283,12.941H32.648l-4.625-4.111a3.008,3.008,0,0,0-3.9,0L19.5,25.264H15.558v-6.47H36.587ZM20.112,26.882l5.086-4.52a1.35,1.35,0,0,1,1.751,0l5.085,4.52Zm3.534-9.706H22.029V15.558h1.618Zm6.47,0H28.5V15.558h1.618Zm-12.941,0H13.941v8.088H9.088V34.97H5.853V13.941H17.176ZM20.411,28.5h1.618v6.47H20.411Zm3.235,0H28.5v6.47H23.646Zm6.47,0h1.618v6.47H30.117ZM38.2,25.264V17.176H34.97V13.941h2.849a7.24,7.24,0,0,0,8.475,2.811V34.97H43.058V25.264Zm-1.57-14.558a7.228,7.228,0,0,0,.377,1.618H34.928a8.753,8.753,0,0,0-.3-1.618Zm-3.708,0h-2.84a8.92,8.92,0,0,0-1.2-4.284A7.311,7.311,0,0,1,32.927,10.706ZM23.255,6.421a8.917,8.917,0,0,0-1.2,4.284h-2.84a7.306,7.306,0,0,1,4.036-4.284ZM36.587,47.663v1.865H15.558V47.663a.806.806,0,0,1,.675-.8l2.745-.458a2.427,2.427,0,0,0,2.241,1.5h9.706a2.427,2.427,0,0,0,2.241-1.5l2.745.458A.807.807,0,0,1,36.587,47.663Zm-4.853-2.179a.81.81,0,0,1-.809.809H21.22a.81.81,0,0,1-.809-.809V43.058H31.734Zm17.794-6.47A2.429,2.429,0,0,1,47.1,41.44H5.044a2.429,2.429,0,0,1-2.426-2.426V13.132a2.429,2.429,0,0,1,2.426-2.426H17.521a8.9,8.9,0,0,0-.3,1.618H5.853a1.619,1.619,0,0,0-1.618,1.618V34.97a1.619,1.619,0,0,0,1.618,1.618h40.44A1.619,1.619,0,0,0,47.91,34.97V15.945a7.328,7.328,0,0,0,1.618-1.483Z" transform="translate(-1 -1)"/>
        <path id="Trazado_1160539" data-name="Trazado 1160539" d="M56.1,9.437,54.955,8.293l-3.472,3.472-1.046-1.046-1.144,1.144,2.189,2.189Z" transform="translate(-10.234 -2.394)"/>
      </g>
    </g>
  </g>
</svg>
