<svg xmlns="http://www.w3.org/2000/svg" xmlns:xlink="http://www.w3.org/1999/xlink" width="113" height="113" viewBox="0 0 113 113">
  <defs>
    <filter id="Trazado_982547" x="0" y="0" width="113" height="113" filterUnits="userSpaceOnUse">
      <feOffset dy="3" input="SourceAlpha"/>
      <feGaussianBlur stdDeviation="3" result="blur"/>
      <feFlood flood-opacity="0.161"/>
      <feComposite operator="in" in2="blur"/>
      <feComposite in="SourceGraphic"/>
    </filter>
  </defs>
  <g id="Grupo_1215713" data-name="Grupo 1215713" transform="translate(-324.999 -1171.1)">
    <g id="Grupo_1211239" data-name="Grupo 1211239" transform="translate(-0.001 -10382)">
      <g id="Grupo_1210099" data-name="Grupo 1210099" transform="translate(0 4024.292)">
        <g id="Grupo_1208705" data-name="Grupo 1208705" transform="translate(-1.454 3213.429)">
          <g id="Grupo_1148633" data-name="Grupo 1148633" transform="translate(71.408 600.047)">
            <g id="Grupo_1148525" data-name="Grupo 1148525" transform="translate(264.046 3721.333)">
              <g transform="matrix(1, 0, 0, 1, -9, -6)" filter="url(#Trazado_982547)">
                <g id="Trazado_982547-2" data-name="Trazado 982547" transform="translate(9 6)" fill="#f9e3d4">
                  <path d="M 47.5 93.5 C 41.28937149047852 93.5 35.26533508300781 92.28397369384766 29.59518623352051 89.88570404052734 C 24.11771965026855 87.56893157958984 19.19813346862793 84.25196075439453 14.97309303283691 80.02691650390625 C 10.74804019927979 75.80186462402344 7.431066513061523 70.88229370117188 5.114293098449707 65.40481567382812 C 2.716026782989502 59.73468017578125 1.5 53.71062850952148 1.5 47.5 C 1.5 41.28937149047852 2.716026782989502 35.26533508300781 5.114293098449707 29.59518623352051 C 7.431066513061523 24.11771965026855 10.74804019927979 19.19813346862793 14.97309303283691 14.97309303283691 C 19.19813346862793 10.74804019927979 24.11771965026855 7.431066513061523 29.59518623352051 5.114293098449707 C 35.26533508300781 2.716026782989502 41.28937149047852 1.5 47.5 1.5 C 53.71062850952148 1.5 59.73468017578125 2.716026782989502 65.40481567382812 5.114293098449707 C 70.88229370117188 7.431066513061523 75.80186462402344 10.74804019927979 80.02691650390625 14.97309303283691 C 84.25196075439453 19.19813346862793 87.56893157958984 24.11771965026855 89.88570404052734 29.59518623352051 C 92.28397369384766 35.26533508300781 93.5 41.28937149047852 93.5 47.5 C 93.5 53.71062850952148 92.28397369384766 59.73468017578125 89.88570404052734 65.40481567382812 C 87.56893157958984 70.88229370117188 84.25196075439453 75.80186462402344 80.02691650390625 80.02691650390625 C 75.80186462402344 84.25196075439453 70.88229370117188 87.56893157958984 65.40481567382812 89.88570404052734 C 59.73468017578125 92.28397369384766 53.71062850952148 93.5 47.5 93.5 Z" stroke="none"/>
                  <path d="M 47.5 3 C 41.49121475219727 3 35.66376876831055 4.176155090332031 30.17950439453125 6.495796203613281 C 24.88084411621094 8.736953735351562 20.12152099609375 11.94598388671875 16.03375244140625 16.03375244140625 C 11.94598388671875 20.12152099609375 8.736953735351562 24.88084411621094 6.495796203613281 30.17950439453125 C 4.176155090332031 35.66376876831055 3 41.49121475219727 3 47.5 C 3 53.50878524780273 4.176155090332031 59.33623123168945 6.495796203613281 64.82049560546875 C 8.736953735351562 70.11915588378906 11.94598388671875 74.87847900390625 16.03375244140625 78.96624755859375 C 20.12152099609375 83.05401611328125 24.88084411621094 86.26304626464844 30.17950439453125 88.50419616699219 C 35.66376876831055 90.82384490966797 41.49121475219727 92 47.5 92 C 53.50878524780273 92 59.33623123168945 90.82384490966797 64.82049560546875 88.50419616699219 C 70.11915588378906 86.26304626464844 74.87847900390625 83.05401611328125 78.96624755859375 78.96624755859375 C 83.05401611328125 74.87847900390625 86.26304626464844 70.11915588378906 88.50419616699219 64.82049560546875 C 90.82384490966797 59.33623123168945 92 53.50878524780273 92 47.5 C 92 41.49121475219727 90.82384490966797 35.66376876831055 88.50419616699219 30.17950439453125 C 86.26304626464844 24.88084411621094 83.05401611328125 20.12152099609375 78.96624755859375 16.03375244140625 C 74.87847900390625 11.94598388671875 70.11915588378906 8.736953735351562 64.82049560546875 6.495796203613281 C 59.33623123168945 4.176155090332031 53.50878524780273 3 47.5 3 M 47.5 0 C 73.7335205078125 0 95 21.2664794921875 95 47.5 C 95 73.7335205078125 73.7335205078125 95 47.5 95 C 21.2664794921875 95 0 73.7335205078125 0 47.5 C 0 21.2664794921875 21.2664794921875 0 47.5 0 Z" stroke="none" fill="#eca675"/>
                </g>
              </g>
            </g>
          </g>
        </g>
      </g>
    </g>
    <g id="gobierno_2_" data-name="gobierno (2)" transform="translate(341.593 1194.288)">
      <g id="Grupo_1215711" data-name="Grupo 1215711" transform="translate(1.127 1.127)">
        <g id="Grupo_1215699" data-name="Grupo 1215699" transform="translate(4.733 28.765)">
          <path id="Trazado_1160331" data-name="Trazado 1160331" d="M104.157,204.548v-3.113a2.191,2.191,0,0,0-2.186-2.186H41.243a2.19,2.19,0,0,0-2.182,2.186v3.113Z" transform="translate(-39.061 -199.249)" fill="#d9c1e1" fill-rule="evenodd"/>
        </g>
        <g id="Grupo_1215700" data-name="Grupo 1215700" transform="translate(64.002 28.765)">
          <path id="Trazado_1160332" data-name="Trazado 1160332" d="M439.957,203.821v-2.386a2.191,2.191,0,0,0-2.186-2.186h-3.64a2.191,2.191,0,0,1,2.186,2.186v2.386h3.64Z" transform="translate(-434.131 -199.249)" fill="#d2b1de" fill-rule="evenodd"/>
        </g>
        <g id="Grupo_1215701" data-name="Grupo 1215701" transform="translate(37.279)">
          <path id="Trazado_1160333" data-name="Trazado 1160333" d="M256,7.512h12.324c.765,0,.97.319.561,1l-1.148,1.914a1.732,1.732,0,0,0,0,1.994l1.148,1.91c.43.71.064,1-.561,1H256Z" transform="translate(-256 -7.512)" fill="#ff6270" fill-rule="evenodd"/>
        </g>
        <g id="Grupo_1215702" data-name="Grupo 1215702" transform="translate(45.058)">
          <path id="Trazado_1160334" data-name="Trazado 1160334" d="M308.762,7.512h3.64c.765,0,.97.319.561,1l-1.148,1.914a1.732,1.732,0,0,0,0,1.994l1.148,1.91c.43.71.064,1-.561,1h-3.64c.625,0,.991-.289.561-1l-1.148-1.91a1.725,1.725,0,0,1,0-1.994l1.148-1.914c.408-.676.2-1-.561-1Z" transform="translate(-307.858 -7.512)" fill="#f64b51" fill-rule="evenodd"/>
        </g>
        <g id="Grupo_1215703" data-name="Grupo 1215703" transform="translate(17.028 13.085)">
          <path id="Trazado_1160335" data-name="Trazado 1160335" d="M141.264,94.735a20.251,20.251,0,0,1,20.251,20.251h-40.5A20.251,20.251,0,0,1,141.264,94.735Z" transform="translate(-121.013 -94.735)" fill="#d9c1e1" fill-rule="evenodd"/>
        </g>
        <g id="Grupo_1215704" data-name="Grupo 1215704" transform="translate(35.459 13.085)">
          <path id="Trazado_1160336" data-name="Trazado 1160336" d="M245.688,94.735a20.251,20.251,0,0,1,20.251,20.251H262.3a20.255,20.255,0,0,0-18.431-20.17C244.467,94.765,245.076,94.735,245.688,94.735Z" transform="translate(-243.868 -94.735)" fill="#d2b1de" fill-rule="evenodd"/>
        </g>
        <g id="Grupo_1215705" data-name="Grupo 1215705" transform="translate(2.182 41.374)">
          <path id="Trazado_1160337" data-name="Trazado 1160337" d="M22.054,283.3H92.248v28.063H22.054Z" transform="translate(-22.054 -283.298)" fill="#e7daec" fill-rule="evenodd"/>
        </g>
        <g id="Grupo_1215706" data-name="Grupo 1215706" transform="translate(68.735 42.275)">
          <path id="Trazado_1160338" data-name="Trazado 1160338" d="M465.681,289.307h3.64v26.256h-3.64Z" transform="translate(-465.681 -289.307)" fill="#d9c1e1" fill-rule="evenodd"/>
        </g>
        <g id="Grupo_1215707" data-name="Grupo 1215707" transform="translate(7.281 48.727)">
          <path id="Trazado_1160339" data-name="Trazado 1160339" d="M65.365,352.846V336.971a4.661,4.661,0,1,0-9.322,0v15.875Zm49.8,0V336.971a4.661,4.661,0,1,0-9.321,0v15.875Zm-16.6,0V336.971a4.659,4.659,0,1,0-9.318,0v15.875Zm-16.6,0V336.971a4.659,4.659,0,1,0-9.317,0v15.875Z" transform="translate(-56.043 -332.31)" fill="#d9c1e1" fill-rule="evenodd"/>
        </g>
        <g id="Grupo_1215708" data-name="Grupo 1215708" transform="translate(0 33.337)">
          <path id="Trazado_1160340" data-name="Trazado 1160340" d="M9.694,270.948H79.888a2.191,2.191,0,0,0,2.186-2.186V267.1a2.193,2.193,0,0,0-2.186-2.186H9.694A2.193,2.193,0,0,0,7.512,267.1v1.658a2.19,2.19,0,0,0,2.182,2.186Zm0-32.286H79.888a2.19,2.19,0,0,0,2.186-2.186V231.9a2.19,2.19,0,0,0-2.186-2.182H9.694A2.189,2.189,0,0,0,7.512,231.9v4.572a2.19,2.19,0,0,0,2.182,2.186Z" transform="translate(-7.512 -229.723)" fill="#f8f6f7" fill-rule="evenodd"/>
        </g>
        <g id="Grupo_1215709" data-name="Grupo 1215709" transform="translate(68.735 33.337)">
          <path id="Trazado_1160341" data-name="Trazado 1160341" d="M465.681,270.948h3.64a2.191,2.191,0,0,0,2.186-2.186V267.1a2.193,2.193,0,0,0-2.186-2.186h-3.64a2.2,2.2,0,0,1,2.186,2.186v1.658A2.193,2.193,0,0,1,465.681,270.948Zm0-32.286h3.64a2.19,2.19,0,0,0,2.186-2.186V231.9a2.19,2.19,0,0,0-2.186-2.182h-3.64a2.192,2.192,0,0,1,2.186,2.182v4.572A2.193,2.193,0,0,1,465.681,238.662Z" transform="translate(-465.681 -229.723)" fill="#e7daec" fill-rule="evenodd"/>
        </g>
        <g id="Grupo_1215710" data-name="Grupo 1215710" transform="translate(10.121 48.727)">
          <path id="Trazado_1160342" data-name="Trazado 1160342" d="M81.459,352.114V336.971A4.676,4.676,0,0,0,76.8,332.31a4.628,4.628,0,0,0-1.82.374,4.674,4.674,0,0,1,2.836,4.287v15.144Zm49.8,0V336.971a4.653,4.653,0,0,0-6.481-4.287,4.671,4.671,0,0,1,2.841,4.287v15.144Zm-16.6,0V336.971a4.653,4.653,0,0,0-6.481-4.287,4.671,4.671,0,0,1,2.841,4.287v15.144Zm-16.6,0V336.971a4.649,4.649,0,0,0-6.477-4.287,4.674,4.674,0,0,1,2.836,4.287v15.144Z" transform="translate(-74.978 -332.31)" fill="#d2b1de" fill-rule="evenodd"/>
        </g>
      </g>
      <g id="Grupo_1215712" data-name="Grupo 1215712" transform="translate(0 0)">
        <path id="Trazado_1160343" data-name="Trazado 1160343" d="M3.309,74.562H73.5A1.06,1.06,0,0,0,74.562,73.5V71.844A1.059,1.059,0,0,0,73.5,70.786H3.309A1.067,1.067,0,0,0,2.25,71.844V73.5a1.068,1.068,0,0,0,1.059,1.059ZM16.6,68.536V54.515a3.536,3.536,0,0,0-7.072,0V68.536Zm2.25-14.021V68.536h5.031V54.515a5.786,5.786,0,0,1,11.571,0V68.536h5.031V54.515a5.786,5.786,0,0,1,11.572,0V68.536h5.031V54.515a5.786,5.786,0,0,1,11.572,0V68.536H72.38V44.529H4.435v9.454a1.125,1.125,0,1,1-2.25,0V44.329A3.329,3.329,0,0,1,0,41.217V36.645a3.325,3.325,0,0,1,3.309-3.309H4.733V32.078a3.318,3.318,0,0,1,3.309-3.313H17.8c.187-.672.4-1.331.655-1.977a21.409,21.409,0,0,1,4.1-6.655,1.12,1.12,0,0,1,1.663,1.5,19.032,19.032,0,0,0-4.9,11.7H57.5A19.119,19.119,0,0,0,27.864,18.5a1.123,1.123,0,0,1-1.242-1.871,21.228,21.228,0,0,1,10.661-3.517V1.127A1.125,1.125,0,0,1,38.406,0H51.895a1.125,1.125,0,0,1,1.123,1.127,1.1,1.1,0,0,1-.191.625L50.853,5.031l2,3.326A1.126,1.126,0,0,1,52.473,9.9a1.11,1.11,0,0,1-.578.161H39.533v3.054a21.407,21.407,0,0,1,19.481,15.65h9.755a3.318,3.318,0,0,1,3.309,3.313v1.259H73.5a3.318,3.318,0,0,1,3.309,3.309v4.572A3.32,3.32,0,0,1,74.63,44.33v24.4a3.362,3.362,0,0,1,1.212.774,3.3,3.3,0,0,1,.97,2.339V73.5A3.31,3.31,0,0,1,73.5,76.812H3.309A3.318,3.318,0,0,1,0,73.5V71.844a3.329,3.329,0,0,1,2.186-3.113V59.078a1.125,1.125,0,0,1,2.25,0v9.458H7.28V54.515a5.786,5.786,0,0,1,11.571,0ZM66.409,68.536V54.515a3.536,3.536,0,0,0-7.072,0V68.536Zm-16.6,0V54.515a3.536,3.536,0,0,0-7.072,0V68.536Zm-16.6,0V54.515a3.536,3.536,0,0,0-7.072,0V68.536ZM49.9,2.25H39.532V7.812H49.9L48.586,5.63a1.129,1.129,0,0,1-.009-1.178Zm9.6,28.769a21.847,21.847,0,0,1,.247,2.318H69.828V32.078a1.06,1.06,0,0,0-1.059-1.059ZM17.062,33.337a20.872,20.872,0,0,1,.247-2.318H8.042a1.051,1.051,0,0,0-.744.311,1.04,1.04,0,0,0-.315.748v1.259ZM3.309,42.275H73.5a1.059,1.059,0,0,0,1.059-1.059V36.645a1.052,1.052,0,0,0-.31-.744,1.065,1.065,0,0,0-.748-.315H3.309a1.055,1.055,0,0,0-.744.315,1.038,1.038,0,0,0-.315.744v4.572a1.04,1.04,0,0,0,.315.748,1.052,1.052,0,0,0,.744.31Z" transform="translate(0 0)"/>
      </g>
    </g>
  </g>
</svg>
