<svg xmlns="http://www.w3.org/2000/svg" xmlns:xlink="http://www.w3.org/1999/xlink" width="113" height="113" viewBox="0 0 113 113">
  <defs>
    <filter id="Trazado_982547" x="0" y="0" width="113" height="113" filterUnits="userSpaceOnUse">
      <feOffset dy="3" input="SourceAlpha"/>
      <feGaussianBlur stdDeviation="3" result="blur"/>
      <feFlood flood-opacity="0.161"/>
      <feComposite operator="in" in2="blur"/>
      <feComposite in="SourceGraphic"/>
    </filter>
  </defs>
  <g id="Grupo_1215811" data-name="Grupo 1215811" transform="translate(-270.999 -9474.914)">
    <g id="Grupo_1210956" data-name="Grupo 1210956" transform="translate(279.999 9480.914)">
      <g id="Grupo_1209935" data-name="Grupo 1209935">
        <g id="Grupo_1208705" data-name="Grupo 1208705">
          <g id="Grupo_1148633" data-name="Grupo 1148633">
            <g id="Grupo_1148525" data-name="Grupo 1148525">
              <g transform="matrix(1, 0, 0, 1, -9, -6)" filter="url(#Trazado_982547)">
                <g id="Trazado_982547-2" data-name="Trazado 982547" transform="translate(9 6)" fill="#f9e3d4">
                  <path d="M 47.5 93.5 C 41.28937149047852 93.5 35.26533508300781 92.28397369384766 29.59518623352051 89.88570404052734 C 24.11771965026855 87.56893157958984 19.19813346862793 84.25196075439453 14.97309303283691 80.02691650390625 C 10.74804019927979 75.80186462402344 7.431066513061523 70.88229370117188 5.114293098449707 65.40481567382812 C 2.716026782989502 59.73468017578125 1.5 53.71062850952148 1.5 47.5 C 1.5 41.28937149047852 2.716026782989502 35.26533508300781 5.114293098449707 29.59518623352051 C 7.431066513061523 24.11771965026855 10.74804019927979 19.19813346862793 14.97309303283691 14.97309303283691 C 19.19813346862793 10.74804019927979 24.11771965026855 7.431066513061523 29.59518623352051 5.114293098449707 C 35.26533508300781 2.716026782989502 41.28937149047852 1.5 47.5 1.5 C 53.71062850952148 1.5 59.73468017578125 2.716026782989502 65.40481567382812 5.114293098449707 C 70.88229370117188 7.431066513061523 75.80186462402344 10.74804019927979 80.02691650390625 14.97309303283691 C 84.25196075439453 19.19813346862793 87.56893157958984 24.11771965026855 89.88570404052734 29.59518623352051 C 92.28397369384766 35.26533508300781 93.5 41.28937149047852 93.5 47.5 C 93.5 53.71062850952148 92.28397369384766 59.73468017578125 89.88570404052734 65.40481567382812 C 87.56893157958984 70.88229370117188 84.25196075439453 75.80186462402344 80.02691650390625 80.02691650390625 C 75.80186462402344 84.25196075439453 70.88229370117188 87.56893157958984 65.40481567382812 89.88570404052734 C 59.73468017578125 92.28397369384766 53.71062850952148 93.5 47.5 93.5 Z" stroke="none"/>
                  <path d="M 47.5 3 C 41.49121475219727 3 35.66376876831055 4.176155090332031 30.17950439453125 6.495796203613281 C 24.88084411621094 8.736953735351562 20.12152099609375 11.94598388671875 16.03375244140625 16.03375244140625 C 11.94598388671875 20.12152099609375 8.736953735351562 24.88084411621094 6.495796203613281 30.17950439453125 C 4.176155090332031 35.66376876831055 3 41.49121475219727 3 47.5 C 3 53.50878524780273 4.176155090332031 59.33623123168945 6.495796203613281 64.82049560546875 C 8.736953735351562 70.11915588378906 11.94598388671875 74.87847900390625 16.03375244140625 78.96624755859375 C 20.12152099609375 83.05401611328125 24.88084411621094 86.26304626464844 30.17950439453125 88.50419616699219 C 35.66376876831055 90.82384490966797 41.49121475219727 92 47.5 92 C 53.50878524780273 92 59.33623123168945 90.82384490966797 64.82049560546875 88.50419616699219 C 70.11915588378906 86.26304626464844 74.87847900390625 83.05401611328125 78.96624755859375 78.96624755859375 C 83.05401611328125 74.87847900390625 86.26304626464844 70.11915588378906 88.50419616699219 64.82049560546875 C 90.82384490966797 59.33623123168945 92 53.50878524780273 92 47.5 C 92 41.49121475219727 90.82384490966797 35.66376876831055 88.50419616699219 30.17950439453125 C 86.26304626464844 24.88084411621094 83.05401611328125 20.12152099609375 78.96624755859375 16.03375244140625 C 74.87847900390625 11.94598388671875 70.11915588378906 8.736953735351562 64.82049560546875 6.495796203613281 C 59.33623123168945 4.176155090332031 53.50878524780273 3 47.5 3 M 47.5 0 C 73.7335205078125 0 95 21.2664794921875 95 47.5 C 95 73.7335205078125 73.7335205078125 95 47.5 95 C 21.2664794921875 95 0 73.7335205078125 0 47.5 C 0 21.2664794921875 21.2664794921875 0 47.5 0 Z" stroke="none" fill="#eca675"/>
                </g>
              </g>
            </g>
          </g>
        </g>
      </g>
    </g>
    <g id="carta-de-derechos" transform="translate(292.102 9482.933)">
      <g id="Grupo_1215810" data-name="Grupo 1215810" transform="translate(4.87 16.39)">
        <path id="Trazado_1161426" data-name="Trazado 1161426" d="M27.26,223.944a8.131,8.131,0,0,1-16.261,0H27.26Z" transform="translate(-10.999 -198.846)" fill="#ffd987" fill-rule="evenodd"/>
        <path id="Trazado_1161427" data-name="Trazado 1161427" d="M386.752,223.944a8.131,8.131,0,1,1-16.261,0Z" transform="translate(-325.699 -198.846)" fill="#ffd987" fill-rule="evenodd"/>
        <path id="Trazado_1161428" data-name="Trazado 1161428" d="M44,51.308a4.59,4.59,0,0,1-4.59-4.59A2.569,2.569,0,1,1,44.211,48H88.589a2.569,2.569,0,1,1,4.8-1.278,4.59,4.59,0,0,1-4.59,4.59Z" transform="translate(-35.874 -41.454)" fill="#c9b0a9" fill-rule="evenodd"/>
        <path id="Trazado_1161429" data-name="Trazado 1161429" d="M170.469,114.525l7.636,5.863,8.092-5.863v-21.9a12.772,12.772,0,0,1,1.559-6.26,12.175,12.175,0,0,0,1.437-5.9V74.071l-10.066.043a2.723,2.723,0,0,0-2.715-2.715h-4c-2.331,0-3.679.509-4.443,1.536-1.063,1.431-1.053,4.33-.82,6.015.6,4.375,3.142,7.671,3.323,10.758v24.816Z" transform="translate(-147.578 -65.308)" fill="#d5877a" fill-rule="evenodd"/>
        <path id="Trazado_1161430" data-name="Trazado 1161430" d="M218.046,22.516a2.786,2.786,0,0,1,2.778,2.778v5.175a2.778,2.778,0,1,1-5.556,0V25.294A2.786,2.786,0,0,1,218.046,22.516Z" transform="translate(-189.816 -22.516)" fill="#d5877a" fill-rule="evenodd"/>
        <path id="Trazado_1161431" data-name="Trazado 1161431" d="M173.451,27.814a2.786,2.786,0,0,1,2.778,2.778v5.175a2.778,2.778,0,1,1-5.556,0V30.592A2.786,2.786,0,0,1,173.451,27.814Z" transform="translate(-150.778 -27.154)" fill="#d5877a" fill-rule="evenodd"/>
        <path id="Trazado_1161432" data-name="Trazado 1161432" d="M262.64,26.976a2.786,2.786,0,0,1,2.778,2.778v5.175a2.778,2.778,0,1,1-5.556,0V29.754A2.786,2.786,0,0,1,262.64,26.976Z" transform="translate(-228.854 -26.42)" fill="#d5877a" fill-rule="evenodd"/>
        <path id="Trazado_1161433" data-name="Trazado 1161433" d="M306.981,40.355a2.532,2.532,0,0,1,2.525,2.525v4.015a2.525,2.525,0,1,1-5.049,0V42.88a2.532,2.532,0,0,1,2.525-2.525Z" transform="translate(-267.892 -38.132)" fill="#d5877a" fill-rule="evenodd"/>
        <path id="Trazado_1161434" data-name="Trazado 1161434" d="M26.444,401.514H47.286a7.775,7.775,0,0,1,7.76,7.76v.1h-28.6Z" transform="translate(-24.52 -354.291)" fill="#eceff1" fill-rule="evenodd"/>
        <path id="Trazado_1161435" data-name="Trazado 1161435" d="M284.6,401.514H263.759a7.775,7.775,0,0,0-7.76,7.76v.1h28.6v-7.858Z" transform="translate(-225.472 -354.291)" fill="#eceff1" fill-rule="evenodd"/>
      </g>
      <rect id="Rectángulo_420194" data-name="Rectángulo 420194" width="61.053" height="3.103" rx="1.551" transform="translate(4.87 71.47)" fill="#c9b0a9"/>
      <path id="Trazado_1161436" data-name="Trazado 1161436" d="M65.052,73.7H5.743V72.343H65.052ZM7.668,64.486h19.97A6.9,6.9,0,0,1,34.48,70.6H7.668Zm35.49,0H63.126V70.6H36.314a6.9,6.9,0,0,1,6.843-6.113Zm22,6.113h-.283V63.613A.872.872,0,0,0,64,62.741H43.157A8.643,8.643,0,0,0,35.4,67.6a8.642,8.642,0,0,0-7.76-4.855H6.8a.872.872,0,0,0-.873.872V70.6H5.64A1.644,1.644,0,0,0,4,72.24V73.8A1.643,1.643,0,0,0,5.64,75.445H65.154A1.644,1.644,0,0,0,66.8,73.8V72.24A1.644,1.644,0,0,0,65.154,70.6ZM20.207,42.361a7.259,7.259,0,0,1-14.412,0ZM13,28.513l5.041,12.1H7.962L13,28.513Zm0,21.978a9.013,9.013,0,0,0,9-9,.872.872,0,0,0-.872-.872h-1.2l-5.621-13.5h7.8a.872.872,0,1,0,0-1.745H13a3.721,3.721,0,0,1-3.716-3.718,1.7,1.7,0,1,1,3.169.844.872.872,0,0,0,.756,1.307h9.221a.872.872,0,0,0,0-1.745H14.4a3.383,3.383,0,0,0,.025-.406,3.441,3.441,0,0,0-6.882,0,5.47,5.47,0,0,0,4.214,5.317L6.072,40.616H4.87A.872.872,0,0,0,4,41.488a9.013,9.013,0,0,0,9,9ZM25.637,19.828a1.906,1.906,0,0,1,3.812,0v1.784a7.352,7.352,0,0,0-3.812.891V19.828Zm5.557,0v-.66a1.906,1.906,0,1,1,3.811,0v2.687a3.552,3.552,0,0,0-1.3-.246H31.194V19.828Zm5.556-.1a1.907,1.907,0,0,1,3.813,0V24.9a1.9,1.9,0,0,1-3.391,1.19,3.393,3.393,0,0,0,.118-.893,3.559,3.559,0,0,0-.541-1.889V19.724ZM42.307,24.9V21.138a1.652,1.652,0,0,1,3.3,0v4.015a1.652,1.652,0,0,1-3.3,0V24.9ZM25.506,36.36a24.723,24.723,0,0,1-1.933-6.208,13.471,13.471,0,0,1,.319-5.334v-4.99a3.648,3.648,0,0,1,6.152-2.654,3.646,3.646,0,0,1,6.067-.064,3.647,3.647,0,0,1,5.922,1.231,3.393,3.393,0,0,1,5.321,2.8V31.546a13.124,13.124,0,0,1-1.539,6.308,11.876,11.876,0,0,0-1.456,5.851V60.225a.872.872,0,0,1-1.745,0V43.705a13.711,13.711,0,0,1,1.661-6.669,11.262,11.262,0,0,0,1.334-5.49V28.119a3.39,3.39,0,0,1-4.247-.776,3.64,3.64,0,0,1-5.111.3,4.226,4.226,0,0,1-2.44,1.133L32.7,28.92a12.269,12.269,0,0,1,4.116,9.4.872.872,0,0,1-1.745,0,10.633,10.633,0,0,0-5.042-9.272.872.872,0,0,1,.374-1.59l3.191-.411a2.034,2.034,0,0,0,1.955-1.85A1.845,1.845,0,0,0,33.7,23.354h-4c-2.566,0-3.365.676-3.743,1.184-.775,1.043-.916,3.494-.655,5.376a22.952,22.952,0,0,0,1.814,5.775,16.088,16.088,0,0,1,1.515,5.052c0,.017,0,.034,0,.051V60.225a.872.872,0,0,1-1.745,0V40.818a14.859,14.859,0,0,0-1.383-4.457Zm37.326,4.256H52.754l5.04-12.1ZM65,42.361a7.259,7.259,0,0,1-14.413,0H65ZM57.794,25.372h-9.27a.872.872,0,1,0,0,1.745h7.962l-5.621,13.5h-1.2a.873.873,0,0,0-.873.872,9,9,0,1,0,18.006,0,.872.872,0,0,0-.873-.872h-1.2L59.041,26.971a5.47,5.47,0,0,0,4.214-5.317,3.441,3.441,0,1,0-6.881,0,3.356,3.356,0,0,0,.025.406H48.773a.872.872,0,0,0,0,1.745h8.812a.872.872,0,0,0,.756-1.307,1.7,1.7,0,1,1,3.169-.844,3.721,3.721,0,0,1-3.717,3.718Z" transform="translate(0)" fill-rule="evenodd"/>
    </g>
  </g>
</svg>
