<svg xmlns="http://www.w3.org/2000/svg" xmlns:xlink="http://www.w3.org/1999/xlink" width="113" height="113" viewBox="0 0 113 113">
  <defs>
    <filter id="Trazado_982547" x="0" y="0" width="113" height="113" filterUnits="userSpaceOnUse">
      <feOffset dy="3" input="SourceAlpha"/>
      <feGaussianBlur stdDeviation="3" result="blur"/>
      <feFlood flood-opacity="0.161"/>
      <feComposite operator="in" in2="blur"/>
      <feComposite in="SourceGraphic"/>
    </filter>
  </defs>
  <g id="Grupo_1215717" data-name="Grupo 1215717" transform="translate(-742.045 -1171.1)">
    <g id="Grupo_1211241" data-name="Grupo 1211241" transform="translate(-0.001 -10382)">
      <g id="Grupo_1210100" data-name="Grupo 1210100" transform="translate(0 4024.292)">
        <g id="Grupo_1208706" data-name="Grupo 1208706" transform="translate(-1.454 3213.429)">
          <g id="Grupo_1148634" data-name="Grupo 1148634" transform="translate(488.454 600.047)">
            <g id="Grupo_1148525" data-name="Grupo 1148525" transform="translate(264.046 3721.333)">
              <g transform="matrix(1, 0, 0, 1, -9, -6)" filter="url(#Trazado_982547)">
                <g id="Trazado_982547-2" data-name="Trazado 982547" transform="translate(9 6)" fill="#f9e3d4">
                  <path d="M 47.5 93.5 C 41.28937149047852 93.5 35.26533508300781 92.28397369384766 29.59518623352051 89.88570404052734 C 24.11771965026855 87.56893157958984 19.19813346862793 84.25196075439453 14.97309303283691 80.02691650390625 C 10.74804019927979 75.80186462402344 7.431066513061523 70.88229370117188 5.114293098449707 65.40481567382812 C 2.716026782989502 59.73468017578125 1.5 53.71062850952148 1.5 47.5 C 1.5 41.28937149047852 2.716026782989502 35.26533508300781 5.114293098449707 29.59518623352051 C 7.431066513061523 24.11771965026855 10.74804019927979 19.19813346862793 14.97309303283691 14.97309303283691 C 19.19813346862793 10.74804019927979 24.11771965026855 7.431066513061523 29.59518623352051 5.114293098449707 C 35.26533508300781 2.716026782989502 41.28937149047852 1.5 47.5 1.5 C 53.71062850952148 1.5 59.73468017578125 2.716026782989502 65.40481567382812 5.114293098449707 C 70.88229370117188 7.431066513061523 75.80186462402344 10.74804019927979 80.02691650390625 14.97309303283691 C 84.25196075439453 19.19813346862793 87.56893157958984 24.11771965026855 89.88570404052734 29.59518623352051 C 92.28397369384766 35.26533508300781 93.5 41.28937149047852 93.5 47.5 C 93.5 53.71062850952148 92.28397369384766 59.73468017578125 89.88570404052734 65.40481567382812 C 87.56893157958984 70.88229370117188 84.25196075439453 75.80186462402344 80.02691650390625 80.02691650390625 C 75.80186462402344 84.25196075439453 70.88229370117188 87.56893157958984 65.40481567382812 89.88570404052734 C 59.73468017578125 92.28397369384766 53.71062850952148 93.5 47.5 93.5 Z" stroke="none"/>
                  <path d="M 47.5 3 C 41.49121475219727 3 35.66376876831055 4.176155090332031 30.17950439453125 6.495796203613281 C 24.88084411621094 8.736953735351562 20.12152099609375 11.94598388671875 16.03375244140625 16.03375244140625 C 11.94598388671875 20.12152099609375 8.736953735351562 24.88084411621094 6.495796203613281 30.17950439453125 C 4.176155090332031 35.66376876831055 3 41.49121475219727 3 47.5 C 3 53.50878524780273 4.176155090332031 59.33623123168945 6.495796203613281 64.82049560546875 C 8.736953735351562 70.11915588378906 11.94598388671875 74.87847900390625 16.03375244140625 78.96624755859375 C 20.12152099609375 83.05401611328125 24.88084411621094 86.26304626464844 30.17950439453125 88.50419616699219 C 35.66376876831055 90.82384490966797 41.49121475219727 92 47.5 92 C 53.50878524780273 92 59.33623123168945 90.82384490966797 64.82049560546875 88.50419616699219 C 70.11915588378906 86.26304626464844 74.87847900390625 83.05401611328125 78.96624755859375 78.96624755859375 C 83.05401611328125 74.87847900390625 86.26304626464844 70.11915588378906 88.50419616699219 64.82049560546875 C 90.82384490966797 59.33623123168945 92 53.50878524780273 92 47.5 C 92 41.49121475219727 90.82384490966797 35.66376876831055 88.50419616699219 30.17950439453125 C 86.26304626464844 24.88084411621094 83.05401611328125 20.12152099609375 78.96624755859375 16.03375244140625 C 74.87847900390625 11.94598388671875 70.11915588378906 8.736953735351562 64.82049560546875 6.495796203613281 C 59.33623123168945 4.176155090332031 53.50878524780273 3 47.5 3 M 47.5 0 C 73.7335205078125 0 95 21.2664794921875 95 47.5 C 95 73.7335205078125 73.7335205078125 95 47.5 95 C 21.2664794921875 95 0 73.7335205078125 0 47.5 C 0 21.2664794921875 21.2664794921875 0 47.5 0 Z" stroke="none" fill="#eca675"/>
                </g>
              </g>
            </g>
          </g>
        </g>
      </g>
    </g>
    <g id="alcalde" transform="translate(762.553 1199.207)">
      <g id="Grupo_1215714" data-name="Grupo 1215714" transform="translate(17.507 1.053)">
        <path id="Trazado_1160344" data-name="Trazado 1160344" d="M160.423,193.869H125.814a1.135,1.135,0,0,1-1.135-1.135v-2.27a1.135,1.135,0,0,1,1.135-1.135h34.609a1.135,1.135,0,0,1,1.135,1.135v2.27A1.135,1.135,0,0,1,160.423,193.869Z" transform="translate(-124.679 -163.798)" fill="#c7865b"/>
        <path id="Trazado_1160345" data-name="Trazado 1160345" d="M158.92,256.832h-4.539l-1.418-35.177h5.957Z" transform="translate(-148.992 -191.585)" fill="#b36d3c"/>
        <path id="Trazado_1160346" data-name="Trazado 1160346" d="M153.146,226.194h5.774v-4.539h-5.957Z" transform="translate(-148.992 -191.585)" fill="#995e34"/>
        <path id="Trazado_1160347" data-name="Trazado 1160347" d="M316.61,256.832h4.539l1.419-35.177H316.61Z" transform="translate(-289.66 -191.585)" fill="#b36d3c"/>
        <path id="Trazado_1160348" data-name="Trazado 1160348" d="M322.384,226.194H316.61v-4.539h5.957Z" transform="translate(-289.66 -191.585)" fill="#995e34"/>
        <path id="Trazado_1160349" data-name="Trazado 1160349" d="M195.39,221.655h17.021v35.177H195.39Z" transform="translate(-185.461 -191.585)" fill="#c7865b"/>
        <path id="Trazado_1160350" data-name="Trazado 1160350" d="M195.39,221.655h17.021v4.539H195.39Z" transform="translate(-185.461 -191.585)" fill="#b36d3c"/>
        <path id="Trazado_1160351" data-name="Trazado 1160351" d="M351.454,189.329h-4.539a1.135,1.135,0,0,1,1.135,1.135v2.27a1.135,1.135,0,0,1-1.135,1.135h4.539a1.135,1.135,0,0,0,1.135-1.135v-2.27A1.135,1.135,0,0,0,351.454,189.329Z" transform="translate(-315.71 -163.798)" fill="#b36d3c"/>
        <path id="Trazado_1160352" data-name="Trazado 1160352" d="M174.952,476.714H146.017a1.135,1.135,0,0,1-1.135-1.135v-2.27a1.135,1.135,0,0,1,1.135-1.135h28.936a1.135,1.135,0,0,1,1.135,1.135v2.27A1.134,1.134,0,0,1,174.952,476.714Z" transform="translate(-142.045 -406.928)" fill="#c7865b"/>
        <path id="Trazado_1160353" data-name="Trazado 1160353" d="M331.251,472.175h-4.539a1.135,1.135,0,0,1,1.135,1.135v2.27a1.135,1.135,0,0,1-1.135,1.135h4.539a1.135,1.135,0,0,0,1.135-1.135v-2.27A1.135,1.135,0,0,0,331.251,472.175Z" transform="translate(-298.344 -406.928)" fill="#b36d3c"/>
        <path id="Trazado_1160354" data-name="Trazado 1160354" d="M175.476,117.968v4.377H198.09v-4.377a6.565,6.565,0,0,0-6.565-6.565h-9.483A6.565,6.565,0,0,0,175.476,117.968Z" transform="translate(-168.343 -96.814)" fill="#0573ce"/>
        <path id="Trazado_1160355" data-name="Trazado 1160355" d="M265.455,111.4h-3.972a6.565,6.565,0,0,1,6.565,6.565v4.377h3.972v-4.377A6.565,6.565,0,0,0,265.455,111.4Z" transform="translate(-242.274 -96.814)" fill="#0067c5"/>
        <path id="Trazado_1160356" data-name="Trazado 1160356" d="M261.01,115.131a1.933,1.933,0,0,1-3.364-.236L256,111.4h4.742a6.546,6.546,0,0,1,2.413.46Z" transform="translate(-237.561 -96.814)" fill="#dff6fd"/>
        <path id="Trazado_1160357" data-name="Trazado 1160357" d="M207.19,115.131a1.933,1.933,0,0,0,3.364-.236L212.2,111.4h-4.742a6.546,6.546,0,0,0-2.413.46Z" transform="translate(-193.76 -96.814)" fill="#dff6fd"/>
        <circle id="Elipse_14315" data-name="Elipse 14315" cx="7.295" cy="7.295" r="7.295" transform="translate(11.145)" fill="#fed2a4"/>
        <path id="Trazado_1160358" data-name="Trazado 1160358" d="M220.014,13.6a7.3,7.3,0,0,1-9.868,9.868,7.295,7.295,0,1,0,9.868-9.868Z" transform="translate(-198.145 -12.741)" fill="#ffbd86"/>
        <circle id="Elipse_14316" data-name="Elipse 14316" cx="4.539" cy="4.539" r="4.539" transform="translate(13.9 39.454)" fill="#ffe177"/>
      </g>
      <circle id="Elipse_14317" data-name="Elipse 14317" cx="2.27" cy="2.27" r="2.27" transform="translate(10.694 1.053)" fill="#ffe177"/>
      <path id="Trazado_1160359" data-name="Trazado 1160359" d="M19.411,39.825,7.5,70.179l7.8,9.592,4.107-7.323Z" transform="translate(-6.447 -34.233)" fill="#fe76a8"/>
      <g id="Grupo_1215715" data-name="Grupo 1215715" transform="translate(1.053 22.697)">
        <path id="Trazado_1160360" data-name="Trazado 1160360" d="M15.7,165.778a48.949,48.949,0,0,1-6.878,5.76L7.5,174.895l7.8,9.592,4.107-7.323V161.646A51.6,51.6,0,0,1,15.7,165.778Z" transform="translate(-7.5 -161.646)" fill="#fe5694"/>
      </g>
      <circle id="Elipse_14318" data-name="Elipse 14318" cx="2.27" cy="2.27" r="2.27" transform="translate(56.659 1.053)" fill="#ffe177"/>
      <path id="Trazado_1160361" data-name="Trazado 1160361" d="M419.673,39.825l11.911,30.354-7.8,9.592-4.107-7.323Z" transform="translate(-360.745 -34.233)" fill="#fe76a8"/>
      <path id="Trazado_1160362" data-name="Trazado 1160362" d="M426,154.648a50.706,50.706,0,0,1-4.484,5.114q-.914.914-1.842,1.756v9.63l4.107,7.323,7.8-9.592Z" transform="translate(-360.746 -132.933)" fill="#fe5694"/>
      <g id="Grupo_1215716" data-name="Grupo 1215716" transform="translate(0 0)">
        <path id="Trazado_1160363" data-name="Trazado 1160363" d="M154.427,25.578V18.541a4.687,4.687,0,0,0-1.851-3.72l-2.453-1.854c0-.024,0-.047,0-.071a1.846,1.846,0,1,0-1.272,1.753l2.451,1.853a2.57,2.57,0,0,1,1.015,2.039v6.991h-3.288V22.208a7.629,7.629,0,0,0-4.781-7.068c-.025-.011-.051-.021-.077-.03a7.55,7.55,0,0,0-2.01-.482,8.344,8.344,0,1,0-11.3-12.277,1.053,1.053,0,1,0,1.465,1.513A6.247,6.247,0,1,1,130.477,7.6a1.053,1.053,0,0,0-2.091-.255,8.324,8.324,0,0,0,2.795,7.284,7.554,7.554,0,0,0-2.011.483c-.026.009-.051.019-.076.03a7.629,7.629,0,0,0-4.781,7.068v3.324h-3.288V18.541a2.57,2.57,0,0,1,1.015-2.04l2.451-1.853a1.844,1.844,0,1,0-1.272-1.753c0,.024,0,.047,0,.071l-2.453,1.854a4.688,4.688,0,0,0-1.851,3.72v7.038a2.191,2.191,0,0,0-1.738,2.141v2.269a2.19,2.19,0,0,0,2.188,2.188h1.825l1.334,33.07h-.322a2.191,2.191,0,0,0-2.188,2.189V69.7a2.19,2.19,0,0,0,2.188,2.188h2.631a1.053,1.053,0,1,0,0-2.106h-2.631a.082.082,0,0,1-.081-.081V67.436a.082.082,0,0,1,.081-.083h28.937a.082.082,0,0,1,.081.083V69.7a.081.081,0,0,1-.081.081H129.751a1.053,1.053,0,1,0,0,2.106h21.391a2.19,2.19,0,0,0,2.188-2.188V67.436a2.191,2.191,0,0,0-2.188-2.189h-.322l1.334-33.07h1.825a2.19,2.19,0,0,0,2.188-2.188V27.719a2.191,2.191,0,0,0-1.738-2.141Zm-7.5-3.371v3.324h-2.433v-1.5a1.053,1.053,0,0,0-2.106,0v1.5h-4.662V20.165a2.945,2.945,0,0,0,2.132,1.124q.11.008.219.008a2.946,2.946,0,0,0,2.486-1.348l1.637-2.494a5.514,5.514,0,0,1,2.726,4.753ZM138.334,16.7h3.081a5.54,5.54,0,0,1,.732.05L140.8,18.793a.879.879,0,0,1-1.531-.108Zm-3.322,0-.938,1.99a.879.879,0,0,1-1.531.108L131.2,16.746a5.54,5.54,0,0,1,.732-.05Zm-8.593,5.512a5.514,5.514,0,0,1,2.726-4.753l1.637,2.494A2.946,2.946,0,0,0,133.27,21.3c.072,0,.146,0,.219-.008a2.945,2.945,0,0,0,2.132-1.124v5.367h-4.662v-1.5a1.053,1.053,0,1,0-2.106,0v1.5H126.42V22.208ZM123.3,32.176h3.808v33.07h-2.474Zm25.409,33.07h-2.474V32.176h3.808Zm5.348-35.258a.081.081,0,0,1-.081.081h-12.39a1.053,1.053,0,1,0,0,2.106h2.543v33.07H129.216V32.176h7.457a1.053,1.053,0,0,0,0-2.106h-17.3a.081.081,0,0,1-.081-.081V27.719a.082.082,0,0,1,.081-.081h34.609a.082.082,0,0,1,.081.081Z" transform="translate(-100.727 0)"/>
        <path id="Trazado_1160364" data-name="Trazado 1160364" d="M216.175,286.573a5.592,5.592,0,1,0,5.592-5.592A5.6,5.6,0,0,0,216.175,286.573Zm9.078,0a3.486,3.486,0,1,1-3.486-3.486A3.49,3.49,0,0,1,225.253,286.573Z" transform="translate(-185.821 -241.527)"/>
        <path id="Trazado_1160365" data-name="Trazado 1160365" d="M14.017,6.473a3.322,3.322,0,1,0-2.473-.147L.073,35.561a1.053,1.053,0,0,0,.163,1.049L8.04,46.2a1.053,1.053,0,0,0,.817.389q.045,0,.09,0a1.053,1.053,0,0,0,.828-.534l2.136-3.808v27.54H10.694a1.053,1.053,0,0,0,0,2.106h4.539a1.053,1.053,0,0,0,0-2.106H14.017V6.473ZM12.964,2.106a1.216,1.216,0,1,1-1.216,1.216,1.218,1.218,0,0,1,1.216-1.216ZM8.7,43.672,2.258,35.759l9.653-24.6V37.94Z" transform="translate(0 0)"/>
        <path id="Trazado_1160366" data-name="Trazado 1160366" d="M412.224,35.561,400.752,6.326a3.323,3.323,0,1,0-2.473.147V69.786h-1.216a1.053,1.053,0,1,0,0,2.106H401.6a1.053,1.053,0,0,0,0-2.106h-1.216V42.246l2.136,3.808a1.053,1.053,0,0,0,.828.534q.045,0,.09,0a1.053,1.053,0,0,0,.817-.389l7.8-9.592a1.053,1.053,0,0,0,.164-1.049ZM399.333,2.106a1.216,1.216,0,1,1-1.216,1.216A1.218,1.218,0,0,1,399.333,2.106ZM403.6,43.672l-3.215-5.732V11.159l9.653,24.6Z" transform="translate(-340.404 0)"/>
      </g>
    </g>
  </g>
</svg>
