<svg xmlns="http://www.w3.org/2000/svg" xmlns:xlink="http://www.w3.org/1999/xlink" width="100.256" height="100.256" viewBox="0 0 100.256 100.256">
  <defs>
    <filter id="Trazado_978624" x="0" y="0" width="100.256" height="100.256" filterUnits="userSpaceOnUse">
      <feOffset dy="3" input="SourceAlpha"/>
      <feGaussianBlur stdDeviation="3" result="blur"/>
      <feFlood flood-opacity="0.161"/>
      <feComposite operator="in" in2="blur"/>
      <feComposite in="SourceGraphic"/>
    </filter>
  </defs>
  <g id="Grupo_1215635" data-name="Grupo 1215635" transform="translate(-159.964 -1690.842)">
    <g id="Grupo_1210476" data-name="Grupo 1210476" transform="translate(168.964 1696.842)">
      <g id="Grupo_1210475" data-name="Grupo 1210475" transform="translate(0)">
        <g id="Grupo_1209741" data-name="Grupo 1209741" transform="translate(0 0)">
          <g id="Grupo_1178144" data-name="Grupo 1178144">
            <g id="Grupo_1177896" data-name="Grupo 1177896">
              <g id="Grupo_1176881" data-name="Grupo 1176881">
                <g id="Grupo_1175148" data-name="Grupo 1175148">
                  <g id="Grupo_1173798" data-name="Grupo 1173798">
                    <g id="Grupo_1171925" data-name="Grupo 1171925">
                      <g id="Grupo_1164524" data-name="Grupo 1164524">
                        <g id="Grupo_1144123" data-name="Grupo 1144123">
                          <g transform="matrix(1, 0, 0, 1, -9, -6)" filter="url(#Trazado_978624)">
                            <g id="Trazado_978624-2" data-name="Trazado 978624" transform="translate(9 6)" fill="#cfd7c8">
                              <path d="M 41.12802124023438 80.75604248046875 C 35.77761077880859 80.75604248046875 30.58804512023926 79.70848846435547 25.70346832275391 77.64249420166016 C 20.98477363586426 75.64665985107422 16.74663352966309 72.78911590576172 13.10677433013916 69.14926910400391 C 9.466927528381348 65.50942230224609 6.609385967254639 61.27127838134766 4.613550662994385 56.55257415771484 C 2.547550678253174 51.66801071166992 1.499997735023499 46.47843170166016 1.499997735023499 41.12802124023438 C 1.499997735023499 35.77761077880859 2.547550678253174 30.58804512023926 4.613550662994385 25.70346832275391 C 6.609385967254639 20.98477363586426 9.466927528381348 16.74663352966309 13.10677433013916 13.10677433013916 C 16.74663352966309 9.466927528381348 20.98477363586426 6.609385967254639 25.70346832275391 4.613550662994385 C 30.58804512023926 2.547550678253174 35.77761077880859 1.499997735023499 41.12802124023438 1.499997735023499 C 46.47843170166016 1.499997735023499 51.66801071166992 2.547550678253174 56.55257415771484 4.613550662994385 C 61.27127838134766 6.609385967254639 65.50942230224609 9.466927528381348 69.14926910400391 13.10677433013916 C 72.78911590576172 16.74663352966309 75.64665985107422 20.98477363586426 77.64249420166016 25.70346832275391 C 79.70848846435547 30.58804512023926 80.75604248046875 35.77761077880859 80.75604248046875 41.12802124023438 C 80.75604248046875 46.47843170166016 79.70848846435547 51.66801071166992 77.64249420166016 56.55257415771484 C 75.64665985107422 61.27127838134766 72.78911590576172 65.50942230224609 69.14926910400391 69.14926910400391 C 65.50942230224609 72.78911590576172 61.27127838134766 75.64665985107422 56.55257415771484 77.64249420166016 C 51.66801071166992 79.70848846435547 46.47843170166016 80.75604248046875 41.12802124023438 80.75604248046875 Z" stroke="none"/>
                              <path d="M 41.12802124023438 2.999992370605469 C 35.97944641113281 2.999992370605469 30.98647308349609 4.007675170898438 26.28779602050781 5.995048522949219 C 21.74790191650391 7.915275573730469 17.67002105712891 10.66486358642578 14.16743469238281 14.16743469238281 C 10.66486358642578 17.67002105712891 7.915275573730469 21.74790191650391 5.995048522949219 26.28779602050781 C 4.007675170898438 30.98647308349609 2.999992370605469 35.97944641113281 2.999992370605469 41.12802124023438 C 2.999992370605469 46.27659606933594 4.007675170898438 51.26956939697266 5.995048522949219 55.96824645996094 C 7.915275573730469 60.50814056396484 10.66486358642578 64.58602142333984 14.16743469238281 68.08860778808594 C 17.67002105712891 71.59117889404297 21.74790191650391 74.34076690673828 26.28779602050781 76.26097869873047 C 30.98647308349609 78.24835205078125 35.97944641113281 79.25603485107422 41.12802124023438 79.25603485107422 C 46.27659606933594 79.25603485107422 51.26956939697266 78.24835205078125 55.96824645996094 76.26097869873047 C 60.50815582275391 74.34076690673828 64.58602142333984 71.59117889404297 68.08860778808594 68.08860778808594 C 71.59117889404297 64.58602142333984 74.34076690673828 60.50815582275391 76.26097869873047 55.96824645996094 C 78.24835205078125 51.26956939697266 79.25603485107422 46.27659606933594 79.25603485107422 41.12802124023438 C 79.25603485107422 35.97944641113281 78.24835205078125 30.98647308349609 76.26097869873047 26.28779602050781 C 74.34076690673828 21.74790191650391 71.59117889404297 17.67002105712891 68.08860778808594 14.16743469238281 C 64.58602142333984 10.66486358642578 60.50814056396484 7.915275573730469 55.96824645996094 5.995048522949219 C 51.26956939697266 4.007675170898438 46.27659606933594 2.999992370605469 41.12802124023438 2.999992370605469 M 41.12802124023438 -7.62939453125e-06 C 63.8424072265625 -7.62939453125e-06 82.25603485107422 18.41364669799805 82.25603485107422 41.12802124023438 C 82.25603485107422 63.8424072265625 63.8424072265625 82.25603485107422 41.12802124023438 82.25603485107422 C 18.41364669799805 82.25603485107422 -7.62939453125e-06 63.8424072265625 -7.62939453125e-06 41.12802124023438 C -7.62939453125e-06 18.41364669799805 18.41364669799805 -7.62939453125e-06 41.12802124023438 -7.62939453125e-06 Z" stroke="none" fill="#899e78"/>
                            </g>
                          </g>
                        </g>
                      </g>
                    </g>
                  </g>
                </g>
              </g>
            </g>
          </g>
        </g>
      </g>
    </g>
    <g id="obediente_4_" data-name="obediente (4)" transform="translate(182.949 1710.498)">
      <g id="Grupo_1215611" data-name="Grupo 1215611" transform="translate(10.692 0.792)">
        <path id="Trazado_1159924" data-name="Trazado 1159924" d="M150.474,7.5H116.843a.528.528,0,0,0-.528.528v14.64h3.463a2.588,2.588,0,0,1,.181,5.17v3.211h0a1.055,1.055,0,0,1,.9,1.043v6.555a1.055,1.055,0,0,1-.9,1.043h0V42.9a2.588,2.588,0,0,1-.181,5.17h-3.463V52.4H123.6a1.056,1.056,0,0,1,1.056,1.056v2.1h.8a1.056,1.056,0,0,1,1.056,1.056v3.368H151V8.028A.528.528,0,0,0,150.474,7.5Z" transform="translate(-116.315 -7.5)" fill="#fff3de"/>
      </g>
      <g id="Grupo_1215612" data-name="Grupo 1215612" transform="translate(10.692 0.792)">
        <path id="Trazado_1159925" data-name="Trazado 1159925" d="M119.778,22.668l.094,0V8.028A.528.528,0,0,1,120.4,7.5h-3.557a.528.528,0,0,0-.528.528v14.64Z" transform="translate(-116.315 -7.5)" fill="#ffe5c2"/>
        <path id="Trazado_1159926" data-name="Trazado 1159926" d="M119.778,391.629h-3.463v4.334h3.557v-4.336Z" transform="translate(-116.315 -351.06)" fill="#ffe5c2"/>
      </g>
      <g id="Grupo_1215630" data-name="Grupo 1215630" transform="translate(0.792 15.96)">
        <g id="Grupo_1215613" data-name="Grupo 1215613" transform="translate(14.439 10.895)">
          <path id="Trazado_1159927" data-name="Trazado 1159927" d="M159.3,254.29h4.889V257.9H159.3Z" transform="translate(-159.296 -254.29)" fill="#883f2e"/>
          <path id="Trazado_1159928" data-name="Trazado 1159928" d="M237.5,254.29h6.982V257.9H237.5Z" transform="translate(-229.243 -254.29)" fill="#883f2e"/>
        </g>
        <g id="Grupo_1215614" data-name="Grupo 1215614" transform="translate(14.439 12.765)">
          <path id="Trazado_1159929" data-name="Trazado 1159929" d="M159.3,272h4.889v1.741H159.3Z" transform="translate(-159.296 -272)" fill="#6d3326"/>
          <path id="Trazado_1159930" data-name="Trazado 1159930" d="M237.5,272h6.982v1.741H237.5Z" transform="translate(-229.243 -272)" fill="#6d3326"/>
        </g>
        <g id="Grupo_1215615" data-name="Grupo 1215615" transform="translate(29.68 10.052)">
          <path id="Trazado_1159931" data-name="Trazado 1159931" d="M323.239,248.959a2.648,2.648,0,0,1-2.648,2.648H304.218a.6.6,0,0,1-.6-.6v-4.093a.6.6,0,0,1,.6-.6H320.59A2.649,2.649,0,0,1,323.239,248.959Z" transform="translate(-303.616 -246.31)" fill="#ca6e59"/>
        </g>
        <g id="Grupo_1215616" data-name="Grupo 1215616" transform="translate(29.68 10.052)">
          <path id="Trazado_1159932" data-name="Trazado 1159932" d="M307.215,249.34a.6.6,0,0,1-.6-.6V246.31h-2.4a.6.6,0,0,0-.6.6v4.093a.6.6,0,0,0,.6.6H320.59a2.649,2.649,0,0,0,2.621-2.267Z" transform="translate(-303.616 -246.31)" fill="#bb5d4c"/>
        </g>
        <g id="Grupo_1215617" data-name="Grupo 1215617" transform="translate(19.327 10.052)">
          <path id="Trazado_1159933" data-name="Trazado 1159933" d="M208.956,246.839v4.241a.528.528,0,0,1-.528.528h-2.315a.528.528,0,0,1-.528-.528v-4.241a.528.528,0,0,1,.528-.528h2.315A.528.528,0,0,1,208.956,246.839Z" transform="translate(-205.585 -246.311)" fill="#ca6e59"/>
        </g>
        <g id="Grupo_1215618" data-name="Grupo 1215618" transform="translate(19.327 10.052)">
          <path id="Trazado_1159934" data-name="Trazado 1159934" d="M207.116,251.08v-4.241a.528.528,0,0,1,.528-.528h-1.531a.528.528,0,0,0-.528.528v4.241a.528.528,0,0,0,.528.528h1.531A.528.528,0,0,1,207.116,251.08Z" transform="translate(-205.585 -246.311)" fill="#bb5d4c"/>
        </g>
        <g id="Grupo_1215619" data-name="Grupo 1215619" transform="translate(6.561 5.17)">
          <path id="Trazado_1159935" data-name="Trazado 1159935" d="M91.525,312.311H84.864a1.061,1.061,0,0,1-.161-.014v3.211c.06,0,.12-.007.181-.007H91.5c.061,0,.121,0,.181.007V312.3A1.046,1.046,0,0,1,91.525,312.311Z" transform="translate(-84.703 -300.446)" fill="#883f2e"/>
          <path id="Trazado_1159936" data-name="Trazado 1159936" d="M84.864,312.311a1.061,1.061,0,0,1-.161-.014v3.211c.06,0,.12-.007.181-.007h2.479v-3.19h-2.5Z" transform="translate(-84.703 -300.446)" fill="#6d3326"/>
          <path id="Trazado_1159937" data-name="Trazado 1159937" d="M84.864,203.276h6.661a1.062,1.062,0,0,1,.161.014v-3.211c-.06,0-.12.007-.181.007H84.884c-.061,0-.121,0-.181-.007v3.211A1.061,1.061,0,0,1,84.864,203.276Z" transform="translate(-84.703 -200.079)" fill="#883f2e"/>
          <path id="Trazado_1159938" data-name="Trazado 1159938" d="M84.864,203.275h2.5v-3.19H84.884c-.061,0-.121,0-.181-.007v3.211A1.075,1.075,0,0,1,84.864,203.275Z" transform="translate(-84.703 -200.078)" fill="#6d3326"/>
        </g>
        <g id="Grupo_1215620" data-name="Grupo 1215620" transform="translate(5.666 8.367)">
          <path id="Trazado_1159939" data-name="Trazado 1159939" d="M85,231.408v6.555a1.056,1.056,0,0,1-1.056,1.056H77.281a1.056,1.056,0,0,1-1.056-1.056v-6.555a1.056,1.056,0,0,1,1.056-1.056h6.661A1.056,1.056,0,0,1,85,231.408Z" transform="translate(-76.225 -230.352)" fill="#ca6e59"/>
        </g>
        <g id="Grupo_1215621" data-name="Grupo 1215621" transform="translate(5.666 8.367)">
          <path id="Trazado_1159940" data-name="Trazado 1159940" d="M79.792,237.964v-6.555a1.056,1.056,0,0,1,1.056-1.056H77.281a1.056,1.056,0,0,0-1.056,1.056v6.555a1.056,1.056,0,0,0,1.056,1.056h3.567A1.056,1.056,0,0,1,79.792,237.964Z" transform="translate(-76.225 -230.352)" fill="#bb5d4c"/>
        </g>
        <g id="Grupo_1215624" data-name="Grupo 1215624" transform="translate(0 29.735)">
          <path id="Trazado_1159941" data-name="Trazado 1159941" d="M56.573,435.951a1.079,1.079,0,0,0,.005-.108v-2.1a1.056,1.056,0,0,0-1.056-1.056H41.251a1.056,1.056,0,0,0-1.056,1.056v2.1a1.08,1.08,0,0,0,.005.108Z" transform="translate(-38.334 -432.685)" fill="#ca6e59"/>
          <path id="Trazado_1159942" data-name="Trazado 1159942" d="M43.771,435.951a1.08,1.08,0,0,1-.005-.108v-2.1a1.056,1.056,0,0,1,1.056-1.056h-3.57a1.056,1.056,0,0,0-1.056,1.056v2.1a1.08,1.08,0,0,0,.005.108Z" transform="translate(-38.334 -432.685)" fill="#bb5d4c"/>
          <g id="Grupo_1215622" data-name="Grupo 1215622" transform="translate(0 3.16)">
            <path id="Trazado_1159943" data-name="Trazado 1159943" d="M42.682,467.032H23.106a.528.528,0,0,1-.528-.528v-2.84a1.056,1.056,0,0,1,1.056-1.056H41.626a1.056,1.056,0,0,1,1.056,1.056Z" transform="translate(-22.578 -462.608)" fill="#883f2e"/>
          </g>
          <g id="Grupo_1215623" data-name="Grupo 1215623" transform="translate(0 3.16)">
            <path id="Trazado_1159944" data-name="Trazado 1159944" d="M26.108,466.5v-2.84a1.056,1.056,0,0,1,1.056-1.056h-3.53a1.056,1.056,0,0,0-1.056,1.056v2.84a.528.528,0,0,0,.528.528h3.53A.528.528,0,0,1,26.108,466.5Z" transform="translate(-22.578 -462.608)" fill="#6d3326"/>
          </g>
        </g>
        <g id="Grupo_1215629" data-name="Grupo 1215629" transform="translate(4.153)">
          <g id="Grupo_1215625" data-name="Grupo 1215625" transform="translate(0 20.225)">
            <path id="Trazado_1159945" data-name="Trazado 1159945" d="M73.7,345.221a2.588,2.588,0,0,1-2.588,2.588H64.493a2.588,2.588,0,0,1,0-5.177h6.621A2.588,2.588,0,0,1,73.7,345.221Z" transform="translate(-61.905 -342.633)" fill="#ca6e59"/>
          </g>
          <g id="Grupo_1215626" data-name="Grupo 1215626" transform="translate(0 20.225)">
            <path id="Trazado_1159946" data-name="Trazado 1159946" d="M65.431,345.221a2.588,2.588,0,0,1,2.588-2.588H64.493a2.588,2.588,0,0,0,0,5.177h3.526A2.588,2.588,0,0,1,65.431,345.221Z" transform="translate(-61.905 -342.633)" fill="#bb5d4c"/>
          </g>
          <g id="Grupo_1215627" data-name="Grupo 1215627" transform="translate(0)">
            <path id="Trazado_1159947" data-name="Trazado 1159947" d="M73.7,153.716a2.588,2.588,0,0,1-2.588,2.588H64.493a2.588,2.588,0,0,1,0-5.177h6.621A2.588,2.588,0,0,1,73.7,153.716Z" transform="translate(-61.905 -151.128)" fill="#ca6e59"/>
          </g>
          <g id="Grupo_1215628" data-name="Grupo 1215628">
            <path id="Trazado_1159948" data-name="Trazado 1159948" d="M65.431,153.716a2.588,2.588,0,0,1,2.588-2.588H64.493a2.588,2.588,0,0,0,0,5.177h3.526A2.588,2.588,0,0,1,65.431,153.716Z" transform="translate(-61.905 -151.128)" fill="#bb5d4c"/>
          </g>
        </g>
      </g>
      <g id="Grupo_1215633" data-name="Grupo 1215633" transform="translate(20.625 5.714)">
        <g id="Grupo_1215631" data-name="Grupo 1215631" transform="translate(0)">
          <circle id="Elipse_14306" data-name="Elipse 14306" cx="7.41" cy="7.41" r="7.41" fill="#4fc123"/>
        </g>
        <g id="Grupo_1215632" data-name="Grupo 1215632" transform="translate(0)">
          <path id="Trazado_1159949" data-name="Trazado 1159949" d="M213.923,61.517a7.412,7.412,0,0,1,5.635-7.195,7.41,7.41,0,1,0,0,14.39A7.412,7.412,0,0,1,213.923,61.517Z" transform="translate(-210.372 -54.107)" fill="#47a920"/>
        </g>
      </g>
      <g id="Grupo_1215634" data-name="Grupo 1215634" transform="translate(0 0)">
        <path id="Trazado_1159950" data-name="Trazado 1159950" d="M62.524,25.221H61.249V11.511a.792.792,0,0,0-.816-.792.814.814,0,0,0-.768.825V25.22H54.356a.792.792,0,1,0,0,1.584h8.168a1.856,1.856,0,0,1,0,3.713H46.342V26.8H50.66a.792.792,0,0,0,0-1.584H46.152a1.4,1.4,0,0,0-1.28.843h-5.6a1.321,1.321,0,0,0-1.229-.843H35.725a1.321,1.321,0,0,0-1.229.843H31.1v-.68a1.847,1.847,0,0,0-.9-1.581V21.786a3.38,3.38,0,0,0-.973-6.617H26.561V1.584h33.1V7.815a.792.792,0,0,0,.816.792.814.814,0,0,0,.768-.825V1.32A1.32,1.32,0,0,0,59.929,0H26.3a1.32,1.32,0,0,0-1.32,1.32V15.168H22.612a3.38,3.38,0,0,0-.973,6.617V23.8a1.847,1.847,0,0,0-.9,1.581v6.555a1.847,1.847,0,0,0,.9,1.581v2.017a3.38,3.38,0,0,0,.973,6.617h2.366V44.9H18.787a1.85,1.85,0,0,0-1.848,1.848v1.312h-.012a1.85,1.85,0,0,0-1.848,1.848v2.84a1.322,1.322,0,0,0,1.32,1.32H59.929a1.32,1.32,0,0,0,1.32-1.32V32.1h1.275a3.441,3.441,0,0,0,0-6.881ZM39.36,27.647h5.4v2.027h-5.4ZM35.989,26.8h1.787v3.713H35.989Zm-4.889.843h3.3v2.027H31.1Zm-10.285-9.1a1.8,1.8,0,0,1,1.8-1.8h6.621a1.8,1.8,0,1,1,0,3.592H22.612a1.8,1.8,0,0,1-1.8-1.8ZM22.592,32.2a.264.264,0,0,1-.264-.264V25.383a.264.264,0,0,1,.264-.264h6.661a.264.264,0,0,1,.264.264v6.555a.264.264,0,0,1-.264.264Zm6.029,1.584v1.606h-5.4V33.787Zm-5.4-10.252V21.929h5.4v1.606ZM22.612,40.57a1.8,1.8,0,1,1,0-3.592h6.621a1.8,1.8,0,1,1,0,3.592ZM35.182,52.488H16.662V49.912a.264.264,0,0,1,.264-.264h4.9a.792.792,0,1,0,0-1.584H18.523V46.751a.264.264,0,0,1,.264-.264H33.058a.264.264,0,0,1,.264.264v1.312h-7.8a.792.792,0,1,0,0,1.584h9.393a.264.264,0,0,1,.264.264Zm24.483,0h-22.9V49.912a1.85,1.85,0,0,0-1.848-1.848h-.012V46.751A1.85,1.85,0,0,0,33.058,44.9h-6.5v-2.75h2.671a3.38,3.38,0,0,0,.973-6.617V33.519a1.847,1.847,0,0,0,.9-1.581v-.68h3.4a1.321,1.321,0,0,0,1.229.843H38.04a1.321,1.321,0,0,0,1.229-.843h5.6a1.4,1.4,0,0,0,1.28.843H59.665V52.488Z" transform="translate(-15.078 0)"/>
        <path id="Trazado_1159951" data-name="Trazado 1159951" d="M202.872,54.81a8.2,8.2,0,1,0,8.2-8.2A8.212,8.212,0,0,0,202.872,54.81Zm14.821,0a6.618,6.618,0,1,1-6.618-6.618A6.626,6.626,0,0,1,217.693,54.81Z" transform="translate(-183.039 -41.685)"/>
        <path id="Trazado_1159952" data-name="Trazado 1159952" d="M247.7,102.731a.792.792,0,0,0-1.12,1.12l2.436,2.436a.792.792,0,0,0,1.12,0l3.776-3.776a.792.792,0,1,0-1.12-1.12l-3.216,3.216Z" transform="translate(-221.92 -90.476)"/>
        <path id="Trazado_1159953" data-name="Trazado 1159953" d="M243.681,327.861a.792.792,0,0,0,.792.792H259.04a.792.792,0,1,0,0-1.584H244.473A.792.792,0,0,0,243.681,327.861Z" transform="translate(-219.538 -292.528)"/>
        <path id="Trazado_1159954" data-name="Trazado 1159954" d="M318.8,363.546h-7.51a.792.792,0,0,0,0,1.584h7.51a.792.792,0,1,0,0-1.584Z" transform="translate(-279.301 -325.152)"/>
        <path id="Trazado_1159955" data-name="Trazado 1159955" d="M244.473,365.13h4.311a.792.792,0,1,0,0-1.584h-4.311a.792.792,0,1,0,0,1.584Z" transform="translate(-219.538 -325.152)"/>
        <path id="Trazado_1159956" data-name="Trazado 1159956" d="M259.039,400.023H244.472a.792.792,0,0,0,0,1.584h14.567a.792.792,0,0,0,0-1.584Z" transform="translate(-219.538 -357.777)"/>
        <path id="Trazado_1159957" data-name="Trazado 1159957" d="M350.106,436.5h-3.814a.792.792,0,1,0,0,1.584h3.814a.792.792,0,1,0,0-1.584Z" transform="translate(-310.605 -390.402)"/>
        <path id="Trazado_1159958" data-name="Trazado 1159958" d="M252.8,436.5h-8.324a.792.792,0,1,0,0,1.584H252.8a.792.792,0,0,0,0-1.584Z" transform="translate(-219.538 -390.402)"/>
      </g>
    </g>
  </g>
</svg>
