<svg xmlns="http://www.w3.org/2000/svg" xmlns:xlink="http://www.w3.org/1999/xlink" width="93.934" height="93.934" viewBox="0 0 93.934 93.934">
  <defs>
    <filter id="Trazado_978624" x="0" y="0" width="93.934" height="93.934" filterUnits="userSpaceOnUse">
      <feOffset dy="3" input="SourceAlpha"/>
      <feGaussianBlur stdDeviation="3" result="blur"/>
      <feFlood flood-opacity="0.161"/>
      <feComposite operator="in" in2="blur"/>
      <feComposite in="SourceGraphic"/>
    </filter>
  </defs>
  <g id="Grupo_1215650" data-name="Grupo 1215650" transform="translate(-190 -1984.842)">
    <g id="Grupo_1214669" data-name="Grupo 1214669" transform="translate(-631 1259.808)">
      <g id="Grupo_1212848" data-name="Grupo 1212848" transform="translate(212 -798.5)">
        <g id="Grupo_1210963" data-name="Grupo 1210963" transform="translate(0 -377.186)">
          <g id="Grupo_1208068" data-name="Grupo 1208068" transform="translate(412 470.719)">
            <g id="Grupo_1144123" data-name="Grupo 1144123" transform="translate(206 1436)">
              <g transform="matrix(1, 0, 0, 1, -9, -6)" filter="url(#Trazado_978624)">
                <g id="Trazado_978624-2" data-name="Trazado 978624" transform="translate(9 6)" fill="#f2f4f0">
                  <path d="M 37.966796875 74.43359375 C 33.04315185546875 74.43359375 28.26757431030273 73.46962738037109 23.77274131774902 71.56847381591797 C 19.43047523498535 69.73184967041016 15.53040790557861 67.10224914550781 12.18087482452393 63.75271987915039 C 8.831341743469238 60.4031867980957 6.201741218566895 56.50312042236328 4.365118980407715 52.16086196899414 C 2.463963508605957 47.66601943969727 1.499996900558472 42.89044189453125 1.499996900558472 37.966796875 C 1.499996900558472 33.04315185546875 2.463963508605957 28.26757431030273 4.365118980407715 23.77274131774902 C 6.201741218566895 19.43047523498535 8.831341743469238 15.53040790557861 12.18087482452393 12.18087482452393 C 15.53040790557861 8.831341743469238 19.43047523498535 6.201741218566895 23.77274131774902 4.365118980407715 C 28.26757431030273 2.463963508605957 33.04315185546875 1.499996900558472 37.966796875 1.499996900558472 C 42.89044189453125 1.499996900558472 47.66601943969727 2.463963508605957 52.16086196899414 4.365118980407715 C 56.50312042236328 6.201741218566895 60.4031867980957 8.831341743469238 63.75271987915039 12.18087482452393 C 67.10224914550781 15.53040790557861 69.73184967041016 19.43047523498535 71.56847381591797 23.77274131774902 C 73.46962738037109 28.26757431030273 74.43359375 33.04315185546875 74.43359375 37.966796875 C 74.43359375 42.89044189453125 73.46962738037109 47.66601943969727 71.56847381591797 52.16086196899414 C 69.73184967041016 56.50313186645508 67.10224914550781 60.4031867980957 63.75271987915039 63.75271987915039 C 60.4031867980957 67.10224914550781 56.50313186645508 69.73184967041016 52.16086196899414 71.56847381591797 C 47.66601943969727 73.46962738037109 42.89044189453125 74.43359375 37.966796875 74.43359375 Z" stroke="none"/>
                  <path d="M 37.966796875 3 C 33.2449836730957 3 28.66600799560547 3.924095153808594 24.35705947875977 5.746635437011719 C 20.19359588623047 7.507621765136719 16.45379638671875 10.02927398681641 13.24153518676758 13.24153518676758 C 10.02927398681641 16.45379638671875 7.507621765136719 20.19359588623047 5.746635437011719 24.35705947875977 C 3.924095153808594 28.66600799560547 3 33.2449836730957 3 37.966796875 C 3 42.6886100769043 3.924095153808594 47.26758575439453 5.746635437011719 51.57653427124023 C 7.507621765136719 55.73999786376953 10.02927398681641 59.47979736328125 13.24153518676758 62.69205856323242 C 16.45379638671875 65.90431976318359 20.19359588623047 68.42597198486328 24.35705947875977 70.18695831298828 C 28.66600799560547 72.00949859619141 33.2449836730957 72.93359375 37.966796875 72.93359375 C 42.6886100769043 72.93359375 47.26758575439453 72.00949859619141 51.57653427124023 70.18695831298828 C 55.73999786376953 68.42597198486328 59.47979736328125 65.90431976318359 62.69205856323242 62.69205856323242 C 65.90431976318359 59.47979736328125 68.42597198486328 55.73999786376953 70.18695831298828 51.57653427124023 C 72.00949859619141 47.26758575439453 72.93359375 42.6886100769043 72.93359375 37.966796875 C 72.93359375 33.2449836730957 72.00949859619141 28.66600799560547 70.18695831298828 24.35705947875977 C 68.42597198486328 20.19359588623047 65.90431976318359 16.45379638671875 62.69205856323242 13.24153518676758 C 59.47979736328125 10.02927398681641 55.73999786376953 7.507621765136719 51.57653427124023 5.746635437011719 C 47.26758575439453 3.924095153808594 42.6886100769043 3 37.966796875 3 M 37.966796875 0 C 58.93528366088867 0 75.93359375 16.99831008911133 75.93359375 37.966796875 C 75.93359375 58.93528366088867 58.93528366088867 75.93359375 37.966796875 75.93359375 C 16.99831008911133 75.93359375 0 58.93528366088867 0 37.966796875 C 0 16.99831008911133 16.99831008911133 0 37.966796875 0 Z" stroke="none" fill="#899e78"/>
                </g>
              </g>
            </g>
          </g>
        </g>
      </g>
    </g>
    <g id="XMLID_1_" transform="translate(207.47 2007.959)">
      <g id="XMLID_3507_" transform="translate(0.576 0.399)">
        <path id="XMLID_826_" d="M203.744,10.761V5h-3.629l-.691,1-.461-1h-2.65l-.807,1.072L194.93,5h-2.708L191.3,7.1l-3.192.6L186,11.314v9.01l2.074,3.8L186,62.841h15.555L199.6,35.822V24.127l6.913-4.955v-7.6Z" transform="translate(-165.145 -5)" fill="#ef917b"/>
        <g id="XMLID_825_" transform="translate(29.955 5.22)">
          <path id="XMLID_2100_" d="M269.061,56.914a4.115,4.115,0,0,1-1.233-.2,5.277,5.277,0,0,1-2.788-2.454.584.584,0,0,1-.023-.461.611.611,0,0,1,.323-.334L273.4,50.3l.426,1.072-7.409,2.915a3.8,3.8,0,0,0,1.774,1.337,3.408,3.408,0,0,0,2.627-.346c.012,0,.023-.012.035-.012l2.535-1.118.461,1.06-2.523,1.106a4.918,4.918,0,0,1-2.27.6Z" transform="translate(-264.98 -50.3)" fill="#e96b4e"/>
        </g>
        <g id="XMLID_824_" transform="translate(29.393 10.497)">
          <path id="XMLID_2099_" d="M261.229,101.585l-1.129-.253.576-2.616a.578.578,0,0,1,.472-.449l5.392-.9-.311-.876,1.083-.392.553,1.532a.553.553,0,0,1-.046.484.559.559,0,0,1-.4.277l-5.692.945Z" transform="translate(-260.1 -96.1)" fill="#e96b4e"/>
        </g>
        <g id="XMLID_823_" transform="translate(22.86 5.796)">
          <path id="XMLID_2098_" d="M207.848,60.335H205.2a.581.581,0,0,1-.553-.415l-1.244-4.3,1.106-.323,1.129,3.883h1.8l.288-.876a.568.568,0,0,1,.53-.392l2.8-.058.023,1.152-2.4.046-.3.887A.536.536,0,0,1,207.848,60.335Z" transform="translate(-203.4 -55.3)" fill="#e96b4e"/>
        </g>
        <g id="XMLID_822_" transform="translate(25.591 1.968)">
          <path id="XMLID_2097_" d="M0,0H7.075V1.152H0Z" transform="translate(1.123 0) rotate(77.173)" fill="#e96b4e"/>
        </g>
        <g id="XMLID_821_" transform="translate(29.785 1.074)">
          <path id="XMLID_2096_" d="M0,0H7.858V1.152H0Z" transform="matrix(0.022, 1, -1, 0.022, 1.152, 0)" fill="#e96b4e"/>
        </g>
        <g id="XMLID_820_" transform="translate(33.534 0.99)">
          <path id="XMLID_2095_" d="M0,0H1.152V6.533H0Z" transform="translate(0.176 0) rotate(1.547)" fill="#e96b4e"/>
        </g>
        <g id="XMLID_819_" transform="translate(22.238 7.489)">
          <path id="XMLID_2094_" d="M198,70h1.844v1.152H198Z" transform="translate(-198 -70)" fill="#e96b4e"/>
        </g>
        <path id="XMLID_674_" d="M212.691,195.609V191H201.042l-.242,4.609Z" transform="translate(-178.24 -169.569)" fill="#e96b4e"/>
        <path id="XMLID_817_" d="M186,191h15.44v2.3H186Z" transform="translate(-165.145 -169.569)" fill="#d84861"/>
        <path id="XMLID_816_" d="M22.744,171.761V166H19.115l-.691,1-.461-1h-2.65l-.807,1.072L13.93,166H11.222l-.922,2.1-3.192.6L5,172.314v9.01l2.074,3.8-.23,20.164H19.161l-.565-8.469V185.127l6.913-4.954v-7.6Z" transform="translate(-5 -147.449)" fill="#f5b7a9"/>
        <g id="XMLID_814_" transform="translate(9.1 23.77)">
          <path id="XMLID_2133_" d="M88.061,217.914a4.114,4.114,0,0,1-1.233-.2,5.277,5.277,0,0,1-2.788-2.454.585.585,0,0,1-.023-.461.611.611,0,0,1,.323-.334L92.4,211.3l.426,1.072-7.409,2.915a3.8,3.8,0,0,0,1.774,1.337,3.408,3.408,0,0,0,2.627-.346c.012,0,.023-.012.035-.012l2.535-1.118.461,1.06-2.523,1.106A4.918,4.918,0,0,1,88.061,217.914Z" transform="translate(-83.98 -211.3)" fill="#ef917b"/>
        </g>
        <g id="XMLID_813_" transform="translate(8.538 29.047)">
          <path id="XMLID_2132_" d="M80.229,262.585l-1.129-.253.576-2.616a.578.578,0,0,1,.472-.449l5.392-.9-.311-.876,1.083-.392.553,1.532a.553.553,0,0,1-.046.484.559.559,0,0,1-.4.276l-5.692.945Z" transform="translate(-79.1 -257.1)" fill="#ef917b"/>
        </g>
        <g id="XMLID_812_" transform="translate(2.005 24.346)">
          <path id="XMLID_2131_" d="M26.848,221.335H24.2a.581.581,0,0,1-.553-.415l-1.244-4.3,1.106-.323,1.129,3.883h1.8l.288-.876a.568.568,0,0,1,.53-.392l2.8-.058.023,1.152-2.4.046-.3.887a.536.536,0,0,1-.53.392Z" transform="translate(-22.4 -216.3)" fill="#ef917b"/>
        </g>
        <g id="XMLID_811_" transform="translate(4.74 20.515)">
          <path id="XMLID_2130_" d="M0,0H7.075V1.152H0Z" transform="translate(1.123 0) rotate(77.173)" fill="#ef917b"/>
        </g>
        <g id="XMLID_810_" transform="translate(8.926 19.62)">
          <path id="XMLID_2128_" d="M0,0H7.858V1.152H0Z" transform="matrix(0.022, 1, -1, 0.022, 1.152, 0)" fill="#ef917b"/>
        </g>
        <g id="XMLID_809_" transform="translate(12.671 19.546)">
          <path id="XMLID_2127_" d="M0,0H1.152V6.533H0Z" transform="translate(0.176 0) rotate(1.547)" fill="#ef917b"/>
        </g>
        <g id="XMLID_808_" transform="translate(1.383 26.04)">
          <path id="XMLID_2126_" d="M17,231h1.844v1.152H17Z" transform="translate(-17 -231)" fill="#ef917b"/>
        </g>
        <g id="XMLID_794_" transform="translate(6.913 37.101)">
          <path id="XMLID_675_" d="M65,327h6.683v1.152H65Z" transform="translate(-65 -327)" fill="#ef917b"/>
        </g>
        <path id="XMLID_899_" d="M22.181,352l-.081,6.913H33.726V352Z" transform="translate(-20.13 -312.018)" fill="#ef917b"/>
        <path id="XMLID_793_" d="M5,352H20.44v2.3H5Z" transform="translate(-5 -312.018)" fill="#d84861"/>
        <path id="XMLID_792_" d="M346.744,171.761V166h-3.629l-.691,1-.461-1h-2.65l-.807,1.072L337.93,166h-2.708l-.922,2.1-3.192.6L329,172.314v9.01l2.074,3.8-.23,20.164h12.317l-.565-8.469V185.127l6.913-4.954v-7.6Z" transform="translate(-291.668 -147.449)" fill="#f5b7a9"/>
        <g id="XMLID_791_" transform="translate(46.432 23.77)">
          <path id="XMLID_926_" d="M412.061,217.914a4.114,4.114,0,0,1-1.233-.2,5.277,5.277,0,0,1-2.788-2.454.584.584,0,0,1-.023-.461.611.611,0,0,1,.323-.334L416.4,211.3l.426,1.072-7.409,2.915a3.8,3.8,0,0,0,1.774,1.337,3.408,3.408,0,0,0,2.627-.346c.012,0,.023-.012.035-.012l2.535-1.118.461,1.06-2.523,1.106A4.918,4.918,0,0,1,412.061,217.914Z" transform="translate(-407.98 -211.3)" fill="#ef917b"/>
        </g>
        <g id="XMLID_790_" transform="translate(45.869 29.047)">
          <path id="XMLID_919_" d="M404.229,262.585l-1.129-.253.576-2.616a.578.578,0,0,1,.472-.449l5.392-.9-.311-.876,1.083-.392.553,1.532a.553.553,0,0,1-.046.484.559.559,0,0,1-.4.276l-5.692.945Z" transform="translate(-403.1 -257.1)" fill="#ef917b"/>
        </g>
        <g id="XMLID_789_" transform="translate(39.336 24.346)">
          <path id="XMLID_912_" d="M350.848,221.335H348.2a.581.581,0,0,1-.553-.415l-1.244-4.3,1.106-.323,1.129,3.883h1.8l.288-.876a.568.568,0,0,1,.53-.392l2.8-.058.023,1.152-2.4.046-.3.887a.536.536,0,0,1-.53.392Z" transform="translate(-346.4 -216.3)" fill="#ef917b"/>
        </g>
        <g id="XMLID_788_" transform="translate(42.065 20.515)">
          <path id="XMLID_904_" d="M0,0H7.075V1.152H0Z" transform="translate(1.123 0) rotate(77.173)" fill="#ef917b"/>
        </g>
        <g id="XMLID_784_" transform="translate(46.257 19.629)">
          <path id="XMLID_902_" d="M0,0H7.858V1.152H0Z" transform="matrix(0.022, 1, -1, 0.022, 1.152, 0)" fill="#ef917b"/>
        </g>
        <g id="XMLID_783_" transform="translate(50.016 19.548)">
          <path id="XMLID_900_" d="M0,0H1.152V6.533H0Z" transform="translate(0.176 0) rotate(1.547)" fill="#ef917b"/>
        </g>
        <g id="XMLID_782_" transform="translate(38.714 26.04)">
          <path id="XMLID_898_" d="M341,231h1.844v1.152H341Z" transform="translate(-341 -231)" fill="#ef917b"/>
        </g>
        <g id="XMLID_781_" transform="translate(44.245 37.101)">
          <path id="XMLID_897_" d="M389,327h6.683v1.152H389Z" transform="translate(-389 -327)" fill="#ef917b"/>
        </g>
        <path id="XMLID_1195_" d="M346,352l-.1,8.93,11.649-1.74V352Z" transform="translate(-306.621 -312.018)" fill="#ef917b"/>
        <path id="XMLID_780_" d="M329,352h15.44v2.3H329Z" transform="translate(-291.668 -312.018)" fill="#1f3e75"/>
        <path id="XMLID_779_" d="M344.44,374.3l-15.44,2.3v-2.3l15.44-2.3Z" transform="translate(-291.668 -329.714)" fill="#d84861"/>
        <g id="XMLID_618_" transform="translate(27.768 18.551)">
          <path id="XMLID_641_" d="M246,166h6.683v1.152H246Z" transform="translate(-246 -166)" fill="#e96b4e"/>
        </g>
        <g id="XMLID_1410_" transform="translate(1.613 43.323)">
          <path id="XMLID_1412_" d="M19,381H31.213v1.152H19Z" transform="translate(-19 -381)" fill="#d7d5c1"/>
        </g>
        <g id="XMLID_754_" transform="translate(0 42.286)">
          <circle id="XMLID_1584_" cx="1.613" cy="1.613" r="1.613" fill="#ebeae0"/>
          <circle id="XMLID_1583_" cx="1.613" cy="1.613" r="1.613" transform="translate(4.067)" fill="#ebeae0"/>
          <circle id="XMLID_1582_" cx="1.613" cy="1.613" r="1.613" transform="translate(8.146)" fill="#ebeae0"/>
          <circle id="XMLID_1581_" cx="1.613" cy="1.613" r="1.613" transform="translate(12.213)" fill="#ebeae0"/>
        </g>
      </g>
      <g id="XMLID_3105_" transform="translate(0 -0.2)">
        <g id="XMLID_1440_" transform="translate(20.855 0)">
          <path id="XMLID_1643_" d="M184.1,21.865l-1.152-.058.115-2.143L181.069,16a.579.579,0,0,1-.069-.277V6.713a.5.5,0,0,1,.081-.288l2.109-3.618a.571.571,0,0,1,.392-.277l2.892-.553.8-1.809a.582.582,0,0,1,.53-.346h2.708a.586.586,0,0,1,.507.3l.15.277.265-.357a.552.552,0,0,1,.461-.23h2.65a.556.556,0,0,1,.518.334l.035.081.115-.173a.6.6,0,0,1,.472-.253h3.641a.57.57,0,0,1,.576.576V5.711l2.351.691a.581.581,0,0,1,.415.553v7.6a.6.6,0,0,1-.242.472l-6.671,4.793v2H194.6v-2.3a.6.6,0,0,1,.242-.472l6.671-4.782V7.4l-2.351-.691a.581.581,0,0,1-.415-.553V.975H195.99l-.518.749a.555.555,0,0,1-.519.242.583.583,0,0,1-.472-.334L194.17.964h-1.993l-.634.841a.578.578,0,0,1-.507.23.561.561,0,0,1-.461-.3L190.16.964h-1.982l-.772,1.751a.58.58,0,0,1-.415.334l-2.938.553-1.9,3.272v8.711l2,3.676a.564.564,0,0,1,.069.311Z" transform="translate(-181 0.2)" fill="#10203c"/>
        </g>
        <g id="XMLID_464_" transform="translate(20.855 24.323)">
          <path id="XMLID_1642_" d="M197.131,245.593H181.576a.558.558,0,0,1-.415-.184.632.632,0,0,1-.161-.426l1.82-34.082,1.152.058-1.786,33.483h14.322l-1.913-26.4v-7.132h1.152v7.063l1.959,27a.6.6,0,0,1-.15.438A.583.583,0,0,1,197.131,245.593Z" transform="translate(-181 -210.9)" fill="#10203c"/>
        </g>
        <g id="XMLID_951_" transform="translate(30.531 5.819)">
          <path id="XMLID_1641_" d="M269.061,56.914a4.115,4.115,0,0,1-1.233-.2,5.277,5.277,0,0,1-2.788-2.454.584.584,0,0,1-.023-.461.611.611,0,0,1,.323-.334L273.4,50.3l.426,1.072-7.409,2.915a3.8,3.8,0,0,0,1.774,1.337,3.408,3.408,0,0,0,2.627-.346c.012,0,.023-.012.035-.012l2.535-1.118.461,1.06-2.523,1.106a4.918,4.918,0,0,1-2.27.6Z" transform="translate(-264.98 -50.3)" fill="#10203c"/>
        </g>
        <g id="XMLID_981_" transform="translate(29.969 11.096)">
          <path id="XMLID_1640_" d="M261.229,101.585l-1.129-.253.576-2.616a.578.578,0,0,1,.472-.449l5.392-.9-.311-.876,1.083-.392.553,1.532a.553.553,0,0,1-.046.484.559.559,0,0,1-.4.277l-5.692.945Z" transform="translate(-260.1 -96.1)" fill="#10203c"/>
        </g>
        <g id="XMLID_443_" transform="translate(23.436 6.395)">
          <path id="XMLID_1639_" d="M207.848,60.335H205.2a.581.581,0,0,1-.553-.415l-1.244-4.3,1.106-.323,1.129,3.883h1.8l.288-.876a.568.568,0,0,1,.53-.392l2.8-.058.023,1.152-2.4.046-.3.887A.536.536,0,0,1,207.848,60.335Z" transform="translate(-203.4 -55.3)" fill="#10203c"/>
        </g>
        <g id="XMLID_444_" transform="translate(26.167 2.567)">
          <path id="XMLID_1638_" d="M0,0H7.075V1.152H0Z" transform="translate(1.123 0) rotate(77.173)" fill="#10203c"/>
        </g>
        <g id="XMLID_454_" transform="translate(30.361 1.673)">
          <path id="XMLID_1637_" d="M0,0H7.858V1.152H0Z" transform="matrix(0.022, 1, -1, 0.022, 1.152, 0)" fill="#10203c"/>
        </g>
        <g id="XMLID_456_" transform="translate(34.11 1.589)">
          <path id="XMLID_1636_" d="M0,0H1.152V6.533H0Z" transform="translate(0.176 0) rotate(1.547)" fill="#10203c"/>
        </g>
        <g id="XMLID_461_" transform="translate(22.814 8.089)">
          <path id="XMLID_1623_" d="M198,70h1.844v1.152H198Z" transform="translate(-198 -70)" fill="#10203c"/>
        </g>
        <g id="XMLID_462_" transform="translate(28.344 19.15)">
          <path id="XMLID_1621_" d="M246,166h6.683v1.152H246Z" transform="translate(-246 -166)" fill="#10203c"/>
        </g>
        <g id="XMLID_469_" transform="translate(20.855 21.454)">
          <path id="XMLID_1613_" d="M197.016,189.457h-15.44a.571.571,0,0,1-.576-.576v-2.3a.571.571,0,0,1,.576-.576h15.44a.571.571,0,0,1,.576.576v2.3A.571.571,0,0,1,197.016,189.457ZM182.152,188.3H196.44v-1.152H182.152Z" transform="translate(-181 -186)" fill="#10203c"/>
        </g>
        <g id="XMLID_1107_" transform="translate(0 18.551)">
          <path id="XMLID_1611_" d="M3.2,182.842l-1.152-.012.023-2.155L.069,177A.579.579,0,0,1,0,176.724v-9.01a.5.5,0,0,1,.081-.288l2.109-3.618a.571.571,0,0,1,.392-.277l2.892-.553.8-1.809a.582.582,0,0,1,.53-.346H9.506a.586.586,0,0,1,.507.3l.15.277.265-.357a.552.552,0,0,1,.461-.23h2.65a.556.556,0,0,1,.518.334l.035.081.115-.173a.6.6,0,0,1,.472-.253H18.32a.571.571,0,0,1,.576.576v3.457H17.744v-2.881H14.99l-.518.749a.555.555,0,0,1-.518.242.583.583,0,0,1-.472-.334l-.311-.668H11.176l-.634.841a.578.578,0,0,1-.507.23.561.561,0,0,1-.461-.3l-.415-.772H7.178l-.772,1.751a.58.58,0,0,1-.415.334l-2.938.553-1.9,3.3v8.711l2,3.676a.625.625,0,0,1,.069.288Z" transform="translate(0 -160.8)" fill="#10203c"/>
        </g>
        <g id="XMLID_638_" transform="translate(9.665 24.317)">
          <path id="XMLID_1609_" d="M88.963,227.109H87.811v-2.3a.6.6,0,0,1,.242-.472l6.671-4.782v-6.879l-2.166-.634-7.224,2.834a3.8,3.8,0,0,0,1.774,1.337,3.408,3.408,0,0,0,2.627-.346c.012,0,.023-.012.035-.012l2.535-1.118.461,1.06L90.242,216.9a4.472,4.472,0,0,1-3.514.4,5.277,5.277,0,0,1-2.788-2.454.584.584,0,0,1-.023-.461.611.611,0,0,1,.323-.334l8.065-3.169a.51.51,0,0,1,.369-.012l2.765.807a.581.581,0,0,1,.415.553v7.6a.6.6,0,0,1-.242.472L88.963,225.1Z" transform="translate(-83.88 -210.845)" fill="#10203c"/>
        </g>
        <g id="XMLID_526_" transform="translate(1.842 46.031)">
          <path id="XMLID_1607_" d="M28.882,412.285H16.565a.585.585,0,0,1-.415-.173.515.515,0,0,1-.161-.415l.138-12.4,1.152.012-.127,11.822H28.271l-.53-7.858v-3.894h1.152v3.837l.565,8.446a.616.616,0,0,1-.15.438.583.583,0,0,1-.426.184Z" transform="translate(-15.987 -399.3)" fill="#10203c"/>
        </g>
        <g id="XMLID_482_" transform="translate(9.114 29.646)">
          <path id="XMLID_1606_" d="M80.229,262.585l-1.129-.253.576-2.616a.578.578,0,0,1,.472-.449l5.392-.9-.311-.876,1.083-.392.553,1.532a.553.553,0,0,1-.046.484.559.559,0,0,1-.4.276l-5.692.945Z" transform="translate(-79.1 -257.1)" fill="#10203c"/>
        </g>
        <g id="XMLID_481_" transform="translate(2.581 24.945)">
          <path id="XMLID_1601_" d="M26.848,221.335H24.2a.581.581,0,0,1-.553-.415l-1.244-4.3,1.106-.323,1.129,3.883h1.8l.288-.876a.568.568,0,0,1,.53-.392l2.8-.058.023,1.152-2.4.046-.3.887a.536.536,0,0,1-.53.392Z" transform="translate(-22.4 -216.3)" fill="#10203c"/>
        </g>
        <g id="XMLID_480_" transform="translate(5.316 21.115)">
          <path id="XMLID_1600_" d="M0,0H7.075V1.152H0Z" transform="translate(1.123 0) rotate(77.173)" fill="#10203c"/>
        </g>
        <g id="XMLID_479_" transform="translate(9.502 20.219)">
          <path id="XMLID_1597_" d="M0,0H7.858V1.152H0Z" transform="matrix(0.022, 1, -1, 0.022, 1.152, 0)" fill="#10203c"/>
        </g>
        <g id="XMLID_478_" transform="translate(13.247 20.146)">
          <path id="XMLID_1596_" d="M0,0H1.152V6.533H0Z" transform="translate(0.176 0) rotate(1.547)" fill="#10203c"/>
        </g>
        <g id="XMLID_477_" transform="translate(1.959 26.639)">
          <path id="XMLID_1595_" d="M17,231h1.844v1.152H17Z" transform="translate(-17 -231)" fill="#10203c"/>
        </g>
        <g id="XMLID_476_" transform="translate(7.489 37.7)">
          <path id="XMLID_1594_" d="M65,327h6.683v1.152H65Z" transform="translate(-65 -327)" fill="#10203c"/>
        </g>
        <g id="XMLID_475_" transform="translate(0 40.005)">
          <path id="XMLID_1590_" d="M16.016,350.457H.576A.57.57,0,0,1,0,349.881v-2.3A.57.57,0,0,1,.576,347h15.44a.57.57,0,0,1,.576.576v2.3A.57.57,0,0,1,16.016,350.457ZM1.152,349.3H15.44v-1.152H1.152Z" transform="translate(0 -347)" fill="#10203c"/>
        </g>
        <g id="XMLID_21_" transform="translate(39.174 45.42)">
          <path id="XMLID_1585_" d="M352.882,407.6H340.565a.585.585,0,0,1-.415-.173.515.515,0,0,1-.161-.415l.1-8.93,1.152.012-.092,8.354h11.119l-.53-7.858V394h1.152v4.528l.565,8.446a.616.616,0,0,1-.15.438A.583.583,0,0,1,352.882,407.6Z" transform="translate(-339.987 -394)" fill="#10203c"/>
        </g>
        <g id="XMLID_1102_" transform="translate(39.306 42.9)">
          <path id="XMLID_1536_" d="M0,0H1.152V2H0Z" transform="translate(0.024 0) rotate(0.688)" fill="#10203c"/>
        </g>
        <g id="XMLID_639_" transform="translate(37.332 18.551)">
          <path id="XMLID_1534_" d="M327.2,182.842l-1.152-.012.023-2.155-2-3.676a.579.579,0,0,1-.069-.277v-9.01a.5.5,0,0,1,.081-.288l2.109-3.618a.571.571,0,0,1,.392-.277l2.892-.553.8-1.809a.582.582,0,0,1,.53-.346h2.708a.586.586,0,0,1,.507.3l.15.277.265-.357a.552.552,0,0,1,.461-.23h2.65a.556.556,0,0,1,.518.334l.035.081.115-.173a.6.6,0,0,1,.472-.253h3.641a.571.571,0,0,1,.576.576v5.335l2.35.691a.581.581,0,0,1,.415.553v7.6a.6.6,0,0,1-.242.472l-6.671,4.793v2H337.6v-2.3a.6.6,0,0,1,.242-.472l6.671-4.782v-6.879l-2.35-.691a.581.581,0,0,1-.415-.553v-5.185H338.99l-.518.749a.555.555,0,0,1-.518.242.583.583,0,0,1-.472-.334l-.311-.668h-1.993l-.634.841a.578.578,0,0,1-.507.23.561.561,0,0,1-.461-.3l-.415-.772h-1.982l-.772,1.751a.58.58,0,0,1-.415.334l-2.938.553-1.9,3.284v8.711l2,3.676a.625.625,0,0,1,.069.288Z" transform="translate(-324 -160.8)" fill="#10203c"/>
        </g>
        <g id="XMLID_636_" transform="translate(47.008 24.369)">
          <path id="XMLID_1533_" d="M412.061,217.914a4.114,4.114,0,0,1-1.233-.2,5.277,5.277,0,0,1-2.788-2.454.584.584,0,0,1-.023-.461.611.611,0,0,1,.323-.334L416.4,211.3l.426,1.072-7.409,2.915a3.8,3.8,0,0,0,1.774,1.337,3.408,3.408,0,0,0,2.627-.346c.012,0,.023-.012.035-.012l2.535-1.118.461,1.06-2.523,1.106A4.918,4.918,0,0,1,412.061,217.914Z" transform="translate(-407.98 -211.3)" fill="#10203c"/>
        </g>
        <g id="XMLID_632_" transform="translate(46.446 29.646)">
          <path id="XMLID_1532_" d="M404.229,262.585l-1.129-.253.576-2.616a.578.578,0,0,1,.472-.449l5.392-.9-.311-.876,1.083-.392.553,1.532a.553.553,0,0,1-.046.484.559.559,0,0,1-.4.276l-5.692.945Z" transform="translate(-403.1 -257.1)" fill="#10203c"/>
        </g>
        <g id="XMLID_630_" transform="translate(39.913 24.945)">
          <path id="XMLID_1531_" d="M350.848,221.335H348.2a.581.581,0,0,1-.553-.415l-1.244-4.3,1.106-.323,1.129,3.883h1.8l.288-.876a.568.568,0,0,1,.53-.392l2.8-.058.023,1.152-2.4.046-.3.887a.536.536,0,0,1-.53.392Z" transform="translate(-346.4 -216.3)" fill="#10203c"/>
        </g>
        <g id="XMLID_625_" transform="translate(42.641 21.114)">
          <path id="XMLID_1530_" d="M0,0H7.075V1.152H0Z" transform="translate(1.123 0) rotate(77.173)" fill="#10203c"/>
        </g>
        <g id="XMLID_624_" transform="translate(46.834 20.228)">
          <path id="XMLID_1529_" d="M0,0H7.858V1.152H0Z" transform="matrix(0.022, 1, -1, 0.022, 1.152, 0)" fill="#10203c"/>
        </g>
        <g id="XMLID_623_" transform="translate(50.592 20.147)">
          <path id="XMLID_1528_" d="M0,0H1.152V6.533H0Z" transform="translate(0.176 0) rotate(1.547)" fill="#10203c"/>
        </g>
        <g id="XMLID_621_" transform="translate(39.29 26.639)">
          <path id="XMLID_1527_" d="M341,231h1.844v1.152H341Z" transform="translate(-341 -231)" fill="#10203c"/>
        </g>
        <g id="XMLID_620_" transform="translate(44.821 37.7)">
          <path id="XMLID_1521_" d="M389,327h6.683v1.152H389Z" transform="translate(-389 -327)" fill="#10203c"/>
        </g>
        <g id="XMLID_619_" transform="translate(37.332 40.005)">
          <path id="XMLID_1518_" d="M340.016,350.457h-15.44a.57.57,0,0,1-.576-.576v-2.3a.57.57,0,0,1,.576-.576h15.44a.57.57,0,0,1,.576.576v2.3A.57.57,0,0,1,340.016,350.457ZM325.152,349.3H339.44v-1.152H325.152Z" transform="translate(-324 -347)" fill="#10203c"/>
        </g>
        <g id="XMLID_683_" transform="translate(37.332 42.315)">
          <path id="XMLID_1512_" d="M324.576,372.805a.573.573,0,0,1-.38-.138.56.56,0,0,1-.2-.438v-2.3a.562.562,0,0,1,.5-.565l15.44-2.3a.569.569,0,0,1,.461.138.56.56,0,0,1,.2.438v2.3a.562.562,0,0,1-.5.565l-15.44,2.3Zm.576-2.385v1.141l14.287-2.132v-1.141Z" transform="translate(-324 -367.05)" fill="#10203c"/>
        </g>
        <g id="XMLID_2703_" transform="translate(0 42.309)">
          <path id="XMLID_1490_" d="M2.189,371.378a2.189,2.189,0,1,1,2.189-2.189A2.188,2.188,0,0,1,2.189,371.378Zm0-3.226a1.037,1.037,0,1,0,1.037,1.037A1.033,1.033,0,0,0,2.189,368.152Z" transform="translate(0 -367)" fill="#10203c"/>
        </g>
        <g id="XMLID_2702_" transform="translate(4.067 42.309)">
          <path id="XMLID_1484_" d="M37.489,371.378a2.189,2.189,0,1,1,2.189-2.189A2.188,2.188,0,0,1,37.489,371.378Zm0-3.226a1.037,1.037,0,1,0,1.037,1.037A1.033,1.033,0,0,0,37.489,368.152Z" transform="translate(-35.3 -367)" fill="#10203c"/>
        </g>
        <g id="XMLID_2701_" transform="translate(8.146 42.309)">
          <path id="XMLID_1447_" d="M72.889,371.378a2.189,2.189,0,1,1,2.189-2.189A2.188,2.188,0,0,1,72.889,371.378Zm0-3.226a1.037,1.037,0,1,0,1.037,1.037A1.033,1.033,0,0,0,72.889,368.152Z" transform="translate(-70.7 -367)" fill="#10203c"/>
        </g>
        <g id="XMLID_2700_" transform="translate(12.213 42.309)">
          <path id="XMLID_1432_" d="M108.189,371.378a2.189,2.189,0,1,1,2.189-2.189A2.188,2.188,0,0,1,108.189,371.378Zm0-3.226a1.037,1.037,0,1,0,1.037,1.037A1.033,1.033,0,0,0,108.189,368.152Z" transform="translate(-106 -367)" fill="#10203c"/>
        </g>
        <g id="XMLID_1006_" transform="translate(3.802 43.922)">
          <path id="XMLID_1431_" d="M33,381h.807v1.152H33Z" transform="translate(-33 -381)" fill="#10203c"/>
        </g>
        <g id="XMLID_1022_" transform="translate(7.835 43.922)">
          <path id="XMLID_1430_" d="M68,381h.922v1.152H68Z" transform="translate(-68 -381)" fill="#10203c"/>
        </g>
        <g id="XMLID_1409_" transform="translate(11.983 43.922)">
          <path id="XMLID_1423_" d="M104,381h.807v1.152H104Z" transform="translate(-104 -381)" fill="#10203c"/>
        </g>
      </g>
    </g>
  </g>
</svg>
