<svg xmlns="http://www.w3.org/2000/svg" xmlns:xlink="http://www.w3.org/1999/xlink" width="110" height="110" viewBox="0 0 110 110">
  <defs>
    <filter id="Trazado_982547" x="0" y="0" width="110" height="110" filterUnits="userSpaceOnUse">
      <feOffset dy="3" input="SourceAlpha"/>
      <feGaussianBlur stdDeviation="3" result="blur"/>
      <feFlood flood-opacity="0.161"/>
      <feComposite operator="in" in2="blur"/>
      <feComposite in="SourceGraphic"/>
    </filter>
  </defs>
  <g id="Grupo_1215521" data-name="Grupo 1215521" transform="translate(-1114 -2343.543)">
    <g id="Grupo_1211001" data-name="Grupo 1211001" transform="translate(1123 2349.543)">
      <g id="Grupo_1200151" data-name="Grupo 1200151" transform="translate(0 0)">
        <g id="Grupo_1185952" data-name="Grupo 1185952" transform="translate(0 0)">
          <g id="Grupo_1184115" data-name="Grupo 1184115" transform="translate(0 0)">
            <g id="Grupo_1183744" data-name="Grupo 1183744">
              <g id="Grupo_1181546" data-name="Grupo 1181546">
                <g id="Grupo_1177563" data-name="Grupo 1177563">
                  <g id="Grupo_1173148" data-name="Grupo 1173148" transform="translate(0 0)">
                    <g id="Grupo_1163803" data-name="Grupo 1163803" transform="translate(0 0)">
                      <g id="Grupo_1163015" data-name="Grupo 1163015" transform="translate(0 0)">
                        <g id="Grupo_1157017" data-name="Grupo 1157017">
                          <g id="Grupo_1155793" data-name="Grupo 1155793">
                            <g id="Grupo_1154704" data-name="Grupo 1154704">
                              <g id="Grupo_1150790" data-name="Grupo 1150790">
                                <g id="Grupo_1154214" data-name="Grupo 1154214">
                                  <g id="Grupo_1152583" data-name="Grupo 1152583">
                                    <g id="Grupo_1146973" data-name="Grupo 1146973">
                                      <g id="Grupo_1146954" data-name="Grupo 1146954">
                                        <g transform="matrix(1, 0, 0, 1, -9, -6)" filter="url(#Trazado_982547)">
                                          <g id="Trazado_982547-2" data-name="Trazado 982547" transform="translate(9 6)" fill="#f9e3d4">
                                            <path d="M 46.00000381469727 90.49986267089844 C 39.99188232421875 90.49986267089844 34.16427230834961 89.32350158691406 28.67905807495117 87.00344848632812 C 23.38020324707031 84.76223754882812 18.62104415893555 81.55341339111328 14.53375053405762 77.46613311767578 C 10.44647026062012 73.37885284423828 7.237643718719482 68.61968994140625 4.996417045593262 63.32085037231445 C 2.676363706588745 57.83565139770508 1.500003814697266 52.00805282592773 1.500003814697266 45.99993133544922 C 1.500003814697266 39.99182510375977 2.676363706588745 34.16422653198242 4.996417045593262 28.67901039123535 C 7.237643718719482 23.38017082214355 10.44647026062012 18.62101173400879 14.53375053405762 14.53373146057129 C 18.62104415893555 10.44645118713379 23.38020324707031 7.237624645233154 28.67905807495117 4.996411323547363 C 34.16427230834961 2.676357984542847 39.99188232421875 1.499997973442078 46.00000381469727 1.499997973442078 C 52.00812530517578 1.499997973442078 57.83573532104492 2.676357984542847 63.32094955444336 4.996411323547363 C 68.61980438232422 7.237624645233154 73.37896728515625 10.44645118713379 77.46625518798828 14.53373146057129 C 81.55353546142578 18.62101173400879 84.76236724853516 23.38017082214355 87.00359344482422 28.67901039123535 C 89.32364654541016 34.16422653198242 90.5 39.99182510375977 90.5 45.99993133544922 C 90.5 52.00805282592773 89.32364654541016 57.83565139770508 87.00359344482422 63.32085037231445 C 84.76236724853516 68.61968994140625 81.55353546142578 73.37885284423828 77.46625518798828 77.46613311767578 C 73.37896728515625 81.55341339111328 68.61980438232422 84.76223754882812 63.32094955444336 87.00344848632812 C 57.83573532104492 89.32350158691406 52.00812530517578 90.49986267089844 46.00000381469727 90.49986267089844 Z" stroke="none"/>
                                            <path d="M 46.00000381469727 3 C 40.19371795654297 3 34.56270217895508 4.136505126953125 29.26337432861328 6.377914428710938 C 24.14333343505859 8.54351806640625 19.54441833496094 11.64438629150391 15.59440612792969 15.59439086914062 C 11.64440155029297 19.54440307617188 8.54351806640625 24.14330291748047 6.377914428710938 29.26334381103516 C 4.136505126953125 34.56266021728516 3.000007629394531 40.19366073608398 3.000007629394531 45.99993133544922 C 3.000007629394531 51.80620193481445 4.136505126953125 57.43720245361328 6.377914428710938 62.73651885986328 C 8.54351806640625 67.85655975341797 11.64440155029297 72.45545959472656 15.59440612792969 76.40547180175781 C 19.54441833496094 80.35547637939453 24.14333343505859 83.45634460449219 29.26337432861328 85.6219482421875 C 34.56270217895508 87.86335754394531 40.19371795654297 88.99986267089844 46.00000381469727 88.99986267089844 C 51.80628967285156 88.99986267089844 57.43730545043945 87.86335754394531 62.73661804199219 85.6219482421875 C 67.85667419433594 83.45634460449219 72.45557403564453 80.35547637939453 76.40558624267578 76.40547180175781 C 80.35560607910156 72.45545959472656 83.45647430419922 67.85655975341797 85.62207794189453 62.73651885986328 C 87.86350250244141 57.43720245361328 89 51.80620193481445 89 45.99993133544922 C 89 40.19366073608398 87.86350250244141 34.56266021728516 85.62207794189453 29.26334381103516 C 83.45647430419922 24.14330291748047 80.35560607910156 19.54440307617188 76.40558624267578 15.59439086914062 C 72.45557403564453 11.64438629150391 67.85667419433594 8.54351806640625 62.73661804199219 6.377914428710938 C 57.43730545043945 4.136505126953125 51.80628967285156 3 46.00000381469727 3 M 46.00000381469727 0 C 71.40509033203125 0 92 20.59487152099609 92 45.99993133544922 C 92 71.40499114990234 71.40509033203125 91.99986267089844 46.00000381469727 91.99986267089844 C 20.59490203857422 91.99986267089844 7.62939453125e-06 71.40499114990234 7.62939453125e-06 45.99993133544922 C 7.62939453125e-06 20.59487152099609 20.59490203857422 0 46.00000381469727 0 Z" stroke="none" fill="#eca675"/>
                                          </g>
                                        </g>
                                      </g>
                                    </g>
                                  </g>
                                </g>
                              </g>
                            </g>
                          </g>
                        </g>
                      </g>
                    </g>
                  </g>
                </g>
              </g>
            </g>
          </g>
        </g>
      </g>
    </g>
    <g id="gobierno_1_" data-name="gobierno (1)" transform="translate(1131.751 2367.502)">
      <path id="Trazado_1088067" data-name="Trazado 1088067" d="M8,39H64.127v7.016H8Z" transform="translate(1.185 6.434)" fill="#75777a"/>
      <path id="Trazado_1088068" data-name="Trazado 1088068" d="M20,39H48.064v7.016H20Z" transform="translate(3.217 6.434)" fill="#b5b5b5"/>
      <path id="Trazado_1088069" data-name="Trazado 1088069" d="M25,40.524V34.677A4.676,4.676,0,0,1,29.677,30h7.016a4.676,4.676,0,0,1,4.677,4.677v5.847" transform="translate(4.064 4.91)" fill="#aadff1"/>
      <circle id="Elipse_14296" data-name="Elipse 14296" cx="4.5" cy="4.5" r="4.5" transform="translate(32.498 22.498)" fill="#ddbeaa"/>
      <path id="Trazado_1088070" data-name="Trazado 1088070" d="M51.185,6l5.847,18.709H51.185V35.233L43,24.709Z" transform="translate(7.111 0.847)" fill="#fcd192"/>
      <ellipse id="Elipse_14297" data-name="Elipse 14297" cx="2.5" cy="2" rx="2.5" ry="2" transform="translate(55.498 2.498)" fill="#aadff1"/>
      <path id="Trazado_1088071" data-name="Trazado 1088071" d="M14.847,6,9,24.709h5.847V35.233l8.185-10.524Z" transform="translate(1.355 0.847)" fill="#ef9596"/>
      <ellipse id="Elipse_14298" data-name="Elipse 14298" cx="2.5" cy="2" rx="2.5" ry="2" transform="translate(13.498 2.498)" fill="#aadff1"/>
      <g id="Grupo_1215520" data-name="Grupo 1215520" transform="translate(2.169 58.297)">
        <circle id="Elipse_14299" data-name="Elipse 14299" cx="3.5" cy="3.5" r="3.5" transform="translate(3.328 0.201)" fill="#c2957f"/>
        <path id="Trazado_1088072" data-name="Trazado 1088072" d="M2,63.677A4.676,4.676,0,0,1,6.677,59h4.677a4.676,4.676,0,0,1,4.677,4.677" transform="translate(-2 -48.476)" fill="#c2957f"/>
        <circle id="Elipse_14300" data-name="Elipse 14300" cx="3.5" cy="3.5" r="3.5" transform="translate(31.328 0.201)" fill="#c2957f"/>
        <path id="Trazado_1088073" data-name="Trazado 1088073" d="M26,63.677A4.676,4.676,0,0,1,30.677,59h4.677a4.676,4.676,0,0,1,4.677,4.677" transform="translate(2.064 -48.476)" fill="#c2957f"/>
        <circle id="Elipse_14301" data-name="Elipse 14301" cx="3.5" cy="3.5" r="3.5" transform="translate(59.328 0.201)" fill="#c2957f"/>
        <path id="Trazado_1088074" data-name="Trazado 1088074" d="M50,63.677A4.676,4.676,0,0,1,54.677,59h4.677a4.676,4.676,0,0,1,4.677,4.677" transform="translate(6.127 -48.476)" fill="#c2957f"/>
      </g>
      <circle id="Elipse_14302" data-name="Elipse 14302" cx="3.5" cy="3.5" r="3.5" transform="translate(47.498 58.498)" fill="#ddbeaa"/>
      <path id="Trazado_1088075" data-name="Trazado 1088075" d="M38,63.677A4.676,4.676,0,0,1,42.677,59h4.677a4.676,4.676,0,0,1,4.677,4.677" transform="translate(6.265 9.82)" fill="#ddbeaa"/>
      <circle id="Elipse_14303" data-name="Elipse 14303" cx="3.5" cy="3.5" r="3.5" transform="translate(19.498 58.498)" fill="#ddbeaa"/>
      <path id="Trazado_1088076" data-name="Trazado 1088076" d="M14,63.677A4.676,4.676,0,0,1,18.677,59h4.677a4.676,4.676,0,0,1,4.677,4.677" transform="translate(2.201 9.82)" fill="#ddbeaa"/>
      <path id="Trazado_1088077" data-name="Trazado 1088077" d="M65.466,47.709V40.693A1.173,1.173,0,0,0,64.3,39.524H58.45V34.847H56.111v4.677H45.587V34.847A5.849,5.849,0,0,0,39.741,29H32.725a5.849,5.849,0,0,0-5.847,5.847v4.677H16.355V34.847H14.016v4.677H8.169A1.173,1.173,0,0,0,7,40.693v7.016a1.173,1.173,0,0,0,1.169,1.169H64.3A1.173,1.173,0,0,0,65.466,47.709ZM29.217,34.847a3.518,3.518,0,0,1,3.508-3.508h2.339v5.847H37.4V31.339h2.339a3.518,3.518,0,0,1,3.508,3.508v4.677H29.217ZM21.032,46.54H9.339V41.862H21.032Zm28.064,0H23.37V41.862H49.1Zm14.032,0H51.434V41.862H63.127Z" transform="translate(1.016 4.741)"/>
      <path id="Trazado_1088078" data-name="Trazado 1088078" d="M32.847,18a5.847,5.847,0,1,0,5.847,5.847A5.849,5.849,0,0,0,32.847,18Zm0,9.355a3.508,3.508,0,1,1,3.508-3.508A3.518,3.518,0,0,1,32.847,27.355Z" transform="translate(4.402 2.878)"/>
      <path id="Trazado_1088079" data-name="Trazado 1088079" d="M42.246,26.269l8.185,10.524a1.168,1.168,0,0,0,.924.456,1.318,1.318,0,0,0,.374-.058,1.185,1.185,0,0,0,.8-1.111V26.725H57.2a1.169,1.169,0,0,0,.947-.479,1.185,1.185,0,0,0,.175-1.041L52.84,7.677a3.515,3.515,0,1,0-3.1-.07L42.094,25.088a1.135,1.135,0,0,0,.152,1.181Zm9.109-22.93a1.169,1.169,0,1,1-1.169,1.169A1.173,1.173,0,0,1,51.355,3.339Zm-.187,6.841,4.443,14.207H51.355a1.173,1.173,0,0,0-1.169,1.169v7.121l-5.671-7.285,6.653-15.2Z" transform="translate(6.941 0)"/>
      <path id="Trazado_1088080" data-name="Trazado 1088080" d="M8.223,26.246a1.169,1.169,0,0,0,.947.479h4.677V36.08a1.169,1.169,0,0,0,.8,1.111,1.084,1.084,0,0,0,.374.058,1.168,1.168,0,0,0,.924-.456l8.185-10.524a1.168,1.168,0,0,0,.152-1.181L16.631,7.607a3.5,3.5,0,1,0-3.1.07L8.048,25.2A1.149,1.149,0,0,0,8.223,26.246ZM15.017,3.339a1.169,1.169,0,1,1-1.169,1.169A1.173,1.173,0,0,1,15.017,3.339Zm.187,6.841,6.653,15.2-5.671,7.285V25.544a1.173,1.173,0,0,0-1.169-1.169H10.761L15.2,10.167Z" transform="translate(1.184)"/>
      <path id="Trazado_1088081" data-name="Trazado 1088081" d="M4,53.677A4.677,4.677,0,1,0,8.677,49,4.676,4.676,0,0,0,4,53.677Zm7.016,0a2.339,2.339,0,1,1-2.339-2.339A2.346,2.346,0,0,1,11.016,53.677Z" transform="translate(0.508 8.127)"/>
      <path id="Trazado_1088082" data-name="Trazado 1088082" d="M28,53.677A4.677,4.677,0,1,0,32.677,49,4.676,4.676,0,0,0,28,53.677Zm7.016,0a2.339,2.339,0,1,1-2.339-2.339A2.346,2.346,0,0,1,35.016,53.677Z" transform="translate(4.572 8.127)"/>
      <path id="Trazado_1088083" data-name="Trazado 1088083" d="M56.677,58.355A4.677,4.677,0,1,0,52,53.677,4.676,4.676,0,0,0,56.677,58.355Zm0-7.016a2.339,2.339,0,1,1-2.339,2.339A2.346,2.346,0,0,1,56.677,51.339Z" transform="translate(8.635 8.127)"/>
      <path id="Trazado_1088084" data-name="Trazado 1088084" d="M67.651,58H62.974A5.839,5.839,0,0,0,58.3,60.374,5.807,5.807,0,0,0,53.619,58H48.942a5.839,5.839,0,0,0-4.677,2.374A5.807,5.807,0,0,0,39.587,58H34.91a5.839,5.839,0,0,0-4.677,2.374A5.807,5.807,0,0,0,25.556,58H20.878A5.839,5.839,0,0,0,16.2,60.374,5.807,5.807,0,0,0,11.524,58H6.847A5.849,5.849,0,0,0,1,63.847H3.339a3.518,3.518,0,0,1,3.508-3.508h4.677a3.518,3.518,0,0,1,3.508,3.508H17.37a3.518,3.518,0,0,1,3.508-3.508h4.677a3.518,3.518,0,0,1,3.508,3.508H31.4a3.518,3.518,0,0,1,3.508-3.508h4.677A3.518,3.518,0,0,1,43.1,63.847h2.339a3.518,3.518,0,0,1,3.508-3.508h4.677a3.518,3.518,0,0,1,3.508,3.508h2.339a3.518,3.518,0,0,1,3.508-3.508h4.677a3.518,3.518,0,0,1,3.508,3.508H73.5A5.849,5.849,0,0,0,67.651,58Z" transform="translate(0 9.651)"/>
      <path id="Trazado_1088085" data-name="Trazado 1088085" d="M40,53.677A4.677,4.677,0,1,0,44.677,49,4.676,4.676,0,0,0,40,53.677Zm7.016,0a2.339,2.339,0,1,1-2.339-2.339A2.346,2.346,0,0,1,47.016,53.677Z" transform="translate(6.603 8.127)"/>
      <path id="Trazado_1088086" data-name="Trazado 1088086" d="M16,53.677A4.677,4.677,0,1,0,20.677,49,4.676,4.676,0,0,0,16,53.677Zm7.016,0a2.339,2.339,0,1,1-2.339-2.339A2.346,2.346,0,0,1,23.016,53.677Z" transform="translate(2.54 8.127)"/>
    </g>
  </g>
</svg>
