<svg xmlns="http://www.w3.org/2000/svg" xmlns:xlink="http://www.w3.org/1999/xlink" width="93.934" height="93.934" viewBox="0 0 93.934 93.934">
  <defs>
    <filter id="Trazado_978624" x="0" y="0" width="93.934" height="93.934" filterUnits="userSpaceOnUse">
      <feOffset dy="3" input="SourceAlpha"/>
      <feGaussianBlur stdDeviation="3" result="blur"/>
      <feFlood flood-opacity="0.161"/>
      <feComposite operator="in" in2="blur"/>
      <feComposite in="SourceGraphic"/>
    </filter>
  </defs>
  <g id="Grupo_1215651" data-name="Grupo 1215651" transform="translate(-820 -1985.533)">
    <g id="Grupo_1214668" data-name="Grupo 1214668" transform="translate(629 1260.5)">
      <g id="Grupo_1212847" data-name="Grupo 1212847" transform="translate(-418 -798.5)">
        <g id="Grupo_1210963" data-name="Grupo 1210963" transform="translate(0 -377.186)">
          <g id="Grupo_1208068" data-name="Grupo 1208068" transform="translate(412 470.719)">
            <g id="Grupo_1144123" data-name="Grupo 1144123" transform="translate(206 1436)">
              <g transform="matrix(1, 0, 0, 1, -9, -6)" filter="url(#Trazado_978624)">
                <g id="Trazado_978624-2" data-name="Trazado 978624" transform="translate(9 6)" fill="#f2f4f0">
                  <path d="M 37.966796875 74.43359375 C 33.04315185546875 74.43359375 28.26757431030273 73.46962738037109 23.77274131774902 71.56847381591797 C 19.43047523498535 69.73184967041016 15.53040790557861 67.10224914550781 12.18087482452393 63.75271987915039 C 8.831341743469238 60.4031867980957 6.201741218566895 56.50312042236328 4.365118980407715 52.16086196899414 C 2.463963508605957 47.66601943969727 1.499996900558472 42.89044189453125 1.499996900558472 37.966796875 C 1.499996900558472 33.04315185546875 2.463963508605957 28.26757431030273 4.365118980407715 23.77274131774902 C 6.201741218566895 19.43047523498535 8.831341743469238 15.53040790557861 12.18087482452393 12.18087482452393 C 15.53040790557861 8.831341743469238 19.43047523498535 6.201741218566895 23.77274131774902 4.365118980407715 C 28.26757431030273 2.463963508605957 33.04315185546875 1.499996900558472 37.966796875 1.499996900558472 C 42.89044189453125 1.499996900558472 47.66601943969727 2.463963508605957 52.16086196899414 4.365118980407715 C 56.50312042236328 6.201741218566895 60.4031867980957 8.831341743469238 63.75271987915039 12.18087482452393 C 67.10224914550781 15.53040790557861 69.73184967041016 19.43047523498535 71.56847381591797 23.77274131774902 C 73.46962738037109 28.26757431030273 74.43359375 33.04315185546875 74.43359375 37.966796875 C 74.43359375 42.89044189453125 73.46962738037109 47.66601943969727 71.56847381591797 52.16086196899414 C 69.73184967041016 56.50313186645508 67.10224914550781 60.4031867980957 63.75271987915039 63.75271987915039 C 60.4031867980957 67.10224914550781 56.50313186645508 69.73184967041016 52.16086196899414 71.56847381591797 C 47.66601943969727 73.46962738037109 42.89044189453125 74.43359375 37.966796875 74.43359375 Z" stroke="none"/>
                  <path d="M 37.966796875 3 C 33.2449836730957 3 28.66600799560547 3.924095153808594 24.35705947875977 5.746635437011719 C 20.19359588623047 7.507621765136719 16.45379638671875 10.02927398681641 13.24153518676758 13.24153518676758 C 10.02927398681641 16.45379638671875 7.507621765136719 20.19359588623047 5.746635437011719 24.35705947875977 C 3.924095153808594 28.66600799560547 3 33.2449836730957 3 37.966796875 C 3 42.6886100769043 3.924095153808594 47.26758575439453 5.746635437011719 51.57653427124023 C 7.507621765136719 55.73999786376953 10.02927398681641 59.47979736328125 13.24153518676758 62.69205856323242 C 16.45379638671875 65.90431976318359 20.19359588623047 68.42597198486328 24.35705947875977 70.18695831298828 C 28.66600799560547 72.00949859619141 33.2449836730957 72.93359375 37.966796875 72.93359375 C 42.6886100769043 72.93359375 47.26758575439453 72.00949859619141 51.57653427124023 70.18695831298828 C 55.73999786376953 68.42597198486328 59.47979736328125 65.90431976318359 62.69205856323242 62.69205856323242 C 65.90431976318359 59.47979736328125 68.42597198486328 55.73999786376953 70.18695831298828 51.57653427124023 C 72.00949859619141 47.26758575439453 72.93359375 42.6886100769043 72.93359375 37.966796875 C 72.93359375 33.2449836730957 72.00949859619141 28.66600799560547 70.18695831298828 24.35705947875977 C 68.42597198486328 20.19359588623047 65.90431976318359 16.45379638671875 62.69205856323242 13.24153518676758 C 59.47979736328125 10.02927398681641 55.73999786376953 7.507621765136719 51.57653427124023 5.746635437011719 C 47.26758575439453 3.924095153808594 42.6886100769043 3 37.966796875 3 M 37.966796875 0 C 58.93528366088867 0 75.93359375 16.99831008911133 75.93359375 37.966796875 C 75.93359375 58.93528366088867 58.93528366088867 75.93359375 37.966796875 75.93359375 C 16.99831008911133 75.93359375 0 58.93528366088867 0 37.966796875 C 0 16.99831008911133 16.99831008911133 0 37.966796875 0 Z" stroke="none" fill="#899e78"/>
                </g>
              </g>
            </g>
          </g>
        </g>
      </g>
    </g>
    <g id="libertad-de-expresion_1_" data-name="libertad-de-expresion (1)" transform="translate(775.873 2006)">
      <g id="Grupo_1215648" data-name="Grupo 1215648" transform="translate(69.496 0.9)">
        <g id="Grupo_1215636" data-name="Grupo 1215636" transform="translate(2.436)">
          <path id="Trazado_1159959" data-name="Trazado 1159959" d="M133.043,60.021H98.067a1.673,1.673,0,0,1-1.673-1.673V25.817A18.317,18.317,0,0,1,114.711,7.5H116.4a18.317,18.317,0,0,1,18.317,18.317V58.348A1.672,1.672,0,0,1,133.043,60.021Z" transform="translate(-96.394 -7.5)" fill="#5b6f6f"/>
        </g>
        <g id="Grupo_1215637" data-name="Grupo 1215637" transform="translate(0 45.865)">
          <path id="Trazado_1159960" data-name="Trazado 1159960" d="M117.953,403.346H77.44a1.34,1.34,0,0,1-1.294-1.688l1.06-3.941a11.038,11.038,0,0,1,10.659-8.172h19.663a11.038,11.038,0,0,1,10.659,8.172l1.06,3.941A1.34,1.34,0,0,1,117.953,403.346Z" transform="translate(-76.099 -389.545)" fill="#60b7ff"/>
        </g>
        <g id="Grupo_1215638" data-name="Grupo 1215638" transform="translate(0 47.085)">
          <path id="Trazado_1159961" data-name="Trazado 1159961" d="M119.247,410.594l-1.06-3.941a11.032,11.032,0,0,0-5.621-6.952,11.019,11.019,0,0,1,1.539,3.351l.576,2.142a2.768,2.768,0,0,1-2.673,3.487H76.66l-.515,1.913a1.34,1.34,0,0,0,1.294,1.688h40.513A1.34,1.34,0,0,0,119.247,410.594Z" transform="translate(-76.099 -399.701)" fill="#26a6fe"/>
        </g>
        <g id="Grupo_1215639" data-name="Grupo 1215639" transform="translate(15.825 38.147)">
          <path id="Trazado_1159962" data-name="Trazado 1159962" d="M213.844,337.992h-.312a5.617,5.617,0,0,1-5.617-5.617v-7.12H219.46v7.12A5.617,5.617,0,0,1,213.844,337.992Z" transform="translate(-207.915 -325.256)" fill="#ffe5c2"/>
        </g>
        <g id="Grupo_1215640" data-name="Grupo 1215640" transform="translate(6.441 5.076)">
          <path id="Trazado_1159963" data-name="Trazado 1159963" d="M144.91,49.78a15.156,15.156,0,0,0-15.156,15.156v7.331a11.714,11.714,0,0,0,4.37,9.121c3.414,2.75,8.028,6,10.786,6s7.373-3.247,10.786-6a11.714,11.714,0,0,0,4.37-9.121V64.936A15.156,15.156,0,0,0,144.91,49.78Z" transform="translate(-129.754 -49.78)" fill="#ffe5c2"/>
        </g>
        <g id="Grupo_1215641" data-name="Grupo 1215641" transform="translate(17.752 5.357)">
          <path id="Trazado_1159964" data-name="Trazado 1159964" d="M230.729,52.121a15.157,15.157,0,0,1,8.553,13.645V73.1a11.714,11.714,0,0,1-4.37,9.121c-3.414,2.75-8.028,6-10.786,6-.051,0-.1,0-.156-.006a9.07,9.07,0,0,0,3.845,1.235c2.759,0,7.373-3.247,10.786-6a11.714,11.714,0,0,0,4.37-9.121V67A15.16,15.16,0,0,0,230.729,52.121Z" transform="translate(-223.97 -52.121)" fill="#fed2a4"/>
        </g>
        <g id="Grupo_1215642" data-name="Grupo 1215642" transform="translate(36.754 20.232)">
          <path id="Trazado_1159965" data-name="Trazado 1159965" d="M382.245,176.026h2.093a2.931,2.931,0,0,1,2.931,2.931v.087a4.108,4.108,0,0,1-2.822,3.9l-2.2.726Z" transform="translate(-382.245 -176.026)" fill="#ffe5c2"/>
        </g>
        <g id="Grupo_1215643" data-name="Grupo 1215643" transform="translate(1.418 20.232)">
          <path id="Trazado_1159966" data-name="Trazado 1159966" d="M92.935,176.026H90.842a2.931,2.931,0,0,0-2.931,2.931v.087a4.108,4.108,0,0,0,2.822,3.9l2.2.726Z" transform="translate(-87.911 -176.026)" fill="#ffe5c2"/>
        </g>
        <g id="Grupo_1215644" data-name="Grupo 1215644" transform="translate(6.442 5.076)">
          <path id="Trazado_1159967" data-name="Trazado 1159967" d="M160.067,64.935a15.156,15.156,0,0,0-30.312,0h0c11.354,0,15.156-4.547,15.156-4.547s3.8,4.547,15.156,4.547Z" transform="translate(-129.755 -49.78)" fill="#e9a876"/>
        </g>
        <g id="Grupo_1215645" data-name="Grupo 1215645" transform="translate(6.442 5.076)">
          <path id="Trazado_1159968" data-name="Trazado 1159968" d="M160.067,64.935a15.156,15.156,0,0,0-30.312,0h0c11.354,0,15.156-4.547,15.156-4.547s3.8,4.547,15.156,4.547Z" transform="translate(-129.755 -49.78)" fill="#e9a876"/>
        </g>
        <g id="Grupo_1215646" data-name="Grupo 1215646" transform="translate(5.526 3.905)">
          <path id="Trazado_1159969" data-name="Trazado 1159969" d="M154.294,56.356c0-8.37-7.727-16.326-16.1-16.326s-16.072,7.956-16.072,16.326h.916c11.354,0,15.156-4.547,15.156-4.547s3.8,4.547,15.156,4.547Z" transform="translate(-122.125 -40.03)" fill="#5b6f6f"/>
        </g>
        <g id="Grupo_1215647" data-name="Grupo 1215647" transform="translate(15.72 23.955)">
          <path id="Trazado_1159970" data-name="Trazado 1159970" d="M218.574,208.923l-1.665-1.665a.752.752,0,0,0-1.064,0l-2.4,2.4a.752.752,0,0,1-1.064,0l-2.4-2.4a.752.752,0,0,0-1.064,0l-1.665,1.665a.752.752,0,0,0,0,1.064l2.4,2.4a.752.752,0,0,1,0,1.064l-2.4,2.4a.752.752,0,0,0,0,1.064l1.665,1.665a.752.752,0,0,0,1.064,0l2.4-2.4a.752.752,0,0,1,1.064,0l2.4,2.4a.752.752,0,0,0,1.064,0l1.665-1.665a.752.752,0,0,0,0-1.064l-2.4-2.4a.752.752,0,0,1,0-1.064l2.4-2.4A.752.752,0,0,0,218.574,208.923Z" transform="translate(-207.038 -207.038)" fill="#fd4755"/>
        </g>
      </g>
      <g id="Grupo_1215649" data-name="Grupo 1215649" transform="translate(68.596 0)">
        <path id="Trazado_1159971" data-name="Trazado 1159971" d="M208.613,212.611a1.653,1.653,0,0,0,2.338,0l1.665-1.665a1.655,1.655,0,0,0,0-2.338l-2.292-2.292,2.292-2.292a1.655,1.655,0,0,0,0-2.338h0l-1.665-1.665a1.653,1.653,0,0,0-2.337,0l-2.292,2.292-2.292-2.292a1.653,1.653,0,0,0-2.337,0l-1.665,1.665a1.655,1.655,0,0,0,0,2.337l2.292,2.292-2.292,2.292a1.655,1.655,0,0,0,0,2.337l1.665,1.665a1.653,1.653,0,0,0,2.338,0l2.292-2.292Zm-3.461-3.67-2.292,2.292-1.456-1.456,2.292-2.292a1.653,1.653,0,0,0,0-2.338l-2.292-2.292,1.456-1.456,2.292,2.292a1.653,1.653,0,0,0,2.338,0l2.292-2.292,1.456,1.456-2.292,2.292a1.655,1.655,0,0,0,0,2.337l2.292,2.292-1.456,1.456-2.292-2.292a1.653,1.653,0,0,0-2.337,0Z" transform="translate(-183.823 -175.584)"/>
        <path id="Trazado_1159972" data-name="Trazado 1159972" d="M113.514,58.644l-1.06-3.941a11.884,11.884,0,0,0-1.3-3.048V27.18a5,5,0,0,0,1.019-3.03v-.087a3.816,3.816,0,0,0-1.019-2.6V19.218a19.148,19.148,0,0,0-1.225-6.767.9.9,0,1,0-1.685.634,17.352,17.352,0,0,1,1.11,6.133v1.151a3.819,3.819,0,0,0-1.012-.137h-2.124c-10.683-.008-14.4-4.187-14.434-4.224a.9.9,0,0,0-1.377,0c-.036.042-3.754,4.22-14.434,4.229H73.846a3.823,3.823,0,0,0-1.012.137V19.218A17.437,17.437,0,0,1,90.25,1.8h1.688A17.412,17.412,0,0,1,106.38,9.48a.9.9,0,0,0,1.492-1.008A19.211,19.211,0,0,0,91.938,0H90.25A19.239,19.239,0,0,0,71.032,19.218v2.248a3.816,3.816,0,0,0-1.018,2.6v.087a5,5,0,0,0,3.44,4.756l1.622.535a12.554,12.554,0,0,0,4.667,8.844,57.666,57.666,0,0,0,4.678,3.438v4.143H81.262a11.941,11.941,0,0,0-8.429,3.492V31.483a.9.9,0,1,0-1.8,0V51.655a11.884,11.884,0,0,0-1.3,3.048l-1.059,3.941a2.24,2.24,0,0,0,2.163,2.822H111.35a2.241,2.241,0,0,0,2.164-2.822ZM100.926,45.866H97.767V41.723a57.7,57.7,0,0,0,4.678-3.438,12.555,12.555,0,0,0,4.667-8.844s2.043-.69,2.242-.787v20.7A11.94,11.94,0,0,0,100.926,45.866Zm9.448-21.8v.087a3.2,3.2,0,0,1-2.2,3.046l-1.02.336v-5.5h1.192A2.033,2.033,0,0,1,110.373,24.063Zm-38.558.087v-.087a2.033,2.033,0,0,1,2.031-2.031h1.192v5.5L74.018,27.2A3.2,3.2,0,0,1,71.815,24.151Zm5.024,4.337V22.023c8.514-.181,12.727-2.9,14.255-4.195,1.529,1.293,5.741,4.014,14.256,4.195v6.44a10.767,10.767,0,0,1-4.034,8.42c-4.641,3.739-8.271,5.8-10.222,5.8s-5.581-2.059-10.222-5.8a10.767,10.767,0,0,1-4.034-8.4ZM91.094,44.482a10.791,10.791,0,0,0,4.872-1.667v3.2a4.872,4.872,0,0,1-9.745,0v-3.2A10.792,10.792,0,0,0,91.094,44.482ZM111.7,59.494a.432.432,0,0,1-.349.172H70.837a.44.44,0,0,1-.425-.554l1.059-3.941a10.154,10.154,0,0,1,9.79-7.505h3.367a6.674,6.674,0,0,0,12.93,0h3.367a10.154,10.154,0,0,1,9.79,7.505l1.06,3.941A.432.432,0,0,1,111.7,59.494Z" transform="translate(-68.596 0)"/>
      </g>
    </g>
  </g>
</svg>
